<svg width="390" height="844" viewBox="0 0 390 844" fill="none" xmlns="http://www.w3.org/2000/svg">
<g clip-path="url(#clip0_292_5335)">
<rect width="390" height="844" fill="white"/>
<circle cx="171" cy="678" r="6" fill="#FF004E"/>
<circle cx="195" cy="678" r="6" fill="#E1E1E1"/>
<circle cx="219" cy="678" r="6" fill="#E1E1E1"/>
<rect width="390" height="47" fill="#FDFDFD"/>
<g clip-path="url(#clip1_292_5335)">
<path d="M118.26 -1H271.692V14C271.692 23.3888 264.129 31 254.8 31H135.152C125.823 31 118.26 23.3888 118.26 14V-1Z" fill="black"/>
<path d="M118.49 -1L117 -2C119.634 -2 118.291 1.14875 118.291 3.79934C118.291 3.86656 118.29 3.93345 118.287 4H118.49V-1Z" fill="black"/>
<path d="M271.51 -1L273 -2C270.366 -2 271.709 1.14875 271.709 3.79934C271.709 3.86656 271.71 3.93345 271.713 4H271.51V-1Z" fill="black"/>
<path d="M42.883 19.8145C40.2184 19.8145 38.2678 21.5493 38.2678 23.998V24.0146C38.2678 26.2642 39.8532 27.8994 42.1691 27.8994C43.7878 27.8994 44.9665 27.0859 45.4396 25.9736H45.4811C45.4894 26.1064 45.4811 26.2725 45.4728 26.4302C45.3815 28.5469 44.6179 30.2153 42.8664 30.2153C41.8869 30.2153 41.2228 29.7256 40.924 29.0034L40.8991 28.937H38.4255L38.4421 29.0117C38.799 30.8628 40.5422 32.2075 42.8581 32.2075C45.9792 32.2075 47.8801 29.8418 47.8801 25.9155V25.8989C47.8801 21.8398 45.7717 19.8145 42.883 19.8145ZM42.8913 26.0483C41.6462 26.0483 40.7082 25.1768 40.7082 23.9316V23.915C40.7082 22.728 41.696 21.8066 42.9162 21.8066C44.1447 21.8066 45.1076 22.7363 45.1076 23.9482V23.9565C45.1076 25.1768 44.1447 26.0483 42.8913 26.0483ZM50.203 24.3965C50.9501 24.3965 51.5477 23.8071 51.5477 23.0518C51.5477 22.3047 50.9501 21.707 50.203 21.707C49.4477 21.707 48.8583 22.3047 48.8583 23.0518C48.8583 23.8071 49.4477 24.3965 50.203 24.3965ZM50.203 30.3066C50.9501 30.3066 51.5477 29.709 51.5477 28.9619C51.5477 28.2065 50.9501 27.6172 50.203 27.6172C49.4477 27.6172 48.8583 28.2065 48.8583 28.9619C48.8583 29.709 49.4477 30.3066 50.203 30.3066ZM58.4029 32H60.7853V29.8003H62.3624V27.7998H60.7853V20.022H57.2491L52.443 27.7085V29.8003H58.4029V32ZM54.6261 27.8662V27.7998L58.3946 21.8315H58.4527V27.8662H54.6261ZM66.2044 32H68.6863V20.022H66.1961L63.0999 22.1719V24.3965L66.1546 22.3213H66.2044V32Z" fill="#030303"/>
<path opacity="0.35" d="M336.5 23C336.5 21.067 338.067 19.5 340 19.5H357C358.933 19.5 360.5 21.067 360.5 23V28C360.5 29.933 358.933 31.5 357 31.5H340C338.067 31.5 336.5 29.933 336.5 28V23Z" stroke="#030303"/>
<path opacity="0.4" d="M362 24V28.2203C362.849 27.8629 363.401 27.0314 363.401 26.1102C363.401 25.1889 362.849 24.3574 362 24Z" fill="#030303"/>
<path d="M338 23C338 21.8954 338.895 21 340 21H357C358.105 21 359 21.8954 359 23V28C359 29.1046 358.105 30 357 30H340C338.895 30 338 29.1046 338 28V23Z" fill="#030303"/>
<path fill-rule="evenodd" clip-rule="evenodd" d="M320.5 22.5875C322.967 22.5876 325.339 23.5551 327.127 25.2898C327.261 25.4237 327.477 25.4221 327.609 25.286L328.896 23.9605C328.963 23.8915 329.001 23.798 329 23.7008C328.999 23.6035 328.961 23.5105 328.893 23.4423C324.201 18.8526 316.799 18.8526 312.107 23.4423C312.039 23.5105 312.001 23.6034 312 23.7007C311.999 23.7979 312.037 23.8914 312.104 23.9605L313.391 25.286C313.523 25.4223 313.739 25.424 313.873 25.2898C315.661 23.5549 318.034 22.5875 320.5 22.5875ZM320.536 26.5894C321.891 26.5893 323.198 27.1035 324.203 28.032C324.338 28.1638 324.552 28.1609 324.685 28.0255L325.97 26.7C326.038 26.6304 326.075 26.5361 326.074 26.4381C326.073 26.3401 326.034 26.2466 325.965 26.1784C322.906 23.2739 318.169 23.2739 315.109 26.1784C315.04 26.2466 315.001 26.3401 315 26.4382C314.999 26.5362 315.037 26.6305 315.105 26.7L316.39 28.0255C316.522 28.1609 316.736 28.1638 316.872 28.032C317.876 27.1041 319.182 26.5899 320.536 26.5894ZM323.15 29.1767C323.152 29.275 323.114 29.3698 323.045 29.4386L320.822 31.7289C320.756 31.7962 320.668 31.834 320.575 31.834C320.482 31.834 320.393 31.7962 320.328 31.7289L318.105 29.4386C318.036 29.3697 317.998 29.2749 318 29.1766C318.002 29.0783 318.044 28.9853 318.115 28.9194C319.535 27.6935 321.615 27.6935 323.035 28.9194C323.106 28.9853 323.148 29.0784 323.15 29.1767Z" fill="#030303"/>
<path d="M296 23C296 22.4477 296.448 22 297 22H298C298.552 22 299 22.4477 299 23V31C299 31.5523 298.552 32 298 32H297C296.448 32 296 31.5523 296 31V23Z" fill="#030303"/>
<path d="M301 21C301 20.4477 301.448 20 302 20H303C303.552 20 304 20.4477 304 21V31C304 31.5523 303.552 32 303 32H302C301.448 32 301 31.5523 301 31V21Z" fill="#030303"/>
<path d="M291 26.5C291 25.9477 291.448 25.5 292 25.5H293C293.552 25.5 294 25.9477 294 26.5V31C294 31.5523 293.552 32 293 32H292C291.448 32 291 31.5523 291 31V26.5Z" fill="#030303"/>
<path d="M286 29C286 28.4477 286.448 28 287 28H288C288.552 28 289 28.4477 289 29V31C289 31.5523 288.552 32 288 32H287C286.448 32 286 31.5523 286 31V29Z" fill="#030303"/>
</g>
<g filter="url(#filter0_i_292_5335)">
<rect width="390" height="64" transform="translate(0 780)" fill="#F51E5F"/>
<path d="M172.438 818H173.828V809.258H173.953L180.07 818H181.438V806.727H180.047V815.5H179.922L173.805 806.727H172.438V818ZM187.21 818.148C189.194 818.148 190.398 817.023 190.687 815.883L190.702 815.82H189.343L189.312 815.891C189.085 816.398 188.382 816.938 187.241 816.938C185.741 816.938 184.78 815.922 184.741 814.18H190.804V813.648C190.804 811.133 189.413 809.43 187.124 809.43C184.835 809.43 183.351 811.211 183.351 813.812V813.82C183.351 816.461 184.804 818.148 187.21 818.148ZM187.116 810.641C188.359 810.641 189.28 811.43 189.421 813.094H184.765C184.913 811.492 185.866 810.641 187.116 810.641ZM191.561 818H193.084L195.084 814.82H195.209L197.201 818H198.795L195.897 813.734L198.756 809.578H197.233L195.256 812.711H195.131L193.131 809.578H191.53L194.444 813.789L191.561 818ZM203.248 818.062C203.513 818.062 203.771 818.031 204.037 817.984V816.828C203.787 816.852 203.654 816.859 203.412 816.859C202.537 816.859 202.193 816.461 202.193 815.469V810.703H204.037V809.578H202.193V807.398H200.787V809.578H199.458V810.703H200.787V815.812C200.787 817.422 201.513 818.062 203.248 818.062ZM217.543 812.805L209.668 809.328V810.664L216.301 813.484L209.668 816.312V817.602L217.543 814.125V812.805Z" fill="#FDFDFD"/>
</g>
<rect width="390" height="64" transform="translate(0 716)" fill="#FDFDFD"/>
<path d="M184.133 754.266C186.648 754.266 188.297 752.953 188.297 750.844V750.836C188.297 749.211 187.367 748.266 185.016 747.742L183.766 747.461C182.234 747.125 181.617 746.516 181.617 745.617V745.609C181.617 744.43 182.703 743.766 184.109 743.758C185.578 743.75 186.516 744.484 186.672 745.477L186.688 745.578H188.094L188.086 745.469C187.969 743.789 186.398 742.461 184.148 742.461C181.82 742.461 180.188 743.781 180.18 745.648V745.656C180.18 747.289 181.156 748.328 183.414 748.828L184.664 749.102C186.211 749.445 186.859 750.086 186.859 751.023V751.031C186.859 752.18 185.742 752.969 184.211 752.969C182.586 752.969 181.414 752.258 181.312 751.133L181.305 751.047H179.898L179.906 751.133C180.07 752.969 181.664 754.266 184.133 754.266ZM190.179 754H191.538V750.805L192.327 750.039L195.484 754H197.194L193.28 749.117L196.952 745.578H195.304L191.663 749.258H191.538V742.234H190.179V754ZM199.139 743.953C199.655 743.953 200.076 743.531 200.076 743.016C200.076 742.5 199.655 742.078 199.139 742.078C198.623 742.078 198.201 742.5 198.201 743.016C198.201 743.531 198.623 743.953 199.139 743.953ZM198.451 754H199.811V745.578H198.451V754ZM202.005 756.812H203.365V752.672H203.49C203.951 753.57 204.958 754.148 206.115 754.148C208.255 754.148 209.646 752.438 209.646 749.797V749.781C209.646 747.156 208.248 745.43 206.115 745.43C204.943 745.43 204.005 745.984 203.49 746.922H203.365V745.578H202.005V756.812ZM205.802 752.945C204.271 752.945 203.333 751.742 203.333 749.797V749.781C203.333 747.836 204.271 746.633 205.802 746.633C207.341 746.633 208.255 747.82 208.255 749.781V749.797C208.255 751.758 207.341 752.945 205.802 752.945Z" fill="#030303"/>
<path d="M67.362 286.6H76.382V344H67.362V286.6ZM89.3694 294.8H79.9394V286.6H107.819V294.8H98.3894V344H89.3694V294.8ZM115.119 295.292H112.167V286.6H120.859V294.39L115.857 305.132H111.675L115.119 295.292ZM138.528 344.82C134.155 344.82 130.848 343.59 128.606 341.13C126.365 338.615 125.244 335.035 125.244 330.388V327.108H133.772V331.044C133.772 334.761 135.33 336.62 138.446 336.62C139.977 336.62 141.125 336.183 141.89 335.308C142.71 334.379 143.12 332.903 143.12 330.88C143.12 328.475 142.574 326.37 141.48 324.566C140.387 322.707 138.364 320.493 135.412 317.924C131.695 314.644 129.098 311.692 127.622 309.068C126.146 306.389 125.408 303.383 125.408 300.048C125.408 295.511 126.556 292.012 128.852 289.552C131.148 287.037 134.483 285.78 138.856 285.78C143.175 285.78 146.428 287.037 148.614 289.552C150.856 292.012 151.976 295.565 151.976 300.212V302.59H143.448V299.638C143.448 297.67 143.066 296.249 142.3 295.374C141.535 294.445 140.414 293.98 138.938 293.98C135.932 293.98 134.428 295.811 134.428 299.474C134.428 301.551 134.975 303.492 136.068 305.296C137.216 307.1 139.266 309.287 142.218 311.856C145.99 315.136 148.587 318.115 150.008 320.794C151.43 323.473 152.14 326.616 152.14 330.224C152.14 334.925 150.965 338.533 148.614 341.048C146.318 343.563 142.956 344.82 138.528 344.82ZM175.775 286.6H187.993L197.341 344H188.321L186.681 332.602V332.766H176.431L174.791 344H166.427L175.775 286.6ZM185.615 324.976L181.597 296.604H181.433L177.497 324.976H185.615ZM200.897 286.6H214.509C219.156 286.6 222.545 287.693 224.677 289.88C226.809 292.012 227.875 295.319 227.875 299.802V302.098C227.875 305.05 227.383 307.455 226.399 309.314C225.47 311.173 224.021 312.512 222.053 313.332V313.496C226.536 315.027 228.777 319.017 228.777 325.468V330.388C228.777 334.816 227.602 338.205 225.251 340.556C222.955 342.852 219.566 344 215.083 344H200.897V286.6ZM213.443 309.97C215.247 309.97 216.586 309.505 217.461 308.576C218.39 307.647 218.855 306.089 218.855 303.902V300.704C218.855 298.627 218.472 297.123 217.707 296.194C216.996 295.265 215.848 294.8 214.263 294.8H209.917V309.97H213.443ZM215.083 335.8C216.668 335.8 217.844 335.39 218.609 334.57C219.374 333.695 219.757 332.219 219.757 330.142V325.14C219.757 322.516 219.292 320.712 218.363 319.728C217.488 318.689 216.012 318.17 213.935 318.17H209.917V335.8H215.083ZM246.267 344.82C241.839 344.82 238.45 343.563 236.099 341.048C233.749 338.533 232.573 334.98 232.573 330.388V300.212C232.573 295.62 233.749 292.067 236.099 289.552C238.45 287.037 241.839 285.78 246.267 285.78C250.695 285.78 254.085 287.037 256.435 289.552C258.786 292.067 259.961 295.62 259.961 300.212V330.388C259.961 334.98 258.786 338.533 256.435 341.048C254.085 343.563 250.695 344.82 246.267 344.82ZM246.267 336.62C249.383 336.62 250.941 334.734 250.941 330.962V299.638C250.941 295.866 249.383 293.98 246.267 293.98C243.151 293.98 241.593 295.866 241.593 299.638V330.962C241.593 334.734 243.151 336.62 246.267 336.62ZM278.361 344.82C273.988 344.82 270.653 343.59 268.357 341.13C266.061 338.615 264.913 335.035 264.913 330.388V286.6H273.933V331.044C273.933 333.012 274.316 334.433 275.081 335.308C275.901 336.183 277.049 336.62 278.525 336.62C280.001 336.62 281.122 336.183 281.887 335.308C282.707 334.433 283.117 333.012 283.117 331.044V286.6H291.809V330.388C291.809 335.035 290.661 338.615 288.365 341.13C286.069 343.59 282.735 344.82 278.361 344.82ZM304.466 294.8H295.036V286.6H322.916V294.8H313.486V344H304.466V294.8ZM74.414 365.8H64.984V357.6H92.864V365.8H83.434V415H74.414V365.8ZM96.4111 357.6H105.431V415H96.4111V357.6ZM111.367 357.6H124.241L129.981 398.682H130.145L135.885 357.6H148.759V415H140.231V371.54H140.067L133.507 415H125.963L119.403 371.54H119.239V415H111.367V357.6ZM154.67 357.6H179.27V365.8H163.69V380.97H176.072V389.17H163.69V406.8H179.27V415H154.67V357.6ZM203.003 365.8H193.573V357.6H221.453V365.8H212.023V415H203.003V365.8ZM237.718 415.82C233.29 415.82 229.901 414.563 227.55 412.048C225.2 409.533 224.024 405.98 224.024 401.388V371.212C224.024 366.62 225.2 363.067 227.55 360.552C229.901 358.037 233.29 356.78 237.718 356.78C242.146 356.78 245.536 358.037 247.886 360.552C250.237 363.067 251.412 366.62 251.412 371.212V401.388C251.412 405.98 250.237 409.533 247.886 412.048C245.536 414.563 242.146 415.82 237.718 415.82ZM237.718 407.62C240.834 407.62 242.392 405.734 242.392 401.962V370.638C242.392 366.866 240.834 364.98 237.718 364.98C234.602 364.98 233.044 366.866 233.044 370.638V401.962C233.044 405.734 234.602 407.62 237.718 407.62ZM269.005 357.6H282.617C287.264 357.6 290.653 358.693 292.785 360.88C294.917 363.012 295.983 366.319 295.983 370.802V373.098C295.983 376.05 295.491 378.455 294.507 380.314C293.578 382.173 292.129 383.512 290.161 384.332V384.496C294.644 386.027 296.885 390.017 296.885 396.468V401.388C296.885 405.816 295.71 409.205 293.359 411.556C291.063 413.852 287.674 415 283.191 415H269.005V357.6ZM281.551 380.97C283.355 380.97 284.694 380.505 285.569 379.576C286.498 378.647 286.963 377.089 286.963 374.902V371.704C286.963 369.627 286.58 368.123 285.815 367.194C285.104 366.265 283.956 365.8 282.371 365.8H278.025V380.97H281.551ZM283.191 406.8C284.776 406.8 285.952 406.39 286.717 405.57C287.482 404.695 287.865 403.219 287.865 401.142V396.14C287.865 393.516 287.4 391.712 286.471 390.728C285.596 389.689 284.12 389.17 282.043 389.17H278.025V406.8H283.191ZM301.337 357.6H325.937V365.8H310.357V380.97H322.739V389.17H310.357V406.8H325.937V415H301.337V357.6Z" fill="#030303"/>
<path d="M74.414 436.8H64.984V428.6H92.864V436.8H83.434V486H74.414V436.8ZM96.4111 428.6H105.431V451.97H115.107V428.6H124.127V486H115.107V460.17H105.431V486H96.4111V428.6ZM130.025 428.6H154.625V436.8H139.045V451.97H151.427V460.17H139.045V477.8H154.625V486H130.025V428.6ZM168.929 428.6H178.031L183.935 473.126H184.099L190.003 428.6H198.285L189.593 486H177.621L168.929 428.6ZM214.675 486.82C210.247 486.82 206.858 485.563 204.507 483.048C202.156 480.533 200.981 476.98 200.981 472.388V442.212C200.981 437.62 202.156 434.067 204.507 431.552C206.858 429.037 210.247 427.78 214.675 427.78C219.103 427.78 222.492 429.037 224.843 431.552C227.194 434.067 228.369 437.62 228.369 442.212V472.388C228.369 476.98 227.194 480.533 224.843 483.048C222.492 485.563 219.103 486.82 214.675 486.82ZM214.675 478.62C217.791 478.62 219.349 476.734 219.349 472.962V441.638C219.349 437.866 217.791 435.98 214.675 435.98C211.559 435.98 210.001 437.866 210.001 441.638V472.962C210.001 476.734 211.559 478.62 214.675 478.62ZM233.649 428.6H242.669V486H233.649V428.6ZM261.314 486.82C256.996 486.82 253.688 485.59 251.392 483.13C249.151 480.67 248.03 477.199 248.03 472.716V441.884C248.03 437.401 249.151 433.93 251.392 431.47C253.688 429.01 256.996 427.78 261.314 427.78C265.633 427.78 268.913 429.01 271.154 431.47C273.45 433.93 274.598 437.401 274.598 441.884V447.952H266.07V441.31C266.07 437.757 264.567 435.98 261.56 435.98C258.554 435.98 257.05 437.757 257.05 441.31V473.372C257.05 476.871 258.554 478.62 261.56 478.62C264.567 478.62 266.07 476.871 266.07 473.372V464.598H274.598V472.716C274.598 477.199 273.45 480.67 271.154 483.13C268.913 485.59 265.633 486.82 261.314 486.82ZM279.175 428.6H303.775V436.8H288.195V451.97H300.577V460.17H288.195V477.8H303.775V486H279.175V428.6Z" fill="#FF004E"/>
<g filter="url(#filter1_d_292_5335)">
<rect width="390" height="36" transform="translate(0 47)" fill="white"/>
<path d="M164.7 57.7H169.768V54.9H161.62V74.5H164.7V66.408H168.676V63.608H164.7V57.7ZM177.078 54.9H172.57L169.434 74.5H172.262L172.794 70.944H176.574L177.106 74.5H180.214L177.078 54.9ZM174.67 58.372L176.154 68.284H173.186L174.67 58.372ZM188.032 74.5H191.196L186.94 63.608L191.196 54.9H188.368L184.084 63.804V54.9H181.004V74.5H184.084V68.2L185.008 66.576L188.032 74.5ZM191.704 54.9V69.824C191.704 72.96 193.272 74.752 196.296 74.752C199.32 74.752 200.888 72.96 200.888 69.824V54.9H197.976V70.02C197.976 71.42 197.36 71.924 196.38 71.924C195.4 71.924 194.784 71.42 194.784 70.02V54.9H191.704ZM202.356 74.5H210.505V71.7H205.436V54.9H202.356V74.5ZM209.021 57.7H212.241V74.5H215.321V57.7H218.541V54.9H209.021V57.7ZM222.191 74.5H225.271V68.004L229.163 54.9H226.223L223.871 63.832L221.519 54.9H218.299L222.191 68.004V74.5Z" fill="#030303"/>
</g>
</g>
<defs>
<filter id="filter0_i_292_5335" x="0" y="779" width="390" height="65" filterUnits="userSpaceOnUse" color-interpolation-filters="sRGB">
<feFlood flood-opacity="0" result="BackgroundImageFix"/>
<feBlend mode="normal" in="SourceGraphic" in2="BackgroundImageFix" result="shape"/>
<feColorMatrix in="SourceAlpha" type="matrix" values="0 0 0 0 0 0 0 0 0 0 0 0 0 0 0 0 0 0 127 0" result="hardAlpha"/>
<feOffset dy="-1"/>
<feGaussianBlur stdDeviation="0.5"/>
<feComposite in2="hardAlpha" operator="arithmetic" k2="-1" k3="1"/>
<feColorMatrix type="matrix" values="0 0 0 0 1 0 0 0 0 1 0 0 0 0 1 0 0 0 0.2 0"/>
<feBlend mode="normal" in2="shape" result="effect1_innerShadow_292_5335"/>
</filter>
<filter id="filter1_d_292_5335" x="-4" y="46" width="398" height="44" filterUnits="userSpaceOnUse" color-interpolation-filters="sRGB">
<feFlood flood-opacity="0" result="BackgroundImageFix"/>
<feColorMatrix in="SourceAlpha" type="matrix" values="0 0 0 0 0 0 0 0 0 0 0 0 0 0 0 0 0 0 127 0" result="hardAlpha"/>
<feOffset dy="3"/>
<feGaussianBlur stdDeviation="2"/>
<feComposite in2="hardAlpha" operator="out"/>
<feColorMatrix type="matrix" values="0 0 0 0 0 0 0 0 0 0 0 0 0 0 0 0 0 0 0.2 0"/>
<feBlend mode="normal" in2="BackgroundImageFix" result="effect1_dropShadow_292_5335"/>
<feBlend mode="normal" in="SourceGraphic" in2="effect1_dropShadow_292_5335" result="shape"/>
</filter>
<clipPath id="clip0_292_5335">
<rect width="390" height="844" fill="white"/>
</clipPath>
<clipPath id="clip1_292_5335">
<rect width="390" height="47" fill="white"/>
</clipPath>
</defs>
</svg>
