<svg width="390" height="844" viewBox="0 0 390 844" fill="none" xmlns="http://www.w3.org/2000/svg">
<g clip-path="url(#clip0_292_5370)">
<rect width="390" height="844" fill="white"/>
<path d="M72.362 158.6H81.382V181.97H91.058V158.6H100.078V216H91.058V190.17H81.382V216H72.362V158.6ZM105.976 158.6H130.576V166.8H114.996V181.97H127.378V190.17H114.996V207.8H130.576V216H105.976V158.6ZM143.227 191.564L132.321 158.6H141.915L148.065 179.674H148.229L154.379 158.6H163.153L152.247 191.564V216H143.227V191.564ZM185.761 166.8H176.331V158.6H204.211V166.8H194.781V216H185.761V166.8ZM207.758 158.6H216.778V181.97H226.454V158.6H235.474V216H226.454V190.17H216.778V216H207.758V158.6ZM241.372 158.6H265.972V166.8H250.392V181.97H262.774V190.17H250.392V207.8H265.972V216H241.372V158.6ZM270.341 158.6H283.707C288.353 158.6 291.743 159.693 293.875 161.88C296.007 164.012 297.073 167.319 297.073 171.802V175.328C297.073 181.287 295.105 185.059 291.169 186.644V186.808C293.355 187.464 294.886 188.803 295.761 190.826C296.69 192.849 297.155 195.555 297.155 198.944V209.03C297.155 210.67 297.209 212.009 297.319 213.048C297.428 214.032 297.701 215.016 298.139 216H288.955C288.627 215.071 288.408 214.196 288.299 213.376C288.189 212.556 288.135 211.08 288.135 208.948V198.452C288.135 195.828 287.697 193.997 286.823 192.958C286.003 191.919 284.554 191.4 282.477 191.4H279.361V216H270.341V158.6ZM282.641 183.2C284.445 183.2 285.784 182.735 286.659 181.806C287.588 180.877 288.053 179.319 288.053 177.132V172.704C288.053 170.627 287.67 169.123 286.905 168.194C286.194 167.265 285.046 166.8 283.461 166.8H279.361V183.2H282.641ZM302.593 158.6H327.193V166.8H311.613V181.97H323.995V190.17H311.613V207.8H327.193V216H302.593V158.6Z" fill="black"/>
<path d="M82.7012 250.415C86.6318 250.415 89.2075 248.364 89.2075 245.068V245.056C89.2075 242.517 87.7549 241.04 84.0806 240.222L82.1274 239.783C79.7349 239.258 78.7705 238.306 78.7705 236.902V236.89C78.7705 235.046 80.4673 234.009 82.6646 233.997C84.9595 233.984 86.4243 235.132 86.6685 236.682L86.6929 236.841H88.8901L88.8779 236.67C88.6948 234.045 86.2412 231.97 82.7256 231.97C79.0879 231.97 76.5366 234.033 76.5244 236.951V236.963C76.5244 239.514 78.0503 241.138 81.5781 241.919L83.5312 242.346C85.9482 242.883 86.9614 243.884 86.9614 245.349V245.361C86.9614 247.156 85.2158 248.389 82.8232 248.389C80.2842 248.389 78.4531 247.278 78.2944 245.52L78.2822 245.386H76.085L76.0972 245.52C76.3535 248.389 78.8438 250.415 82.7012 250.415ZM97.0764 250.098C97.4914 250.098 97.8942 250.049 98.3093 249.976V248.169C97.9187 248.206 97.7111 248.218 97.3327 248.218C95.9655 248.218 95.4284 247.595 95.4284 246.045V238.599H98.3093V236.841H95.4284V233.435H93.2312V236.841H91.156V238.599H93.2312V246.582C93.2312 249.097 94.3664 250.098 97.0764 250.098ZM105.69 250.232C107.619 250.232 108.949 249.438 109.596 248.035H109.791V250H111.915V236.841H109.791V244.629C109.791 246.936 108.558 248.352 106.239 248.352C104.14 248.352 103.285 247.217 103.285 244.849V236.841H101.161V245.361C101.161 248.474 102.699 250.232 105.69 250.232ZM120.541 250.232C122.372 250.232 123.837 249.365 124.643 247.9H124.838V250H126.962V231.616H124.838V238.916H124.643C123.922 237.512 122.348 236.609 120.541 236.609C117.196 236.609 115.024 239.282 115.024 243.408V243.433C115.024 247.534 117.209 250.232 120.541 250.232ZM121.029 248.352C118.625 248.352 117.196 246.497 117.196 243.433V243.408C117.196 240.344 118.625 238.489 121.029 238.489C123.422 238.489 124.887 240.369 124.887 243.408V243.433C124.887 246.472 123.422 248.352 121.029 248.352ZM136.21 250.232C139.311 250.232 141.191 248.474 141.642 246.692L141.667 246.594H139.543L139.494 246.704C139.14 247.498 138.041 248.34 136.259 248.34C133.915 248.34 132.414 246.753 132.353 244.031H141.825V243.201C141.825 239.27 139.653 236.609 136.076 236.609C132.499 236.609 130.18 239.392 130.18 243.457V243.469C130.18 247.595 132.45 250.232 136.21 250.232ZM136.064 238.501C138.005 238.501 139.445 239.734 139.665 242.334H132.389C132.621 239.832 134.111 238.501 136.064 238.501ZM144.921 250H147.045V242.212C147.045 239.905 148.376 238.489 150.476 238.489C152.575 238.489 153.552 239.624 153.552 241.992V250H155.676V241.479C155.676 238.354 154.028 236.609 151.074 236.609C149.133 236.609 147.9 237.427 147.241 238.818H147.045V236.841H144.921V250ZM163.996 250.098C164.411 250.098 164.814 250.049 165.229 249.976V248.169C164.839 248.206 164.631 248.218 164.253 248.218C162.885 248.218 162.348 247.595 162.348 246.045V238.599H165.229V236.841H162.348V233.435H160.151V236.841H158.076V238.599H160.151V246.582C160.151 249.097 161.286 250.098 163.996 250.098ZM172.475 250.232C175.466 250.232 177.749 248.608 177.749 246.265V246.24C177.749 244.36 176.553 243.286 174.075 242.688L172.048 242.2C170.498 241.821 169.839 241.26 169.839 240.369V240.344C169.839 239.185 170.986 238.379 172.549 238.379C174.136 238.379 175.161 239.099 175.442 240.137H177.529C177.236 237.988 175.32 236.609 172.561 236.609C169.766 236.609 167.666 238.257 167.666 240.442V240.454C167.666 242.346 168.777 243.42 171.243 244.006L173.281 244.495C174.905 244.885 175.576 245.508 175.576 246.399V246.423C175.576 247.62 174.319 248.462 172.549 248.462C170.864 248.462 169.814 247.742 169.46 246.643H167.287C167.532 248.816 169.546 250.232 172.475 250.232ZM193.084 250.232C196.831 250.232 199.151 247.644 199.151 243.433V243.408C199.151 239.185 196.831 236.609 193.084 236.609C189.336 236.609 187.017 239.185 187.017 243.408V243.433C187.017 247.644 189.336 250.232 193.084 250.232ZM193.084 248.352C190.594 248.352 189.19 246.533 189.19 243.433V243.408C189.19 240.295 190.594 238.489 193.084 238.489C195.574 238.489 196.978 240.295 196.978 243.408V243.433C196.978 246.533 195.574 248.352 193.084 248.352ZM203.125 250H205.25V238.599H208.24V236.841H205.25V235.437C205.25 233.997 205.86 233.252 207.374 233.252C207.752 233.252 208.106 233.264 208.362 233.313V231.616C207.923 231.531 207.459 231.494 206.946 231.494C204.444 231.494 203.125 232.751 203.125 235.376V236.841H200.94V238.599H203.125V250ZM222.611 250.098C223.026 250.098 223.429 250.049 223.844 249.976V248.169C223.453 248.206 223.246 248.218 222.867 248.218C221.5 248.218 220.963 247.595 220.963 246.045V238.599H223.844V236.841H220.963V233.435H218.766V236.841H216.69V238.599H218.766V246.582C218.766 249.097 219.901 250.098 222.611 250.098ZM226.94 250H229.064V242.212C229.064 239.905 230.394 238.489 232.494 238.489C234.593 238.489 235.57 239.624 235.57 241.992V250H237.694V241.479C237.694 238.354 236.046 236.609 233.092 236.609C231.151 236.609 229.918 237.427 229.259 238.818H229.064V231.616H226.94V250ZM246.71 250.232C249.811 250.232 251.691 248.474 252.142 246.692L252.167 246.594H250.043L249.994 246.704C249.64 247.498 248.541 248.34 246.759 248.34C244.415 248.34 242.914 246.753 242.853 244.031H252.325V243.201C252.325 239.27 250.153 236.609 246.576 236.609C242.999 236.609 240.68 239.392 240.68 243.457V243.469C240.68 247.595 242.95 250.232 246.71 250.232ZM246.564 238.501C248.505 238.501 249.945 239.734 250.165 242.334H242.889C243.121 239.832 244.611 238.501 246.564 238.501ZM264.792 250H266.916L269.845 239.819H270.041L272.983 250H275.119L278.805 236.841H276.694L274.106 247.363H273.91L270.968 236.841H268.954L266.012 247.363H265.817L263.229 236.841H261.105L264.792 250ZM286.332 250.232C290.08 250.232 292.399 247.644 292.399 243.433V243.408C292.399 239.185 290.08 236.609 286.332 236.609C282.585 236.609 280.266 239.185 280.266 243.408V243.433C280.266 247.644 282.585 250.232 286.332 250.232ZM286.332 248.352C283.842 248.352 282.438 246.533 282.438 243.433V243.408C282.438 240.295 283.842 238.489 286.332 238.489C288.823 238.489 290.226 240.295 290.226 243.408V243.433C290.226 246.533 288.823 248.352 286.332 248.352ZM295.495 250H297.619V241.846C297.619 239.917 299.06 238.635 301.086 238.635C301.55 238.635 301.953 238.684 302.392 238.757V236.694C302.185 236.658 301.733 236.609 301.33 236.609C299.548 236.609 298.315 237.415 297.815 238.794H297.619V236.841H295.495V250ZM304.939 250H307.063V231.616H304.939V250ZM315.798 250.232C317.629 250.232 319.094 249.365 319.9 247.9H320.095V250H322.219V231.616H320.095V238.916H319.9C319.18 237.512 317.605 236.609 315.798 236.609C312.454 236.609 310.281 239.282 310.281 243.408V243.433C310.281 247.534 312.466 250.232 315.798 250.232ZM316.287 248.352C313.882 248.352 312.454 246.497 312.454 243.433V243.408C312.454 240.344 313.882 238.489 316.287 238.489C318.679 238.489 320.144 240.369 320.144 243.408V243.433C320.144 246.472 318.679 248.352 316.287 248.352Z" fill="#030303"/>
<rect width="390" height="47" fill="#FDFDFD"/>
<g clip-path="url(#clip1_292_5370)">
<path d="M118.26 -1H271.692V14C271.692 23.3888 264.129 31 254.8 31H135.152C125.823 31 118.26 23.3888 118.26 14V-1Z" fill="black"/>
<path d="M118.49 -1L117 -2C119.634 -2 118.291 1.14875 118.291 3.79934C118.291 3.86656 118.29 3.93345 118.287 4H118.49V-1Z" fill="black"/>
<path d="M271.51 -1L273 -2C270.366 -2 271.709 1.14875 271.709 3.79934C271.709 3.86656 271.71 3.93345 271.713 4H271.51V-1Z" fill="black"/>
<path d="M42.883 19.8145C40.2184 19.8145 38.2678 21.5493 38.2678 23.998V24.0146C38.2678 26.2642 39.8532 27.8994 42.1691 27.8994C43.7878 27.8994 44.9665 27.0859 45.4396 25.9736H45.4811C45.4894 26.1064 45.4811 26.2725 45.4728 26.4302C45.3815 28.5469 44.6179 30.2153 42.8664 30.2153C41.8869 30.2153 41.2228 29.7256 40.924 29.0034L40.8991 28.937H38.4255L38.4421 29.0117C38.799 30.8628 40.5422 32.2075 42.8581 32.2075C45.9792 32.2075 47.8801 29.8418 47.8801 25.9155V25.8989C47.8801 21.8398 45.7717 19.8145 42.883 19.8145ZM42.8913 26.0483C41.6462 26.0483 40.7082 25.1768 40.7082 23.9316V23.915C40.7082 22.728 41.696 21.8066 42.9162 21.8066C44.1447 21.8066 45.1076 22.7363 45.1076 23.9482V23.9565C45.1076 25.1768 44.1447 26.0483 42.8913 26.0483ZM50.203 24.3965C50.9501 24.3965 51.5477 23.8071 51.5477 23.0518C51.5477 22.3047 50.9501 21.707 50.203 21.707C49.4477 21.707 48.8583 22.3047 48.8583 23.0518C48.8583 23.8071 49.4477 24.3965 50.203 24.3965ZM50.203 30.3066C50.9501 30.3066 51.5477 29.709 51.5477 28.9619C51.5477 28.2065 50.9501 27.6172 50.203 27.6172C49.4477 27.6172 48.8583 28.2065 48.8583 28.9619C48.8583 29.709 49.4477 30.3066 50.203 30.3066ZM58.4029 32H60.7853V29.8003H62.3624V27.7998H60.7853V20.022H57.2491L52.443 27.7085V29.8003H58.4029V32ZM54.6261 27.8662V27.7998L58.3946 21.8315H58.4527V27.8662H54.6261ZM66.2044 32H68.6863V20.022H66.1961L63.0999 22.1719V24.3965L66.1546 22.3213H66.2044V32Z" fill="#030303"/>
<path opacity="0.35" d="M340 19.5H357C358.933 19.5 360.5 21.067 360.5 23V28C360.5 29.933 358.933 31.5 357 31.5H340C338.067 31.5 336.5 29.933 336.5 28V23C336.5 21.067 338.067 19.5 340 19.5Z" stroke="#030303"/>
<path opacity="0.4" d="M362 24V28.2203C362.849 27.8629 363.401 27.0314 363.401 26.1102C363.401 25.1889 362.849 24.3574 362 24" fill="#030303"/>
<path d="M338 23C338 21.8954 338.895 21 340 21H357C358.105 21 359 21.8954 359 23V28C359 29.1046 358.105 30 357 30H340C338.895 30 338 29.1046 338 28V23Z" fill="#030303"/>
<path fill-rule="evenodd" clip-rule="evenodd" d="M320.5 22.5875C322.967 22.5876 325.339 23.5551 327.127 25.2898C327.261 25.4237 327.477 25.4221 327.609 25.286L328.896 23.9605C328.963 23.8915 329.001 23.798 329 23.7008C328.999 23.6035 328.961 23.5105 328.893 23.4423C324.201 18.8526 316.799 18.8526 312.107 23.4423C312.039 23.5105 312.001 23.6034 312 23.7007C311.999 23.7979 312.037 23.8914 312.104 23.9605L313.391 25.286C313.523 25.4223 313.739 25.424 313.873 25.2898C315.661 23.5549 318.034 22.5875 320.5 22.5875ZM320.536 26.5894C321.891 26.5893 323.198 27.1035 324.203 28.032C324.338 28.1638 324.552 28.1609 324.685 28.0255L325.97 26.7C326.038 26.6304 326.075 26.5361 326.074 26.4381C326.073 26.3401 326.034 26.2466 325.965 26.1784C322.906 23.2739 318.169 23.2739 315.109 26.1784C315.04 26.2466 315.001 26.3401 315 26.4382C314.999 26.5362 315.037 26.6305 315.105 26.7L316.39 28.0255C316.522 28.1609 316.736 28.1638 316.872 28.032C317.876 27.1041 319.182 26.5899 320.536 26.5894ZM323.15 29.1767C323.152 29.275 323.114 29.3698 323.045 29.4386L320.822 31.7289C320.756 31.7962 320.668 31.834 320.575 31.834C320.482 31.834 320.393 31.7962 320.328 31.7289L318.105 29.4386C318.036 29.3697 317.998 29.2749 318 29.1766C318.002 29.0783 318.044 28.9853 318.115 28.9194C319.535 27.6935 321.615 27.6935 323.035 28.9194C323.106 28.9853 323.148 29.0784 323.15 29.1767Z" fill="#030303"/>
<path d="M296 23C296 22.4477 296.448 22 297 22H298C298.552 22 299 22.4477 299 23V31C299 31.5523 298.552 32 298 32H297C296.448 32 296 31.5523 296 31V23Z" fill="#030303"/>
<path d="M301 21C301 20.4477 301.448 20 302 20H303C303.552 20 304 20.4477 304 21V31C304 31.5523 303.552 32 303 32H302C301.448 32 301 31.5523 301 31V21Z" fill="#030303"/>
<path d="M291 26.5C291 25.9477 291.448 25.5 292 25.5H293C293.552 25.5 294 25.9477 294 26.5V31C294 31.5523 293.552 32 293 32H292C291.448 32 291 31.5523 291 31V26.5Z" fill="#030303"/>
<path d="M286 29C286 28.4477 286.448 28 287 28H288C288.552 28 289 28.4477 289 29V31C289 31.5523 288.552 32 288 32H287C286.448 32 286 31.5523 286 31V29Z" fill="#030303"/>
</g>
<path d="M46.6445 367.799C49.791 367.799 51.6719 365.9 51.6719 363.141V354.817H50.0898V363.035C50.0898 364.986 48.8418 366.34 46.6445 366.34C44.4473 366.34 43.1816 364.986 43.1816 363.035V354.817H41.5996V363.141C41.5996 365.9 43.498 367.799 46.6445 367.799ZM54.2813 367.5H55.8106V361.893C55.8106 360.231 56.7686 359.212 58.2803 359.212C59.7921 359.212 60.4952 360.029 60.4952 361.734V367.5H62.0245V361.365C62.0245 359.115 60.838 357.858 58.711 357.858C57.3135 357.858 56.4258 358.447 55.9512 359.449H55.8106V358.025H54.2813V367.5ZM65.1876 356.197C65.7677 356.197 66.2423 355.723 66.2423 355.143C66.2423 354.562 65.7677 354.088 65.1876 354.088C64.6075 354.088 64.1329 354.562 64.1329 355.143C64.1329 355.723 64.6075 356.197 65.1876 356.197ZM64.4142 367.5H65.9435V358.025H64.4142V367.5ZM71.093 367.5H72.6398L76.1467 358.025H74.5295L71.9367 365.83H71.7961L69.2033 358.025H67.5861L71.093 367.5ZM81.2698 367.667C83.5022 367.667 84.8557 366.401 85.1809 365.118L85.1985 365.048H83.6692L83.634 365.127C83.3792 365.698 82.5881 366.305 81.3049 366.305C79.6174 366.305 78.5364 365.162 78.4924 363.202H85.3128V362.604C85.3128 359.774 83.7483 357.858 81.1731 357.858C78.5979 357.858 76.928 359.862 76.928 362.789V362.798C76.928 365.769 78.5628 367.667 81.2698 367.667ZM81.1643 359.221C82.5618 359.221 83.5989 360.108 83.7571 361.98H78.5188C78.6858 360.179 79.7581 359.221 81.1643 359.221ZM87.2718 367.5H88.8011V361.629C88.8011 360.24 89.8382 359.317 91.2972 359.317C91.6312 359.317 91.9212 359.353 92.2376 359.405V357.92C92.0882 357.894 91.763 357.858 91.473 357.858C90.1898 357.858 89.3021 358.438 88.9417 359.432H88.8011V358.025H87.2718V367.5ZM96.7894 367.667C98.9428 367.667 100.586 366.498 100.586 364.811V364.793C100.586 363.439 99.725 362.666 97.9408 362.235L96.4818 361.884C95.3656 361.611 94.891 361.207 94.891 360.565V360.548C94.891 359.713 95.7172 359.133 96.8422 359.133C97.9847 359.133 98.723 359.651 98.9252 360.398H100.428C100.217 358.852 98.8373 357.858 96.851 357.858C94.8383 357.858 93.3265 359.045 93.3265 360.618V360.627C93.3265 361.989 94.1264 362.763 95.9017 363.185L97.3695 363.536C98.5385 363.817 99.0219 364.266 99.0219 364.907V364.925C99.0219 365.786 98.1166 366.393 96.8422 366.393C95.6293 366.393 94.8734 365.874 94.6185 365.083H93.0541C93.2299 366.647 94.6801 367.667 96.7894 367.667ZM103.354 356.197C103.934 356.197 104.409 355.723 104.409 355.143C104.409 354.562 103.934 354.088 103.354 354.088C102.774 354.088 102.299 354.562 102.299 355.143C102.299 355.723 102.774 356.197 103.354 356.197ZM102.581 367.5H104.11V358.025H102.581V367.5ZM109.945 367.57C110.244 367.57 110.534 367.535 110.833 367.482V366.182C110.551 366.208 110.402 366.217 110.129 366.217C109.145 366.217 108.758 365.769 108.758 364.652V359.291H110.833V358.025H108.758V355.573H107.176V358.025H105.682V359.291H107.176V365.039C107.176 366.85 107.994 367.57 109.945 367.57ZM113.512 370.822C115.191 370.822 115.973 370.207 116.755 368.08L120.456 358.025H118.847L116.254 365.821H116.114L113.512 358.025H111.878L115.384 367.509L115.209 368.071C114.866 369.161 114.338 369.557 113.468 369.557C113.257 369.557 113.02 369.548 112.836 369.513V370.77C113.046 370.805 113.31 370.822 113.512 370.822Z" fill="#AFAFAF"/>
<rect x="16.5" y="333.5" width="357" height="55" stroke="#AFAFAF"/>
<path d="M41.6172 447.5H49.4746V446.076H43.1992V441.717H49.1494V440.311H43.1992V436.241H49.4746V434.817H41.6172V447.5ZM51.7325 447.5H53.2618V441.629C53.2618 440.293 54.2022 439.212 55.4415 439.212C56.6368 439.212 57.4102 439.941 57.4102 441.066V447.5H58.9395V441.409C58.9395 440.205 59.8096 439.212 61.128 439.212C62.4639 439.212 63.1055 439.906 63.1055 441.304V447.5H64.6348V440.952C64.6348 438.966 63.5538 437.858 61.6202 437.858C60.3106 437.858 59.2296 438.518 58.7198 439.52H58.5792C58.1397 438.535 57.2432 437.858 55.96 437.858C54.7208 437.858 53.8243 438.447 53.4024 439.467H53.2618V438.025H51.7325V447.5ZM69.5822 447.667C70.8566 447.667 71.8497 447.113 72.4474 446.103H72.588V447.5H74.1173V441.014C74.1173 439.045 72.8253 437.858 70.5138 437.858C68.4923 437.858 67.0509 438.86 66.8048 440.346L66.796 440.398H68.3253L68.3341 440.372C68.5802 439.634 69.3273 439.212 70.4611 439.212C71.8761 439.212 72.588 439.845 72.588 441.014V441.875L69.8722 442.042C67.6661 442.174 66.4181 443.149 66.4181 444.837V444.854C66.4181 446.577 67.7804 447.667 69.5822 447.667ZM67.9825 444.819V444.802C67.9825 443.861 68.6154 443.352 70.0568 443.264L72.588 443.105V443.967C72.588 445.32 71.4542 446.34 69.8986 446.34C68.7999 446.34 67.9825 445.777 67.9825 444.819ZM77.3068 436.197C77.8869 436.197 78.3615 435.723 78.3615 435.143C78.3615 434.562 77.8869 434.088 77.3068 434.088C76.7267 434.088 76.2521 434.562 76.2521 435.143C76.2521 435.723 76.7267 436.197 77.3068 436.197ZM76.5334 447.5H78.0627V438.025H76.5334V447.5ZM80.6194 447.5H82.1487V434.264H80.6194V447.5Z" fill="#AFAFAF"/>
<rect x="16.5" y="413.5" width="357" height="55" stroke="#AFAFAF"/>
<path d="M41.6172 527.5H43.1992V522.974H46.3984C48.7803 522.974 50.4678 521.295 50.4678 518.887V518.869C50.4678 516.461 48.7803 514.817 46.3984 514.817H41.6172V527.5ZM45.9941 516.224C47.8047 516.224 48.8506 517.217 48.8506 518.887V518.904C48.8506 520.574 47.8047 521.567 45.9941 521.567H43.1992V516.224H45.9941ZM54.7032 527.667C55.9776 527.667 56.9708 527.113 57.5684 526.103H57.709V527.5H59.2383V521.014C59.2383 519.045 57.9464 517.858 55.6348 517.858C53.6133 517.858 52.1719 518.86 51.9258 520.346L51.9171 520.398H53.4464L53.4551 520.372C53.7012 519.634 54.4483 519.212 55.5821 519.212C56.9971 519.212 57.709 519.845 57.709 521.014V521.875L54.9932 522.042C52.7872 522.174 51.5391 523.149 51.5391 524.837V524.854C51.5391 526.577 52.9014 527.667 54.7032 527.667ZM53.1036 524.819V524.802C53.1036 523.861 53.7364 523.352 55.1778 523.264L57.709 523.105V523.967C57.709 525.32 56.5753 526.34 55.0196 526.34C53.921 526.34 53.1036 525.777 53.1036 524.819ZM64.8712 527.667C67.0245 527.667 68.6681 526.498 68.6681 524.811V524.793C68.6681 523.439 67.8068 522.666 66.0226 522.235L64.5636 521.884C63.4474 521.611 62.9728 521.207 62.9728 520.565V520.548C62.9728 519.713 63.799 519.133 64.924 519.133C66.0665 519.133 66.8048 519.651 67.007 520.398H68.5099C68.299 518.852 66.9191 517.858 64.9327 517.858C62.92 517.858 61.4083 519.045 61.4083 520.618V520.627C61.4083 521.989 62.2081 522.763 63.9835 523.185L65.4513 523.536C66.6202 523.817 67.1036 524.266 67.1036 524.907V524.925C67.1036 525.786 66.1984 526.393 64.924 526.393C63.7111 526.393 62.9552 525.874 62.7003 525.083H61.1359C61.3116 526.647 62.7618 527.667 64.8712 527.667ZM73.7033 527.667C75.8566 527.667 77.5002 526.498 77.5002 524.811V524.793C77.5002 523.439 76.6389 522.666 74.8547 522.235L73.3957 521.884C72.2795 521.611 71.8049 521.207 71.8049 520.565V520.548C71.8049 519.713 72.631 519.133 73.756 519.133C74.8986 519.133 75.6369 519.651 75.8391 520.398H77.342C77.131 518.852 75.7512 517.858 73.7648 517.858C71.7521 517.858 70.2404 519.045 70.2404 520.618V520.627C70.2404 521.989 71.0402 522.763 72.8156 523.185L74.2834 523.536C75.4523 523.817 75.9357 524.266 75.9357 524.907V524.925C75.9357 525.786 75.0305 526.393 73.756 526.393C72.5432 526.393 71.7873 525.874 71.5324 525.083H69.968C70.1437 526.647 71.5939 527.667 73.7033 527.667ZM81.0237 527.5H82.553L84.6624 520.17H84.803L86.9212 527.5H88.4592L91.1135 518.025H89.593L87.7297 525.602H87.5891L85.471 518.025H84.0208L81.9026 525.602H81.762L79.8987 518.025H78.3694L81.0237 527.5ZM96.263 527.667C98.9613 527.667 100.631 525.804 100.631 522.771V522.754C100.631 519.713 98.9613 517.858 96.263 517.858C93.5648 517.858 91.8948 519.713 91.8948 522.754V522.771C91.8948 525.804 93.5648 527.667 96.263 527.667ZM96.263 526.313C94.47 526.313 93.4593 525.004 93.4593 522.771V522.754C93.4593 520.513 94.47 519.212 96.263 519.212C98.056 519.212 99.0667 520.513 99.0667 522.754V522.771C99.0667 525.004 98.056 526.313 96.263 526.313ZM102.59 527.5H104.12V521.629C104.12 520.24 105.157 519.317 106.616 519.317C106.95 519.317 107.24 519.353 107.556 519.405V517.92C107.407 517.894 107.081 517.858 106.791 517.858C105.508 517.858 104.62 518.438 104.26 519.432H104.12V518.025H102.59V527.5ZM112.266 527.667C113.584 527.667 114.639 527.043 115.219 525.988H115.36V527.5H116.889V514.264H115.36V519.52H115.219C114.701 518.509 113.567 517.858 112.266 517.858C109.858 517.858 108.293 519.783 108.293 522.754V522.771C108.293 525.725 109.867 527.667 112.266 527.667ZM112.618 526.313C110.886 526.313 109.858 524.978 109.858 522.771V522.754C109.858 520.548 110.886 519.212 112.618 519.212C114.34 519.212 115.395 520.565 115.395 522.754V522.771C115.395 524.96 114.34 526.313 112.618 526.313Z" fill="#AFAFAF"/>
<rect x="16.5" y="493.5" width="357" height="55" stroke="#AFAFAF"/>
<rect x="16.5" y="575.5" width="19" height="19" rx="3.5" stroke="#AEAEB2"/>
<path d="M52.5391 591H54.0156L55.1484 587.773H59.6328L60.7656 591H62.2422L58.0859 579.727H56.6953L52.5391 591ZM57.3281 581.547H57.4531L59.2188 586.578H55.5625L57.3281 581.547ZM66.6554 591.148C68.6789 591.148 69.8117 590.062 70.1554 588.539L70.1711 588.453L68.8273 588.461L68.8117 588.508C68.4992 589.445 67.7804 589.945 66.6476 589.945C65.1476 589.945 64.1789 588.703 64.1789 586.766V586.75C64.1789 584.852 65.132 583.633 66.6476 583.633C67.8586 583.633 68.6086 584.305 68.8195 585.133L68.8273 585.156H70.1789L70.1711 585.109C69.9211 583.609 68.6945 582.43 66.6476 582.43C64.2882 582.43 62.7882 584.133 62.7882 586.75V586.766C62.7882 589.438 64.2961 591.148 66.6554 591.148ZM75.2406 591.148C77.264 591.148 78.3968 590.062 78.7406 588.539L78.7562 588.453L77.4124 588.461L77.3968 588.508C77.0843 589.445 76.3656 589.945 75.2327 589.945C73.7327 589.945 72.764 588.703 72.764 586.766V586.75C72.764 584.852 73.7171 583.633 75.2327 583.633C76.4437 583.633 77.1937 584.305 77.4046 585.133L77.4124 585.156H78.764L78.7562 585.109C78.5062 583.609 77.2796 582.43 75.2327 582.43C72.8734 582.43 71.3734 584.133 71.3734 586.75V586.766C71.3734 589.438 72.8812 591.148 75.2406 591.148ZM83.8179 591.148C85.8022 591.148 87.0054 590.023 87.2944 588.883L87.3101 588.82H85.9507L85.9194 588.891C85.6929 589.398 84.9897 589.938 83.8491 589.938C82.3491 589.938 81.3882 588.922 81.3491 587.18H87.4116V586.648C87.4116 584.133 86.021 582.43 83.7319 582.43C81.4429 582.43 79.9585 584.211 79.9585 586.812V586.82C79.9585 589.461 81.4116 591.148 83.8179 591.148ZM83.7241 583.641C84.9663 583.641 85.8882 584.43 86.0288 586.094H81.3726C81.521 584.492 82.4741 583.641 83.7241 583.641ZM89.153 593.812H90.5124V589.672H90.6374C91.0983 590.57 92.1061 591.148 93.2624 591.148C95.403 591.148 96.7936 589.438 96.7936 586.797V586.781C96.7936 584.156 95.3952 582.43 93.2624 582.43C92.0905 582.43 91.153 582.984 90.6374 583.922H90.5124V582.578H89.153V593.812ZM92.9499 589.945C91.4186 589.945 90.4811 588.742 90.4811 586.797V586.781C90.4811 584.836 91.4186 583.633 92.9499 583.633C94.4889 583.633 95.403 584.82 95.403 586.781V586.797C95.403 588.758 94.4889 589.945 92.9499 589.945ZM101.543 591.062C101.808 591.062 102.066 591.031 102.332 590.984V589.828C102.082 589.852 101.949 589.859 101.707 589.859C100.832 589.859 100.488 589.461 100.488 588.469V583.703H102.332V582.578H100.488V580.398H99.0819V582.578H97.7537V583.703H99.0819V588.812C99.0819 590.422 99.8084 591.062 101.543 591.062ZM111.229 591H112.635V580.992H116.268V579.727H107.596V580.992H111.229V591ZM119.775 591.148C121.759 591.148 122.962 590.023 123.251 588.883L123.267 588.82H121.908L121.876 588.891C121.65 589.398 120.947 589.938 119.806 589.938C118.306 589.938 117.345 588.922 117.306 587.18H123.368V586.648C123.368 584.133 121.978 582.43 119.689 582.43C117.4 582.43 115.915 584.211 115.915 586.812V586.82C115.915 589.461 117.368 591.148 119.775 591.148ZM119.681 583.641C120.923 583.641 121.845 584.43 121.986 586.094H117.329C117.478 584.492 118.431 583.641 119.681 583.641ZM125.11 591H126.469V585.781C126.469 584.547 127.391 583.727 128.688 583.727C128.985 583.727 129.243 583.758 129.524 583.805V582.484C129.391 582.461 129.102 582.43 128.844 582.43C127.704 582.43 126.915 582.945 126.594 583.828H126.469V582.578H125.11V591ZM130.992 591H132.351V585.781C132.351 584.594 133.187 583.633 134.289 583.633C135.351 583.633 136.039 584.281 136.039 585.281V591H137.398V585.586C137.398 584.516 138.172 583.633 139.343 583.633C140.531 583.633 141.101 584.25 141.101 585.492V591H142.461V585.18C142.461 583.414 141.5 582.43 139.781 582.43C138.617 582.43 137.656 583.016 137.203 583.906H137.078C136.687 583.031 135.89 582.43 134.75 582.43C133.648 582.43 132.851 582.953 132.476 583.859H132.351V582.578H130.992V591ZM147.436 591.148C149.35 591.148 150.811 590.109 150.811 588.609V588.594C150.811 587.391 150.046 586.703 148.46 586.32L147.163 586.008C146.171 585.766 145.749 585.406 145.749 584.836V584.82C145.749 584.078 146.483 583.562 147.483 583.562C148.499 583.562 149.155 584.023 149.335 584.688H150.671C150.483 583.312 149.257 582.43 147.491 582.43C145.702 582.43 144.358 583.484 144.358 584.883V584.891C144.358 586.102 145.069 586.789 146.647 587.164L147.952 587.477C148.991 587.727 149.421 588.125 149.421 588.695V588.711C149.421 589.477 148.616 590.016 147.483 590.016C146.405 590.016 145.733 589.555 145.507 588.852H144.116C144.272 590.242 145.561 591.148 147.436 591.148ZM158.997 591.148C160.13 591.148 161.013 590.656 161.544 589.758H161.669V591H163.029V585.234C163.029 583.484 161.88 582.43 159.825 582.43C158.029 582.43 156.747 583.32 156.529 584.641L156.521 584.688H157.88L157.888 584.664C158.107 584.008 158.771 583.633 159.779 583.633C161.036 583.633 161.669 584.195 161.669 585.234V586L159.255 586.148C157.294 586.266 156.185 587.133 156.185 588.633V588.648C156.185 590.18 157.396 591.148 158.997 591.148ZM157.575 588.617V588.602C157.575 587.766 158.138 587.312 159.419 587.234L161.669 587.094V587.859C161.669 589.062 160.661 589.969 159.279 589.969C158.302 589.969 157.575 589.469 157.575 588.617ZM165.145 591H166.504V586.016C166.504 584.539 167.356 583.633 168.7 583.633C170.043 583.633 170.668 584.359 170.668 585.875V591H172.028V585.547C172.028 583.547 170.973 582.43 169.082 582.43C167.84 582.43 167.051 582.953 166.629 583.844H166.504V582.578H165.145V591ZM177.23 591.148C178.402 591.148 179.339 590.594 179.855 589.656H179.98V591H181.339V579.234H179.98V583.906H179.855C179.394 583.008 178.386 582.43 177.23 582.43C175.089 582.43 173.699 584.141 173.699 586.781V586.797C173.699 589.422 175.097 591.148 177.23 591.148ZM177.543 589.945C176.003 589.945 175.089 588.758 175.089 586.797V586.781C175.089 584.82 176.003 583.633 177.543 583.633C179.074 583.633 180.011 584.836 180.011 586.781V586.797C180.011 588.742 179.074 589.945 177.543 589.945ZM192.424 591.266C194.822 591.266 196.603 589.93 196.978 587.867V587.852H195.557L195.541 587.867C195.189 589.164 193.994 589.969 192.424 589.969C190.252 589.969 188.892 588.195 188.892 585.375V585.359C188.892 582.539 190.252 580.758 192.416 580.758C193.971 580.758 195.174 581.672 195.549 583.117L195.557 583.133H196.971L196.978 583.117C196.642 580.953 194.791 579.461 192.416 579.461C189.353 579.461 187.447 581.727 187.447 585.359V585.375C187.447 589 189.361 591.266 192.424 591.266ZM202.259 591.148C204.657 591.148 206.142 589.492 206.142 586.797V586.781C206.142 584.078 204.657 582.43 202.259 582.43C199.86 582.43 198.376 584.078 198.376 586.781V586.797C198.376 589.492 199.86 591.148 202.259 591.148ZM202.259 589.945C200.665 589.945 199.767 588.781 199.767 586.797V586.781C199.767 584.789 200.665 583.633 202.259 583.633C203.853 583.633 204.751 584.789 204.751 586.781V586.797C204.751 588.781 203.853 589.945 202.259 589.945ZM207.883 591H209.242V586.016C209.242 584.539 210.094 583.633 211.438 583.633C212.781 583.633 213.406 584.359 213.406 585.875V591H214.766V585.547C214.766 583.547 213.711 582.43 211.82 582.43C210.578 582.43 209.789 582.953 209.367 583.844H209.242V582.578H207.883V591ZM219.968 591.148C221.14 591.148 222.077 590.594 222.593 589.656H222.718V591H224.077V579.234H222.718V583.906H222.593C222.132 583.008 221.124 582.43 219.968 582.43C217.827 582.43 216.437 584.141 216.437 586.781V586.797C216.437 589.422 217.835 591.148 219.968 591.148ZM220.281 589.945C218.742 589.945 217.827 588.758 217.827 586.797V586.781C217.827 584.82 218.742 583.633 220.281 583.633C221.812 583.633 222.749 584.836 222.749 586.781V586.797C222.749 588.742 221.812 589.945 220.281 589.945ZM227.038 580.953C227.553 580.953 227.975 580.531 227.975 580.016C227.975 579.5 227.553 579.078 227.038 579.078C226.522 579.078 226.1 579.5 226.1 580.016C226.1 580.531 226.522 580.953 227.038 580.953ZM226.35 591H227.71V582.578H226.35V591ZM232.896 591.062C233.162 591.062 233.42 591.031 233.685 590.984V589.828C233.435 589.852 233.302 589.859 233.06 589.859C232.185 589.859 231.842 589.461 231.842 588.469V583.703H233.685V582.578H231.842V580.398H230.435V582.578H229.107V583.703H230.435V588.812C230.435 590.422 231.162 591.062 232.896 591.062ZM236.067 580.953C236.583 580.953 237.005 580.531 237.005 580.016C237.005 579.5 236.583 579.078 236.067 579.078C235.552 579.078 235.13 579.5 235.13 580.016C235.13 580.531 235.552 580.953 236.067 580.953ZM235.38 591H236.739V582.578H235.38V591ZM242.395 591.148C244.793 591.148 246.277 589.492 246.277 586.797V586.781C246.277 584.078 244.793 582.43 242.395 582.43C239.996 582.43 238.512 584.078 238.512 586.781V586.797C238.512 589.492 239.996 591.148 242.395 591.148ZM242.395 589.945C240.801 589.945 239.902 588.781 239.902 586.797V586.781C239.902 584.789 240.801 583.633 242.395 583.633C243.988 583.633 244.887 584.789 244.887 586.781V586.797C244.887 588.781 243.988 589.945 242.395 589.945ZM248.019 591H249.378V586.016C249.378 584.539 250.23 583.633 251.573 583.633C252.917 583.633 253.542 584.359 253.542 585.875V591H254.902V585.547C254.902 583.547 253.847 582.43 251.956 582.43C250.714 582.43 249.925 582.953 249.503 583.844H249.378V582.578H248.019V591ZM259.885 591.148C261.799 591.148 263.26 590.109 263.26 588.609V588.594C263.26 587.391 262.495 586.703 260.909 586.32L259.612 586.008C258.62 585.766 258.198 585.406 258.198 584.836V584.82C258.198 584.078 258.932 583.562 259.932 583.562C260.948 583.562 261.604 584.023 261.784 584.688H263.12C262.932 583.312 261.705 582.43 259.94 582.43C258.151 582.43 256.807 583.484 256.807 584.883V584.891C256.807 586.102 257.518 586.789 259.096 587.164L260.401 587.477C261.44 587.727 261.87 588.125 261.87 588.695V588.711C261.87 589.477 261.065 590.016 259.932 590.016C258.854 590.016 258.182 589.555 257.955 588.852H256.565C256.721 590.242 258.01 591.148 259.885 591.148Z" fill="#030303"/>
<g filter="url(#filter0_i_292_5370)">
<rect width="390" height="64" transform="translate(0 716)" fill="#F51E5F"/>
<path d="M176.938 754H183.922V752.734H178.344V748.859H183.633V747.609H178.344V743.992H183.922V742.727H176.938V754ZM185.929 754H187.288V749.016C187.288 747.539 188.14 746.633 189.484 746.633C190.827 746.633 191.452 747.359 191.452 748.875V754H192.812V748.547C192.812 746.547 191.757 745.43 189.866 745.43C188.624 745.43 187.835 745.953 187.413 746.844H187.288V745.578H185.929V754ZM197.897 754.062C198.162 754.062 198.42 754.031 198.686 753.984V752.828C198.436 752.852 198.303 752.859 198.061 752.859C197.186 752.859 196.842 752.461 196.842 751.469V746.703H198.686V745.578H196.842V743.398H195.436V745.578H194.108V746.703H195.436V751.812C195.436 753.422 196.162 754.062 197.897 754.062ZM203.662 754.148C205.646 754.148 206.849 753.023 207.138 751.883L207.154 751.82H205.794L205.763 751.891C205.537 752.398 204.833 752.938 203.693 752.938C202.193 752.938 201.232 751.922 201.193 750.18H207.255V749.648C207.255 747.133 205.865 745.43 203.576 745.43C201.287 745.43 199.802 747.211 199.802 749.812V749.82C199.802 752.461 201.255 754.148 203.662 754.148ZM203.568 746.641C204.81 746.641 205.732 747.43 205.873 749.094H201.216C201.365 747.492 202.318 746.641 203.568 746.641ZM208.997 754H210.356V748.781C210.356 747.547 211.278 746.727 212.575 746.727C212.872 746.727 213.13 746.758 213.411 746.805V745.484C213.278 745.461 212.989 745.43 212.731 745.43C211.59 745.43 210.801 745.945 210.481 746.828H210.356V745.578H208.997V754Z" fill="#FDFDFD"/>
</g>
<rect width="390" height="64" transform="translate(0 780)" fill="#FDFDFD"/>
<path d="M131.938 818H133.344V813.117H138.336V811.867H133.344V807.992H138.781V806.727H131.938V818ZM144.015 818.148C146.413 818.148 147.898 816.492 147.898 813.797V813.781C147.898 811.078 146.413 809.43 144.015 809.43C141.616 809.43 140.132 811.078 140.132 813.781V813.797C140.132 816.492 141.616 818.148 144.015 818.148ZM144.015 816.945C142.421 816.945 141.523 815.781 141.523 813.797V813.781C141.523 811.789 142.421 810.633 144.015 810.633C145.609 810.633 146.507 811.789 146.507 813.781V813.797C146.507 815.781 145.609 816.945 144.015 816.945ZM149.639 818H150.998V812.781C150.998 811.547 151.92 810.727 153.217 810.727C153.514 810.727 153.772 810.758 154.053 810.805V809.484C153.92 809.461 153.631 809.43 153.373 809.43C152.233 809.43 151.444 809.945 151.123 810.828H150.998V809.578H149.639V818ZM158.599 820.969C160.896 820.969 162.349 819.766 162.349 817.883V809.578H160.99V810.969H160.896C160.38 810.016 159.458 809.43 158.271 809.43C156.068 809.43 154.708 811.141 154.708 813.5V813.516C154.708 815.875 156.06 817.562 158.24 817.562C159.396 817.562 160.349 817.039 160.88 816.109H161.005V817.812C161.005 819.055 160.107 819.766 158.599 819.766C157.388 819.766 156.638 819.312 156.49 818.672L156.482 818.664H155.076L155.06 818.672C155.271 820.055 156.568 820.969 158.599 820.969ZM158.537 816.359C156.974 816.359 156.099 815.188 156.099 813.516V813.5C156.099 811.828 156.974 810.633 158.537 810.633C160.091 810.633 161.037 811.828 161.037 813.5V813.516C161.037 815.188 160.099 816.359 158.537 816.359ZM167.973 818.148C170.372 818.148 171.856 816.492 171.856 813.797V813.781C171.856 811.078 170.372 809.43 167.973 809.43C165.575 809.43 164.09 811.078 164.09 813.781V813.797C164.09 816.492 165.575 818.148 167.973 818.148ZM167.973 816.945C166.38 816.945 165.481 815.781 165.481 813.797V813.781C165.481 811.789 166.38 810.633 167.973 810.633C169.567 810.633 170.465 811.789 170.465 813.781V813.797C170.465 815.781 169.567 816.945 167.973 816.945ZM176.59 818.062C176.855 818.062 177.113 818.031 177.379 817.984V816.828C177.129 816.852 176.996 816.859 176.754 816.859C175.879 816.859 175.535 816.461 175.535 815.469V810.703H177.379V809.578H175.535V807.398H174.129V809.578H172.801V810.703H174.129V815.812C174.129 817.422 174.855 818.062 176.59 818.062ZM183.174 820.812H184.533V816.672H184.658C185.119 817.57 186.127 818.148 187.283 818.148C189.424 818.148 190.815 816.438 190.815 813.797V813.781C190.815 811.156 189.416 809.43 187.283 809.43C186.111 809.43 185.174 809.984 184.658 810.922H184.533V809.578H183.174V820.812ZM186.971 816.945C185.44 816.945 184.502 815.742 184.502 813.797V813.781C184.502 811.836 185.44 810.633 186.971 810.633C188.51 810.633 189.424 811.82 189.424 813.781V813.797C189.424 815.758 188.51 816.945 186.971 816.945ZM194.884 818.148C196.017 818.148 196.9 817.656 197.431 816.758H197.556V818H198.915V812.234C198.915 810.484 197.767 809.43 195.712 809.43C193.915 809.43 192.634 810.32 192.415 811.641L192.408 811.688H193.767L193.775 811.664C193.993 811.008 194.658 810.633 195.665 810.633C196.923 810.633 197.556 811.195 197.556 812.234V813L195.142 813.148C193.181 813.266 192.072 814.133 192.072 815.633V815.648C192.072 817.18 193.283 818.148 194.884 818.148ZM193.462 815.617V815.602C193.462 814.766 194.025 814.312 195.306 814.234L197.556 814.094V814.859C197.556 816.062 196.548 816.969 195.165 816.969C194.189 816.969 193.462 816.469 193.462 815.617ZM203.922 818.148C205.836 818.148 207.297 817.109 207.297 815.609V815.594C207.297 814.391 206.532 813.703 204.946 813.32L203.649 813.008C202.657 812.766 202.235 812.406 202.235 811.836V811.82C202.235 811.078 202.969 810.562 203.969 810.562C204.985 810.562 205.641 811.023 205.821 811.688H207.157C206.969 810.312 205.743 809.43 203.977 809.43C202.188 809.43 200.844 810.484 200.844 811.883V811.891C200.844 813.102 201.555 813.789 203.133 814.164L204.438 814.477C205.477 814.727 205.907 815.125 205.907 815.695V815.711C205.907 816.477 205.102 817.016 203.969 817.016C202.891 817.016 202.219 816.555 201.993 815.852H200.602C200.758 817.242 202.047 818.148 203.922 818.148ZM211.773 818.148C213.687 818.148 215.148 817.109 215.148 815.609V815.594C215.148 814.391 214.382 813.703 212.797 813.32L211.5 813.008C210.507 812.766 210.086 812.406 210.086 811.836V811.82C210.086 811.078 210.82 810.562 211.82 810.562C212.836 810.562 213.492 811.023 213.672 811.688H215.007C214.82 810.312 213.593 809.43 211.828 809.43C210.039 809.43 208.695 810.484 208.695 811.883V811.891C208.695 813.102 209.406 813.789 210.984 814.164L212.289 814.477C213.328 814.727 213.757 815.125 213.757 815.695V815.711C213.757 816.477 212.953 817.016 211.82 817.016C210.742 817.016 210.07 816.555 209.843 815.852H208.453C208.609 817.242 209.898 818.148 211.773 818.148ZM218.28 818H219.64L221.515 811.484H221.64L223.522 818H224.89L227.249 809.578H225.897L224.241 816.312H224.116L222.233 809.578H220.944L219.061 816.312H218.936L217.28 809.578H215.921L218.28 818ZM231.826 818.148C234.225 818.148 235.709 816.492 235.709 813.797V813.781C235.709 811.078 234.225 809.43 231.826 809.43C229.428 809.43 227.943 811.078 227.943 813.781V813.797C227.943 816.492 229.428 818.148 231.826 818.148ZM231.826 816.945C230.232 816.945 229.334 815.781 229.334 813.797V813.781C229.334 811.789 230.232 810.633 231.826 810.633C233.42 810.633 234.318 811.789 234.318 813.781V813.797C234.318 815.781 233.42 816.945 231.826 816.945ZM237.45 818H238.81V812.781C238.81 811.547 239.732 810.727 241.029 810.727C241.325 810.727 241.583 810.758 241.864 810.805V809.484C241.732 809.461 241.443 809.43 241.185 809.43C240.044 809.43 239.255 809.945 238.935 810.828H238.81V809.578H237.45V818ZM246.051 818.148C247.223 818.148 248.16 817.594 248.676 816.656H248.801V818H250.16V806.234H248.801V810.906H248.676C248.215 810.008 247.207 809.43 246.051 809.43C243.91 809.43 242.52 811.141 242.52 813.781V813.797C242.52 816.422 243.918 818.148 246.051 818.148ZM246.364 816.945C244.825 816.945 243.91 815.758 243.91 813.797V813.781C243.91 811.82 244.825 810.633 246.364 810.633C247.895 810.633 248.832 811.836 248.832 813.781V813.797C248.832 815.742 247.895 816.945 246.364 816.945ZM254.207 814.516H255.574V814.008C255.574 813.188 255.855 812.75 256.847 812.164C257.847 811.562 258.48 810.695 258.48 809.477V809.461C258.48 807.859 257.136 806.641 255.168 806.641C252.972 806.641 251.847 807.984 251.761 809.664V809.68L253.089 809.672L253.105 809.664C253.183 808.555 253.933 807.859 255.113 807.859C256.277 807.859 257.027 808.57 257.027 809.531V809.547C257.027 810.375 256.675 810.867 255.769 811.422C254.699 812.062 254.199 812.766 254.207 813.797V814.516ZM254.996 818.141C255.628 818.141 256.074 817.688 256.074 817.055C256.074 816.414 255.628 815.961 254.996 815.961C254.363 815.961 253.91 816.414 253.91 817.055C253.91 817.688 254.363 818.141 254.996 818.141Z" fill="#030303"/>
<g filter="url(#filter1_d_292_5370)">
<rect width="390" height="36" transform="translate(0 47)" fill="white"/>
<path d="M164.7 57.7H169.768V54.9H161.62V74.5H164.7V66.408H168.676V63.608H164.7V57.7ZM177.078 54.9H172.57L169.434 74.5H172.262L172.794 70.944H176.574L177.106 74.5H180.214L177.078 54.9ZM174.67 58.372L176.154 68.284H173.186L174.67 58.372ZM188.032 74.5H191.196L186.94 63.608L191.196 54.9H188.368L184.084 63.804V54.9H181.004V74.5H184.084V68.2L185.008 66.576L188.032 74.5ZM191.704 54.9V69.824C191.704 72.96 193.272 74.752 196.296 74.752C199.32 74.752 200.888 72.96 200.888 69.824V54.9H197.976V70.02C197.976 71.42 197.36 71.924 196.38 71.924C195.4 71.924 194.784 71.42 194.784 70.02V54.9H191.704ZM202.356 74.5H210.505V71.7H205.436V54.9H202.356V74.5ZM209.021 57.7H212.241V74.5H215.321V57.7H218.541V54.9H209.021V57.7ZM222.191 74.5H225.271V68.004L229.163 54.9H226.223L223.871 63.832L221.519 54.9H218.299L222.191 68.004V74.5Z" fill="#030303"/>
</g>
</g>
<defs>
<filter id="filter0_i_292_5370" x="0" y="715" width="390" height="65" filterUnits="userSpaceOnUse" color-interpolation-filters="sRGB">
<feFlood flood-opacity="0" result="BackgroundImageFix"/>
<feBlend mode="normal" in="SourceGraphic" in2="BackgroundImageFix" result="shape"/>
<feColorMatrix in="SourceAlpha" type="matrix" values="0 0 0 0 0 0 0 0 0 0 0 0 0 0 0 0 0 0 127 0" result="hardAlpha"/>
<feOffset dy="-1"/>
<feGaussianBlur stdDeviation="0.5"/>
<feComposite in2="hardAlpha" operator="arithmetic" k2="-1" k3="1"/>
<feColorMatrix type="matrix" values="0 0 0 0 1 0 0 0 0 1 0 0 0 0 1 0 0 0 0.2 0"/>
<feBlend mode="normal" in2="shape" result="effect1_innerShadow_292_5370"/>
</filter>
<filter id="filter1_d_292_5370" x="-4" y="46" width="398" height="44" filterUnits="userSpaceOnUse" color-interpolation-filters="sRGB">
<feFlood flood-opacity="0" result="BackgroundImageFix"/>
<feColorMatrix in="SourceAlpha" type="matrix" values="0 0 0 0 0 0 0 0 0 0 0 0 0 0 0 0 0 0 127 0" result="hardAlpha"/>
<feOffset dy="3"/>
<feGaussianBlur stdDeviation="2"/>
<feComposite in2="hardAlpha" operator="out"/>
<feColorMatrix type="matrix" values="0 0 0 0 0 0 0 0 0 0 0 0 0 0 0 0 0 0 0.2 0"/>
<feBlend mode="normal" in2="BackgroundImageFix" result="effect1_dropShadow_292_5370"/>
<feBlend mode="normal" in="SourceGraphic" in2="effect1_dropShadow_292_5370" result="shape"/>
</filter>
<clipPath id="clip0_292_5370">
<rect width="390" height="844" fill="white"/>
</clipPath>
<clipPath id="clip1_292_5370">
<rect width="390" height="47" fill="white"/>
</clipPath>
</defs>
</svg>
