<svg width="390" height="844" viewBox="0 0 390 844" fill="none" xmlns="http://www.w3.org/2000/svg">
<g clip-path="url(#clip0_356_14738)">
<rect width="390" height="844" fill="white"/>
<g opacity="0.65">
<g filter="url(#filter0_f_356_14738)">
<path fill-rule="evenodd" clip-rule="evenodd" d="M325.946 107.555C247.336 106.006 173.824 155.548 152.052 230.99C132.079 300.203 180.759 364.437 239.924 405.64C294.901 443.926 366.479 456.973 421.342 418.525C478.824 378.242 500.488 304.503 479.92 237.453C458.162 166.53 400.214 109.019 325.946 107.555Z" fill="url(#paint0_linear_356_14738)"/>
</g>
<g filter="url(#filter1_f_356_14738)">
<path fill-rule="evenodd" clip-rule="evenodd" d="M314.551 79.5848C355.929 78.7547 400.415 93.5814 413.418 132.929C426.584 172.77 400.215 211.782 366.451 236.638C331.949 262.038 286.113 277.254 251.308 252.272C215.982 226.917 212.201 177.529 227.166 136.666C240.405 100.516 276.11 80.356 314.551 79.5848Z" fill="url(#paint1_linear_356_14738)"/>
</g>
</g>
<path d="M43.2595 114.12L38.0506 109.171C37.4599 109.703 36.7707 110.106 35.9831 110.382C35.1955 110.658 34.3685 110.795 33.5021 110.795C31.3952 110.795 29.6181 110.067 28.1709 108.61C26.7236 107.153 26 105.4 26 103.352C26 101.285 26.7236 99.5225 28.1709 98.0654C29.6181 96.6083 31.3755 95.8798 33.443 95.8798C35.5302 95.8798 37.2975 96.6083 38.7447 98.0654C40.192 99.5225 40.9156 101.285 40.9156 103.352C40.9156 104.179 40.7778 104.982 40.5021 105.76C40.2264 106.537 39.8129 107.271 39.2616 107.96L44.5 112.88L43.2595 114.12ZM33.4726 109.082C35.0675 109.082 36.4212 108.521 37.5338 107.399C38.6463 106.276 39.2025 104.918 39.2025 103.323C39.2025 101.728 38.6463 100.369 37.5338 99.2468C36.4212 98.1245 35.0675 97.5633 33.4726 97.5633C31.8579 97.5633 30.4895 98.1294 29.3671 99.2616C28.2447 100.394 27.6835 101.757 27.6835 103.352C27.6835 104.928 28.2447 106.276 29.3671 107.399C30.4895 108.521 31.8579 109.082 33.4726 109.082Z" fill="#AFAFAF"/>
<path d="M74.6328 111.266C77.1484 111.266 78.7969 109.953 78.7969 107.844V107.836C78.7969 106.211 77.8672 105.266 75.5156 104.742L74.2656 104.461C72.7344 104.125 72.1172 103.516 72.1172 102.617V102.609C72.1172 101.43 73.2031 100.766 74.6094 100.758C76.0781 100.75 77.0156 101.484 77.1719 102.477L77.1875 102.578H78.5938L78.5859 102.469C78.4688 100.789 76.8984 99.4609 74.6484 99.4609C72.3203 99.4609 70.6875 100.781 70.6797 102.648V102.656C70.6797 104.289 71.6562 105.328 73.9141 105.828L75.1641 106.102C76.7109 106.445 77.3594 107.086 77.3594 108.023V108.031C77.3594 109.18 76.2422 109.969 74.7109 109.969C73.0859 109.969 71.9141 109.258 71.8125 108.133L71.8047 108.047H70.3984L70.4062 108.133C70.5703 109.969 72.1641 111.266 74.6328 111.266ZM84.0382 111.148C86.0226 111.148 87.2257 110.023 87.5148 108.883L87.5304 108.82H86.1711L86.1398 108.891C85.9132 109.398 85.2101 109.938 84.0695 109.938C82.5695 109.938 81.6086 108.922 81.5695 107.18H87.632V106.648C87.632 104.133 86.2414 102.43 83.9523 102.43C81.6632 102.43 80.1789 104.211 80.1789 106.812V106.82C80.1789 109.461 81.632 111.148 84.0382 111.148ZM83.9445 103.641C85.1867 103.641 86.1086 104.43 86.2492 106.094H81.5929C81.7414 104.492 82.6945 103.641 83.9445 103.641ZM91.6859 111.148C92.8187 111.148 93.7015 110.656 94.2327 109.758H94.3577V111H95.7171V105.234C95.7171 103.484 94.5687 102.43 92.514 102.43C90.7171 102.43 89.4359 103.32 89.2171 104.641L89.2093 104.688H90.5687L90.5765 104.664C90.7952 104.008 91.4593 103.633 92.4671 103.633C93.7249 103.633 94.3577 104.195 94.3577 105.234V106L91.9437 106.148C89.9827 106.266 88.8734 107.133 88.8734 108.633V108.648C88.8734 110.18 90.0843 111.148 91.6859 111.148ZM90.264 108.617V108.602C90.264 107.766 90.8265 107.312 92.1077 107.234L94.3577 107.094V107.859C94.3577 109.062 93.3499 109.969 91.9671 109.969C90.9906 109.969 90.264 109.469 90.264 108.617ZM97.8335 111H99.1929V105.781C99.1929 104.547 100.115 103.727 101.412 103.727C101.708 103.727 101.966 103.758 102.248 103.805V102.484C102.115 102.461 101.826 102.43 101.568 102.43C100.427 102.43 99.6382 102.945 99.3179 103.828H99.1929V102.578H97.8335V111ZM106.77 111.148C108.794 111.148 109.926 110.062 110.27 108.539L110.286 108.453L108.942 108.461L108.926 108.508C108.614 109.445 107.895 109.945 106.762 109.945C105.262 109.945 104.294 108.703 104.294 106.766V106.75C104.294 104.852 105.247 103.633 106.762 103.633C107.973 103.633 108.723 104.305 108.934 105.133L108.942 105.156H110.294L110.286 105.109C110.036 103.609 108.809 102.43 106.762 102.43C104.403 102.43 102.903 104.133 102.903 106.75V106.766C102.903 109.438 104.411 111.148 106.77 111.148ZM111.988 111H113.347V106.016C113.347 104.539 114.199 103.633 115.543 103.633C116.887 103.633 117.512 104.359 117.512 105.875V111H118.871V105.547C118.871 103.547 117.816 102.43 115.926 102.43C114.683 102.43 113.894 102.953 113.472 103.844H113.347V99.2344H111.988V111Z" fill="#AFAFAF"/>
<path d="M16 127H374" stroke="#4F4F4F"/>
<path d="M316.133 111.266C318.648 111.266 320.297 109.953 320.297 107.844V107.836C320.297 106.211 319.367 105.266 317.016 104.742L315.766 104.461C314.234 104.125 313.617 103.516 313.617 102.617V102.609C313.617 101.43 314.703 100.766 316.109 100.758C317.578 100.75 318.516 101.484 318.672 102.477L318.688 102.578H320.094L320.086 102.469C319.969 100.789 318.398 99.4609 316.148 99.4609C313.82 99.4609 312.188 100.781 312.18 102.648V102.656C312.18 104.289 313.156 105.328 315.414 105.828L316.664 106.102C318.211 106.445 318.859 107.086 318.859 108.023V108.031C318.859 109.18 317.742 109.969 316.211 109.969C314.586 109.969 313.414 109.258 313.312 108.133L313.305 108.047H311.898L311.906 108.133C312.07 109.969 313.664 111.266 316.133 111.266ZM325.562 111.148C327.96 111.148 329.444 109.492 329.444 106.797V106.781C329.444 104.078 327.96 102.43 325.562 102.43C323.163 102.43 321.679 104.078 321.679 106.781V106.797C321.679 109.492 323.163 111.148 325.562 111.148ZM325.562 109.945C323.968 109.945 323.069 108.781 323.069 106.797V106.781C323.069 104.789 323.968 103.633 325.562 103.633C327.155 103.633 328.054 104.789 328.054 106.781V106.797C328.054 108.781 327.155 109.945 325.562 109.945ZM331.186 111H332.545V105.781C332.545 104.547 333.467 103.727 334.764 103.727C335.061 103.727 335.319 103.758 335.6 103.805V102.484C335.467 102.461 335.178 102.43 334.92 102.43C333.78 102.43 332.991 102.945 332.67 103.828H332.545V102.578H331.186V111ZM340.06 111.062C340.326 111.062 340.583 111.031 340.849 110.984V109.828C340.599 109.852 340.466 109.859 340.224 109.859C339.349 109.859 339.005 109.461 339.005 108.469V103.703H340.849V102.578H339.005V100.398H337.599V102.578H336.271V103.703H337.599V108.812C337.599 110.422 338.326 111.062 340.06 111.062ZM350.832 111.148C352.965 111.148 354.363 109.422 354.363 106.797V106.781C354.363 104.141 352.972 102.43 350.832 102.43C349.676 102.43 348.668 103.008 348.207 103.906H348.082V99.2344H346.722V111H348.082V109.656H348.207C348.722 110.594 349.66 111.148 350.832 111.148ZM350.519 109.945C348.988 109.945 348.051 108.742 348.051 106.797V106.781C348.051 104.836 348.988 103.633 350.519 103.633C352.058 103.633 352.972 104.82 352.972 106.781V106.797C352.972 108.758 352.058 109.945 350.519 109.945ZM356.511 113.953C358.003 113.953 358.698 113.406 359.394 111.516L362.683 102.578H361.253L358.948 109.508H358.823L356.511 102.578H355.058L358.175 111.008L358.019 111.508C357.714 112.477 357.245 112.828 356.472 112.828C356.284 112.828 356.073 112.82 355.909 112.789V113.906C356.097 113.938 356.331 113.953 356.511 113.953Z" fill="#030303"/>
<path d="M20.1016 165H22.4609V155.672H25.8438V153.727H16.7188V155.672H20.1016V165ZM27.4132 165H29.6945V160.023C29.6945 158.859 30.3351 158.102 31.3898 158.102C32.4679 158.102 32.9679 158.742 32.9679 159.953V165H35.2492V159.438C35.2492 157.383 34.2179 156.211 32.3039 156.211C31.0773 156.211 30.2257 156.797 29.8351 157.727H29.6945V153.109H27.4132V165ZM38.2562 155.078C38.9593 155.078 39.5374 154.516 39.5374 153.812C39.5374 153.102 38.9593 152.539 38.2562 152.539C37.5531 152.539 36.9671 153.102 36.9671 153.812C36.9671 154.516 37.5531 155.078 38.2562 155.078ZM37.1077 165H39.389V156.398H37.1077V165ZM44.7397 165.18C46.9429 165.18 48.5132 164.07 48.5132 162.367V162.359C48.5132 161.086 47.7085 160.367 45.9897 160L44.5601 159.695C43.6694 159.5 43.3491 159.234 43.3491 158.773V158.766C43.3491 158.188 43.9116 157.82 44.7007 157.82C45.5522 157.82 46.0601 158.25 46.1851 158.711L46.1929 158.75H48.3101V158.719C48.2163 157.336 46.9663 156.211 44.7085 156.211C42.5601 156.211 41.1226 157.289 41.1226 158.906V158.914C41.1226 160.203 41.9351 161.008 43.5757 161.359L45.0132 161.664C45.8882 161.859 46.2319 162.148 46.2319 162.609V162.625C46.2319 163.195 45.6382 163.57 44.7632 163.57C43.8647 163.57 43.3413 163.188 43.1616 162.656L43.146 162.625H40.9038L40.9116 162.656C41.0757 164.133 42.4038 165.18 44.7397 165.18ZM55.4022 165H57.7928L59.3162 159H59.4569L60.9959 165H63.4178L65.7069 156.398H63.4491L62.1678 162.625H62.0272L60.5116 156.398H58.3397L56.8319 162.625H56.6912L55.41 156.398H53.1053L55.4022 165ZM70.3857 165.18C72.9014 165.18 74.0107 163.727 74.2764 162.648L74.292 162.57H72.167L72.1436 162.617C71.9873 162.945 71.4326 163.477 70.4326 163.477C69.2217 163.477 68.4639 162.656 68.4404 161.242H74.3623V160.531C74.3623 157.93 72.7998 156.211 70.292 156.211C67.7842 156.211 66.1826 157.969 66.1826 160.703V160.711C66.1826 163.469 67.7686 165.18 70.3857 165.18ZM70.3311 157.922C71.3232 157.922 72.0342 158.562 72.1748 159.812H68.4639C68.6045 158.594 69.3389 157.922 70.3311 157.922ZM79.6427 165.18C82.1584 165.18 83.2677 163.727 83.5334 162.648L83.549 162.57H81.424L81.4006 162.617C81.2443 162.945 80.6896 163.477 79.6896 163.477C78.4787 163.477 77.7209 162.656 77.6974 161.242H83.6193V160.531C83.6193 157.93 82.0568 156.211 79.549 156.211C77.0412 156.211 75.4396 157.969 75.4396 160.703V160.711C75.4396 163.469 77.0256 165.18 79.6427 165.18ZM79.5881 157.922C80.5802 157.922 81.2912 158.562 81.4318 159.812H77.7209C77.8615 158.594 78.5959 157.922 79.5881 157.922ZM85.1966 165H87.4779V162.117L88.1029 161.453L90.6107 165H93.306L89.7747 160.047L93.0794 156.398H90.4935L87.6185 159.797H87.4779V153.109H85.1966V165Z" fill="#4F4F4F"/>
<g filter="url(#filter2_d_356_14738)">
<rect width="69" height="94" transform="translate(16 191)" fill="#FDFDFD"/>
<path fill-rule="evenodd" clip-rule="evenodd" d="M23 191H17H16V192V284V285H17H84H85V284V192V191H84H58V192H84V284H17V192H23V191Z" fill="#030303"/>
<path d="M27.4375 195H31.3047C34.6562 195 36.625 192.914 36.625 189.367V189.352C36.625 185.812 34.6484 183.727 31.3047 183.727H27.4375V195ZM28.8438 193.734V184.992H31.2109C33.7109 184.992 35.1875 186.617 35.1875 189.367V189.383C35.1875 192.125 33.7266 193.734 31.2109 193.734H28.8438ZM41.9601 195.148C43.9445 195.148 45.1476 194.023 45.4367 192.883L45.4523 192.82H44.0929L44.0617 192.891C43.8351 193.398 43.132 193.938 41.9914 193.938C40.4914 193.938 39.5304 192.922 39.4914 191.18H45.5539V190.648C45.5539 188.133 44.1632 186.43 41.8742 186.43C39.5851 186.43 38.1007 188.211 38.1007 190.812V190.82C38.1007 193.461 39.5539 195.148 41.9601 195.148ZM41.8664 187.641C43.1086 187.641 44.0304 188.43 44.1711 190.094H39.5148C39.6632 188.492 40.6164 187.641 41.8664 187.641ZM50.7406 195.148C52.764 195.148 53.8968 194.062 54.2406 192.539L54.2562 192.453L52.9124 192.461L52.8968 192.508C52.5843 193.445 51.8656 193.945 50.7327 193.945C49.2327 193.945 48.264 192.703 48.264 190.766V190.75C48.264 188.852 49.2171 187.633 50.7327 187.633C51.9437 187.633 52.6937 188.305 52.9046 189.133L52.9124 189.156H54.264L54.2562 189.109C54.0062 187.609 52.7796 186.43 50.7327 186.43C48.3734 186.43 46.8734 188.133 46.8734 190.75V190.766C46.8734 193.438 48.3812 195.148 50.7406 195.148Z" fill="#030303"/>
<path d="M28.0508 218H31.2031V206.492H31.4375L35.7734 218H37.9883L42.3242 206.492H42.5586V218H45.7109V201.09H41.6562L36.9922 213.465H36.7812L32.1055 201.09H28.0508V218ZM53.1028 218.27C57.0755 218.27 59.4661 215.762 59.4661 211.555V211.531C59.4661 207.359 57.0403 204.816 53.1028 204.816C49.1653 204.816 46.7396 207.371 46.7396 211.531V211.555C46.7396 215.75 49.1302 218.27 53.1028 218.27ZM53.1028 215.586C51.2747 215.586 50.2435 214.098 50.2435 211.555V211.531C50.2435 209.012 51.2864 207.5 53.1028 207.5C54.9075 207.5 55.9622 209.012 55.9622 211.531V211.555C55.9622 214.098 54.9193 215.586 53.1028 215.586ZM60.1432 218H63.5651V210.535C63.5651 208.789 64.526 207.652 66.108 207.652C67.7252 207.652 68.4752 208.613 68.4752 210.43V218H71.8971V209.656C71.8971 206.574 70.3502 204.816 67.4791 204.816C65.6393 204.816 64.3619 205.695 63.776 207.09H63.5651V205.098H60.1432V218Z" fill="#030303"/>
<path d="M39 276.65C35.49 276.65 32.8033 275.653 30.94 273.66C29.0767 271.667 28.145 268.85 28.145 265.21V241.29C28.145 237.65 29.0767 234.833 30.94 232.84C32.8033 230.847 35.49 229.85 39 229.85C42.51 229.85 45.1967 230.847 47.06 232.84C48.9233 234.833 49.855 237.65 49.855 241.29V265.21C49.855 268.85 48.9233 271.667 47.06 273.66C45.1967 275.653 42.51 276.65 39 276.65ZM39 270.15C41.47 270.15 42.705 268.655 42.705 265.665V240.835C42.705 237.845 41.47 236.35 39 236.35C36.53 236.35 35.295 237.845 35.295 240.835V265.665C35.295 268.655 36.53 270.15 39 270.15ZM64.7004 241.29H57.2254V236.22C59.2621 236.22 60.8871 236.047 62.1004 235.7C63.3571 235.353 64.3537 234.79 65.0904 234.01C65.8271 233.187 66.4771 232.017 67.0404 230.5H71.8504V276H64.7004V241.29Z" fill="#030303"/>
</g>
<g filter="url(#filter3_d_356_14738)">
<rect width="69" height="94" transform="translate(103 191)" fill="#FDFDFD"/>
<path fill-rule="evenodd" clip-rule="evenodd" d="M110 191H104H103V192V284V285H104H171H172V284V192V191H171H145V192H171V284H104V192H110V191Z" fill="#030303"/>
<path d="M114.438 195H118.305C121.656 195 123.625 192.914 123.625 189.367V189.352C123.625 185.812 121.648 183.727 118.305 183.727H114.438V195ZM115.844 193.734V184.992H118.211C120.711 184.992 122.188 186.617 122.188 189.367V189.383C122.188 192.125 120.727 193.734 118.211 193.734H115.844ZM128.96 195.148C130.944 195.148 132.148 194.023 132.437 192.883L132.452 192.82H131.093L131.062 192.891C130.835 193.398 130.132 193.938 128.991 193.938C127.491 193.938 126.53 192.922 126.491 191.18H132.554V190.648C132.554 188.133 131.163 186.43 128.874 186.43C126.585 186.43 125.101 188.211 125.101 190.812V190.82C125.101 193.461 126.554 195.148 128.96 195.148ZM128.866 187.641C130.109 187.641 131.03 188.43 131.171 190.094H126.515C126.663 188.492 127.616 187.641 128.866 187.641ZM137.741 195.148C139.764 195.148 140.897 194.062 141.241 192.539L141.256 192.453L139.912 192.461L139.897 192.508C139.584 193.445 138.866 193.945 137.733 193.945C136.233 193.945 135.264 192.703 135.264 190.766V190.75C135.264 188.852 136.217 187.633 137.733 187.633C138.944 187.633 139.694 188.305 139.905 189.133L139.912 189.156H141.264L141.256 189.109C141.006 187.609 139.78 186.43 137.733 186.43C135.373 186.43 133.873 188.133 133.873 190.75V190.766C133.873 193.438 135.381 195.148 137.741 195.148Z" fill="#030303"/>
<path d="M119.152 218H122.691V204.008H127.766V201.09H114.078V204.008H119.152V218ZM131.466 218.27C133.306 218.27 134.618 217.414 135.204 216.008H135.415V218H138.837V205.098H135.415V212.551C135.415 214.297 134.501 215.434 132.814 215.434C131.197 215.434 130.505 214.484 130.505 212.656V205.098H127.083V213.441C127.083 216.512 128.572 218.27 131.466 218.27ZM145.831 218.27C149.604 218.27 151.268 216.09 151.667 214.473L151.69 214.355H148.503L148.467 214.426C148.233 214.918 147.401 215.715 145.901 215.715C144.085 215.715 142.948 214.484 142.913 212.363H151.796V211.297C151.796 207.395 149.452 204.816 145.69 204.816C141.928 204.816 139.526 207.453 139.526 211.555V211.566C139.526 215.703 141.905 218.27 145.831 218.27ZM145.749 207.383C147.237 207.383 148.303 208.344 148.514 210.219H142.948C143.159 208.391 144.26 207.383 145.749 207.383Z" fill="#030303"/>
<path d="M126 276.65C122.49 276.65 119.803 275.653 117.94 273.66C116.077 271.667 115.145 268.85 115.145 265.21V241.29C115.145 237.65 116.077 234.833 117.94 232.84C119.803 230.847 122.49 229.85 126 229.85C129.51 229.85 132.197 230.847 134.06 232.84C135.923 234.833 136.855 237.65 136.855 241.29V265.21C136.855 268.85 135.923 271.667 134.06 273.66C132.197 275.653 129.51 276.65 126 276.65ZM126 270.15C128.47 270.15 129.705 268.655 129.705 265.665V240.835C129.705 237.845 128.47 236.35 126 236.35C123.53 236.35 122.295 237.845 122.295 240.835V265.665C122.295 268.655 123.53 270.15 126 270.15ZM141.56 271.06C141.56 267.81 142.08 265.037 143.12 262.74C144.16 260.4 146.024 257.822 148.71 255.005C151.354 252.188 153.174 249.783 154.17 247.79C155.21 245.797 155.73 243.717 155.73 241.55C155.73 239.6 155.405 238.257 154.755 237.52C154.149 236.74 153.239 236.35 152.025 236.35C149.555 236.35 148.32 237.845 148.32 240.835V245.71H141.56V241.29C141.56 237.607 142.47 234.79 144.29 232.84C146.11 230.847 148.754 229.85 152.22 229.85C155.687 229.85 158.33 230.847 160.15 232.84C161.97 234.79 162.88 237.607 162.88 241.29C162.88 244.063 162.209 246.772 160.865 249.415C159.565 252.058 157.29 255.092 154.04 258.515C151.917 260.768 150.487 262.61 149.75 264.04C149.014 265.427 148.645 266.922 148.645 268.525V269.5H162.23V276H141.56V271.06Z" fill="#030303"/>
</g>
<g filter="url(#filter4_d_356_14738)">
<rect width="69" height="94" transform="translate(190 191)" fill="white"/>
<path fill-rule="evenodd" clip-rule="evenodd" d="M197 191H191H190V192V284V285H191H258H259V284V192V191H258H232V192H258V284H191V192H197V191Z" fill="#030303"/>
<path d="M201.438 195H205.305C208.656 195 210.625 192.914 210.625 189.367V189.352C210.625 185.812 208.648 183.727 205.305 183.727H201.438V195ZM202.844 193.734V184.992H205.211C207.711 184.992 209.188 186.617 209.188 189.367V189.383C209.188 192.125 207.727 193.734 205.211 193.734H202.844ZM215.96 195.148C217.944 195.148 219.148 194.023 219.437 192.883L219.452 192.82H218.093L218.062 192.891C217.835 193.398 217.132 193.938 215.991 193.938C214.491 193.938 213.53 192.922 213.491 191.18H219.554V190.648C219.554 188.133 218.163 186.43 215.874 186.43C213.585 186.43 212.101 188.211 212.101 190.812V190.82C212.101 193.461 213.554 195.148 215.96 195.148ZM215.866 187.641C217.109 187.641 218.03 188.43 218.171 190.094H213.515C213.663 188.492 214.616 187.641 215.866 187.641ZM224.741 195.148C226.764 195.148 227.897 194.062 228.241 192.539L228.256 192.453L226.912 192.461L226.897 192.508C226.584 193.445 225.866 193.945 224.733 193.945C223.233 193.945 222.264 192.703 222.264 190.766V190.75C222.264 188.852 223.217 187.633 224.733 187.633C225.944 187.633 226.694 188.305 226.905 189.133L226.912 189.156H228.264L228.256 189.109C228.006 187.609 226.78 186.43 224.733 186.43C222.373 186.43 220.873 188.133 220.873 190.75V190.766C220.873 193.438 222.381 195.148 224.741 195.148Z" fill="#030303"/>
<path d="M205.508 218H208.848L212.012 206.609H212.199L215.398 218H218.715L223.203 201.09H219.547L216.934 213.172H216.746L213.605 201.09H210.617L207.535 213.172H207.348L204.711 201.09H201.031L205.508 218ZM228.099 218.27C231.872 218.27 233.536 216.09 233.935 214.473L233.958 214.355H230.771L230.736 214.426C230.501 214.918 229.669 215.715 228.169 215.715C226.353 215.715 225.216 214.484 225.181 212.363H234.064V211.297C234.064 207.395 231.72 204.816 227.958 204.816C224.197 204.816 221.794 207.453 221.794 211.555V211.566C221.794 215.703 224.173 218.27 228.099 218.27ZM228.017 207.383C229.505 207.383 230.572 208.344 230.783 210.219H225.216C225.427 208.391 226.529 207.383 228.017 207.383ZM239.358 218.199C241.174 218.199 242.546 217.391 243.214 215.996H243.424V218H246.846V200.164H243.424V207.16H243.214C242.569 205.754 241.128 204.887 239.358 204.887C236.089 204.887 234.12 207.383 234.12 211.531V211.555C234.12 215.68 236.135 218.199 239.358 218.199ZM240.518 215.363C238.714 215.363 237.6 213.934 237.6 211.555V211.531C237.6 209.176 238.714 207.723 240.518 207.723C242.323 207.723 243.46 209.176 243.46 211.543V211.566C243.46 213.934 242.335 215.363 240.518 215.363Z" fill="#030303"/>
<path d="M213 276.65C209.49 276.65 206.803 275.653 204.94 273.66C203.077 271.667 202.145 268.85 202.145 265.21V241.29C202.145 237.65 203.077 234.833 204.94 232.84C206.803 230.847 209.49 229.85 213 229.85C216.51 229.85 219.197 230.847 221.06 232.84C222.923 234.833 223.855 237.65 223.855 241.29V265.21C223.855 268.85 222.923 271.667 221.06 273.66C219.197 275.653 216.51 276.65 213 276.65ZM213 270.15C215.47 270.15 216.705 268.655 216.705 265.665V240.835C216.705 237.845 215.47 236.35 213 236.35C210.53 236.35 209.295 237.845 209.295 240.835V265.665C209.295 268.655 210.53 270.15 213 270.15ZM238.83 276.65C235.32 276.65 232.655 275.675 230.835 273.725C229.059 271.775 228.17 268.98 228.17 265.34V261.635H234.93V265.665C234.93 268.655 236.165 270.15 238.635 270.15C239.849 270.15 240.759 269.782 241.365 269.045C242.015 268.265 242.34 266.922 242.34 265.015V261.31C242.34 259.23 241.972 257.757 241.235 256.89C240.499 255.98 239.307 255.525 237.66 255.525H235.255V249.025H237.855C239.285 249.025 240.347 248.657 241.04 247.92C241.777 247.183 242.145 245.948 242.145 244.215V240.9C242.145 239.34 241.82 238.192 241.17 237.455C240.52 236.718 239.654 236.35 238.57 236.35C236.274 236.35 235.125 237.758 235.125 240.575V243.565H228.365V241.16C228.365 237.52 229.254 234.725 231.03 232.775C232.85 230.825 235.45 229.85 238.83 229.85C242.254 229.85 244.854 230.825 246.63 232.775C248.407 234.682 249.295 237.455 249.295 241.095V242.72C249.295 245.19 248.884 247.183 248.06 248.7C247.237 250.173 245.959 251.235 244.225 251.885V252.015C246.089 252.708 247.432 253.835 248.255 255.395C249.079 256.955 249.49 258.948 249.49 261.375V265.405C249.49 269.045 248.58 271.84 246.76 273.79C244.984 275.697 242.34 276.65 238.83 276.65Z" fill="#030303"/>
<circle cx="256" cy="194" r="8" fill="#F51E5F"/>
</g>
<g filter="url(#filter5_d_356_14738)">
<rect width="69" height="94" transform="translate(277 191)" fill="#FDFDFD"/>
<path fill-rule="evenodd" clip-rule="evenodd" d="M284 191H278H277V192V284V285H278H345H346V284V192V191H345H319V192H345V284H278V192H284V191Z" fill="#030303"/>
<path d="M288.438 195H292.305C295.656 195 297.625 192.914 297.625 189.367V189.352C297.625 185.812 295.648 183.727 292.305 183.727H288.438V195ZM289.844 193.734V184.992H292.211C294.711 184.992 296.188 186.617 296.188 189.367V189.383C296.188 192.125 294.727 193.734 292.211 193.734H289.844ZM302.96 195.148C304.944 195.148 306.148 194.023 306.437 192.883L306.452 192.82H305.093L305.062 192.891C304.835 193.398 304.132 193.938 302.991 193.938C301.491 193.938 300.53 192.922 300.491 191.18H306.554V190.648C306.554 188.133 305.163 186.43 302.874 186.43C300.585 186.43 299.101 188.211 299.101 190.812V190.82C299.101 193.461 300.554 195.148 302.96 195.148ZM302.866 187.641C304.109 187.641 305.03 188.43 305.171 190.094H300.515C300.663 188.492 301.616 187.641 302.866 187.641ZM311.741 195.148C313.764 195.148 314.897 194.062 315.241 192.539L315.256 192.453L313.912 192.461L313.897 192.508C313.584 193.445 312.866 193.945 311.733 193.945C310.233 193.945 309.264 192.703 309.264 190.766V190.75C309.264 188.852 310.217 187.633 311.733 187.633C312.944 187.633 313.694 188.305 313.905 189.133L313.912 189.156H315.264L315.256 189.109C315.006 187.609 313.78 186.43 311.733 186.43C309.373 186.43 307.873 188.133 307.873 190.75V190.766C307.873 193.438 309.381 195.148 311.741 195.148Z" fill="#030303"/>
<path d="M293.152 218H296.691V204.008H301.766V201.09H288.078V204.008H293.152V218ZM302.56 218H305.982V210.535C305.982 208.789 306.943 207.652 308.525 207.652C310.142 207.652 310.892 208.613 310.892 210.43V218H314.314V209.656C314.314 206.574 312.767 204.816 309.896 204.816C308.056 204.816 306.779 205.695 306.193 207.09H305.982V200.164H302.56V218ZM319.784 218.27C321.624 218.27 322.936 217.414 323.522 216.008H323.733V218H327.155V205.098H323.733V212.551C323.733 214.297 322.819 215.434 321.131 215.434C319.514 215.434 318.823 214.484 318.823 212.656V205.098H315.401V213.441C315.401 216.512 316.889 218.27 319.784 218.27Z" fill="#030303"/>
<path d="M300 276.65C296.49 276.65 293.803 275.653 291.94 273.66C290.077 271.667 289.145 268.85 289.145 265.21V241.29C289.145 237.65 290.077 234.833 291.94 232.84C293.803 230.847 296.49 229.85 300 229.85C303.51 229.85 306.197 230.847 308.06 232.84C309.923 234.833 310.855 237.65 310.855 241.29V265.21C310.855 268.85 309.923 271.667 308.06 273.66C306.197 275.653 303.51 276.65 300 276.65ZM300 270.15C302.47 270.15 303.705 268.655 303.705 265.665V240.835C303.705 237.845 302.47 236.35 300 236.35C297.53 236.35 296.295 237.845 296.295 240.835V265.665C296.295 268.655 297.53 270.15 300 270.15ZM327.65 267.745H314V261.245L327 230.5H334.8V261.245H338.18V267.745H334.8V276H327.65V267.745ZM327.65 261.245V243.5H327.52L320.5 261.245H327.65Z" fill="#030303"/>
</g>
<g filter="url(#filter6_d_356_14738)">
<rect width="69" height="94" transform="translate(364 191)" fill="white"/>
<path fill-rule="evenodd" clip-rule="evenodd" d="M371 191H365H364V192V284V285H365H432H433V284V192V191H432H406V192H432V284H365V192H371V191Z" fill="#030303"/>
<path d="M375.438 195H379.305C382.656 195 384.625 192.914 384.625 189.367V189.352C384.625 185.812 382.648 183.727 379.305 183.727H375.438V195ZM376.844 193.734V184.992H379.211C381.711 184.992 383.188 186.617 383.188 189.367V189.383C383.188 192.125 381.727 193.734 379.211 193.734H376.844ZM389.96 195.148C391.944 195.148 393.148 194.023 393.437 192.883L393.452 192.82H392.093L392.062 192.891C391.835 193.398 391.132 193.938 389.991 193.938C388.491 193.938 387.53 192.922 387.491 191.18H393.554V190.648C393.554 188.133 392.163 186.43 389.874 186.43C387.585 186.43 386.101 188.211 386.101 190.812V190.82C386.101 193.461 387.554 195.148 389.96 195.148ZM389.866 187.641C391.109 187.641 392.03 188.43 392.171 190.094H387.515C387.663 188.492 388.616 187.641 389.866 187.641ZM398.741 195.148C400.764 195.148 401.897 194.062 402.241 192.539L402.256 192.453L400.912 192.461L400.897 192.508C400.584 193.445 399.866 193.945 398.733 193.945C397.233 193.945 396.264 192.703 396.264 190.766V190.75C396.264 188.852 397.217 187.633 398.733 187.633C399.944 187.633 400.694 188.305 400.905 189.133L400.912 189.156H402.264L402.256 189.109C402.006 187.609 400.78 186.43 398.733 186.43C396.373 186.43 394.873 188.133 394.873 190.75V190.766C394.873 193.438 396.381 195.148 398.741 195.148Z" fill="#030303"/>
<path d="M376.051 218H379.59V211.344H386.469V208.543H379.59V204.008H387.125V201.09H376.051V218ZM387.943 218H391.365V210.781C391.365 208.953 392.595 207.84 394.54 207.84C395.068 207.84 395.595 207.922 396.111 208.039V205.051C395.771 204.957 395.29 204.887 394.833 204.887C393.158 204.887 391.986 205.707 391.576 207.102H391.365V205.098H387.943V218ZM398.03 203.117C399.085 203.117 399.952 202.273 399.952 201.219C399.952 200.152 399.085 199.309 398.03 199.309C396.975 199.309 396.096 200.152 396.096 201.219C396.096 202.273 396.975 203.117 398.03 203.117ZM396.307 218H399.729V205.098H396.307V218Z" fill="#030303"/>
<path d="M387 276.65C383.49 276.65 380.803 275.653 378.94 273.66C377.077 271.667 376.145 268.85 376.145 265.21V241.29C376.145 237.65 377.077 234.833 378.94 232.84C380.803 230.847 383.49 229.85 387 229.85C390.51 229.85 393.197 230.847 395.06 232.84C396.923 234.833 397.855 237.65 397.855 241.29V265.21C397.855 268.85 396.923 271.667 395.06 273.66C393.197 275.653 390.51 276.65 387 276.65ZM387 270.15C389.47 270.15 390.705 268.655 390.705 265.665V240.835C390.705 237.845 389.47 236.35 387 236.35C384.53 236.35 383.295 237.845 383.295 240.835V265.665C383.295 268.655 384.53 270.15 387 270.15ZM413.155 276.65C409.689 276.65 407.045 275.675 405.225 273.725C403.405 271.732 402.495 268.893 402.495 265.21V261.635H409.255V265.73C409.255 268.677 410.49 270.15 412.96 270.15C415.43 270.15 416.665 268.677 416.665 265.73V255.525C416.665 252.535 415.43 251.04 412.96 251.04C410.49 251.04 409.255 252.535 409.255 255.525V255.915H402.495L403.795 230.5H422.645V237H410.165L409.58 247.855H409.71C411.054 245.645 413.112 244.54 415.885 244.54C418.485 244.54 420.457 245.428 421.8 247.205C423.144 248.982 423.815 251.56 423.815 254.94V265.21C423.815 268.893 422.905 271.732 421.085 273.725C419.265 275.675 416.622 276.65 413.155 276.65Z" fill="#030303"/>
</g>
<path d="M18.1016 340H20.4609V330.672H23.8438V328.727H14.7188V330.672H18.1016V340ZM24.4289 340H26.7101V335.188C26.7101 333.969 27.5304 333.227 28.8273 333.227C29.1789 333.227 29.5304 333.281 29.8742 333.359V331.367C29.6476 331.305 29.3273 331.258 29.0226 331.258C27.9054 331.258 27.1242 331.805 26.8507 332.734H26.7101V331.398H24.4289V340ZM34.6077 340.18C37.1234 340.18 38.2327 338.727 38.4984 337.648L38.514 337.57H36.389L36.3656 337.617C36.2093 337.945 35.6546 338.477 34.6546 338.477C33.4437 338.477 32.6859 337.656 32.6624 336.242H38.5843V335.531C38.5843 332.93 37.0218 331.211 34.514 331.211C32.0062 331.211 30.4046 332.969 30.4046 335.703V335.711C30.4046 338.469 31.9906 340.18 34.6077 340.18ZM34.5531 332.922C35.5452 332.922 36.2562 333.562 36.3968 334.812H32.6859C32.8265 333.594 33.5609 332.922 34.5531 332.922ZM40.0835 340H42.3647V335.023C42.3647 333.859 43.0054 333.102 44.0601 333.102C45.1382 333.102 45.6382 333.742 45.6382 334.953V340H47.9194V334.438C47.9194 332.383 46.8882 331.211 44.9741 331.211C43.7476 331.211 42.896 331.797 42.5054 332.727H42.3647V331.398H40.0835V340ZM52.8327 340.133C54.0436 340.133 54.9577 339.594 55.403 338.664H55.5436V340H57.8249V328.109H55.5436V332.773H55.403C54.9733 331.836 54.0124 331.258 52.8327 331.258C50.653 331.258 49.3405 332.922 49.3405 335.688V335.703C49.3405 338.453 50.6842 340.133 52.8327 340.133ZM53.6061 338.242C52.403 338.242 51.6608 337.289 51.6608 335.703V335.688C51.6608 334.117 52.403 333.148 53.6061 333.148C54.8092 333.148 55.5671 334.117 55.5671 335.695V335.711C55.5671 337.289 54.8171 338.242 53.6061 338.242ZM60.9803 330.078C61.6834 330.078 62.2616 329.516 62.2616 328.812C62.2616 328.102 61.6834 327.539 60.9803 327.539C60.2772 327.539 59.6912 328.102 59.6912 328.812C59.6912 329.516 60.2772 330.078 60.9803 330.078ZM59.8319 340H62.1131V331.398H59.8319V340ZM64.042 340H66.3232V335.023C66.3232 333.859 66.9639 333.102 68.0186 333.102C69.0967 333.102 69.5967 333.742 69.5967 334.953V340H71.8779V334.438C71.8779 332.383 70.8467 331.211 68.9326 331.211C67.7061 331.211 66.8545 331.797 66.4639 332.727H66.3232V331.398H64.042V340ZM77.5177 343.023C80.1193 343.023 81.7677 341.75 81.7677 339.734V331.398H79.4865V332.805H79.3771C78.9162 331.836 77.9943 331.258 76.8146 331.258C74.6115 331.258 73.2756 332.961 73.2756 335.492V335.508C73.2756 337.953 74.6115 339.625 76.7756 339.625C77.9709 339.625 78.8771 339.133 79.3537 338.227H79.4943V339.828C79.4943 340.828 78.7834 341.398 77.5646 341.398C76.549 341.398 75.9552 341.055 75.8302 340.555L75.8224 340.523H73.5646V340.562C73.7521 342.023 75.1349 343.023 77.5177 343.023ZM77.549 337.875C76.3146 337.875 75.6115 336.914 75.6115 335.5V335.484C75.6115 334.07 76.3224 333.109 77.549 333.109C78.7756 333.109 79.5177 334.07 79.5177 335.484V335.5C79.5177 336.914 78.7834 337.875 77.549 337.875ZM91.0083 340.031C91.4458 340.031 91.8677 339.984 92.1489 339.93V338.234C91.9302 338.258 91.7739 338.273 91.4771 338.273C90.7036 338.273 90.3755 337.93 90.3755 337.156V333.117H92.1489V331.398H90.3755V329.344H88.0708V331.398H86.7427V333.117H88.0708V337.68C88.0708 339.352 88.9146 340.031 91.0083 340.031ZM97.4372 340.18C100.086 340.18 101.679 338.508 101.679 335.703V335.688C101.679 332.906 100.062 331.211 97.4372 331.211C94.8122 331.211 93.195 332.914 93.195 335.688V335.703C93.195 338.5 94.7887 340.18 97.4372 340.18ZM97.4372 338.391C96.2184 338.391 95.5309 337.398 95.5309 335.703V335.688C95.5309 334.008 96.2262 333 97.4372 333C98.6403 333 99.3434 334.008 99.3434 335.688V335.703C99.3434 337.398 98.6481 338.391 97.4372 338.391ZM103.171 342.852H105.452V338.625H105.593C106.03 339.562 106.991 340.133 108.171 340.133C110.35 340.133 111.663 338.469 111.663 335.703V335.688C111.663 332.945 110.319 331.258 108.171 331.258C106.952 331.258 106.038 331.805 105.593 332.727H105.452V331.398H103.171V342.852ZM107.39 338.242C106.194 338.242 105.429 337.281 105.429 335.703V335.688C105.429 334.109 106.186 333.148 107.39 333.148C108.6 333.148 109.343 334.109 109.343 335.688V335.703C109.343 337.281 108.593 338.242 107.39 338.242ZM114.326 330.078C115.029 330.078 115.607 329.516 115.607 328.812C115.607 328.102 115.029 327.539 114.326 327.539C113.623 327.539 113.037 328.102 113.037 328.812C113.037 329.516 113.623 330.078 114.326 330.078ZM113.178 340H115.459V331.398H113.178V340ZM121.177 340.18C123.419 340.18 124.763 338.977 124.997 337.102L125.005 337.055H122.896L122.88 337.086C122.677 337.945 122.122 338.391 121.185 338.391C119.966 338.391 119.286 337.43 119.286 335.688V335.672C119.286 333.953 119.958 333 121.185 333C122.161 333 122.732 333.547 122.88 334.383L122.888 334.398H125.013V334.375C124.81 332.453 123.458 331.211 121.177 331.211C118.482 331.211 116.966 332.844 116.966 335.672V335.688C116.966 338.547 118.489 340.18 121.177 340.18Z" fill="#4F4F4F"/>
<path d="M24.414 374.8H14.984V366.6H42.864V374.8H33.434V424H24.414V374.8ZM46.4111 366.6H55.4311V389.97H65.1071V366.6H74.1271V424H65.1071V398.17H55.4311V424H46.4111V366.6ZM80.0247 366.6H104.625V374.8H89.0447V389.97H101.427V398.17H89.0447V415.8H104.625V424H80.0247V366.6ZM30.154 495.82C25.7807 495.82 22.446 494.59 20.15 492.13C17.854 489.615 16.706 486.035 16.706 481.388V451.212C16.706 446.565 17.854 443.012 20.15 440.552C22.446 438.037 25.7807 436.78 30.154 436.78C34.5273 436.78 37.862 438.037 40.158 440.552C42.454 443.012 43.602 446.565 43.602 451.212V456.132H35.074V450.638C35.074 446.866 33.516 444.98 30.4 444.98C27.284 444.98 25.726 446.866 25.726 450.638V482.044C25.726 485.761 27.284 487.62 30.4 487.62C33.516 487.62 35.074 485.761 35.074 482.044V470.81H30.564V462.61H43.602V481.388C43.602 486.035 42.454 489.615 40.158 492.13C37.862 494.59 34.5273 495.82 30.154 495.82ZM61.6113 495.82C57.1833 495.82 53.7939 494.563 51.4433 492.048C49.0926 489.533 47.9173 485.98 47.9173 481.388V451.212C47.9173 446.62 49.0926 443.067 51.4433 440.552C53.7939 438.037 57.1833 436.78 61.6113 436.78C66.0393 436.78 69.4286 438.037 71.7793 440.552C74.1299 443.067 75.3053 446.62 75.3053 451.212V481.388C75.3053 485.98 74.1299 489.533 71.7793 492.048C69.4286 494.563 66.0393 495.82 61.6113 495.82ZM61.6113 487.62C64.7273 487.62 66.2853 485.734 66.2853 481.962V450.638C66.2853 446.866 64.7273 444.98 61.6113 444.98C58.4953 444.98 56.9373 446.866 56.9373 450.638V481.962C56.9373 485.734 58.4953 487.62 61.6113 487.62ZM78.0471 437.6H87.1491L93.0531 482.126H93.2171L99.1211 437.6H107.403L98.7111 495H86.7391L78.0471 437.6ZM110.916 437.6H135.516V445.8H119.936V460.97H132.318V469.17H119.936V486.8H135.516V495H110.916V437.6ZM139.885 437.6H153.251C157.897 437.6 161.287 438.693 163.419 440.88C165.551 443.012 166.617 446.319 166.617 450.802V454.328C166.617 460.287 164.649 464.059 160.713 465.644V465.808C162.899 466.464 164.43 467.803 165.305 469.826C166.234 471.849 166.699 474.555 166.699 477.944V488.03C166.699 489.67 166.753 491.009 166.863 492.048C166.972 493.032 167.245 494.016 167.683 495H158.499C158.171 494.071 157.952 493.196 157.843 492.376C157.733 491.556 157.679 490.08 157.679 487.948V477.452C157.679 474.828 157.241 472.997 156.367 471.958C155.547 470.919 154.098 470.4 152.021 470.4H148.905V495H139.885V437.6ZM152.185 462.2C153.989 462.2 155.328 461.735 156.203 460.806C157.132 459.877 157.597 458.319 157.597 456.132V451.704C157.597 449.627 157.214 448.123 156.449 447.194C155.738 446.265 154.59 445.8 153.005 445.8H148.905V462.2H152.185ZM172.137 437.6H183.453L192.227 471.958H192.391V437.6H200.427V495H191.161L180.337 453.098H180.173V495H172.137V437.6ZM206.311 437.6H219.185L224.925 478.682H225.089L230.829 437.6H243.703V495H235.175V451.54H235.011L228.451 495H220.907L214.347 451.54H214.183V495H206.311V437.6ZM249.614 437.6H274.214V445.8H258.634V460.97H271.016V469.17H258.634V486.8H274.214V495H249.614V437.6ZM278.583 437.6H289.899L298.673 471.958H298.837V437.6H306.873V495H297.607L286.783 453.098H286.619V495H278.583V437.6ZM319.809 445.8H310.379V437.6H338.259V445.8H328.829V495H319.809V445.8ZM24.414 516.8H14.984V508.6H42.864V516.8H33.434V566H24.414V516.8ZM59.1288 566.82C54.7008 566.82 51.3115 565.563 48.9608 563.048C46.6102 560.533 45.4348 556.98 45.4348 552.388V522.212C45.4348 517.62 46.6102 514.067 48.9608 511.552C51.3115 509.037 54.7008 507.78 59.1288 507.78C63.5568 507.78 66.9462 509.037 69.2968 511.552C71.6475 514.067 72.8228 517.62 72.8228 522.212V552.388C72.8228 556.98 71.6475 560.533 69.2968 563.048C66.9462 565.563 63.5568 566.82 59.1288 566.82ZM59.1288 558.62C62.2448 558.62 63.8028 556.734 63.8028 552.962V521.638C63.8028 517.866 62.2448 515.98 59.1288 515.98C56.0128 515.98 54.4548 517.866 54.4548 521.638V552.962C54.4548 556.734 56.0128 558.62 59.1288 558.62ZM97.3857 508.6H109.604L118.952 566H109.932L108.292 554.602V554.766H98.0417L96.4017 566H88.0377L97.3857 508.6ZM107.226 546.976L103.208 518.604H103.044L99.1077 546.976H107.226ZM122.508 508.6H135.792C140.274 508.6 143.636 509.803 145.878 512.208C148.119 514.613 149.24 518.139 149.24 522.786V528.444C149.24 533.091 148.119 536.617 145.878 539.022C143.636 541.427 140.274 542.63 135.792 542.63H131.528V566H122.508V508.6ZM135.792 534.43C137.268 534.43 138.361 534.02 139.072 533.2C139.837 532.38 140.22 530.986 140.22 529.018V522.212C140.22 520.244 139.837 518.85 139.072 518.03C138.361 517.21 137.268 516.8 135.792 516.8H131.528V534.43H135.792ZM153.319 508.6H166.603C171.085 508.6 174.447 509.803 176.689 512.208C178.93 514.613 180.051 518.139 180.051 522.786V528.444C180.051 533.091 178.93 536.617 176.689 539.022C174.447 541.427 171.085 542.63 166.603 542.63H162.339V566H153.319V508.6ZM166.603 534.43C168.079 534.43 169.172 534.02 169.883 533.2C170.648 532.38 171.031 530.986 171.031 529.018V522.212C171.031 520.244 170.648 518.85 169.883 518.03C169.172 517.21 168.079 516.8 166.603 516.8H162.339V534.43H166.603ZM184.13 508.6H197.496C202.142 508.6 205.532 509.693 207.664 511.88C209.796 514.012 210.862 517.319 210.862 521.802V525.328C210.862 531.287 208.894 535.059 204.958 536.644V536.808C207.144 537.464 208.675 538.803 209.55 540.826C210.479 542.849 210.944 545.555 210.944 548.944V559.03C210.944 560.67 210.998 562.009 211.108 563.048C211.217 564.032 211.49 565.016 211.928 566H202.744C202.416 565.071 202.197 564.196 202.088 563.376C201.978 562.556 201.924 561.08 201.924 558.948V548.452C201.924 545.828 201.486 543.997 200.612 542.958C199.792 541.919 198.343 541.4 196.266 541.4H193.15V566H184.13V508.6ZM196.43 533.2C198.234 533.2 199.573 532.735 200.448 531.806C201.377 530.877 201.842 529.319 201.842 527.132V522.704C201.842 520.627 201.459 519.123 200.694 518.194C199.983 517.265 198.835 516.8 197.25 516.8H193.15V533.2H196.43ZM229.42 566.82C224.992 566.82 221.602 565.563 219.252 563.048C216.901 560.533 215.726 556.98 215.726 552.388V522.212C215.726 517.62 216.901 514.067 219.252 511.552C221.602 509.037 224.992 507.78 229.42 507.78C233.848 507.78 237.237 509.037 239.588 511.552C241.938 514.067 243.114 517.62 243.114 522.212V552.388C243.114 556.98 241.938 560.533 239.588 563.048C237.237 565.563 233.848 566.82 229.42 566.82ZM229.42 558.62C232.536 558.62 234.094 556.734 234.094 552.962V521.638C234.094 517.866 232.536 515.98 229.42 515.98C226.304 515.98 224.746 517.866 224.746 521.638V552.962C224.746 556.734 226.304 558.62 229.42 558.62ZM245.856 508.6H254.958L260.862 553.126H261.026L266.93 508.6H275.212L266.52 566H254.548L245.856 508.6ZM278.724 508.6H303.324V516.8H287.744V531.97H300.126V540.17H287.744V557.8H303.324V566H278.724V508.6ZM24.414 587.8H14.984V579.6H42.864V587.8H33.434V637H24.414V587.8ZM46.4111 579.6H55.4311V602.97H65.1071V579.6H74.1271V637H65.1071V611.17H55.4311V637H46.4111V579.6ZM80.0247 579.6H104.625V587.8H89.0447V602.97H101.427V611.17H89.0447V628.8H104.625V637H80.0247V579.6ZM121.307 579.6H134.181L139.921 620.682H140.085L145.825 579.6H158.699V637H150.171V593.54H150.007L143.447 637H135.903L129.343 593.54H129.179V637H121.307V579.6ZM177.648 637.82C173.22 637.82 169.83 636.563 167.48 634.048C165.129 631.533 163.954 627.98 163.954 623.388V593.212C163.954 588.62 165.129 585.067 167.48 582.552C169.83 580.037 173.22 578.78 177.648 578.78C182.076 578.78 185.465 580.037 187.816 582.552C190.166 585.067 191.342 588.62 191.342 593.212V623.388C191.342 627.98 190.166 631.533 187.816 634.048C185.465 636.563 182.076 637.82 177.648 637.82ZM177.648 629.62C180.764 629.62 182.322 627.734 182.322 623.962V592.638C182.322 588.866 180.764 586.98 177.648 586.98C174.532 586.98 172.974 588.866 172.974 592.638V623.962C172.974 627.734 174.532 629.62 177.648 629.62ZM208.348 637.82C203.974 637.82 200.667 636.59 198.426 634.13C196.184 631.615 195.064 628.035 195.064 623.388V620.108H203.592V624.044C203.592 627.761 205.15 629.62 208.266 629.62C209.796 629.62 210.944 629.183 211.71 628.308C212.53 627.379 212.94 625.903 212.94 623.88C212.94 621.475 212.393 619.37 211.3 617.566C210.206 615.707 208.184 613.493 205.232 610.924C201.514 607.644 198.918 604.692 197.442 602.068C195.966 599.389 195.228 596.383 195.228 593.048C195.228 588.511 196.376 585.012 198.672 582.552C200.968 580.037 204.302 578.78 208.676 578.78C212.994 578.78 216.247 580.037 218.434 582.552C220.675 585.012 221.796 588.565 221.796 593.212V595.59H213.268V592.638C213.268 590.67 212.885 589.249 212.12 588.374C211.354 587.445 210.234 586.98 208.758 586.98C205.751 586.98 204.248 588.811 204.248 592.474C204.248 594.551 204.794 596.492 205.888 598.296C207.036 600.1 209.086 602.287 212.038 604.856C215.81 608.136 218.406 611.115 219.828 613.794C221.249 616.473 221.96 619.616 221.96 623.224C221.96 627.925 220.784 631.533 218.434 634.048C216.138 636.563 212.776 637.82 208.348 637.82ZM233.363 587.8H223.933V579.6H251.813V587.8H242.383V637H233.363V587.8ZM249.355 628.308H258.047V637H249.355V628.308ZM263.99 628.308H272.682V637H263.99V628.308ZM278.625 628.308H287.317V637H278.625V628.308Z" fill="#030303"/>
<path d="M14 654H376" stroke="#AFAFAF" stroke-width="0.5"/>
<path d="M15.312 671.6H20.528C22.3413 671.6 23.664 672.027 24.496 672.88C25.328 673.712 25.744 675.003 25.744 676.752V678.128C25.744 680.453 24.976 681.925 23.44 682.544V682.608C24.2933 682.864 24.8907 683.387 25.232 684.176C25.5947 684.965 25.776 686.021 25.776 687.344V691.28C25.776 691.92 25.7973 692.443 25.84 692.848C25.8827 693.232 25.9893 693.616 26.16 694H22.576C22.448 693.637 22.3627 693.296 22.32 692.976C22.2773 692.656 22.256 692.08 22.256 691.248V687.152C22.256 686.128 22.0853 685.413 21.744 685.008C21.424 684.603 20.8587 684.4 20.048 684.4H18.832V694H15.312V671.6ZM20.112 681.2C20.816 681.2 21.3387 681.019 21.68 680.656C22.0427 680.293 22.224 679.685 22.224 678.832V677.104C22.224 676.293 22.0747 675.707 21.776 675.344C21.4987 674.981 21.0507 674.8 20.432 674.8H18.832V681.2H20.112ZM27.4822 671.6H37.0823V674.8H31.0023V680.72H35.8343V683.92H31.0023V690.8H37.0823V694H27.4822V671.6ZM38.3712 671.6H43.3953L45.6353 687.632H45.6993L47.9392 671.6H52.9633V694H49.6353V677.04H49.5713L47.0113 694H44.0673L41.5073 677.04H41.4433V694H38.3712V671.6ZM57.574 671.6H62.342L65.99 694H62.47L61.83 689.552V689.616H57.83L57.19 694H53.926L57.574 671.6ZM61.414 686.576L59.846 675.504H59.782L58.246 686.576H61.414ZM66.9617 671.6H70.4818V694H66.9617V671.6ZM72.382 671.6H76.798L80.222 685.008H80.286V671.6H83.422V694H79.806L75.582 677.648H75.518V694H72.382V671.6ZM85.3022 671.6H88.8222V694H85.3022V671.6ZM90.7225 671.6H95.1385L98.5625 685.008H98.6265V671.6H101.762V694H98.1465L93.9225 677.648H93.8585V694H90.7225V671.6ZM108.635 694.32C106.928 694.32 105.627 693.84 104.731 692.88C103.835 691.899 103.387 690.501 103.387 688.688V676.912C103.387 675.099 103.835 673.712 104.731 672.752C105.627 671.771 106.928 671.28 108.635 671.28C110.341 671.28 111.643 671.771 112.539 672.752C113.435 673.712 113.883 675.099 113.883 676.912V678.832H110.555V676.688C110.555 675.216 109.947 674.48 108.731 674.48C107.515 674.48 106.907 675.216 106.907 676.688V688.944C106.907 690.395 107.515 691.12 108.731 691.12C109.947 691.12 110.555 690.395 110.555 688.944V684.56H108.795V681.36H113.883V688.688C113.883 690.501 113.435 691.899 112.539 692.88C111.643 693.84 110.341 694.32 108.635 694.32ZM122.548 674.8H118.868V671.6H129.748V674.8H126.068V694H122.548V674.8ZM130.716 671.6H134.236V694H130.716V671.6ZM136.136 671.6H141.16L143.4 687.632H143.464L145.704 671.6H150.728V694H147.4V677.04H147.336L144.776 694H141.832L139.272 677.04H139.208V694H136.136V671.6ZM152.619 671.6H162.219V674.8H156.139V680.72H160.971V683.92H156.139V690.8H162.219V694H152.619V671.6ZM173.145 668.4H176.025V700.4H173.145V668.4ZM187.486 691.568C187.486 689.968 187.742 688.603 188.254 687.472C188.766 686.32 189.683 685.051 191.006 683.664C192.307 682.277 193.203 681.093 193.694 680.112C194.206 679.131 194.462 678.107 194.462 677.04C194.462 676.08 194.302 675.419 193.982 675.056C193.683 674.672 193.235 674.48 192.638 674.48C191.422 674.48 190.814 675.216 190.814 676.688V679.088H187.486V676.912C187.486 675.099 187.934 673.712 188.83 672.752C189.726 671.771 191.027 671.28 192.734 671.28C194.441 671.28 195.742 671.771 196.638 672.752C197.534 673.712 197.982 675.099 197.982 676.912C197.982 678.277 197.651 679.611 196.99 680.912C196.35 682.213 195.23 683.707 193.63 685.392C192.585 686.501 191.881 687.408 191.518 688.112C191.155 688.795 190.974 689.531 190.974 690.32V690.8H197.662V694H187.486V691.568ZM204.618 694.32C202.89 694.32 201.578 693.84 200.682 692.88C199.808 691.92 199.37 690.544 199.37 688.752V686.928H202.698V688.912C202.698 690.384 203.306 691.12 204.522 691.12C205.12 691.12 205.568 690.939 205.866 690.576C206.186 690.192 206.346 689.531 206.346 688.592V686.768C206.346 685.744 206.165 685.019 205.802 684.592C205.44 684.144 204.853 683.92 204.042 683.92H202.858V680.72H204.138C204.842 680.72 205.365 680.539 205.706 680.176C206.069 679.813 206.25 679.205 206.25 678.352V676.72C206.25 675.952 206.09 675.387 205.77 675.024C205.45 674.661 205.024 674.48 204.49 674.48C203.36 674.48 202.794 675.173 202.794 676.56V678.032H199.466V676.848C199.466 675.056 199.904 673.68 200.778 672.72C201.674 671.76 202.954 671.28 204.618 671.28C206.304 671.28 207.584 671.76 208.458 672.72C209.333 673.659 209.77 675.024 209.77 676.816V677.616C209.77 678.832 209.568 679.813 209.162 680.56C208.757 681.285 208.128 681.808 207.274 682.128V682.192C208.192 682.533 208.853 683.088 209.258 683.856C209.664 684.624 209.866 685.605 209.866 686.8V688.784C209.866 690.576 209.418 691.952 208.522 692.912C207.648 693.851 206.346 694.32 204.618 694.32ZM211.703 671.6H215.223V680.72H218.999V671.6H222.519V694H218.999V683.92H215.223V694H211.703V671.6ZM233.786 694.32C232.058 694.32 230.746 693.84 229.85 692.88C228.975 691.92 228.538 690.544 228.538 688.752V686.928H231.866V688.912C231.866 690.384 232.474 691.12 233.69 691.12C234.287 691.12 234.735 690.939 235.034 690.576C235.354 690.192 235.514 689.531 235.514 688.592V686.768C235.514 685.744 235.332 685.019 234.97 684.592C234.607 684.144 234.02 683.92 233.21 683.92H232.026V680.72H233.306C234.01 680.72 234.532 680.539 234.874 680.176C235.236 679.813 235.418 679.205 235.418 678.352V676.72C235.418 675.952 235.258 675.387 234.938 675.024C234.618 674.661 234.191 674.48 233.658 674.48C232.527 674.48 231.962 675.173 231.962 676.56V678.032H228.634V676.848C228.634 675.056 229.071 673.68 229.946 672.72C230.842 671.76 232.122 671.28 233.786 671.28C235.471 671.28 236.751 671.76 237.626 672.72C238.5 673.659 238.938 675.024 238.938 676.816V677.616C238.938 678.832 238.735 679.813 238.33 680.56C237.924 681.285 237.295 681.808 236.442 682.128V682.192C237.359 682.533 238.02 683.088 238.426 683.856C238.831 684.624 239.034 685.605 239.034 686.8V688.784C239.034 690.576 238.586 691.952 237.69 692.912C236.815 693.851 235.514 694.32 233.786 694.32ZM247.75 674.8H240.646V671.6H251.206V674.672L245.702 694H242.118L247.75 674.8ZM252.947 671.6H257.971L260.211 687.632H260.275L262.515 671.6H267.539V694H264.211V677.04H264.147L261.587 694H258.643L256.083 677.04H256.019V694H252.947V671.6ZM273.754 691.568C273.754 689.968 274.01 688.603 274.522 687.472C275.034 686.32 275.952 685.051 277.274 683.664C278.576 682.277 279.472 681.093 279.962 680.112C280.474 679.131 280.73 678.107 280.73 677.04C280.73 676.08 280.57 675.419 280.25 675.056C279.952 674.672 279.504 674.48 278.906 674.48C277.69 674.48 277.082 675.216 277.082 676.688V679.088H273.754V676.912C273.754 675.099 274.202 673.712 275.098 672.752C275.994 671.771 277.296 671.28 279.002 671.28C280.709 671.28 282.01 671.771 282.906 672.752C283.802 673.712 284.25 675.099 284.25 676.912C284.25 678.277 283.92 679.611 283.258 680.912C282.618 682.213 281.498 683.707 279.898 685.392C278.853 686.501 278.149 687.408 277.786 688.112C277.424 688.795 277.242 689.531 277.242 690.32V690.8H283.93V694H273.754V691.568ZM290.983 694.32C289.255 694.32 287.932 693.829 287.015 692.848C286.097 691.867 285.639 690.48 285.639 688.688V676.912C285.639 675.12 286.097 673.733 287.015 672.752C287.932 671.771 289.255 671.28 290.983 671.28C292.711 671.28 294.033 671.771 294.951 672.752C295.868 673.733 296.327 675.12 296.327 676.912V688.688C296.327 690.48 295.868 691.867 294.951 692.848C294.033 693.829 292.711 694.32 290.983 694.32ZM290.983 691.12C292.199 691.12 292.807 690.384 292.807 688.912V676.688C292.807 675.216 292.199 674.48 290.983 674.48C289.767 674.48 289.159 675.216 289.159 676.688V688.912C289.159 690.384 289.767 691.12 290.983 691.12ZM302.547 694.32C300.841 694.32 299.55 693.84 298.675 692.88C297.801 691.899 297.363 690.501 297.363 688.688V687.408H300.691V688.944C300.691 690.395 301.299 691.12 302.515 691.12C303.113 691.12 303.561 690.949 303.859 690.608C304.179 690.245 304.339 689.669 304.339 688.88C304.339 687.941 304.126 687.12 303.699 686.416C303.273 685.691 302.483 684.827 301.331 683.824C299.881 682.544 298.867 681.392 298.291 680.368C297.715 679.323 297.427 678.149 297.427 676.848C297.427 675.077 297.875 673.712 298.771 672.752C299.667 671.771 300.969 671.28 302.675 671.28C304.361 671.28 305.63 671.771 306.483 672.752C307.358 673.712 307.795 675.099 307.795 676.912V677.84H304.467V676.688C304.467 675.92 304.318 675.365 304.019 675.024C303.721 674.661 303.283 674.48 302.707 674.48C301.534 674.48 300.947 675.195 300.947 676.624C300.947 677.435 301.161 678.192 301.587 678.896C302.035 679.6 302.835 680.453 303.987 681.456C305.459 682.736 306.473 683.899 307.027 684.944C307.582 685.989 307.859 687.216 307.859 688.624C307.859 690.459 307.401 691.867 306.483 692.848C305.587 693.829 304.275 694.32 302.547 694.32Z" fill="#4F4F4F"/>
<path d="M42.2434 746.912H29.5274V732.248L37.4893 724L38.6062 724.888C38.7208 724.983 38.8067 725.117 38.864 725.289C38.9212 725.461 38.9499 725.671 38.9499 725.919V726.205L37.6611 732.248H46.2243C46.6826 732.248 47.0835 732.42 47.4272 732.764C47.7709 733.107 47.9427 733.508 47.9427 733.967V736.315C47.9427 736.449 47.957 736.587 47.9857 736.73C48.0143 736.874 48 737.012 47.9427 737.146L44.3341 745.451C44.1623 745.852 43.8807 746.196 43.4893 746.482C43.0979 746.768 42.6826 746.912 42.2434 746.912ZM31.2458 745.193H42.6158L46.2243 736.63V733.967H35.5418L37.0597 726.835L31.2458 732.964V745.193ZM29.5274 732.248V733.967H25.7184V745.193H29.5274V746.912H24V732.248H29.5274Z" fill="#030303"/>
<path d="M71.0205 742.237C73.9824 742.237 75.96 740.681 75.96 738.379V738.361C75.96 736.638 74.7295 735.549 72.8398 735.373V735.32C74.3252 735.012 75.4854 733.984 75.4854 732.402V732.385C75.4854 730.363 73.7275 728.992 71.0029 728.992C68.3398 728.992 66.5557 730.469 66.3711 732.736L66.3623 732.842H68.8057L68.8145 732.762C68.9199 731.708 69.7549 731.031 71.0029 731.031C72.251 731.031 72.9805 731.681 72.9805 732.736V732.754C72.9805 733.782 72.1191 734.485 70.7832 734.485H69.3682V736.375H70.8184C72.3564 736.375 73.2617 737.043 73.2617 738.256V738.273C73.2617 739.345 72.374 740.101 71.0205 740.101C69.6494 740.101 68.7441 739.398 68.6299 738.414L68.6211 738.317H66.0811L66.0898 738.431C66.2656 740.699 68.1553 742.237 71.0205 742.237ZM79.0528 742.176C79.9581 742.176 80.5997 741.516 80.5997 740.646C80.5997 739.776 79.9581 739.126 79.0528 739.126C78.1563 739.126 77.5059 739.776 77.5059 740.646C77.5059 741.516 78.1563 742.176 79.0528 742.176ZM85.2745 741.956H87.9288V729.273H85.2833L82.005 731.55V733.94L85.1163 731.778H85.2745V741.956ZM95.8469 742.281C98.9846 742.281 100.883 739.715 100.883 735.619V735.601C100.883 731.497 98.9846 728.948 95.8469 728.948C92.718 728.948 90.8107 731.497 90.8107 735.601V735.619C90.8107 739.715 92.718 742.281 95.8469 742.281ZM95.8469 740.18C94.3527 740.18 93.5002 738.484 93.5002 735.619V735.601C93.5002 732.727 94.3527 731.049 95.8469 731.049C97.3498 731.049 98.2023 732.727 98.2023 735.601V735.619C98.2023 738.484 97.3498 740.18 95.8469 740.18ZM107.755 742.281C110.893 742.281 112.791 739.715 112.791 735.619V735.601C112.791 731.497 110.893 728.948 107.755 728.948C104.626 728.948 102.719 731.497 102.719 735.601V735.619C102.719 739.715 104.626 742.281 107.755 742.281ZM107.755 740.18C106.261 740.18 105.408 738.484 105.408 735.619V735.601C105.408 732.727 106.261 731.049 107.755 731.049C109.258 731.049 110.111 732.727 110.111 735.601V735.619C110.111 738.484 109.258 740.18 107.755 740.18ZM123.802 742.281C126.966 742.281 128.917 740.69 128.917 738.177V738.168C128.917 736.19 127.748 735.118 125.068 734.564L123.723 734.292C122.229 733.984 121.614 733.492 121.614 732.666V732.657C121.614 731.708 122.484 731.11 123.793 731.101C125.129 731.101 126.008 731.734 126.158 732.639L126.175 732.745H128.671L128.662 732.631C128.495 730.512 126.755 728.948 123.793 728.948C120.981 728.948 118.959 730.504 118.959 732.859V732.868C118.959 734.793 120.093 736.023 122.73 736.559L124.066 736.832C125.639 737.157 126.263 737.623 126.263 738.458V738.467C126.263 739.442 125.287 740.119 123.872 740.119C122.387 740.119 121.359 739.477 121.262 738.528L121.253 738.44H118.696L118.704 738.581C118.854 740.831 120.77 742.281 123.802 742.281ZM133.961 742.158C135.341 742.158 136.326 741.516 136.765 740.462H136.923V741.956H139.49V732.279H136.923V737.869C136.923 739.178 136.238 740.031 134.972 740.031C133.759 740.031 133.241 739.319 133.241 737.948V732.279H130.674V738.537C130.674 740.84 131.79 742.158 133.961 742.158ZM141.651 745.164H144.217V740.409H144.376C144.868 741.464 145.949 742.105 147.276 742.105C149.728 742.105 151.205 740.233 151.205 737.122V737.104C151.205 734.019 149.693 732.121 147.276 732.121C145.905 732.121 144.876 732.736 144.376 733.773H144.217V732.279H141.651V745.164ZM146.397 739.978C145.052 739.978 144.191 738.897 144.191 737.122V737.104C144.191 735.329 145.043 734.248 146.397 734.248C147.759 734.248 148.594 735.329 148.594 737.104V737.122C148.594 738.897 147.751 739.978 146.397 739.978ZM152.891 745.164H155.458V740.409H155.616C156.108 741.464 157.189 742.105 158.516 742.105C160.968 742.105 162.445 740.233 162.445 737.122V737.104C162.445 734.019 160.933 732.121 158.516 732.121C157.145 732.121 156.117 732.736 155.616 733.773H155.458V732.279H152.891V745.164ZM157.637 739.978C156.293 739.978 155.431 738.897 155.431 737.122V737.104C155.431 735.329 156.284 734.248 157.637 734.248C159 734.248 159.835 735.329 159.835 737.104V737.122C159.835 738.897 158.991 739.978 157.637 739.978ZM168.429 742.158C171.409 742.158 173.202 740.277 173.202 737.122V737.104C173.202 733.975 171.382 732.068 168.429 732.068C165.476 732.068 163.657 733.984 163.657 737.104V737.122C163.657 740.268 165.45 742.158 168.429 742.158ZM168.429 740.145C167.058 740.145 166.285 739.029 166.285 737.122V737.104C166.285 735.215 167.067 734.081 168.429 734.081C169.783 734.081 170.574 735.215 170.574 737.104V737.122C170.574 739.029 169.792 740.145 168.429 740.145ZM174.88 741.956H177.446V736.542C177.446 735.171 178.369 734.336 179.828 734.336C180.223 734.336 180.619 734.397 181.006 734.485V732.244C180.751 732.174 180.39 732.121 180.048 732.121C178.791 732.121 177.912 732.736 177.604 733.782H177.446V732.279H174.88V741.956ZM186.551 741.991C187.043 741.991 187.517 741.938 187.834 741.877V739.97C187.588 739.996 187.412 740.013 187.078 740.013C186.208 740.013 185.839 739.627 185.839 738.757V734.213H187.834V732.279H185.839V729.968H183.246V732.279H181.752V734.213H183.246V739.345C183.246 741.226 184.195 741.991 186.551 741.991ZM193.739 742.158C196.569 742.158 197.817 740.523 198.116 739.31L198.134 739.222H195.743L195.717 739.275C195.541 739.644 194.917 740.242 193.792 740.242C192.43 740.242 191.577 739.319 191.551 737.728H198.213V736.928C198.213 734.002 196.455 732.068 193.634 732.068C190.812 732.068 189.011 734.046 189.011 737.122V737.131C189.011 740.233 190.795 742.158 193.739 742.158ZM193.678 733.993C194.794 733.993 195.594 734.714 195.752 736.12H191.577C191.735 734.749 192.561 733.993 193.678 733.993ZM199.899 741.956H202.466V736.542C202.466 735.171 203.389 734.336 204.848 734.336C205.243 734.336 205.639 734.397 206.025 734.485V732.244C205.77 732.174 205.41 732.121 205.067 732.121C203.81 732.121 202.932 732.736 202.624 733.782H202.466V732.279H199.899V741.956ZM210.946 742.158C213.425 742.158 215.191 740.91 215.191 738.994V738.985C215.191 737.553 214.286 736.744 212.352 736.331L210.744 735.988C209.742 735.768 209.382 735.47 209.382 734.951V734.942C209.382 734.292 210.015 733.879 210.902 733.879C211.86 733.879 212.432 734.362 212.572 734.881L212.581 734.925H214.963V734.889C214.857 733.334 213.451 732.068 210.911 732.068C208.494 732.068 206.877 733.281 206.877 735.1V735.109C206.877 736.559 207.791 737.465 209.637 737.86L211.254 738.203C212.238 738.423 212.625 738.748 212.625 739.266V739.284C212.625 739.926 211.957 740.347 210.973 740.347C209.962 740.347 209.373 739.917 209.171 739.319L209.153 739.284H206.631L206.64 739.319C206.824 740.98 208.318 742.158 210.946 742.158Z" fill="#030303"/>
<path d="M225.617 741.956H227.094V732.27H227.19L231.198 741.956H232.534L236.542 732.27H236.639V741.956H238.115V729.273H236.278L231.937 739.855H231.796L227.454 729.273H225.617V741.956ZM241.551 730.653C242.131 730.653 242.606 730.178 242.606 729.598C242.606 729.018 242.131 728.544 241.551 728.544C240.971 728.544 240.496 729.018 240.496 729.598C240.496 730.178 240.971 730.653 241.551 730.653ZM240.777 741.956H242.307V732.481H240.777V741.956ZM244.776 741.956H246.305V736.348C246.305 734.687 247.263 733.668 248.775 733.668C250.286 733.668 250.989 734.485 250.989 736.19V741.956H252.519V735.821C252.519 733.571 251.332 732.314 249.205 732.314C247.808 732.314 246.92 732.903 246.445 733.905H246.305V732.481H244.776V741.956ZM262.721 745.12H264.004C262.73 743.494 261.781 739.996 261.781 736.92C261.781 733.87 262.73 730.345 264.004 728.72H262.721C260.998 730.996 260.225 733.659 260.225 736.92C260.225 740.189 261.007 742.844 262.721 745.12ZM265.972 741.956H274.181V740.532H268.169V740.391L271.052 737.412C273.346 735.048 273.97 733.993 273.97 732.543V732.525C273.97 730.477 272.274 728.974 270.059 728.974C267.633 728.974 265.893 730.592 265.884 732.842L265.902 732.85L267.413 732.859L267.422 732.842C267.422 731.347 268.433 730.354 269.953 730.354C271.448 730.354 272.353 731.356 272.353 732.692V732.71C272.353 733.817 271.878 734.476 270.261 736.225L265.972 740.866V741.956ZM277.414 742.044C278.047 742.044 278.557 741.525 278.557 740.901C278.557 740.268 278.047 739.759 277.414 739.759C276.79 739.759 276.272 740.268 276.272 740.901C276.272 741.525 276.79 742.044 277.414 742.044ZM284.875 742.167C287.415 742.167 289.279 740.602 289.279 738.484V738.467C289.279 736.665 288.022 735.513 286.176 735.355V735.32C287.758 734.986 288.866 733.914 288.866 732.349V732.332C288.866 730.407 287.275 729.062 284.858 729.062C282.485 729.062 280.85 730.442 280.648 732.508L280.639 732.595H282.16L282.168 732.508C282.3 731.224 283.364 730.433 284.858 730.433C286.405 730.433 287.275 731.198 287.275 732.525V732.543C287.275 733.808 286.22 734.74 284.708 734.74H283.188V736.076H284.779C286.554 736.076 287.67 736.946 287.67 738.502V738.519C287.67 739.864 286.537 740.796 284.875 740.796C283.188 740.796 282.037 739.934 281.914 738.686L281.905 738.598H280.384L280.393 738.704C280.56 740.708 282.256 742.167 284.875 742.167ZM295.676 742.255C298.48 742.255 300.167 739.697 300.167 735.619V735.601C300.167 731.523 298.48 728.974 295.676 728.974C292.873 728.974 291.203 731.523 291.203 735.601V735.619C291.203 739.697 292.873 742.255 295.676 742.255ZM295.676 740.875C293.857 740.875 292.793 738.853 292.793 735.619V735.601C292.793 732.367 293.857 730.363 295.676 730.363C297.496 730.363 298.577 732.367 298.577 735.601V735.619C298.577 738.853 297.496 740.875 295.676 740.875ZM306.6 742.255C309.404 742.255 311.091 739.697 311.091 735.619V735.601C311.091 731.523 309.404 728.974 306.6 728.974C303.796 728.974 302.127 731.523 302.127 735.601V735.619C302.127 739.697 303.796 742.255 306.6 742.255ZM306.6 740.875C304.781 740.875 303.717 738.853 303.717 735.619V735.601C303.717 732.367 304.781 730.363 306.6 730.363C308.42 730.363 309.501 732.367 309.501 735.601V735.619C309.501 738.853 308.42 740.875 306.6 740.875ZM314.114 745.12C315.828 742.844 316.61 740.189 316.61 736.92C316.61 733.659 315.837 730.996 314.114 728.72H312.831C314.105 730.345 315.054 733.87 315.054 736.92C315.054 739.996 314.105 743.494 312.831 745.12H314.114Z" fill="#4F4F4F"/>
<path d="M363 382L362.013 381.129C359.295 378.672 357.114 376.531 355.468 374.705C353.823 372.88 353 371.029 353 369.154C353 367.693 353.502 366.469 354.506 365.481C355.511 364.494 356.755 364 358.241 364C359.084 364 359.924 364.203 360.759 364.61C361.595 365.017 362.342 365.685 363 366.614C363.759 365.685 364.527 365.017 365.304 364.61C366.08 364.203 366.899 364 367.759 364C369.245 364 370.489 364.494 371.494 365.481C372.498 366.469 373 367.693 373 369.154C373 371.029 372.177 372.88 370.532 374.705C368.886 376.531 366.705 378.672 363.987 381.129L363 382ZM363 380.133C365.549 377.826 367.612 375.822 369.19 374.12C370.768 372.419 371.557 370.772 371.557 369.178C371.557 368.083 371.198 367.183 370.481 366.477C369.764 365.772 368.865 365.419 367.785 365.419C366.941 365.419 366.148 365.676 365.405 366.191C364.662 366.705 364.055 367.452 363.582 368.432H362.418C361.945 367.452 361.333 366.705 360.582 366.191C359.831 365.676 359.042 365.419 358.215 365.419C357.118 365.419 356.219 365.772 355.519 366.477C354.819 367.183 354.468 368.083 354.468 369.178C354.468 370.772 355.253 372.419 356.823 374.12C358.392 375.822 360.451 377.826 363 380.133Z" fill="#4F4F4F"/>
<g filter="url(#filter7_i_356_14738)">
<rect width="390" height="64" transform="translate(0 773.912)" fill="#F51E5F"/>
<path d="M150.938 811.912H152.344V807.451H155.117L157.531 811.912H159.18L156.57 807.232C157.984 806.787 158.836 805.568 158.836 804.005V803.99C158.836 801.966 157.414 800.638 155.242 800.638H150.938V811.912ZM152.344 806.201V801.888H155.055C156.508 801.888 157.383 802.693 157.383 804.037V804.052C157.383 805.427 156.562 806.201 155.117 806.201H152.344ZM161.023 811.912H168.007V810.646H162.429V806.771H167.718V805.521H162.429V801.904H168.007V800.638H161.023V811.912ZM169.287 811.912H170.764L171.897 808.685H176.381L177.514 811.912H178.991L174.834 800.638H173.444L169.287 811.912ZM174.076 802.459H174.201L175.967 807.49H172.311L174.076 802.459ZM180.599 811.912H184.466C187.818 811.912 189.787 809.826 189.787 806.279V806.263C189.787 802.724 187.81 800.638 184.466 800.638H180.599V811.912ZM182.005 810.646V801.904H184.373C186.873 801.904 188.349 803.529 188.349 806.279V806.294C188.349 809.037 186.888 810.646 184.373 810.646H182.005ZM195.988 811.912H197.301V803.302H197.387L200.949 811.912H202.137L205.699 803.302H205.785V811.912H207.097V800.638H205.465L201.605 810.044H201.48L197.621 800.638H195.988V811.912ZM214.339 812.177C217.558 812.177 219.511 809.873 219.511 806.279V806.263C219.511 802.654 217.542 800.373 214.339 800.373C211.151 800.373 209.167 802.646 209.167 806.263V806.279C209.167 809.88 211.104 812.177 214.339 812.177ZM214.339 810.88C211.995 810.88 210.604 809.068 210.604 806.279V806.263C210.604 803.451 212.042 801.669 214.339 801.669C216.644 801.669 218.073 803.451 218.073 806.263V806.279C218.073 809.068 216.651 810.88 214.339 810.88ZM221.58 811.912H222.987V807.451H225.76L228.174 811.912H229.822L227.213 807.232C228.627 806.787 229.479 805.568 229.479 804.005V803.99C229.479 801.966 228.057 800.638 225.885 800.638H221.58V811.912ZM222.987 806.201V801.888H225.697C227.151 801.888 228.026 802.693 228.026 804.037V804.052C228.026 805.427 227.205 806.201 225.76 806.201H222.987ZM231.665 811.912H238.65V810.646H233.072V806.771H238.361V805.521H233.072V801.904H238.65V800.638H231.665V811.912Z" fill="#FDFDFD"/>
</g>
<rect width="390" height="34" transform="translate(0 810)" fill="#2A2623"/>
<rect x="128" y="831" width="134" height="5" rx="2.5" fill="white"/>
<rect width="390" height="54" transform="translate(0 756)" fill="#2A2623"/>
<path d="M26.3334 772V788H34.1V778.5H39.8667V788H47.6667V780V772L37.0667 764L26.3334 772Z" fill="#FDFDFD"/>
<path d="M24.3714 804H25.2503V800.792H29.1175V804H29.9964V796.954H29.1175V800.001H25.2503V796.954H24.3714V804ZM33.6189 804.093C35.1179 804.093 36.0457 803.058 36.0457 801.373V801.363C36.0457 799.674 35.1179 798.644 33.6189 798.644C32.1199 798.644 31.1921 799.674 31.1921 801.363V801.373C31.1921 803.058 32.1199 804.093 33.6189 804.093ZM33.6189 803.341C32.6228 803.341 32.0613 802.613 32.0613 801.373V801.363C32.0613 800.118 32.6228 799.396 33.6189 799.396C34.615 799.396 35.1765 800.118 35.1765 801.363V801.373C35.1765 802.613 34.615 803.341 33.6189 803.341ZM37.134 804H37.9836V800.738C37.9836 799.996 38.5061 799.396 39.1946 799.396C39.8586 799.396 40.2883 799.801 40.2883 800.426V804H41.1379V800.616C41.1379 799.947 41.6213 799.396 42.3538 799.396C43.0959 799.396 43.4524 799.781 43.4524 800.558V804H44.302V800.362C44.302 799.259 43.7014 798.644 42.6272 798.644C41.8996 798.644 41.2991 799.01 41.0159 799.566H40.9377C40.6936 799.02 40.1955 798.644 39.4827 798.644C38.7942 798.644 38.2961 798.971 38.0618 799.537H37.9836V798.736H37.134V804ZM47.7536 804.093C48.9939 804.093 49.7458 803.39 49.9265 802.677L49.9362 802.638H49.0866L49.0671 802.682C48.9255 802.999 48.4861 803.336 47.7732 803.336C46.8357 803.336 46.2351 802.701 46.2107 801.612H49.9997V801.28C49.9997 799.708 49.1306 798.644 47.6999 798.644C46.2693 798.644 45.3415 799.757 45.3415 801.383V801.388C45.3415 803.038 46.2497 804.093 47.7536 804.093ZM47.695 799.4C48.4714 799.4 49.0476 799.894 49.1355 800.934H46.2253C46.3181 799.933 46.9138 799.4 47.695 799.4Z" fill="#FDFDFD"/>
<path d="M107 788C106.52 788 106.1 787.82 105.74 787.46C105.38 787.1 105.2 786.68 105.2 786.2V767.6C105.2 767.12 105.38 766.7 105.74 766.34C106.1 765.98 106.52 765.8 107 765.8H108.95V764H110.9V765.8H121.1V764H123.05V765.8H125C125.48 765.8 125.9 765.98 126.26 766.34C126.62 766.7 126.8 767.12 126.8 767.6V786.2C126.8 786.68 126.62 787.1 126.26 787.46C125.9 787.82 125.48 788 125 788H107ZM107 786.2H125V773.3H107V786.2ZM107 771.5H125V767.6H107V771.5ZM107 771.5V767.6V771.5Z" fill="#FDFDFD"/>
<path d="M99.4271 804.166C100.926 804.166 102.039 803.331 102.274 802.042V802.032H101.385L101.375 802.042C101.156 802.853 100.409 803.355 99.4271 803.355C98.0696 803.355 97.22 802.247 97.22 800.484V800.475C97.22 798.712 98.0696 797.599 99.4222 797.599C100.394 797.599 101.146 798.17 101.38 799.073L101.385 799.083H102.269L102.274 799.073C102.064 797.721 100.907 796.788 99.4222 796.788C97.5081 796.788 96.3167 798.204 96.3167 800.475V800.484C96.3167 802.75 97.513 804.166 99.4271 804.166ZM104.856 804.093C105.564 804.093 106.116 803.785 106.448 803.224H106.526V804H107.376V800.396C107.376 799.303 106.658 798.644 105.374 798.644C104.251 798.644 103.45 799.2 103.313 800.025L103.308 800.055H104.158L104.163 800.04C104.3 799.63 104.715 799.396 105.345 799.396C106.131 799.396 106.526 799.747 106.526 800.396V800.875L105.017 800.968C103.792 801.041 103.098 801.583 103.098 802.521V802.53C103.098 803.487 103.855 804.093 104.856 804.093ZM103.968 802.511V802.501C103.968 801.979 104.319 801.695 105.12 801.646L106.526 801.559V802.037C106.526 802.789 105.896 803.355 105.032 803.355C104.422 803.355 103.968 803.043 103.968 802.511ZM108.747 804H109.597V796.646H108.747V804ZM113.146 804.093C114.386 804.093 115.138 803.39 115.319 802.677L115.329 802.638H114.479L114.46 802.682C114.318 802.999 113.879 803.336 113.166 803.336C112.228 803.336 111.628 802.701 111.603 801.612H115.392V801.28C115.392 799.708 114.523 798.644 113.093 798.644C111.662 798.644 110.734 799.757 110.734 801.383V801.388C110.734 803.038 111.642 804.093 113.146 804.093ZM113.088 799.4C113.864 799.4 114.44 799.894 114.528 800.934H111.618C111.711 799.933 112.306 799.4 113.088 799.4ZM116.481 804H117.33V800.885C117.33 799.962 117.863 799.396 118.702 799.396C119.542 799.396 119.933 799.85 119.933 800.797V804H120.782V800.592C120.782 799.342 120.123 798.644 118.942 798.644C118.165 798.644 117.672 798.971 117.408 799.527H117.33V798.736H116.481V804ZM124.034 804.093C124.766 804.093 125.352 803.746 125.675 803.16H125.753V804H126.602V796.646H125.753V799.566H125.675C125.386 799.005 124.757 798.644 124.034 798.644C122.696 798.644 121.827 799.713 121.827 801.363V801.373C121.827 803.014 122.701 804.093 124.034 804.093ZM124.229 803.341C123.267 803.341 122.696 802.599 122.696 801.373V801.363C122.696 800.138 123.267 799.396 124.229 799.396C125.186 799.396 125.772 800.147 125.772 801.363V801.373C125.772 802.589 125.186 803.341 124.229 803.341ZM129.448 804.093C130.156 804.093 130.708 803.785 131.04 803.224H131.118V804H131.968V800.396C131.968 799.303 131.25 798.644 129.966 798.644C128.843 798.644 128.042 799.2 127.905 800.025L127.901 800.055H128.75L128.755 800.04C128.892 799.63 129.307 799.396 129.937 799.396C130.723 799.396 131.118 799.747 131.118 800.396V800.875L129.61 800.968C128.384 801.041 127.691 801.583 127.691 802.521V802.53C127.691 803.487 128.447 804.093 129.448 804.093ZM128.56 802.511V802.501C128.56 801.979 128.911 801.695 129.712 801.646L131.118 801.559V802.037C131.118 802.789 130.488 803.355 129.624 803.355C129.014 803.355 128.56 803.043 128.56 802.511ZM133.291 804H134.14V800.738C134.14 799.967 134.716 799.454 135.527 799.454C135.713 799.454 135.874 799.474 136.049 799.503V798.678C135.966 798.663 135.786 798.644 135.625 798.644C134.912 798.644 134.419 798.966 134.218 799.518H134.14V798.736H133.291V804Z" fill="#FDFDFD"/>
<path d="M195.855 775.658H201.158V776.547H195.855H195.513V776.889V782.158H194.658V776.889V776.547H194.316H188.842V775.658H194.316H194.658V775.316V769.842H195.513V775.316V775.658H195.855Z" fill="#FDFDFD" stroke="#FDFDFD" stroke-width="0.684211"/>
<rect x="184.25" y="765.25" width="21.5" height="21.5" stroke="#FDFDFD" stroke-width="1.5"/>
<path d="M183.651 803.666C185.15 803.666 186.263 802.831 186.498 801.542V801.532H185.609L185.599 801.542C185.38 802.353 184.633 802.855 183.651 802.855C182.294 802.855 181.444 801.747 181.444 799.984V799.975C181.444 798.212 182.294 797.099 183.646 797.099C184.618 797.099 185.37 797.67 185.604 798.573L185.609 798.583H186.493L186.498 798.573C186.288 797.221 185.131 796.288 183.646 796.288C181.732 796.288 180.541 797.704 180.541 799.975V799.984C180.541 802.25 181.737 803.666 183.651 803.666ZM187.635 803.5H188.485V800.238C188.485 799.467 189.061 798.954 189.871 798.954C190.057 798.954 190.218 798.974 190.394 799.003V798.178C190.311 798.163 190.13 798.144 189.969 798.144C189.256 798.144 188.763 798.466 188.563 799.018H188.485V798.236H187.635V803.5ZM193.216 803.593C194.456 803.593 195.208 802.89 195.388 802.177L195.398 802.138H194.549L194.529 802.182C194.387 802.499 193.948 802.836 193.235 802.836C192.298 802.836 191.697 802.201 191.673 801.112H195.462V800.78C195.462 799.208 194.593 798.144 193.162 798.144C191.731 798.144 190.803 799.257 190.803 800.883V800.888C190.803 802.538 191.712 803.593 193.216 803.593ZM193.157 798.9C193.933 798.9 194.51 799.394 194.597 800.434H191.687C191.78 799.433 192.376 798.9 193.157 798.9ZM197.995 803.593C198.703 803.593 199.255 803.285 199.587 802.724H199.665V803.5H200.515V799.896C200.515 798.803 199.797 798.144 198.513 798.144C197.39 798.144 196.589 798.7 196.452 799.525L196.448 799.555H197.297L197.302 799.54C197.439 799.13 197.854 798.896 198.484 798.896C199.27 798.896 199.665 799.247 199.665 799.896V800.375L198.156 800.468C196.931 800.541 196.238 801.083 196.238 802.021V802.03C196.238 802.987 196.994 803.593 197.995 803.593ZM197.107 802.011V802.001C197.107 801.479 197.458 801.195 198.259 801.146L199.665 801.059V801.537C199.665 802.289 199.035 802.855 198.171 802.855C197.561 802.855 197.107 802.543 197.107 802.011ZM203.708 803.539C203.874 803.539 204.035 803.52 204.201 803.49V802.768C204.045 802.782 203.962 802.787 203.81 802.787C203.263 802.787 203.049 802.538 203.049 801.918V798.939H204.201V798.236H203.049V796.874H202.17V798.236H201.34V798.939H202.17V802.133C202.17 803.139 202.624 803.539 203.708 803.539ZM207.311 803.593C208.551 803.593 209.303 802.89 209.484 802.177L209.493 802.138H208.644L208.624 802.182C208.483 802.499 208.043 802.836 207.33 802.836C206.393 802.836 205.792 802.201 205.768 801.112H209.557V800.78C209.557 799.208 208.688 798.144 207.257 798.144C205.826 798.144 204.899 799.257 204.899 800.883V800.888C204.899 802.538 205.807 803.593 207.311 803.593ZM207.252 798.9C208.029 798.9 208.605 799.394 208.693 800.434H205.782C205.875 799.433 206.471 798.9 207.252 798.9Z" fill="#FDFDFD"/>
<path d="M272.5 788L271.184 786.838C267.561 783.563 264.652 780.708 262.458 778.274C260.264 775.84 259.167 773.372 259.167 770.871C259.167 768.924 259.836 767.292 261.175 765.975C262.514 764.658 264.174 764 266.154 764C267.279 764 268.399 764.271 269.513 764.813C270.627 765.355 271.622 766.246 272.5 767.485C273.513 766.246 274.537 765.355 275.572 764.813C276.607 764.271 277.698 764 278.846 764C280.826 764 282.486 764.658 283.825 765.975C285.164 767.292 285.833 768.924 285.833 770.871C285.833 773.372 284.736 775.84 282.542 778.274C280.348 780.708 277.44 783.563 273.817 786.838L272.5 788ZM272.5 785.51C275.898 782.434 278.649 779.762 280.753 777.494C282.857 775.225 283.909 773.029 283.909 770.905C283.909 769.444 283.431 768.243 282.475 767.303C281.518 766.362 280.32 765.892 278.88 765.892C277.755 765.892 276.697 766.235 275.707 766.921C274.717 767.607 273.907 768.603 273.276 769.909H271.724C271.094 768.603 270.278 767.607 269.276 766.921C268.275 766.235 267.223 765.892 266.12 765.892C264.658 765.892 263.459 766.362 262.525 767.303C261.592 768.243 261.125 769.444 261.125 770.905C261.125 773.029 262.171 775.225 264.264 777.494C266.357 779.762 269.102 782.434 272.5 785.51Z" fill="#FDFDFD"/>
<path d="M253.01 804H253.889V800.948H257.009V800.167H253.889V797.745H257.287V796.954H253.01V804ZM259.499 804.093C260.207 804.093 260.758 803.785 261.09 803.224H261.169V804H262.018V800.396C262.018 799.303 261.3 798.644 260.016 798.644C258.893 798.644 258.092 799.2 257.956 800.025L257.951 800.055H258.8L258.805 800.04C258.942 799.63 259.357 799.396 259.987 799.396C260.773 799.396 261.169 799.747 261.169 800.396V800.875L259.66 800.968C258.434 801.041 257.741 801.583 257.741 802.521V802.53C257.741 803.487 258.498 804.093 259.499 804.093ZM258.61 802.511V802.501C258.61 801.979 258.961 801.695 259.762 801.646L261.169 801.559V802.037C261.169 802.789 260.539 803.355 259.674 803.355C259.064 803.355 258.61 803.043 258.61 802.511ZM264.635 804H265.494L267.442 798.736H266.544L265.104 803.072H265.025L263.585 798.736H262.687L264.635 804ZM270.303 804.093C271.802 804.093 272.73 803.058 272.73 801.373V801.363C272.73 799.674 271.802 798.644 270.303 798.644C268.804 798.644 267.876 799.674 267.876 801.363V801.373C267.876 803.058 268.804 804.093 270.303 804.093ZM270.303 803.341C269.307 803.341 268.746 802.613 268.746 801.373V801.363C268.746 800.118 269.307 799.396 270.303 799.396C271.299 799.396 271.861 800.118 271.861 801.363V801.373C271.861 802.613 271.299 803.341 270.303 803.341ZM273.818 804H274.668V800.738C274.668 799.967 275.244 799.454 276.055 799.454C276.24 799.454 276.401 799.474 276.577 799.503V798.678C276.494 798.663 276.313 798.644 276.152 798.644C275.439 798.644 274.946 798.966 274.746 799.518H274.668V798.736H273.818V804ZM277.846 797.721C278.168 797.721 278.432 797.457 278.432 797.135C278.432 796.812 278.168 796.549 277.846 796.549C277.524 796.549 277.26 796.812 277.26 797.135C277.26 797.457 277.524 797.721 277.846 797.721ZM277.416 804H278.266V798.736H277.416V804ZM281.508 804.039C281.674 804.039 281.835 804.02 282.001 803.99V803.268C281.845 803.282 281.762 803.287 281.61 803.287C281.063 803.287 280.849 803.038 280.849 802.418V799.439H282.001V798.736H280.849V797.374H279.97V798.736H279.14V799.439H279.97V802.633C279.97 803.639 280.424 804.039 281.508 804.039ZM285.111 804.093C286.351 804.093 287.103 803.39 287.284 802.677L287.293 802.638H286.444L286.424 802.682C286.283 802.999 285.843 803.336 285.13 803.336C284.193 803.336 283.592 802.701 283.568 801.612H287.357V801.28C287.357 799.708 286.488 798.644 285.057 798.644C283.626 798.644 282.699 799.757 282.699 801.383V801.388C282.699 803.038 283.607 804.093 285.111 804.093ZM285.052 799.4C285.829 799.4 286.405 799.894 286.493 800.934H283.582C283.675 799.933 284.271 799.4 285.052 799.4ZM290.252 804.093C291.448 804.093 292.361 803.443 292.361 802.506V802.496C292.361 801.744 291.883 801.314 290.892 801.075L290.081 800.88C289.461 800.729 289.197 800.504 289.197 800.147V800.138C289.197 799.674 289.656 799.352 290.281 799.352C290.916 799.352 291.326 799.64 291.438 800.055H292.273C292.156 799.195 291.39 798.644 290.286 798.644C289.168 798.644 288.328 799.303 288.328 800.177V800.182C288.328 800.938 288.772 801.368 289.759 801.603L290.574 801.798C291.224 801.954 291.492 802.203 291.492 802.56V802.569C291.492 803.048 290.989 803.385 290.281 803.385C289.607 803.385 289.187 803.097 289.046 802.657H288.177C288.274 803.526 289.08 804.093 290.252 804.093Z" fill="#FDFDFD"/>
<path d="M343.88 789C343.88 780.75 350.213 780 353.028 780C355.843 780 362.88 780.75 362.88 789" stroke="#FDFDFD" stroke-width="1.4"/>
<circle cx="352.88" cy="771" r="6.3" stroke="#FDFDFD" stroke-width="1.4"/>
<path d="M331.437 804H332.258V798.619H332.311L334.538 804H335.28L337.507 798.619H337.56V804H338.381V796.954H337.36L334.948 802.833H334.87L332.458 796.954H331.437V804ZM340.289 805.846C341.222 805.846 341.657 805.504 342.091 804.322L344.147 798.736H343.253L341.813 803.067H341.735L340.289 798.736H339.381L341.329 804.005L341.232 804.317C341.041 804.923 340.748 805.143 340.265 805.143C340.148 805.143 340.016 805.138 339.913 805.118V805.816C340.031 805.836 340.177 805.846 340.289 805.846ZM347.622 805.758H348.472V803.17H348.55C348.838 803.731 349.468 804.093 350.191 804.093C351.529 804.093 352.398 803.023 352.398 801.373V801.363C352.398 799.723 351.524 798.644 350.191 798.644C349.458 798.644 348.872 798.99 348.55 799.576H348.472V798.736H347.622V805.758ZM349.995 803.341C349.038 803.341 348.452 802.589 348.452 801.373V801.363C348.452 800.147 349.038 799.396 349.995 799.396C350.957 799.396 351.529 800.138 351.529 801.363V801.373C351.529 802.599 350.957 803.341 349.995 803.341ZM353.496 804H354.345V800.738C354.345 799.967 354.922 799.454 355.732 799.454C355.918 799.454 356.079 799.474 356.255 799.503V798.678C356.172 798.663 355.991 798.644 355.83 798.644C355.117 798.644 354.624 798.966 354.424 799.518H354.345V798.736H353.496V804ZM359.091 804.093C360.59 804.093 361.518 803.058 361.518 801.373V801.363C361.518 799.674 360.59 798.644 359.091 798.644C357.592 798.644 356.664 799.674 356.664 801.363V801.373C356.664 803.058 357.592 804.093 359.091 804.093ZM359.091 803.341C358.095 803.341 357.533 802.613 357.533 801.373V801.363C357.533 800.118 358.095 799.396 359.091 799.396C360.087 799.396 360.649 800.118 360.649 801.363V801.373C360.649 802.613 360.087 803.341 359.091 803.341ZM362.958 804H363.807V799.439H365.004V798.736H363.807V798.175C363.807 797.599 364.051 797.301 364.657 797.301C364.808 797.301 364.95 797.306 365.052 797.325V796.646C364.877 796.612 364.691 796.598 364.486 796.598C363.485 796.598 362.958 797.101 362.958 798.15V798.736H362.084V799.439H362.958V804ZM366.448 797.721C366.771 797.721 367.034 797.457 367.034 797.135C367.034 796.812 366.771 796.549 366.448 796.549C366.126 796.549 365.862 796.812 365.862 797.135C365.862 797.457 366.126 797.721 366.448 797.721ZM366.019 804H366.868V798.736H366.019V804ZM368.289 804H369.138V796.646H368.289V804ZM372.688 804.093C373.928 804.093 374.68 803.39 374.861 802.677L374.87 802.638H374.021L374.001 802.682C373.86 802.999 373.42 803.336 372.707 803.336C371.77 803.336 371.169 802.701 371.145 801.612H374.934V801.28C374.934 799.708 374.065 798.644 372.634 798.644C371.203 798.644 370.276 799.757 370.276 801.383V801.388C370.276 803.038 371.184 804.093 372.688 804.093ZM372.629 799.4C373.405 799.4 373.982 799.894 374.069 800.934H371.159C371.252 799.933 371.848 799.4 372.629 799.4Z" fill="#FDFDFD"/>
<rect width="390" height="47" fill="#FDFDFD"/>
<g clip-path="url(#clip1_356_14738)">
<path d="M118.26 -1H271.692V14C271.692 23.3888 264.129 31 254.8 31H135.152C125.823 31 118.26 23.3888 118.26 14V-1Z" fill="black"/>
<path d="M118.49 -1L117 -2C119.634 -2 118.291 1.14875 118.291 3.79934C118.291 3.86656 118.29 3.93345 118.287 4H118.49V-1Z" fill="black"/>
<path d="M271.51 -1L273 -2C270.366 -2 271.709 1.14875 271.709 3.79934C271.709 3.86656 271.71 3.93345 271.713 4H271.51V-1Z" fill="black"/>
<path d="M42.883 19.8145C40.2184 19.8145 38.2678 21.5493 38.2678 23.998V24.0146C38.2678 26.2642 39.8532 27.8994 42.1691 27.8994C43.7878 27.8994 44.9665 27.0859 45.4396 25.9736H45.4811C45.4894 26.1064 45.4811 26.2725 45.4728 26.4302C45.3815 28.5469 44.6179 30.2153 42.8664 30.2153C41.8869 30.2153 41.2228 29.7256 40.924 29.0034L40.8991 28.937H38.4255L38.4421 29.0117C38.799 30.8628 40.5422 32.2075 42.8581 32.2075C45.9792 32.2075 47.8801 29.8418 47.8801 25.9155V25.8989C47.8801 21.8398 45.7717 19.8145 42.883 19.8145ZM42.8913 26.0483C41.6462 26.0483 40.7082 25.1768 40.7082 23.9316V23.915C40.7082 22.728 41.696 21.8066 42.9162 21.8066C44.1447 21.8066 45.1076 22.7363 45.1076 23.9482V23.9565C45.1076 25.1768 44.1447 26.0483 42.8913 26.0483ZM50.203 24.3965C50.9501 24.3965 51.5477 23.8071 51.5477 23.0518C51.5477 22.3047 50.9501 21.707 50.203 21.707C49.4477 21.707 48.8583 22.3047 48.8583 23.0518C48.8583 23.8071 49.4477 24.3965 50.203 24.3965ZM50.203 30.3066C50.9501 30.3066 51.5477 29.709 51.5477 28.9619C51.5477 28.2065 50.9501 27.6172 50.203 27.6172C49.4477 27.6172 48.8583 28.2065 48.8583 28.9619C48.8583 29.709 49.4477 30.3066 50.203 30.3066ZM58.4029 32H60.7853V29.8003H62.3624V27.7998H60.7853V20.022H57.2491L52.443 27.7085V29.8003H58.4029V32ZM54.6261 27.8662V27.7998L58.3946 21.8315H58.4527V27.8662H54.6261ZM66.2044 32H68.6863V20.022H66.1961L63.0999 22.1719V24.3965L66.1546 22.3213H66.2044V32Z" fill="#030303"/>
<path opacity="0.35" d="M336.5 23C336.5 21.067 338.067 19.5 340 19.5H357C358.933 19.5 360.5 21.067 360.5 23V28C360.5 29.933 358.933 31.5 357 31.5H340C338.067 31.5 336.5 29.933 336.5 28V23Z" stroke="#030303"/>
<path opacity="0.4" d="M362 24V28.2203C362.849 27.8629 363.401 27.0314 363.401 26.1102C363.401 25.1889 362.849 24.3574 362 24Z" fill="#030303"/>
<path d="M338 23C338 21.8954 338.895 21 340 21H357C358.105 21 359 21.8954 359 23V28C359 29.1046 358.105 30 357 30H340C338.895 30 338 29.1046 338 28V23Z" fill="#030303"/>
<path fill-rule="evenodd" clip-rule="evenodd" d="M320.5 22.5875C322.967 22.5876 325.339 23.5551 327.127 25.2898C327.261 25.4237 327.477 25.4221 327.609 25.286L328.896 23.9605C328.963 23.8915 329.001 23.798 329 23.7008C328.999 23.6035 328.961 23.5105 328.893 23.4423C324.201 18.8526 316.799 18.8526 312.107 23.4423C312.039 23.5105 312.001 23.6034 312 23.7007C311.999 23.7979 312.037 23.8914 312.104 23.9605L313.391 25.286C313.523 25.4223 313.739 25.424 313.873 25.2898C315.661 23.5549 318.034 22.5875 320.5 22.5875ZM320.536 26.5894C321.891 26.5893 323.198 27.1035 324.203 28.032C324.338 28.1638 324.552 28.1609 324.685 28.0255L325.97 26.7C326.038 26.6304 326.075 26.5361 326.074 26.4381C326.073 26.3401 326.034 26.2466 325.965 26.1784C322.906 23.2739 318.169 23.2739 315.109 26.1784C315.04 26.2466 315.001 26.3401 315 26.4382C314.999 26.5362 315.037 26.6305 315.105 26.7L316.39 28.0255C316.522 28.1609 316.736 28.1638 316.872 28.032C317.876 27.1041 319.182 26.5899 320.536 26.5894ZM323.15 29.1767C323.152 29.275 323.114 29.3698 323.045 29.4386L320.822 31.7289C320.756 31.7962 320.668 31.834 320.575 31.834C320.482 31.834 320.393 31.7962 320.328 31.7289L318.105 29.4386C318.036 29.3697 317.998 29.2749 318 29.1766C318.002 29.0783 318.044 28.9853 318.115 28.9194C319.535 27.6935 321.615 27.6935 323.035 28.9194C323.106 28.9853 323.148 29.0784 323.15 29.1767Z" fill="#030303"/>
<path d="M296 23C296 22.4477 296.448 22 297 22H298C298.552 22 299 22.4477 299 23V31C299 31.5523 298.552 32 298 32H297C296.448 32 296 31.5523 296 31V23Z" fill="#030303"/>
<path d="M301 21C301 20.4477 301.448 20 302 20H303C303.552 20 304 20.4477 304 21V31C304 31.5523 303.552 32 303 32H302C301.448 32 301 31.5523 301 31V21Z" fill="#030303"/>
<path d="M291 26.5C291 25.9477 291.448 25.5 292 25.5H293C293.552 25.5 294 25.9477 294 26.5V31C294 31.5523 293.552 32 293 32H292C291.448 32 291 31.5523 291 31V26.5Z" fill="#030303"/>
<path d="M286 29C286 28.4477 286.448 28 287 28H288C288.552 28 289 28.4477 289 29V31C289 31.5523 288.552 32 288 32H287C286.448 32 286 31.5523 286 31V29Z" fill="#030303"/>
</g>
<g filter="url(#filter8_d_356_14738)">
<rect x="310" y="676" width="64" height="64" fill="white" shape-rendering="crispEdges"/>
<path d="M339 717V714.75H345V717H339ZM333 709.125V706.875H351V709.125H333ZM328.5 701.25V699H355.5V701.25H328.5Z" fill="#030303"/>
<rect x="310.5" y="676.5" width="63" height="63" stroke="#030303" shape-rendering="crispEdges"/>
</g>
<g filter="url(#filter9_d_356_14738)">
<rect width="390" height="36" transform="translate(0 47)" fill="white"/>
<path d="M164.7 57.7H169.768V54.9H161.62V74.5H164.7V66.408H168.676V63.608H164.7V57.7ZM177.078 54.9H172.57L169.434 74.5H172.262L172.794 70.944H176.574L177.106 74.5H180.214L177.078 54.9ZM174.67 58.372L176.154 68.284H173.186L174.67 58.372ZM188.032 74.5H191.196L186.94 63.608L191.196 54.9H188.368L184.084 63.804V54.9H181.004V74.5H184.084V68.2L185.008 66.576L188.032 74.5ZM191.704 54.9V69.824C191.704 72.96 193.272 74.752 196.296 74.752C199.32 74.752 200.888 72.96 200.888 69.824V54.9H197.976V70.02C197.976 71.42 197.36 71.924 196.38 71.924C195.4 71.924 194.784 71.42 194.784 70.02V54.9H191.704ZM202.356 74.5H210.505V71.7H205.436V54.9H202.356V74.5ZM209.021 57.7H212.241V74.5H215.321V57.7H218.541V54.9H209.021V57.7ZM222.191 74.5H225.271V68.004L229.163 54.9H226.223L223.871 63.832L221.519 54.9H218.299L222.191 68.004V74.5Z" fill="#030303"/>
</g>
</g>
<defs>
<filter id="filter0_f_356_14738" x="-36.5039" y="-76.48" width="708.032" height="702.144" filterUnits="userSpaceOnUse" color-interpolation-filters="sRGB">
<feFlood flood-opacity="0" result="BackgroundImageFix"/>
<feBlend mode="normal" in="SourceGraphic" in2="BackgroundImageFix" result="shape"/>
<feGaussianBlur stdDeviation="92" result="effect1_foregroundBlur_356_14738"/>
</filter>
<filter id="filter1_f_356_14738" x="126.888" y="-12.448" width="381.984" height="369.472" filterUnits="userSpaceOnUse" color-interpolation-filters="sRGB">
<feFlood flood-opacity="0" result="BackgroundImageFix"/>
<feBlend mode="normal" in="SourceGraphic" in2="BackgroundImageFix" result="shape"/>
<feGaussianBlur stdDeviation="46" result="effect1_foregroundBlur_356_14738"/>
</filter>
<filter id="filter2_d_356_14738" x="12" y="176" width="77" height="116" filterUnits="userSpaceOnUse" color-interpolation-filters="sRGB">
<feFlood flood-opacity="0" result="BackgroundImageFix"/>
<feColorMatrix in="SourceAlpha" type="matrix" values="0 0 0 0 0 0 0 0 0 0 0 0 0 0 0 0 0 0 127 0" result="hardAlpha"/>
<feOffset dy="3"/>
<feGaussianBlur stdDeviation="2"/>
<feComposite in2="hardAlpha" operator="out"/>
<feColorMatrix type="matrix" values="0 0 0 0 0 0 0 0 0 0 0 0 0 0 0 0 0 0 0.2 0"/>
<feBlend mode="normal" in2="BackgroundImageFix" result="effect1_dropShadow_356_14738"/>
<feBlend mode="normal" in="SourceGraphic" in2="effect1_dropShadow_356_14738" result="shape"/>
</filter>
<filter id="filter3_d_356_14738" x="99" y="176" width="77" height="116" filterUnits="userSpaceOnUse" color-interpolation-filters="sRGB">
<feFlood flood-opacity="0" result="BackgroundImageFix"/>
<feColorMatrix in="SourceAlpha" type="matrix" values="0 0 0 0 0 0 0 0 0 0 0 0 0 0 0 0 0 0 127 0" result="hardAlpha"/>
<feOffset dy="3"/>
<feGaussianBlur stdDeviation="2"/>
<feComposite in2="hardAlpha" operator="out"/>
<feColorMatrix type="matrix" values="0 0 0 0 0 0 0 0 0 0 0 0 0 0 0 0 0 0 0.2 0"/>
<feBlend mode="normal" in2="BackgroundImageFix" result="effect1_dropShadow_356_14738"/>
<feBlend mode="normal" in="SourceGraphic" in2="effect1_dropShadow_356_14738" result="shape"/>
</filter>
<filter id="filter4_d_356_14738" x="186" y="176" width="82" height="116" filterUnits="userSpaceOnUse" color-interpolation-filters="sRGB">
<feFlood flood-opacity="0" result="BackgroundImageFix"/>
<feColorMatrix in="SourceAlpha" type="matrix" values="0 0 0 0 0 0 0 0 0 0 0 0 0 0 0 0 0 0 127 0" result="hardAlpha"/>
<feOffset dy="3"/>
<feGaussianBlur stdDeviation="2"/>
<feComposite in2="hardAlpha" operator="out"/>
<feColorMatrix type="matrix" values="0 0 0 0 0 0 0 0 0 0 0 0 0 0 0 0 0 0 0.2 0"/>
<feBlend mode="normal" in2="BackgroundImageFix" result="effect1_dropShadow_356_14738"/>
<feBlend mode="normal" in="SourceGraphic" in2="effect1_dropShadow_356_14738" result="shape"/>
</filter>
<filter id="filter5_d_356_14738" x="273" y="176" width="77" height="116" filterUnits="userSpaceOnUse" color-interpolation-filters="sRGB">
<feFlood flood-opacity="0" result="BackgroundImageFix"/>
<feColorMatrix in="SourceAlpha" type="matrix" values="0 0 0 0 0 0 0 0 0 0 0 0 0 0 0 0 0 0 127 0" result="hardAlpha"/>
<feOffset dy="3"/>
<feGaussianBlur stdDeviation="2"/>
<feComposite in2="hardAlpha" operator="out"/>
<feColorMatrix type="matrix" values="0 0 0 0 0 0 0 0 0 0 0 0 0 0 0 0 0 0 0.2 0"/>
<feBlend mode="normal" in2="BackgroundImageFix" result="effect1_dropShadow_356_14738"/>
<feBlend mode="normal" in="SourceGraphic" in2="effect1_dropShadow_356_14738" result="shape"/>
</filter>
<filter id="filter6_d_356_14738" x="360" y="176" width="82" height="116" filterUnits="userSpaceOnUse" color-interpolation-filters="sRGB">
<feFlood flood-opacity="0" result="BackgroundImageFix"/>
<feColorMatrix in="SourceAlpha" type="matrix" values="0 0 0 0 0 0 0 0 0 0 0 0 0 0 0 0 0 0 127 0" result="hardAlpha"/>
<feOffset dy="3"/>
<feGaussianBlur stdDeviation="2"/>
<feComposite in2="hardAlpha" operator="out"/>
<feColorMatrix type="matrix" values="0 0 0 0 0 0 0 0 0 0 0 0 0 0 0 0 0 0 0.2 0"/>
<feBlend mode="normal" in2="BackgroundImageFix" result="effect1_dropShadow_356_14738"/>
<feBlend mode="normal" in="SourceGraphic" in2="effect1_dropShadow_356_14738" result="shape"/>
</filter>
<filter id="filter7_i_356_14738" x="0" y="772.912" width="390" height="65" filterUnits="userSpaceOnUse" color-interpolation-filters="sRGB">
<feFlood flood-opacity="0" result="BackgroundImageFix"/>
<feBlend mode="normal" in="SourceGraphic" in2="BackgroundImageFix" result="shape"/>
<feColorMatrix in="SourceAlpha" type="matrix" values="0 0 0 0 0 0 0 0 0 0 0 0 0 0 0 0 0 0 127 0" result="hardAlpha"/>
<feOffset dy="-1"/>
<feGaussianBlur stdDeviation="0.5"/>
<feComposite in2="hardAlpha" operator="arithmetic" k2="-1" k3="1"/>
<feColorMatrix type="matrix" values="0 0 0 0 1 0 0 0 0 1 0 0 0 0 1 0 0 0 0.2 0"/>
<feBlend mode="normal" in2="shape" result="effect1_innerShadow_356_14738"/>
</filter>
<filter id="filter8_d_356_14738" x="306" y="675" width="72" height="72" filterUnits="userSpaceOnUse" color-interpolation-filters="sRGB">
<feFlood flood-opacity="0" result="BackgroundImageFix"/>
<feColorMatrix in="SourceAlpha" type="matrix" values="0 0 0 0 0 0 0 0 0 0 0 0 0 0 0 0 0 0 127 0" result="hardAlpha"/>
<feOffset dy="3"/>
<feGaussianBlur stdDeviation="2"/>
<feComposite in2="hardAlpha" operator="out"/>
<feColorMatrix type="matrix" values="0 0 0 0 0 0 0 0 0 0 0 0 0 0 0 0 0 0 0.2 0"/>
<feBlend mode="normal" in2="BackgroundImageFix" result="effect1_dropShadow_356_14738"/>
<feBlend mode="normal" in="SourceGraphic" in2="effect1_dropShadow_356_14738" result="shape"/>
</filter>
<filter id="filter9_d_356_14738" x="-4" y="46" width="398" height="44" filterUnits="userSpaceOnUse" color-interpolation-filters="sRGB">
<feFlood flood-opacity="0" result="BackgroundImageFix"/>
<feColorMatrix in="SourceAlpha" type="matrix" values="0 0 0 0 0 0 0 0 0 0 0 0 0 0 0 0 0 0 127 0" result="hardAlpha"/>
<feOffset dy="3"/>
<feGaussianBlur stdDeviation="2"/>
<feComposite in2="hardAlpha" operator="out"/>
<feColorMatrix type="matrix" values="0 0 0 0 0 0 0 0 0 0 0 0 0 0 0 0 0 0 0.2 0"/>
<feBlend mode="normal" in2="BackgroundImageFix" result="effect1_dropShadow_356_14738"/>
<feBlend mode="normal" in="SourceGraphic" in2="effect1_dropShadow_356_14738" result="shape"/>
</filter>
<linearGradient id="paint0_linear_356_14738" x1="317.512" y1="107.52" x2="317.512" y2="441.664" gradientUnits="userSpaceOnUse">
<stop offset="0.015625" stop-color="#44DEFF"/>
<stop offset="1" stop-color="#EEFF6F" stop-opacity="0.39"/>
</linearGradient>
<linearGradient id="paint1_linear_356_14738" x1="317.88" y1="79.552" x2="317.881" y2="438.72" gradientUnits="userSpaceOnUse">
<stop stop-color="#44DEFF"/>
<stop offset="1" stop-color="#FCFF6F" stop-opacity="0"/>
</linearGradient>
<clipPath id="clip0_356_14738">
<rect width="390" height="844" fill="white"/>
</clipPath>
<clipPath id="clip1_356_14738">
<rect width="390" height="47" fill="white"/>
</clipPath>
</defs>
</svg>
