<svg width="390" height="844" viewBox="0 0 390 844" fill="none" xmlns="http://www.w3.org/2000/svg">
<g clip-path="url(#clip0_321_14226)">
<rect width="390" height="844" fill="white"/>
<path d="M25.3333 170.7C25.8972 170.7 26.3785 170.495 26.7771 170.085C27.1757 169.675 27.375 169.18 27.375 168.6C27.375 168.02 27.1757 167.525 26.7771 167.115C26.3785 166.705 25.8972 166.5 25.3333 166.5C24.7694 166.5 24.2882 166.705 23.8896 167.115C23.491 167.525 23.2917 168.02 23.2917 168.6C23.2917 169.18 23.491 169.675 23.8896 170.085C24.2882 170.495 24.7694 170.7 25.3333 170.7ZM25.3333 180.63C27.9194 178.21 29.8299 176.015 31.0646 174.045C32.2993 172.075 32.9167 170.34 32.9167 168.84C32.9167 166.48 32.1826 164.55 30.7146 163.05C29.2465 161.55 27.4528 160.8 25.3333 160.8C23.2139 160.8 21.4201 161.55 19.9521 163.05C18.484 164.55 17.75 166.48 17.75 168.84C17.75 170.34 18.3819 172.075 19.6458 174.045C20.9097 176.015 22.8056 178.21 25.3333 180.63ZM25.3333 183C22.2028 180.26 19.8646 177.715 18.3188 175.365C16.7729 173.015 16 170.84 16 168.84C16 165.84 16.9382 163.45 18.8146 161.67C20.691 159.89 22.8639 159 25.3333 159C27.8028 159 29.9757 159.89 31.8521 161.67C33.7285 163.45 34.6667 165.84 34.6667 168.84C34.6667 170.84 33.8938 173.015 32.3479 175.365C30.8021 177.715 28.4639 180.26 25.3333 183Z" fill="#4F4F4F"/>
<path d="M53.7996 177.266C56.3152 177.266 57.9636 175.953 57.9636 173.844V173.836C57.9636 172.211 57.0339 171.266 54.6824 170.742L53.4324 170.461C51.9011 170.125 51.2839 169.516 51.2839 168.617V168.609C51.2839 167.43 52.3699 166.766 53.7761 166.758C55.2449 166.75 56.1824 167.484 56.3386 168.477L56.3542 168.578H57.7605L57.7527 168.469C57.6355 166.789 56.0652 165.461 53.8152 165.461C51.4871 165.461 49.8542 166.781 49.8464 168.648V168.656C49.8464 170.289 50.823 171.328 53.0808 171.828L54.3308 172.102C55.8777 172.445 56.5261 173.086 56.5261 174.023V174.031C56.5261 175.18 55.4089 175.969 53.8777 175.969C52.2527 175.969 51.0808 175.258 50.9792 174.133L50.9714 174.047H49.5652L49.573 174.133C49.7371 175.969 51.3308 177.266 53.7996 177.266ZM59.9394 177H66.9237V175.734H61.3456V171.859H66.6347V170.609H61.3456V166.992H66.9237V165.727H59.9394V177ZM69.1026 177H75.9464V175.734H70.5089V165.727H69.1026V177ZM77.8284 177H84.8127V175.734H79.2346V171.859H84.5237V170.609H79.2346V166.992H84.8127V165.727H77.8284V177ZM91.5307 177.266C93.9291 177.266 95.7104 175.93 96.0854 173.867V173.852H94.6635L94.6479 173.867C94.2963 175.164 93.101 175.969 91.5307 175.969C89.3588 175.969 87.9994 174.195 87.9994 171.375V171.359C87.9994 168.539 89.3588 166.758 91.5229 166.758C93.0776 166.758 94.2807 167.672 94.6557 169.117L94.6635 169.133H96.0776L96.0854 169.117C95.7494 166.953 93.8979 165.461 91.5229 165.461C88.4604 165.461 86.5541 167.727 86.5541 171.359V171.375C86.5541 175 88.4682 177.266 91.5307 177.266ZM100.616 177H102.022V166.992H105.655V165.727H96.983V166.992H100.616V177ZM111.278 177H119.614V175.734H113.13V175.609L119.481 166.727V165.727H111.497V166.992H117.661V167.117L111.278 176V177ZM126.082 177.266C129.301 177.266 131.254 174.961 131.254 171.367V171.352C131.254 167.742 129.285 165.461 126.082 165.461C122.895 165.461 120.91 167.734 120.91 171.352V171.367C120.91 174.969 122.848 177.266 126.082 177.266ZM126.082 175.969C123.738 175.969 122.348 174.156 122.348 171.367V171.352C122.348 168.539 123.785 166.758 126.082 166.758C128.387 166.758 129.816 168.539 129.816 171.352V171.367C129.816 174.156 128.395 175.969 126.082 175.969ZM133.324 177H134.714V168.258H134.839L140.956 177H142.324V165.727H140.933V174.5H140.808L134.691 165.727H133.324V177ZM144.83 177H151.815V175.734H146.237V171.859H151.526V170.609H146.237V166.992H151.815V165.727H144.83V177Z" fill="#4F4F4F"/>
<path d="M30.032 222.1H34.8L38.448 244.5H34.928L34.288 240.052V240.116H30.288L29.648 244.5H26.384L30.032 222.1ZM33.872 237.076L32.304 226.004H32.24L30.704 237.076H33.872ZM40.1558 222.1H43.6758V241.3H49.4678V244.5H40.1558V222.1ZM51.1558 222.1H54.6758V241.3H60.4678V244.5H51.1558V222.1ZM70.0008 222.1H74.7688L78.4168 244.5H74.8968L74.2568 240.052V240.116H70.2568L69.6168 244.5H66.3528L70.0008 222.1ZM73.8408 237.076L72.2728 226.004H72.2088L70.6727 237.076H73.8408ZM80.1245 222.1H85.3405C87.1538 222.1 88.4765 222.527 89.3085 223.38C90.1405 224.212 90.5565 225.503 90.5565 227.252V228.628C90.5565 230.953 89.7885 232.425 88.2525 233.044V233.108C89.1058 233.364 89.7032 233.887 90.0445 234.676C90.4072 235.465 90.5885 236.521 90.5885 237.844V241.78C90.5885 242.42 90.6098 242.943 90.6525 243.348C90.6952 243.732 90.8018 244.116 90.9725 244.5H87.3885C87.2605 244.137 87.1752 243.796 87.1325 243.476C87.0898 243.156 87.0685 242.58 87.0685 241.748V237.652C87.0685 236.628 86.8978 235.913 86.5565 235.508C86.2365 235.103 85.6712 234.9 84.8605 234.9H83.6445V244.5H80.1245V222.1ZM84.9245 231.7C85.6285 231.7 86.1512 231.519 86.4925 231.156C86.8552 230.793 87.0365 230.185 87.0365 229.332V227.604C87.0365 226.793 86.8872 226.207 86.5885 225.844C86.3112 225.481 85.8632 225.3 85.2445 225.3H83.6445V231.7H84.9245ZM93.0308 222.1H102.631V225.3H96.5508V231.22H101.383V234.42H96.5508V241.3H102.631V244.5H93.0308V222.1ZM107.376 222.1H112.144L115.792 244.5H112.272L111.632 240.052V240.116H107.632L106.992 244.5H103.728L107.376 222.1ZM111.216 237.076L109.648 226.004H109.584L108.048 237.076H111.216ZM121.982 244.82C120.275 244.82 118.984 244.34 118.11 243.38C117.235 242.399 116.798 241.001 116.798 239.188V237.908H120.126V239.444C120.126 240.895 120.734 241.62 121.95 241.62C122.547 241.62 122.995 241.449 123.294 241.108C123.614 240.745 123.774 240.169 123.774 239.38C123.774 238.441 123.56 237.62 123.134 236.916C122.707 236.191 121.918 235.327 120.766 234.324C119.315 233.044 118.302 231.892 117.726 230.868C117.15 229.823 116.862 228.649 116.862 227.348C116.862 225.577 117.31 224.212 118.206 223.252C119.102 222.271 120.403 221.78 122.11 221.78C123.795 221.78 125.064 222.271 125.918 223.252C126.792 224.212 127.23 225.599 127.23 227.412V228.34H123.902V227.188C123.902 226.42 123.752 225.865 123.454 225.524C123.155 225.161 122.718 224.98 122.142 224.98C120.968 224.98 120.382 225.695 120.382 227.124C120.382 227.935 120.595 228.692 121.022 229.396C121.47 230.1 122.27 230.953 123.422 231.956C124.894 233.236 125.907 234.399 126.462 235.444C127.016 236.489 127.294 237.716 127.294 239.124C127.294 240.959 126.835 242.367 125.918 243.348C125.022 244.329 123.71 244.82 121.982 244.82Z" fill="#030303"/>
<rect x="16.5" y="207.5" width="121" height="49" stroke="#030303"/>
<path d="M167.312 222.1H171.728L175.152 235.508H175.216V222.1H178.352V244.5H174.736L170.512 228.148H170.448V244.5H167.312V222.1ZM180.968 222.1H190.568V225.3H184.488V231.22H189.32V234.42H184.488V241.3H190.568V244.5H180.968V222.1ZM195.313 222.1H200.081L203.729 244.5H200.209L199.569 240.052V240.116H195.569L194.929 244.5H191.665L195.313 222.1ZM199.153 237.076L197.585 226.004H197.521L195.985 237.076H199.153ZM205.437 222.1H210.653C212.466 222.1 213.789 222.527 214.621 223.38C215.453 224.212 215.869 225.503 215.869 227.252V228.628C215.869 230.953 215.101 232.425 213.565 233.044V233.108C214.418 233.364 215.016 233.887 215.357 234.676C215.72 235.465 215.901 236.521 215.901 237.844V241.78C215.901 242.42 215.922 242.943 215.965 243.348C216.008 243.732 216.114 244.116 216.285 244.5H212.701C212.573 244.137 212.488 243.796 212.445 243.476C212.402 243.156 212.381 242.58 212.381 241.748V237.652C212.381 236.628 212.21 235.913 211.869 235.508C211.549 235.103 210.984 234.9 210.173 234.9H208.957V244.5H205.437V222.1ZM210.237 231.7C210.941 231.7 211.464 231.519 211.805 231.156C212.168 230.793 212.349 230.185 212.349 229.332V227.604C212.349 226.793 212.2 226.207 211.901 225.844C211.624 225.481 211.176 225.3 210.557 225.3H208.957V231.7H210.237ZM218.343 222.1H223.655C225.469 222.1 226.791 222.527 227.623 223.38C228.455 224.212 228.871 225.503 228.871 227.252V228.148C228.871 229.3 228.679 230.239 228.295 230.964C227.933 231.689 227.367 232.212 226.599 232.532V232.596C228.349 233.193 229.223 234.751 229.223 237.268V239.188C229.223 240.916 228.765 242.239 227.847 243.156C226.951 244.052 225.629 244.5 223.879 244.5H218.343V222.1ZM223.239 231.22C223.943 231.22 224.466 231.039 224.807 230.676C225.17 230.313 225.351 229.705 225.351 228.852V227.604C225.351 226.793 225.202 226.207 224.903 225.844C224.626 225.481 224.178 225.3 223.559 225.3H221.863V231.22H223.239ZM223.879 241.3C224.498 241.3 224.957 241.14 225.255 240.82C225.554 240.479 225.703 239.903 225.703 239.092V237.14C225.703 236.116 225.522 235.412 225.159 235.028C224.818 234.623 224.242 234.42 223.431 234.42H221.863V241.3H223.879ZM234.013 234.964L229.757 222.1H233.501L235.901 230.324H235.965L238.365 222.1H241.789L237.533 234.964V244.5H234.013V234.964Z" fill="#030303"/>
<rect x="156.5" y="207.5" width="96" height="49" stroke="#030303"/>
<path d="M17.8 323C17.32 323 16.9 322.82 16.54 322.46C16.18 322.1 16 321.68 16 321.2V302.6C16 302.12 16.18 301.7 16.54 301.34C16.9 300.98 17.32 300.8 17.8 300.8H19.75V299H21.7V300.8H31.9V299H33.85V300.8H35.8C36.28 300.8 36.7 300.98 37.06 301.34C37.42 301.7 37.6 302.12 37.6 302.6V321.2C37.6 321.68 37.42 322.1 37.06 322.46C36.7 322.82 36.28 323 35.8 323H17.8ZM17.8 321.2H35.8V308.3H17.8V321.2ZM17.8 306.5H35.8V302.6H17.8V306.5ZM17.8 306.5V302.6V306.5Z" fill="#4F4F4F"/>
<path d="M56.7329 317.266C59.2485 317.266 60.897 315.953 60.897 313.844V313.836C60.897 312.211 59.9673 311.266 57.6157 310.742L56.3657 310.461C54.8345 310.125 54.2173 309.516 54.2173 308.617V308.609C54.2173 307.43 55.3032 306.766 56.7095 306.758C58.1782 306.75 59.1157 307.484 59.272 308.477L59.2876 308.578H60.6938L60.686 308.469C60.5688 306.789 58.9985 305.461 56.7485 305.461C54.4204 305.461 52.7876 306.781 52.7798 308.648V308.656C52.7798 310.289 53.7563 311.328 56.0142 311.828L57.2642 312.102C58.811 312.445 59.4595 313.086 59.4595 314.023V314.031C59.4595 315.18 58.3423 315.969 56.811 315.969C55.186 315.969 54.0142 315.258 53.9126 314.133L53.9048 314.047H52.4985L52.5063 314.133C52.6704 315.969 54.2642 317.266 56.7329 317.266ZM62.8727 317H69.8571V315.734H64.279V311.859H69.568V310.609H64.279V306.992H69.8571V305.727H62.8727V317ZM72.036 317H78.8797V315.734H73.4422V305.727H72.036V317ZM80.7617 317H87.7461V315.734H82.168V311.859H87.457V310.609H82.168V306.992H87.7461V305.727H80.7617V317ZM94.464 317.266C96.8625 317.266 98.6437 315.93 99.0187 313.867V313.852H97.5968L97.5812 313.867C97.2297 315.164 96.0343 315.969 94.464 315.969C92.2922 315.969 90.9328 314.195 90.9328 311.375V311.359C90.9328 308.539 92.2922 306.758 94.4562 306.758C96.0109 306.758 97.214 307.672 97.589 309.117L97.5968 309.133H99.0109L99.0187 309.117C98.6828 306.953 96.8312 305.461 94.4562 305.461C91.3937 305.461 89.4875 307.727 89.4875 311.359V311.375C89.4875 315 91.4015 317.266 94.464 317.266ZM103.549 317H104.955V306.992H108.588V305.727H99.9163V306.992H103.549V317ZM114.524 317H118.391C121.743 317 123.712 314.914 123.712 311.367V311.352C123.712 307.812 121.735 305.727 118.391 305.727H114.524V317ZM115.93 315.734V306.992H118.298C120.798 306.992 122.274 308.617 122.274 311.367V311.383C122.274 314.125 120.813 315.734 118.298 315.734H115.93ZM124.336 317H125.812L126.945 313.773H131.43L132.562 317H134.039L129.883 305.727H128.492L124.336 317ZM129.125 307.547H129.25L131.015 312.578H127.359L129.125 307.547ZM137.249 317H138.655V306.992H142.288V305.727H133.616V306.992H137.249V317ZM144.092 317H151.076V315.734H145.498V311.859H150.787V310.609H145.498V306.992H151.076V305.727H144.092V317Z" fill="#4F4F4F"/>
<path d="M30.032 362.1H34.8L38.448 384.5H34.928L34.288 380.052V380.116H30.288L29.648 384.5H26.384L30.032 362.1ZM33.872 377.076L32.304 366.004H32.24L30.704 377.076H33.872ZM40.1558 362.1H43.6758V381.3H49.4678V384.5H40.1558V362.1ZM51.1558 362.1H54.6758V381.3H60.4678V384.5H51.1558V362.1ZM67.2808 362.1H72.6568C74.4061 362.1 75.7181 362.569 76.5928 363.508C77.4674 364.447 77.9048 365.823 77.9048 367.636V378.964C77.9048 380.777 77.4674 382.153 76.5928 383.092C75.7181 384.031 74.4061 384.5 72.6568 384.5H67.2808V362.1ZM72.5928 381.3C73.1688 381.3 73.6061 381.129 73.9048 380.788C74.2248 380.447 74.3848 379.892 74.3848 379.124V367.476C74.3848 366.708 74.2248 366.153 73.9048 365.812C73.6061 365.471 73.1688 365.3 72.5928 365.3H70.8008V381.3H72.5928ZM82.9383 362.1H87.7063L91.3543 384.5H87.8343L87.1943 380.052V380.116H83.1943L82.5543 384.5H79.2903L82.9383 362.1ZM86.7783 377.076L85.2103 366.004H85.1463L83.6102 377.076H86.7783ZM94.3453 365.3H90.6653V362.1H101.545V365.3H97.8653V384.5H94.3453V365.3ZM103.25 362.1H112.85V365.3H106.77V371.22H111.602V374.42H106.77V381.3H112.85V384.5H103.25V362.1ZM119.513 384.82C117.806 384.82 116.516 384.34 115.641 383.38C114.766 382.399 114.329 381.001 114.329 379.188V377.908H117.657V379.444C117.657 380.895 118.265 381.62 119.481 381.62C120.078 381.62 120.526 381.449 120.825 381.108C121.145 380.745 121.305 380.169 121.305 379.38C121.305 378.441 121.092 377.62 120.665 376.916C120.238 376.191 119.449 375.327 118.297 374.324C116.846 373.044 115.833 371.892 115.257 370.868C114.681 369.823 114.393 368.649 114.393 367.348C114.393 365.577 114.841 364.212 115.737 363.252C116.633 362.271 117.934 361.78 119.641 361.78C121.326 361.78 122.596 362.271 123.449 363.252C124.324 364.212 124.761 365.599 124.761 367.412V368.34H121.433V367.188C121.433 366.42 121.284 365.865 120.985 365.524C120.686 365.161 120.249 364.98 119.673 364.98C118.5 364.98 117.913 365.695 117.913 367.124C117.913 367.935 118.126 368.692 118.553 369.396C119.001 370.1 119.801 370.953 120.953 371.956C122.425 373.236 123.438 374.399 123.993 375.444C124.548 376.489 124.825 377.716 124.825 379.124C124.825 380.959 124.366 382.367 123.449 383.348C122.553 384.329 121.241 384.82 119.513 384.82Z" fill="#030303"/>
<rect x="16.5" y="347.5" width="119" height="49" stroke="#030303"/>
<path d="M168.064 365.3H164.384V362.1H175.264V365.3H171.584V384.5H168.064V365.3ZM181.931 384.82C180.203 384.82 178.881 384.329 177.963 383.348C177.046 382.367 176.587 380.98 176.587 379.188V367.412C176.587 365.62 177.046 364.233 177.963 363.252C178.881 362.271 180.203 361.78 181.931 361.78C183.659 361.78 184.982 362.271 185.899 363.252C186.817 364.233 187.275 365.62 187.275 367.412V379.188C187.275 380.98 186.817 382.367 185.899 383.348C184.982 384.329 183.659 384.82 181.931 384.82ZM181.931 381.62C183.147 381.62 183.755 380.884 183.755 379.412V367.188C183.755 365.716 183.147 364.98 181.931 364.98C180.715 364.98 180.107 365.716 180.107 367.188V379.412C180.107 380.884 180.715 381.62 181.931 381.62ZM189.656 362.1H195.032C196.781 362.1 198.093 362.569 198.968 363.508C199.842 364.447 200.28 365.823 200.28 367.636V378.964C200.28 380.777 199.842 382.153 198.968 383.092C198.093 384.031 196.781 384.5 195.032 384.5H189.656V362.1ZM194.968 381.3C195.544 381.3 195.981 381.129 196.28 380.788C196.6 380.447 196.76 379.892 196.76 379.124V367.476C196.76 366.708 196.6 366.153 196.28 365.812C195.981 365.471 195.544 365.3 194.968 365.3H193.176V381.3H194.968ZM205.313 362.1H210.081L213.729 384.5H210.209L209.569 380.052V380.116H205.569L204.929 384.5H201.665L205.313 362.1ZM209.153 377.076L207.585 366.004H207.521L205.985 377.076H209.153ZM217.2 374.964L212.944 362.1H216.688L219.088 370.324H219.152L221.552 362.1H224.976L220.72 374.964V384.5H217.2V374.964Z" fill="#030303"/>
<rect x="154.5" y="347.5" width="81" height="49" stroke="#030303"/>
<path d="M30.064 431.3H26.384V428.1H37.264V431.3H33.584V450.5H30.064V431.3ZM43.9313 450.82C42.2033 450.82 40.8806 450.329 39.9633 449.348C39.0459 448.367 38.5872 446.98 38.5872 445.188V433.412C38.5872 431.62 39.0459 430.233 39.9633 429.252C40.8806 428.271 42.2033 427.78 43.9313 427.78C45.6593 427.78 46.9819 428.271 47.8993 429.252C48.8166 430.233 49.2753 431.62 49.2753 433.412V445.188C49.2753 446.98 48.8166 448.367 47.8993 449.348C46.9819 450.329 45.6593 450.82 43.9313 450.82ZM43.9313 447.62C45.1473 447.62 45.7552 446.884 45.7552 445.412V433.188C45.7552 431.716 45.1473 430.98 43.9313 430.98C42.7153 430.98 42.1073 431.716 42.1073 433.188V445.412C42.1073 446.884 42.7153 447.62 43.9313 447.62ZM51.6558 428.1H56.6798L58.9198 444.132H58.9838L61.2238 428.1H66.2478V450.5H62.9198V433.54H62.8558L60.2958 450.5H57.3518L54.7918 433.54H54.7278V450.5H51.6558V428.1ZM73.9625 450.82C72.2345 450.82 70.9118 450.329 69.9945 449.348C69.0772 448.367 68.6185 446.98 68.6185 445.188V433.412C68.6185 431.62 69.0772 430.233 69.9945 429.252C70.9118 428.271 72.2345 427.78 73.9625 427.78C75.6905 427.78 77.0132 428.271 77.9305 429.252C78.8478 430.233 79.3065 431.62 79.3065 433.412V445.188C79.3065 446.98 78.8478 448.367 77.9305 449.348C77.0132 450.329 75.6905 450.82 73.9625 450.82ZM73.9625 447.62C75.1785 447.62 75.7865 446.884 75.7865 445.412V433.188C75.7865 431.716 75.1785 430.98 73.9625 430.98C72.7465 430.98 72.1385 431.716 72.1385 433.188V445.412C72.1385 446.884 72.7465 447.62 73.9625 447.62ZM81.687 428.1H86.903C88.7163 428.1 90.039 428.527 90.871 429.38C91.703 430.212 92.119 431.503 92.119 433.252V434.628C92.119 436.953 91.351 438.425 89.815 439.044V439.108C90.6683 439.364 91.2657 439.887 91.607 440.676C91.9697 441.465 92.151 442.521 92.151 443.844V447.78C92.151 448.42 92.1723 448.943 92.215 449.348C92.2577 449.732 92.3643 450.116 92.535 450.5H88.951C88.823 450.137 88.7377 449.796 88.695 449.476C88.6523 449.156 88.631 448.58 88.631 447.748V443.652C88.631 442.628 88.4603 441.913 88.119 441.508C87.799 441.103 87.2337 440.9 86.423 440.9H85.207V450.5H81.687V428.1ZM86.487 437.7C87.191 437.7 87.7137 437.519 88.055 437.156C88.4177 436.793 88.599 436.185 88.599 435.332V433.604C88.599 432.793 88.4497 432.207 88.151 431.844C87.8737 431.481 87.4257 431.3 86.807 431.3H85.207V437.7H86.487ZM94.5933 428.1H99.8093C101.623 428.1 102.945 428.527 103.777 429.38C104.609 430.212 105.025 431.503 105.025 433.252V434.628C105.025 436.953 104.257 438.425 102.721 439.044V439.108C103.575 439.364 104.172 439.887 104.513 440.676C104.876 441.465 105.057 442.521 105.057 443.844V447.78C105.057 448.42 105.079 448.943 105.121 449.348C105.164 449.732 105.271 450.116 105.441 450.5H101.857C101.729 450.137 101.644 449.796 101.601 449.476C101.559 449.156 101.537 448.58 101.537 447.748V443.652C101.537 442.628 101.367 441.913 101.025 441.508C100.705 441.103 100.14 440.9 99.3293 440.9H98.1133V450.5H94.5933V428.1ZM99.3933 437.7C100.097 437.7 100.62 437.519 100.961 437.156C101.324 436.793 101.505 436.185 101.505 435.332V433.604C101.505 432.793 101.356 432.207 101.057 431.844C100.78 431.481 100.332 431.3 99.7133 431.3H98.1133V437.7H99.3933ZM112.588 450.82C110.86 450.82 109.537 450.329 108.62 449.348C107.702 448.367 107.243 446.98 107.243 445.188V433.412C107.243 431.62 107.702 430.233 108.62 429.252C109.537 428.271 110.86 427.78 112.588 427.78C114.316 427.78 115.638 428.271 116.556 429.252C117.473 430.233 117.932 431.62 117.932 433.412V445.188C117.932 446.98 117.473 448.367 116.556 449.348C115.638 450.329 114.316 450.82 112.588 450.82ZM112.588 447.62C113.804 447.62 114.411 446.884 114.411 445.412V433.188C114.411 431.716 113.804 430.98 112.588 430.98C111.372 430.98 110.764 431.716 110.764 433.188V445.412C110.764 446.884 111.372 447.62 112.588 447.62ZM119.48 428.1H122.872L124.44 445.316H124.504L126.168 428.1H130.008L131.672 445.316H131.736L133.304 428.1H136.344L134.072 450.5H129.688L128.088 435.396H128.024L126.424 450.5H121.752L119.48 428.1Z" fill="#030303"/>
<rect x="16.5" y="413.5" width="130" height="49" stroke="#030303"/>
<path d="M179.064 431.3H175.384V428.1H186.264V431.3H182.584V450.5H179.064V431.3ZM187.968 428.1H191.488V437.22H195.264V428.1H198.784V450.5H195.264V440.42H191.488V450.5H187.968V428.1ZM201.406 428.1H204.926V450.5H201.406V428.1ZM212.138 450.82C210.431 450.82 209.141 450.34 208.266 449.38C207.391 448.399 206.954 447.001 206.954 445.188V443.908H210.282V445.444C210.282 446.895 210.89 447.62 212.106 447.62C212.703 447.62 213.151 447.449 213.45 447.108C213.77 446.745 213.93 446.169 213.93 445.38C213.93 444.441 213.717 443.62 213.29 442.916C212.863 442.191 212.074 441.327 210.922 440.324C209.471 439.044 208.458 437.892 207.882 436.868C207.306 435.823 207.018 434.649 207.018 433.348C207.018 431.577 207.466 430.212 208.362 429.252C209.258 428.271 210.559 427.78 212.266 427.78C213.951 427.78 215.221 428.271 216.074 429.252C216.949 430.212 217.386 431.599 217.386 433.412V434.34H214.058V433.188C214.058 432.42 213.909 431.865 213.61 431.524C213.311 431.161 212.874 430.98 212.298 430.98C211.125 430.98 210.538 431.695 210.538 433.124C210.538 433.935 210.751 434.692 211.178 435.396C211.626 436.1 212.426 436.953 213.578 437.956C215.05 439.236 216.063 440.399 216.618 441.444C217.173 442.489 217.45 443.716 217.45 445.124C217.45 446.959 216.991 448.367 216.074 449.348C215.178 450.329 213.866 450.82 212.138 450.82ZM223.761 428.1H227.153L228.721 445.316H228.785L230.449 428.1H234.289L235.953 445.316H236.017L237.585 428.1H240.625L238.353 450.5H233.969L232.369 435.396H232.305L230.705 450.5H226.033L223.761 428.1ZM242.406 428.1H252.006V431.3H245.926V437.22H250.758V440.42H245.926V447.3H252.006V450.5H242.406V428.1ZM254.031 428.1H263.631V431.3H257.551V437.22H262.383V440.42H257.551V447.3H263.631V450.5H254.031V428.1ZM265.656 428.1H269.176V437.54L273.656 428.1H277.176L272.984 436.324L277.24 450.5H273.56L270.584 440.516L269.176 443.364V450.5H265.656V428.1Z" fill="#030303"/>
<rect x="165.5" y="413.5" width="122" height="49" stroke="#030303"/>
<path d="M30.064 497.3H26.384V494.1H37.264V497.3H33.584V516.5H30.064V497.3ZM38.9683 494.1H42.4883V503.22H46.2643V494.1H49.7843V516.5H46.2643V506.42H42.4883V516.5H38.9683V494.1ZM52.4058 494.1H55.9258V516.5H52.4058V494.1ZM63.138 516.82C61.4313 516.82 60.1407 516.34 59.266 515.38C58.3913 514.399 57.954 513.001 57.954 511.188V509.908H61.282V511.444C61.282 512.895 61.89 513.62 63.106 513.62C63.7033 513.62 64.1513 513.449 64.45 513.108C64.77 512.745 64.93 512.169 64.93 511.38C64.93 510.441 64.7167 509.62 64.29 508.916C63.8633 508.191 63.074 507.327 61.922 506.324C60.4713 505.044 59.458 503.892 58.882 502.868C58.306 501.823 58.018 500.649 58.018 499.348C58.018 497.577 58.466 496.212 59.362 495.252C60.258 494.271 61.5593 493.78 63.266 493.78C64.9513 493.78 66.2207 494.271 67.074 495.252C67.9487 496.212 68.386 497.599 68.386 499.412V500.34H65.058V499.188C65.058 498.42 64.9087 497.865 64.61 497.524C64.3113 497.161 63.874 496.98 63.298 496.98C62.1247 496.98 61.538 497.695 61.538 499.124C61.538 499.935 61.7513 500.692 62.178 501.396C62.626 502.1 63.426 502.953 64.578 503.956C66.05 505.236 67.0633 506.399 67.618 507.444C68.1727 508.489 68.45 509.716 68.45 511.124C68.45 512.959 67.9913 514.367 67.074 515.348C66.178 516.329 64.866 516.82 63.138 516.82ZM74.7613 494.1H78.1533L79.7213 511.316H79.7853L81.4493 494.1H85.2893L86.9533 511.316H87.0173L88.5853 494.1H91.6253L89.3533 516.5H84.9693L83.3693 501.396H83.3053L81.7053 516.5H77.0333L74.7613 494.1ZM93.4058 494.1H103.006V497.3H96.9258V503.22H101.758V506.42H96.9258V513.3H103.006V516.5H93.4058V494.1ZM105.031 494.1H114.631V497.3H108.551V503.22H113.383V506.42H108.551V513.3H114.631V516.5H105.031V494.1ZM116.656 494.1H120.176V503.54L124.656 494.1H128.176L123.984 502.324L128.24 516.5H124.56L121.584 506.516L120.176 509.364V516.5H116.656V494.1ZM129.906 494.1H139.506V497.3H133.426V503.22H138.258V506.42H133.426V513.3H139.506V516.5H129.906V494.1ZM141.531 494.1H145.947L149.371 507.508H149.435V494.1H152.571V516.5H148.955L144.731 500.148H144.667V516.5H141.531V494.1ZM155.187 494.1H160.563C162.312 494.1 163.624 494.569 164.499 495.508C165.374 496.447 165.811 497.823 165.811 499.636V510.964C165.811 512.777 165.374 514.153 164.499 515.092C163.624 516.031 162.312 516.5 160.563 516.5H155.187V494.1ZM160.499 513.3C161.075 513.3 161.512 513.129 161.811 512.788C162.131 512.447 162.291 511.892 162.291 511.124V499.476C162.291 498.708 162.131 498.153 161.811 497.812C161.512 497.471 161.075 497.3 160.499 497.3H158.707V513.3H160.499Z" fill="#030303"/>
<rect x="16.5" y="479.5" width="160" height="49" stroke="#030303"/>
<path d="M206.312 494.1H209.832V513.3H215.624V516.5H206.312V494.1ZM220.157 494.1H224.925L228.573 516.5H225.053L224.413 512.052V512.116H220.413L219.773 516.5H216.509L220.157 494.1ZM223.997 509.076L222.429 498.004H222.365L220.829 509.076H223.997ZM231.564 497.3H227.884V494.1H238.764V497.3H235.084V516.5H231.564V497.3ZM240.468 494.1H250.068V497.3H243.988V503.22H248.82V506.42H243.988V513.3H250.068V516.5H240.468V494.1ZM252.093 494.1H257.309C259.123 494.1 260.445 494.527 261.277 495.38C262.109 496.212 262.525 497.503 262.525 499.252V500.628C262.525 502.953 261.757 504.425 260.221 505.044V505.108C261.075 505.364 261.672 505.887 262.013 506.676C262.376 507.465 262.557 508.521 262.557 509.844V513.78C262.557 514.42 262.579 514.943 262.621 515.348C262.664 515.732 262.771 516.116 262.941 516.5H259.357C259.229 516.137 259.144 515.796 259.101 515.476C259.059 515.156 259.037 514.58 259.037 513.748V509.652C259.037 508.628 258.867 507.913 258.525 507.508C258.205 507.103 257.64 506.9 256.829 506.9H255.613V516.5H252.093V494.1ZM256.893 503.7C257.597 503.7 258.12 503.519 258.461 503.156C258.824 502.793 259.005 502.185 259.005 501.332V499.604C259.005 498.793 258.856 498.207 258.557 497.844C258.28 497.481 257.832 497.3 257.213 497.3H255.613V503.7H256.893Z" fill="#030303"/>
<rect x="195.5" y="479.5" width="78" height="49" stroke="#030303"/>
<path d="M20.23 581.62L26.83 571L33.43 581.62H20.23ZM33.58 595C32.1 595 30.86 594.5 29.86 593.5C28.86 592.5 28.36 591.26 28.36 589.78C28.36 588.3 28.86 587.06 29.86 586.06C30.86 585.06 32.1 584.56 33.58 584.56C35.06 584.56 36.3 585.06 37.3 586.06C38.3 587.06 38.8 588.3 38.8 589.78C38.8 591.26 38.3 592.5 37.3 593.5C36.3 594.5 35.06 595 33.58 595ZM16 594.25V585.13H25.12V594.25H16ZM33.58 593.2C34.54 593.2 35.35 592.87 36.01 592.21C36.67 591.55 37 590.74 37 589.78C37 588.82 36.67 588.01 36.01 587.35C35.35 586.69 34.54 586.36 33.58 586.36C32.62 586.36 31.81 586.69 31.15 587.35C30.49 588.01 30.16 588.82 30.16 589.78C30.16 590.74 30.49 591.55 31.15 592.21C31.81 592.87 32.62 593.2 33.58 593.2ZM17.8 592.45H23.32V586.93H17.8V592.45ZM23.47 579.82H30.19L26.83 574.39L23.47 579.82Z" fill="#4F4F4F"/>
<path d="M57.9329 589.266C60.4485 589.266 62.0969 587.953 62.0969 585.844V585.836C62.0969 584.211 61.1672 583.266 58.8157 582.742L57.5657 582.461C56.0344 582.125 55.4172 581.516 55.4172 580.617V580.609C55.4172 579.43 56.5032 578.766 57.9094 578.758C59.3782 578.75 60.3157 579.484 60.4719 580.477L60.4875 580.578H61.8938L61.886 580.469C61.7688 578.789 60.1985 577.461 57.9485 577.461C55.6204 577.461 53.9875 578.781 53.9797 580.648V580.656C53.9797 582.289 54.9563 583.328 57.2141 583.828L58.4641 584.102C60.011 584.445 60.6594 585.086 60.6594 586.023V586.031C60.6594 587.18 59.5422 587.969 58.011 587.969C56.386 587.969 55.2141 587.258 55.1125 586.133L55.1047 586.047H53.6985L53.7063 586.133C53.8704 587.969 55.4641 589.266 57.9329 589.266ZM64.0727 589H71.057V587.734H65.4789V583.859H70.768V582.609H65.4789V578.992H71.057V577.727H64.0727V589ZM73.2359 589H80.0797V587.734H74.6422V577.727H73.2359V589ZM81.9617 589H88.946V587.734H83.3679V583.859H88.657V582.609H83.3679V578.992H88.946V577.727H81.9617V589ZM95.664 589.266C98.0624 589.266 99.8437 587.93 100.219 585.867V585.852H98.7968L98.7812 585.867C98.4296 587.164 97.2343 587.969 95.664 587.969C93.4921 587.969 92.1327 586.195 92.1327 583.375V583.359C92.1327 580.539 93.4921 578.758 95.6562 578.758C97.2109 578.758 98.414 579.672 98.789 581.117L98.7968 581.133H100.211L100.219 581.117C99.8827 578.953 98.0312 577.461 95.6562 577.461C92.5937 577.461 90.6874 579.727 90.6874 583.359V583.375C90.6874 587 92.6015 589.266 95.664 589.266ZM104.749 589H106.155V578.992H109.788V577.727H101.116V578.992H104.749V589ZM120.263 589.266C122.662 589.266 124.443 587.93 124.818 585.867V585.852H123.396L123.38 585.867C123.029 587.164 121.833 587.969 120.263 587.969C118.091 587.969 116.732 586.195 116.732 583.375V583.359C116.732 580.539 118.091 578.758 120.255 578.758C121.81 578.758 123.013 579.672 123.388 581.117L123.396 581.133H124.81L124.818 581.117C124.482 578.953 122.63 577.461 120.255 577.461C117.193 577.461 115.287 579.727 115.287 583.359V583.375C115.287 587 117.201 589.266 120.263 589.266ZM125.598 589H127.075L128.208 585.773H132.692L133.825 589H135.301L131.145 577.727H129.754L125.598 589ZM130.387 579.547H130.512L132.278 584.578H128.622L130.387 579.547ZM138.511 589H139.918V578.992H143.551V577.727H134.879V578.992H138.511V589ZM145.354 589H152.339V587.734H146.761V583.859H152.05V582.609H146.761V578.992H152.339V577.727H145.354V589ZM159.19 589.266C162.072 589.266 163.979 587.422 163.979 584.641V583.266H159.408V584.5H162.572V584.773C162.572 586.68 161.213 587.969 159.197 587.969C156.932 587.969 155.518 586.203 155.518 583.367V583.352C155.518 580.555 156.955 578.758 159.19 578.758C160.869 578.758 162.002 579.555 162.463 581.008L162.486 581.086H163.908L163.893 581.008C163.447 578.867 161.69 577.461 159.19 577.461C156.104 577.461 154.08 579.797 154.08 583.352V583.367C154.08 586.969 156.072 589.266 159.19 589.266ZM170.837 589.266C174.056 589.266 176.009 586.961 176.009 583.367V583.352C176.009 579.742 174.04 577.461 170.837 577.461C167.65 577.461 165.665 579.734 165.665 583.352V583.367C165.665 586.969 167.603 589.266 170.837 589.266ZM170.837 587.969C168.493 587.969 167.103 586.156 167.103 583.367V583.352C167.103 580.539 168.54 578.758 170.837 578.758C173.142 578.758 174.572 580.539 174.572 583.352V583.367C174.572 586.156 173.15 587.969 170.837 587.969ZM178.079 589H179.485V584.539H182.258L184.672 589H186.321L183.711 584.32C185.125 583.875 185.977 582.656 185.977 581.094V581.078C185.977 579.055 184.555 577.727 182.383 577.727H178.079V589ZM179.485 583.289V578.977H182.196C183.649 578.977 184.524 579.781 184.524 581.125V581.141C184.524 582.516 183.704 583.289 182.258 583.289H179.485ZM190.953 589H192.359V584.148L196.359 577.727H194.757L191.718 582.734H191.593L188.554 577.727H186.953L190.953 584.148V589Z" fill="#4F4F4F"/>
<path d="M30.032 634.1H34.8L38.448 656.5H34.928L34.288 652.052V652.116H30.288L29.648 656.5H26.384L30.032 634.1ZM33.872 649.076L32.304 638.004H32.24L30.704 649.076H33.872ZM40.1558 634.1H43.6758V653.3H49.4678V656.5H40.1558V634.1ZM51.1558 634.1H54.6758V653.3H60.4678V656.5H51.1558V634.1ZM72.2408 656.82C70.5554 656.82 69.2648 656.34 68.3688 655.38C67.4941 654.42 67.0568 653.065 67.0568 651.316V639.284C67.0568 637.535 67.4941 636.18 68.3688 635.22C69.2648 634.26 70.5554 633.78 72.2408 633.78C73.9261 633.78 75.2061 634.26 76.0808 635.22C76.9768 636.18 77.4248 637.535 77.4248 639.284V641.652H74.0968V639.06C74.0968 637.673 73.5101 636.98 72.3368 636.98C71.1634 636.98 70.5768 637.673 70.5768 639.06V651.572C70.5768 652.937 71.1634 653.62 72.3368 653.62C73.5101 653.62 74.0968 652.937 74.0968 651.572V648.148H77.4248V651.316C77.4248 653.065 76.9768 654.42 76.0808 655.38C75.2061 656.34 73.9261 656.82 72.2408 656.82ZM82.2508 634.1H87.0188L90.6668 656.5H87.1468L86.5068 652.052V652.116H82.5068L81.8668 656.5H78.6028L82.2508 634.1ZM86.0908 649.076L84.5228 638.004H84.4588L82.9227 649.076H86.0908ZM93.6578 637.3H89.9778V634.1H100.858V637.3H97.1778V656.5H93.6578V637.3ZM102.562 634.1H112.162V637.3H106.082V643.22H110.914V646.42H106.082V653.3H112.162V656.5H102.562V634.1ZM119.179 656.82C117.472 656.82 116.171 656.34 115.275 655.38C114.379 654.399 113.931 653.001 113.931 651.188V639.412C113.931 637.599 114.379 636.212 115.275 635.252C116.171 634.271 117.472 633.78 119.179 633.78C120.886 633.78 122.187 634.271 123.083 635.252C123.979 636.212 124.427 637.599 124.427 639.412V641.332H121.099V639.188C121.099 637.716 120.491 636.98 119.275 636.98C118.059 636.98 117.451 637.716 117.451 639.188V651.444C117.451 652.895 118.059 653.62 119.275 653.62C120.491 653.62 121.099 652.895 121.099 651.444V647.06H119.339V643.86H124.427V651.188C124.427 653.001 123.979 654.399 123.083 655.38C122.187 656.34 120.886 656.82 119.179 656.82ZM131.775 656.82C130.047 656.82 128.724 656.329 127.807 655.348C126.89 654.367 126.431 652.98 126.431 651.188V639.412C126.431 637.62 126.89 636.233 127.807 635.252C128.724 634.271 130.047 633.78 131.775 633.78C133.503 633.78 134.826 634.271 135.743 635.252C136.66 636.233 137.119 637.62 137.119 639.412V651.188C137.119 652.98 136.66 654.367 135.743 655.348C134.826 656.329 133.503 656.82 131.775 656.82ZM131.775 653.62C132.991 653.62 133.599 652.884 133.599 651.412V639.188C133.599 637.716 132.991 636.98 131.775 636.98C130.559 636.98 129.951 637.716 129.951 639.188V651.412C129.951 652.884 130.559 653.62 131.775 653.62ZM139.5 634.1H144.716C146.529 634.1 147.852 634.527 148.684 635.38C149.516 636.212 149.932 637.503 149.932 639.252V640.628C149.932 642.953 149.164 644.425 147.628 645.044V645.108C148.481 645.364 149.078 645.887 149.42 646.676C149.782 647.465 149.964 648.521 149.964 649.844V653.78C149.964 654.42 149.985 654.943 150.028 655.348C150.07 655.732 150.177 656.116 150.348 656.5H146.764C146.636 656.137 146.55 655.796 146.508 655.476C146.465 655.156 146.444 654.58 146.444 653.748V649.652C146.444 648.628 146.273 647.913 145.932 647.508C145.612 647.103 145.046 646.9 144.236 646.9H143.02V656.5H139.5V634.1ZM144.3 643.7C145.004 643.7 145.526 643.519 145.868 643.156C146.23 642.793 146.411 642.185 146.411 641.332V639.604C146.411 638.793 146.262 638.207 145.964 637.844C145.686 637.481 145.238 637.3 144.62 637.3H143.02V643.7H144.3ZM152.406 634.1H155.926V656.5H152.406V634.1ZM158.562 634.1H168.162V637.3H162.082V643.22H166.914V646.42H162.082V653.3H168.162V656.5H158.562V634.1ZM174.826 656.82C173.119 656.82 171.828 656.34 170.954 655.38C170.079 654.399 169.642 653.001 169.642 651.188V649.908H172.97V651.444C172.97 652.895 173.578 653.62 174.794 653.62C175.391 653.62 175.839 653.449 176.138 653.108C176.458 652.745 176.618 652.169 176.618 651.38C176.618 650.441 176.404 649.62 175.978 648.916C175.551 648.191 174.762 647.327 173.61 646.324C172.159 645.044 171.146 643.892 170.57 642.868C169.994 641.823 169.706 640.649 169.706 639.348C169.706 637.577 170.154 636.212 171.049 635.252C171.946 634.271 173.247 633.78 174.954 633.78C176.639 633.78 177.908 634.271 178.762 635.252C179.636 636.212 180.074 637.599 180.074 639.412V640.34H176.746V639.188C176.746 638.42 176.596 637.865 176.298 637.524C175.999 637.161 175.562 636.98 174.986 636.98C173.812 636.98 173.226 637.695 173.226 639.124C173.226 639.935 173.439 640.692 173.866 641.396C174.314 642.1 175.114 642.953 176.266 643.956C177.738 645.236 178.751 646.399 179.306 647.444C179.86 648.489 180.138 649.716 180.138 651.124C180.138 652.959 179.679 654.367 178.762 655.348C177.866 656.329 176.554 656.82 174.826 656.82Z" fill="#030303"/>
<rect x="16.5" y="619.5" width="174" height="49" stroke="#030303"/>
<path d="M27.312 700.1H32.688C34.4373 700.1 35.7493 700.569 36.624 701.508C37.4987 702.447 37.936 703.823 37.936 705.636V716.964C37.936 718.777 37.4987 720.153 36.624 721.092C35.7493 722.031 34.4373 722.5 32.688 722.5H27.312V700.1ZM32.624 719.3C33.2 719.3 33.6373 719.129 33.936 718.788C34.256 718.447 34.416 717.892 34.416 717.124V705.476C34.416 704.708 34.256 704.153 33.936 703.812C33.6373 703.471 33.2 703.3 32.624 703.3H30.832V719.3H32.624ZM40.312 700.1H43.832V722.5H40.312V700.1ZM51.0443 722.82C49.3376 722.82 48.0469 722.34 47.1723 721.38C46.2976 720.399 45.8603 719.001 45.8603 717.188V715.908H49.1883V717.444C49.1883 718.895 49.7963 719.62 51.0123 719.62C51.6096 719.62 52.0576 719.449 52.3563 719.108C52.6763 718.745 52.8363 718.169 52.8363 717.38C52.8363 716.441 52.6229 715.62 52.1963 714.916C51.7696 714.191 50.9803 713.327 49.8283 712.324C48.3776 711.044 47.3643 709.892 46.7883 708.868C46.2123 707.823 45.9243 706.649 45.9243 705.348C45.9243 703.577 46.3723 702.212 47.2682 701.252C48.1643 700.271 49.4656 699.78 51.1723 699.78C52.8576 699.78 54.1269 700.271 54.9803 701.252C55.8549 702.212 56.2923 703.599 56.2923 705.412V706.34H52.9643V705.188C52.9643 704.42 52.8149 703.865 52.5163 703.524C52.2176 703.161 51.7803 702.98 51.2043 702.98C50.0309 702.98 49.4443 703.695 49.4443 705.124C49.4443 705.935 49.6576 706.692 50.0843 707.396C50.5323 708.1 51.3323 708.953 52.4843 709.956C53.9563 711.236 54.9696 712.399 55.5243 713.444C56.0789 714.489 56.3563 715.716 56.3563 717.124C56.3563 718.959 55.8976 720.367 54.9803 721.348C54.0843 722.329 52.7723 722.82 51.0443 722.82ZM63.3345 722.82C61.6492 722.82 60.3585 722.34 59.4625 721.38C58.5878 720.42 58.1505 719.065 58.1505 717.316V705.284C58.1505 703.535 58.5878 702.18 59.4625 701.22C60.3585 700.26 61.6492 699.78 63.3345 699.78C65.0198 699.78 66.2998 700.26 67.1745 701.22C68.0705 702.18 68.5185 703.535 68.5185 705.284V707.652H65.1905V705.06C65.1905 703.673 64.6038 702.98 63.4305 702.98C62.2572 702.98 61.6705 703.673 61.6705 705.06V717.572C61.6705 718.937 62.2572 719.62 63.4305 719.62C64.6038 719.62 65.1905 718.937 65.1905 717.572V714.148H68.5185V717.316C68.5185 719.065 68.0705 720.42 67.1745 721.38C66.2998 722.34 65.0198 722.82 63.3345 722.82ZM75.7445 722.82C74.0378 722.82 72.7365 722.34 71.8405 721.38C70.9445 720.399 70.4965 719.001 70.4965 717.188V700.1H74.0165V717.444C74.0165 718.212 74.1658 718.767 74.4645 719.108C74.7845 719.449 75.2325 719.62 75.8085 719.62C76.3845 719.62 76.8218 719.449 77.1205 719.108C77.4405 718.767 77.6005 718.212 77.6005 717.444V700.1H80.9925V717.188C80.9925 719.001 80.5445 720.399 79.6485 721.38C78.7525 722.34 77.4512 722.82 75.7445 722.82ZM88.0755 722.82C86.3688 722.82 85.0782 722.34 84.2035 721.38C83.3288 720.399 82.8915 719.001 82.8915 717.188V715.908H86.2195V717.444C86.2195 718.895 86.8275 719.62 88.0435 719.62C88.6408 719.62 89.0888 719.449 89.3875 719.108C89.7075 718.745 89.8675 718.169 89.8675 717.38C89.8675 716.441 89.6542 715.62 89.2275 714.916C88.8008 714.191 88.0115 713.327 86.8595 712.324C85.4088 711.044 84.3955 709.892 83.8195 708.868C83.2435 707.823 82.9555 706.649 82.9555 705.348C82.9555 703.577 83.4035 702.212 84.2995 701.252C85.1955 700.271 86.4968 699.78 88.2035 699.78C89.8888 699.78 91.1582 700.271 92.0115 701.252C92.8862 702.212 93.3235 703.599 93.3235 705.412V706.34H89.9955V705.188C89.9955 704.42 89.8462 703.865 89.5475 703.524C89.2488 703.161 88.8115 702.98 88.2355 702.98C87.0622 702.98 86.4755 703.695 86.4755 705.124C86.4755 705.935 86.6888 706.692 87.1155 707.396C87.5635 708.1 88.3635 708.953 89.5155 709.956C90.9875 711.236 92.0008 712.399 92.5555 713.444C93.1102 714.489 93.3875 715.716 93.3875 717.124C93.3875 718.959 92.9288 720.367 92.0115 721.348C91.1155 722.329 89.8035 722.82 88.0755 722.82ZM99.9818 722.82C98.2751 722.82 96.9844 722.34 96.1098 721.38C95.2351 720.399 94.7978 719.001 94.7978 717.188V715.908H98.1258V717.444C98.1258 718.895 98.7338 719.62 99.9498 719.62C100.547 719.62 100.995 719.449 101.294 719.108C101.614 718.745 101.774 718.169 101.774 717.38C101.774 716.441 101.56 715.62 101.134 714.916C100.707 714.191 99.9178 713.327 98.7658 712.324C97.3151 711.044 96.3018 709.892 95.7258 708.868C95.1498 707.823 94.8618 706.649 94.8618 705.348C94.8618 703.577 95.3098 702.212 96.2057 701.252C97.1018 700.271 98.4031 699.78 100.11 699.78C101.795 699.78 103.064 700.271 103.918 701.252C104.792 702.212 105.23 703.599 105.23 705.412V706.34H101.902V705.188C101.902 704.42 101.752 703.865 101.454 703.524C101.155 703.161 100.718 702.98 100.142 702.98C98.9684 702.98 98.3818 703.695 98.3818 705.124C98.3818 705.935 98.5951 706.692 99.0218 707.396C99.4698 708.1 100.27 708.953 101.422 709.956C102.894 711.236 103.907 712.399 104.462 713.444C105.016 714.489 105.294 715.716 105.294 717.124C105.294 718.959 104.835 720.367 103.918 721.348C103.022 722.329 101.71 722.82 99.9818 722.82ZM107.312 700.1H110.832V722.5H107.312V700.1ZM118.556 722.82C116.828 722.82 115.506 722.329 114.588 721.348C113.671 720.367 113.212 718.98 113.212 717.188V705.412C113.212 703.62 113.671 702.233 114.588 701.252C115.506 700.271 116.828 699.78 118.556 699.78C120.284 699.78 121.607 700.271 122.524 701.252C123.442 702.233 123.9 703.62 123.9 705.412V717.188C123.9 718.98 123.442 720.367 122.524 721.348C121.607 722.329 120.284 722.82 118.556 722.82ZM118.556 719.62C119.772 719.62 120.38 718.884 120.38 717.412V705.188C120.38 703.716 119.772 702.98 118.556 702.98C117.34 702.98 116.732 703.716 116.732 705.188V717.412C116.732 718.884 117.34 719.62 118.556 719.62ZM126.281 700.1H130.697L134.121 713.508H134.185V700.1H137.321V722.5H133.705L129.481 706.148H129.417V722.5H126.281V700.1ZM144.513 722.82C142.806 722.82 141.516 722.34 140.641 721.38C139.766 720.399 139.329 719.001 139.329 717.188V715.908H142.657V717.444C142.657 718.895 143.265 719.62 144.481 719.62C145.078 719.62 145.526 719.449 145.825 719.108C146.145 718.745 146.305 718.169 146.305 717.38C146.305 716.441 146.092 715.62 145.665 714.916C145.238 714.191 144.449 713.327 143.297 712.324C141.846 711.044 140.833 709.892 140.257 708.868C139.681 707.823 139.393 706.649 139.393 705.348C139.393 703.577 139.841 702.212 140.737 701.252C141.633 700.271 142.934 699.78 144.641 699.78C146.326 699.78 147.596 700.271 148.449 701.252C149.324 702.212 149.761 703.599 149.761 705.412V706.34H146.433V705.188C146.433 704.42 146.284 703.865 145.985 703.524C145.686 703.161 145.249 702.98 144.673 702.98C143.5 702.98 142.913 703.695 142.913 705.124C142.913 705.935 143.126 706.692 143.553 707.396C144.001 708.1 144.801 708.953 145.953 709.956C147.425 711.236 148.438 712.399 148.993 713.444C149.548 714.489 149.825 715.716 149.825 717.124C149.825 718.959 149.366 720.367 148.449 721.348C147.553 722.329 146.241 722.82 144.513 722.82Z" fill="#030303"/>
<rect x="16.5" y="685.5" width="144" height="49" stroke="#030303"/>
<path d="M190.312 700.1H195.496C197.245 700.1 198.557 700.569 199.432 701.508C200.307 702.447 200.744 703.823 200.744 705.636V707.844C200.744 709.657 200.307 711.033 199.432 711.972C198.557 712.911 197.245 713.38 195.496 713.38H193.832V722.5H190.312V700.1ZM195.496 710.18C196.072 710.18 196.499 710.02 196.776 709.7C197.075 709.38 197.224 708.836 197.224 708.068V705.412C197.224 704.644 197.075 704.1 196.776 703.78C196.499 703.46 196.072 703.3 195.496 703.3H193.832V710.18H195.496ZM202.656 700.1H207.872C209.685 700.1 211.008 700.527 211.84 701.38C212.672 702.212 213.088 703.503 213.088 705.252V706.628C213.088 708.953 212.32 710.425 210.784 711.044V711.108C211.637 711.364 212.234 711.887 212.576 712.676C212.938 713.465 213.12 714.521 213.12 715.844V719.78C213.12 720.42 213.141 720.943 213.184 721.348C213.226 721.732 213.333 722.116 213.504 722.5H209.92C209.792 722.137 209.706 721.796 209.664 721.476C209.621 721.156 209.6 720.58 209.6 719.748V715.652C209.6 714.628 209.429 713.913 209.088 713.508C208.768 713.103 208.202 712.9 207.392 712.9H206.176V722.5H202.656V700.1ZM207.456 709.7C208.16 709.7 208.682 709.519 209.024 709.156C209.386 708.793 209.568 708.185 209.568 707.332V705.604C209.568 704.793 209.418 704.207 209.12 703.844C208.842 703.481 208.394 703.3 207.776 703.3H206.176V709.7H207.456ZM220.65 722.82C218.922 722.82 217.599 722.329 216.682 721.348C215.765 720.367 215.306 718.98 215.306 717.188V705.412C215.306 703.62 215.765 702.233 216.682 701.252C217.599 700.271 218.922 699.78 220.65 699.78C222.378 699.78 223.701 700.271 224.618 701.252C225.535 702.233 225.994 703.62 225.994 705.412V717.188C225.994 718.98 225.535 720.367 224.618 721.348C223.701 722.329 222.378 722.82 220.65 722.82ZM220.65 719.62C221.866 719.62 222.474 718.884 222.474 717.412V705.188C222.474 703.716 221.866 702.98 220.65 702.98C219.434 702.98 218.826 703.716 218.826 705.188V717.412C218.826 718.884 219.434 719.62 220.65 719.62ZM228.375 700.1H233.559C235.308 700.1 236.62 700.569 237.495 701.508C238.369 702.447 238.807 703.823 238.807 705.636V707.844C238.807 709.657 238.369 711.033 237.495 711.972C236.62 712.911 235.308 713.38 233.559 713.38H231.895V722.5H228.375V700.1ZM233.559 710.18C234.135 710.18 234.561 710.02 234.839 709.7C235.137 709.38 235.286 708.836 235.286 708.068V705.412C235.286 704.644 235.137 704.1 234.839 703.78C234.561 703.46 234.135 703.3 233.559 703.3H231.895V710.18H233.559ZM245.806 722.82C244.078 722.82 242.756 722.329 241.838 721.348C240.921 720.367 240.462 718.98 240.462 717.188V705.412C240.462 703.62 240.921 702.233 241.838 701.252C242.756 700.271 244.078 699.78 245.806 699.78C247.534 699.78 248.857 700.271 249.774 701.252C250.692 702.233 251.15 703.62 251.15 705.412V717.188C251.15 718.98 250.692 720.367 249.774 721.348C248.857 722.329 247.534 722.82 245.806 722.82ZM245.806 719.62C247.022 719.62 247.63 718.884 247.63 717.412V705.188C247.63 703.716 247.022 702.98 245.806 702.98C244.59 702.98 243.982 703.716 243.982 705.188V717.412C243.982 718.884 244.59 719.62 245.806 719.62ZM258.107 722.82C256.4 722.82 255.109 722.34 254.235 721.38C253.36 720.399 252.923 719.001 252.923 717.188V715.908H256.251V717.444C256.251 718.895 256.859 719.62 258.075 719.62C258.672 719.62 259.12 719.449 259.419 719.108C259.739 718.745 259.899 718.169 259.899 717.38C259.899 716.441 259.685 715.62 259.259 714.916C258.832 714.191 258.043 713.327 256.891 712.324C255.44 711.044 254.427 709.892 253.851 708.868C253.275 707.823 252.987 706.649 252.987 705.348C252.987 703.577 253.435 702.212 254.331 701.252C255.227 700.271 256.528 699.78 258.235 699.78C259.92 699.78 261.189 700.271 262.043 701.252C262.917 702.212 263.355 703.599 263.355 705.412V706.34H260.027V705.188C260.027 704.42 259.877 703.865 259.579 703.524C259.28 703.161 258.843 702.98 258.267 702.98C257.093 702.98 256.507 703.695 256.507 705.124C256.507 705.935 256.72 706.692 257.147 707.396C257.595 708.1 258.395 708.953 259.547 709.956C261.019 711.236 262.032 712.399 262.587 713.444C263.141 714.489 263.419 715.716 263.419 717.124C263.419 718.959 262.96 720.367 262.043 721.348C261.147 722.329 259.835 722.82 258.107 722.82ZM268.063 700.1H272.831L276.479 722.5H272.959L272.319 718.052V718.116H268.319L267.679 722.5H264.415L268.063 700.1ZM271.903 715.076L270.335 704.004H270.271L268.735 715.076H271.903ZM278.187 700.1H281.707V719.3H287.499V722.5H278.187V700.1ZM293.763 722.82C292.056 722.82 290.766 722.34 289.891 721.38C289.016 720.399 288.579 719.001 288.579 717.188V715.908H291.907V717.444C291.907 718.895 292.515 719.62 293.731 719.62C294.328 719.62 294.776 719.449 295.075 719.108C295.395 718.745 295.555 718.169 295.555 717.38C295.555 716.441 295.342 715.62 294.915 714.916C294.488 714.191 293.699 713.327 292.547 712.324C291.096 711.044 290.083 709.892 289.507 708.868C288.931 707.823 288.643 706.649 288.643 705.348C288.643 703.577 289.091 702.212 289.987 701.252C290.883 700.271 292.184 699.78 293.891 699.78C295.576 699.78 296.846 700.271 297.699 701.252C298.574 702.212 299.011 703.599 299.011 705.412V706.34H295.683V705.188C295.683 704.42 295.534 703.865 295.235 703.524C294.936 703.161 294.499 702.98 293.923 702.98C292.75 702.98 292.163 703.695 292.163 705.124C292.163 705.935 292.376 706.692 292.803 707.396C293.251 708.1 294.051 708.953 295.203 709.956C296.675 711.236 297.688 712.399 298.243 713.444C298.798 714.489 299.075 715.716 299.075 717.124C299.075 718.959 298.616 720.367 297.699 721.348C296.803 722.329 295.491 722.82 293.763 722.82Z" fill="#030303"/>
<rect x="179.5" y="685.5" width="130" height="49" stroke="#030303"/>
<path d="M27.312 766.1H36.912V769.3H30.832V775.22H35.664V778.42H30.832V785.3H36.912V788.5H27.312V766.1ZM38.009 766.1H41.561L43.865 783.476H43.929L46.233 766.1H49.465L46.073 788.5H41.401L38.009 766.1ZM51.1558 766.1H60.7558V769.3H54.6758V775.22H59.5078V778.42H54.6758V785.3H60.7558V788.5H51.1558V766.1ZM62.7808 766.1H67.1968L70.6208 779.508H70.6848V766.1H73.8208V788.5H70.2048L65.9808 772.148H65.9168V788.5H62.7808V766.1ZM79.189 769.3H75.509V766.1H86.389V769.3H82.709V788.5H79.189V769.3ZM92.6693 788.82C90.9626 788.82 89.6719 788.34 88.7973 787.38C87.9226 786.399 87.4853 785.001 87.4853 783.188V781.908H90.8133V783.444C90.8133 784.895 91.4213 785.62 92.6373 785.62C93.2346 785.62 93.6826 785.449 93.9813 785.108C94.3013 784.745 94.4613 784.169 94.4613 783.38C94.4613 782.441 94.2479 781.62 93.8213 780.916C93.3946 780.191 92.6053 779.327 91.4533 778.324C90.0026 777.044 88.9893 775.892 88.4133 774.868C87.8373 773.823 87.5493 772.649 87.5493 771.348C87.5493 769.577 87.9973 768.212 88.8932 767.252C89.7893 766.271 91.0906 765.78 92.7973 765.78C94.4826 765.78 95.7519 766.271 96.6053 767.252C97.4799 768.212 97.9173 769.599 97.9173 771.412V772.34H94.5893V771.188C94.5893 770.42 94.4399 769.865 94.1413 769.524C93.8426 769.161 93.4053 768.98 92.8293 768.98C91.6559 768.98 91.0693 769.695 91.0693 771.124C91.0693 771.935 91.2826 772.692 91.7093 773.396C92.1573 774.1 92.9573 774.953 94.1093 775.956C95.5813 777.236 96.5946 778.399 97.1493 779.444C97.7039 780.489 97.9813 781.716 97.9813 783.124C97.9813 784.959 97.5226 786.367 96.6053 787.348C95.7093 788.329 94.3973 788.82 92.6693 788.82Z" fill="#030303"/>
<rect x="16.5" y="751.5" width="92" height="49" stroke="#030303"/>
<path d="M142.888 788.82C141.181 788.82 139.891 788.34 139.016 787.38C138.141 786.399 137.704 785.001 137.704 783.188V781.908H141.032V783.444C141.032 784.895 141.64 785.62 142.856 785.62C143.453 785.62 143.901 785.449 144.2 785.108C144.52 784.745 144.68 784.169 144.68 783.38C144.68 782.441 144.467 781.62 144.04 780.916C143.613 780.191 142.824 779.327 141.672 778.324C140.221 777.044 139.208 775.892 138.632 774.868C138.056 773.823 137.768 772.649 137.768 771.348C137.768 769.577 138.216 768.212 139.112 767.252C140.008 766.271 141.309 765.78 143.016 765.78C144.701 765.78 145.971 766.271 146.824 767.252C147.699 768.212 148.136 769.599 148.136 771.412V772.34H144.808V771.188C144.808 770.42 144.659 769.865 144.36 769.524C144.061 769.161 143.624 768.98 143.048 768.98C141.875 768.98 141.288 769.695 141.288 771.124C141.288 771.935 141.501 772.692 141.928 773.396C142.376 774.1 143.176 774.953 144.328 775.956C145.8 777.236 146.813 778.399 147.368 779.444C147.923 780.489 148.2 781.716 148.2 783.124C148.2 784.959 147.741 786.367 146.824 787.348C145.928 788.329 144.616 788.82 142.888 788.82ZM155.338 788.82C153.632 788.82 152.33 788.34 151.434 787.38C150.538 786.399 150.09 785.001 150.09 783.188V766.1H153.61V783.444C153.61 784.212 153.76 784.767 154.058 785.108C154.378 785.449 154.826 785.62 155.402 785.62C155.978 785.62 156.416 785.449 156.714 785.108C157.034 784.767 157.194 784.212 157.194 783.444V766.1H160.586V783.188C160.586 785.001 160.138 786.399 159.242 787.38C158.346 788.34 157.045 788.82 155.338 788.82ZM163.093 766.1H168.309C170.123 766.1 171.445 766.527 172.277 767.38C173.109 768.212 173.525 769.503 173.525 771.252V772.628C173.525 774.953 172.757 776.425 171.221 777.044V777.108C172.075 777.364 172.672 777.887 173.013 778.676C173.376 779.465 173.557 780.521 173.557 781.844V785.78C173.557 786.42 173.579 786.943 173.621 787.348C173.664 787.732 173.771 788.116 173.941 788.5H170.357C170.229 788.137 170.144 787.796 170.101 787.476C170.059 787.156 170.037 786.58 170.037 785.748V781.652C170.037 780.628 169.867 779.913 169.525 779.508C169.205 779.103 168.64 778.9 167.829 778.9H166.613V788.5H163.093V766.1ZM167.893 775.7C168.597 775.7 169.12 775.519 169.461 775.156C169.824 774.793 170.005 774.185 170.005 773.332V771.604C170.005 770.793 169.856 770.207 169.557 769.844C169.28 769.481 168.832 769.3 168.213 769.3H166.613V775.7H167.893ZM174.947 766.1H178.499L180.803 783.476H180.867L183.171 766.1H186.403L183.01 788.5H178.339L174.947 766.1ZM188.093 766.1H197.693V769.3H191.613V775.22H196.445V778.42H191.613V785.3H197.693V788.5H188.093V766.1ZM202.95 778.964L198.694 766.1H202.438L204.838 774.324H204.902L207.302 766.1H210.726L206.47 778.964V788.5H202.95V778.964ZM216.388 788.82C214.681 788.82 213.391 788.34 212.516 787.38C211.641 786.399 211.204 785.001 211.204 783.188V781.908H214.532V783.444C214.532 784.895 215.14 785.62 216.356 785.62C216.953 785.62 217.401 785.449 217.7 785.108C218.02 784.745 218.18 784.169 218.18 783.38C218.18 782.441 217.967 781.62 217.54 780.916C217.113 780.191 216.324 779.327 215.172 778.324C213.721 777.044 212.708 775.892 212.132 774.868C211.556 773.823 211.268 772.649 211.268 771.348C211.268 769.577 211.716 768.212 212.612 767.252C213.508 766.271 214.809 765.78 216.516 765.78C218.201 765.78 219.471 766.271 220.324 767.252C221.199 768.212 221.636 769.599 221.636 771.412V772.34H218.308V771.188C218.308 770.42 218.159 769.865 217.86 769.524C217.561 769.161 217.124 768.98 216.548 768.98C215.375 768.98 214.788 769.695 214.788 771.124C214.788 771.935 215.001 772.692 215.428 773.396C215.876 774.1 216.676 774.953 217.828 775.956C219.3 777.236 220.313 778.399 220.868 779.444C221.423 780.489 221.7 781.716 221.7 783.124C221.7 784.959 221.241 786.367 220.324 787.348C219.428 788.329 218.116 788.82 216.388 788.82Z" fill="#030303"/>
<rect x="127.5" y="751.5" width="105" height="49" stroke="#030303"/>
<path d="M262.312 766.1H266.728L270.152 779.508H270.216V766.1H273.352V788.5H269.736L265.512 772.148H265.448V788.5H262.312V766.1ZM275.968 766.1H285.568V769.3H279.488V775.22H284.32V778.42H279.488V785.3H285.568V788.5H275.968V766.1ZM286.761 766.1H290.153L291.721 783.316H291.785L293.449 766.1H297.289L298.953 783.316H299.017L300.585 766.1H303.625L301.353 788.5H296.969L295.369 773.396H295.305L293.705 788.5H289.033L286.761 766.1ZM309.982 788.82C308.275 788.82 306.984 788.34 306.11 787.38C305.235 786.399 304.798 785.001 304.798 783.188V781.908H308.126V783.444C308.126 784.895 308.734 785.62 309.95 785.62C310.547 785.62 310.995 785.449 311.294 785.108C311.614 784.745 311.774 784.169 311.774 783.38C311.774 782.441 311.56 781.62 311.134 780.916C310.707 780.191 309.918 779.327 308.766 778.324C307.315 777.044 306.302 775.892 305.726 774.868C305.15 773.823 304.862 772.649 304.862 771.348C304.862 769.577 305.31 768.212 306.206 767.252C307.102 766.271 308.403 765.78 310.11 765.78C311.795 765.78 313.064 766.271 313.918 767.252C314.792 768.212 315.23 769.599 315.23 771.412V772.34H311.902V771.188C311.902 770.42 311.752 769.865 311.454 769.524C311.155 769.161 310.718 768.98 310.142 768.98C308.968 768.98 308.382 769.695 308.382 771.124C308.382 771.935 308.595 772.692 309.022 773.396C309.47 774.1 310.27 774.953 311.422 775.956C312.894 777.236 313.907 778.399 314.462 779.444C315.016 780.489 315.294 781.716 315.294 783.124C315.294 784.959 314.835 786.367 313.918 787.348C313.022 788.329 311.71 788.82 309.982 788.82Z" fill="#030303"/>
<rect x="251.5" y="751.5" width="74" height="49" stroke="#030303"/>
<path d="M27.312 832.1H32.688C34.4373 832.1 35.7493 832.569 36.624 833.508C37.4987 834.447 37.936 835.823 37.936 837.636V848.964C37.936 850.777 37.4987 852.153 36.624 853.092C35.7493 854.031 34.4373 854.5 32.688 854.5H27.312V832.1ZM32.624 851.3C33.2 851.3 33.6373 851.129 33.936 850.788C34.256 850.447 34.416 849.892 34.416 849.124V837.476C34.416 836.708 34.256 836.153 33.936 835.812C33.6373 835.471 33.2 835.3 32.624 835.3H30.832V851.3H32.624ZM40.312 832.1H49.912V835.3H43.832V841.22H48.664V844.42H43.832V851.3H49.912V854.5H40.312V832.1ZM51.937 832.1H56.961L59.201 848.132H59.265L61.505 832.1H66.529V854.5H63.201V837.54H63.137L60.577 854.5H57.633L55.073 837.54H55.009V854.5H51.937V832.1ZM74.2438 854.82C72.5158 854.82 71.1931 854.329 70.2758 853.348C69.3584 852.367 68.8997 850.98 68.8997 849.188V837.412C68.8997 835.62 69.3584 834.233 70.2758 833.252C71.1931 832.271 72.5158 831.78 74.2438 831.78C75.9718 831.78 77.2944 832.271 78.2118 833.252C79.1291 834.233 79.5878 835.62 79.5878 837.412V849.188C79.5878 850.98 79.1291 852.367 78.2118 853.348C77.2944 854.329 75.9718 854.82 74.2438 854.82ZM74.2438 851.62C75.4598 851.62 76.0677 850.884 76.0677 849.412V837.188C76.0677 835.716 75.4598 834.98 74.2438 834.98C73.0278 834.98 72.4198 835.716 72.4198 837.188V849.412C72.4198 850.884 73.0278 851.62 74.2438 851.62ZM81.9683 832.1H86.3843L89.8083 845.508H89.8723V832.1H93.0083V854.5H89.3923L85.1683 838.148H85.1043V854.5H81.9683V832.1ZM100.201 854.82C98.4938 854.82 97.2032 854.34 96.3285 853.38C95.4538 852.399 95.0165 851.001 95.0165 849.188V847.908H98.3445V849.444C98.3445 850.895 98.9525 851.62 100.169 851.62C100.766 851.62 101.214 851.449 101.513 851.108C101.833 850.745 101.993 850.169 101.993 849.38C101.993 848.441 101.779 847.62 101.353 846.916C100.926 846.191 100.137 845.327 98.9845 844.324C97.5338 843.044 96.5205 841.892 95.9445 840.868C95.3685 839.823 95.0805 838.649 95.0805 837.348C95.0805 835.577 95.5285 834.212 96.4245 833.252C97.3205 832.271 98.6218 831.78 100.329 831.78C102.014 831.78 103.283 832.271 104.137 833.252C105.011 834.212 105.449 835.599 105.449 837.412V838.34H102.121V837.188C102.121 836.42 101.971 835.865 101.673 835.524C101.374 835.161 100.937 834.98 100.361 834.98C99.1872 834.98 98.6005 835.695 98.6005 837.124C98.6005 837.935 98.8138 838.692 99.2405 839.396C99.6885 840.1 100.489 840.953 101.641 841.956C103.113 843.236 104.126 844.399 104.681 845.444C105.235 846.489 105.513 847.716 105.513 849.124C105.513 850.959 105.054 852.367 104.137 853.348C103.241 854.329 101.929 854.82 100.201 854.82ZM110.283 835.3H106.603V832.1H117.483V835.3H113.803V854.5H110.283V835.3ZM119.187 832.1H124.403C126.216 832.1 127.539 832.527 128.371 833.38C129.203 834.212 129.619 835.503 129.619 837.252V838.628C129.619 840.953 128.851 842.425 127.315 843.044V843.108C128.168 843.364 128.766 843.887 129.107 844.676C129.47 845.465 129.651 846.521 129.651 847.844V851.78C129.651 852.42 129.672 852.943 129.715 853.348C129.758 853.732 129.864 854.116 130.035 854.5H126.451C126.323 854.137 126.238 853.796 126.195 853.476C126.152 853.156 126.131 852.58 126.131 851.748V847.652C126.131 846.628 125.96 845.913 125.619 845.508C125.299 845.103 124.734 844.9 123.923 844.9H122.707V854.5H119.187V832.1ZM123.987 841.7C124.691 841.7 125.214 841.519 125.555 841.156C125.918 840.793 126.099 840.185 126.099 839.332V837.604C126.099 836.793 125.95 836.207 125.651 835.844C125.374 835.481 124.926 835.3 124.307 835.3H122.707V841.7H123.987ZM134.813 832.1H139.581L143.229 854.5H139.709L139.069 850.052V850.116H135.069L134.429 854.5H131.165L134.813 832.1ZM138.653 847.076L137.085 836.004H137.021L135.485 847.076H138.653ZM146.22 835.3H142.54V832.1H153.42V835.3H149.74V854.5H146.22V835.3ZM155.125 832.1H158.645V854.5H155.125V832.1ZM166.369 854.82C164.641 854.82 163.318 854.329 162.401 853.348C161.483 852.367 161.025 850.98 161.025 849.188V837.412C161.025 835.62 161.483 834.233 162.401 833.252C163.318 832.271 164.641 831.78 166.369 831.78C168.097 831.78 169.419 832.271 170.337 833.252C171.254 834.233 171.713 835.62 171.713 837.412V849.188C171.713 850.98 171.254 852.367 170.337 853.348C169.419 854.329 168.097 854.82 166.369 854.82ZM166.369 851.62C167.585 851.62 168.193 850.884 168.193 849.412V837.188C168.193 835.716 167.585 834.98 166.369 834.98C165.153 834.98 164.545 835.716 164.545 837.188V849.412C164.545 850.884 165.153 851.62 166.369 851.62ZM174.093 832.1H178.509L181.933 845.508H181.997V832.1H185.133V854.5H181.517L177.293 838.148H177.229V854.5H174.093V832.1ZM192.326 854.82C190.619 854.82 189.328 854.34 188.454 853.38C187.579 852.399 187.142 851.001 187.142 849.188V847.908H190.47V849.444C190.47 850.895 191.078 851.62 192.294 851.62C192.891 851.62 193.339 851.449 193.638 851.108C193.958 850.745 194.118 850.169 194.118 849.38C194.118 848.441 193.904 847.62 193.478 846.916C193.051 846.191 192.262 845.327 191.11 844.324C189.659 843.044 188.646 841.892 188.07 840.868C187.494 839.823 187.206 838.649 187.206 837.348C187.206 835.577 187.654 834.212 188.549 833.252C189.446 832.271 190.747 831.78 192.454 831.78C194.139 831.78 195.408 832.271 196.262 833.252C197.136 834.212 197.574 835.599 197.574 837.412V838.34H194.246V837.188C194.246 836.42 194.096 835.865 193.798 835.524C193.499 835.161 193.062 834.98 192.486 834.98C191.312 834.98 190.726 835.695 190.726 837.124C190.726 837.935 190.939 838.692 191.366 839.396C191.814 840.1 192.614 840.953 193.766 841.956C195.238 843.236 196.251 844.399 196.806 845.444C197.36 846.489 197.638 847.716 197.638 849.124C197.638 850.959 197.179 852.367 196.262 853.348C195.366 854.329 194.054 854.82 192.326 854.82Z" fill="#030303"/>
<rect x="16.5" y="817.5" width="192" height="49" stroke="#030303"/>
<path d="M242.888 854.82C241.181 854.82 239.891 854.34 239.016 853.38C238.141 852.399 237.704 851.001 237.704 849.188V847.908H241.032V849.444C241.032 850.895 241.64 851.62 242.856 851.62C243.453 851.62 243.901 851.449 244.2 851.108C244.52 850.745 244.68 850.169 244.68 849.38C244.68 848.441 244.467 847.62 244.04 846.916C243.613 846.191 242.824 845.327 241.672 844.324C240.221 843.044 239.208 841.892 238.632 840.868C238.056 839.823 237.768 838.649 237.768 837.348C237.768 835.577 238.216 834.212 239.112 833.252C240.008 832.271 241.309 831.78 243.016 831.78C244.701 831.78 245.971 832.271 246.824 833.252C247.699 834.212 248.136 835.599 248.136 837.412V838.34H244.808V837.188C244.808 836.42 244.659 835.865 244.36 835.524C244.061 835.161 243.624 834.98 243.048 834.98C241.875 834.98 241.288 835.695 241.288 837.124C241.288 837.935 241.501 838.692 241.928 839.396C242.376 840.1 243.176 840.953 244.328 841.956C245.8 843.236 246.813 844.399 247.368 845.444C247.923 846.489 248.2 847.716 248.2 849.124C248.2 850.959 247.741 852.367 246.824 853.348C245.928 854.329 244.616 854.82 242.888 854.82ZM250.218 832.1H255.402C257.152 832.1 258.464 832.569 259.338 833.508C260.213 834.447 260.65 835.823 260.65 837.636V839.844C260.65 841.657 260.213 843.033 259.338 843.972C258.464 844.911 257.152 845.38 255.402 845.38H253.738V854.5H250.218V832.1ZM255.402 842.18C255.978 842.18 256.405 842.02 256.682 841.7C256.981 841.38 257.13 840.836 257.13 840.068V837.412C257.13 836.644 256.981 836.1 256.682 835.78C256.405 835.46 255.978 835.3 255.402 835.3H253.738V842.18H255.402ZM267.65 854.82C265.922 854.82 264.599 854.329 263.682 853.348C262.765 852.367 262.306 850.98 262.306 849.188V837.412C262.306 835.62 262.765 834.233 263.682 833.252C264.599 832.271 265.922 831.78 267.65 831.78C269.378 831.78 270.701 832.271 271.618 833.252C272.535 834.233 272.994 835.62 272.994 837.412V849.188C272.994 850.98 272.535 852.367 271.618 853.348C270.701 854.329 269.378 854.82 267.65 854.82ZM267.65 851.62C268.866 851.62 269.474 850.884 269.474 849.412V837.188C269.474 835.716 268.866 834.98 267.65 834.98C266.434 834.98 265.826 835.716 265.826 837.188V849.412C265.826 850.884 266.434 851.62 267.65 851.62ZM275.375 832.1H280.591C282.404 832.1 283.727 832.527 284.559 833.38C285.391 834.212 285.807 835.503 285.807 837.252V838.628C285.807 840.953 285.039 842.425 283.503 843.044V843.108C284.356 843.364 284.953 843.887 285.295 844.676C285.657 845.465 285.839 846.521 285.839 847.844V851.78C285.839 852.42 285.86 852.943 285.903 853.348C285.945 853.732 286.052 854.116 286.223 854.5H282.639C282.511 854.137 282.425 853.796 282.383 853.476C282.34 853.156 282.319 852.58 282.319 851.748V847.652C282.319 846.628 282.148 845.913 281.807 845.508C281.487 845.103 280.921 844.9 280.111 844.9H278.895V854.5H275.375V832.1ZM280.175 841.7C280.879 841.7 281.401 841.519 281.743 841.156C282.105 840.793 282.286 840.185 282.286 839.332V837.604C282.286 836.793 282.137 836.207 281.839 835.844C281.561 835.481 281.113 835.3 280.495 835.3H278.895V841.7H280.175ZM290.97 835.3H287.29V832.1H298.17V835.3H294.49V854.5H290.97V835.3ZM304.451 854.82C302.744 854.82 301.453 854.34 300.579 853.38C299.704 852.399 299.267 851.001 299.267 849.188V847.908H302.595V849.444C302.595 850.895 303.203 851.62 304.419 851.62C305.016 851.62 305.464 851.449 305.763 851.108C306.083 850.745 306.243 850.169 306.243 849.38C306.243 848.441 306.029 847.62 305.603 846.916C305.176 846.191 304.387 845.327 303.235 844.324C301.784 843.044 300.771 841.892 300.195 840.868C299.619 839.823 299.331 838.649 299.331 837.348C299.331 835.577 299.779 834.212 300.674 833.252C301.571 832.271 302.872 831.78 304.579 831.78C306.264 831.78 307.533 832.271 308.387 833.252C309.261 834.212 309.699 835.599 309.699 837.412V838.34H306.371V837.188C306.371 836.42 306.221 835.865 305.923 835.524C305.624 835.161 305.187 834.98 304.611 834.98C303.437 834.98 302.851 835.695 302.851 837.124C302.851 837.935 303.064 838.692 303.491 839.396C303.939 840.1 304.739 840.953 305.891 841.956C307.363 843.236 308.376 844.399 308.931 845.444C309.485 846.489 309.763 847.716 309.763 849.124C309.763 850.959 309.304 852.367 308.387 853.348C307.491 854.329 306.179 854.82 304.451 854.82Z" fill="#030303"/>
<rect x="227.5" y="817.5" width="93" height="49" stroke="#030303"/>
<g filter="url(#filter0_i_321_14226)">
<rect width="390" height="64" transform="translate(1 780)" fill="#F51E5F"/>
<path d="M165.977 818.266C168.375 818.266 170.156 816.93 170.531 814.867V814.852H169.109L169.094 814.867C168.742 816.164 167.547 816.969 165.977 816.969C163.805 816.969 162.445 815.195 162.445 812.375V812.359C162.445 809.539 163.805 807.758 165.969 807.758C167.523 807.758 168.727 808.672 169.102 810.117L169.109 810.133H170.523L170.531 810.117C170.195 807.953 168.344 806.461 165.969 806.461C162.906 806.461 161 808.727 161 812.359V812.375C161 816 162.914 818.266 165.977 818.266ZM177.257 818.266C180.476 818.266 182.429 815.961 182.429 812.367V812.352C182.429 808.742 180.46 806.461 177.257 806.461C174.069 806.461 172.085 808.734 172.085 812.352V812.367C172.085 815.969 174.023 818.266 177.257 818.266ZM177.257 816.969C174.913 816.969 173.523 815.156 173.523 812.367V812.352C173.523 809.539 174.96 807.758 177.257 807.758C179.562 807.758 180.991 809.539 180.991 812.352V812.367C180.991 815.156 179.569 816.969 177.257 816.969ZM184.498 818H185.889V809.258H186.014L192.131 818H193.498V806.727H192.108V815.5H191.983L185.866 806.727H184.498V818ZM196.005 818H197.412V813.117H202.404V811.867H197.412V807.992H202.849V806.727H196.005V818ZM204.794 818H206.2V806.727H204.794V818ZM208.707 818H210.113V813.539H212.887L215.301 818H216.949L214.34 813.32C215.754 812.875 216.605 811.656 216.605 810.094V810.078C216.605 808.055 215.183 806.727 213.012 806.727H208.707V818ZM210.113 812.289V807.977H212.824C214.277 807.977 215.152 808.781 215.152 810.125V810.141C215.152 811.516 214.332 812.289 212.887 812.289H210.113ZM218.792 818H220.104V809.391H220.19L223.753 818H224.94L228.503 809.391H228.589V818H229.901V806.727H228.269L224.409 816.133H224.284L220.425 806.727H218.792V818Z" fill="#FDFDFD"/>
</g>
<g filter="url(#filter1_d_321_14226)">
<rect width="390" height="60" transform="translate(0 83)" fill="white"/>
<path d="M26 123L16 113L26 103L27.4 104.425L18.825 113L27.4 121.575L26 123Z" fill="#4F4F4F"/>
<path d="M327.837 119H329.244V114.539H332.017L334.431 119H336.08L333.47 114.32C334.884 113.875 335.736 112.656 335.736 111.094V111.078C335.736 109.055 334.314 107.727 332.142 107.727H327.837V119ZM329.244 113.289V108.977H331.955C333.408 108.977 334.283 109.781 334.283 111.125V111.141C334.283 112.516 333.462 113.289 332.017 113.289H329.244ZM340.954 119.148C342.938 119.148 344.141 118.023 344.43 116.883L344.446 116.82H343.087L343.055 116.891C342.829 117.398 342.126 117.938 340.985 117.938C339.485 117.938 338.524 116.922 338.485 115.18H344.548V114.648C344.548 112.133 343.157 110.43 340.868 110.43C338.579 110.43 337.094 112.211 337.094 114.812V114.82C337.094 117.461 338.548 119.148 340.954 119.148ZM340.86 111.641C342.102 111.641 343.024 112.43 343.165 114.094H338.508C338.657 112.492 339.61 111.641 340.86 111.641ZM349.18 119.148C351.094 119.148 352.555 118.109 352.555 116.609V116.594C352.555 115.391 351.789 114.703 350.203 114.32L348.906 114.008C347.914 113.766 347.492 113.406 347.492 112.836V112.82C347.492 112.078 348.226 111.562 349.226 111.562C350.242 111.562 350.898 112.023 351.078 112.688H352.414C352.226 111.312 351 110.43 349.234 110.43C347.445 110.43 346.101 111.484 346.101 112.883V112.891C346.101 114.102 346.812 114.789 348.39 115.164L349.695 115.477C350.734 115.727 351.164 116.125 351.164 116.695V116.711C351.164 117.477 350.359 118.016 349.226 118.016C348.148 118.016 347.476 117.555 347.25 116.852H345.859C346.015 118.242 347.305 119.148 349.18 119.148ZM357.733 119.148C359.718 119.148 360.921 118.023 361.21 116.883L361.226 116.82H359.866L359.835 116.891C359.608 117.398 358.905 117.938 357.765 117.938C356.265 117.938 355.304 116.922 355.265 115.18H361.327V114.648C361.327 112.133 359.937 110.43 357.647 110.43C355.358 110.43 353.874 112.211 353.874 114.812V114.82C353.874 117.461 355.327 119.148 357.733 119.148ZM357.64 111.641C358.882 111.641 359.804 112.43 359.944 114.094H355.288C355.437 112.492 356.39 111.641 357.64 111.641ZM366.061 119.062C366.326 119.062 366.584 119.031 366.85 118.984V117.828C366.6 117.852 366.467 117.859 366.225 117.859C365.35 117.859 365.006 117.461 365.006 116.469V111.703H366.85V110.578H365.006V108.398H363.6V110.578H362.272V111.703H363.6V116.812C363.6 118.422 364.326 119.062 366.061 119.062Z" fill="#4F4F4F"/>
</g>
<rect width="390" height="47" fill="#FDFDFD"/>
<g clip-path="url(#clip1_321_14226)">
<path d="M118.26 -1H271.692V14C271.692 23.3888 264.129 31 254.8 31H135.152C125.823 31 118.26 23.3888 118.26 14V-1Z" fill="black"/>
<path d="M118.49 -1L117 -2C119.634 -2 118.291 1.14875 118.291 3.79934C118.291 3.86656 118.29 3.93345 118.287 4H118.49V-1Z" fill="black"/>
<path d="M271.51 -1L273 -2C270.366 -2 271.709 1.14875 271.709 3.79934C271.709 3.86656 271.71 3.93345 271.713 4H271.51V-1Z" fill="black"/>
<path d="M42.883 19.8145C40.2184 19.8145 38.2678 21.5493 38.2678 23.998V24.0146C38.2678 26.2642 39.8532 27.8994 42.1691 27.8994C43.7878 27.8994 44.9665 27.0859 45.4396 25.9736H45.4811C45.4894 26.1064 45.4811 26.2725 45.4728 26.4302C45.3815 28.5469 44.6179 30.2153 42.8664 30.2153C41.8869 30.2153 41.2228 29.7256 40.924 29.0034L40.8991 28.937H38.4255L38.4421 29.0117C38.799 30.8628 40.5422 32.2075 42.8581 32.2075C45.9792 32.2075 47.8801 29.8418 47.8801 25.9155V25.8989C47.8801 21.8398 45.7717 19.8145 42.883 19.8145ZM42.8913 26.0483C41.6462 26.0483 40.7082 25.1768 40.7082 23.9316V23.915C40.7082 22.728 41.696 21.8066 42.9162 21.8066C44.1447 21.8066 45.1076 22.7363 45.1076 23.9482V23.9565C45.1076 25.1768 44.1447 26.0483 42.8913 26.0483ZM50.203 24.3965C50.9501 24.3965 51.5477 23.8071 51.5477 23.0518C51.5477 22.3047 50.9501 21.707 50.203 21.707C49.4477 21.707 48.8583 22.3047 48.8583 23.0518C48.8583 23.8071 49.4477 24.3965 50.203 24.3965ZM50.203 30.3066C50.9501 30.3066 51.5477 29.709 51.5477 28.9619C51.5477 28.2065 50.9501 27.6172 50.203 27.6172C49.4477 27.6172 48.8583 28.2065 48.8583 28.9619C48.8583 29.709 49.4477 30.3066 50.203 30.3066ZM58.4029 32H60.7853V29.8003H62.3624V27.7998H60.7853V20.022H57.2491L52.443 27.7085V29.8003H58.4029V32ZM54.6261 27.8662V27.7998L58.3946 21.8315H58.4527V27.8662H54.6261ZM66.2044 32H68.6863V20.022H66.1961L63.0999 22.1719V24.3965L66.1546 22.3213H66.2044V32Z" fill="#030303"/>
<path opacity="0.35" d="M336.5 23C336.5 21.067 338.067 19.5 340 19.5H357C358.933 19.5 360.5 21.067 360.5 23V28C360.5 29.933 358.933 31.5 357 31.5H340C338.067 31.5 336.5 29.933 336.5 28V23Z" stroke="#030303"/>
<path opacity="0.4" d="M362 24V28.2203C362.849 27.8629 363.401 27.0314 363.401 26.1102C363.401 25.1889 362.849 24.3574 362 24Z" fill="#030303"/>
<path d="M338 23C338 21.8954 338.895 21 340 21H357C358.105 21 359 21.8954 359 23V28C359 29.1046 358.105 30 357 30H340C338.895 30 338 29.1046 338 28V23Z" fill="#030303"/>
<path fill-rule="evenodd" clip-rule="evenodd" d="M320.5 22.5875C322.967 22.5876 325.339 23.5551 327.127 25.2898C327.261 25.4237 327.477 25.4221 327.609 25.286L328.896 23.9605C328.963 23.8915 329.001 23.798 329 23.7008C328.999 23.6035 328.961 23.5105 328.893 23.4423C324.201 18.8526 316.799 18.8526 312.107 23.4423C312.039 23.5105 312.001 23.6034 312 23.7007C311.999 23.7979 312.037 23.8914 312.104 23.9605L313.391 25.286C313.523 25.4223 313.739 25.424 313.873 25.2898C315.661 23.5549 318.034 22.5875 320.5 22.5875ZM320.536 26.5894C321.891 26.5893 323.198 27.1035 324.203 28.032C324.338 28.1638 324.552 28.1609 324.685 28.0255L325.97 26.7C326.038 26.6304 326.075 26.5361 326.074 26.4381C326.073 26.3401 326.034 26.2466 325.965 26.1784C322.906 23.2739 318.169 23.2739 315.109 26.1784C315.04 26.2466 315.001 26.3401 315 26.4382C314.999 26.5362 315.037 26.6305 315.105 26.7L316.39 28.0255C316.522 28.1609 316.736 28.1638 316.872 28.032C317.876 27.1041 319.182 26.5899 320.536 26.5894ZM323.15 29.1767C323.152 29.275 323.114 29.3698 323.045 29.4386L320.822 31.7289C320.756 31.7962 320.668 31.834 320.575 31.834C320.482 31.834 320.393 31.7962 320.328 31.7289L318.105 29.4386C318.036 29.3697 317.998 29.2749 318 29.1766C318.002 29.0783 318.044 28.9853 318.115 28.9194C319.535 27.6935 321.615 27.6935 323.035 28.9194C323.106 28.9853 323.148 29.0784 323.15 29.1767Z" fill="#030303"/>
<path d="M296 23C296 22.4477 296.448 22 297 22H298C298.552 22 299 22.4477 299 23V31C299 31.5523 298.552 32 298 32H297C296.448 32 296 31.5523 296 31V23Z" fill="#030303"/>
<path d="M301 21C301 20.4477 301.448 20 302 20H303C303.552 20 304 20.4477 304 21V31C304 31.5523 303.552 32 303 32H302C301.448 32 301 31.5523 301 31V21Z" fill="#030303"/>
<path d="M291 26.5C291 25.9477 291.448 25.5 292 25.5H293C293.552 25.5 294 25.9477 294 26.5V31C294 31.5523 293.552 32 293 32H292C291.448 32 291 31.5523 291 31V26.5Z" fill="#030303"/>
<path d="M286 29C286 28.4477 286.448 28 287 28H288C288.552 28 289 28.4477 289 29V31C289 31.5523 288.552 32 288 32H287C286.448 32 286 31.5523 286 31V29Z" fill="#030303"/>
</g>
<rect width="390" height="36" transform="translate(0 47)" fill="white"/>
<path d="M164.7 57.7H169.768V54.9H161.62V74.5H164.7V66.408H168.676V63.608H164.7V57.7ZM177.078 54.9H172.57L169.434 74.5H172.262L172.794 70.944H176.574L177.106 74.5H180.214L177.078 54.9ZM174.67 58.372L176.154 68.284H173.186L174.67 58.372ZM188.032 74.5H191.196L186.94 63.608L191.196 54.9H188.368L184.084 63.804V54.9H181.004V74.5H184.084V68.2L185.008 66.576L188.032 74.5ZM191.704 54.9V69.824C191.704 72.96 193.272 74.752 196.296 74.752C199.32 74.752 200.888 72.96 200.888 69.824V54.9H197.976V70.02C197.976 71.42 197.36 71.924 196.38 71.924C195.4 71.924 194.784 71.42 194.784 70.02V54.9H191.704ZM202.356 74.5H210.505V71.7H205.436V54.9H202.356V74.5ZM209.021 57.7H212.241V74.5H215.321V57.7H218.541V54.9H209.021V57.7ZM222.191 74.5H225.271V68.004L229.163 54.9H226.223L223.871 63.832L221.519 54.9H218.299L222.191 68.004V74.5Z" fill="#030303"/>
</g>
<defs>
<filter id="filter0_i_321_14226" x="1" y="779" width="390" height="65" filterUnits="userSpaceOnUse" color-interpolation-filters="sRGB">
<feFlood flood-opacity="0" result="BackgroundImageFix"/>
<feBlend mode="normal" in="SourceGraphic" in2="BackgroundImageFix" result="shape"/>
<feColorMatrix in="SourceAlpha" type="matrix" values="0 0 0 0 0 0 0 0 0 0 0 0 0 0 0 0 0 0 127 0" result="hardAlpha"/>
<feOffset dy="-1"/>
<feGaussianBlur stdDeviation="0.5"/>
<feComposite in2="hardAlpha" operator="arithmetic" k2="-1" k3="1"/>
<feColorMatrix type="matrix" values="0 0 0 0 1 0 0 0 0 1 0 0 0 0 1 0 0 0 0.2 0"/>
<feBlend mode="normal" in2="shape" result="effect1_innerShadow_321_14226"/>
</filter>
<filter id="filter1_d_321_14226" x="-4" y="82" width="398" height="68" filterUnits="userSpaceOnUse" color-interpolation-filters="sRGB">
<feFlood flood-opacity="0" result="BackgroundImageFix"/>
<feColorMatrix in="SourceAlpha" type="matrix" values="0 0 0 0 0 0 0 0 0 0 0 0 0 0 0 0 0 0 127 0" result="hardAlpha"/>
<feOffset dy="3"/>
<feGaussianBlur stdDeviation="2"/>
<feComposite in2="hardAlpha" operator="out"/>
<feColorMatrix type="matrix" values="0 0 0 0 0 0 0 0 0 0 0 0 0 0 0 0 0 0 0.2 0"/>
<feBlend mode="normal" in2="BackgroundImageFix" result="effect1_dropShadow_321_14226"/>
<feBlend mode="normal" in="SourceGraphic" in2="effect1_dropShadow_321_14226" result="shape"/>
</filter>
<clipPath id="clip0_321_14226">
<rect width="390" height="844" fill="white"/>
</clipPath>
<clipPath id="clip1_321_14226">
<rect width="390" height="47" fill="white"/>
</clipPath>
</defs>
</svg>
