<svg width="390" height="844" viewBox="0 0 390 844" fill="none" xmlns="http://www.w3.org/2000/svg">
<g clip-path="url(#clip0_301_8569)">
<rect width="390" height="844" fill="white"/>
<g filter="url(#filter0_i_301_8569)">
<rect width="390" height="64" transform="translate(0 692)" fill="#F51E5F"/>
<path d="M172.438 730H173.828V721.258H173.953L180.07 730H181.438V718.727H180.047V727.5H179.922L173.805 718.727H172.438V730ZM187.21 730.148C189.194 730.148 190.398 729.023 190.687 727.883L190.702 727.82H189.343L189.312 727.891C189.085 728.398 188.382 728.938 187.241 728.938C185.741 728.938 184.78 727.922 184.741 726.18H190.804V725.648C190.804 723.133 189.413 721.43 187.124 721.43C184.835 721.43 183.351 723.211 183.351 725.812V725.82C183.351 728.461 184.804 730.148 187.21 730.148ZM187.116 722.641C188.359 722.641 189.28 723.43 189.421 725.094H184.765C184.913 723.492 185.866 722.641 187.116 722.641ZM191.561 730H193.084L195.084 726.82H195.209L197.201 730H198.795L195.897 725.734L198.756 721.578H197.233L195.256 724.711H195.131L193.131 721.578H191.53L194.444 725.789L191.561 730ZM203.248 730.062C203.513 730.062 203.771 730.031 204.037 729.984V728.828C203.787 728.852 203.654 728.859 203.412 728.859C202.537 728.859 202.193 728.461 202.193 727.469V722.703H204.037V721.578H202.193V719.398H200.787V721.578H199.458V722.703H200.787V727.812C200.787 729.422 201.513 730.062 203.248 730.062ZM217.543 724.805L209.668 721.328V722.664L216.301 725.484L209.668 728.312V729.602L217.543 726.125V724.805Z" fill="#FDFDFD"/>
</g>
<path d="M20.085 108.7H24.219L26.13 129.682H26.208L28.236 108.7H32.916L34.944 129.682H35.022L36.933 108.7H40.638L37.869 136H32.526L30.576 117.592H30.498L28.548 136H22.854L20.085 108.7ZM42.808 108.7H47.098V119.815H51.7V108.7H55.99V136H51.7V123.715H47.098V136H42.808V108.7ZM65.3859 136.39C63.2799 136.39 61.6679 135.792 60.5499 134.596C59.4319 133.4 58.8729 131.71 58.8729 129.526V115.174C58.8729 112.99 59.4319 111.3 60.5499 110.104C61.6679 108.908 63.2799 108.31 65.3859 108.31C67.4919 108.31 69.1039 108.908 70.2219 110.104C71.3399 111.3 71.8989 112.99 71.8989 115.174V129.526C71.8989 131.71 71.3399 133.4 70.2219 134.596C69.1039 135.792 67.4919 136.39 65.3859 136.39ZM65.3859 132.49C66.8679 132.49 67.6089 131.593 67.6089 129.799V114.901C67.6089 113.107 66.8679 112.21 65.3859 112.21C63.9039 112.21 63.1629 113.107 63.1629 114.901V129.799C63.1629 131.593 63.9039 132.49 65.3859 132.49ZM81.0463 108.7H87.5983C89.7303 108.7 91.3293 109.272 92.3953 110.416C93.4613 111.56 93.9943 113.237 93.9943 115.447V129.253C93.9943 131.463 93.4613 133.14 92.3953 134.284C91.3293 135.428 89.7303 136 87.5983 136H81.0463V108.7ZM87.5203 132.1C88.2223 132.1 88.7553 131.892 89.1193 131.476C89.5093 131.06 89.7043 130.384 89.7043 129.448V115.252C89.7043 114.316 89.5093 113.64 89.1193 113.224C88.7553 112.808 88.2223 112.6 87.5203 112.6H85.3363V132.1H87.5203ZM103.091 136.39C100.985 136.39 99.373 135.792 98.255 134.596C97.137 133.4 96.578 131.71 96.578 129.526V115.174C96.578 112.99 97.137 111.3 98.255 110.104C99.373 108.908 100.985 108.31 103.091 108.31C105.197 108.31 106.809 108.908 107.927 110.104C109.045 111.3 109.604 112.99 109.604 115.174V129.526C109.604 131.71 109.045 133.4 107.927 134.596C106.809 135.792 105.197 136.39 103.091 136.39ZM103.091 132.49C104.573 132.49 105.314 131.593 105.314 129.799V114.901C105.314 113.107 104.573 112.21 103.091 112.21C101.609 112.21 100.868 113.107 100.868 114.901V129.799C100.868 131.593 101.609 132.49 103.091 132.49ZM122.69 124.378L117.503 108.7H122.066L124.991 118.723H125.069L127.994 108.7H132.167L126.98 124.378V136H122.69V124.378ZM139.615 136.39C137.509 136.39 135.897 135.792 134.779 134.596C133.661 133.4 133.102 131.71 133.102 129.526V115.174C133.102 112.99 133.661 111.3 134.779 110.104C135.897 108.908 137.509 108.31 139.615 108.31C141.721 108.31 143.333 108.908 144.451 110.104C145.569 111.3 146.128 112.99 146.128 115.174V129.526C146.128 131.71 145.569 133.4 144.451 134.596C143.333 135.792 141.721 136.39 139.615 136.39ZM139.615 132.49C141.097 132.49 141.838 131.593 141.838 129.799V114.901C141.838 113.107 141.097 112.21 139.615 112.21C138.133 112.21 137.392 113.107 137.392 114.901V129.799C137.392 131.593 138.133 132.49 139.615 132.49ZM155.27 136.39C153.19 136.39 151.604 135.805 150.512 134.635C149.42 133.439 148.874 131.736 148.874 129.526V108.7H153.164V129.838C153.164 130.774 153.346 131.45 153.71 131.866C154.1 132.282 154.646 132.49 155.348 132.49C156.05 132.49 156.583 132.282 156.947 131.866C157.337 131.45 157.532 130.774 157.532 129.838V108.7H161.666V129.526C161.666 131.736 161.12 133.439 160.028 134.635C158.936 135.805 157.35 136.39 155.27 136.39ZM169.953 108.7H174.087L175.998 129.682H176.076L178.104 108.7H182.784L184.812 129.682H184.89L186.801 108.7H190.506L187.737 136H182.394L180.444 117.592H180.366L178.416 136H172.722L169.953 108.7ZM195.458 108.7H201.269L205.715 136H201.425L200.645 130.579V130.657H195.77L194.99 136H191.012L195.458 108.7ZM200.138 126.952L198.227 113.458H198.149L196.277 126.952H200.138ZM207.796 108.7H213.178L217.351 125.041H217.429V108.7H221.251V136H216.844L211.696 116.071H211.618V136H207.796V108.7ZM227.794 112.6H223.309V108.7H236.569V112.6H232.084V136H227.794V112.6ZM248.246 112.6H243.761V108.7H257.021V112.6H252.536V136H248.246V112.6ZM265.147 136.39C263.041 136.39 261.429 135.792 260.311 134.596C259.193 133.4 258.634 131.71 258.634 129.526V115.174C258.634 112.99 259.193 111.3 260.311 110.104C261.429 108.908 263.041 108.31 265.147 108.31C267.253 108.31 268.865 108.908 269.983 110.104C271.101 111.3 271.66 112.99 271.66 115.174V129.526C271.66 131.71 271.101 133.4 269.983 134.596C268.865 135.792 267.253 136.39 265.147 136.39ZM265.147 132.49C266.629 132.49 267.37 131.593 267.37 129.799V114.901C267.37 113.107 266.629 112.21 265.147 112.21C263.665 112.21 262.924 113.107 262.924 114.901V129.799C262.924 131.593 263.665 132.49 265.147 132.49ZM280.807 108.7H287.164C289.374 108.7 290.986 109.22 292 110.26C293.014 111.274 293.521 112.847 293.521 114.979V116.656C293.521 119.49 292.585 121.284 290.713 122.038V122.116C291.753 122.428 292.481 123.065 292.897 124.027C293.339 124.989 293.56 126.276 293.56 127.888V132.685C293.56 133.465 293.586 134.102 293.638 134.596C293.69 135.064 293.82 135.532 294.028 136H289.66C289.504 135.558 289.4 135.142 289.348 134.752C289.296 134.362 289.27 133.66 289.27 132.646V127.654C289.27 126.406 289.062 125.535 288.646 125.041C288.256 124.547 287.567 124.3 286.579 124.3H285.097V136H280.807V108.7ZM286.657 120.4C287.515 120.4 288.152 120.179 288.568 119.737C289.01 119.295 289.231 118.554 289.231 117.514V115.408C289.231 114.42 289.049 113.705 288.685 113.263C288.347 112.821 287.801 112.6 287.047 112.6H285.097V120.4H286.657ZM296.537 108.7H308.237V112.6H300.827V119.815H306.716V123.715H300.827V132.1H308.237V136H296.537V108.7ZM314.019 108.7H319.83L324.276 136H319.986L319.206 130.579V130.657H314.331L313.551 136H309.573L314.019 108.7ZM318.699 126.952L316.788 113.458H316.71L314.838 126.952H318.699ZM332.327 136.39C330.273 136.39 328.7 135.805 327.608 134.635C326.542 133.465 326.009 131.814 326.009 129.682V115.018C326.009 112.886 326.542 111.235 327.608 110.065C328.7 108.895 330.273 108.31 332.327 108.31C334.381 108.31 335.941 108.895 337.007 110.065C338.099 111.235 338.645 112.886 338.645 115.018V117.904H334.589V114.745C334.589 113.055 333.874 112.21 332.444 112.21C331.014 112.21 330.299 113.055 330.299 114.745V129.994C330.299 131.658 331.014 132.49 332.444 132.49C333.874 132.49 334.589 131.658 334.589 129.994V125.821H338.645V129.682C338.645 131.814 338.099 133.465 337.007 134.635C335.941 135.805 334.381 136.39 332.327 136.39ZM341.211 108.7H345.501V119.815H350.103V108.7H354.393V136H350.103V123.715H345.501V136H341.211V108.7ZM360.552 127.147C360.552 126.185 360.695 125.275 360.981 124.417C361.293 123.533 361.852 122.519 362.658 121.375C363.594 120.049 364.231 118.905 364.569 117.943C364.907 116.981 365.076 115.967 365.076 114.901C365.076 113.965 364.894 113.289 364.53 112.873C364.166 112.431 363.633 112.21 362.931 112.21C362.229 112.21 361.696 112.431 361.332 112.873C360.968 113.289 360.786 113.965 360.786 114.901V117.865H356.73V115.174C356.73 112.964 357.263 111.274 358.329 110.104C359.395 108.908 360.955 108.31 363.009 108.31C365.089 108.31 366.662 108.908 367.728 110.104C368.82 111.274 369.366 112.964 369.366 115.174C369.366 116.37 369.145 117.527 368.703 118.645C368.287 119.737 367.559 120.972 366.519 122.35C365.687 123.468 365.102 124.404 364.764 125.158C364.452 125.886 364.296 126.601 364.296 127.303V128.785H360.552V127.147ZM360.357 131.866H364.491V136H360.357V131.866Z" fill="#030303"/>
<path d="M25.5732 161.325C28.7373 161.325 30.6885 159.734 30.6885 157.221V157.212C30.6885 155.234 29.5195 154.162 26.8389 153.608L25.4941 153.336C24 153.028 23.3848 152.536 23.3848 151.71V151.701C23.3848 150.752 24.2549 150.154 25.5645 150.146C26.9004 150.146 27.7793 150.778 27.9287 151.684L27.9463 151.789H30.4424L30.4336 151.675C30.2666 149.557 28.5264 147.992 25.5645 147.992C22.752 147.992 20.7305 149.548 20.7305 151.903V151.912C20.7305 153.837 21.8643 155.067 24.501 155.604L25.8369 155.876C27.4102 156.201 28.0342 156.667 28.0342 157.502V157.511C28.0342 158.486 27.0586 159.163 25.6436 159.163C24.1582 159.163 23.1299 158.521 23.0332 157.572L23.0244 157.484H20.4668L20.4756 157.625C20.625 159.875 22.541 161.325 25.5732 161.325ZM36.7872 161.202C39.6173 161.202 40.8653 159.567 41.1641 158.354L41.1817 158.267H38.7911L38.7647 158.319C38.5889 158.688 37.9649 159.286 36.8399 159.286C35.4776 159.286 34.6251 158.363 34.5987 156.772H41.2608V155.973C41.2608 153.046 39.503 151.112 36.6817 151.112C33.8604 151.112 32.0587 153.09 32.0587 156.166V156.175C32.0587 159.277 33.8428 161.202 36.7872 161.202ZM36.7256 153.037C37.8419 153.037 38.6417 153.758 38.7999 155.164H34.6251C34.7833 153.793 35.6094 153.037 36.7256 153.037ZM43.0353 161H45.6017V147.623H43.0353V161ZM52.0959 161.202C54.926 161.202 56.174 159.567 56.4728 158.354L56.4904 158.267H54.0998L54.0734 158.319C53.8976 158.688 53.2736 159.286 52.1486 159.286C50.7863 159.286 49.9338 158.363 49.9074 156.772H56.5695V155.973C56.5695 153.046 54.8117 151.112 51.9904 151.112C49.1691 151.112 47.3674 153.09 47.3674 156.166V156.175C47.3674 159.277 49.1516 161.202 52.0959 161.202ZM52.0344 153.037C53.1506 153.037 53.9504 153.758 54.1086 155.164H49.9338C50.092 153.793 50.9182 153.037 52.0344 153.037ZM62.5188 161.202C65.0413 161.202 66.553 159.849 66.8167 157.739L66.8254 157.687H64.4524L64.4348 157.722C64.2063 158.688 63.5823 159.189 62.5276 159.189C61.1565 159.189 60.3919 158.108 60.3919 156.148V156.131C60.3919 154.197 61.1477 153.125 62.5276 153.125C63.6262 153.125 64.2678 153.74 64.4348 154.681L64.4436 154.698H66.8342V154.672C66.6057 152.51 65.0852 151.112 62.5188 151.112C59.4866 151.112 57.7815 152.949 57.7815 156.131V156.148C57.7815 159.365 59.4954 161.202 62.5188 161.202ZM72.5286 161.035C73.0208 161.035 73.4954 160.982 73.8118 160.921V159.014C73.5657 159.04 73.39 159.058 73.056 159.058C72.1859 159.058 71.8167 158.671 71.8167 157.801V153.257H73.8118V151.323H71.8167V149.012H69.2239V151.323H67.7298V153.257H69.2239V158.39C69.2239 160.271 70.1732 161.035 72.5286 161.035ZM80.9116 164.41C83.3022 164.41 84.5766 163.549 85.4379 160.991L88.7338 151.323H86.0268L83.9965 158.653H83.8208L81.7905 151.323H78.9692L82.3706 161L82.2827 161.369C82.0981 162.125 81.5708 162.477 80.6567 162.477C80.4194 162.477 80.1645 162.468 79.9887 162.45V164.384C80.2875 164.401 80.6127 164.41 80.9116 164.41ZM93.9976 161.202C96.9771 161.202 98.77 159.321 98.77 156.166V156.148C98.77 153.02 96.9507 151.112 93.9976 151.112C91.0444 151.112 89.2251 153.028 89.2251 156.148V156.166C89.2251 159.312 91.0181 161.202 93.9976 161.202ZM93.9976 159.189C92.6265 159.189 91.853 158.073 91.853 156.166V156.148C91.853 154.259 92.6353 153.125 93.9976 153.125C95.3511 153.125 96.1421 154.259 96.1421 156.148V156.166C96.1421 158.073 95.3599 159.189 93.9976 159.189ZM103.647 161.202C105.027 161.202 106.011 160.561 106.451 159.506H106.609V161H109.175V151.323H106.609V156.913C106.609 158.223 105.923 159.075 104.658 159.075C103.445 159.075 102.926 158.363 102.926 156.992V151.323H100.36V157.581C100.36 159.884 101.476 161.202 103.647 161.202ZM111.337 161H113.903V155.586C113.903 154.215 114.826 153.38 116.285 153.38C116.68 153.38 117.076 153.441 117.463 153.529V151.288C117.208 151.218 116.847 151.165 116.505 151.165C115.248 151.165 114.369 151.78 114.061 152.826H113.903V151.323H111.337V161ZM122.989 161H125.555V155.586C125.555 154.215 126.478 153.38 127.937 153.38C128.333 153.38 128.728 153.441 129.115 153.529V151.288C128.86 151.218 128.5 151.165 128.157 151.165C126.9 151.165 126.021 151.78 125.714 152.826H125.555V151.323H122.989V161ZM132.876 161.149C134.141 161.149 135.161 160.613 135.653 159.717H135.811V161H138.343V154.391C138.343 152.325 136.892 151.112 134.326 151.112C131.891 151.112 130.292 152.237 130.09 153.934L130.081 154.013H132.454L132.472 153.978C132.674 153.406 133.263 153.081 134.185 153.081C135.24 153.081 135.811 153.556 135.811 154.391V155.19L133.473 155.331C131.065 155.472 129.721 156.491 129.721 158.231V158.249C129.721 160.007 131.03 161.149 132.876 161.149ZM132.225 158.091V158.073C132.225 157.37 132.762 156.957 133.86 156.887L135.811 156.764V157.476C135.811 158.495 134.924 159.277 133.737 159.277C132.849 159.277 132.225 158.829 132.225 158.091ZM140.442 161H143.009V155.401C143.009 154.092 143.729 153.239 144.916 153.239C146.129 153.239 146.691 153.96 146.691 155.322V161H149.258V154.742C149.258 152.431 148.098 151.112 145.944 151.112C144.564 151.112 143.606 151.771 143.167 152.817H143.009V151.323H140.442V161ZM155.602 164.401C158.529 164.401 160.384 162.969 160.384 160.701V151.323H157.817V152.905H157.694C157.176 151.815 156.139 151.165 154.811 151.165C152.333 151.165 150.83 153.081 150.83 155.929V155.946C150.83 158.697 152.333 160.578 154.768 160.578C156.112 160.578 157.132 160.024 157.668 159.005H157.826V160.807C157.826 161.932 157.026 162.573 155.655 162.573C154.513 162.573 153.845 162.187 153.704 161.624L153.695 161.589H151.155V161.633C151.366 163.276 152.922 164.401 155.602 164.401ZM155.638 158.609C154.249 158.609 153.458 157.528 153.458 155.938V155.92C153.458 154.329 154.258 153.248 155.638 153.248C157.018 153.248 157.852 154.329 157.852 155.92V155.938C157.852 157.528 157.026 158.609 155.638 158.609ZM166.79 161.202C169.62 161.202 170.868 159.567 171.167 158.354L171.185 158.267H168.794L168.768 158.319C168.592 158.688 167.968 159.286 166.843 159.286C165.48 159.286 164.628 158.363 164.602 156.772H171.264V155.973C171.264 153.046 169.506 151.112 166.685 151.112C163.863 151.112 162.062 153.09 162.062 156.166V156.175C162.062 159.277 163.846 161.202 166.79 161.202ZM166.729 153.037C167.845 153.037 168.645 153.758 168.803 155.164H164.628C164.786 153.793 165.612 153.037 166.729 153.037Z" fill="#AFAFAF"/>
<path d="M17.3672 210H19.7266V206.445H22.0156C24.3906 206.445 25.9766 204.914 25.9766 202.594V202.578C25.9766 200.258 24.3906 198.727 22.0156 198.727H17.3672V210ZM21.4375 200.594C22.7891 200.594 23.5859 201.305 23.5859 202.586V202.602C23.5859 203.883 22.7891 204.602 21.4375 204.602H19.7266V200.594H21.4375ZM27.5539 210H29.8351V205.188C29.8351 203.969 30.6554 203.227 31.9523 203.227C32.3039 203.227 32.6554 203.281 32.9992 203.359V201.367C32.7726 201.305 32.4523 201.258 32.1476 201.258C31.0304 201.258 30.2492 201.805 29.9757 202.734H29.8351V201.398H27.5539V210ZM35.3187 200.078C36.0218 200.078 36.5999 199.516 36.5999 198.812C36.5999 198.102 36.0218 197.539 35.3187 197.539C34.6156 197.539 34.0296 198.102 34.0296 198.812C34.0296 199.516 34.6156 200.078 35.3187 200.078ZM34.1702 210H36.4515V201.398H34.1702V210ZM40.6304 210H43.1929L46.1694 201.398H43.771L42.0054 207.867H41.8647L40.0835 201.398H37.6382L40.6304 210ZM49.403 210.133C50.528 210.133 51.4342 209.656 51.8717 208.859H52.0124V210H54.2624V204.125C54.2624 202.289 52.9733 201.211 50.6921 201.211C48.528 201.211 47.1061 202.211 46.9264 203.719L46.9186 203.789H49.028L49.0436 203.758C49.2233 203.25 49.7467 202.961 50.5671 202.961C51.5046 202.961 52.0124 203.383 52.0124 204.125V204.836L49.9342 204.961C47.7936 205.086 46.5983 205.992 46.5983 207.539V207.555C46.5983 209.117 47.7624 210.133 49.403 210.133ZM48.8249 207.414V207.398C48.8249 206.773 49.3014 206.406 50.278 206.344L52.0124 206.234V206.867C52.0124 207.773 51.2233 208.469 50.1686 208.469C49.3796 208.469 48.8249 208.07 48.8249 207.414ZM59.6991 210.031C60.1366 210.031 60.5584 209.984 60.8397 209.93V208.234C60.6209 208.258 60.4647 208.273 60.1678 208.273C59.3944 208.273 59.0662 207.93 59.0662 207.156V203.117H60.8397V201.398H59.0662V199.344H56.7616V201.398H55.4334V203.117H56.7616V207.68C56.7616 209.352 57.6053 210.031 59.6991 210.031ZM66.0889 210.18C68.6045 210.18 69.7139 208.727 69.9795 207.648L69.9951 207.57H67.8701L67.8467 207.617C67.6904 207.945 67.1357 208.477 66.1357 208.477C64.9248 208.477 64.167 207.656 64.1436 206.242H70.0654V205.531C70.0654 202.93 68.5029 201.211 65.9951 201.211C63.4873 201.211 61.8857 202.969 61.8857 205.703V205.711C61.8857 208.469 63.4717 210.18 66.0889 210.18ZM66.0342 202.922C67.0264 202.922 67.7373 203.562 67.8779 204.812H64.167C64.3076 203.594 65.042 202.922 66.0342 202.922ZM75.5482 210H77.9076V206.445H80.1966C82.5716 206.445 84.1576 204.914 84.1576 202.594V202.578C84.1576 200.258 82.5716 198.727 80.1966 198.727H75.5482V210ZM79.6185 200.594C80.9701 200.594 81.7669 201.305 81.7669 202.586V202.602C81.7669 203.883 80.9701 204.602 79.6185 204.602H77.9076V200.594H79.6185ZM88.5786 210.18C89.8052 210.18 90.6802 209.609 91.0708 208.672H91.2114V210H93.4927V201.398H91.2114V206.367C91.2114 207.531 90.6021 208.289 89.4771 208.289C88.3989 208.289 87.938 207.656 87.938 206.438V201.398H85.6568V206.961C85.6568 209.008 86.6489 210.18 88.5786 210.18ZM100.492 210.133C102.64 210.133 103.984 208.453 103.984 205.703V205.688C103.984 202.922 102.672 201.258 100.492 201.258C99.3122 201.258 98.3512 201.836 97.9137 202.773H97.7731V198.109H95.4919V210H97.7731V208.664H97.9137C98.3591 209.594 99.2731 210.133 100.492 210.133ZM99.7106 208.242C98.5075 208.242 97.7497 207.289 97.7497 205.711V205.695C97.7497 204.117 98.5153 203.148 99.7106 203.148C100.914 203.148 101.664 204.117 101.664 205.688V205.703C101.664 207.289 100.922 208.242 99.7106 208.242ZM105.546 210H107.827V198.109H105.546V210ZM110.982 200.078C111.686 200.078 112.264 199.516 112.264 198.812C112.264 198.102 111.686 197.539 110.982 197.539C110.279 197.539 109.693 198.102 109.693 198.812C109.693 199.516 110.279 200.078 110.982 200.078ZM109.834 210H112.115V201.398H109.834V210ZM117.833 210.18C120.075 210.18 121.419 208.977 121.654 207.102L121.661 207.055H119.552L119.536 207.086C119.333 207.945 118.779 208.391 117.841 208.391C116.622 208.391 115.943 207.43 115.943 205.688V205.672C115.943 203.953 116.614 203 117.841 203C118.818 203 119.388 203.547 119.536 204.383L119.544 204.398H121.669V204.375C121.466 202.453 120.114 201.211 117.833 201.211C115.138 201.211 113.622 202.844 113.622 205.672V205.688C113.622 208.547 115.146 210.18 117.833 210.18ZM125.426 210.133C126.551 210.133 127.457 209.656 127.895 208.859H128.035V210H130.285V204.125C130.285 202.289 128.996 201.211 126.715 201.211C124.551 201.211 123.129 202.211 122.95 203.719L122.942 203.789H125.051L125.067 203.758C125.246 203.25 125.77 202.961 126.59 202.961C127.528 202.961 128.035 203.383 128.035 204.125V204.836L125.957 204.961C123.817 205.086 122.621 205.992 122.621 207.539V207.555C122.621 209.117 123.785 210.133 125.426 210.133ZM124.848 207.414V207.398C124.848 206.773 125.325 206.406 126.301 206.344L128.035 206.234V206.867C128.035 207.773 127.246 208.469 126.192 208.469C125.403 208.469 124.848 208.07 124.848 207.414ZM135.722 210.031C136.16 210.031 136.582 209.984 136.863 209.93V208.234C136.644 208.258 136.488 208.273 136.191 208.273C135.418 208.273 135.089 207.93 135.089 207.156V203.117H136.863V201.398H135.089V199.344H132.785V201.398H131.457V203.117H132.785V207.68C132.785 209.352 133.628 210.031 135.722 210.031ZM139.557 200.078C140.26 200.078 140.839 199.516 140.839 198.812C140.839 198.102 140.26 197.539 139.557 197.539C138.854 197.539 138.268 198.102 138.268 198.812C138.268 199.516 138.854 200.078 139.557 200.078ZM138.409 210H140.69V201.398H138.409V210ZM146.439 210.18C149.088 210.18 150.682 208.508 150.682 205.703V205.688C150.682 202.906 149.064 201.211 146.439 201.211C143.814 201.211 142.197 202.914 142.197 205.688V205.703C142.197 208.5 143.791 210.18 146.439 210.18ZM146.439 208.391C145.221 208.391 144.533 207.398 144.533 205.703V205.688C144.533 204.008 145.228 203 146.439 203C147.642 203 148.346 204.008 148.346 205.688V205.703C148.346 207.398 147.65 208.391 146.439 208.391ZM152.173 210H154.454V205.023C154.454 203.859 155.095 203.102 156.149 203.102C157.228 203.102 157.728 203.742 157.728 204.953V210H160.009V204.438C160.009 202.383 158.978 201.211 157.064 201.211C155.837 201.211 154.985 201.797 154.595 202.727H154.454V201.398H152.173V210Z" fill="#030303"/>
<rect x="326" y="192" width="48" height="24" rx="12" fill="#F51E5F"/>
<circle cx="362" cy="204" r="10" fill="white"/>
<path d="M16.4043 229H17.5117L18.3613 226.58H21.7246L22.5742 229H23.6816L20.5645 220.545H19.5215L16.4043 229ZM19.9961 221.91H20.0898L21.4141 225.684H18.6719L19.9961 221.91ZM26.9916 229.111C28.5092 229.111 29.3588 228.297 29.6166 227.154L29.6283 227.09L28.6205 227.096L28.6088 227.131C28.3744 227.834 27.8353 228.209 26.9857 228.209C25.8607 228.209 25.1342 227.277 25.1342 225.824V225.812C25.1342 224.389 25.849 223.475 26.9857 223.475C27.8939 223.475 28.4564 223.979 28.6146 224.6L28.6205 224.617H29.6342L29.6283 224.582C29.4408 223.457 28.5209 222.572 26.9857 222.572C25.2162 222.572 24.0912 223.85 24.0912 225.812V225.824C24.0912 227.828 25.222 229.111 26.9916 229.111ZM33.2078 229.047C33.407 229.047 33.6003 229.023 33.7996 228.988V228.121C33.6121 228.139 33.5125 228.145 33.3308 228.145C32.6746 228.145 32.4167 227.846 32.4167 227.102V223.527H33.7996V222.684H32.4167V221.049H31.3621V222.684H30.366V223.527H31.3621V227.359C31.3621 228.566 31.907 229.047 33.2078 229.047ZM35.5861 221.465C35.9728 221.465 36.2892 221.148 36.2892 220.762C36.2892 220.375 35.9728 220.059 35.5861 220.059C35.1993 220.059 34.8829 220.375 34.8829 220.762C34.8829 221.148 35.1993 221.465 35.5861 221.465ZM35.0704 229H36.09V222.684H35.0704V229ZM39.523 229H40.5542L42.8921 222.684H41.814L40.0855 227.887H39.9917L38.2632 222.684H37.1851L39.523 229ZM45.4638 229.111C46.3134 229.111 46.9755 228.742 47.3739 228.068H47.4677V229H48.4872V224.676C48.4872 223.363 47.6259 222.572 46.0848 222.572C44.7372 222.572 43.7763 223.24 43.6122 224.23L43.6063 224.266H44.6259L44.6317 224.248C44.7958 223.756 45.2938 223.475 46.0497 223.475C46.993 223.475 47.4677 223.896 47.4677 224.676V225.25L45.6571 225.361C44.1864 225.449 43.3544 226.1 43.3544 227.225V227.236C43.3544 228.385 44.2626 229.111 45.4638 229.111ZM44.3973 227.213V227.201C44.3973 226.574 44.8192 226.234 45.7802 226.176L47.4677 226.07V226.645C47.4677 227.547 46.7118 228.227 45.6747 228.227C44.9423 228.227 44.3973 227.852 44.3973 227.213ZM52.3186 229.047C52.5178 229.047 52.7112 229.023 52.9104 228.988V228.121C52.7229 228.139 52.6233 228.145 52.4417 228.145C51.7854 228.145 51.5276 227.846 51.5276 227.102V223.527H52.9104V222.684H51.5276V221.049H50.4729V222.684H49.4768V223.527H50.4729V227.359C50.4729 228.566 51.0178 229.047 52.3186 229.047ZM56.6422 229.111C58.1305 229.111 59.0328 228.268 59.2496 227.412L59.2614 227.365H58.2418L58.2184 227.418C58.0485 227.799 57.5211 228.203 56.6657 228.203C55.5407 228.203 54.82 227.441 54.7907 226.135H59.3375V225.736C59.3375 223.85 58.2946 222.572 56.5778 222.572C54.861 222.572 53.7477 223.908 53.7477 225.859V225.865C53.7477 227.846 54.8375 229.111 56.6422 229.111ZM56.5719 223.48C57.5035 223.48 58.195 224.072 58.3004 225.32H54.8082C54.9196 224.119 55.6344 223.48 56.5719 223.48ZM65.9867 229.047C66.1859 229.047 66.3793 229.023 66.5785 228.988V228.121C66.391 228.139 66.2914 228.145 66.1097 228.145C65.4535 228.145 65.1957 227.846 65.1957 227.102V223.527H66.5785V222.684H65.1957V221.049H64.141V222.684H63.1449V223.527H64.141V227.359C64.141 228.566 64.6859 229.047 65.9867 229.047ZM70.3279 229.111C72.1267 229.111 73.24 227.869 73.24 225.848V225.836C73.24 223.809 72.1267 222.572 70.3279 222.572C68.5291 222.572 67.4158 223.809 67.4158 225.836V225.848C67.4158 227.869 68.5291 229.111 70.3279 229.111ZM70.3279 228.209C69.1326 228.209 68.4588 227.336 68.4588 225.848V225.836C68.4588 224.342 69.1326 223.475 70.3279 223.475C71.5232 223.475 72.197 224.342 72.197 225.836V225.848C72.197 227.336 71.5232 228.209 70.3279 228.209ZM80.229 229.111C81.7466 229.111 82.5962 228.297 82.854 227.154L82.8657 227.09L81.8579 227.096L81.8462 227.131C81.6118 227.834 81.0728 228.209 80.2232 228.209C79.0982 228.209 78.3716 227.277 78.3716 225.824V225.812C78.3716 224.389 79.0864 223.475 80.2232 223.475C81.1314 223.475 81.6939 223.979 81.8521 224.6L81.8579 224.617H82.8716L82.8657 224.582C82.6782 223.457 81.7583 222.572 80.2232 222.572C78.4536 222.572 77.3286 223.85 77.3286 225.812V225.824C77.3286 227.828 78.4595 229.111 80.229 229.111ZM86.6796 229.111C88.4784 229.111 89.5917 227.869 89.5917 225.848V225.836C89.5917 223.809 88.4784 222.572 86.6796 222.572C84.8808 222.572 83.7675 223.809 83.7675 225.836V225.848C83.7675 227.869 84.8808 229.111 86.6796 229.111ZM86.6796 228.209C85.4843 228.209 84.8104 227.336 84.8104 225.848V225.836C84.8104 224.342 85.4843 223.475 86.6796 223.475C87.8749 223.475 88.5487 224.342 88.5487 225.836V225.848C88.5487 227.336 87.8749 228.209 86.6796 228.209ZM90.8977 229H91.9173V225.262C91.9173 224.154 92.5559 223.475 93.5637 223.475C94.5715 223.475 95.0403 224.02 95.0403 225.156V229H96.0598V224.91C96.0598 223.41 95.2688 222.572 93.8508 222.572C92.9192 222.572 92.3274 222.965 92.011 223.633H91.9173V222.684H90.8977V229ZM98.0514 229H99.0709V223.527H100.506V222.684H99.0709V222.01C99.0709 221.318 99.3639 220.961 100.09 220.961C100.272 220.961 100.442 220.967 100.565 220.99V220.176C100.354 220.135 100.131 220.117 99.8854 220.117C98.6842 220.117 98.0514 220.721 98.0514 221.98V222.684H97.0026V223.527H98.0514V229ZM102.24 221.465C102.627 221.465 102.943 221.148 102.943 220.762C102.943 220.375 102.627 220.059 102.24 220.059C101.854 220.059 101.537 220.375 101.537 220.762C101.537 221.148 101.854 221.465 102.24 221.465ZM101.725 229H102.744V222.684H101.725V229ZM106.992 231.227C108.714 231.227 109.804 230.324 109.804 228.912V222.684H108.785V223.727H108.714C108.328 223.012 107.636 222.572 106.745 222.572C105.093 222.572 104.074 223.855 104.074 225.625V225.637C104.074 227.406 105.087 228.672 106.722 228.672C107.589 228.672 108.304 228.279 108.703 227.582H108.796V228.859C108.796 229.791 108.122 230.324 106.992 230.324C106.083 230.324 105.521 229.984 105.41 229.504L105.404 229.498H104.349L104.337 229.504C104.495 230.541 105.468 231.227 106.992 231.227ZM106.945 227.77C105.773 227.77 105.117 226.891 105.117 225.637V225.625C105.117 224.371 105.773 223.475 106.945 223.475C108.111 223.475 108.82 224.371 108.82 225.625V225.637C108.82 226.891 108.117 227.77 106.945 227.77ZM113.542 229.111C114.468 229.111 115.106 228.73 115.417 228.057H115.511V229H116.53V222.684H115.511V226.422C115.511 227.529 114.919 228.209 113.805 228.209C112.798 228.209 112.387 227.664 112.387 226.527V222.684H111.368V226.773C111.368 228.268 112.106 229.111 113.542 229.111ZM118.158 229H119.178V225.086C119.178 224.16 119.869 223.545 120.842 223.545C121.065 223.545 121.258 223.568 121.469 223.604V222.613C121.369 222.596 121.152 222.572 120.959 222.572C120.104 222.572 119.512 222.959 119.272 223.621H119.178V222.684H118.158V229ZM124.855 229.111C126.343 229.111 127.246 228.268 127.462 227.412L127.474 227.365H126.455L126.431 227.418C126.261 227.799 125.734 228.203 124.878 228.203C123.753 228.203 123.033 227.441 123.003 226.135H127.55V225.736C127.55 223.85 126.507 222.572 124.791 222.572C123.074 222.572 121.96 223.908 121.96 225.859V225.865C121.96 227.846 123.05 229.111 124.855 229.111ZM124.785 223.48C125.716 223.48 126.408 224.072 126.513 225.32H123.021C123.132 224.119 123.847 223.48 124.785 223.48ZM132.494 231.215C133.614 231.215 134.135 230.805 134.657 229.387L137.123 222.684H136.051L134.323 227.881H134.229L132.494 222.684H131.405L133.742 229.006L133.625 229.381C133.397 230.107 133.045 230.371 132.465 230.371C132.324 230.371 132.166 230.365 132.043 230.342V231.18C132.184 231.203 132.36 231.215 132.494 231.215ZM140.556 229.111C142.355 229.111 143.468 227.869 143.468 225.848V225.836C143.468 223.809 142.355 222.572 140.556 222.572C138.757 222.572 137.644 223.809 137.644 225.836V225.848C137.644 227.869 138.757 229.111 140.556 229.111ZM140.556 228.209C139.361 228.209 138.687 227.336 138.687 225.848V225.836C138.687 224.342 139.361 223.475 140.556 223.475C141.752 223.475 142.425 224.342 142.425 225.836V225.848C142.425 227.336 141.752 228.209 140.556 228.209ZM146.89 229.111C147.815 229.111 148.454 228.73 148.765 228.057H148.858V229H149.878V222.684H148.858V226.422C148.858 227.529 148.267 228.209 147.153 228.209C146.146 228.209 145.735 227.664 145.735 226.527V222.684H144.716V226.773C144.716 228.268 145.454 229.111 146.89 229.111ZM151.506 229H152.526V225.086C152.526 224.16 153.217 223.545 154.19 223.545C154.413 223.545 154.606 223.568 154.817 223.604V222.613C154.717 222.596 154.5 222.572 154.307 222.572C153.452 222.572 152.86 222.959 152.62 223.621H152.526V222.684H151.506V229ZM158.9 231.109H159.919V228.004H160.013C160.359 228.678 161.114 229.111 161.982 229.111C163.587 229.111 164.63 227.828 164.63 225.848V225.836C164.63 223.867 163.581 222.572 161.982 222.572C161.103 222.572 160.4 222.988 160.013 223.691H159.919V222.684H158.9V231.109ZM161.747 228.209C160.599 228.209 159.896 227.307 159.896 225.848V225.836C159.896 224.377 160.599 223.475 161.747 223.475C162.902 223.475 163.587 224.365 163.587 225.836V225.848C163.587 227.318 162.902 228.209 161.747 228.209ZM165.948 229H166.967V225.086C166.967 224.16 167.659 223.545 168.631 223.545C168.854 223.545 169.047 223.568 169.258 223.604V222.613C169.159 222.596 168.942 222.572 168.749 222.572C167.893 222.572 167.301 222.959 167.061 223.621H166.967V222.684H165.948V229ZM170.781 221.465C171.168 221.465 171.484 221.148 171.484 220.762C171.484 220.375 171.168 220.059 170.781 220.059C170.394 220.059 170.078 220.375 170.078 220.762C170.078 221.148 170.394 221.465 170.781 221.465ZM170.266 229H171.285V222.684H170.266V229ZM174.718 229H175.749L178.087 222.684H177.009L175.281 227.887H175.187L173.458 222.684H172.38L174.718 229ZM180.659 229.111C181.508 229.111 182.171 228.742 182.569 228.068H182.663V229H183.682V224.676C183.682 223.363 182.821 222.572 181.28 222.572C179.932 222.572 178.971 223.24 178.807 224.23L178.801 224.266H179.821L179.827 224.248C179.991 223.756 180.489 223.475 181.245 223.475C182.188 223.475 182.663 223.896 182.663 224.676V225.25L180.852 225.361C179.382 225.449 178.549 226.1 178.549 227.225V227.236C178.549 228.385 179.458 229.111 180.659 229.111ZM179.592 227.213V227.201C179.592 226.574 180.014 226.234 180.975 226.176L182.663 226.07V226.645C182.663 227.547 181.907 228.227 180.87 228.227C180.137 228.227 179.592 227.852 179.592 227.213ZM187.854 229.111C189.371 229.111 190.221 228.297 190.479 227.154L190.49 227.09L189.482 227.096L189.471 227.131C189.236 227.834 188.697 228.209 187.848 228.209C186.723 228.209 185.996 227.277 185.996 225.824V225.812C185.996 224.389 186.711 223.475 187.848 223.475C188.756 223.475 189.318 223.979 189.477 224.6L189.482 224.617H190.496L190.49 224.582C190.303 223.457 189.383 222.572 187.848 222.572C186.078 222.572 184.953 223.85 184.953 225.812V225.824C184.953 227.828 186.084 229.111 187.854 229.111ZM192.247 231.215C193.367 231.215 193.888 230.805 194.41 229.387L196.876 222.684H195.804L194.076 227.881H193.982L192.247 222.684H191.158L193.496 229.006L193.378 229.381C193.15 230.107 192.798 230.371 192.218 230.371C192.078 230.371 191.919 230.365 191.796 230.342V231.18C191.937 231.203 192.113 231.215 192.247 231.215ZM203.643 229.111C205.442 229.111 206.555 227.869 206.555 225.848V225.836C206.555 223.809 205.442 222.572 203.643 222.572C201.844 222.572 200.731 223.809 200.731 225.836V225.848C200.731 227.869 201.844 229.111 203.643 229.111ZM203.643 228.209C202.447 228.209 201.774 227.336 201.774 225.848V225.836C201.774 224.342 202.447 223.475 203.643 223.475C204.838 223.475 205.512 224.342 205.512 225.836V225.848C205.512 227.336 204.838 228.209 203.643 228.209ZM207.861 231.109H208.88V228.004H208.974C209.32 228.678 210.076 229.111 210.943 229.111C212.548 229.111 213.591 227.828 213.591 225.848V225.836C213.591 223.867 212.543 222.572 210.943 222.572C210.064 222.572 209.361 222.988 208.974 223.691H208.88V222.684H207.861V231.109ZM210.709 228.209C209.56 228.209 208.857 227.307 208.857 225.848V225.836C208.857 224.377 209.56 223.475 210.709 223.475C211.863 223.475 212.548 224.365 212.548 225.836V225.848C212.548 227.318 211.863 228.209 210.709 228.209ZM217.153 229.047C217.352 229.047 217.546 229.023 217.745 228.988V228.121C217.558 228.139 217.458 228.145 217.276 228.145C216.62 228.145 216.362 227.846 216.362 227.102V223.527H217.745V222.684H216.362V221.049H215.308V222.684H214.311V223.527H215.308V227.359C215.308 228.566 215.852 229.047 217.153 229.047ZM219.532 221.465C219.918 221.465 220.235 221.148 220.235 220.762C220.235 220.375 219.918 220.059 219.532 220.059C219.145 220.059 218.828 220.375 218.828 220.762C218.828 221.148 219.145 221.465 219.532 221.465ZM219.016 229H220.035V222.684H219.016V229ZM224.277 229.111C226.076 229.111 227.189 227.869 227.189 225.848V225.836C227.189 223.809 226.076 222.572 224.277 222.572C222.478 222.572 221.365 223.809 221.365 225.836V225.848C221.365 227.869 222.478 229.111 224.277 229.111ZM224.277 228.209C223.082 228.209 222.408 227.336 222.408 225.848V225.836C222.408 224.342 223.082 223.475 224.277 223.475C225.472 223.475 226.146 224.342 226.146 225.836V225.848C226.146 227.336 225.472 228.209 224.277 228.209ZM228.495 229H229.515V225.262C229.515 224.154 230.153 223.475 231.161 223.475C232.169 223.475 232.638 224.02 232.638 225.156V229H233.657V224.91C233.657 223.41 232.866 222.572 231.448 222.572C230.517 222.572 229.925 222.965 229.608 223.633H229.515V222.684H228.495V229ZM237.395 229.111C238.83 229.111 239.926 228.332 239.926 227.207V227.195C239.926 226.293 239.352 225.777 238.163 225.49L237.19 225.256C236.446 225.074 236.129 224.805 236.129 224.377V224.365C236.129 223.809 236.68 223.422 237.43 223.422C238.192 223.422 238.684 223.768 238.819 224.266H239.821C239.68 223.234 238.76 222.572 237.436 222.572C236.094 222.572 235.086 223.363 235.086 224.412V224.418C235.086 225.326 235.62 225.842 236.803 226.123L237.782 226.357C238.561 226.545 238.883 226.844 238.883 227.271V227.283C238.883 227.857 238.28 228.262 237.43 228.262C236.622 228.262 236.118 227.916 235.948 227.389H234.905C235.022 228.432 235.989 229.111 237.395 229.111Z" fill="#030303"/>
<path d="M17.3672 277H19.7266V272.875H21.6562L23.7578 277H26.4297L24.0547 272.523C25.3438 272.016 26.0938 270.773 26.0938 269.328V269.312C26.0938 267.094 24.625 265.727 22.0625 265.727H17.3672V277ZM19.7266 271.156V267.57H21.7734C22.9531 267.57 23.6797 268.273 23.6797 269.359V269.375C23.6797 270.484 22.9844 271.156 21.8047 271.156H19.7266ZM31.382 277.18C33.8976 277.18 35.007 275.727 35.2726 274.648L35.2882 274.57H33.1632L33.1398 274.617C32.9836 274.945 32.4289 275.477 31.4289 275.477C30.2179 275.477 29.4601 274.656 29.4367 273.242H35.3586V272.531C35.3586 269.93 33.7961 268.211 31.2882 268.211C28.7804 268.211 27.1789 269.969 27.1789 272.703V272.711C27.1789 275.469 28.7648 277.18 31.382 277.18ZM31.3273 269.922C32.3195 269.922 33.0304 270.562 33.1711 271.812H29.4601C29.6007 270.594 30.3351 269.922 31.3273 269.922ZM40.6546 280.023C43.2562 280.023 44.9046 278.75 44.9046 276.734V268.398H42.6234V269.805H42.514C42.0531 268.836 41.1312 268.258 39.9515 268.258C37.7484 268.258 36.4124 269.961 36.4124 272.492V272.508C36.4124 274.953 37.7484 276.625 39.9124 276.625C41.1077 276.625 42.014 276.133 42.4906 275.227H42.6312V276.828C42.6312 277.828 41.9202 278.398 40.7015 278.398C39.6859 278.398 39.0921 278.055 38.9671 277.555L38.9593 277.523H36.7015V277.562C36.889 279.023 38.2718 280.023 40.6546 280.023ZM40.6859 274.875C39.4515 274.875 38.7484 273.914 38.7484 272.5V272.484C38.7484 271.07 39.4593 270.109 40.6859 270.109C41.9124 270.109 42.6546 271.07 42.6546 272.484V272.5C42.6546 273.914 41.9202 274.875 40.6859 274.875ZM47.9819 267.078C48.6851 267.078 49.2632 266.516 49.2632 265.812C49.2632 265.102 48.6851 264.539 47.9819 264.539C47.2788 264.539 46.6929 265.102 46.6929 265.812C46.6929 266.516 47.2788 267.078 47.9819 267.078ZM46.8335 277H49.1147V268.398H46.8335V277ZM54.8639 277.18C57.5124 277.18 59.1061 275.508 59.1061 272.703V272.688C59.1061 269.906 57.4889 268.211 54.8639 268.211C52.2389 268.211 50.6217 269.914 50.6217 272.688V272.703C50.6217 275.5 52.2155 277.18 54.8639 277.18ZM54.8639 275.391C53.6452 275.391 52.9577 274.398 52.9577 272.703V272.688C52.9577 271.008 53.653 270 54.8639 270C56.0671 270 56.7702 271.008 56.7702 272.688V272.703C56.7702 274.398 56.0749 275.391 54.8639 275.391ZM60.5975 277H62.8787V272.023C62.8787 270.859 63.5194 270.102 64.5741 270.102C65.6522 270.102 66.1522 270.742 66.1522 271.953V277H68.4334V271.438C68.4334 269.383 67.4022 268.211 65.4881 268.211C64.2616 268.211 63.41 268.797 63.0194 269.727H62.8787V268.398H60.5975V277Z" fill="#030303"/>
<path d="M16 296H374" stroke="#4F4F4F"/>
<path d="M21.9062 332.266C24.7031 332.266 26.375 330.578 26.375 328.125V320.727H24.9688V328.031C24.9688 329.766 23.8594 330.969 21.9062 330.969C19.9531 330.969 18.8281 329.766 18.8281 328.031V320.727H17.4219V328.125C17.4219 330.578 19.1094 332.266 21.9062 332.266ZM28.6945 332H30.0539V327.016C30.0539 325.539 30.9054 324.633 32.2492 324.633C33.5929 324.633 34.2179 325.359 34.2179 326.875V332H35.5773V326.547C35.5773 324.547 34.5226 323.43 32.632 323.43C31.3898 323.43 30.6007 323.953 30.1789 324.844H30.0539V323.578H28.6945V332ZM38.389 321.953C38.9046 321.953 39.3265 321.531 39.3265 321.016C39.3265 320.5 38.9046 320.078 38.389 320.078C37.8734 320.078 37.4515 320.5 37.4515 321.016C37.4515 321.531 37.8734 321.953 38.389 321.953ZM37.7015 332H39.0609V323.578H37.7015V332ZM43.6382 332H45.0132L48.1304 323.578H46.6929L44.3882 330.516H44.2632L41.9585 323.578H40.521L43.6382 332ZM52.6842 332.148C54.6686 332.148 55.8717 331.023 56.1608 329.883L56.1764 329.82H54.8171L54.7858 329.891C54.5592 330.398 53.8561 330.938 52.7155 330.938C51.2155 330.938 50.2546 329.922 50.2155 328.18H56.278V327.648C56.278 325.133 54.8874 323.43 52.5983 323.43C50.3092 323.43 48.8249 325.211 48.8249 327.812V327.82C48.8249 330.461 50.278 332.148 52.6842 332.148ZM52.5905 324.641C53.8327 324.641 54.7546 325.43 54.8952 327.094H50.2389C50.3874 325.492 51.3405 324.641 52.5905 324.641ZM58.0194 332H59.3787V326.781C59.3787 325.547 60.3006 324.727 61.5975 324.727C61.8944 324.727 62.1522 324.758 62.4334 324.805V323.484C62.3006 323.461 62.0116 323.43 61.7537 323.43C60.6131 323.43 59.8241 323.945 59.5037 324.828H59.3787V323.578H58.0194V332ZM66.4795 332.148C68.3936 332.148 69.8545 331.109 69.8545 329.609V329.594C69.8545 328.391 69.0889 327.703 67.5029 327.32L66.2061 327.008C65.2139 326.766 64.792 326.406 64.792 325.836V325.82C64.792 325.078 65.5264 324.562 66.5264 324.562C67.542 324.562 68.1982 325.023 68.3779 325.688H69.7139C69.5264 324.312 68.2998 323.43 66.5342 323.43C64.7451 323.43 63.4014 324.484 63.4014 325.883V325.891C63.4014 327.102 64.1123 327.789 65.6904 328.164L66.9951 328.477C68.0342 328.727 68.4639 329.125 68.4639 329.695V329.711C68.4639 330.477 67.6592 331.016 66.5264 331.016C65.4482 331.016 64.7764 330.555 64.5498 329.852H63.1592C63.3154 331.242 64.6045 332.148 66.4795 332.148ZM72.3146 321.953C72.8302 321.953 73.2521 321.531 73.2521 321.016C73.2521 320.5 72.8302 320.078 72.3146 320.078C71.799 320.078 71.3771 320.5 71.3771 321.016C71.3771 321.531 71.799 321.953 72.3146 321.953ZM71.6271 332H72.9865V323.578H71.6271V332ZM78.1732 332.062C78.4388 332.062 78.6966 332.031 78.9622 331.984V330.828C78.7122 330.852 78.5794 330.859 78.3372 330.859C77.4622 330.859 77.1185 330.461 77.1185 329.469V324.703H78.9622V323.578H77.1185V321.398H75.7122V323.578H74.3841V324.703H75.7122V329.812C75.7122 331.422 76.4388 332.062 78.1732 332.062ZM81.3442 334.953C82.8364 334.953 83.5317 334.406 84.2271 332.516L87.5161 323.578H86.0864L83.7817 330.508H83.6567L81.3442 323.578H79.8911L83.0083 332.008L82.8521 332.508C82.5474 333.477 82.0786 333.828 81.3052 333.828C81.1177 333.828 80.9067 333.82 80.7427 333.789V334.906C80.9302 334.938 81.1646 334.953 81.3442 334.953Z" fill="#AFAFAF"/>
<path d="M16 351H374" stroke="#4F4F4F" stroke-width="0.5"/>
<path d="M17.4375 387H18.8438V382.117H23.8359V380.867H18.8438V376.992H24.2812V375.727H17.4375V387ZM27.8195 387.148C28.9523 387.148 29.8351 386.656 30.3664 385.758H30.4914V387H31.8507V381.234C31.8507 379.484 30.7023 378.43 28.6476 378.43C26.8507 378.43 25.5695 379.32 25.3507 380.641L25.3429 380.688H26.7023L26.7101 380.664C26.9289 380.008 27.5929 379.633 28.6007 379.633C29.8586 379.633 30.4914 380.195 30.4914 381.234V382L28.0773 382.148C26.1164 382.266 25.007 383.133 25.007 384.633V384.648C25.007 386.18 26.2179 387.148 27.8195 387.148ZM26.3976 384.617V384.602C26.3976 383.766 26.9601 383.312 28.2414 383.234L30.4914 383.094V383.859C30.4914 385.062 29.4836 385.969 28.1007 385.969C27.1242 385.969 26.3976 385.469 26.3976 384.617ZM37.4124 387.148C39.4359 387.148 40.5687 386.062 40.9124 384.539L40.9281 384.453L39.5843 384.461L39.5687 384.508C39.2562 385.445 38.5374 385.945 37.4046 385.945C35.9046 385.945 34.9359 384.703 34.9359 382.766V382.75C34.9359 380.852 35.889 379.633 37.4046 379.633C38.6156 379.633 39.3656 380.305 39.5765 381.133L39.5843 381.156H40.9359L40.9281 381.109C40.6781 379.609 39.4515 378.43 37.4046 378.43C35.0452 378.43 33.5452 380.133 33.5452 382.75V382.766C33.5452 385.438 35.0531 387.148 37.4124 387.148ZM45.3726 387.148C46.6069 387.148 47.4585 386.641 47.8726 385.742H47.9976V387H49.3569V378.578H47.9976V383.562C47.9976 385.039 47.2085 385.945 45.7241 385.945C44.3804 385.945 43.8335 385.219 43.8335 383.703V378.578H42.4741V384.031C42.4741 386.023 43.4585 387.148 45.3726 387.148ZM51.6061 387H52.9655V375.234H51.6061V387ZM58.1991 387.062C58.4647 387.062 58.7225 387.031 58.9881 386.984V385.828C58.7381 385.852 58.6053 385.859 58.3631 385.859C57.4881 385.859 57.1444 385.461 57.1444 384.469V379.703H58.9881V378.578H57.1444V376.398H55.7381V378.578H54.41V379.703H55.7381V384.812C55.7381 386.422 56.4647 387.062 58.1991 387.062ZM61.3701 389.953C62.8623 389.953 63.5576 389.406 64.2529 387.516L67.542 378.578H66.1123L63.8076 385.508H63.6826L61.3701 378.578H59.917L63.0342 387.008L62.8779 387.508C62.5732 388.477 62.1045 388.828 61.3311 388.828C61.1436 388.828 60.9326 388.82 60.7686 388.789V389.906C60.9561 389.938 61.1904 389.953 61.3701 389.953Z" fill="#AFAFAF"/>
<path d="M16 406H374" stroke="#4F4F4F" stroke-width="0.5"/>
<path d="M17.4375 442H18.75V433.391H18.8359L22.3984 442H23.5859L27.1484 433.391H27.2344V442H28.5469V430.727H26.9141L23.0547 440.133H22.9297L19.0703 430.727H17.4375V442ZM34.3429 442.148C36.7414 442.148 38.2257 440.492 38.2257 437.797V437.781C38.2257 435.078 36.7414 433.43 34.3429 433.43C31.9445 433.43 30.4601 435.078 30.4601 437.781V437.797C30.4601 440.492 31.9445 442.148 34.3429 442.148ZM34.3429 440.945C32.7492 440.945 31.8507 439.781 31.8507 437.797V437.781C31.8507 435.789 32.7492 434.633 34.3429 434.633C35.9367 434.633 36.8351 435.789 36.8351 437.781V437.797C36.8351 439.781 35.9367 440.945 34.3429 440.945ZM39.9671 442H41.3265V436.781C41.3265 435.547 42.2484 434.727 43.5452 434.727C43.8421 434.727 44.0999 434.758 44.3812 434.805V433.484C44.2484 433.461 43.9593 433.43 43.7015 433.43C42.5609 433.43 41.7718 433.945 41.4515 434.828H41.3265V433.578H39.9671V442ZM48.896 442.148C50.8804 442.148 52.0835 441.023 52.3726 439.883L52.3882 439.82H51.0288L50.9976 439.891C50.771 440.398 50.0679 440.938 48.9272 440.938C47.4272 440.938 46.4663 439.922 46.4272 438.18H52.4897V437.648C52.4897 435.133 51.0991 433.43 48.8101 433.43C46.521 433.43 45.0366 435.211 45.0366 437.812V437.82C45.0366 440.461 46.4897 442.148 48.896 442.148ZM48.8022 434.641C50.0444 434.641 50.9663 435.43 51.1069 437.094H46.4507C46.5991 435.492 47.5522 434.641 48.8022 434.641ZM61.8241 442.148C64.2225 442.148 65.7069 440.492 65.7069 437.797V437.781C65.7069 435.078 64.2225 433.43 61.8241 433.43C59.4256 433.43 57.9412 435.078 57.9412 437.781V437.797C57.9412 440.492 59.4256 442.148 61.8241 442.148ZM61.8241 440.945C60.2303 440.945 59.3319 439.781 59.3319 437.797V437.781C59.3319 435.789 60.2303 434.633 61.8241 434.633C63.4178 434.633 64.3162 435.789 64.3162 437.781V437.797C64.3162 439.781 63.4178 440.945 61.8241 440.945ZM67.4482 444.812H68.8076V440.672H68.9326C69.3936 441.57 70.4014 442.148 71.5576 442.148C73.6982 442.148 75.0889 440.438 75.0889 437.797V437.781C75.0889 435.156 73.6904 433.43 71.5576 433.43C70.3857 433.43 69.4482 433.984 68.9326 434.922H68.8076V433.578H67.4482V444.812ZM71.2451 440.945C69.7139 440.945 68.7764 439.742 68.7764 437.797V437.781C68.7764 435.836 69.7139 434.633 71.2451 434.633C72.7842 434.633 73.6982 435.82 73.6982 437.781V437.797C73.6982 439.758 72.7842 440.945 71.2451 440.945ZM79.8381 442.062C80.1037 442.062 80.3615 442.031 80.6271 441.984V440.828C80.3771 440.852 80.2443 440.859 80.0021 440.859C79.1271 440.859 78.7834 440.461 78.7834 439.469V434.703H80.6271V433.578H78.7834V431.398H77.3771V433.578H76.049V434.703H77.3771V439.812C77.3771 441.422 78.1037 442.062 79.8381 442.062ZM83.0091 431.953C83.5247 431.953 83.9466 431.531 83.9466 431.016C83.9466 430.5 83.5247 430.078 83.0091 430.078C82.4935 430.078 82.0716 430.5 82.0716 431.016C82.0716 431.531 82.4935 431.953 83.0091 431.953ZM82.3216 442H83.681V433.578H82.3216V442ZM89.3364 442.148C91.7349 442.148 93.2193 440.492 93.2193 437.797V437.781C93.2193 435.078 91.7349 433.43 89.3364 433.43C86.938 433.43 85.4536 435.078 85.4536 437.781V437.797C85.4536 440.492 86.938 442.148 89.3364 442.148ZM89.3364 440.945C87.7427 440.945 86.8443 439.781 86.8443 437.797V437.781C86.8443 435.789 87.7427 434.633 89.3364 434.633C90.9302 434.633 91.8286 435.789 91.8286 437.781V437.797C91.8286 439.781 90.9302 440.945 89.3364 440.945ZM94.9606 442H96.32V437.016C96.32 435.539 97.1716 434.633 98.5153 434.633C99.8591 434.633 100.484 435.359 100.484 436.875V442H101.843V436.547C101.843 434.547 100.789 433.43 98.8981 433.43C97.6559 433.43 96.8669 433.953 96.445 434.844H96.32V433.578H94.9606V442ZM106.827 442.148C108.741 442.148 110.202 441.109 110.202 439.609V439.594C110.202 438.391 109.436 437.703 107.85 437.32L106.554 437.008C105.561 436.766 105.14 436.406 105.14 435.836V435.82C105.14 435.078 105.874 434.562 106.874 434.562C107.89 434.562 108.546 435.023 108.725 435.688H110.061C109.874 434.312 108.647 433.43 106.882 433.43C105.093 433.43 103.749 434.484 103.749 435.883V435.891C103.749 437.102 104.46 437.789 106.038 438.164L107.343 438.477C108.382 438.727 108.811 439.125 108.811 439.695V439.711C108.811 440.477 108.007 441.016 106.874 441.016C105.796 441.016 105.124 440.555 104.897 439.852H103.507C103.663 441.242 104.952 442.148 106.827 442.148Z" fill="#AFAFAF"/>
<path d="M16 461H374" stroke="#4F4F4F" stroke-width="0.5"/>
<rect width="390" height="47" fill="white"/>
<g clip-path="url(#clip1_301_8569)">
<path d="M118.26 -1H271.692V14C271.692 23.3888 264.129 31 254.8 31H135.152C125.823 31 118.26 23.3888 118.26 14V-1Z" fill="black"/>
<path d="M118.49 -1L117 -2C119.634 -2 118.291 1.14875 118.291 3.79934C118.291 3.86656 118.29 3.93345 118.287 4H118.49V-1Z" fill="black"/>
<path d="M271.51 -1L273 -2C270.366 -2 271.709 1.14875 271.709 3.79934C271.709 3.86656 271.71 3.93345 271.713 4H271.51V-1Z" fill="black"/>
<path d="M42.883 19.8145C40.2184 19.8145 38.2678 21.5493 38.2678 23.998V24.0146C38.2678 26.2642 39.8532 27.8994 42.1691 27.8994C43.7878 27.8994 44.9665 27.0859 45.4396 25.9736H45.4811C45.4894 26.1064 45.4811 26.2725 45.4728 26.4302C45.3815 28.5469 44.6179 30.2153 42.8664 30.2153C41.8869 30.2153 41.2228 29.7256 40.924 29.0034L40.8991 28.937H38.4255L38.4421 29.0117C38.799 30.8628 40.5422 32.2075 42.8581 32.2075C45.9792 32.2075 47.8801 29.8418 47.8801 25.9155V25.8989C47.8801 21.8398 45.7717 19.8145 42.883 19.8145ZM42.8913 26.0483C41.6462 26.0483 40.7082 25.1768 40.7082 23.9316V23.915C40.7082 22.728 41.696 21.8066 42.9162 21.8066C44.1447 21.8066 45.1076 22.7363 45.1076 23.9482V23.9565C45.1076 25.1768 44.1447 26.0483 42.8913 26.0483ZM50.203 24.3965C50.9501 24.3965 51.5477 23.8071 51.5477 23.0518C51.5477 22.3047 50.9501 21.707 50.203 21.707C49.4477 21.707 48.8583 22.3047 48.8583 23.0518C48.8583 23.8071 49.4477 24.3965 50.203 24.3965ZM50.203 30.3066C50.9501 30.3066 51.5477 29.709 51.5477 28.9619C51.5477 28.2065 50.9501 27.6172 50.203 27.6172C49.4477 27.6172 48.8583 28.2065 48.8583 28.9619C48.8583 29.709 49.4477 30.3066 50.203 30.3066ZM58.4029 32H60.7853V29.8003H62.3624V27.7998H60.7853V20.022H57.2491L52.443 27.7085V29.8003H58.4029V32ZM54.6261 27.8662V27.7998L58.3946 21.8315H58.4527V27.8662H54.6261ZM66.2044 32H68.6863V20.022H66.1961L63.0999 22.1719V24.3965L66.1546 22.3213H66.2044V32Z" fill="#030303"/>
<path opacity="0.35" d="M336.5 23C336.5 21.067 338.067 19.5 340 19.5H357C358.933 19.5 360.5 21.067 360.5 23V28C360.5 29.933 358.933 31.5 357 31.5H340C338.067 31.5 336.5 29.933 336.5 28V23Z" stroke="#030303"/>
<path opacity="0.4" d="M362 24V28.2203C362.849 27.8629 363.401 27.0314 363.401 26.1102C363.401 25.1889 362.849 24.3574 362 24Z" fill="#030303"/>
<path d="M338 23C338 21.8954 338.895 21 340 21H357C358.105 21 359 21.8954 359 23V28C359 29.1046 358.105 30 357 30H340C338.895 30 338 29.1046 338 28V23Z" fill="#030303"/>
<path fill-rule="evenodd" clip-rule="evenodd" d="M320.5 22.5875C322.967 22.5876 325.339 23.5551 327.127 25.2898C327.261 25.4237 327.477 25.4221 327.609 25.286L328.896 23.9605C328.963 23.8915 329.001 23.798 329 23.7008C328.999 23.6035 328.961 23.5105 328.893 23.4423C324.201 18.8526 316.799 18.8526 312.107 23.4423C312.039 23.5105 312.001 23.6034 312 23.7007C311.999 23.7979 312.037 23.8914 312.104 23.9605L313.391 25.286C313.523 25.4223 313.739 25.424 313.873 25.2898C315.661 23.5549 318.034 22.5875 320.5 22.5875ZM320.536 26.5894C321.891 26.5893 323.198 27.1035 324.203 28.032C324.338 28.1638 324.552 28.1609 324.685 28.0255L325.97 26.7C326.038 26.6304 326.075 26.5361 326.074 26.4381C326.073 26.3401 326.034 26.2466 325.965 26.1784C322.906 23.2739 318.169 23.2739 315.109 26.1784C315.04 26.2466 315.001 26.3401 315 26.4382C314.999 26.5362 315.037 26.6305 315.105 26.7L316.39 28.0255C316.522 28.1609 316.736 28.1638 316.872 28.032C317.876 27.1041 319.182 26.5899 320.536 26.5894ZM323.15 29.1767C323.152 29.275 323.114 29.3698 323.045 29.4386L320.822 31.7289C320.756 31.7962 320.668 31.834 320.575 31.834C320.482 31.834 320.393 31.7962 320.328 31.7289L318.105 29.4386C318.036 29.3697 317.998 29.2749 318 29.1766C318.002 29.0783 318.044 28.9853 318.115 28.9194C319.535 27.6935 321.615 27.6935 323.035 28.9194C323.106 28.9853 323.148 29.0784 323.15 29.1767Z" fill="#030303"/>
<path d="M296 23C296 22.4477 296.448 22 297 22H298C298.552 22 299 22.4477 299 23V31C299 31.5523 298.552 32 298 32H297C296.448 32 296 31.5523 296 31V23Z" fill="#030303"/>
<path d="M301 21C301 20.4477 301.448 20 302 20H303C303.552 20 304 20.4477 304 21V31C304 31.5523 303.552 32 303 32H302C301.448 32 301 31.5523 301 31V21Z" fill="#030303"/>
<path d="M291 26.5C291 25.9477 291.448 25.5 292 25.5H293C293.552 25.5 294 25.9477 294 26.5V31C294 31.5523 293.552 32 293 32H292C291.448 32 291 31.5523 291 31V26.5Z" fill="#030303"/>
<path d="M286 29C286 28.4477 286.448 28 287 28H288C288.552 28 289 28.4477 289 29V31C289 31.5523 288.552 32 288 32H287C286.448 32 286 31.5523 286 31V29Z" fill="#030303"/>
</g>
<path d="M26 79L16 69L26 59L27.4 60.425L18.825 69L27.4 77.575L26 79Z" fill="#4F4F4F"/>
<path d="M172.837 75H179.822V73.7344H174.244V69.8594H179.533V68.6094H174.244V64.9922H179.822V63.7266H172.837V75ZM185.258 75H186.649L190.805 63.7266H189.329L186.016 73.1797H185.891L182.579 63.7266H181.102L185.258 75ZM192.414 75H199.398V73.7344H193.82V69.8594H199.109V68.6094H193.82V64.9922H199.398V63.7266H192.414V75ZM201.577 75H202.968V66.2578H203.093L209.21 75H210.577V63.7266H209.187V72.5H209.062L202.944 63.7266H201.577V75ZM216.014 75H217.42V64.9922H221.053V63.7266H212.381V64.9922H216.014V75Z" fill="#4F4F4F"/>
<rect width="390" height="34" transform="translate(0 810)" fill="#2A2623"/>
<rect x="128" y="831" width="134" height="5" rx="2.5" fill="white"/>
<rect width="390" height="54" transform="translate(0 756)" fill="#2A2623"/>
<path d="M26.3333 788V772L37.0666 764L47.6666 772V788H39.8666V778.5H34.0999V788H26.3333ZM28.3333 786H32.0999V776.5H41.8666V786H45.6666V773L37.0666 766.5L28.3333 773V786Z" fill="#FDFDFD"/>
<path d="M24.3714 804H25.2503V800.792H29.1175V804H29.9964V796.954H29.1175V800.001H25.2503V796.954H24.3714V804ZM33.6189 804.093C35.1179 804.093 36.0457 803.058 36.0457 801.373V801.363C36.0457 799.674 35.1179 798.644 33.6189 798.644C32.1199 798.644 31.1921 799.674 31.1921 801.363V801.373C31.1921 803.058 32.1199 804.093 33.6189 804.093ZM33.6189 803.341C32.6228 803.341 32.0613 802.613 32.0613 801.373V801.363C32.0613 800.118 32.6228 799.396 33.6189 799.396C34.615 799.396 35.1765 800.118 35.1765 801.363V801.373C35.1765 802.613 34.615 803.341 33.6189 803.341ZM37.134 804H37.9836V800.738C37.9836 799.996 38.5061 799.396 39.1946 799.396C39.8586 799.396 40.2883 799.801 40.2883 800.426V804H41.1379V800.616C41.1379 799.947 41.6213 799.396 42.3538 799.396C43.0959 799.396 43.4524 799.781 43.4524 800.558V804H44.302V800.362C44.302 799.259 43.7014 798.644 42.6272 798.644C41.8996 798.644 41.2991 799.01 41.0159 799.566H40.9377C40.6936 799.02 40.1955 798.644 39.4827 798.644C38.7942 798.644 38.2961 798.971 38.0618 799.537H37.9836V798.736H37.134V804ZM47.7536 804.093C48.9939 804.093 49.7458 803.39 49.9265 802.677L49.9362 802.638H49.0866L49.0671 802.682C48.9255 802.999 48.4861 803.336 47.7732 803.336C46.8357 803.336 46.2351 802.701 46.2107 801.612H49.9997V801.28C49.9997 799.708 49.1306 798.644 47.6999 798.644C46.2693 798.644 45.3415 799.757 45.3415 801.383V801.388C45.3415 803.038 46.2497 804.093 47.7536 804.093ZM47.695 799.4C48.4714 799.4 49.0476 799.894 49.1355 800.934H46.2253C46.3181 799.933 46.9138 799.4 47.695 799.4Z" fill="white"/>
<path d="M107 788C106.52 788 106.1 787.82 105.74 787.46C105.38 787.1 105.2 786.68 105.2 786.2V767.6C105.2 767.12 105.38 766.7 105.74 766.34C106.1 765.98 106.52 765.8 107 765.8H108.95V764H110.9V765.8H121.1V764H123.05V765.8H125C125.48 765.8 125.9 765.98 126.26 766.34C126.62 766.7 126.8 767.12 126.8 767.6V786.2C126.8 786.68 126.62 787.1 126.26 787.46C125.9 787.82 125.48 788 125 788H107ZM107 786.2H125V773.3H107V786.2ZM107 771.5H125V767.6H107V771.5ZM107 771.5V767.6V771.5Z" fill="#FDFDFD"/>
<path d="M99.4271 804.166C100.926 804.166 102.039 803.331 102.274 802.042V802.032H101.385L101.375 802.042C101.156 802.853 100.409 803.355 99.4271 803.355C98.0696 803.355 97.22 802.247 97.22 800.484V800.475C97.22 798.712 98.0696 797.599 99.4222 797.599C100.394 797.599 101.146 798.17 101.38 799.073L101.385 799.083H102.269L102.274 799.073C102.064 797.721 100.907 796.788 99.4222 796.788C97.5081 796.788 96.3167 798.204 96.3167 800.475V800.484C96.3167 802.75 97.513 804.166 99.4271 804.166ZM104.856 804.093C105.564 804.093 106.116 803.785 106.448 803.224H106.526V804H107.376V800.396C107.376 799.303 106.658 798.644 105.374 798.644C104.251 798.644 103.45 799.2 103.313 800.025L103.308 800.055H104.158L104.163 800.04C104.3 799.63 104.715 799.396 105.345 799.396C106.131 799.396 106.526 799.747 106.526 800.396V800.875L105.017 800.968C103.792 801.041 103.098 801.583 103.098 802.521V802.53C103.098 803.487 103.855 804.093 104.856 804.093ZM103.968 802.511V802.501C103.968 801.979 104.319 801.695 105.12 801.646L106.526 801.559V802.037C106.526 802.789 105.896 803.355 105.032 803.355C104.422 803.355 103.968 803.043 103.968 802.511ZM108.747 804H109.597V796.646H108.747V804ZM113.146 804.093C114.386 804.093 115.138 803.39 115.319 802.677L115.329 802.638H114.479L114.46 802.682C114.318 802.999 113.879 803.336 113.166 803.336C112.228 803.336 111.628 802.701 111.603 801.612H115.392V801.28C115.392 799.708 114.523 798.644 113.093 798.644C111.662 798.644 110.734 799.757 110.734 801.383V801.388C110.734 803.038 111.642 804.093 113.146 804.093ZM113.088 799.4C113.864 799.4 114.44 799.894 114.528 800.934H111.618C111.711 799.933 112.306 799.4 113.088 799.4ZM116.481 804H117.33V800.885C117.33 799.962 117.863 799.396 118.702 799.396C119.542 799.396 119.933 799.85 119.933 800.797V804H120.782V800.592C120.782 799.342 120.123 798.644 118.942 798.644C118.165 798.644 117.672 798.971 117.408 799.527H117.33V798.736H116.481V804ZM124.034 804.093C124.766 804.093 125.352 803.746 125.675 803.16H125.753V804H126.602V796.646H125.753V799.566H125.675C125.386 799.005 124.757 798.644 124.034 798.644C122.696 798.644 121.827 799.713 121.827 801.363V801.373C121.827 803.014 122.701 804.093 124.034 804.093ZM124.229 803.341C123.267 803.341 122.696 802.599 122.696 801.373V801.363C122.696 800.138 123.267 799.396 124.229 799.396C125.186 799.396 125.772 800.147 125.772 801.363V801.373C125.772 802.589 125.186 803.341 124.229 803.341ZM129.448 804.093C130.156 804.093 130.708 803.785 131.04 803.224H131.118V804H131.968V800.396C131.968 799.303 131.25 798.644 129.966 798.644C128.843 798.644 128.042 799.2 127.905 800.025L127.901 800.055H128.75L128.755 800.04C128.892 799.63 129.307 799.396 129.937 799.396C130.723 799.396 131.118 799.747 131.118 800.396V800.875L129.61 800.968C128.384 801.041 127.691 801.583 127.691 802.521V802.53C127.691 803.487 128.447 804.093 129.448 804.093ZM128.56 802.511V802.501C128.56 801.979 128.911 801.695 129.712 801.646L131.118 801.559V802.037C131.118 802.789 130.488 803.355 129.624 803.355C129.014 803.355 128.56 803.043 128.56 802.511ZM133.291 804H134.14V800.738C134.14 799.967 134.716 799.454 135.527 799.454C135.713 799.454 135.874 799.474 136.049 799.503V798.678C135.966 798.663 135.786 798.644 135.625 798.644C134.912 798.644 134.419 798.966 134.218 799.518H134.14V798.736H133.291V804Z" fill="#FDFDFD"/>
<rect width="24" height="24" transform="translate(183 764)" fill="white"/>
<path d="M195.855 775.658H201.158V776.547H195.855H195.513V776.889V782.158H194.658V776.889V776.547H194.316H188.842V775.658H194.316H194.658V775.316V769.842H195.513V775.316V775.658H195.855Z" fill="#4F4F4F" stroke="#4F4F4F" stroke-width="0.684211"/>
<path d="M183.651 804.166C185.15 804.166 186.263 803.331 186.498 802.042V802.032H185.609L185.599 802.042C185.38 802.853 184.633 803.355 183.651 803.355C182.294 803.355 181.444 802.247 181.444 800.484V800.475C181.444 798.712 182.294 797.599 183.646 797.599C184.618 797.599 185.37 798.17 185.604 799.073L185.609 799.083H186.493L186.498 799.073C186.288 797.721 185.131 796.788 183.646 796.788C181.732 796.788 180.541 798.204 180.541 800.475V800.484C180.541 802.75 181.737 804.166 183.651 804.166ZM187.635 804H188.485V800.738C188.485 799.967 189.061 799.454 189.871 799.454C190.057 799.454 190.218 799.474 190.394 799.503V798.678C190.311 798.663 190.13 798.644 189.969 798.644C189.256 798.644 188.763 798.966 188.563 799.518H188.485V798.736H187.635V804ZM193.216 804.093C194.456 804.093 195.208 803.39 195.388 802.677L195.398 802.638H194.549L194.529 802.682C194.387 802.999 193.948 803.336 193.235 803.336C192.298 803.336 191.697 802.701 191.673 801.612H195.462V801.28C195.462 799.708 194.593 798.644 193.162 798.644C191.731 798.644 190.803 799.757 190.803 801.383V801.388C190.803 803.038 191.712 804.093 193.216 804.093ZM193.157 799.4C193.933 799.4 194.51 799.894 194.597 800.934H191.687C191.78 799.933 192.376 799.4 193.157 799.4ZM197.995 804.093C198.703 804.093 199.255 803.785 199.587 803.224H199.665V804H200.515V800.396C200.515 799.303 199.797 798.644 198.513 798.644C197.39 798.644 196.589 799.2 196.452 800.025L196.448 800.055H197.297L197.302 800.04C197.439 799.63 197.854 799.396 198.484 799.396C199.27 799.396 199.665 799.747 199.665 800.396V800.875L198.156 800.968C196.931 801.041 196.238 801.583 196.238 802.521V802.53C196.238 803.487 196.994 804.093 197.995 804.093ZM197.107 802.511V802.501C197.107 801.979 197.458 801.695 198.259 801.646L199.665 801.559V802.037C199.665 802.789 199.035 803.355 198.171 803.355C197.561 803.355 197.107 803.043 197.107 802.511ZM203.708 804.039C203.874 804.039 204.035 804.02 204.201 803.99V803.268C204.045 803.282 203.962 803.287 203.81 803.287C203.263 803.287 203.049 803.038 203.049 802.418V799.439H204.201V798.736H203.049V797.374H202.17V798.736H201.34V799.439H202.17V802.633C202.17 803.639 202.624 804.039 203.708 804.039ZM207.311 804.093C208.551 804.093 209.303 803.39 209.484 802.677L209.493 802.638H208.644L208.624 802.682C208.483 802.999 208.043 803.336 207.33 803.336C206.393 803.336 205.792 802.701 205.768 801.612H209.557V801.28C209.557 799.708 208.688 798.644 207.257 798.644C205.826 798.644 204.899 799.757 204.899 801.383V801.388C204.899 803.038 205.807 804.093 207.311 804.093ZM207.252 799.4C208.029 799.4 208.605 799.894 208.693 800.934H205.782C205.875 799.933 206.471 799.4 207.252 799.4Z" fill="#FDFDFD"/>
<path d="M272.5 788L271.183 786.838C267.56 783.563 264.652 780.708 262.458 778.274C260.264 775.84 259.167 773.372 259.167 770.871C259.167 768.924 259.836 767.292 261.175 765.975C262.514 764.658 264.174 764 266.154 764C267.279 764 268.399 764.271 269.512 764.813C270.626 765.355 271.622 766.246 272.5 767.485C273.512 766.246 274.536 765.355 275.572 764.813C276.607 764.271 277.698 764 278.846 764C280.826 764 282.486 764.658 283.825 765.975C285.164 767.292 285.833 768.924 285.833 770.871C285.833 773.372 284.736 775.84 282.542 778.274C280.348 780.708 277.439 783.563 273.816 786.838L272.5 788ZM272.5 785.51C275.898 782.434 278.649 779.762 280.753 777.494C282.857 775.225 283.909 773.029 283.909 770.905C283.909 769.444 283.431 768.243 282.475 767.303C281.518 766.362 280.32 765.892 278.88 765.892C277.754 765.892 276.697 766.235 275.707 766.921C274.716 767.607 273.906 768.603 273.276 769.909H271.723C271.093 768.603 270.278 767.607 269.276 766.921C268.275 766.235 267.223 765.892 266.12 765.892C264.657 765.892 263.459 766.362 262.525 767.303C261.591 768.243 261.124 769.444 261.124 770.905C261.124 773.029 262.171 775.225 264.264 777.494C266.356 779.762 269.102 782.434 272.5 785.51Z" fill="#FDFDFD"/>
<path d="M253.01 804H253.889V800.948H257.009V800.167H253.889V797.745H257.287V796.954H253.01V804ZM259.499 804.093C260.207 804.093 260.758 803.785 261.09 803.224H261.169V804H262.018V800.396C262.018 799.303 261.3 798.644 260.016 798.644C258.893 798.644 258.092 799.2 257.956 800.025L257.951 800.055H258.8L258.805 800.04C258.942 799.63 259.357 799.396 259.987 799.396C260.773 799.396 261.169 799.747 261.169 800.396V800.875L259.66 800.968C258.434 801.041 257.741 801.583 257.741 802.521V802.53C257.741 803.487 258.498 804.093 259.499 804.093ZM258.61 802.511V802.501C258.61 801.979 258.961 801.695 259.762 801.646L261.169 801.559V802.037C261.169 802.789 260.539 803.355 259.674 803.355C259.064 803.355 258.61 803.043 258.61 802.511ZM264.635 804H265.494L267.442 798.736H266.544L265.104 803.072H265.025L263.585 798.736H262.687L264.635 804ZM270.303 804.093C271.802 804.093 272.73 803.058 272.73 801.373V801.363C272.73 799.674 271.802 798.644 270.303 798.644C268.804 798.644 267.876 799.674 267.876 801.363V801.373C267.876 803.058 268.804 804.093 270.303 804.093ZM270.303 803.341C269.307 803.341 268.746 802.613 268.746 801.373V801.363C268.746 800.118 269.307 799.396 270.303 799.396C271.299 799.396 271.861 800.118 271.861 801.363V801.373C271.861 802.613 271.299 803.341 270.303 803.341ZM273.818 804H274.668V800.738C274.668 799.967 275.244 799.454 276.055 799.454C276.24 799.454 276.401 799.474 276.577 799.503V798.678C276.494 798.663 276.313 798.644 276.152 798.644C275.439 798.644 274.946 798.966 274.746 799.518H274.668V798.736H273.818V804ZM277.846 797.721C278.168 797.721 278.432 797.457 278.432 797.135C278.432 796.812 278.168 796.549 277.846 796.549C277.524 796.549 277.26 796.812 277.26 797.135C277.26 797.457 277.524 797.721 277.846 797.721ZM277.416 804H278.266V798.736H277.416V804ZM281.508 804.039C281.674 804.039 281.835 804.02 282.001 803.99V803.268C281.845 803.282 281.762 803.287 281.61 803.287C281.063 803.287 280.849 803.038 280.849 802.418V799.439H282.001V798.736H280.849V797.374H279.97V798.736H279.14V799.439H279.97V802.633C279.97 803.639 280.424 804.039 281.508 804.039ZM285.111 804.093C286.351 804.093 287.103 803.39 287.284 802.677L287.293 802.638H286.444L286.424 802.682C286.283 802.999 285.843 803.336 285.13 803.336C284.193 803.336 283.592 802.701 283.568 801.612H287.357V801.28C287.357 799.708 286.488 798.644 285.057 798.644C283.626 798.644 282.699 799.757 282.699 801.383V801.388C282.699 803.038 283.607 804.093 285.111 804.093ZM285.052 799.4C285.829 799.4 286.405 799.894 286.493 800.934H283.582C283.675 799.933 284.271 799.4 285.052 799.4ZM290.252 804.093C291.448 804.093 292.361 803.443 292.361 802.506V802.496C292.361 801.744 291.883 801.314 290.892 801.075L290.081 800.88C289.461 800.729 289.197 800.504 289.197 800.147V800.138C289.197 799.674 289.656 799.352 290.281 799.352C290.916 799.352 291.326 799.64 291.438 800.055H292.273C292.156 799.195 291.39 798.644 290.286 798.644C289.168 798.644 288.328 799.303 288.328 800.177V800.182C288.328 800.938 288.772 801.368 289.759 801.603L290.574 801.798C291.224 801.954 291.492 802.203 291.492 802.56V802.569C291.492 803.048 290.989 803.385 290.281 803.385C289.607 803.385 289.187 803.097 289.046 802.657H288.177C288.274 803.526 289.08 804.093 290.252 804.093Z" fill="#FDFDFD"/>
<path d="M343.88 789C343.88 780.75 350.213 780 353.028 780C355.843 780 362.88 780.75 362.88 789" stroke="#FDFDFD" stroke-width="1.4"/>
<circle cx="352.88" cy="771" r="6.3" stroke="#FDFDFD" stroke-width="1.4"/>
<path d="M331.437 804H332.258V798.619H332.311L334.538 804H335.28L337.507 798.619H337.56V804H338.381V796.954H337.36L334.948 802.833H334.87L332.458 796.954H331.437V804ZM340.289 805.846C341.222 805.846 341.657 805.504 342.091 804.322L344.147 798.736H343.253L341.813 803.067H341.735L340.289 798.736H339.381L341.329 804.005L341.232 804.317C341.041 804.923 340.748 805.143 340.265 805.143C340.148 805.143 340.016 805.138 339.913 805.118V805.816C340.031 805.836 340.177 805.846 340.289 805.846ZM347.622 805.758H348.472V803.17H348.55C348.838 803.731 349.468 804.093 350.191 804.093C351.529 804.093 352.398 803.023 352.398 801.373V801.363C352.398 799.723 351.524 798.644 350.191 798.644C349.458 798.644 348.872 798.99 348.55 799.576H348.472V798.736H347.622V805.758ZM349.995 803.341C349.038 803.341 348.452 802.589 348.452 801.373V801.363C348.452 800.147 349.038 799.396 349.995 799.396C350.957 799.396 351.529 800.138 351.529 801.363V801.373C351.529 802.599 350.957 803.341 349.995 803.341ZM353.496 804H354.345V800.738C354.345 799.967 354.922 799.454 355.732 799.454C355.918 799.454 356.079 799.474 356.255 799.503V798.678C356.172 798.663 355.991 798.644 355.83 798.644C355.117 798.644 354.624 798.966 354.424 799.518H354.345V798.736H353.496V804ZM359.091 804.093C360.59 804.093 361.518 803.058 361.518 801.373V801.363C361.518 799.674 360.59 798.644 359.091 798.644C357.592 798.644 356.664 799.674 356.664 801.363V801.373C356.664 803.058 357.592 804.093 359.091 804.093ZM359.091 803.341C358.095 803.341 357.533 802.613 357.533 801.373V801.363C357.533 800.118 358.095 799.396 359.091 799.396C360.087 799.396 360.649 800.118 360.649 801.363V801.373C360.649 802.613 360.087 803.341 359.091 803.341ZM362.958 804H363.807V799.439H365.004V798.736H363.807V798.175C363.807 797.599 364.051 797.301 364.657 797.301C364.808 797.301 364.95 797.306 365.052 797.325V796.646C364.877 796.612 364.691 796.598 364.486 796.598C363.485 796.598 362.958 797.101 362.958 798.15V798.736H362.084V799.439H362.958V804ZM366.448 797.721C366.771 797.721 367.034 797.457 367.034 797.135C367.034 796.812 366.771 796.549 366.448 796.549C366.126 796.549 365.862 796.812 365.862 797.135C365.862 797.457 366.126 797.721 366.448 797.721ZM366.019 804H366.868V798.736H366.019V804ZM368.289 804H369.138V796.646H368.289V804ZM372.688 804.093C373.928 804.093 374.68 803.39 374.861 802.677L374.87 802.638H374.021L374.001 802.682C373.86 802.999 373.42 803.336 372.707 803.336C371.77 803.336 371.169 802.701 371.145 801.612H374.934V801.28C374.934 799.708 374.065 798.644 372.634 798.644C371.203 798.644 370.276 799.757 370.276 801.383V801.388C370.276 803.038 371.184 804.093 372.688 804.093ZM372.629 799.4C373.405 799.4 373.982 799.894 374.069 800.934H371.159C371.252 799.933 371.848 799.4 372.629 799.4Z" fill="#FDFDFD"/>
</g>
<defs>
<filter id="filter0_i_301_8569" x="0" y="691" width="390" height="65" filterUnits="userSpaceOnUse" color-interpolation-filters="sRGB">
<feFlood flood-opacity="0" result="BackgroundImageFix"/>
<feBlend mode="normal" in="SourceGraphic" in2="BackgroundImageFix" result="shape"/>
<feColorMatrix in="SourceAlpha" type="matrix" values="0 0 0 0 0 0 0 0 0 0 0 0 0 0 0 0 0 0 127 0" result="hardAlpha"/>
<feOffset dy="-1"/>
<feGaussianBlur stdDeviation="0.5"/>
<feComposite in2="hardAlpha" operator="arithmetic" k2="-1" k3="1"/>
<feColorMatrix type="matrix" values="0 0 0 0 1 0 0 0 0 1 0 0 0 0 1 0 0 0 0.2 0"/>
<feBlend mode="normal" in2="shape" result="effect1_innerShadow_301_8569"/>
</filter>
<clipPath id="clip0_301_8569">
<rect width="390" height="844" fill="white"/>
</clipPath>
<clipPath id="clip1_301_8569">
<rect width="390" height="47" fill="white"/>
</clipPath>
</defs>
</svg>
