<svg width="390" height="844" viewBox="0 0 390 844" fill="none" xmlns="http://www.w3.org/2000/svg">
<g clip-path="url(#clip0_292_5797)">
<rect width="390" height="844" fill="white"/>
<g filter="url(#filter0_i_292_5797)">
<rect width="390" height="64" transform="translate(0 746)" fill="#F51E5F"/>
<path d="M163.609 784.266C166.492 784.266 168.398 782.422 168.398 779.641V778.266H163.828V779.5H166.992V779.773C166.992 781.68 165.633 782.969 163.617 782.969C161.352 782.969 159.938 781.203 159.938 778.367V778.352C159.938 775.555 161.375 773.758 163.609 773.758C165.289 773.758 166.422 774.555 166.883 776.008L166.906 776.086H168.328L168.312 776.008C167.867 773.867 166.109 772.461 163.609 772.461C160.523 772.461 158.5 774.797 158.5 778.352V778.367C158.5 781.969 160.492 784.266 163.609 784.266ZM175.257 784.266C178.476 784.266 180.429 781.961 180.429 778.367V778.352C180.429 774.742 178.46 772.461 175.257 772.461C172.069 772.461 170.085 774.734 170.085 778.352V778.367C170.085 781.969 172.023 784.266 175.257 784.266ZM175.257 782.969C172.913 782.969 171.523 781.156 171.523 778.367V778.352C171.523 775.539 172.96 773.758 175.257 773.758C177.562 773.758 178.991 775.539 178.991 778.352V778.367C178.991 781.156 177.569 782.969 175.257 782.969ZM186.63 784H188.037V778.867H194.224V784H195.63V772.727H194.224V777.602H188.037V772.727H186.63V784ZM202.872 784.266C206.09 784.266 208.044 781.961 208.044 778.367V778.352C208.044 774.742 206.075 772.461 202.872 772.461C199.684 772.461 197.7 774.734 197.7 778.352V778.367C197.7 781.969 199.637 784.266 202.872 784.266ZM202.872 782.969C200.528 782.969 199.137 781.156 199.137 778.367V778.352C199.137 775.539 200.575 773.758 202.872 773.758C205.176 773.758 206.606 775.539 206.606 778.352V778.367C206.606 781.156 205.184 782.969 202.872 782.969ZM210.113 784H211.426V775.391H211.512L215.074 784H216.262L219.824 775.391H219.91V784H221.222V772.727H219.59L215.73 782.133H215.605L211.746 772.727H210.113V784ZM223.729 784H230.714V782.734H225.136V778.859H230.425V777.609H225.136V773.992H230.714V772.727H223.729V784Z" fill="#FDFDFD"/>
</g>
<g filter="url(#filter1_b_292_5797)">
<rect y="810" width="390" height="34" fill="#2A2623"/>
<rect x="128" y="831" width="134" height="5" rx="2.5" fill="white"/>
<rect y="810" width="390" height="34" stroke="#545458" stroke-opacity="0.65" stroke-width="0.5"/>
</g>
<rect width="390" height="64" transform="translate(0 682)" fill="#FDFDFD"/>
<path d="M174.133 720.266C176.648 720.266 178.297 718.953 178.297 716.844V716.836C178.297 715.211 177.367 714.266 175.016 713.742L173.766 713.461C172.234 713.125 171.617 712.516 171.617 711.617V711.609C171.617 710.43 172.703 709.766 174.109 709.758C175.578 709.75 176.516 710.484 176.672 711.477L176.688 711.578H178.094L178.086 711.469C177.969 709.789 176.398 708.461 174.148 708.461C171.82 708.461 170.188 709.781 170.18 711.648V711.656C170.18 713.289 171.156 714.328 173.414 714.828L174.664 715.102C176.211 715.445 176.859 716.086 176.859 717.023V717.031C176.859 718.18 175.742 718.969 174.211 718.969C172.586 718.969 171.414 718.258 171.312 717.133L171.305 717.047H169.898L169.906 717.133C170.07 718.969 171.664 720.266 174.133 720.266ZM180.273 720H181.679V714.867H187.866V720H189.273V708.727H187.866V713.602H181.679V708.727H180.273V720ZM190.881 720H192.358L193.491 716.773H197.975L199.108 720H200.584L196.428 708.727H195.037L190.881 720ZM195.67 710.547H195.795L197.561 715.578H193.905L195.67 710.547ZM202.193 720H203.599V715.539H206.373L208.787 720H210.435L207.826 715.32C209.24 714.875 210.091 713.656 210.091 712.094V712.078C210.091 710.055 208.669 708.727 206.498 708.727H202.193V720ZM203.599 714.289V709.977H206.31C207.763 709.977 208.638 710.781 208.638 712.125V712.141C208.638 713.516 207.818 714.289 206.373 714.289H203.599ZM212.278 720H219.262V718.734H213.684V714.859H218.973V713.609H213.684V709.992H219.262V708.727H212.278V720Z" fill="#030303"/>
<path d="M356.462 96L355 94.5385L363.038 86.5L355 78.4615L356.462 77L364.5 85.0385L372.538 77L374 78.4615L365.962 86.5L374 94.5385L372.538 96L364.5 87.9615L356.462 96Z" fill="#4F4F4F"/>
<path d="M65.644 295.564L54.738 262.6H64.332L70.482 283.674H70.646L76.796 262.6H85.57L74.664 295.564V320H65.644V295.564ZM99.3441 320.82C94.9161 320.82 91.5267 319.563 89.1761 317.048C86.8254 314.533 85.6501 310.98 85.6501 306.388V276.212C85.6501 271.62 86.8254 268.067 89.1761 265.552C91.5267 263.037 94.9161 261.78 99.3441 261.78C103.772 261.78 107.161 263.037 109.512 265.552C111.863 268.067 113.038 271.62 113.038 276.212V306.388C113.038 310.98 111.863 314.533 109.512 317.048C107.161 319.563 103.772 320.82 99.3441 320.82ZM99.3441 312.62C102.46 312.62 104.018 310.734 104.018 306.962V275.638C104.018 271.866 102.46 269.98 99.3441 269.98C96.2281 269.98 94.6701 271.866 94.6701 275.638V306.962C94.6701 310.734 96.2281 312.62 99.3441 312.62ZM130.372 320.82C125.999 320.82 122.664 319.59 120.368 317.13C118.072 314.615 116.924 311.035 116.924 306.388V262.6H125.944V307.044C125.944 309.012 126.327 310.433 127.092 311.308C127.912 312.183 129.06 312.62 130.536 312.62C132.012 312.62 133.133 312.183 133.898 311.308C134.718 310.433 135.128 309.012 135.128 307.044V262.6H143.82V306.388C143.82 311.035 142.672 314.615 140.376 317.13C138.08 319.59 134.745 320.82 130.372 320.82ZM148.358 262.6H161.724C166.371 262.6 169.76 263.693 171.892 265.88C174.024 268.012 175.09 271.319 175.09 275.802V279.328C175.09 285.287 173.122 289.059 169.186 290.644V290.808C171.373 291.464 172.904 292.803 173.778 294.826C174.708 296.849 175.172 299.555 175.172 302.944V313.03C175.172 314.67 175.227 316.009 175.336 317.048C175.446 318.032 175.719 319.016 176.156 320H166.972C166.644 319.071 166.426 318.196 166.316 317.376C166.207 316.556 166.152 315.08 166.152 312.948V302.452C166.152 299.828 165.715 297.997 164.84 296.958C164.02 295.919 162.572 295.4 160.494 295.4H157.378V320H148.358V262.6ZM160.658 287.2C162.462 287.2 163.802 286.735 164.676 285.806C165.606 284.877 166.07 283.319 166.07 281.132V276.704C166.07 274.627 165.688 273.123 164.922 272.194C164.212 271.265 163.064 270.8 161.478 270.8H157.378V287.2H160.658ZM190.791 262.6H215.391V270.8H199.811V285.97H212.193V294.17H199.811V311.8H215.391V320H190.791V262.6ZM216.316 262.6H225.418L231.322 307.126H231.486L237.39 262.6H245.672L236.98 320H225.008L216.316 262.6ZM248.119 262.6H272.719V270.8H257.139V285.97H269.521V294.17H257.139V311.8H272.719V320H248.119V262.6ZM276.022 262.6H287.338L296.112 296.958H296.276V262.6H304.312V320H295.046L284.222 278.098H284.058V320H276.022V262.6ZM316.182 270.8H306.752V262.6H334.632V270.8H325.202V320H316.182V270.8ZM57.362 333.6H66.382V356.97H76.058V333.6H85.078V391H76.058V365.17H66.382V391H57.362V333.6ZM96.8796 333.6H109.098L118.446 391H109.426L107.786 379.602V379.766H97.5356L95.8956 391H87.5316L96.8796 333.6ZM106.72 371.976L102.702 343.604H102.538L98.6016 371.976H106.72ZM132.421 391.82C128.048 391.82 124.741 390.59 122.499 388.13C120.258 385.615 119.137 382.035 119.137 377.388V374.108H127.665V378.044C127.665 381.761 129.223 383.62 132.339 383.62C133.87 383.62 135.018 383.183 135.783 382.308C136.603 381.379 137.013 379.903 137.013 377.88C137.013 375.475 136.467 373.37 135.373 371.566C134.28 369.707 132.257 367.493 129.305 364.924C125.588 361.644 122.991 358.692 121.515 356.068C120.039 353.389 119.301 350.383 119.301 347.048C119.301 342.511 120.449 339.012 122.745 336.552C125.041 334.037 128.376 332.78 132.749 332.78C137.068 332.78 140.321 334.037 142.507 336.552C144.749 339.012 145.869 342.565 145.869 347.212V349.59H137.341V346.638C137.341 344.67 136.959 343.249 136.193 342.374C135.428 341.445 134.307 340.98 132.831 340.98C129.825 340.98 128.321 342.811 128.321 346.474C128.321 348.551 128.868 350.492 129.961 352.296C131.109 354.1 133.159 356.287 136.111 358.856C139.883 362.136 142.48 365.115 143.901 367.794C145.323 370.473 146.033 373.616 146.033 377.224C146.033 381.925 144.858 385.533 142.507 388.048C140.211 390.563 136.849 391.82 132.421 391.82ZM160.566 333.6H174.178C178.825 333.6 182.214 334.693 184.346 336.88C186.478 339.012 187.544 342.319 187.544 346.802V349.098C187.544 352.05 187.052 354.455 186.068 356.314C185.139 358.173 183.69 359.512 181.722 360.332V360.496C186.205 362.027 188.446 366.017 188.446 372.468V377.388C188.446 381.816 187.271 385.205 184.92 387.556C182.624 389.852 179.235 391 174.752 391H160.566V333.6ZM173.112 356.97C174.916 356.97 176.255 356.505 177.13 355.576C178.059 354.647 178.524 353.089 178.524 350.902V347.704C178.524 345.627 178.141 344.123 177.376 343.194C176.665 342.265 175.517 341.8 173.932 341.8H169.586V356.97H173.112ZM174.752 382.8C176.337 382.8 177.513 382.39 178.278 381.57C179.043 380.695 179.426 379.219 179.426 377.142V372.14C179.426 369.516 178.961 367.712 178.032 366.728C177.157 365.689 175.681 365.17 173.604 365.17H169.586V382.8H174.752ZM191.832 333.6H216.432V341.8H200.852V356.97H213.234V365.17H200.852V382.8H216.432V391H191.832V333.6ZM219.735 333.6H244.335V341.8H228.755V356.97H241.137V365.17H228.755V382.8H244.335V391H219.735V333.6ZM247.639 333.6H258.955L267.729 367.958H267.893V333.6H275.929V391H266.663L255.839 349.098H255.675V391H247.639V333.6ZM57.362 404.6H70.646C75.1287 404.6 78.4907 405.803 80.732 408.208C82.9733 410.613 84.094 414.139 84.094 418.786V424.444C84.094 429.091 82.9733 432.617 80.732 435.022C78.4907 437.427 75.1287 438.63 70.646 438.63H66.382V462H57.362V404.6ZM70.646 430.43C72.122 430.43 73.2153 430.02 73.926 429.2C74.6913 428.38 75.074 426.986 75.074 425.018V418.212C75.074 416.244 74.6913 414.85 73.926 414.03C73.2153 413.21 72.122 412.8 70.646 412.8H66.382V430.43H70.646ZM100.227 462.82C95.8535 462.82 92.5189 461.59 90.2229 459.13C87.9269 456.615 86.7789 453.035 86.7789 448.388V404.6H95.7989V449.044C95.7989 451.012 96.1815 452.433 96.9469 453.308C97.7669 454.183 98.9149 454.62 100.391 454.62C101.867 454.62 102.988 454.183 103.753 453.308C104.573 452.433 104.983 451.012 104.983 449.044V404.6H113.675V448.388C113.675 453.035 112.527 456.615 110.231 459.13C107.935 461.59 104.6 462.82 100.227 462.82ZM118.213 404.6H131.825C136.472 404.6 139.861 405.693 141.993 407.88C144.125 410.012 145.191 413.319 145.191 417.802V420.098C145.191 423.05 144.699 425.455 143.715 427.314C142.786 429.173 141.337 430.512 139.369 431.332V431.496C143.852 433.027 146.093 437.017 146.093 443.468V448.388C146.093 452.816 144.918 456.205 142.567 458.556C140.271 460.852 136.882 462 132.399 462H118.213V404.6ZM130.759 427.97C132.563 427.97 133.902 427.505 134.777 426.576C135.706 425.647 136.171 424.089 136.171 421.902V418.704C136.171 416.627 135.788 415.123 135.023 414.194C134.312 413.265 133.164 412.8 131.579 412.8H127.233V427.97H130.759ZM132.399 453.8C133.984 453.8 135.16 453.39 135.925 452.57C136.69 451.695 137.073 450.219 137.073 448.142V443.14C137.073 440.516 136.608 438.712 135.679 437.728C134.804 436.689 133.328 436.17 131.251 436.17H127.233V453.8H132.399ZM149.479 404.6H158.499V453.8H173.341V462H149.479V404.6ZM175.781 404.6H184.801V462H175.781V404.6ZM201.396 462.82C197.023 462.82 193.716 461.59 191.474 459.13C189.233 456.615 188.112 453.035 188.112 448.388V445.108H196.64V449.044C196.64 452.761 198.198 454.62 201.314 454.62C202.845 454.62 203.993 454.183 204.758 453.308C205.578 452.379 205.988 450.903 205.988 448.88C205.988 446.475 205.442 444.37 204.348 442.566C203.255 440.707 201.232 438.493 198.28 435.924C194.563 432.644 191.966 429.692 190.49 427.068C189.014 424.389 188.276 421.383 188.276 418.048C188.276 413.511 189.424 410.012 191.72 407.552C194.016 405.037 197.351 403.78 201.724 403.78C206.043 403.78 209.296 405.037 211.482 407.552C213.724 410.012 214.844 413.565 214.844 418.212V420.59H206.316V417.638C206.316 415.67 205.934 414.249 205.168 413.374C204.403 412.445 203.282 411.98 201.806 411.98C198.8 411.98 197.296 413.811 197.296 417.474C197.296 419.551 197.843 421.492 198.936 423.296C200.084 425.1 202.134 427.287 205.086 429.856C208.858 433.136 211.455 436.115 212.876 438.794C214.298 441.473 215.008 444.616 215.008 448.224C215.008 452.925 213.833 456.533 211.482 459.048C209.186 461.563 205.824 462.82 201.396 462.82ZM218.294 404.6H227.314V427.97H236.99V404.6H246.01V462H236.99V436.17H227.314V462H218.294V404.6ZM250.842 404.6H275.442V412.8H259.862V427.97H272.244V436.17H259.862V453.8H275.442V462H250.842V404.6ZM278.745 404.6H292.521C297.003 404.6 300.365 405.803 302.607 408.208C304.848 410.613 305.969 414.139 305.969 418.786V447.814C305.969 452.461 304.848 455.987 302.607 458.392C300.365 460.797 297.003 462 292.521 462H278.745V404.6ZM292.357 453.8C293.833 453.8 294.953 453.363 295.719 452.488C296.539 451.613 296.949 450.192 296.949 448.224V418.376C296.949 416.408 296.539 414.987 295.719 414.112C294.953 413.237 293.833 412.8 292.357 412.8H287.765V453.8H292.357Z" fill="#030303"/>
<path d="M70.072 533.82C65.7533 533.82 62.446 532.59 60.15 530.13C57.9087 527.67 56.788 524.199 56.788 519.716V488.884C56.788 484.401 57.9087 480.93 60.15 478.47C62.446 476.01 65.7533 474.78 70.072 474.78C74.3907 474.78 77.6707 476.01 79.912 478.47C82.208 480.93 83.356 484.401 83.356 488.884V494.952H74.828V488.31C74.828 484.757 73.3247 482.98 70.318 482.98C67.3113 482.98 65.808 484.757 65.808 488.31V520.372C65.808 523.871 67.3113 525.62 70.318 525.62C73.3247 525.62 74.828 523.871 74.828 520.372V511.598H83.356V519.716C83.356 524.199 82.208 527.67 79.912 530.13C77.6707 532.59 74.3907 533.82 70.072 533.82ZM100.065 533.82C95.6368 533.82 92.2474 532.563 89.8968 530.048C87.5461 527.533 86.3708 523.98 86.3708 519.388V489.212C86.3708 484.62 87.5461 481.067 89.8968 478.552C92.2474 476.037 95.6368 474.78 100.065 474.78C104.493 474.78 107.882 476.037 110.233 478.552C112.583 481.067 113.759 484.62 113.759 489.212V519.388C113.759 523.98 112.583 527.533 110.233 530.048C107.882 532.563 104.493 533.82 100.065 533.82ZM100.065 525.62C103.181 525.62 104.739 523.734 104.739 519.962V488.638C104.739 484.866 103.181 482.98 100.065 482.98C96.9488 482.98 95.3908 484.866 95.3908 488.638V519.962C95.3908 523.734 96.9488 525.62 100.065 525.62ZM117.973 475.6H131.339C135.985 475.6 139.375 476.693 141.507 478.88C143.639 481.012 144.705 484.319 144.705 488.802V492.328C144.705 498.287 142.737 502.059 138.801 503.644V503.808C140.987 504.464 142.518 505.803 143.393 507.826C144.322 509.849 144.787 512.555 144.787 515.944V526.03C144.787 527.67 144.841 529.009 144.951 530.048C145.06 531.032 145.333 532.016 145.771 533H136.587C136.259 532.071 136.04 531.196 135.931 530.376C135.821 529.556 135.767 528.08 135.767 525.948V515.452C135.767 512.828 135.329 510.997 134.455 509.958C133.635 508.919 132.186 508.4 130.109 508.4H126.993V533H117.973V475.6ZM130.273 500.2C132.077 500.2 133.416 499.735 134.291 498.806C135.22 497.877 135.685 496.319 135.685 494.132V489.704C135.685 487.627 135.302 486.123 134.537 485.194C133.826 484.265 132.678 483.8 131.093 483.8H126.993V500.2H130.273ZM149.159 475.6H162.525C167.172 475.6 170.561 476.693 172.693 478.88C174.825 481.012 175.891 484.319 175.891 488.802V492.328C175.891 498.287 173.923 502.059 169.987 503.644V503.808C172.174 504.464 173.704 505.803 174.579 507.826C175.508 509.849 175.973 512.555 175.973 515.944V526.03C175.973 527.67 176.028 529.009 176.137 530.048C176.246 531.032 176.52 532.016 176.957 533H167.773C167.445 532.071 167.226 531.196 167.117 530.376C167.008 529.556 166.953 528.08 166.953 525.948V515.452C166.953 512.828 166.516 510.997 165.641 509.958C164.821 508.919 163.372 508.4 161.295 508.4H158.179V533H149.159V475.6ZM161.459 500.2C163.263 500.2 164.602 499.735 165.477 498.806C166.406 497.877 166.871 496.319 166.871 494.132V489.704C166.871 487.627 166.488 486.123 165.723 485.194C165.012 484.265 163.864 483.8 162.279 483.8H158.179V500.2H161.459ZM180.345 475.6H204.945V483.8H189.365V498.97H201.747V507.17H189.365V524.8H204.945V533H180.345V475.6ZM220.958 533.82C216.64 533.82 213.332 532.59 211.036 530.13C208.795 527.67 207.674 524.199 207.674 519.716V488.884C207.674 484.401 208.795 480.93 211.036 478.47C213.332 476.01 216.64 474.78 220.958 474.78C225.277 474.78 228.557 476.01 230.798 478.47C233.094 480.93 234.242 484.401 234.242 488.884V494.952H225.714V488.31C225.714 484.757 224.211 482.98 221.204 482.98C218.198 482.98 216.694 484.757 216.694 488.31V520.372C216.694 523.871 218.198 525.62 221.204 525.62C224.211 525.62 225.714 523.871 225.714 520.372V511.598H234.242V519.716C234.242 524.199 233.094 527.67 230.798 530.13C228.557 532.59 225.277 533.82 220.958 533.82ZM244.805 483.8H235.375V475.6H263.255V483.8H253.825V533H244.805V483.8ZM265.736 475.6H274.756V524.8H289.598V533H265.736V475.6ZM293.113 508.564L282.207 475.6H291.801L297.951 496.674H298.115L304.265 475.6H313.039L302.133 508.564V533H293.113V508.564ZM315.954 499.544V475.6H324.974V499.544L323.826 517.83H317.102L315.954 499.544ZM316.118 524.308H324.81V533H316.118V524.308Z" fill="#F51E5F"/>
<rect width="390" height="47" fill="#FDFDFD"/>
<g clip-path="url(#clip1_292_5797)">
<path d="M118.26 -1H271.692V14C271.692 23.3888 264.129 31 254.8 31H135.152C125.823 31 118.26 23.3888 118.26 14V-1Z" fill="black"/>
<path d="M118.49 -1L117 -2C119.634 -2 118.291 1.14875 118.291 3.79934C118.291 3.86656 118.29 3.93345 118.287 4H118.49V-1Z" fill="black"/>
<path d="M271.51 -1L273 -2C270.366 -2 271.709 1.14875 271.709 3.79934C271.709 3.86656 271.71 3.93345 271.713 4H271.51V-1Z" fill="black"/>
<path d="M42.883 19.8145C40.2184 19.8145 38.2678 21.5493 38.2678 23.998V24.0146C38.2678 26.2642 39.8532 27.8994 42.1691 27.8994C43.7878 27.8994 44.9665 27.0859 45.4396 25.9736H45.4811C45.4894 26.1064 45.4811 26.2725 45.4728 26.4302C45.3815 28.5469 44.6179 30.2153 42.8664 30.2153C41.8869 30.2153 41.2228 29.7256 40.924 29.0034L40.8991 28.937H38.4255L38.4421 29.0117C38.799 30.8628 40.5422 32.2075 42.8581 32.2075C45.9792 32.2075 47.8801 29.8418 47.8801 25.9155V25.8989C47.8801 21.8398 45.7717 19.8145 42.883 19.8145ZM42.8913 26.0483C41.6462 26.0483 40.7082 25.1768 40.7082 23.9316V23.915C40.7082 22.728 41.696 21.8066 42.9162 21.8066C44.1447 21.8066 45.1076 22.7363 45.1076 23.9482V23.9565C45.1076 25.1768 44.1447 26.0483 42.8913 26.0483ZM50.203 24.3965C50.9501 24.3965 51.5477 23.8071 51.5477 23.0518C51.5477 22.3047 50.9501 21.707 50.203 21.707C49.4477 21.707 48.8583 22.3047 48.8583 23.0518C48.8583 23.8071 49.4477 24.3965 50.203 24.3965ZM50.203 30.3066C50.9501 30.3066 51.5477 29.709 51.5477 28.9619C51.5477 28.2065 50.9501 27.6172 50.203 27.6172C49.4477 27.6172 48.8583 28.2065 48.8583 28.9619C48.8583 29.709 49.4477 30.3066 50.203 30.3066ZM58.4029 32H60.7853V29.8003H62.3624V27.7998H60.7853V20.022H57.2491L52.443 27.7085V29.8003H58.4029V32ZM54.6261 27.8662V27.7998L58.3946 21.8315H58.4527V27.8662H54.6261ZM66.2044 32H68.6863V20.022H66.1961L63.0999 22.1719V24.3965L66.1546 22.3213H66.2044V32Z" fill="#030303"/>
<path opacity="0.35" d="M336.5 23C336.5 21.067 338.067 19.5 340 19.5H357C358.933 19.5 360.5 21.067 360.5 23V28C360.5 29.933 358.933 31.5 357 31.5H340C338.067 31.5 336.5 29.933 336.5 28V23Z" stroke="#030303"/>
<path opacity="0.4" d="M362 24V28.2203C362.849 27.8629 363.401 27.0314 363.401 26.1102C363.401 25.1889 362.849 24.3574 362 24Z" fill="#030303"/>
<path d="M338 23C338 21.8954 338.895 21 340 21H357C358.105 21 359 21.8954 359 23V28C359 29.1046 358.105 30 357 30H340C338.895 30 338 29.1046 338 28V23Z" fill="#030303"/>
<path fill-rule="evenodd" clip-rule="evenodd" d="M320.5 22.5875C322.967 22.5876 325.339 23.5551 327.127 25.2898C327.261 25.4237 327.477 25.4221 327.609 25.286L328.896 23.9605C328.963 23.8915 329.001 23.798 329 23.7008C328.999 23.6035 328.961 23.5105 328.893 23.4423C324.201 18.8526 316.799 18.8526 312.107 23.4423C312.039 23.5105 312.001 23.6034 312 23.7007C311.999 23.7979 312.037 23.8914 312.104 23.9605L313.391 25.286C313.523 25.4223 313.739 25.424 313.873 25.2898C315.661 23.5549 318.034 22.5875 320.5 22.5875ZM320.536 26.5894C321.891 26.5893 323.198 27.1035 324.203 28.032C324.338 28.1638 324.552 28.1609 324.685 28.0255L325.97 26.7C326.038 26.6304 326.075 26.5361 326.074 26.4381C326.073 26.3401 326.034 26.2466 325.965 26.1784C322.906 23.2739 318.169 23.2739 315.109 26.1784C315.04 26.2466 315.001 26.3401 315 26.4382C314.999 26.5362 315.037 26.6305 315.105 26.7L316.39 28.0255C316.522 28.1609 316.736 28.1638 316.872 28.032C317.876 27.1041 319.182 26.5899 320.536 26.5894ZM323.15 29.1767C323.152 29.275 323.114 29.3698 323.045 29.4386L320.822 31.7289C320.756 31.7962 320.668 31.834 320.575 31.834C320.482 31.834 320.393 31.7962 320.328 31.7289L318.105 29.4386C318.036 29.3697 317.998 29.2749 318 29.1766C318.002 29.0783 318.044 28.9853 318.115 28.9194C319.535 27.6935 321.615 27.6935 323.035 28.9194C323.106 28.9853 323.148 29.0784 323.15 29.1767Z" fill="#030303"/>
<path d="M296 23C296 22.4477 296.448 22 297 22H298C298.552 22 299 22.4477 299 23V31C299 31.5523 298.552 32 298 32H297C296.448 32 296 31.5523 296 31V23Z" fill="#030303"/>
<path d="M301 21C301 20.4477 301.448 20 302 20H303C303.552 20 304 20.4477 304 21V31C304 31.5523 303.552 32 303 32H302C301.448 32 301 31.5523 301 31V21Z" fill="#030303"/>
<path d="M291 26.5C291 25.9477 291.448 25.5 292 25.5H293C293.552 25.5 294 25.9477 294 26.5V31C294 31.5523 293.552 32 293 32H292C291.448 32 291 31.5523 291 31V26.5Z" fill="#030303"/>
<path d="M286 29C286 28.4477 286.448 28 287 28H288C288.552 28 289 28.4477 289 29V31C289 31.5523 288.552 32 288 32H287C286.448 32 286 31.5523 286 31V29Z" fill="#030303"/>
</g>
</g>
<defs>
<filter id="filter0_i_292_5797" x="0" y="745" width="390" height="65" filterUnits="userSpaceOnUse" color-interpolation-filters="sRGB">
<feFlood flood-opacity="0" result="BackgroundImageFix"/>
<feBlend mode="normal" in="SourceGraphic" in2="BackgroundImageFix" result="shape"/>
<feColorMatrix in="SourceAlpha" type="matrix" values="0 0 0 0 0 0 0 0 0 0 0 0 0 0 0 0 0 0 127 0" result="hardAlpha"/>
<feOffset dy="-1"/>
<feGaussianBlur stdDeviation="0.5"/>
<feComposite in2="hardAlpha" operator="arithmetic" k2="-1" k3="1"/>
<feColorMatrix type="matrix" values="0 0 0 0 1 0 0 0 0 1 0 0 0 0 1 0 0 0 0.2 0"/>
<feBlend mode="normal" in2="shape" result="effect1_innerShadow_292_5797"/>
</filter>
<filter id="filter1_b_292_5797" x="-20.25" y="789.75" width="430.5" height="74.5" filterUnits="userSpaceOnUse" color-interpolation-filters="sRGB">
<feFlood flood-opacity="0" result="BackgroundImageFix"/>
<feGaussianBlur in="BackgroundImage" stdDeviation="10"/>
<feComposite in2="SourceAlpha" operator="in" result="effect1_backgroundBlur_292_5797"/>
<feBlend mode="normal" in="SourceGraphic" in2="effect1_backgroundBlur_292_5797" result="shape"/>
</filter>
<clipPath id="clip0_292_5797">
<rect width="390" height="844" fill="white"/>
</clipPath>
<clipPath id="clip1_292_5797">
<rect width="390" height="47" fill="white"/>
</clipPath>
</defs>
</svg>
