<svg width="464" height="105" viewBox="0 0 464 105" fill="none" xmlns="http://www.w3.org/2000/svg">
<g clip-path="url(#clip0_925_12854)">
<path d="M17.5538 96.5459C20.6174 96.5459 22.2734 95.8 23.4326 94.5568C24.509 93.4793 25.0886 92.0703 25.0886 90.4126C25.0886 88.755 24.509 87.3459 23.4326 86.2685C22.3562 85.0252 20.6174 84.2793 17.5538 84.2793H8.77688V96.5459H17.5538ZM8.77688 76.4883H14.9041C17.6366 76.4883 18.8786 75.8252 19.7894 74.8306C20.5346 74.0018 21.1142 72.8414 21.1142 71.5982C21.1142 70.355 20.6174 69.1946 19.7894 68.3658C18.8786 67.3712 17.6366 66.7081 14.9041 66.7081H8.69408V76.4883H8.77688ZM15.4837 59C20.6174 59 23.5154 60.2432 25.6682 62.1495C28.2351 64.3874 29.8911 67.6198 29.8911 71.2667C29.8911 74.2505 28.4835 77.3171 26.9931 78.809C31.0503 80.7982 33.7827 85.3568 33.7827 90.4126C33.7827 94.2252 32.1267 97.7063 29.6427 100.193C27.0759 102.679 23.5982 104.254 17.7194 104.254H0V59H15.4837ZM61.6866 83.8649C59.9478 81.5441 57.1325 79.9694 53.9033 79.9694C48.9353 79.9694 45.7888 84.0306 45.7888 88.5892C45.7888 93.4793 49.3493 97.1261 54.0689 97.1261C57.2153 97.1261 60.0306 95.5514 61.6866 93.2306V83.8649ZM70.1323 104.254H62.0178V101.768C59.451 104.005 56.4701 104.917 53.2409 104.917C48.5213 104.917 44.1328 102.845 41.3176 99.6126C38.8336 96.7946 37.2604 92.8991 37.2604 88.5892C37.2604 79.3892 44.2156 72.2613 52.7441 72.2613C56.3045 72.2613 59.5338 73.4216 61.935 75.4108V72.9243H70.0495V104.254H70.1323ZM114.017 87.0973L131.405 104.337H119.978L106.647 90.7441V104.337H98.2017V59.0829H106.647V83.1189L117.494 73.0072H129.418" fill="white"/>
<path d="M146.64 97.209C151.608 97.209 154.92 93.3964 154.92 88.6721C154.92 83.9478 151.526 80.0523 146.64 80.0523C141.672 80.0523 138.36 83.9478 138.36 88.6721C138.36 93.3964 141.672 97.209 146.64 97.209V97.209ZM146.64 72.3441C156.162 72.3441 163.366 79.6378 163.366 88.6721C163.366 97.7063 156.162 105 146.64 105C137.118 105 129.915 97.7892 129.915 88.6721C129.915 79.6378 137.118 72.3441 146.64 72.3441V72.3441ZM167.92 104.337V73.0072H176.035V75.4937C178.436 73.5874 181.417 72.3441 184.977 72.3441C189.366 72.3441 193.257 74.2505 195.907 77.4C197.977 79.8865 199.136 83.036 199.136 88.4234V104.42H190.69V87.7604C190.69 84.6937 189.945 83.036 188.786 81.8757C187.71 80.7982 185.971 80.1351 184.066 80.1351C180.506 80.1351 177.608 82.373 176.366 84.0306V104.42H167.92V104.337ZM206.505 94.8054C208.658 96.7117 211.97 97.8721 215.117 97.8721C217.352 97.8721 219.174 96.7946 219.174 95.2198C219.174 90.4955 203.939 92.1532 203.939 82.1243C203.939 76.0739 209.817 72.3441 216.027 72.3441C220.085 72.3441 224.639 73.9189 226.709 75.4937L222.734 81.5441C221.078 80.3838 218.925 79.3892 216.69 79.3892C214.371 79.3892 212.384 80.3009 212.384 81.8757C212.384 85.9369 227.62 84.3622 227.62 95.2198C227.62 101.27 221.741 104.917 215.117 104.917C210.728 104.917 206.174 103.425 202.448 100.69L206.505 94.8054V94.8054ZM262.065 73.0072V104.42H253.95V101.933C251.466 104.171 248.485 105.083 245.422 105.083C241.033 105.083 237.142 103.094 234.658 100.027C232.67 97.5405 231.511 94.3081 231.511 89.6667V73.0072H239.957V89.9982C239.957 92.8162 240.536 94.3081 241.53 95.3856C242.855 96.7946 244.676 97.2919 246.25 97.2919C249.81 97.2919 252.46 94.8883 253.619 93.3964V73.0072H262.065V73.0072ZM267.116 59.0829H275.561V104.42H267.116V59.0829ZM93.8135 72.9243H75.8457V104.254H84.2914V81.2955H93.8135V72.9243ZM288.561 73.0072V64.2216H280.115V104.337H288.561V81.3784H298V73.0072" fill="white"/>
</g>
<g clip-path="url(#clip1_925_12854)">
<path d="M432.418 104.122C432.308 104.671 431.748 105.003 431.414 105.003H413.677C413.343 105.003 412.783 104.674 412.673 104.122C412.673 104.122 407.652 68.1467 406.538 60.2246C406.428 59.3429 406.091 50.8747 406.091 50.8747C406.091 46.3643 414.234 44.0548 414.234 41.742L414.01 40.9722V29.3095C414.01 28.3192 414.01 27 415.795 27H429.292C431.077 27 431.077 28.3192 431.077 29.3095V40.7517L430.854 41.742C430.854 44.0515 438.997 46.4729 438.997 50.8747C438.997 50.8747 438.663 59.3462 438.55 60.2246C437.545 68.1467 432.415 104.122 432.415 104.122" fill="white"/>
<path d="M387.126 66.8241C400.066 62.8631 397.501 52.6315 396.83 49.8812C396.72 49.4403 396.383 49.2199 396.05 49.1113H364.034C363.587 49.2199 363.364 49.4403 363.254 49.8812C362.583 52.7401 360.018 62.8631 372.958 66.8241C375.637 67.7058 376.641 68.2552 376.751 68.8046C376.861 69.2455 376.861 70.2357 376.751 70.6733C376.641 71.3345 375.413 72.4334 375.3 72.9828C375.857 78.1545 376.975 83.6552 376.975 96.0877C376.975 97.2983 376.528 98.9466 374.966 100.157C373.515 101.368 370.279 102.026 368.718 102.687C368.271 102.908 367.604 104.227 368.718 104.997H391.476C392.59 104.335 391.923 102.908 391.476 102.687C389.915 102.026 386.679 101.368 385.228 100.157C383.667 98.838 383.22 97.1865 383.22 96.0877C383.109 83.6552 384.224 78.1545 384.894 72.9828C384.784 72.3215 383.667 71.2227 383.443 70.6733C383.333 70.2324 383.333 69.2422 383.443 68.8046C383.443 68.1433 384.337 67.7058 387.126 66.8241" fill="white"/>
<path d="M353.773 104.562C352.769 98.4005 348.976 72.6571 348.976 72.6571C348.976 72.6571 351.431 64.0771 352.435 60.6655C352.882 59.2344 351.878 59.2344 351.878 59.2344H338.935C338.935 59.2344 337.931 59.2344 338.378 60.6655C339.382 64.0771 341.837 72.6571 341.837 72.6571C341.837 72.6571 338.044 98.4005 337.04 104.562C336.036 105.112 354.777 105.112 353.773 104.562" fill="white"/>
</g>
<defs>
<clipPath id="clip0_925_12854">
<rect width="298" height="46" fill="white" transform="translate(0 59)"/>
</clipPath>
<clipPath id="clip1_925_12854">
<rect width="102" height="78" fill="white" transform="translate(337 27)"/>
</clipPath>
</defs>
</svg>
