<?xml version="1.0" encoding="utf-8"?>
<!-- Generator: Adobe Illustrator 22.1.0, SVG Export Plug-In . SVG Version: 6.00 Build 0)  -->
<svg version="1.1" id="Layer_1" xmlns="http://www.w3.org/2000/svg" xmlns:xlink="http://www.w3.org/1999/xlink" x="0px" y="0px"
	 viewBox="0 0 48.4 54.7" style="enable-background:new 0 0 48.4 54.7;" xml:space="preserve">
<style type="text/css">
	.st0{fill:#FFFFFF;}
	.st1{font-family:'Helvetica-Bold';}
	.st2{font-size:7px;}
</style>
<title>leaf</title>
<g id="Default">
	<path class="st0" d="M35.9,0c-0.1-0.1-0.2,0-0.3,0.1l0,0c-0.3,0.6-0.7,1.1-1.2,1.6c-0.5,0.4-1.1,0.8-1.7,1
		c-1.3,0.5-2.6,0.8-3.9,1.1c-1.3,0.3-2.7,0.5-4,0.8c-1.4,0.3-2.7,0.6-4,1.1c-0.7,0.2-1.3,0.5-1.9,0.9c-0.3,0.2-0.6,0.3-0.9,0.5
		c-0.1,0.1-0.3,0.2-0.4,0.3c-0.1,0.1-0.3,0.2-0.4,0.3c-1.1,0.9-2,2-2.7,3.2c-0.3,0.6-0.6,1.3-0.8,2c-0.2,0.7-0.3,1.5-0.2,2.2
		c0,0.7,0.1,1.4,0.3,2.1c0.1,0.3,0.2,0.7,0.4,1c0.1,0.3,0.4,0.6,0.7,0.8c0.2,0.1,0.5-0.2,0.6-0.3c7.5-8,14.9-5.2,19.5-13.8
		c0,0.4-0.1,0.8-0.3,1.1c-0.2,0.5-0.5,1.1-0.8,1.7c-0.4,0.7-0.9,1.4-1.4,2c-0.6,0.7-1.3,1.4-2,2.1c-0.8,0.7-1.6,1.4-2.5,2
		c-1.9,1.4-3.9,2.6-5.9,3.8c-2,1.3-4.1,2.5-5.9,3.9c-0.9,0.7-1.8,1.4-2.6,2.1c-0.8,0.7-1.4,1.4-2,2.3c-0.9,1.3-1.6,2.7-1.9,4.3
		c-0.1,0.3-0.1,0.5-0.1,0.8v1c0,0.5,0.4,1,0.9,1c0,0,0.1,0,0.1,0c0.5,0,1-0.4,1-0.9c0,0,0-0.1,0-0.1v-0.8c0-0.2,0-0.4,0.1-0.6
		c0.1-0.5,0.2-1.1,0.4-1.6c0.3-0.7,0.6-1.4,1-2c0.5-0.7,1.1-1.4,1.7-2.1s1.5-1.4,2.3-2.1c0.1-0.1,0.2-0.1,0.3-0.2h0.1
		c0.2,0.1,0.4,0.2,0.5,0.4c0.4,0.2,0.7,0.5,1.1,0.7c0.8,0.4,1.6,0.7,2.4,0.9c0.9,0.2,1.7,0.3,2.6,0.3c0.9,0,1.7-0.1,2.6-0.3
		c1.7-0.4,3.2-1.1,4.6-2.1c1.4-1,2.6-2.2,3.7-3.5c1.1-1.3,1.9-2.8,2.6-4.3c0.7-1.5,1.1-3.2,1.2-4.9c0.2-1.7,0-3.4-0.4-5
		C37.8,3.1,37,1.5,35.9,0L35.9,0"/>
</g>
<text transform="matrix(1 0 0 1 5.2605 44.231)"><tspan x="0" y="0" class="st0 st1 st2">THE GREEN</tspan><tspan x="2.3" y="8.4" class="st0 st1 st2">INVESTOR</tspan></text>
</svg>
