<svg width="320" height="568" viewBox="0 0 320 568" fill="none" xmlns="http://www.w3.org/2000/svg">
<rect width="320" height="568" fill="white"/>
<g filter="url(#filter0_d_99_829)">
<rect x="16" y="443" width="288" height="42" rx="6" fill="url(#paint0_linear_99_829)" shape-rendering="crispEdges"/>
<path d="M136.799 459.169H133.23V468.5H134.762V464.911H136.696L138.371 468.5H140.114L138.228 464.651C138.542 464.533 138.829 464.353 139.089 464.111C139.349 463.87 139.556 463.576 139.711 463.229C139.866 462.879 139.943 462.482 139.943 462.04C139.943 461.461 139.818 460.958 139.567 460.529C139.317 460.096 138.957 459.761 138.487 459.524C138.018 459.287 137.455 459.169 136.799 459.169ZM134.762 463.681V460.44H136.58C137.122 460.44 137.551 460.584 137.865 460.871C138.184 461.154 138.344 461.562 138.344 462.095C138.344 462.619 138.187 463.015 137.872 463.284C137.558 463.549 137.113 463.681 136.539 463.681H134.762ZM144.824 468.623C145.312 468.623 145.733 468.557 146.089 468.425C146.449 468.293 146.745 468.124 146.978 467.919C147.215 467.709 147.395 467.486 147.518 467.249C147.645 467.012 147.72 466.789 147.743 466.579H146.26C146.223 466.729 146.141 466.868 146.014 466.996C145.891 467.119 145.727 467.219 145.521 467.297C145.316 467.37 145.082 467.406 144.817 467.406C144.284 467.406 143.869 467.235 143.573 466.894C143.282 466.547 143.136 466.117 143.136 465.602V465.246H147.825V464.398C147.825 463.733 147.693 463.159 147.429 462.676C147.164 462.193 146.8 461.819 146.335 461.555C145.875 461.286 145.341 461.151 144.735 461.151C144.147 461.151 143.619 461.281 143.149 461.541C142.685 461.796 142.315 462.165 142.042 462.648C141.769 463.132 141.632 463.715 141.632 464.398V465.376C141.632 466.055 141.762 466.638 142.021 467.126C142.281 467.609 142.65 467.98 143.129 468.24C143.607 468.495 144.173 468.623 144.824 468.623ZM143.136 464.255C143.136 464.241 143.136 464.228 143.136 464.214C143.136 464.196 143.136 464.177 143.136 464.159C143.136 463.795 143.202 463.478 143.334 463.209C143.466 462.936 143.653 462.724 143.895 462.573C144.136 462.423 144.419 462.348 144.742 462.348C145.066 462.348 145.346 462.423 145.583 462.573C145.825 462.724 146.011 462.936 146.144 463.209C146.276 463.478 146.342 463.795 146.342 464.159C146.342 464.177 146.342 464.196 146.342 464.214C146.342 464.228 146.342 464.241 146.342 464.255H143.136ZM152.501 469.956C152.218 469.956 151.968 469.917 151.749 469.84C151.535 469.767 151.364 469.664 151.236 469.532C151.109 469.405 151.029 469.261 150.997 469.102H149.493C149.521 469.462 149.644 469.797 149.862 470.106C150.086 470.416 150.409 470.667 150.833 470.858C151.261 471.05 151.801 471.146 152.453 471.146C152.909 471.146 153.335 471.093 153.731 470.988C154.128 470.883 154.477 470.717 154.777 470.489C155.083 470.266 155.32 469.974 155.488 469.614C155.661 469.259 155.748 468.826 155.748 468.315V461.274H154.278V462.375H154.203C154.126 462.17 153.991 461.976 153.8 461.794C153.608 461.607 153.371 461.459 153.089 461.35C152.806 461.236 152.487 461.179 152.132 461.179C151.599 461.179 151.12 461.302 150.696 461.548C150.277 461.789 149.944 462.145 149.698 462.614C149.457 463.079 149.336 463.642 149.336 464.303V465.253C149.336 465.909 149.457 466.47 149.698 466.935C149.944 467.399 150.279 467.755 150.703 468.001C151.127 468.243 151.603 468.363 152.132 468.363C152.387 468.363 152.622 468.336 152.836 468.281C153.055 468.222 153.248 468.14 153.417 468.035C153.59 467.93 153.738 467.812 153.861 467.68C153.989 467.543 154.087 467.395 154.155 467.235H154.237V468.268C154.237 468.801 154.094 469.215 153.807 469.512C153.52 469.808 153.084 469.956 152.501 469.956ZM152.604 462.423C152.945 462.423 153.237 462.509 153.479 462.683C153.72 462.856 153.907 463.088 154.039 463.38C154.171 463.667 154.237 463.986 154.237 464.337V465.287C154.237 465.629 154.174 465.943 154.046 466.23C153.923 466.513 153.741 466.741 153.499 466.914C153.257 467.087 152.961 467.174 152.61 467.174C152.273 467.174 151.975 467.09 151.715 466.921C151.455 466.748 151.25 466.508 151.1 466.203C150.954 465.893 150.881 465.531 150.881 465.116V464.487C150.881 464.073 150.951 463.71 151.093 463.4C151.234 463.086 151.432 462.844 151.688 462.676C151.947 462.507 152.253 462.423 152.604 462.423ZM158.1 468.5H159.61V461.274H158.1V468.5ZM157.854 459.101C157.854 459.369 157.947 459.59 158.134 459.764C158.321 459.932 158.558 460.017 158.845 460.017C159.146 460.017 159.389 459.932 159.576 459.764C159.768 459.59 159.863 459.369 159.863 459.101C159.863 458.827 159.768 458.604 159.576 458.431C159.389 458.257 159.146 458.171 158.845 458.171C158.558 458.171 158.321 458.257 158.134 458.431C157.947 458.604 157.854 458.827 157.854 459.101ZM161.75 463.38C161.75 463.849 161.857 464.218 162.071 464.487C162.285 464.752 162.575 464.954 162.939 465.096C163.304 465.232 163.705 465.346 164.143 465.438C164.466 465.497 164.765 465.561 165.038 465.629C165.312 465.697 165.53 465.798 165.694 465.93C165.858 466.057 165.94 466.246 165.94 466.497C165.94 466.684 165.89 466.855 165.79 467.01C165.694 467.165 165.539 467.288 165.325 467.379C165.116 467.47 164.842 467.516 164.505 467.516C164.2 467.516 163.947 467.477 163.746 467.399C163.546 467.322 163.393 467.21 163.288 467.064C163.183 466.919 163.117 466.75 163.09 466.559H161.613C161.613 466.987 161.727 467.356 161.955 467.666C162.188 467.971 162.516 468.208 162.939 468.377C163.363 468.541 163.86 468.623 164.43 468.623C165.04 468.623 165.569 468.534 166.016 468.356C166.467 468.174 166.813 467.912 167.055 467.57C167.296 467.224 167.417 466.807 167.417 466.319C167.417 465.864 167.312 465.501 167.103 465.232C166.893 464.964 166.608 464.758 166.248 464.617C165.888 464.476 165.482 464.367 165.031 464.289C164.831 464.257 164.623 464.221 164.409 464.18C164.195 464.139 163.997 464.084 163.814 464.016C163.637 463.947 163.491 463.852 163.377 463.729C163.263 463.605 163.206 463.444 163.206 463.243C163.206 462.933 163.325 462.692 163.562 462.519C163.803 462.345 164.118 462.259 164.505 462.259C164.801 462.259 165.045 462.307 165.236 462.402C165.428 462.498 165.574 462.619 165.674 462.765C165.779 462.91 165.838 463.063 165.852 463.223H167.219C167.219 462.794 167.105 462.427 166.877 462.122C166.654 461.812 166.341 461.573 165.94 461.404C165.544 461.236 165.079 461.151 164.546 461.151C164.058 461.151 163.6 461.229 163.172 461.384C162.748 461.534 162.404 461.773 162.14 462.102C161.88 462.425 161.75 462.851 161.75 463.38ZM169.741 461.322H168.62V462.512H169.721V466.47C169.721 466.948 169.785 467.342 169.912 467.652C170.04 467.958 170.265 468.183 170.589 468.329C170.917 468.475 171.373 468.548 171.956 468.548C172.129 468.548 172.318 468.539 172.523 468.521C172.733 468.507 172.868 468.495 172.927 468.486V467.324C172.868 467.329 172.779 467.336 172.66 467.345C172.546 467.349 172.437 467.352 172.332 467.352C171.926 467.352 171.639 467.283 171.471 467.146C171.307 467.005 171.225 466.739 171.225 466.347V462.512H172.838V461.322H171.225V459.518H169.741V461.322ZM177.582 468.623C178.07 468.623 178.491 468.557 178.847 468.425C179.207 468.293 179.503 468.124 179.735 467.919C179.972 467.709 180.152 467.486 180.275 467.249C180.403 467.012 180.478 466.789 180.501 466.579H179.018C178.981 466.729 178.899 466.868 178.771 466.996C178.648 467.119 178.484 467.219 178.279 467.297C178.074 467.37 177.84 467.406 177.575 467.406C177.042 467.406 176.627 467.235 176.331 466.894C176.039 466.547 175.894 466.117 175.894 465.602V465.246H180.583V464.398C180.583 463.733 180.451 463.159 180.187 462.676C179.922 462.193 179.558 461.819 179.093 461.555C178.632 461.286 178.099 461.151 177.493 461.151C176.905 461.151 176.377 461.281 175.907 461.541C175.442 461.796 175.073 462.165 174.8 462.648C174.526 463.132 174.39 463.715 174.39 464.398V465.376C174.39 466.055 174.52 466.638 174.779 467.126C175.039 467.609 175.408 467.98 175.887 468.24C176.365 468.495 176.93 468.623 177.582 468.623ZM175.894 464.255C175.894 464.241 175.894 464.228 175.894 464.214C175.894 464.196 175.894 464.177 175.894 464.159C175.894 463.795 175.96 463.478 176.092 463.209C176.224 462.936 176.411 462.724 176.652 462.573C176.894 462.423 177.176 462.348 177.5 462.348C177.824 462.348 178.104 462.423 178.341 462.573C178.582 462.724 178.769 462.936 178.901 463.209C179.034 463.478 179.1 463.795 179.1 464.159C179.1 464.177 179.1 464.196 179.1 464.214C179.1 464.228 179.1 464.241 179.1 464.255H175.894ZM182.593 468.5H184.131V464.2C184.131 463.877 184.197 463.587 184.329 463.332C184.461 463.072 184.662 462.869 184.931 462.724C185.2 462.573 185.537 462.498 185.942 462.498C186.07 462.498 186.193 462.503 186.312 462.512C186.43 462.521 186.523 462.535 186.592 462.553V461.213C186.519 461.199 186.439 461.19 186.353 461.186C186.271 461.176 186.179 461.172 186.079 461.172C185.678 461.172 185.348 461.243 185.088 461.384C184.828 461.521 184.625 461.685 184.479 461.876C184.338 462.063 184.24 462.238 184.186 462.402H184.104V461.274H182.593V468.5Z" fill="white"/>
</g>
<g filter="url(#filter1_d_99_829)">
<rect x="75" y="311" width="170" height="36" rx="18" fill="#215273" shape-rendering="crispEdges"/>
<path d="M117.602 331.046C117.629 331.42 117.722 331.768 117.882 332.092C118.046 332.411 118.276 332.691 118.572 332.933C118.868 333.17 119.226 333.354 119.646 333.486C120.065 333.618 120.546 333.685 121.088 333.685C121.84 333.685 122.485 333.566 123.022 333.329C123.56 333.092 123.973 332.759 124.26 332.331C124.547 331.898 124.69 331.395 124.69 330.82C124.69 330.333 124.592 329.92 124.396 329.583C124.205 329.246 123.925 328.968 123.556 328.749C123.187 328.53 122.74 328.357 122.216 328.229L120.691 327.854C120.277 327.753 119.958 327.603 119.734 327.402C119.511 327.197 119.399 326.942 119.399 326.637C119.399 326.222 119.561 325.885 119.885 325.625C120.213 325.365 120.65 325.235 121.197 325.235C121.544 325.235 121.847 325.29 122.106 325.399C122.366 325.504 122.576 325.652 122.735 325.844C122.899 326.031 123.007 326.249 123.057 326.5H124.561C124.524 326.021 124.365 325.591 124.082 325.208C123.804 324.825 123.421 324.522 122.934 324.299C122.451 324.076 121.876 323.964 121.211 323.964C120.555 323.964 119.974 324.08 119.468 324.312C118.962 324.545 118.563 324.868 118.271 325.283C117.984 325.698 117.841 326.179 117.841 326.726C117.841 327.168 117.932 327.557 118.114 327.895C118.297 328.232 118.559 328.512 118.9 328.735C119.242 328.959 119.65 329.127 120.124 329.241L121.655 329.624C122.161 329.747 122.535 329.913 122.776 330.123C123.018 330.328 123.139 330.606 123.139 330.957C123.139 331.249 123.061 331.504 122.906 331.723C122.756 331.937 122.537 332.105 122.25 332.229C121.963 332.347 121.614 332.406 121.204 332.406C120.917 332.406 120.653 332.374 120.411 332.311C120.174 332.242 119.965 332.149 119.782 332.03C119.604 331.907 119.459 331.764 119.345 331.6C119.235 331.431 119.162 331.246 119.126 331.046H117.602ZM127.165 326.322H126.044V327.512H127.145V331.47C127.145 331.948 127.208 332.342 127.336 332.652C127.464 332.958 127.689 333.183 128.013 333.329C128.341 333.475 128.797 333.548 129.38 333.548C129.553 333.548 129.742 333.539 129.947 333.521C130.157 333.507 130.291 333.495 130.351 333.486V332.324C130.291 332.329 130.202 332.336 130.084 332.345C129.97 332.349 129.861 332.352 129.756 332.352C129.35 332.352 129.063 332.283 128.895 332.146C128.73 332.005 128.648 331.739 128.648 331.347V327.512H130.262V326.322H128.648V324.518H127.165V326.322ZM134.131 333.609C134.491 333.609 134.801 333.562 135.061 333.466C135.325 333.366 135.546 333.236 135.724 333.076C135.901 332.917 136.043 332.746 136.147 332.563H136.216V333.5H137.658V328.605C137.658 328.004 137.531 327.525 137.275 327.17C137.02 326.814 136.678 326.559 136.25 326.404C135.822 326.245 135.35 326.165 134.835 326.165C134.384 326.165 133.987 326.213 133.646 326.309C133.308 326.404 133.023 326.543 132.791 326.726C132.563 326.903 132.385 327.118 132.258 327.368C132.135 327.614 132.062 327.888 132.039 328.188H133.481C133.522 328.024 133.593 327.883 133.693 327.765C133.794 327.642 133.933 327.546 134.11 327.478C134.288 327.405 134.514 327.368 134.787 327.368C135.202 327.368 135.532 327.468 135.778 327.669C136.024 327.865 136.147 328.17 136.147 328.585V329.262H134.322C133.488 329.262 132.853 329.46 132.415 329.856C131.982 330.248 131.766 330.763 131.766 331.401C131.766 332.076 131.984 332.614 132.422 333.015C132.864 333.411 133.434 333.609 134.131 333.609ZM134.596 332.434C134.258 332.434 133.955 332.345 133.687 332.167C133.422 331.985 133.29 331.704 133.29 331.326C133.29 331.021 133.39 330.77 133.591 330.574C133.796 330.378 134.119 330.28 134.562 330.28H136.147V331.06C136.147 331.324 136.077 331.559 135.936 331.764C135.799 331.969 135.614 332.133 135.382 332.256C135.149 332.374 134.887 332.434 134.596 332.434ZM140.003 333.5H141.541V329.2C141.541 328.877 141.607 328.587 141.739 328.332C141.871 328.072 142.072 327.869 142.341 327.724C142.61 327.573 142.947 327.498 143.353 327.498C143.48 327.498 143.603 327.503 143.722 327.512C143.84 327.521 143.934 327.535 144.002 327.553V326.213C143.929 326.199 143.849 326.19 143.763 326.186C143.681 326.176 143.59 326.172 143.489 326.172C143.088 326.172 142.758 326.243 142.498 326.384C142.238 326.521 142.035 326.685 141.89 326.876C141.748 327.063 141.65 327.238 141.596 327.402H141.514V326.274H140.003V333.5ZM146.401 326.322H145.28V327.512H146.381V331.47C146.381 331.948 146.445 332.342 146.572 332.652C146.7 332.958 146.925 333.183 147.249 333.329C147.577 333.475 148.033 333.548 148.616 333.548C148.789 333.548 148.979 333.539 149.184 333.521C149.393 333.507 149.528 333.495 149.587 333.486V332.324C149.528 332.329 149.439 332.336 149.32 332.345C149.206 332.349 149.097 332.352 148.992 332.352C148.587 332.352 148.299 332.283 148.131 332.146C147.967 332.005 147.885 331.739 147.885 331.347V327.512H149.498V326.322H147.885V324.518H146.401V326.322ZM154.536 333.5H156.054V329.002C156.054 328.678 156.115 328.4 156.238 328.168C156.361 327.936 156.53 327.756 156.744 327.628C156.958 327.5 157.202 327.437 157.476 327.437C157.754 327.437 157.995 327.496 158.2 327.614C158.41 327.733 158.574 327.904 158.692 328.127C158.811 328.346 158.87 328.612 158.87 328.927V333.5H160.347V329.016C160.347 328.697 160.41 328.419 160.538 328.182C160.666 327.945 160.839 327.762 161.058 327.635C161.276 327.503 161.52 327.437 161.789 327.437C162.081 327.437 162.327 327.493 162.527 327.607C162.732 327.721 162.89 327.888 162.999 328.106C163.108 328.321 163.163 328.58 163.163 328.886V333.5H164.674V328.435C164.674 327.724 164.466 327.168 164.052 326.767C163.637 326.366 163.061 326.165 162.322 326.165C161.912 326.165 161.559 326.231 161.263 326.363C160.971 326.491 160.732 326.66 160.545 326.869C160.358 327.074 160.219 327.291 160.128 327.519H160.066C159.989 327.263 159.864 327.033 159.69 326.828C159.517 326.623 159.294 326.461 159.021 326.343C158.752 326.224 158.435 326.165 158.07 326.165C157.628 326.165 157.273 326.236 157.004 326.377C156.74 326.518 156.537 326.689 156.396 326.89C156.259 327.086 156.161 327.272 156.102 327.45H156.026V326.274H154.536V333.5ZM172.843 326.274H171.236L169.493 332.119H169.432L167.709 326.274H166.027L168.604 333.555L168.543 333.787C168.456 334.165 168.304 334.437 168.085 334.601C167.866 334.769 167.554 334.854 167.148 334.854C167.062 334.854 166.962 334.849 166.848 334.84C166.734 334.831 166.649 334.822 166.595 334.812V335.968C166.69 335.986 166.818 336.002 166.978 336.016C167.142 336.029 167.29 336.036 167.422 336.036C168.124 336.036 168.691 335.865 169.124 335.523C169.562 335.182 169.928 334.612 170.225 333.814L170.382 333.404C170.541 332.953 170.715 332.459 170.901 331.921C171.093 331.383 171.293 330.811 171.503 330.205C171.713 329.599 171.929 328.968 172.152 328.312C172.38 327.651 172.61 326.972 172.843 326.274ZM178.065 326.322H176.944V327.512H178.045V331.47C178.045 331.948 178.109 332.342 178.236 332.652C178.364 332.958 178.59 333.183 178.913 333.329C179.241 333.475 179.697 333.548 180.28 333.548C180.453 333.548 180.643 333.539 180.848 333.521C181.057 333.507 181.192 333.495 181.251 333.486V332.324C181.192 332.329 181.103 332.336 180.984 332.345C180.87 332.349 180.761 332.352 180.656 332.352C180.251 332.352 179.964 332.283 179.795 332.146C179.631 332.005 179.549 331.739 179.549 331.347V327.512H181.162V326.322H179.549V324.518H178.065V326.322ZM185.906 333.623C186.394 333.623 186.815 333.557 187.171 333.425C187.531 333.293 187.827 333.124 188.06 332.919C188.297 332.709 188.477 332.486 188.6 332.249C188.727 332.012 188.802 331.789 188.825 331.579H187.342C187.305 331.729 187.223 331.868 187.096 331.996C186.973 332.119 186.809 332.219 186.604 332.297C186.398 332.37 186.164 332.406 185.899 332.406C185.366 332.406 184.951 332.235 184.655 331.894C184.364 331.547 184.218 331.117 184.218 330.602V330.246H188.907V329.398C188.907 328.733 188.775 328.159 188.511 327.676C188.246 327.193 187.882 326.819 187.417 326.555C186.957 326.286 186.424 326.151 185.817 326.151C185.229 326.151 184.701 326.281 184.231 326.541C183.767 326.796 183.397 327.165 183.124 327.648C182.851 328.132 182.714 328.715 182.714 329.398V330.376C182.714 331.055 182.844 331.638 183.104 332.126C183.363 332.609 183.732 332.98 184.211 333.24C184.689 333.495 185.255 333.623 185.906 333.623ZM184.218 329.255C184.218 329.241 184.218 329.228 184.218 329.214C184.218 329.196 184.218 329.177 184.218 329.159C184.218 328.795 184.284 328.478 184.416 328.209C184.548 327.936 184.735 327.724 184.977 327.573C185.218 327.423 185.501 327.348 185.824 327.348C186.148 327.348 186.428 327.423 186.665 327.573C186.907 327.724 187.093 327.936 187.226 328.209C187.358 328.478 187.424 328.795 187.424 329.159C187.424 329.177 187.424 329.196 187.424 329.214C187.424 329.228 187.424 329.241 187.424 329.255H184.218ZM190.514 328.38C190.514 328.849 190.621 329.218 190.835 329.487C191.049 329.752 191.339 329.954 191.703 330.096C192.068 330.232 192.469 330.346 192.906 330.438C193.23 330.497 193.528 330.561 193.802 330.629C194.075 330.697 194.294 330.798 194.458 330.93C194.622 331.057 194.704 331.246 194.704 331.497C194.704 331.684 194.654 331.855 194.554 332.01C194.458 332.165 194.303 332.288 194.089 332.379C193.879 332.47 193.606 332.516 193.269 332.516C192.963 332.516 192.71 332.477 192.51 332.399C192.309 332.322 192.157 332.21 192.052 332.064C191.947 331.919 191.881 331.75 191.854 331.559H190.377C190.377 331.987 190.491 332.356 190.719 332.666C190.951 332.971 191.279 333.208 191.703 333.377C192.127 333.541 192.624 333.623 193.193 333.623C193.804 333.623 194.333 333.534 194.779 333.356C195.23 333.174 195.577 332.912 195.818 332.57C196.06 332.224 196.181 331.807 196.181 331.319C196.181 330.864 196.076 330.501 195.866 330.232C195.657 329.964 195.372 329.758 195.012 329.617C194.652 329.476 194.246 329.367 193.795 329.289C193.594 329.257 193.387 329.221 193.173 329.18C192.959 329.139 192.76 329.084 192.578 329.016C192.4 328.947 192.255 328.852 192.141 328.729C192.027 328.605 191.97 328.444 191.97 328.243C191.97 327.933 192.088 327.692 192.325 327.519C192.567 327.345 192.881 327.259 193.269 327.259C193.565 327.259 193.809 327.307 194 327.402C194.191 327.498 194.337 327.619 194.438 327.765C194.542 327.91 194.602 328.063 194.615 328.223H195.982C195.982 327.794 195.868 327.427 195.641 327.122C195.417 326.812 195.105 326.573 194.704 326.404C194.308 326.236 193.843 326.151 193.31 326.151C192.822 326.151 192.364 326.229 191.936 326.384C191.512 326.534 191.168 326.773 190.903 327.102C190.644 327.425 190.514 327.851 190.514 328.38ZM198.505 326.322H197.384V327.512H198.484V331.47C198.484 331.948 198.548 332.342 198.676 332.652C198.803 332.958 199.029 333.183 199.353 333.329C199.681 333.475 200.136 333.548 200.72 333.548C200.893 333.548 201.082 333.539 201.287 333.521C201.497 333.507 201.631 333.495 201.69 333.486V332.324C201.631 332.329 201.542 332.336 201.424 332.345C201.31 332.349 201.201 332.352 201.096 332.352C200.69 332.352 200.403 332.283 200.234 332.146C200.07 332.005 199.988 331.739 199.988 331.347V327.512H201.602V326.322H199.988V324.518H198.505V326.322Z" fill="white"/>
</g>
<path d="M136.602 524.046C136.629 524.42 136.722 524.768 136.882 525.092C137.046 525.411 137.276 525.691 137.572 525.933C137.868 526.17 138.226 526.354 138.646 526.486C139.065 526.618 139.546 526.685 140.088 526.685C140.84 526.685 141.485 526.566 142.022 526.329C142.56 526.092 142.973 525.759 143.26 525.331C143.547 524.898 143.69 524.395 143.69 523.82C143.69 523.333 143.592 522.92 143.396 522.583C143.205 522.246 142.925 521.968 142.556 521.749C142.187 521.53 141.74 521.357 141.216 521.229L139.691 520.854C139.277 520.753 138.958 520.603 138.734 520.402C138.511 520.197 138.399 519.942 138.399 519.637C138.399 519.222 138.561 518.885 138.885 518.625C139.213 518.365 139.65 518.235 140.197 518.235C140.544 518.235 140.847 518.29 141.106 518.399C141.366 518.504 141.576 518.652 141.735 518.844C141.899 519.031 142.007 519.249 142.057 519.5H143.561C143.524 519.021 143.365 518.591 143.082 518.208C142.804 517.825 142.421 517.522 141.934 517.299C141.451 517.076 140.876 516.964 140.211 516.964C139.555 516.964 138.974 517.08 138.468 517.312C137.962 517.545 137.563 517.868 137.271 518.283C136.984 518.698 136.841 519.179 136.841 519.726C136.841 520.168 136.932 520.557 137.114 520.895C137.297 521.232 137.559 521.512 137.9 521.735C138.242 521.959 138.65 522.127 139.124 522.241L140.655 522.624C141.161 522.747 141.535 522.913 141.776 523.123C142.018 523.328 142.139 523.606 142.139 523.957C142.139 524.249 142.061 524.504 141.906 524.723C141.756 524.937 141.537 525.105 141.25 525.229C140.963 525.347 140.614 525.406 140.204 525.406C139.917 525.406 139.653 525.374 139.411 525.311C139.174 525.242 138.965 525.149 138.782 525.03C138.604 524.907 138.459 524.764 138.345 524.6C138.235 524.431 138.162 524.246 138.126 524.046H136.602ZM145.748 526.5H147.259V519.274H145.748V526.5ZM145.502 517.101C145.502 517.369 145.595 517.59 145.782 517.764C145.969 517.932 146.206 518.017 146.493 518.017C146.794 518.017 147.038 517.932 147.225 517.764C147.416 517.59 147.512 517.369 147.512 517.101C147.512 516.827 147.416 516.604 147.225 516.431C147.038 516.257 146.794 516.171 146.493 516.171C146.206 516.171 145.969 516.257 145.782 516.431C145.595 516.604 145.502 516.827 145.502 517.101ZM152.468 527.956C152.185 527.956 151.935 527.917 151.716 527.84C151.502 527.767 151.331 527.664 151.203 527.532C151.076 527.405 150.996 527.261 150.964 527.102H149.46C149.487 527.462 149.61 527.797 149.829 528.106C150.052 528.416 150.376 528.667 150.8 528.858C151.228 529.05 151.768 529.146 152.42 529.146C152.876 529.146 153.302 529.093 153.698 528.988C154.095 528.883 154.443 528.717 154.744 528.489C155.049 528.266 155.286 527.974 155.455 527.614C155.628 527.259 155.715 526.826 155.715 526.315V519.274H154.245V520.375H154.17C154.092 520.17 153.958 519.976 153.767 519.794C153.575 519.607 153.338 519.459 153.056 519.35C152.773 519.236 152.454 519.179 152.099 519.179C151.565 519.179 151.087 519.302 150.663 519.548C150.244 519.789 149.911 520.145 149.665 520.614C149.424 521.079 149.303 521.642 149.303 522.303V523.253C149.303 523.909 149.424 524.47 149.665 524.935C149.911 525.399 150.246 525.755 150.67 526.001C151.094 526.243 151.57 526.363 152.099 526.363C152.354 526.363 152.589 526.336 152.803 526.281C153.021 526.222 153.215 526.14 153.384 526.035C153.557 525.93 153.705 525.812 153.828 525.68C153.956 525.543 154.054 525.395 154.122 525.235H154.204V526.268C154.204 526.801 154.061 527.215 153.773 527.512C153.486 527.808 153.051 527.956 152.468 527.956ZM152.57 520.423C152.912 520.423 153.204 520.509 153.445 520.683C153.687 520.856 153.874 521.088 154.006 521.38C154.138 521.667 154.204 521.986 154.204 522.337V523.287C154.204 523.629 154.14 523.943 154.013 524.23C153.89 524.513 153.707 524.741 153.466 524.914C153.224 525.087 152.928 525.174 152.577 525.174C152.24 525.174 151.941 525.09 151.682 524.921C151.422 524.748 151.217 524.508 151.066 524.203C150.921 523.893 150.848 523.531 150.848 523.116V522.487C150.848 522.073 150.918 521.71 151.06 521.4C151.201 521.086 151.399 520.844 151.654 520.676C151.914 520.507 152.219 520.423 152.57 520.423ZM158.005 526.5H159.522V522.487C159.522 522.095 159.586 521.747 159.714 521.441C159.846 521.136 160.037 520.897 160.288 520.724C160.543 520.546 160.855 520.457 161.225 520.457C161.512 520.457 161.762 520.516 161.977 520.635C162.191 520.749 162.357 520.924 162.476 521.161C162.599 521.394 162.66 521.694 162.66 522.063V526.5H164.178V521.619C164.178 520.794 163.952 520.179 163.501 519.773C163.054 519.368 162.469 519.165 161.744 519.165C161.257 519.165 160.865 519.243 160.568 519.397C160.272 519.552 160.047 519.739 159.892 519.958C159.741 520.177 159.634 520.382 159.57 520.573H159.495V519.274H158.005V526.5ZM170.323 523.349V521.995H166.017V523.349H170.323ZM172.34 526.5H173.851V519.274H172.34V526.5ZM172.094 517.101C172.094 517.369 172.187 517.59 172.374 517.764C172.561 517.932 172.798 518.017 173.085 518.017C173.386 518.017 173.63 517.932 173.816 517.764C174.008 517.59 174.104 517.369 174.104 517.101C174.104 516.827 174.008 516.604 173.816 516.431C173.63 516.257 173.386 516.171 173.085 516.171C172.798 516.171 172.561 516.257 172.374 516.431C172.187 516.604 172.094 516.827 172.094 517.101ZM176.298 526.5H177.815V522.487C177.815 522.095 177.879 521.747 178.007 521.441C178.139 521.136 178.33 520.897 178.581 520.724C178.836 520.546 179.148 520.457 179.518 520.457C179.805 520.457 180.055 520.516 180.27 520.635C180.484 520.749 180.65 520.924 180.769 521.161C180.892 521.394 180.953 521.694 180.953 522.063V526.5H182.471V521.619C182.471 520.794 182.245 520.179 181.794 519.773C181.347 519.368 180.762 519.165 180.037 519.165C179.549 519.165 179.158 519.243 178.861 519.397C178.565 519.552 178.34 519.739 178.185 519.958C178.034 520.177 177.927 520.382 177.863 520.573H177.788V519.274H176.298V526.5Z" fill="#2F2F2F"/>
<rect x="16.5" y="501.5" width="287" height="41" rx="5.5" stroke="#359D9E"/>
<path d="M49.252 198.545C49.2611 199.219 49.3932 199.898 49.6484 200.582C49.9036 201.266 50.3184 201.895 50.8926 202.469C51.4759 203.034 52.2461 203.49 53.2031 203.836C54.1693 204.173 55.3633 204.342 56.7852 204.342C58.4076 204.342 59.7884 204.096 60.9277 203.604C62.0671 203.102 62.9375 202.4 63.5391 201.498C64.1406 200.596 64.4414 199.534 64.4414 198.312C64.4414 197.137 64.1999 196.189 63.7168 195.469C63.2428 194.74 62.6185 194.179 61.8438 193.787C61.069 193.395 60.2305 193.113 59.3281 192.939L56.6348 192.379C55.8236 192.224 55.1992 191.987 54.7617 191.668C54.3333 191.349 54.1191 190.939 54.1191 190.438C54.1191 189.818 54.3607 189.321 54.8438 188.947C55.3359 188.564 56.0286 188.373 56.9219 188.373C57.5964 188.373 58.1523 188.487 58.5898 188.715C59.0365 188.934 59.3737 189.216 59.6016 189.562C59.8294 189.909 59.957 190.278 59.9844 190.67H64.127C64.1178 189.604 63.8262 188.642 63.252 187.785C62.6777 186.928 61.8529 186.249 60.7773 185.748C59.7109 185.238 58.4258 184.982 56.9219 184.982C55.5365 184.982 54.2969 185.21 53.2031 185.666C52.1094 186.113 51.2435 186.769 50.6055 187.635C49.9674 188.501 49.6484 189.553 49.6484 190.793C49.6484 191.878 49.8717 192.78 50.3184 193.5C50.765 194.22 51.362 194.79 52.1094 195.209C52.8568 195.619 53.6908 195.915 54.6113 196.098L57.25 196.672C58.1615 196.863 58.8496 197.114 59.3145 197.424C59.7884 197.734 60.0254 198.18 60.0254 198.764C60.0254 199.183 59.9115 199.557 59.6836 199.885C59.4557 200.204 59.1139 200.454 58.6582 200.637C58.2116 200.819 57.6465 200.91 56.9629 200.91C56.4069 200.91 55.9193 200.846 55.5 200.719C55.0898 200.591 54.7389 200.413 54.4473 200.186C54.1647 199.958 53.946 199.702 53.791 199.42C53.6361 199.137 53.5495 198.846 53.5312 198.545H49.252ZM75.1191 204V189.016H80.2188V185.338H65.5488V189.016H70.6348V204H75.1191ZM83.5957 204L84.8125 199.693H90.5957L91.8125 204H96.584L90.5957 185.338H85.127L79.0977 204H83.5957ZM87.834 189.357L89.7891 196.453H85.6465L87.6289 189.357H87.834ZM106.428 185.338H98.5391V204H102.955V197.328H105.539L108.697 204H113.674L109.955 196.699C110.383 196.526 110.857 196.225 111.377 195.797C111.906 195.359 112.357 194.781 112.73 194.061C113.113 193.34 113.305 192.47 113.305 191.449C113.305 190.273 113.049 189.225 112.539 188.305C112.038 187.384 111.277 186.66 110.256 186.131C109.244 185.602 107.968 185.338 106.428 185.338ZM102.955 194.143V188.701H105.758C106.569 188.701 107.257 188.934 107.822 189.398C108.387 189.863 108.67 190.556 108.67 191.477C108.67 192.361 108.396 193.026 107.85 193.473C107.312 193.919 106.601 194.143 105.717 194.143H102.955ZM124.092 204V189.016H129.191V185.338H114.521V189.016H119.607V204H124.092ZM141.127 204V185.338H136.629V204H141.127ZM148.934 204V192.803H149.084L156.645 204H160.172V185.338H156.016V196.426H155.865L148.346 185.338H144.777V204H148.934ZM167.979 204H173.611L179.49 185.338H174.541L171.027 199.16H170.836L167.254 185.338H162.031L167.979 204ZM194.023 200.432H185.957V196.248H193.518V192.967H185.957V188.906H194.023V185.338H181.5V204H194.023V200.432ZM196.143 198.545C196.152 199.219 196.284 199.898 196.539 200.582C196.794 201.266 197.209 201.895 197.783 202.469C198.367 203.034 199.137 203.49 200.094 203.836C201.06 204.173 202.254 204.342 203.676 204.342C205.298 204.342 206.679 204.096 207.818 203.604C208.958 203.102 209.828 202.4 210.43 201.498C211.031 200.596 211.332 199.534 211.332 198.312C211.332 197.137 211.09 196.189 210.607 195.469C210.133 194.74 209.509 194.179 208.734 193.787C207.96 193.395 207.121 193.113 206.219 192.939L203.525 192.379C202.714 192.224 202.09 191.987 201.652 191.668C201.224 191.349 201.01 190.939 201.01 190.438C201.01 189.818 201.251 189.321 201.734 188.947C202.227 188.564 202.919 188.373 203.812 188.373C204.487 188.373 205.043 188.487 205.48 188.715C205.927 188.934 206.264 189.216 206.492 189.562C206.72 189.909 206.848 190.278 206.875 190.67H211.018C211.008 189.604 210.717 188.642 210.143 187.785C209.568 186.928 208.743 186.249 207.668 185.748C206.602 185.238 205.316 184.982 203.812 184.982C202.427 184.982 201.188 185.21 200.094 185.666C199 186.113 198.134 186.769 197.496 187.635C196.858 188.501 196.539 189.553 196.539 190.793C196.539 191.878 196.762 192.78 197.209 193.5C197.656 194.22 198.253 194.79 199 195.209C199.747 195.619 200.581 195.915 201.502 196.098L204.141 196.672C205.052 196.863 205.74 197.114 206.205 197.424C206.679 197.734 206.916 198.18 206.916 198.764C206.916 199.183 206.802 199.557 206.574 199.885C206.346 200.204 206.005 200.454 205.549 200.637C205.102 200.819 204.537 200.91 203.854 200.91C203.298 200.91 202.81 200.846 202.391 200.719C201.98 200.591 201.63 200.413 201.338 200.186C201.055 199.958 200.837 199.702 200.682 199.42C200.527 199.137 200.44 198.846 200.422 198.545H196.143ZM222.01 204V189.016H227.109V185.338H212.439V189.016H217.525V204H222.01ZM233.576 204V185.338H229.078V204H233.576ZM241.383 204V192.803H241.533L249.094 204H252.621V185.338H248.465V196.426H248.314L240.795 185.338H237.227V204H241.383ZM271.447 191.49C271.42 190.643 271.238 189.831 270.9 189.057C270.572 188.273 270.085 187.58 269.438 186.979C268.799 186.368 268.002 185.889 267.045 185.543C266.097 185.188 264.999 185.01 263.75 185.01C261.982 185.01 260.482 185.365 259.252 186.076C258.021 186.787 257.087 187.776 256.449 189.043C255.82 190.301 255.506 191.755 255.506 193.404V195.729C255.506 196.95 255.665 198.085 255.984 199.133C256.303 200.181 256.796 201.097 257.461 201.881C258.135 202.656 258.992 203.262 260.031 203.699C261.07 204.128 262.31 204.342 263.75 204.342C265.053 204.342 266.188 204.155 267.154 203.781C268.13 203.398 268.936 202.883 269.574 202.236C270.212 201.58 270.686 200.833 270.996 199.994C271.306 199.156 271.461 198.285 271.461 197.383V193.76H263.969V196.918H267.223V197.725C267.223 198.244 267.09 198.727 266.826 199.174C266.571 199.62 266.188 199.98 265.678 200.254C265.176 200.527 264.566 200.664 263.846 200.664C262.916 200.664 262.169 200.45 261.604 200.021C261.048 199.584 260.646 198.992 260.4 198.244C260.154 197.497 260.031 196.654 260.031 195.715V193.459C260.031 191.928 260.35 190.752 260.988 189.932C261.626 189.102 262.542 188.688 263.736 188.688C264.229 188.688 264.671 188.76 265.062 188.906C265.464 189.043 265.805 189.239 266.088 189.494C266.38 189.74 266.607 190.036 266.771 190.383C266.936 190.72 267.04 191.089 267.086 191.49H271.447ZM205.754 235L208.926 223.105H209.09L212.262 235H216.432L221.23 216.338H216.527L214.107 228.875H213.902L210.854 216.338H207.176L204.113 228.875H203.922L201.475 216.338H196.771L201.57 235H205.754ZM227.588 235V216.338H223.09V235H227.588ZM239.154 235V220.016H244.254V216.338H229.584V220.016H234.67V235H239.154ZM262.096 235V216.338H257.611V223.721H250.721V216.338H246.223V235H250.721V227.357H257.611V235H262.096ZM278.83 231.596C277.846 231.596 277.044 231.295 276.424 230.693C275.804 230.092 275.494 229.199 275.494 228.014V216.338H271.01V228.643C271.01 229.973 271.32 231.145 271.939 232.156C272.568 233.159 273.466 233.943 274.633 234.508C275.809 235.064 277.208 235.342 278.83 235.342C280.452 235.342 281.847 235.064 283.014 234.508C284.18 233.943 285.074 233.159 285.693 232.156C286.322 231.145 286.637 229.973 286.637 228.643V216.338H282.166V228.014C282.166 229.189 281.856 230.083 281.236 230.693C280.617 231.295 279.814 231.596 278.83 231.596ZM289.057 229.545C289.066 230.219 289.198 230.898 289.453 231.582C289.708 232.266 290.123 232.895 290.697 233.469C291.281 234.034 292.051 234.49 293.008 234.836C293.974 235.173 295.168 235.342 296.59 235.342C298.212 235.342 299.593 235.096 300.732 234.604C301.872 234.102 302.742 233.4 303.344 232.498C303.945 231.596 304.246 230.534 304.246 229.312C304.246 228.137 304.005 227.189 303.521 226.469C303.048 225.74 302.423 225.179 301.648 224.787C300.874 224.395 300.035 224.113 299.133 223.939L296.439 223.379C295.628 223.224 295.004 222.987 294.566 222.668C294.138 222.349 293.924 221.939 293.924 221.438C293.924 220.818 294.165 220.321 294.648 219.947C295.141 219.564 295.833 219.373 296.727 219.373C297.401 219.373 297.957 219.487 298.395 219.715C298.841 219.934 299.178 220.216 299.406 220.562C299.634 220.909 299.762 221.278 299.789 221.67H303.932C303.923 220.604 303.631 219.642 303.057 218.785C302.482 217.928 301.658 217.249 300.582 216.748C299.516 216.238 298.23 215.982 296.727 215.982C295.341 215.982 294.102 216.21 293.008 216.666C291.914 217.113 291.048 217.769 290.41 218.635C289.772 219.501 289.453 220.553 289.453 221.793C289.453 222.878 289.676 223.78 290.123 224.5C290.57 225.22 291.167 225.79 291.914 226.209C292.661 226.619 293.495 226.915 294.416 227.098L297.055 227.672C297.966 227.863 298.654 228.114 299.119 228.424C299.593 228.734 299.83 229.18 299.83 229.764C299.83 230.183 299.716 230.557 299.488 230.885C299.26 231.204 298.919 231.454 298.463 231.637C298.016 231.819 297.451 231.91 296.768 231.91C296.212 231.91 295.724 231.846 295.305 231.719C294.895 231.591 294.544 231.413 294.252 231.186C293.969 230.958 293.751 230.702 293.596 230.42C293.441 230.137 293.354 229.846 293.336 229.545H289.057Z" fill="#2F2F2F"/>
<path d="M16.6035 229.545C16.6126 230.219 16.7448 230.898 17 231.582C17.2552 232.266 17.6699 232.895 18.2441 233.469C18.8275 234.034 19.5977 234.49 20.5547 234.836C21.5208 235.173 22.7148 235.342 24.1367 235.342C25.7591 235.342 27.14 235.096 28.2793 234.604C29.4186 234.102 30.2891 233.4 30.8906 232.498C31.4922 231.596 31.793 230.534 31.793 229.312C31.793 228.137 31.5514 227.189 31.0684 226.469C30.5944 225.74 29.9701 225.179 29.1953 224.787C28.4206 224.395 27.582 224.113 26.6797 223.939L23.9863 223.379C23.1751 223.224 22.5508 222.987 22.1133 222.668C21.6849 222.349 21.4707 221.939 21.4707 221.438C21.4707 220.818 21.7122 220.321 22.1953 219.947C22.6875 219.564 23.3802 219.373 24.2734 219.373C24.9479 219.373 25.5039 219.487 25.9414 219.715C26.388 219.934 26.7253 220.216 26.9531 220.562C27.181 220.909 27.3086 221.278 27.3359 221.67H31.4785C31.4694 220.604 31.1777 219.642 30.6035 218.785C30.0293 217.928 29.2044 217.249 28.1289 216.748C27.0625 216.238 25.7773 215.982 24.2734 215.982C22.888 215.982 21.6484 216.21 20.5547 216.666C19.4609 217.113 18.5951 217.769 17.957 218.635C17.319 219.501 17 220.553 17 221.793C17 222.878 17.2233 223.78 17.6699 224.5C18.1165 225.22 18.7135 225.79 19.4609 226.209C20.2083 226.619 21.0423 226.915 21.9629 227.098L24.6016 227.672C25.513 227.863 26.2012 228.114 26.666 228.424C27.14 228.734 27.377 229.18 27.377 229.764C27.377 230.183 27.263 230.557 27.0352 230.885C26.8073 231.204 26.4655 231.454 26.0098 231.637C25.5632 231.819 24.998 231.91 24.3145 231.91C23.7585 231.91 23.2708 231.846 22.8516 231.719C22.4414 231.591 22.0905 231.413 21.7988 231.186C21.5163 230.958 21.2975 230.702 21.1426 230.42C20.9876 230.137 20.901 229.846 20.8828 229.545H16.6035ZM42.1699 231.596C41.1855 231.596 40.3835 231.295 39.7637 230.693C39.1439 230.092 38.834 229.199 38.834 228.014V216.338H34.3496V228.643C34.3496 229.973 34.6595 231.145 35.2793 232.156C35.9082 233.159 36.806 233.943 37.9727 234.508C39.1484 235.064 40.5475 235.342 42.1699 235.342C43.7923 235.342 45.1868 235.064 46.3535 234.508C47.5202 233.943 48.4134 233.159 49.0332 232.156C49.6621 231.145 49.9766 229.973 49.9766 228.643V216.338H45.5059V228.014C45.5059 229.189 45.196 230.083 44.5762 230.693C43.9564 231.295 43.1543 231.596 42.1699 231.596ZM52.3965 229.545C52.4056 230.219 52.5378 230.898 52.793 231.582C53.0482 232.266 53.4629 232.895 54.0371 233.469C54.6204 234.034 55.3906 234.49 56.3477 234.836C57.3138 235.173 58.5078 235.342 59.9297 235.342C61.5521 235.342 62.9329 235.096 64.0723 234.604C65.2116 234.102 66.082 233.4 66.6836 232.498C67.2852 231.596 67.5859 230.534 67.5859 229.312C67.5859 228.137 67.3444 227.189 66.8613 226.469C66.3874 225.74 65.763 225.179 64.9883 224.787C64.2135 224.395 63.375 224.113 62.4727 223.939L59.7793 223.379C58.9681 223.224 58.3438 222.987 57.9062 222.668C57.4779 222.349 57.2637 221.939 57.2637 221.438C57.2637 220.818 57.5052 220.321 57.9883 219.947C58.4805 219.564 59.1732 219.373 60.0664 219.373C60.7409 219.373 61.2969 219.487 61.7344 219.715C62.181 219.934 62.5182 220.216 62.7461 220.562C62.974 220.909 63.1016 221.278 63.1289 221.67H67.2715C67.2624 220.604 66.9707 219.642 66.3965 218.785C65.8223 217.928 64.9974 217.249 63.9219 216.748C62.8555 216.238 61.5703 215.982 60.0664 215.982C58.681 215.982 57.4414 216.21 56.3477 216.666C55.2539 217.113 54.388 217.769 53.75 218.635C53.112 219.501 52.793 220.553 52.793 221.793C52.793 222.878 53.0163 223.78 53.4629 224.5C53.9095 225.22 54.5065 225.79 55.2539 226.209C56.0013 226.619 56.8353 226.915 57.7559 227.098L60.3945 227.672C61.306 227.863 61.9941 228.114 62.459 228.424C62.9329 228.734 63.1699 229.18 63.1699 229.764C63.1699 230.183 63.056 230.557 62.8281 230.885C62.6003 231.204 62.2585 231.454 61.8027 231.637C61.3561 231.819 60.791 231.91 60.1074 231.91C59.5514 231.91 59.0638 231.846 58.6445 231.719C58.2344 231.591 57.8835 231.413 57.5918 231.186C57.3092 230.958 57.0905 230.702 56.9355 230.42C56.7806 230.137 56.694 229.846 56.6758 229.545H52.3965ZM78.2637 235V220.016H83.3633V216.338H68.6934V220.016H73.7793V235H78.2637ZM86.7402 235L87.957 230.693H93.7402L94.957 235H99.7285L93.7402 216.338H88.2715L82.2422 235H86.7402ZM90.9785 220.357L92.9336 227.453H88.791L90.7734 220.357H90.9785ZM106.182 235V216.338H101.684V235H106.182ZM113.988 235V223.803H114.139L121.699 235H125.227V216.338H121.07V227.426H120.92L113.4 216.338H109.832V235H113.988ZM131.666 235L132.883 230.693H138.666L139.883 235H144.654L138.666 216.338H133.197L127.168 235H131.666ZM135.904 220.357L137.859 227.453H133.717L135.699 220.357H135.904ZM146.609 235H155.004C156.216 235 157.31 234.795 158.285 234.385C159.27 233.965 160.049 233.364 160.623 232.58C161.197 231.787 161.484 230.83 161.484 229.709C161.484 228.734 161.279 227.923 160.869 227.275C160.459 226.619 159.93 226.122 159.283 225.785C158.645 225.439 157.975 225.243 157.273 225.197V224.992C157.875 224.874 158.426 224.646 158.928 224.309C159.429 223.971 159.83 223.52 160.131 222.955C160.441 222.39 160.596 221.711 160.596 220.918C160.596 219.478 160.072 218.357 159.023 217.555C157.975 216.743 156.594 216.338 154.881 216.338H146.609V235ZM151.066 219.523H153.732C154.525 219.523 155.136 219.719 155.564 220.111C156.002 220.503 156.221 221.032 156.221 221.697C156.221 222.144 156.116 222.536 155.906 222.873C155.697 223.201 155.373 223.461 154.936 223.652C154.498 223.835 153.933 223.926 153.24 223.926H151.066V219.523ZM151.066 226.824H153.951C154.607 226.824 155.154 226.929 155.592 227.139C156.038 227.339 156.371 227.631 156.59 228.014C156.818 228.387 156.932 228.829 156.932 229.34C156.932 230.105 156.663 230.712 156.125 231.158C155.587 231.596 154.712 231.814 153.5 231.814H151.066V226.824ZM176.1 231.254H168.607V216.338H164.109V235H176.1V231.254ZM185.355 235V228.369L191.604 216.338H186.846L183.264 224.035H183.1L179.545 216.338H174.623L180.871 228.479V235H185.355Z" fill="#359D9E"/>
<path d="M73.2734 269H77.4453C78.1849 269 78.8333 268.883 79.3906 268.648C79.9479 268.409 80.3802 268.065 80.6875 267.617C81 267.169 81.1562 266.63 81.1562 266C81.1562 265.484 81.0547 265.042 80.8516 264.672C80.6484 264.297 80.3698 264.003 80.0156 263.789C79.6667 263.57 79.2656 263.435 78.8125 263.383V263.305C79.1667 263.206 79.4766 263.052 79.7422 262.844C80.0078 262.635 80.2135 262.375 80.3594 262.062C80.5104 261.745 80.5859 261.378 80.5859 260.961C80.5859 260.143 80.3073 259.503 79.75 259.039C79.1979 258.57 78.4557 258.336 77.5234 258.336H73.2734V269ZM75.0391 259.742H77.1484C77.6797 259.742 78.0911 259.878 78.3828 260.148C78.6797 260.414 78.8281 260.784 78.8281 261.258C78.8281 261.607 78.7448 261.901 78.5781 262.141C78.4167 262.375 78.1693 262.552 77.8359 262.672C77.5026 262.786 77.0703 262.844 76.5391 262.844H75.0391V259.742ZM75.0391 264.18H77.2969C77.7344 264.18 78.1068 264.25 78.4141 264.391C78.7214 264.526 78.9531 264.727 79.1094 264.992C79.2708 265.253 79.3516 265.568 79.3516 265.938C79.3516 266.5 79.1458 266.917 78.7344 267.188C78.3281 267.458 77.6615 267.594 76.7344 267.594H75.0391V264.18ZM87.4609 267.68C86.7318 267.68 86.1458 267.461 85.7031 267.023C85.2656 266.586 85.0469 265.977 85.0469 265.195V258.336H83.2734V265.32C83.2734 266.096 83.4453 266.779 83.7891 267.367C84.138 267.951 84.625 268.404 85.25 268.727C85.8802 269.049 86.6172 269.211 87.4609 269.211C88.3099 269.211 89.0469 269.049 89.6719 268.727C90.2969 268.404 90.7812 267.951 91.125 267.367C91.474 266.779 91.6484 266.096 91.6484 265.32V258.336H89.875V265.195C89.875 265.977 89.6562 266.586 89.2188 267.023C88.7812 267.461 88.1953 267.68 87.4609 267.68ZM96.1094 269V258.336H94.3359V269H96.1094ZM105.398 267.461H100.703V258.336H98.9297V269H105.398V267.461ZM107.211 258.336V269H110.891C111.943 269 112.818 268.794 113.516 268.383C114.219 267.966 114.745 267.359 115.094 266.562C115.443 265.766 115.617 264.797 115.617 263.656C115.617 262.51 115.443 261.544 115.094 260.758C114.75 259.966 114.227 259.365 113.523 258.953C112.826 258.542 111.948 258.336 110.891 258.336H107.211ZM108.984 259.828H110.695C111.398 259.828 111.979 259.971 112.438 260.258C112.896 260.539 113.237 260.966 113.461 261.539C113.685 262.112 113.797 262.826 113.797 263.68C113.797 264.32 113.732 264.88 113.602 265.359C113.477 265.833 113.286 266.232 113.031 266.555C112.781 266.872 112.461 267.112 112.07 267.273C111.68 267.43 111.221 267.508 110.695 267.508H108.984V259.828ZM119.641 269V258.336H117.867V269H119.641ZM124.164 269V261.32H124.234L129.227 269H130.781V258.336H129.078V265.992H129L124.023 258.336H122.461V269H124.164ZM141.648 261.383C141.591 260.919 141.458 260.49 141.25 260.094C141.042 259.698 140.763 259.354 140.414 259.062C140.07 258.766 139.661 258.536 139.188 258.375C138.714 258.208 138.185 258.125 137.602 258.125C136.674 258.125 135.88 258.323 135.219 258.719C134.557 259.115 134.049 259.674 133.695 260.398C133.346 261.117 133.172 261.964 133.172 262.938V264.344C133.172 265.083 133.266 265.755 133.453 266.359C133.646 266.958 133.93 267.471 134.305 267.898C134.68 268.32 135.143 268.646 135.695 268.875C136.253 269.099 136.893 269.211 137.617 269.211C138.294 269.211 138.885 269.117 139.391 268.93C139.901 268.737 140.328 268.471 140.672 268.133C141.016 267.794 141.273 267.401 141.445 266.953C141.622 266.5 141.711 266.016 141.711 265.5V263.336H137.555V264.734H140.008V265.578C140.008 265.979 139.919 266.339 139.742 266.656C139.565 266.974 139.299 267.227 138.945 267.414C138.596 267.602 138.156 267.695 137.625 267.695C137.042 267.695 136.552 267.56 136.156 267.289C135.76 267.013 135.461 266.625 135.258 266.125C135.06 265.62 134.961 265.023 134.961 264.336V262.945C134.961 261.904 135.19 261.094 135.648 260.516C136.107 259.932 136.747 259.641 137.57 259.641C137.883 259.641 138.167 259.682 138.422 259.766C138.682 259.849 138.911 259.969 139.109 260.125C139.307 260.276 139.471 260.458 139.602 260.672C139.737 260.885 139.836 261.122 139.898 261.383H141.648ZM151.766 269V264.672L155.336 258.336H153.391L150.938 262.953H150.859L148.414 258.336H146.43L150 264.703V269H151.766ZM163.242 262.93V264.406C163.242 265.141 163.128 265.753 162.898 266.242C162.669 266.727 162.357 267.091 161.961 267.336C161.565 267.581 161.115 267.703 160.609 267.703C160.099 267.703 159.646 267.581 159.25 267.336C158.854 267.091 158.542 266.727 158.312 266.242C158.083 265.753 157.969 265.141 157.969 264.406V262.93C157.969 262.195 158.083 261.586 158.312 261.102C158.542 260.612 158.854 260.247 159.25 260.008C159.646 259.763 160.099 259.641 160.609 259.641C161.115 259.641 161.565 259.763 161.961 260.008C162.357 260.247 162.669 260.612 162.898 261.102C163.128 261.586 163.242 262.195 163.242 262.93ZM165.039 264.398V262.945C165.039 261.935 164.859 261.07 164.5 260.352C164.141 259.633 163.63 259.083 162.969 258.703C162.307 258.318 161.521 258.125 160.609 258.125C159.698 258.125 158.909 258.318 158.242 258.703C157.581 259.083 157.07 259.633 156.711 260.352C156.352 261.07 156.172 261.935 156.172 262.945V264.398C156.172 265.404 156.352 266.268 156.711 266.992C157.07 267.711 157.581 268.26 158.242 268.641C158.909 269.021 159.698 269.211 160.609 269.211C161.521 269.211 162.307 269.021 162.969 268.641C163.63 268.26 164.141 267.711 164.5 266.992C164.859 266.268 165.039 265.404 165.039 264.398ZM171.492 267.68C170.763 267.68 170.177 267.461 169.734 267.023C169.297 266.586 169.078 265.977 169.078 265.195V258.336H167.305V265.32C167.305 266.096 167.477 266.779 167.82 267.367C168.169 267.951 168.656 268.404 169.281 268.727C169.911 269.049 170.648 269.211 171.492 269.211C172.341 269.211 173.078 269.049 173.703 268.727C174.328 268.404 174.812 267.951 175.156 267.367C175.505 266.779 175.68 266.096 175.68 265.32V258.336H173.906V265.195C173.906 265.977 173.688 266.586 173.25 267.023C172.812 267.461 172.227 267.68 171.492 267.68ZM182.445 258.336H178.367V269H180.117V264.898H182.328L184.242 269H186.234L184.078 264.602C184.438 264.466 184.766 264.26 185.062 263.984C185.359 263.708 185.596 263.372 185.773 262.977C185.951 262.576 186.039 262.122 186.039 261.617C186.039 260.956 185.896 260.38 185.609 259.891C185.323 259.396 184.911 259.013 184.375 258.742C183.839 258.471 183.195 258.336 182.445 258.336ZM180.117 263.492V259.789H182.195C182.815 259.789 183.305 259.953 183.664 260.281C184.029 260.604 184.211 261.07 184.211 261.68C184.211 262.279 184.031 262.732 183.672 263.039C183.312 263.341 182.805 263.492 182.148 263.492H180.117ZM193.828 269V264.594H198.219V263.109H193.828V259.844H198.625V258.336H192.055V269H193.828ZM204.789 267.68C204.06 267.68 203.474 267.461 203.031 267.023C202.594 266.586 202.375 265.977 202.375 265.195V258.336H200.602V265.32C200.602 266.096 200.773 266.779 201.117 267.367C201.466 267.951 201.953 268.404 202.578 268.727C203.208 269.049 203.945 269.211 204.789 269.211C205.638 269.211 206.375 269.049 207 268.727C207.625 268.404 208.109 267.951 208.453 267.367C208.802 266.779 208.977 266.096 208.977 265.32V258.336H207.203V265.195C207.203 265.977 206.984 266.586 206.547 267.023C206.109 267.461 205.523 267.68 204.789 267.68ZM215.5 269V259.852H218.625V258.336H210.609V259.852H213.727V269H215.5ZM224.445 267.68C223.716 267.68 223.13 267.461 222.688 267.023C222.25 266.586 222.031 265.977 222.031 265.195V258.336H220.258V265.32C220.258 266.096 220.43 266.779 220.773 267.367C221.122 267.951 221.609 268.404 222.234 268.727C222.865 269.049 223.602 269.211 224.445 269.211C225.294 269.211 226.031 269.049 226.656 268.727C227.281 268.404 227.766 267.951 228.109 267.367C228.458 266.779 228.633 266.096 228.633 265.32V258.336H226.859V265.195C226.859 265.977 226.641 266.586 226.203 267.023C225.766 267.461 225.18 267.68 224.445 267.68ZM235.398 258.336H231.32V269H233.07V264.898H235.281L237.195 269H239.188L237.031 264.602C237.391 264.466 237.719 264.26 238.016 263.984C238.312 263.708 238.549 263.372 238.727 262.977C238.904 262.576 238.992 262.122 238.992 261.617C238.992 260.956 238.849 260.38 238.562 259.891C238.276 259.396 237.865 259.013 237.328 258.742C236.792 258.471 236.148 258.336 235.398 258.336ZM233.07 263.492V259.789H235.148C235.768 259.789 236.258 259.953 236.617 260.281C236.982 260.604 237.164 261.07 237.164 261.68C237.164 262.279 236.984 262.732 236.625 263.039C236.266 263.341 235.758 263.492 235.102 263.492H233.07ZM248.07 267.508H243.18V264.297H247.781V262.867H243.18V259.828H248.07V258.336H241.414V269H248.07V267.508ZM65.2109 290V279.336H63.4375V283.766H58.5547V279.336H56.7812V290H58.5547V285.273H63.4375V290H65.2109ZM68.7969 290L69.7422 287.047H73.4844L74.4297 290H76.3047L72.6328 279.336H70.6562L66.9844 290H68.7969ZM71.6562 281.18L73.0859 285.688H70.1406L71.5781 281.18H71.6562ZM77.2969 287.195C77.3281 287.622 77.4349 288.021 77.6172 288.391C77.8047 288.755 78.0677 289.076 78.4062 289.352C78.7448 289.622 79.1536 289.833 79.6328 289.984C80.112 290.135 80.6615 290.211 81.2812 290.211C82.1406 290.211 82.8776 290.076 83.4922 289.805C84.1068 289.534 84.5781 289.154 84.9062 288.664C85.2344 288.169 85.3984 287.594 85.3984 286.938C85.3984 286.38 85.2865 285.909 85.0625 285.523C84.8438 285.138 84.5234 284.82 84.1016 284.57C83.6797 284.32 83.1693 284.122 82.5703 283.977L80.8281 283.547C80.3542 283.432 79.9896 283.26 79.7344 283.031C79.4792 282.797 79.3516 282.505 79.3516 282.156C79.3516 281.682 79.5365 281.297 79.9062 281C80.2812 280.703 80.7812 280.555 81.4062 280.555C81.8021 280.555 82.1484 280.617 82.4453 280.742C82.7422 280.862 82.9818 281.031 83.1641 281.25C83.3516 281.464 83.474 281.714 83.5312 282H85.25C85.2083 281.453 85.026 280.961 84.7031 280.523C84.3854 280.086 83.9479 279.74 83.3906 279.484C82.8385 279.229 82.1823 279.102 81.4219 279.102C80.6719 279.102 80.0078 279.234 79.4297 279.5C78.8516 279.766 78.3958 280.135 78.0625 280.609C77.7344 281.083 77.5703 281.633 77.5703 282.258C77.5703 282.763 77.6745 283.208 77.8828 283.594C78.0911 283.979 78.3906 284.299 78.7812 284.555C79.1719 284.81 79.638 285.003 80.1797 285.133L81.9297 285.57C82.5078 285.711 82.9349 285.901 83.2109 286.141C83.487 286.375 83.625 286.693 83.625 287.094C83.625 287.427 83.5365 287.719 83.3594 287.969C83.1875 288.214 82.9375 288.406 82.6094 288.547C82.2812 288.682 81.8828 288.75 81.4141 288.75C81.0859 288.75 80.7839 288.714 80.5078 288.641C80.237 288.562 79.9974 288.456 79.7891 288.32C79.5859 288.18 79.4193 288.016 79.2891 287.828C79.1641 287.635 79.0807 287.424 79.0391 287.195H77.2969ZM92.9688 290V282.32H93.0391L98.0312 290H99.5859V279.336H97.8828V286.992H97.8047L92.8281 279.336H91.2656V290H92.9688ZM109.062 288.508H104.172V285.297H108.773V283.867H104.172V280.828H109.062V279.336H102.406V290H109.062V288.508ZM114.125 290H116.141L119.82 279.336H117.844L115.203 288.008H115.117L112.469 279.336H110.43L114.125 290ZM128.188 288.508H123.297V285.297H127.898V283.867H123.297V280.828H128.188V279.336H121.531V290H128.188V288.508ZM134.734 279.336H130.656V290H132.406V285.898H134.617L136.531 290H138.523L136.367 285.602C136.727 285.466 137.055 285.26 137.352 284.984C137.648 284.708 137.885 284.372 138.062 283.977C138.24 283.576 138.328 283.122 138.328 282.617C138.328 281.956 138.185 281.38 137.898 280.891C137.612 280.396 137.201 280.013 136.664 279.742C136.128 279.471 135.484 279.336 134.734 279.336ZM132.406 284.492V280.789H134.484C135.104 280.789 135.594 280.953 135.953 281.281C136.318 281.604 136.5 282.07 136.5 282.68C136.5 283.279 136.32 283.732 135.961 284.039C135.602 284.341 135.094 284.492 134.438 284.492H132.406ZM144.344 290H148.516C149.255 290 149.904 289.883 150.461 289.648C151.018 289.409 151.451 289.065 151.758 288.617C152.07 288.169 152.227 287.63 152.227 287C152.227 286.484 152.125 286.042 151.922 285.672C151.719 285.297 151.44 285.003 151.086 284.789C150.737 284.57 150.336 284.435 149.883 284.383V284.305C150.237 284.206 150.547 284.052 150.812 283.844C151.078 283.635 151.284 283.375 151.43 283.062C151.581 282.745 151.656 282.378 151.656 281.961C151.656 281.143 151.378 280.503 150.82 280.039C150.268 279.57 149.526 279.336 148.594 279.336H144.344V290ZM146.109 280.742H148.219C148.75 280.742 149.161 280.878 149.453 281.148C149.75 281.414 149.898 281.784 149.898 282.258C149.898 282.607 149.815 282.901 149.648 283.141C149.487 283.375 149.24 283.552 148.906 283.672C148.573 283.786 148.141 283.844 147.609 283.844H146.109V280.742ZM146.109 285.18H148.367C148.805 285.18 149.177 285.25 149.484 285.391C149.792 285.526 150.023 285.727 150.18 285.992C150.341 286.253 150.422 286.568 150.422 286.938C150.422 287.5 150.216 287.917 149.805 288.188C149.398 288.458 148.732 288.594 147.805 288.594H146.109V285.18ZM161.125 288.508H156.234V285.297H160.836V283.867H156.234V280.828H161.125V279.336H154.469V290H161.125V288.508ZM170.25 288.508H165.359V285.297H169.961V283.867H165.359V280.828H170.25V279.336H163.594V290H170.25V288.508ZM174.422 290V282.32H174.492L179.484 290H181.039V279.336H179.336V286.992H179.258L174.281 279.336H172.719V290H174.422ZM191.289 290V280.852H194.414V279.336H186.398V280.852H189.516V290H191.289ZM204.602 290V279.336H202.828V283.766H197.945V279.336H196.172V290H197.945V285.273H202.828V290H204.602ZM208.188 290L209.133 287.047H212.875L213.82 290H215.695L212.023 279.336H210.047L206.375 290H208.188ZM211.047 281.18L212.477 285.688H209.531L210.969 281.18H211.047ZM220.648 290V280.852H223.773V279.336H215.758V280.852H218.875V290H220.648ZM235.781 288.508H230.891V285.297H235.492V283.867H230.891V280.828H235.781V279.336H229.125V290H235.781V288.508ZM239.016 290L239.961 287.047H243.703L244.648 290H246.523L242.852 279.336H240.875L237.203 290H239.016ZM241.875 281.18L243.305 285.688H240.359L241.797 281.18H241.875ZM247.516 287.195C247.547 287.622 247.654 288.021 247.836 288.391C248.023 288.755 248.286 289.076 248.625 289.352C248.964 289.622 249.372 289.833 249.852 289.984C250.331 290.135 250.88 290.211 251.5 290.211C252.359 290.211 253.096 290.076 253.711 289.805C254.326 289.534 254.797 289.154 255.125 288.664C255.453 288.169 255.617 287.594 255.617 286.938C255.617 286.38 255.505 285.909 255.281 285.523C255.062 285.138 254.742 284.82 254.32 284.57C253.898 284.32 253.388 284.122 252.789 283.977L251.047 283.547C250.573 283.432 250.208 283.26 249.953 283.031C249.698 282.797 249.57 282.505 249.57 282.156C249.57 281.682 249.755 281.297 250.125 281C250.5 280.703 251 280.555 251.625 280.555C252.021 280.555 252.367 280.617 252.664 280.742C252.961 280.862 253.201 281.031 253.383 281.25C253.57 281.464 253.693 281.714 253.75 282H255.469C255.427 281.453 255.245 280.961 254.922 280.523C254.604 280.086 254.167 279.74 253.609 279.484C253.057 279.229 252.401 279.102 251.641 279.102C250.891 279.102 250.227 279.234 249.648 279.5C249.07 279.766 248.615 280.135 248.281 280.609C247.953 281.083 247.789 281.633 247.789 282.258C247.789 282.763 247.893 283.208 248.102 283.594C248.31 283.979 248.609 284.299 249 284.555C249.391 284.81 249.857 285.003 250.398 285.133L252.148 285.57C252.727 285.711 253.154 285.901 253.43 286.141C253.706 286.375 253.844 286.693 253.844 287.094C253.844 287.427 253.755 287.719 253.578 287.969C253.406 288.214 253.156 288.406 252.828 288.547C252.5 288.682 252.102 288.75 251.633 288.75C251.305 288.75 251.003 288.714 250.727 288.641C250.456 288.562 250.216 288.456 250.008 288.32C249.805 288.18 249.638 288.016 249.508 287.828C249.383 287.635 249.299 287.424 249.258 287.195H247.516ZM261.914 290V285.672L265.484 279.336H263.539L261.086 283.953H261.008L258.562 279.336H256.578L260.148 285.703V290H261.914Z" fill="#2F2F2F"/>
<g clip-path="url(#clip0_99_829)">
<path d="M182.085 76.0675C181.92 75.9046 181.755 76.0675 181.59 76.2304C181.095 77.208 180.435 78.0227 179.609 78.8373C178.784 79.4891 177.794 80.1408 176.804 80.4666C174.659 81.2813 172.513 81.7701 170.368 82.2589C168.223 82.7477 165.913 83.0736 163.767 83.5623C161.457 84.0511 159.312 84.5399 157.166 85.3546C156.011 85.6805 155.021 86.1693 154.031 86.821C153.536 87.1468 153.041 87.3098 152.546 87.6356C152.381 87.7986 152.051 87.9615 151.886 88.1244C151.721 88.2874 151.391 88.4503 151.226 88.6132C149.41 90.0796 147.925 91.8719 146.77 93.827C146.275 94.8046 145.78 95.9452 145.45 97.0857C145.12 98.2262 144.955 99.5297 145.12 100.67C145.12 101.811 145.285 102.951 145.615 104.092C145.78 104.581 145.945 105.232 146.275 105.721C146.44 106.21 146.935 106.699 147.43 107.025C147.76 107.187 148.255 106.699 148.42 106.536C160.797 93.5012 173.009 98.0633 180.6 84.0511C180.6 84.7029 180.435 85.3546 180.104 85.8434C179.774 86.658 179.279 87.6356 178.784 88.6132C178.124 89.7538 177.299 90.8943 176.474 91.8719C175.484 93.0124 174.329 94.1529 173.174 95.2934C171.853 96.4339 170.533 97.5745 169.048 98.5521C165.913 100.833 162.612 102.788 159.312 104.743C156.011 106.862 152.546 108.817 149.576 111.098C148.09 112.238 146.605 113.379 145.285 114.519C143.965 115.66 142.975 116.8 141.985 118.267C140.499 120.385 139.344 122.666 138.849 125.273C138.684 125.762 138.684 126.088 138.684 126.576V128.206C138.684 129.02 139.344 129.835 140.169 129.835H140.334C141.159 129.835 141.985 129.183 141.985 128.369V128.206V126.902C141.985 126.576 141.985 126.25 142.15 125.925C142.315 125.11 142.48 124.132 142.81 123.318C143.305 122.177 143.8 121.037 144.46 120.059C145.285 118.919 146.275 117.778 147.265 116.637C148.255 115.497 149.741 114.356 151.061 113.216C151.226 113.053 151.391 113.053 151.556 112.89H151.721C152.051 113.053 152.381 113.216 152.546 113.542C153.206 113.868 153.701 114.356 154.361 114.682C155.681 115.334 157.001 115.823 158.322 116.149C159.807 116.475 161.127 116.637 162.612 116.637C164.097 116.637 165.418 116.475 166.903 116.149C169.708 115.497 172.183 114.356 174.494 112.727C176.804 111.098 178.784 109.143 180.6 107.025C182.415 104.906 183.735 102.462 184.89 100.018C186.045 97.5745 186.705 94.8046 186.87 92.0348C187.2 89.265 186.87 86.4951 186.21 83.8882C185.22 81.1184 183.9 78.5115 182.085 76.0675Z" fill="url(#paint1_linear_99_829)"/>
</g>
<rect width="320" height="25.0399" fill="white"/>
<path d="M17.4767 16.5199H16.0904V11.2954C15.5839 11.769 14.9869 12.1193 14.2995 12.3462V11.0882C14.6613 10.9698 15.0544 10.7461 15.4786 10.4173C15.9029 10.0851 16.194 9.69861 16.3519 9.25789H17.4767V16.5199ZM21.8035 9.25789C22.504 9.25789 23.0517 9.50785 23.4463 10.0078C23.9167 10.5998 24.1518 11.5815 24.1518 12.953C24.1518 14.3213 23.915 15.3047 23.4414 15.9032C23.05 16.3966 22.504 16.6433 21.8035 16.6433C21.0997 16.6433 20.5323 16.3736 20.1015 15.8342C19.6706 15.2915 19.4552 14.3262 19.4552 12.9382C19.4552 11.5766 19.692 10.5965 20.1656 9.99791C20.557 9.50456 21.1029 9.25789 21.8035 9.25789ZM21.8035 10.4074C21.6358 10.4074 21.4861 10.4617 21.3546 10.5702C21.223 10.6754 21.121 10.8662 21.0487 11.1425C20.9533 11.501 20.9056 12.1045 20.9056 12.953C20.9056 13.8016 20.9484 14.3854 21.0339 14.7044C21.1194 15.0202 21.2263 15.2307 21.3546 15.3359C21.4861 15.4411 21.6358 15.4938 21.8035 15.4938C21.9712 15.4938 22.1209 15.4411 22.2524 15.3359C22.384 15.2274 22.486 15.035 22.5583 14.7587C22.6537 14.4035 22.7014 13.8016 22.7014 12.953C22.7014 12.1045 22.6586 11.5223 22.5731 11.2066C22.4876 10.8876 22.3791 10.6754 22.2475 10.5702C22.1192 10.4617 21.9712 10.4074 21.8035 10.4074ZM25.5531 12.6669V11.2806H26.9394V12.6669H25.5531ZM25.5531 16.5199V15.1336H26.9394V16.5199H25.5531ZM30.6051 9.25789C31.3057 9.25789 31.8533 9.50785 32.248 10.0078C32.7183 10.5998 32.9535 11.5815 32.9535 12.953C32.9535 14.3213 32.7167 15.3047 32.243 15.9032C31.8517 16.3966 31.3057 16.6433 30.6051 16.6433C29.9013 16.6433 29.334 16.3736 28.9031 15.8342C28.4722 15.2915 28.2568 14.3262 28.2568 12.9382C28.2568 11.5766 28.4936 10.5965 28.9672 9.99791C29.3586 9.50456 29.9046 9.25789 30.6051 9.25789ZM30.6051 10.4074C30.4374 10.4074 30.2878 10.4617 30.1562 10.5702C30.0246 10.6754 29.9227 10.8662 29.8503 11.1425C29.7549 11.501 29.7072 12.1045 29.7072 12.953C29.7072 13.8016 29.75 14.3854 29.8355 14.7044C29.921 15.0202 30.0279 15.2307 30.1562 15.3359C30.2878 15.4411 30.4374 15.4938 30.6051 15.4938C30.7729 15.4938 30.9225 15.4411 31.0541 15.3359C31.1856 15.2274 31.2876 15.035 31.36 14.7587C31.4553 14.4035 31.503 13.8016 31.503 12.953C31.503 12.1045 31.4603 11.5223 31.3748 11.2066C31.2892 10.8876 31.1807 10.6754 31.0491 10.5702C30.9209 10.4617 30.7729 10.4074 30.6051 10.4074ZM33.8219 14.8475L35.1638 14.6995C35.1967 14.9725 35.2822 15.1747 35.4204 15.3063C35.5585 15.4379 35.741 15.5036 35.968 15.5036C36.2541 15.5036 36.4975 15.3721 36.6981 15.109C36.8988 14.8458 37.027 14.2999 37.0829 13.4711C36.7343 13.8756 36.2985 14.0779 35.7756 14.0779C35.2066 14.0779 34.7149 13.8592 34.3005 13.4217C33.8894 12.981 33.6838 12.4087 33.6838 11.7049C33.6838 10.9714 33.9009 10.3811 34.335 9.93377C34.7724 9.48319 35.3283 9.25789 36.0025 9.25789C36.736 9.25789 37.3378 9.54239 37.8082 10.1114C38.2785 10.6771 38.5136 11.6095 38.5136 12.9086C38.5136 14.2308 38.2686 15.1846 37.7786 15.77C37.2885 16.3555 36.6504 16.6482 35.8644 16.6482C35.2987 16.6482 34.8415 16.4985 34.4929 16.1993C34.1442 15.8967 33.9206 15.4461 33.8219 14.8475ZM36.9596 11.8184C36.9596 11.3711 36.856 11.0241 36.6488 10.7774C36.4449 10.5307 36.2081 10.4074 35.9384 10.4074C35.6818 10.4074 35.4681 10.5093 35.297 10.7133C35.1293 10.9139 35.0454 11.2444 35.0454 11.7049C35.0454 12.1719 35.1375 12.5156 35.3217 12.736C35.5059 12.953 35.7361 13.0616 36.0124 13.0616C36.2788 13.0616 36.5024 12.9563 36.6833 12.7458C36.8675 12.5353 36.9596 12.2262 36.9596 11.8184Z" fill="black"/>
<rect opacity="0.35" x="288.003" y="8.10432" width="16.267" height="8.20146" rx="0.608093" stroke="white" stroke-width="0.280658"/>
<path opacity="0.4" d="M305.162 10.7082V13.7019C305.77 13.4483 306.165 12.8585 306.165 12.205C306.165 11.5516 305.77 10.9617 305.162 10.7082" fill="black"/>
<rect x="289.367" y="9.46085" width="13.539" height="5.48843" rx="0.374211" fill="black"/>
<path fill-rule="evenodd" clip-rule="evenodd" d="M276.512 9.22318C278.177 9.22326 279.778 9.92667 280.985 11.188C281.076 11.2854 281.221 11.2842 281.31 11.1853L282.179 10.2214C282.224 10.1713 282.25 10.1033 282.249 10.0326C282.249 9.96192 282.223 9.89429 282.177 9.84472C279.01 6.50749 274.013 6.50749 270.846 9.84472C270.8 9.89426 270.774 9.96186 270.773 10.0326C270.773 10.1033 270.798 10.1712 270.844 10.2214L271.712 11.1853C271.802 11.2843 271.947 11.2855 272.038 11.188C273.245 9.92659 274.846 9.22318 276.512 9.22318ZM276.511 12.3515C277.426 12.3515 278.31 12.7349 278.988 13.4272C279.08 13.5255 279.225 13.5234 279.314 13.4224L280.183 12.434C280.229 12.3821 280.254 12.3118 280.254 12.2387C280.253 12.1656 280.226 12.0959 280.18 12.0451C278.112 9.87921 274.911 9.87921 272.843 12.0451C272.797 12.0959 272.77 12.1657 272.769 12.2388C272.769 12.3119 272.794 12.3822 272.84 12.434L273.708 13.4224C273.798 13.5234 273.943 13.5255 274.034 13.4272C274.713 12.7353 275.595 12.3519 276.511 12.3515ZM278.258 14.6385C278.259 14.7102 278.233 14.7794 278.187 14.8297L276.679 16.5016C276.634 16.5508 276.574 16.5784 276.511 16.5784C276.448 16.5784 276.388 16.5508 276.344 16.5016L274.836 14.8297C274.789 14.7794 274.764 14.7102 274.765 14.6384C274.766 14.5667 274.795 14.4987 274.843 14.4506C275.806 13.5557 277.217 13.5557 278.18 14.4506C278.228 14.4987 278.256 14.5667 278.258 14.6385Z" fill="black"/>
<path fill-rule="evenodd" clip-rule="evenodd" d="M266.844 8.96188C266.844 8.54854 266.509 8.21346 266.096 8.21346H265.347C264.934 8.21346 264.599 8.54854 264.599 8.96188V15.4482C264.599 15.8616 264.934 16.1966 265.347 16.1966H266.096C266.509 16.1966 266.844 15.8616 266.844 15.4482V8.96188ZM261.855 9.9598H262.603C263.017 9.9598 263.352 10.2949 263.352 10.7082V15.4482C263.352 15.8616 263.017 16.1967 262.603 16.1967H261.855C261.441 16.1967 261.106 15.8616 261.106 15.4482V10.7082C261.106 10.2949 261.441 9.9598 261.855 9.9598ZM259.111 11.7061H258.362C257.949 11.7061 257.614 12.0412 257.614 12.4545V15.4482C257.614 15.8616 257.949 16.1966 258.362 16.1966H259.111C259.524 16.1966 259.859 15.8616 259.859 15.4482V12.4545C259.859 12.0412 259.524 11.7061 259.111 11.7061ZM256.366 13.9514C256.366 13.538 256.031 13.2029 255.618 13.2029H254.87C254.456 13.2029 254.121 13.538 254.121 13.9514V15.4482C254.121 15.8615 254.456 16.1966 254.87 16.1966H255.618C256.031 16.1966 256.366 15.8615 256.366 15.4482V13.9514Z" fill="black"/>
<defs>
<filter id="filter0_d_99_829" x="6" y="433" width="308" height="62" filterUnits="userSpaceOnUse" color-interpolation-filters="sRGB">
<feFlood flood-opacity="0" result="BackgroundImageFix"/>
<feColorMatrix in="SourceAlpha" type="matrix" values="0 0 0 0 0 0 0 0 0 0 0 0 0 0 0 0 0 0 127 0" result="hardAlpha"/>
<feMorphology radius="3" operator="dilate" in="SourceAlpha" result="effect1_dropShadow_99_829"/>
<feOffset/>
<feGaussianBlur stdDeviation="3.5"/>
<feComposite in2="hardAlpha" operator="out"/>
<feColorMatrix type="matrix" values="0 0 0 0 0 0 0 0 0 0 0 0 0 0 0 0 0 0 0.12 0"/>
<feBlend mode="normal" in2="BackgroundImageFix" result="effect1_dropShadow_99_829"/>
<feBlend mode="normal" in="SourceGraphic" in2="effect1_dropShadow_99_829" result="shape"/>
</filter>
<filter id="filter1_d_99_829" x="65" y="301" width="190" height="56" filterUnits="userSpaceOnUse" color-interpolation-filters="sRGB">
<feFlood flood-opacity="0" result="BackgroundImageFix"/>
<feColorMatrix in="SourceAlpha" type="matrix" values="0 0 0 0 0 0 0 0 0 0 0 0 0 0 0 0 0 0 127 0" result="hardAlpha"/>
<feMorphology radius="3" operator="dilate" in="SourceAlpha" result="effect1_dropShadow_99_829"/>
<feOffset/>
<feGaussianBlur stdDeviation="3.5"/>
<feComposite in2="hardAlpha" operator="out"/>
<feColorMatrix type="matrix" values="0 0 0 0 0 0 0 0 0 0 0 0 0 0 0 0 0 0 0.12 0"/>
<feBlend mode="normal" in2="BackgroundImageFix" result="effect1_dropShadow_99_829"/>
<feBlend mode="normal" in="SourceGraphic" in2="effect1_dropShadow_99_829" result="shape"/>
</filter>
<linearGradient id="paint0_linear_99_829" x1="85.5" y1="395" x2="176" y2="617.5" gradientUnits="userSpaceOnUse">
<stop stop-color="#215273"/>
<stop offset="1" stop-color="#359D9E"/>
</linearGradient>
<linearGradient id="paint1_linear_99_829" x1="162.842" y1="76" x2="162.842" y2="129.835" gradientUnits="userSpaceOnUse">
<stop stop-color="#55C595"/>
<stop offset="1" stop-color="#359D9E"/>
</linearGradient>
<clipPath id="clip0_99_829">
<rect width="54" height="54" fill="white" transform="translate(133 76)"/>
</clipPath>
</defs>
</svg>
