<svg width="320" height="568" viewBox="0 0 320 568" fill="none" xmlns="http://www.w3.org/2000/svg">
<rect width="320" height="568" fill="white"/>
<rect width="320" height="25.0399" fill="white"/>
<path d="M17.4766 16.5199H16.0903V11.2954C15.5838 11.769 14.9868 12.1193 14.2994 12.3462V11.0882C14.6612 10.9698 15.0542 10.7461 15.4785 10.4173C15.9028 10.0851 16.1939 9.69861 16.3517 9.25789H17.4766V16.5199ZM21.8034 9.25789C22.5039 9.25789 23.0515 9.50785 23.4462 10.0078C23.9165 10.5998 24.1517 11.5815 24.1517 12.953C24.1517 14.3213 23.9149 15.3047 23.4413 15.9032C23.0499 16.3966 22.5039 16.6433 21.8034 16.6433C21.0995 16.6433 20.5322 16.3736 20.1013 15.8342C19.6705 15.2915 19.4551 14.3262 19.4551 12.9382C19.4551 11.5766 19.6919 10.5965 20.1655 9.99791C20.5569 9.50456 21.1028 9.25789 21.8034 9.25789ZM21.8034 10.4074C21.6356 10.4074 21.486 10.4617 21.3544 10.5702C21.2229 10.6754 21.1209 10.8662 21.0486 11.1425C20.9532 11.501 20.9055 12.1045 20.9055 12.953C20.9055 13.8016 20.9482 14.3854 21.0338 14.7044C21.1193 15.0202 21.2262 15.2307 21.3544 15.3359C21.486 15.4411 21.6356 15.4938 21.8034 15.4938C21.9711 15.4938 22.1208 15.4411 22.2523 15.3359C22.3839 15.2274 22.4858 15.035 22.5582 14.7587C22.6536 14.4035 22.7013 13.8016 22.7013 12.953C22.7013 12.1045 22.6585 11.5223 22.573 11.2066C22.4875 10.8876 22.3789 10.6754 22.2474 10.5702C22.1191 10.4617 21.9711 10.4074 21.8034 10.4074ZM25.553 12.6669V11.2806H26.9393V12.6669H25.553ZM25.553 16.5199V15.1336H26.9393V16.5199H25.553ZM30.605 9.25789C31.3056 9.25789 31.8532 9.50785 32.2479 10.0078C32.7182 10.5998 32.9533 11.5815 32.9533 12.953C32.9533 14.3213 32.7165 15.3047 32.2429 15.9032C31.8515 16.3966 31.3056 16.6433 30.605 16.6433C29.9012 16.6433 29.3338 16.3736 28.903 15.8342C28.4721 15.2915 28.2567 14.3262 28.2567 12.9382C28.2567 11.5766 28.4935 10.5965 28.9671 9.99791C29.3585 9.50456 29.9045 9.25789 30.605 9.25789ZM30.605 10.4074C30.4373 10.4074 30.2876 10.4617 30.1561 10.5702C30.0245 10.6754 29.9226 10.8662 29.8502 11.1425C29.7548 11.501 29.7071 12.1045 29.7071 12.953C29.7071 13.8016 29.7499 14.3854 29.8354 14.7044C29.9209 15.0202 30.0278 15.2307 30.1561 15.3359C30.2876 15.4411 30.4373 15.4938 30.605 15.4938C30.7728 15.4938 30.9224 15.4411 31.054 15.3359C31.1855 15.2274 31.2875 15.035 31.3598 14.7587C31.4552 14.4035 31.5029 13.8016 31.5029 12.953C31.5029 12.1045 31.4601 11.5223 31.3746 11.2066C31.2891 10.8876 31.1806 10.6754 31.049 10.5702C30.9208 10.4617 30.7728 10.4074 30.605 10.4074ZM33.8218 14.8475L35.1637 14.6995C35.1966 14.9725 35.2821 15.1747 35.4202 15.3063C35.5584 15.4379 35.7409 15.5036 35.9679 15.5036C36.254 15.5036 36.4974 15.3721 36.698 15.109C36.8986 14.8458 37.0269 14.2999 37.0828 13.4711C36.7342 13.8756 36.2984 14.0779 35.7755 14.0779C35.2065 14.0779 34.7148 13.8592 34.3004 13.4217C33.8892 12.981 33.6837 12.4087 33.6837 11.7049C33.6837 10.9714 33.9007 10.3811 34.3349 9.93377C34.7723 9.48319 35.3282 9.25789 36.0024 9.25789C36.7358 9.25789 37.3377 9.54239 37.808 10.1114C38.2784 10.6771 38.5135 11.6095 38.5135 12.9086C38.5135 14.2308 38.2685 15.1846 37.7784 15.77C37.2884 16.3555 36.6503 16.6482 35.8643 16.6482C35.2986 16.6482 34.8414 16.4985 34.4928 16.1993C34.1441 15.8967 33.9205 15.4461 33.8218 14.8475ZM36.9595 11.8184C36.9595 11.3711 36.8559 11.0241 36.6487 10.7774C36.4448 10.5307 36.208 10.4074 35.9383 10.4074C35.6817 10.4074 35.4679 10.5093 35.2969 10.7133C35.1292 10.9139 35.0453 11.2444 35.0453 11.7049C35.0453 12.1719 35.1374 12.5156 35.3216 12.736C35.5058 12.953 35.736 13.0616 36.0123 13.0616C36.2787 13.0616 36.5023 12.9563 36.6832 12.7458C36.8674 12.5353 36.9595 12.2262 36.9595 11.8184Z" fill="black"/>
<rect opacity="0.35" x="288.003" y="8.10432" width="16.267" height="8.20146" rx="0.608093" stroke="white" stroke-width="0.280658"/>
<path opacity="0.4" d="M305.162 10.7082V13.7019C305.77 13.4483 306.165 12.8585 306.165 12.205C306.165 11.5516 305.77 10.9617 305.162 10.7082Z" fill="black"/>
<rect x="289.367" y="9.46085" width="13.539" height="5.48843" rx="0.374211" fill="black"/>
<path fill-rule="evenodd" clip-rule="evenodd" d="M276.512 9.22318C278.177 9.22326 279.778 9.92667 280.985 11.188C281.076 11.2854 281.221 11.2842 281.31 11.1853L282.179 10.2214C282.224 10.1713 282.25 10.1033 282.249 10.0326C282.249 9.96192 282.223 9.89429 282.177 9.84472C279.01 6.50749 274.013 6.50749 270.846 9.84472C270.8 9.89426 270.774 9.96186 270.773 10.0326C270.773 10.1033 270.798 10.1712 270.844 10.2214L271.712 11.1853C271.802 11.2843 271.947 11.2855 272.038 11.188C273.245 9.92659 274.846 9.22318 276.512 9.22318ZM276.51 12.3515C277.426 12.3515 278.309 12.7349 278.988 13.4272C279.08 13.5255 279.225 13.5234 279.314 13.4224L280.183 12.434C280.229 12.3821 280.254 12.3118 280.253 12.2387C280.253 12.1656 280.226 12.0959 280.179 12.0451C278.112 9.87921 274.911 9.87921 272.843 12.0451C272.796 12.0959 272.77 12.1657 272.769 12.2388C272.769 12.3119 272.794 12.3822 272.84 12.434L273.708 13.4224C273.798 13.5234 273.942 13.5255 274.034 13.4272C274.713 12.7353 275.595 12.3519 276.51 12.3515ZM278.258 14.6385C278.259 14.7102 278.233 14.7794 278.187 14.8297L276.679 16.5016C276.635 16.5508 276.574 16.5784 276.511 16.5784C276.449 16.5784 276.388 16.5508 276.344 16.5016L274.836 14.8297C274.789 14.7794 274.764 14.7102 274.765 14.6384C274.766 14.5667 274.795 14.4987 274.843 14.4506C275.806 13.5557 277.217 13.5557 278.18 14.4506C278.228 14.4987 278.256 14.5667 278.258 14.6385Z" fill="black"/>
<path fill-rule="evenodd" clip-rule="evenodd" d="M266.844 8.96189C266.844 8.54855 266.509 8.21347 266.096 8.21347H265.347C264.934 8.21347 264.599 8.54855 264.599 8.96189V15.4482C264.599 15.8616 264.934 16.1966 265.347 16.1966H266.096C266.509 16.1966 266.844 15.8616 266.844 15.4482V8.96189ZM261.855 9.95981H262.603C263.017 9.95981 263.352 10.2949 263.352 10.7082V15.4482C263.352 15.8616 263.017 16.1967 262.603 16.1967H261.855C261.441 16.1967 261.106 15.8616 261.106 15.4482V10.7082C261.106 10.2949 261.441 9.95981 261.855 9.95981ZM259.111 11.7061H258.362C257.949 11.7061 257.614 12.0412 257.614 12.4545V15.4482C257.614 15.8616 257.949 16.1967 258.362 16.1967H259.111C259.524 16.1967 259.859 15.8616 259.859 15.4482V12.4545C259.859 12.0412 259.524 11.7061 259.111 11.7061ZM256.366 13.9514C256.366 13.538 256.031 13.2029 255.618 13.2029H254.87C254.456 13.2029 254.121 13.538 254.121 13.9514V15.4482C254.121 15.8616 254.456 16.1966 254.87 16.1966H255.618C256.031 16.1966 256.366 15.8616 256.366 15.4482V13.9514Z" fill="black"/>
<path d="M95.3125 61V50.3359H92.7422V54.5547H88.8125V50.3359H86.2422V61H88.8125V56.6328H92.7422V61H95.3125ZM104.25 55.0312V56.3125C104.25 56.9271 104.159 57.4427 103.977 57.8594C103.799 58.276 103.552 58.5885 103.234 58.7969C102.917 59.0052 102.547 59.1094 102.125 59.1094C101.698 59.1094 101.326 59.0052 101.008 58.7969C100.69 58.5885 100.44 58.276 100.258 57.8594C100.081 57.4427 99.9922 56.9271 99.9922 56.3125V55.0312C99.9922 54.4115 100.081 53.8958 100.258 53.4844C100.44 53.0677 100.69 52.7552 101.008 52.5469C101.326 52.3385 101.698 52.2344 102.125 52.2344C102.547 52.2344 102.917 52.3385 103.234 52.5469C103.552 52.7552 103.799 53.0677 103.977 53.4844C104.159 53.8958 104.25 54.4115 104.25 55.0312ZM106.867 56.3047V55.0625C106.867 54.0521 106.68 53.1823 106.305 52.4531C105.935 51.7188 105.396 51.151 104.688 50.75C103.984 50.349 103.13 50.1484 102.125 50.1484C101.125 50.1484 100.268 50.3464 99.5547 50.7422C98.8464 51.138 98.3047 51.7057 97.9297 52.4453C97.5599 53.1797 97.375 54.0521 97.375 55.0625V56.3047C97.375 57.2995 97.5599 58.1641 97.9297 58.8984C98.3047 59.6328 98.8464 60.2005 99.5547 60.6016C100.268 60.9974 101.125 61.1953 102.125 61.1953C103.13 61.1953 103.984 60.9974 104.688 60.6016C105.396 60.2005 105.935 59.6328 106.305 58.8984C106.68 58.1641 106.867 57.2995 106.867 56.3047ZM112.828 61L114.648 54.1719H114.742L116.555 61H118.945L121.68 50.3359H118.969L117.617 57.5859H117.492L115.742 50.3359H113.648L111.906 57.5859H111.781L110.414 50.3359H107.703L110.445 61H112.828ZM133.109 55.0312V56.3125C133.109 56.9271 133.018 57.4427 132.836 57.8594C132.659 58.276 132.411 58.5885 132.094 58.7969C131.776 59.0052 131.406 59.1094 130.984 59.1094C130.557 59.1094 130.185 59.0052 129.867 58.7969C129.549 58.5885 129.299 58.276 129.117 57.8594C128.94 57.4427 128.852 56.9271 128.852 56.3125V55.0312C128.852 54.4115 128.94 53.8958 129.117 53.4844C129.299 53.0677 129.549 52.7552 129.867 52.5469C130.185 52.3385 130.557 52.2344 130.984 52.2344C131.406 52.2344 131.776 52.3385 132.094 52.5469C132.411 52.7552 132.659 53.0677 132.836 53.4844C133.018 53.8958 133.109 54.4115 133.109 55.0312ZM135.727 56.3047V55.0625C135.727 54.0521 135.539 53.1823 135.164 52.4531C134.794 51.7188 134.255 51.151 133.547 50.75C132.844 50.349 131.99 50.1484 130.984 50.1484C129.984 50.1484 129.128 50.3464 128.414 50.7422C127.706 51.138 127.164 51.7057 126.789 52.4453C126.419 53.1797 126.234 54.0521 126.234 55.0625V56.3047C126.234 57.2995 126.419 58.1641 126.789 58.8984C127.164 59.6328 127.706 60.2005 128.414 60.6016C129.128 60.9974 129.984 61.1953 130.984 61.1953C131.99 61.1953 132.844 60.9974 133.547 60.6016C134.255 60.2005 134.794 59.6328 135.164 58.8984C135.539 58.1641 135.727 57.2995 135.727 56.3047ZM144.641 58.8594H140.359V50.3359H137.789V61H144.641V58.8594ZM146.336 50.3359V61H150.516C151.615 61 152.518 60.7839 153.227 60.3516C153.94 59.9193 154.469 59.2995 154.812 58.4922C155.161 57.6849 155.336 56.7292 155.336 55.625C155.336 54.526 155.164 53.5833 154.82 52.7969C154.482 52.0052 153.956 51.3984 153.242 50.9766C152.534 50.5495 151.625 50.3359 150.516 50.3359H146.336ZM148.906 52.3672H150.109C150.714 52.3672 151.206 52.4922 151.586 52.7422C151.971 52.987 152.253 53.3568 152.43 53.8516C152.612 54.3464 152.703 54.9583 152.703 55.6875C152.703 56.2344 152.651 56.7135 152.547 57.125C152.448 57.5365 152.294 57.8776 152.086 58.1484C151.878 58.4193 151.609 58.6224 151.281 58.7578C150.953 58.8932 150.562 58.9609 150.109 58.9609H148.906V52.3672ZM162.398 61L163.094 58.5391H166.398L167.094 61H169.82L166.398 50.3359H163.273L159.836 61H162.398ZM164.82 52.6328L165.938 56.6875H163.57L164.703 52.6328H164.82ZM175.844 50.3359H171.336V61H173.859V57.1875H175.336L177.141 61H179.984L177.859 56.8281C178.135 56.7135 178.419 56.526 178.711 56.2656C179.008 56.0052 179.258 55.6719 179.461 55.2656C179.664 54.8542 179.766 54.375 179.766 53.8281C179.766 53.125 179.615 52.513 179.312 51.9922C179.01 51.4661 178.568 51.0599 177.984 50.7734C177.401 50.4818 176.688 50.3359 175.844 50.3359ZM173.859 55.3672V52.2578H175.461C175.935 52.2578 176.331 52.3932 176.648 52.6641C176.966 52.9349 177.125 53.3281 177.125 53.8438C177.125 54.3542 176.969 54.737 176.656 54.9922C176.344 55.2422 175.938 55.3672 175.438 55.3672H173.859ZM188.953 58.9609H184.344V56.5703H188.672V54.6953H184.344V52.375H188.953V50.3359H181.805V61H188.953V58.9609ZM199.562 61V57.2109L203.133 50.3359H200.414L198.367 54.7344H198.266L196.234 50.3359H193.422L196.992 57.2734V61H199.562ZM210.5 55.0312V56.3125C210.5 56.9271 210.409 57.4427 210.227 57.8594C210.049 58.276 209.802 58.5885 209.484 58.7969C209.167 59.0052 208.797 59.1094 208.375 59.1094C207.948 59.1094 207.576 59.0052 207.258 58.7969C206.94 58.5885 206.69 58.276 206.508 57.8594C206.331 57.4427 206.242 56.9271 206.242 56.3125V55.0312C206.242 54.4115 206.331 53.8958 206.508 53.4844C206.69 53.0677 206.94 52.7552 207.258 52.5469C207.576 52.3385 207.948 52.2344 208.375 52.2344C208.797 52.2344 209.167 52.3385 209.484 52.5469C209.802 52.7552 210.049 53.0677 210.227 53.4844C210.409 53.8958 210.5 54.4115 210.5 55.0312ZM213.117 56.3047V55.0625C213.117 54.0521 212.93 53.1823 212.555 52.4531C212.185 51.7188 211.646 51.151 210.938 50.75C210.234 50.349 209.38 50.1484 208.375 50.1484C207.375 50.1484 206.518 50.3464 205.805 50.7422C205.096 51.138 204.555 51.7057 204.18 52.4453C203.81 53.1797 203.625 54.0521 203.625 55.0625V56.3047C203.625 57.2995 203.81 58.1641 204.18 58.8984C204.555 59.6328 205.096 60.2005 205.805 60.6016C206.518 60.9974 207.375 61.1953 208.375 61.1953C209.38 61.1953 210.234 60.9974 210.938 60.6016C211.646 60.2005 212.185 59.6328 212.555 58.8984C212.93 58.1641 213.117 57.2995 213.117 56.3047ZM219.523 59.0547C218.961 59.0547 218.503 58.8854 218.148 58.5469C217.799 58.2083 217.625 57.6979 217.625 57.0156V50.3359H215.062V57.3125C215.062 58.0938 215.242 58.776 215.602 59.3594C215.966 59.9427 216.482 60.3958 217.148 60.7188C217.82 61.0365 218.612 61.1953 219.523 61.1953C220.44 61.1953 221.232 61.0365 221.898 60.7188C222.565 60.3958 223.081 59.9427 223.445 59.3594C223.81 58.776 223.992 58.0938 223.992 57.3125V50.3359H221.43V57.0156C221.43 57.6875 221.253 58.1953 220.898 58.5391C220.544 58.8828 220.086 59.0547 219.523 59.0547ZM227.445 59.8828C227.445 60.263 227.583 60.5729 227.859 60.8125C228.135 61.0469 228.508 61.1641 228.977 61.1641C229.456 61.1641 229.833 61.0469 230.109 60.8125C230.391 60.5729 230.531 60.263 230.531 59.8828C230.531 59.4922 230.391 59.1797 230.109 58.9453C229.833 58.7057 229.456 58.5859 228.977 58.5859C228.508 58.5859 228.135 58.7057 227.859 58.9453C227.583 59.1797 227.445 59.4922 227.445 59.8828ZM225.555 53.3906H227.828C227.828 53.2031 227.857 53.0312 227.914 52.875C227.971 52.7135 228.052 52.5729 228.156 52.4531C228.266 52.3281 228.398 52.2344 228.555 52.1719C228.711 52.1042 228.893 52.0703 229.102 52.0703C229.315 52.0703 229.516 52.1094 229.703 52.1875C229.896 52.2656 230.049 52.388 230.164 52.5547C230.284 52.7214 230.344 52.9375 230.344 53.2031C230.344 53.5469 230.234 53.8229 230.016 54.0312C229.797 54.2344 229.503 54.4557 229.133 54.6953C228.82 54.8932 228.557 55.1198 228.344 55.375C228.13 55.625 227.977 55.9089 227.883 56.2266C227.789 56.5391 227.76 56.8958 227.797 57.2969L227.812 57.6562H230.008V57.2812C230.008 57 230.049 56.7734 230.133 56.6016C230.221 56.4297 230.359 56.2682 230.547 56.1172C230.74 55.9661 230.987 55.7891 231.289 55.5859C231.544 55.4089 231.792 55.2161 232.031 55.0078C232.276 54.7995 232.477 54.5417 232.633 54.2344C232.789 53.9271 232.867 53.5417 232.867 53.0781C232.867 52.4219 232.701 51.8776 232.367 51.4453C232.039 51.0078 231.599 50.6823 231.047 50.4688C230.5 50.25 229.901 50.1406 229.25 50.1406C228.771 50.1406 228.305 50.2031 227.852 50.3281C227.398 50.4479 226.995 50.638 226.641 50.8984C226.286 51.1536 226.01 51.487 225.812 51.8984C225.62 52.3099 225.534 52.8073 225.555 53.3906Z" fill="#2F2F2F"/>
<path d="M143.688 108.922H146.047C146.786 108.922 147.406 109.047 147.906 109.297C148.417 109.536 148.802 109.865 149.062 110.281C149.323 110.698 149.453 111.167 149.453 111.688C149.464 112.219 149.333 112.698 149.062 113.125C148.792 113.542 148.406 113.875 147.906 114.125C147.406 114.375 146.807 114.5 146.109 114.5C145.443 114.5 144.854 114.385 144.344 114.156C143.844 113.917 143.443 113.594 143.141 113.188C142.839 112.781 142.672 112.323 142.641 111.812H137.938C137.958 112.979 138.255 114.062 138.828 115.062C139.411 116.062 140.292 116.87 141.469 117.484C142.656 118.089 144.161 118.391 145.984 118.391C147.13 118.391 148.219 118.245 149.25 117.953C150.281 117.661 151.193 117.24 151.984 116.688C152.786 116.135 153.417 115.464 153.875 114.672C154.333 113.88 154.562 112.99 154.562 112C154.552 110.865 154.318 109.932 153.859 109.203C153.401 108.464 152.828 107.901 152.141 107.516C151.453 107.13 150.766 106.917 150.078 106.875V106.656C150.62 106.583 151.188 106.365 151.781 106C152.385 105.635 152.896 105.115 153.312 104.438C153.729 103.75 153.932 102.901 153.922 101.891C153.911 100.786 153.562 99.8125 152.875 98.9688C152.198 98.125 151.281 97.4688 150.125 97C148.969 96.5312 147.656 96.2969 146.188 96.2969C144.948 96.2969 143.844 96.4583 142.875 96.7812C141.906 97.0938 141.083 97.5365 140.406 98.1094C139.729 98.6823 139.208 99.3646 138.844 100.156C138.479 100.948 138.281 101.818 138.25 102.766H143.016C143.026 102.443 143.099 102.125 143.234 101.812C143.37 101.5 143.562 101.219 143.812 100.969C144.062 100.708 144.37 100.5 144.734 100.344C145.099 100.188 145.516 100.109 145.984 100.109C146.849 100.109 147.552 100.344 148.094 100.812C148.646 101.271 148.922 101.849 148.922 102.547C148.922 103.047 148.802 103.495 148.562 103.891C148.323 104.276 147.979 104.578 147.531 104.797C147.083 105.016 146.557 105.125 145.953 105.125H143.688V108.922ZM156.953 112.422C156.984 113.089 157.156 113.771 157.469 114.469C157.792 115.167 158.26 115.812 158.875 116.406C159.5 117 160.271 117.479 161.188 117.844C162.115 118.198 163.198 118.375 164.438 118.375C166.292 118.375 167.865 117.922 169.156 117.016C170.448 116.109 171.432 114.818 172.109 113.141C172.786 111.453 173.125 109.464 173.125 107.172C173.125 105.37 172.927 103.792 172.531 102.438C172.146 101.083 171.578 99.9531 170.828 99.0469C170.089 98.1302 169.188 97.4427 168.125 96.9844C167.062 96.526 165.859 96.2969 164.516 96.2969C163.099 96.2969 161.792 96.5833 160.594 97.1562C159.396 97.7292 158.432 98.5729 157.703 99.6875C156.974 100.792 156.609 102.151 156.609 103.766C156.609 105.266 156.911 106.531 157.516 107.562C158.13 108.583 158.938 109.359 159.938 109.891C160.938 110.411 162.016 110.672 163.172 110.672C164.161 110.672 164.995 110.521 165.672 110.219C166.349 109.906 166.885 109.521 167.281 109.062C167.677 108.594 167.943 108.125 168.078 107.656H168.344C168.375 108.49 168.333 109.312 168.219 110.125C168.104 110.927 167.896 111.656 167.594 112.312C167.292 112.969 166.885 113.495 166.375 113.891C165.875 114.276 165.255 114.469 164.516 114.469C163.995 114.469 163.531 114.38 163.125 114.203C162.719 114.016 162.385 113.766 162.125 113.453C161.875 113.141 161.719 112.797 161.656 112.422H156.953ZM167.797 103.641C167.797 104.286 167.656 104.865 167.375 105.375C167.094 105.875 166.708 106.276 166.219 106.578C165.74 106.87 165.193 107.016 164.578 107.016C163.995 107.016 163.464 106.88 162.984 106.609C162.505 106.339 162.13 105.948 161.859 105.438C161.589 104.927 161.453 104.318 161.453 103.609C161.453 102.891 161.594 102.281 161.875 101.781C162.167 101.271 162.552 100.88 163.031 100.609C163.51 100.339 164.042 100.203 164.625 100.203C165.24 100.203 165.781 100.344 166.25 100.625C166.729 100.896 167.104 101.286 167.375 101.797C167.656 102.307 167.797 102.922 167.797 103.641Z" fill="#2F2F2F"/>
<path d="M133.185 123.774H131.578L129.835 129.619H129.773L128.051 123.774H126.369L128.946 131.055L128.885 131.287C128.798 131.665 128.646 131.937 128.427 132.101C128.208 132.269 127.896 132.354 127.49 132.354C127.404 132.354 127.303 132.349 127.189 132.34C127.076 132.331 126.991 132.322 126.937 132.312V133.468C127.032 133.486 127.16 133.502 127.319 133.516C127.483 133.529 127.632 133.536 127.764 133.536C128.465 133.536 129.033 133.365 129.466 133.023C129.903 132.682 130.27 132.112 130.566 131.314L130.724 130.904C130.883 130.453 131.056 129.959 131.243 129.421C131.435 128.883 131.635 128.311 131.845 127.705C132.054 127.099 132.271 126.468 132.494 125.812C132.722 125.151 132.952 124.472 133.185 123.774ZM137.525 131.123C138.013 131.123 138.435 131.057 138.79 130.925C139.15 130.793 139.446 130.624 139.679 130.419C139.916 130.209 140.096 129.986 140.219 129.749C140.346 129.512 140.422 129.289 140.444 129.079H138.961C138.924 129.229 138.842 129.368 138.715 129.496C138.592 129.619 138.428 129.719 138.223 129.797C138.018 129.87 137.783 129.906 137.519 129.906C136.985 129.906 136.571 129.735 136.274 129.394C135.983 129.047 135.837 128.617 135.837 128.102V127.746H140.526V126.898C140.526 126.233 140.394 125.659 140.13 125.176C139.866 124.693 139.501 124.319 139.036 124.055C138.576 123.786 138.043 123.651 137.437 123.651C136.849 123.651 136.32 123.781 135.851 124.041C135.386 124.296 135.017 124.665 134.743 125.148C134.47 125.632 134.333 126.215 134.333 126.898V127.876C134.333 128.555 134.463 129.138 134.723 129.626C134.982 130.109 135.352 130.48 135.83 130.74C136.309 130.995 136.874 131.123 137.525 131.123ZM135.837 126.755C135.837 126.741 135.837 126.728 135.837 126.714C135.837 126.696 135.837 126.677 135.837 126.659C135.837 126.295 135.903 125.978 136.035 125.709C136.167 125.436 136.354 125.224 136.596 125.073C136.837 124.923 137.12 124.848 137.443 124.848C137.767 124.848 138.047 124.923 138.284 125.073C138.526 125.224 138.713 125.436 138.845 125.709C138.977 125.978 139.043 126.295 139.043 126.659C139.043 126.677 139.043 126.696 139.043 126.714C139.043 126.728 139.043 126.741 139.043 126.755H135.837ZM144.416 131.109C144.776 131.109 145.086 131.062 145.346 130.966C145.61 130.866 145.831 130.736 146.009 130.576C146.187 130.417 146.328 130.246 146.433 130.063H146.501V131H147.943V126.105C147.943 125.504 147.816 125.025 147.561 124.67C147.305 124.314 146.964 124.059 146.535 123.904C146.107 123.745 145.635 123.665 145.12 123.665C144.669 123.665 144.272 123.713 143.931 123.809C143.593 123.904 143.309 124.043 143.076 124.226C142.848 124.403 142.671 124.618 142.543 124.868C142.42 125.114 142.347 125.388 142.324 125.688H143.767C143.808 125.524 143.878 125.383 143.979 125.265C144.079 125.142 144.218 125.046 144.396 124.978C144.573 124.905 144.799 124.868 145.072 124.868C145.487 124.868 145.817 124.968 146.063 125.169C146.31 125.365 146.433 125.67 146.433 126.085V126.762H144.607C143.773 126.762 143.138 126.96 142.7 127.356C142.267 127.748 142.051 128.263 142.051 128.901C142.051 129.576 142.27 130.114 142.707 130.515C143.149 130.911 143.719 131.109 144.416 131.109ZM144.881 129.934C144.544 129.934 144.241 129.845 143.972 129.667C143.707 129.485 143.575 129.204 143.575 128.826C143.575 128.521 143.675 128.27 143.876 128.074C144.081 127.878 144.405 127.78 144.847 127.78H146.433V128.56C146.433 128.824 146.362 129.059 146.221 129.264C146.084 129.469 145.899 129.633 145.667 129.756C145.435 129.874 145.173 129.934 144.881 129.934ZM150.288 131H151.826V126.7C151.826 126.377 151.892 126.087 152.024 125.832C152.157 125.572 152.357 125.369 152.626 125.224C152.895 125.073 153.232 124.998 153.638 124.998C153.765 124.998 153.888 125.003 154.007 125.012C154.125 125.021 154.219 125.035 154.287 125.053V123.713C154.214 123.699 154.134 123.69 154.048 123.686C153.966 123.676 153.875 123.672 153.774 123.672C153.373 123.672 153.043 123.743 152.783 123.884C152.523 124.021 152.321 124.185 152.175 124.376C152.034 124.563 151.936 124.738 151.881 124.902H151.799V123.774H150.288V131ZM155.49 125.88C155.49 126.349 155.597 126.718 155.812 126.987C156.026 127.252 156.315 127.454 156.68 127.596C157.044 127.732 157.445 127.846 157.883 127.938C158.206 127.997 158.505 128.061 158.778 128.129C159.052 128.197 159.271 128.298 159.435 128.43C159.599 128.557 159.681 128.746 159.681 128.997C159.681 129.184 159.631 129.355 159.53 129.51C159.435 129.665 159.28 129.788 159.065 129.879C158.856 129.97 158.582 130.016 158.245 130.016C157.94 130.016 157.687 129.977 157.486 129.899C157.286 129.822 157.133 129.71 157.028 129.564C156.924 129.419 156.857 129.25 156.83 129.059H155.354C155.354 129.487 155.467 129.856 155.695 130.166C155.928 130.471 156.256 130.708 156.68 130.877C157.104 131.041 157.6 131.123 158.17 131.123C158.781 131.123 159.309 131.034 159.756 130.856C160.207 130.674 160.553 130.412 160.795 130.07C161.036 129.724 161.157 129.307 161.157 128.819C161.157 128.364 161.052 128.001 160.843 127.732C160.633 127.464 160.348 127.258 159.988 127.117C159.628 126.976 159.223 126.867 158.771 126.789C158.571 126.757 158.364 126.721 158.149 126.68C157.935 126.639 157.737 126.584 157.555 126.516C157.377 126.447 157.231 126.352 157.117 126.229C157.003 126.105 156.946 125.944 156.946 125.743C156.946 125.433 157.065 125.192 157.302 125.019C157.543 124.845 157.858 124.759 158.245 124.759C158.541 124.759 158.785 124.807 158.977 124.902C159.168 124.998 159.314 125.119 159.414 125.265C159.519 125.41 159.578 125.563 159.592 125.723H160.959C160.959 125.294 160.845 124.927 160.617 124.622C160.394 124.312 160.082 124.073 159.681 123.904C159.284 123.736 158.819 123.651 158.286 123.651C157.799 123.651 157.34 123.729 156.912 123.884C156.488 124.034 156.144 124.273 155.88 124.602C155.62 124.925 155.49 125.351 155.49 125.88ZM169.066 123.651C168.438 123.651 167.879 123.786 167.392 124.055C166.909 124.324 166.53 124.702 166.257 125.189C165.983 125.677 165.847 126.251 165.847 126.912V127.849C165.847 128.546 165.983 129.138 166.257 129.626C166.53 130.114 166.906 130.485 167.385 130.74C167.868 130.995 168.428 131.123 169.066 131.123C169.695 131.123 170.251 130.995 170.734 130.74C171.217 130.485 171.593 130.114 171.862 129.626C172.136 129.134 172.272 128.539 172.272 127.842V126.905C172.272 126.231 172.136 125.65 171.862 125.162C171.593 124.674 171.217 124.301 170.734 124.041C170.251 123.781 169.695 123.651 169.066 123.651ZM169.073 124.875C169.433 124.875 169.736 124.968 169.982 125.155C170.233 125.338 170.422 125.588 170.55 125.907C170.682 126.222 170.748 126.582 170.748 126.987V127.794C170.748 128.2 170.684 128.562 170.557 128.881C170.434 129.195 170.249 129.444 170.003 129.626C169.757 129.808 169.447 129.899 169.073 129.899C168.7 129.899 168.385 129.808 168.13 129.626C167.879 129.444 167.69 129.195 167.562 128.881C167.439 128.562 167.378 128.2 167.378 127.794V126.987C167.378 126.582 167.444 126.222 167.576 125.907C167.708 125.588 167.9 125.338 168.15 125.155C168.401 124.968 168.709 124.875 169.073 124.875ZM174.275 131H175.793V121.177H174.275V131ZM180.551 123.679C179.999 123.679 179.516 123.804 179.102 124.055C178.687 124.305 178.363 124.661 178.131 125.121C177.903 125.581 177.789 126.131 177.789 126.769V128.006C177.789 128.639 177.901 129.188 178.124 129.653C178.352 130.118 178.671 130.476 179.081 130.727C179.491 130.973 179.974 131.096 180.53 131.096C180.795 131.096 181.043 131.064 181.275 131C181.508 130.941 181.72 130.856 181.911 130.747C182.103 130.638 182.264 130.508 182.396 130.357C182.529 130.202 182.62 130.032 182.67 129.845H182.745V131H184.222V121.177H182.704V124.861H182.629C182.538 124.615 182.392 124.403 182.191 124.226C181.995 124.048 181.758 123.913 181.48 123.822C181.202 123.727 180.893 123.679 180.551 123.679ZM180.975 124.923C181.312 124.923 181.608 125 181.863 125.155C182.123 125.31 182.328 125.527 182.479 125.805C182.629 126.083 182.704 126.409 182.704 126.782V127.876C182.704 128.286 182.633 128.639 182.492 128.936C182.351 129.227 182.153 129.453 181.897 129.612C181.647 129.772 181.351 129.852 181.009 129.852C180.662 129.852 180.364 129.772 180.113 129.612C179.863 129.448 179.669 129.211 179.532 128.901C179.4 128.591 179.334 128.218 179.334 127.78V126.987C179.334 126.55 179.4 126.178 179.532 125.873C179.669 125.563 179.858 125.328 180.1 125.169C180.346 125.005 180.637 124.923 180.975 124.923Z" fill="#757575"/>
<g filter="url(#filter0_d_145_1564)">
<rect width="21" height="21" transform="translate(41 158)" fill="#359D9E"/>
<rect width="21" height="21" transform="translate(65 158)" fill="#359D9E"/>
<rect width="21" height="21" transform="translate(89 158)" fill="#359D9E"/>
<rect width="21" height="21" transform="translate(113 158)" fill="#359D9E"/>
<rect width="21" height="21" transform="translate(137 158)" fill="#359D9E"/>
<rect width="21" height="21" transform="translate(161 158)" fill="#359D9E"/>
<rect width="21" height="21" transform="translate(185 158)" fill="#359D9E"/>
<rect width="21" height="21" transform="translate(209 158)" fill="#359D9E"/>
<rect width="21" height="21" transform="translate(233 158)" fill="#359D9E"/>
<rect width="21" height="21" transform="translate(257 158)" fill="#359D9E"/>
<rect width="21" height="21" transform="translate(41 182)" fill="#359D9E"/>
<rect width="21" height="21" transform="translate(65 182)" fill="#359D9E"/>
<rect width="21" height="21" transform="translate(89 182)" fill="#359D9E"/>
<rect width="21" height="21" transform="translate(113 182)" fill="#359D9E"/>
<rect width="21" height="21" transform="translate(137 182)" fill="#359D9E"/>
<rect width="21" height="21" transform="translate(161 182)" fill="#359D9E"/>
<rect width="21" height="21" transform="translate(185 182)" fill="#359D9E"/>
<rect width="21" height="21" transform="translate(209 182)" fill="#359D9E"/>
<rect width="21" height="21" transform="translate(233 182)" fill="#359D9E"/>
<rect width="21" height="21" transform="translate(257 182)" fill="#359D9E"/>
<rect width="21" height="21" transform="translate(41 206)" fill="#359D9E"/>
<rect width="21" height="21" transform="translate(65 206)" fill="#359D9E"/>
<rect width="21" height="21" transform="translate(89 206)" fill="#359D9E"/>
<rect width="21" height="21" transform="translate(113 206)" fill="#359D9E"/>
<rect width="21" height="21" transform="translate(137 206)" fill="#359D9E"/>
<rect width="21" height="21" transform="translate(161 206)" fill="#359D9E"/>
<rect width="21" height="21" transform="translate(185 206)" fill="#359D9E"/>
<rect width="21" height="21" transform="translate(209 206)" fill="#359D9E"/>
<rect width="21" height="21" transform="translate(233 206)" fill="#359D9E"/>
<rect width="21" height="21" transform="translate(257 206)" fill="#359D9E"/>
<rect width="21" height="21" transform="translate(41 229)" fill="#359D9E"/>
<rect width="21" height="21" transform="translate(65 229)" fill="#359D9E"/>
<rect width="21" height="21" transform="translate(89 229)" fill="#359D9E"/>
<rect width="21" height="21" transform="translate(113 229)" fill="#359D9E"/>
<rect width="21" height="21" transform="translate(137 229)" fill="#359D9E"/>
<rect width="21" height="21" transform="translate(161 229)" fill="#359D9E"/>
<rect width="21" height="21" transform="translate(185 229)" fill="#359D9E"/>
<rect width="21" height="21" transform="translate(209 229)" fill="#359D9E"/>
<rect width="21" height="21" transform="translate(233 229)" fill="#359D9E"/>
<rect width="21" height="21" transform="translate(257 229)" fill="#F3F3F3"/>
<rect width="21" height="21" transform="translate(41 252)" fill="#F3F3F3"/>
<rect width="21" height="21" transform="translate(65 252)" fill="#F3F3F3"/>
<rect width="21" height="21" transform="translate(89 252)" fill="#F3F3F3"/>
<rect width="21" height="21" transform="translate(113 252)" fill="#F3F3F3"/>
<rect width="21" height="21" transform="translate(137 252)" fill="#F3F3F3"/>
<rect width="21" height="21" transform="translate(161 252)" fill="#F3F3F3"/>
<rect width="21" height="21" transform="translate(185 252)" fill="#F3F3F3"/>
<rect width="21" height="21" transform="translate(209 252)" fill="#F3F3F3"/>
<rect width="21" height="21" transform="translate(233 252)" fill="#F3F3F3"/>
<rect width="21" height="21" transform="translate(257 252)" fill="#F3F3F3"/>
<rect width="21" height="21" transform="translate(41 275)" fill="#F3F3F3"/>
<rect width="21" height="21" transform="translate(65 275)" fill="#F3F3F3"/>
<rect width="21" height="21" transform="translate(89 275)" fill="#F3F3F3"/>
<rect width="21" height="21" transform="translate(113 275)" fill="#F3F3F3"/>
<rect width="21" height="21" transform="translate(137 275)" fill="#F3F3F3"/>
<rect width="21" height="21" transform="translate(161 275)" fill="#F3F3F3"/>
<rect width="21" height="21" transform="translate(185 275)" fill="#F3F3F3"/>
<rect width="21" height="21" transform="translate(209 275)" fill="#F3F3F3"/>
<rect width="21" height="21" transform="translate(233 275)" fill="#F3F3F3"/>
<rect width="21" height="21" transform="translate(257 275)" fill="#F3F3F3"/>
<rect width="21" height="21" transform="translate(41 298)" fill="#F3F3F3"/>
<rect width="21" height="21" transform="translate(65 298)" fill="#F3F3F3"/>
<rect width="21" height="21" transform="translate(89 298)" fill="#F3F3F3"/>
<rect width="21" height="21" transform="translate(113 298)" fill="#F3F3F3"/>
<rect width="21" height="21" transform="translate(137 298)" fill="#F3F3F3"/>
<rect width="21" height="21" transform="translate(161 298)" fill="#F3F3F3"/>
<rect width="21" height="21" transform="translate(185 298)" fill="#F3F3F3"/>
<rect width="21" height="21" transform="translate(209 298)" fill="#F3F3F3"/>
<rect width="21" height="21" transform="translate(233 298)" fill="#F3F3F3"/>
<rect width="21" height="21" transform="translate(257 298)" fill="#F3F3F3"/>
<rect width="21" height="21" transform="translate(41 321)" fill="#F3F3F3"/>
<rect width="21" height="21" transform="translate(65 321)" fill="#F3F3F3"/>
<rect width="21" height="21" transform="translate(89 321)" fill="#F3F3F3"/>
<rect width="21" height="21" transform="translate(113 321)" fill="#F3F3F3"/>
<rect width="21" height="21" transform="translate(137 321)" fill="#F3F3F3"/>
<rect width="21" height="21" transform="translate(161 321)" fill="#F3F3F3"/>
<rect width="21" height="21" transform="translate(185 321)" fill="#F3F3F3"/>
<rect width="21" height="21" transform="translate(209 321)" fill="#F3F3F3"/>
<rect width="21" height="21" transform="translate(233 321)" fill="#F3F3F3"/>
<rect width="21" height="21" transform="translate(257 321)" fill="#F3F3F3"/>
<rect width="21" height="21" transform="translate(41 344)" fill="#F3F3F3"/>
<rect width="21" height="21" transform="translate(65 344)" fill="#F3F3F3"/>
<rect width="21" height="21" transform="translate(89 344)" fill="#F3F3F3"/>
<rect width="21" height="21" transform="translate(113 344)" fill="#F3F3F3"/>
<rect width="21" height="21" transform="translate(137 344)" fill="#F3F3F3"/>
<rect width="21" height="21" transform="translate(161 344)" fill="#F3F3F3"/>
<rect width="21" height="21" transform="translate(185 344)" fill="#F3F3F3"/>
<rect width="21" height="21" transform="translate(209 344)" fill="#F3F3F3"/>
<rect width="21" height="21" transform="translate(233 344)" fill="#F3F3F3"/>
<rect width="21" height="21" transform="translate(257 344)" fill="#F3F3F3"/>
<rect width="21" height="21" transform="translate(41 367)" fill="#F3F3F3"/>
<rect width="21" height="21" transform="translate(65 367)" fill="#F3F3F3"/>
<rect width="21" height="21" transform="translate(89 367)" fill="#F3F3F3"/>
<rect width="21" height="21" transform="translate(113 367)" fill="#F3F3F3"/>
<rect width="21" height="21" transform="translate(137 367)" fill="#F3F3F3"/>
<rect width="21" height="21" transform="translate(161 367)" fill="#F3F3F3"/>
<rect width="21" height="21" transform="translate(185 367)" fill="#F3F3F3"/>
<rect width="21" height="21" transform="translate(209 367)" fill="#F3F3F3"/>
<rect width="21" height="21" transform="translate(233 367)" fill="#F3F3F3"/>
<rect width="21" height="21" transform="translate(257 367)" fill="#F3F3F3"/>
</g>
<path d="M117.107 70.002V78H119.709C120.486 78 121.135 77.8477 121.654 77.543C122.178 77.2383 122.57 76.7891 122.832 76.1953C123.098 75.5977 123.23 74.8652 123.23 73.998C123.23 73.127 123.098 72.3945 122.832 71.8008C122.57 71.207 122.178 70.7598 121.654 70.459C121.135 70.1543 120.486 70.002 119.709 70.002H117.107ZM118.186 70.9453H119.633C120.188 70.9453 120.648 71.0586 121.016 71.2852C121.383 71.5117 121.656 71.8516 121.836 72.3047C122.02 72.7578 122.111 73.3242 122.111 74.0039C122.111 74.5156 122.059 74.9609 121.953 75.3398C121.852 75.7188 121.699 76.0352 121.496 76.2891C121.293 76.543 121.035 76.7344 120.723 76.8633C120.41 76.9883 120.047 77.0508 119.633 77.0508H118.186V70.9453ZM125.035 78H126.102V74.1914C126.102 73.9102 126.162 73.6582 126.283 73.4355C126.404 73.2129 126.584 73.0352 126.822 72.9023C127.064 72.7695 127.365 72.7031 127.725 72.7031C127.822 72.7031 127.916 72.707 128.006 72.7148C128.1 72.7188 128.172 72.7266 128.223 72.7383V71.7715C128.16 71.7637 128.096 71.7578 128.029 71.7539C127.967 71.7461 127.902 71.7422 127.836 71.7422C127.477 71.7422 127.182 71.8027 126.951 71.9238C126.721 72.041 126.543 72.1797 126.418 72.3398C126.293 72.5 126.203 72.6484 126.148 72.7852H126.096V71.8359H125.035V78ZM131.293 78.0996C131.598 78.0996 131.863 78.0586 132.09 77.9766C132.316 77.8906 132.508 77.7773 132.664 77.6367C132.824 77.4961 132.955 77.3438 133.057 77.1797H133.104V78H134.123V73.793C134.123 73.2891 134.018 72.8867 133.807 72.5859C133.596 72.2852 133.314 72.0684 132.963 71.9355C132.615 71.8027 132.229 71.7363 131.803 71.7363C131.459 71.7363 131.15 71.7734 130.877 71.8477C130.604 71.918 130.369 72.0234 130.174 72.1641C129.979 72.3008 129.824 72.4707 129.711 72.6738C129.602 72.873 129.535 73.1035 129.512 73.3652H130.537C130.58 73.2207 130.646 73.0938 130.736 72.9844C130.83 72.875 130.959 72.7891 131.123 72.7266C131.291 72.6641 131.506 72.6328 131.768 72.6328C132.162 72.6328 132.475 72.7266 132.705 72.9141C132.939 73.1016 133.057 73.3926 133.057 73.7871V74.3965H131.445C130.738 74.3965 130.199 74.5645 129.828 74.9004C129.461 75.2324 129.277 75.668 129.277 76.207C129.277 76.7773 129.463 77.2363 129.834 77.584C130.209 77.9277 130.695 78.0996 131.293 78.0996ZM131.586 77.209C131.266 77.209 130.98 77.125 130.73 76.957C130.484 76.7891 130.361 76.5273 130.361 76.1719C130.361 75.8945 130.451 75.6641 130.631 75.4805C130.814 75.2969 131.115 75.2051 131.533 75.2051H133.057V75.8906C133.057 76.1445 132.99 76.3711 132.857 76.5703C132.729 76.7656 132.555 76.9219 132.336 77.0391C132.117 77.1523 131.867 77.209 131.586 77.209ZM138.406 79.3652C138.137 79.3652 137.902 79.3281 137.703 79.2539C137.508 79.1836 137.352 79.0879 137.234 78.9668C137.117 78.8457 137.045 78.7129 137.018 78.5684H135.939C135.967 78.8652 136.072 79.1406 136.256 79.3945C136.439 79.6523 136.705 79.8594 137.053 80.0156C137.404 80.1758 137.844 80.2559 138.371 80.2559C138.766 80.2559 139.127 80.209 139.455 80.1152C139.787 80.0215 140.074 79.875 140.316 79.6758C140.559 79.4766 140.746 79.2227 140.879 78.9141C141.016 78.6055 141.084 78.2383 141.084 77.8125V71.8359H140.07V72.7676H140.018C139.951 72.5957 139.836 72.4316 139.672 72.2754C139.508 72.1191 139.303 71.9922 139.057 71.8945C138.814 71.793 138.539 71.7422 138.23 71.7422C137.777 71.7422 137.367 71.8457 137 72.0527C136.633 72.2598 136.342 72.5586 136.127 72.9492C135.912 73.3359 135.805 73.8008 135.805 74.3438V75.2988C135.805 75.8379 135.912 76.3027 136.127 76.6934C136.342 77.0801 136.633 77.377 137 77.584C137.371 77.7871 137.783 77.8887 138.236 77.8887C138.451 77.8887 138.65 77.8633 138.834 77.8125C139.018 77.7617 139.184 77.6934 139.332 77.6074C139.48 77.5176 139.607 77.416 139.713 77.3027C139.822 77.1855 139.906 77.0586 139.965 76.9219H140.023V77.8184C140.023 78.3027 139.889 78.6816 139.619 78.9551C139.354 79.2285 138.949 79.3652 138.406 79.3652ZM138.494 72.6504C138.818 72.6504 139.094 72.7324 139.32 72.8965C139.547 73.0566 139.721 73.2676 139.842 73.5293C139.963 73.791 140.023 74.0723 140.023 74.373V75.3047C140.023 75.5938 139.965 75.8672 139.848 76.125C139.734 76.3828 139.564 76.5938 139.338 76.7578C139.115 76.918 138.838 76.998 138.506 76.998C138.189 76.998 137.906 76.9199 137.656 76.7637C137.41 76.6035 137.217 76.3828 137.076 76.1016C136.939 75.8164 136.871 75.4883 136.871 75.1172V74.5371C136.871 74.1621 136.938 73.834 137.07 73.5527C137.203 73.2676 137.391 73.0469 137.633 72.8906C137.875 72.7305 138.162 72.6504 138.494 72.6504ZM146.316 78H147.377V72.7148H148.795V71.8535H147.365V71.3203C147.365 70.9531 147.447 70.7051 147.611 70.5762C147.775 70.4434 148.039 70.377 148.402 70.377C148.48 70.377 148.58 70.3789 148.701 70.3828C148.822 70.3867 148.906 70.3926 148.953 70.4004V69.5449C148.895 69.5371 148.797 69.5293 148.66 69.5215C148.523 69.5137 148.387 69.5098 148.25 69.5098C147.562 69.5098 147.068 69.6504 146.768 69.9316C146.467 70.209 146.316 70.6445 146.316 71.2383V71.8535H145.279V72.7148H146.316V78ZM152.621 71.7363C152.109 71.7363 151.652 71.8477 151.25 72.0703C150.848 72.293 150.531 72.6074 150.301 73.0137C150.07 73.4199 149.955 73.9023 149.955 74.4609V75.3691C149.955 75.9512 150.068 76.4473 150.295 76.8574C150.525 77.2637 150.84 77.5723 151.238 77.7832C151.641 77.9941 152.102 78.0996 152.621 78.0996C153.133 78.0996 153.588 77.9941 153.986 77.7832C154.389 77.5684 154.705 77.2578 154.936 76.8516C155.166 76.4414 155.281 75.9473 155.281 75.3691V74.4551C155.281 73.8848 155.166 73.3965 154.936 72.9902C154.705 72.5801 154.389 72.2695 153.986 72.0586C153.588 71.8438 153.133 71.7363 152.621 71.7363ZM152.627 72.6387C152.955 72.6387 153.238 72.7207 153.477 72.8848C153.715 73.0449 153.896 73.2676 154.021 73.5527C154.15 73.8379 154.215 74.1699 154.215 74.5488V75.293C154.215 75.6758 154.152 76.0098 154.027 76.2949C153.906 76.5801 153.727 76.8027 153.488 76.9629C153.254 77.123 152.967 77.2031 152.627 77.2031C152.283 77.2031 151.99 77.123 151.748 76.9629C151.51 76.8027 151.328 76.5801 151.203 76.2949C151.078 76.0098 151.016 75.6758 151.016 75.293V74.5488C151.016 74.1738 151.08 73.8438 151.209 73.5586C151.342 73.2695 151.527 73.0449 151.766 72.8848C152.008 72.7207 152.295 72.6387 152.627 72.6387ZM157.156 78H158.223V74.1914C158.223 73.9102 158.283 73.6582 158.404 73.4355C158.525 73.2129 158.705 73.0352 158.943 72.9023C159.186 72.7695 159.486 72.7031 159.846 72.7031C159.943 72.7031 160.037 72.707 160.127 72.7148C160.221 72.7188 160.293 72.7266 160.344 72.7383V71.7715C160.281 71.7637 160.217 71.7578 160.15 71.7539C160.088 71.7461 160.023 71.7422 159.957 71.7422C159.598 71.7422 159.303 71.8027 159.072 71.9238C158.842 72.041 158.664 72.1797 158.539 72.3398C158.414 72.5 158.324 72.6484 158.27 72.7852H158.217V71.8359H157.156V78ZM164.627 78H165.688V71.8359H164.627V78ZM164.404 69.9375C164.404 70.1484 164.475 70.3223 164.615 70.459C164.76 70.5957 164.938 70.6641 165.148 70.6641C165.371 70.6641 165.555 70.5957 165.699 70.459C165.844 70.3223 165.916 70.1484 165.916 69.9375C165.916 69.7227 165.844 69.5469 165.699 69.4102C165.555 69.2734 165.371 69.2051 165.148 69.2051C164.938 69.2051 164.76 69.2734 164.615 69.4102C164.475 69.5469 164.404 69.7227 164.404 69.9375ZM167.926 78H168.986V74.5664C168.986 74.2109 169.045 73.8887 169.162 73.5996C169.279 73.3105 169.457 73.082 169.695 72.9141C169.938 72.7461 170.238 72.6621 170.598 72.6621C170.875 72.6621 171.113 72.7168 171.312 72.8262C171.512 72.9355 171.664 73.0996 171.77 73.3184C171.879 73.5332 171.934 73.8027 171.934 74.127V78H172.994V73.793C172.994 73.1016 172.801 72.5859 172.414 72.2461C172.027 71.9062 171.523 71.7363 170.902 71.7363C170.473 71.7363 170.131 71.8047 169.877 71.9414C169.623 72.0781 169.432 72.2402 169.303 72.4277C169.174 72.6152 169.084 72.791 169.033 72.9551H168.975V71.8359H167.926V78ZM175.051 78H176.111V74.0801C176.111 73.7988 176.168 73.5508 176.281 73.3359C176.395 73.1211 176.551 72.9551 176.75 72.8379C176.953 72.7168 177.184 72.6562 177.441 72.6562C177.715 72.6562 177.947 72.7129 178.139 72.8262C178.334 72.9355 178.484 73.0918 178.59 73.2949C178.695 73.498 178.748 73.7344 178.748 74.0039V78H179.797V74.0918C179.797 73.8105 179.857 73.5625 179.979 73.3477C180.1 73.1328 180.262 72.9648 180.465 72.8438C180.668 72.7188 180.898 72.6562 181.156 72.6562C181.434 72.6562 181.668 72.7109 181.859 72.8203C182.051 72.9297 182.193 73.082 182.287 73.2773C182.385 73.4688 182.434 73.6973 182.434 73.9629V78H183.494V73.6641C183.494 73.0469 183.314 72.5723 182.955 72.2402C182.596 71.9043 182.1 71.7363 181.467 71.7363C181.119 71.7363 180.82 71.791 180.57 71.9004C180.32 72.0098 180.113 72.1543 179.949 72.334C179.789 72.5098 179.668 72.6973 179.586 72.8965H179.539C179.477 72.6777 179.369 72.4805 179.217 72.3047C179.068 72.1289 178.877 71.9902 178.643 71.8887C178.412 71.7871 178.141 71.7363 177.828 71.7363C177.449 71.7363 177.146 71.7969 176.92 71.918C176.693 72.0391 176.521 72.1836 176.404 72.3516C176.287 72.5156 176.205 72.6719 176.158 72.8203H176.1V71.8359H175.051V78ZM188.439 78.0938C188.928 78.0938 189.352 77.9863 189.711 77.7715C190.07 77.5566 190.346 77.252 190.537 76.8574C190.732 76.4629 190.83 75.9922 190.83 75.4453V74.3848C190.83 73.8418 190.734 73.373 190.543 72.9785C190.352 72.584 190.08 72.2793 189.729 72.0645C189.377 71.8496 188.959 71.7422 188.475 71.7422C188.252 71.7422 188.043 71.7676 187.848 71.8184C187.652 71.8652 187.473 71.9355 187.309 72.0293C187.148 72.123 187.01 72.2363 186.893 72.3691C186.779 72.502 186.691 72.6504 186.629 72.8145H186.576V71.8301H185.557V80.0449H186.617V77.0859H186.67C186.768 77.3008 186.9 77.4844 187.068 77.6367C187.236 77.7852 187.436 77.8984 187.666 77.9766C187.9 78.0547 188.158 78.0938 188.439 78.0938ZM188.223 77.1855C187.906 77.1855 187.627 77.1152 187.385 76.9746C187.143 76.834 186.953 76.6387 186.816 76.3887C186.684 76.1348 186.617 75.8438 186.617 75.5156V74.4434C186.617 74.0723 186.68 73.7539 186.805 73.4883C186.934 73.2188 187.115 73.0117 187.35 72.8672C187.588 72.7227 187.869 72.6504 188.193 72.6504C188.529 72.6504 188.814 72.7266 189.049 72.8789C189.283 73.0312 189.461 73.252 189.582 73.541C189.703 73.8301 189.764 74.1816 189.764 74.5957V75.252C189.764 75.6621 189.703 76.0117 189.582 76.3008C189.461 76.5859 189.285 76.8047 189.055 76.957C188.828 77.1094 188.551 77.1855 188.223 77.1855ZM197.633 71.8359H196.572V75.7207C196.572 75.9824 196.502 76.2246 196.361 76.4473C196.225 76.6699 196.037 76.8477 195.799 76.9805C195.561 77.1094 195.289 77.1738 194.984 77.1738C194.738 77.1738 194.514 77.1328 194.311 77.0508C194.111 76.9688 193.949 76.8301 193.824 76.6348C193.703 76.4355 193.643 76.166 193.643 75.8262V71.8359H192.582V76.1133C192.582 76.5898 192.672 76.9746 192.852 77.2676C193.031 77.5566 193.279 77.7676 193.596 77.9004C193.916 78.0332 194.281 78.0996 194.691 78.0996C195.051 78.0996 195.355 78.041 195.605 77.9238C195.859 77.8027 196.061 77.6562 196.209 77.4844C196.361 77.3125 196.467 77.1426 196.525 76.9746H196.584V78H197.633V71.8359ZM200.064 71.8535H199.115V72.7148H200.059V76.2715C200.059 76.6777 200.105 77.0137 200.199 77.2793C200.293 77.541 200.467 77.7363 200.721 77.8652C200.979 77.9902 201.352 78.0527 201.84 78.0527C201.957 78.0527 202.102 78.0469 202.273 78.0352C202.445 78.0234 202.553 78.0117 202.596 78V77.1504C202.549 77.1543 202.475 77.1602 202.373 77.168C202.271 77.1758 202.184 77.1797 202.109 77.1797C201.734 77.1797 201.475 77.1191 201.33 76.998C201.186 76.873 201.113 76.6289 201.113 76.2656V72.7148H202.508V71.8535H201.113V70.3066H200.064V71.8535Z" fill="#757575"/>
<g filter="url(#filter1_d_145_1564)">
<rect x="16" y="443" width="288" height="42" rx="6" fill="url(#paint0_linear_145_1564)" shape-rendering="crispEdges"/>
<path d="M147.221 468.5V461.78H147.282L151.65 468.5H153.011V459.169H151.521V465.868H151.452L147.098 459.169H145.73V468.5H147.221ZM158.24 468.623C158.728 468.623 159.149 468.557 159.505 468.425C159.865 468.293 160.161 468.124 160.394 467.919C160.631 467.709 160.811 467.486 160.934 467.249C161.061 467.012 161.136 466.789 161.159 466.579H159.676C159.639 466.729 159.557 466.868 159.43 466.996C159.307 467.119 159.143 467.219 158.938 467.297C158.732 467.37 158.498 467.406 158.233 467.406C157.7 467.406 157.285 467.235 156.989 466.894C156.698 466.547 156.552 466.117 156.552 465.602V465.246H161.241V464.398C161.241 463.733 161.109 463.159 160.845 462.676C160.58 462.193 160.216 461.819 159.751 461.555C159.291 461.286 158.757 461.151 158.151 461.151C157.563 461.151 157.035 461.281 156.565 461.541C156.101 461.796 155.731 462.165 155.458 462.648C155.185 463.132 155.048 463.715 155.048 464.398V465.376C155.048 466.055 155.178 466.638 155.438 467.126C155.697 467.609 156.066 467.98 156.545 468.24C157.023 468.495 157.589 468.623 158.24 468.623ZM156.552 464.255C156.552 464.241 156.552 464.228 156.552 464.214C156.552 464.196 156.552 464.177 156.552 464.159C156.552 463.795 156.618 463.478 156.75 463.209C156.882 462.936 157.069 462.724 157.311 462.573C157.552 462.423 157.835 462.348 158.158 462.348C158.482 462.348 158.762 462.423 158.999 462.573C159.241 462.724 159.427 462.936 159.56 463.209C159.692 463.478 159.758 463.795 159.758 464.159C159.758 464.177 159.758 464.196 159.758 464.214C159.758 464.228 159.758 464.241 159.758 464.255H156.552ZM167.209 468.5H168.945C168.918 468.445 168.843 468.327 168.72 468.145C168.601 467.962 168.455 467.741 168.282 467.481C168.114 467.222 167.934 466.951 167.742 466.668C167.555 466.381 167.378 466.107 167.209 465.848C167.04 465.588 166.895 465.367 166.771 465.185C166.653 465.002 166.578 464.884 166.546 464.829L168.952 461.274H167.264L165.705 463.831H165.644L164.133 461.274H162.355C162.387 461.329 162.463 461.45 162.581 461.637C162.7 461.819 162.843 462.038 163.012 462.293C163.18 462.548 163.358 462.817 163.545 463.1C163.732 463.382 163.91 463.651 164.078 463.906C164.247 464.161 164.39 464.382 164.509 464.569C164.627 464.752 164.702 464.868 164.734 464.918L162.403 468.5H164.051L165.603 465.937H165.664L167.209 468.5ZM170.976 461.322H169.854V462.512H170.955V466.47C170.955 466.948 171.019 467.342 171.146 467.652C171.274 467.958 171.5 468.183 171.823 468.329C172.151 468.475 172.607 468.548 173.19 468.548C173.364 468.548 173.553 468.539 173.758 468.521C173.967 468.507 174.102 468.495 174.161 468.486V467.324C174.102 467.329 174.013 467.336 173.895 467.345C173.781 467.349 173.671 467.352 173.566 467.352C173.161 467.352 172.874 467.283 172.705 467.146C172.541 467.005 172.459 466.739 172.459 466.347V462.512H174.072V461.322H172.459V459.518H170.976V461.322Z" fill="white"/>
</g>
<g filter="url(#filter2_d_145_1564)">
<path d="M145.23 526.5H148.881C149.528 526.5 150.095 526.397 150.583 526.192C151.071 525.983 151.449 525.682 151.718 525.29C151.991 524.898 152.128 524.426 152.128 523.875C152.128 523.424 152.039 523.036 151.861 522.713C151.684 522.385 151.44 522.127 151.13 521.94C150.825 521.749 150.474 521.631 150.077 521.585V521.517C150.387 521.43 150.658 521.296 150.891 521.113C151.123 520.931 151.303 520.703 151.431 520.43C151.563 520.152 151.629 519.83 151.629 519.466C151.629 518.75 151.385 518.19 150.897 517.784C150.414 517.374 149.765 517.169 148.949 517.169H145.23V526.5ZM146.775 518.399H148.621C149.086 518.399 149.446 518.518 149.701 518.755C149.961 518.987 150.091 519.311 150.091 519.726C150.091 520.031 150.018 520.288 149.872 520.498C149.731 520.703 149.514 520.858 149.223 520.963C148.931 521.063 148.553 521.113 148.088 521.113H146.775V518.399ZM146.775 522.282H148.751C149.134 522.282 149.46 522.344 149.729 522.467C149.997 522.585 150.2 522.761 150.337 522.993C150.478 523.221 150.549 523.497 150.549 523.82C150.549 524.312 150.369 524.677 150.009 524.914C149.653 525.151 149.07 525.27 148.259 525.27H146.775V522.282ZM155.977 526.609C156.337 526.609 156.646 526.562 156.906 526.466C157.171 526.366 157.392 526.236 157.569 526.076C157.747 525.917 157.888 525.746 157.993 525.563H158.062V526.5H159.504V521.605C159.504 521.004 159.376 520.525 159.121 520.17C158.866 519.814 158.524 519.559 158.096 519.404C157.667 519.245 157.196 519.165 156.681 519.165C156.229 519.165 155.833 519.213 155.491 519.309C155.154 519.404 154.869 519.543 154.637 519.726C154.409 519.903 154.231 520.118 154.104 520.368C153.98 520.614 153.908 520.888 153.885 521.188H155.327C155.368 521.024 155.439 520.883 155.539 520.765C155.639 520.642 155.778 520.546 155.956 520.478C156.134 520.405 156.359 520.368 156.633 520.368C157.048 520.368 157.378 520.468 157.624 520.669C157.87 520.865 157.993 521.17 157.993 521.585V522.262H156.168C155.334 522.262 154.698 522.46 154.261 522.856C153.828 523.248 153.611 523.763 153.611 524.401C153.611 525.076 153.83 525.614 154.268 526.015C154.71 526.411 155.279 526.609 155.977 526.609ZM156.441 525.434C156.104 525.434 155.801 525.345 155.532 525.167C155.268 524.985 155.136 524.704 155.136 524.326C155.136 524.021 155.236 523.77 155.437 523.574C155.642 523.378 155.965 523.28 156.407 523.28H157.993V524.06C157.993 524.324 157.923 524.559 157.781 524.764C157.645 524.969 157.46 525.133 157.228 525.256C156.995 525.374 156.733 525.434 156.441 525.434ZM161.411 523.39C161.411 524.055 161.536 524.629 161.787 525.112C162.042 525.595 162.402 525.969 162.867 526.233C163.332 526.493 163.886 526.623 164.528 526.623C165.175 526.623 165.711 526.518 166.135 526.309C166.563 526.094 166.884 525.814 167.099 525.468C167.317 525.117 167.434 524.739 167.447 524.333H166.012C165.975 524.524 165.905 524.7 165.8 524.859C165.7 525.014 165.549 525.137 165.349 525.229C165.153 525.32 164.893 525.365 164.569 525.365C164.059 525.365 163.658 525.188 163.366 524.832C163.079 524.477 162.936 523.996 162.936 523.39V522.378C162.936 521.781 163.075 521.305 163.353 520.949C163.631 520.594 164.034 520.416 164.562 520.416C164.9 520.416 165.166 520.475 165.362 520.594C165.558 520.712 165.702 520.858 165.793 521.031C165.889 521.2 165.948 521.362 165.971 521.517H167.406C167.397 521.102 167.281 520.717 167.058 520.361C166.834 520.001 166.511 519.71 166.087 519.486C165.668 519.263 165.148 519.151 164.528 519.151C163.895 519.151 163.343 519.284 162.874 519.548C162.409 519.812 162.049 520.184 161.794 520.662C161.539 521.136 161.411 521.697 161.411 522.344V523.39ZM170.817 523.916L171.405 523.294L173.668 526.5H175.459L172.54 522.405L175.274 519.274H173.545L170.886 522.405H170.817V516.677H169.307V526.5H170.817V523.916Z" fill="#2F2F2F"/>
<rect x="16.5" y="501.5" width="287" height="41" rx="5.5" stroke="#359D9E" shape-rendering="crispEdges"/>
</g>
<defs>
<filter id="filter0_d_145_1564" x="27" y="144" width="265" height="258" filterUnits="userSpaceOnUse" color-interpolation-filters="sRGB">
<feFlood flood-opacity="0" result="BackgroundImageFix"/>
<feColorMatrix in="SourceAlpha" type="matrix" values="0 0 0 0 0 0 0 0 0 0 0 0 0 0 0 0 0 0 127 0" result="hardAlpha"/>
<feMorphology radius="1" operator="erode" in="SourceAlpha" result="effect1_dropShadow_145_1564"/>
<feOffset/>
<feGaussianBlur stdDeviation="7.5"/>
<feComposite in2="hardAlpha" operator="out"/>
<feColorMatrix type="matrix" values="0 0 0 0 0 0 0 0 0 0 0 0 0 0 0 0 0 0 0.2 0"/>
<feBlend mode="normal" in2="BackgroundImageFix" result="effect1_dropShadow_145_1564"/>
<feBlend mode="normal" in="SourceGraphic" in2="effect1_dropShadow_145_1564" result="shape"/>
</filter>
<filter id="filter1_d_145_1564" x="6" y="433" width="308" height="62" filterUnits="userSpaceOnUse" color-interpolation-filters="sRGB">
<feFlood flood-opacity="0" result="BackgroundImageFix"/>
<feColorMatrix in="SourceAlpha" type="matrix" values="0 0 0 0 0 0 0 0 0 0 0 0 0 0 0 0 0 0 127 0" result="hardAlpha"/>
<feMorphology radius="3" operator="dilate" in="SourceAlpha" result="effect1_dropShadow_145_1564"/>
<feOffset/>
<feGaussianBlur stdDeviation="3.5"/>
<feComposite in2="hardAlpha" operator="out"/>
<feColorMatrix type="matrix" values="0 0 0 0 0 0 0 0 0 0 0 0 0 0 0 0 0 0 0.12 0"/>
<feBlend mode="normal" in2="BackgroundImageFix" result="effect1_dropShadow_145_1564"/>
<feBlend mode="normal" in="SourceGraphic" in2="effect1_dropShadow_145_1564" result="shape"/>
</filter>
<filter id="filter2_d_145_1564" x="6" y="491" width="308" height="62" filterUnits="userSpaceOnUse" color-interpolation-filters="sRGB">
<feFlood flood-opacity="0" result="BackgroundImageFix"/>
<feColorMatrix in="SourceAlpha" type="matrix" values="0 0 0 0 0 0 0 0 0 0 0 0 0 0 0 0 0 0 127 0" result="hardAlpha"/>
<feMorphology radius="3" operator="dilate" in="SourceAlpha" result="effect1_dropShadow_145_1564"/>
<feOffset/>
<feGaussianBlur stdDeviation="3.5"/>
<feComposite in2="hardAlpha" operator="out"/>
<feColorMatrix type="matrix" values="0 0 0 0 0 0 0 0 0 0 0 0 0 0 0 0 0 0 0.12 0"/>
<feBlend mode="normal" in2="BackgroundImageFix" result="effect1_dropShadow_145_1564"/>
<feBlend mode="normal" in="SourceGraphic" in2="effect1_dropShadow_145_1564" result="shape"/>
</filter>
<linearGradient id="paint0_linear_145_1564" x1="85.5" y1="395" x2="176" y2="617.5" gradientUnits="userSpaceOnUse">
<stop stop-color="#215273"/>
<stop offset="1" stop-color="#359D9E"/>
</linearGradient>
</defs>
</svg>
