<svg width="320" height="568" viewBox="0 0 320 568" fill="none" xmlns="http://www.w3.org/2000/svg">
<g clip-path="url(#clip0_119_806)">
<rect width="320" height="568" fill="white"/>
<g opacity="0.15" filter="url(#filter0_d_119_806)">
<circle cx="159.5" cy="262.5" r="143.5" fill="#C7C7C7"/>
</g>
<g opacity="0.15" filter="url(#filter1_d_119_806)">
<circle cx="159.5" cy="262.5" r="126.5" fill="#C7C7C7"/>
</g>
<g opacity="0.15" filter="url(#filter2_d_119_806)">
<circle cx="159.5" cy="262.5" r="100.5" fill="#C7C7C7"/>
</g>
<g filter="url(#filter3_d_119_806)">
<circle cx="159.5" cy="262.5" r="39.5" fill="url(#paint0_radial_119_806)"/>
</g>
<path d="M151.586 263.461H152.781C153.13 263.461 153.427 263.523 153.672 263.648C153.917 263.768 154.104 263.935 154.234 264.148C154.37 264.357 154.438 264.591 154.438 264.852C154.438 265.122 154.367 265.365 154.227 265.578C154.091 265.786 153.896 265.951 153.641 266.07C153.385 266.19 153.089 266.25 152.75 266.25C152.438 266.245 152.156 266.19 151.906 266.086C151.656 265.982 151.456 265.836 151.305 265.648C151.154 265.461 151.073 265.25 151.062 265.016H148.734C148.745 265.583 148.904 266.109 149.211 266.594C149.518 267.078 149.969 267.466 150.562 267.758C151.156 268.049 151.891 268.195 152.766 268.195C153.312 268.195 153.839 268.13 154.344 268C154.849 267.865 155.299 267.664 155.695 267.398C156.091 267.133 156.404 266.799 156.633 266.398C156.862 265.992 156.974 265.526 156.969 265C156.964 264.438 156.841 263.977 156.602 263.617C156.367 263.253 156.076 262.977 155.727 262.789C155.378 262.602 155.034 262.495 154.695 262.469V262.336C154.945 262.299 155.227 262.19 155.539 262.008C155.852 261.82 156.117 261.557 156.336 261.219C156.56 260.88 156.669 260.461 156.664 259.961C156.659 259.409 156.5 258.922 156.188 258.5C155.88 258.073 155.44 257.74 154.867 257.5C154.299 257.26 153.622 257.143 152.836 257.148C152.221 257.148 151.672 257.227 151.188 257.383C150.708 257.534 150.299 257.75 149.961 258.031C149.628 258.307 149.37 258.638 149.188 259.023C149.005 259.404 148.906 259.828 148.891 260.297H151.25C151.255 260.141 151.294 259.99 151.367 259.844C151.44 259.693 151.542 259.56 151.672 259.445C151.802 259.326 151.956 259.232 152.133 259.164C152.315 259.091 152.518 259.055 152.742 259.055C153.148 259.055 153.49 259.169 153.766 259.398C154.047 259.628 154.188 259.927 154.188 260.297C154.188 260.536 154.128 260.753 154.008 260.945C153.888 261.133 153.719 261.284 153.5 261.398C153.281 261.508 153.026 261.562 152.734 261.562H151.586V263.461ZM167.562 266.742C167.323 266.742 167.133 266.633 166.992 266.414C166.857 266.19 166.789 265.891 166.789 265.516C166.789 265.13 166.857 264.831 166.992 264.617C167.133 264.398 167.323 264.289 167.562 264.289C167.807 264.289 167.997 264.396 168.133 264.609C168.268 264.823 168.336 265.125 168.336 265.516C168.336 265.896 168.266 266.195 168.125 266.414C167.99 266.633 167.802 266.742 167.562 266.742ZM167.562 268.25C168.333 268.25 168.953 268 169.422 267.5C169.891 267 170.125 266.341 170.125 265.523C170.125 264.701 169.891 264.039 169.422 263.539C168.953 263.039 168.333 262.789 167.562 262.789C166.797 262.789 166.18 263.039 165.711 263.539C165.242 264.039 165.008 264.701 165.008 265.523C165.008 266.341 165.242 267 165.711 267.5C166.18 268 166.797 268.25 167.562 268.25ZM162.211 268L164.844 262.961L168.586 257.336H166.297L163.5 262.484L159.914 268H162.211ZM160.82 261.039C160.581 261.039 160.391 260.93 160.25 260.711C160.115 260.492 160.047 260.193 160.047 259.812C160.047 259.427 160.115 259.128 160.25 258.914C160.391 258.695 160.581 258.586 160.82 258.586C161.065 258.586 161.255 258.695 161.391 258.914C161.531 259.128 161.602 259.427 161.602 259.812C161.602 260.193 161.531 260.492 161.391 260.711C161.255 260.93 161.065 261.039 160.82 261.039ZM160.82 262.547C161.591 262.547 162.211 262.297 162.68 261.797C163.148 261.297 163.383 260.638 163.383 259.82C163.383 258.997 163.148 258.339 162.68 257.844C162.211 257.344 161.591 257.094 160.82 257.094C160.055 257.094 159.435 257.344 158.961 257.844C158.492 258.344 158.258 259.003 158.258 259.82C158.258 260.638 158.492 261.297 158.961 261.797C159.435 262.297 160.055 262.547 160.82 262.547Z" fill="white"/>
<path d="M64.3438 61L66.1641 54.1719H66.2578L68.0703 61H70.4609L73.1953 50.3359H70.4844L69.1328 57.5859H69.0078L67.2578 50.3359H65.1641L63.4219 57.5859H63.2969L61.9297 50.3359H59.2188L61.9609 61H64.3438ZM83.7344 61V50.3359H81.1641V54.5547H77.2344V50.3359H74.6641V61H77.2344V56.6328H81.1641V61H83.7344ZM87.8203 61L88.5156 58.5391H91.8203L92.5156 61H95.2422L91.8203 50.3359H88.6953L85.2578 61H87.8203ZM90.2422 52.6328L91.3594 56.6875H88.9922L90.125 52.6328H90.2422ZM100.672 61V52.4375H103.578V50.3359H95.2031V52.4375H98.1094V61H100.672ZM106.898 55.2969L107.867 50.3359H105.383L104.867 55.2969H106.898ZM109.367 57.9531C109.383 58.3698 109.474 58.7734 109.641 59.1641C109.807 59.5495 110.062 59.8958 110.406 60.2031C110.75 60.5104 111.19 60.7526 111.727 60.9297C112.263 61.1068 112.906 61.1953 113.656 61.1953C114.615 61.1953 115.417 61.0495 116.062 60.7578C116.714 60.4661 117.206 60.0625 117.539 59.5469C117.872 59.026 118.039 58.4271 118.039 57.75C118.039 57.099 117.909 56.5677 117.648 56.1562C117.388 55.7448 117.036 55.4219 116.594 55.1875C116.156 54.9531 115.664 54.7839 115.117 54.6797L113.57 54.3594C113.122 54.2708 112.771 54.138 112.516 53.9609C112.266 53.7839 112.141 53.5521 112.141 53.2656C112.141 52.9219 112.276 52.638 112.547 52.4141C112.823 52.1849 113.219 52.0703 113.734 52.0703C114.094 52.0703 114.396 52.1276 114.641 52.2422C114.891 52.3568 115.083 52.5052 115.219 52.6875C115.359 52.8698 115.445 53.0677 115.477 53.2812H117.852C117.831 52.7292 117.664 52.2135 117.352 51.7344C117.039 51.2552 116.581 50.8698 115.977 50.5781C115.378 50.2812 114.633 50.1328 113.742 50.1328C112.919 50.1328 112.195 50.2682 111.57 50.5391C110.951 50.8047 110.464 51.1875 110.109 51.6875C109.76 52.1823 109.586 52.7708 109.586 53.4531C109.586 54.0417 109.703 54.5417 109.938 54.9531C110.177 55.3594 110.508 55.6875 110.93 55.9375C111.357 56.1875 111.854 56.3698 112.422 56.4844L113.93 56.8125C114.451 56.9219 114.844 57.0651 115.109 57.2422C115.375 57.4193 115.508 57.6745 115.508 58.0078C115.508 58.2422 115.445 58.4531 115.32 58.6406C115.195 58.8229 115.003 58.9688 114.742 59.0781C114.487 59.1823 114.159 59.2344 113.758 59.2344C113.466 59.2344 113.206 59.2005 112.977 59.1328C112.747 59.0651 112.549 58.974 112.383 58.8594C112.216 58.7396 112.083 58.6016 111.984 58.4453C111.891 58.2891 111.833 58.125 111.812 57.9531H109.367ZM128.438 61V57.2109L132.008 50.3359H129.289L127.242 54.7344H127.141L125.109 50.3359H122.297L125.867 57.2734V61H128.438ZM139.375 55.0312V56.3125C139.375 56.9271 139.284 57.4427 139.102 57.8594C138.924 58.276 138.677 58.5885 138.359 58.7969C138.042 59.0052 137.672 59.1094 137.25 59.1094C136.823 59.1094 136.451 59.0052 136.133 58.7969C135.815 58.5885 135.565 58.276 135.383 57.8594C135.206 57.4427 135.117 56.9271 135.117 56.3125V55.0312C135.117 54.4115 135.206 53.8958 135.383 53.4844C135.565 53.0677 135.815 52.7552 136.133 52.5469C136.451 52.3385 136.823 52.2344 137.25 52.2344C137.672 52.2344 138.042 52.3385 138.359 52.5469C138.677 52.7552 138.924 53.0677 139.102 53.4844C139.284 53.8958 139.375 54.4115 139.375 55.0312ZM141.992 56.3047V55.0625C141.992 54.0521 141.805 53.1823 141.43 52.4531C141.06 51.7188 140.521 51.151 139.812 50.75C139.109 50.349 138.255 50.1484 137.25 50.1484C136.25 50.1484 135.393 50.3464 134.68 50.7422C133.971 51.138 133.43 51.7057 133.055 52.4453C132.685 53.1797 132.5 54.0521 132.5 55.0625V56.3047C132.5 57.2995 132.685 58.1641 133.055 58.8984C133.43 59.6328 133.971 60.2005 134.68 60.6016C135.393 60.9974 136.25 61.1953 137.25 61.1953C138.255 61.1953 139.109 60.9974 139.812 60.6016C140.521 60.2005 141.06 59.6328 141.43 58.8984C141.805 58.1641 141.992 57.2995 141.992 56.3047ZM148.398 59.0547C147.836 59.0547 147.378 58.8854 147.023 58.5469C146.674 58.2083 146.5 57.6979 146.5 57.0156V50.3359H143.938V57.3125C143.938 58.0938 144.117 58.776 144.477 59.3594C144.841 59.9427 145.357 60.3958 146.023 60.7188C146.695 61.0365 147.487 61.1953 148.398 61.1953C149.315 61.1953 150.107 61.0365 150.773 60.7188C151.44 60.3958 151.956 59.9427 152.32 59.3594C152.685 58.776 152.867 58.0938 152.867 57.3125V50.3359H150.305V57.0156C150.305 57.6875 150.128 58.1953 149.773 58.5391C149.419 58.8828 148.961 59.0547 148.398 59.0547ZM159.75 50.3359H155.242V61H157.766V57.1875H159.242L161.047 61H163.891L161.766 56.8281C162.042 56.7135 162.326 56.526 162.617 56.2656C162.914 56.0052 163.164 55.6719 163.367 55.2656C163.57 54.8542 163.672 54.375 163.672 53.8281C163.672 53.125 163.521 52.513 163.219 51.9922C162.917 51.4661 162.474 51.0599 161.891 50.7734C161.307 50.4818 160.594 50.3359 159.75 50.3359ZM157.766 55.3672V52.2578H159.367C159.841 52.2578 160.237 52.3932 160.555 52.6641C160.872 52.9349 161.031 53.3281 161.031 53.8438C161.031 54.3542 160.875 54.737 160.562 54.9922C160.25 55.2422 159.844 55.3672 159.344 55.3672H157.766ZM176.078 58.8594H171.797V50.3359H169.227V61H176.078V58.8594ZM183.953 55.0312V56.3125C183.953 56.9271 183.862 57.4427 183.68 57.8594C183.503 58.276 183.255 58.5885 182.938 58.7969C182.62 59.0052 182.25 59.1094 181.828 59.1094C181.401 59.1094 181.029 59.0052 180.711 58.7969C180.393 58.5885 180.143 58.276 179.961 57.8594C179.784 57.4427 179.695 56.9271 179.695 56.3125V55.0312C179.695 54.4115 179.784 53.8958 179.961 53.4844C180.143 53.0677 180.393 52.7552 180.711 52.5469C181.029 52.3385 181.401 52.2344 181.828 52.2344C182.25 52.2344 182.62 52.3385 182.938 52.5469C183.255 52.7552 183.503 53.0677 183.68 53.4844C183.862 53.8958 183.953 54.4115 183.953 55.0312ZM186.57 56.3047V55.0625C186.57 54.0521 186.383 53.1823 186.008 52.4531C185.638 51.7188 185.099 51.151 184.391 50.75C183.688 50.349 182.833 50.1484 181.828 50.1484C180.828 50.1484 179.971 50.3464 179.258 50.7422C178.549 51.138 178.008 51.7057 177.633 52.4453C177.263 53.1797 177.078 54.0521 177.078 55.0625V56.3047C177.078 57.2995 177.263 58.1641 177.633 58.8984C178.008 59.6328 178.549 60.2005 179.258 60.6016C179.971 60.9974 180.828 61.1953 181.828 61.1953C182.833 61.1953 183.688 60.9974 184.391 60.6016C185.099 60.2005 185.638 59.6328 186.008 58.8984C186.383 58.1641 186.57 57.2995 186.57 56.3047ZM188.055 57.9531C188.07 58.3698 188.161 58.7734 188.328 59.1641C188.495 59.5495 188.75 59.8958 189.094 60.2031C189.438 60.5104 189.878 60.7526 190.414 60.9297C190.951 61.1068 191.594 61.1953 192.344 61.1953C193.302 61.1953 194.104 61.0495 194.75 60.7578C195.401 60.4661 195.893 60.0625 196.227 59.5469C196.56 59.026 196.727 58.4271 196.727 57.75C196.727 57.099 196.596 56.5677 196.336 56.1562C196.076 55.7448 195.724 55.4219 195.281 55.1875C194.844 54.9531 194.352 54.7839 193.805 54.6797L192.258 54.3594C191.81 54.2708 191.458 54.138 191.203 53.9609C190.953 53.7839 190.828 53.5521 190.828 53.2656C190.828 52.9219 190.964 52.638 191.234 52.4141C191.51 52.1849 191.906 52.0703 192.422 52.0703C192.781 52.0703 193.083 52.1276 193.328 52.2422C193.578 52.3568 193.771 52.5052 193.906 52.6875C194.047 52.8698 194.133 53.0677 194.164 53.2812H196.539C196.518 52.7292 196.352 52.2135 196.039 51.7344C195.727 51.2552 195.268 50.8698 194.664 50.5781C194.065 50.2812 193.32 50.1328 192.43 50.1328C191.607 50.1328 190.883 50.2682 190.258 50.5391C189.638 50.8047 189.151 51.1875 188.797 51.6875C188.448 52.1823 188.273 52.7708 188.273 53.4531C188.273 54.0417 188.391 54.5417 188.625 54.9531C188.865 55.3594 189.195 55.6875 189.617 55.9375C190.044 56.1875 190.542 56.3698 191.109 56.4844L192.617 56.8125C193.138 56.9219 193.531 57.0651 193.797 57.2422C194.062 57.4193 194.195 57.6745 194.195 58.0078C194.195 58.2422 194.133 58.4531 194.008 58.6406C193.883 58.8229 193.69 58.9688 193.43 59.0781C193.174 59.1823 192.846 59.2344 192.445 59.2344C192.154 59.2344 191.893 59.2005 191.664 59.1328C191.435 59.0651 191.237 58.974 191.07 58.8594C190.904 58.7396 190.771 58.6016 190.672 58.4453C190.578 58.2891 190.521 58.125 190.5 57.9531H188.055ZM198.133 57.9531C198.148 58.3698 198.24 58.7734 198.406 59.1641C198.573 59.5495 198.828 59.8958 199.172 60.2031C199.516 60.5104 199.956 60.7526 200.492 60.9297C201.029 61.1068 201.672 61.1953 202.422 61.1953C203.38 61.1953 204.182 61.0495 204.828 60.7578C205.479 60.4661 205.971 60.0625 206.305 59.5469C206.638 59.026 206.805 58.4271 206.805 57.75C206.805 57.099 206.674 56.5677 206.414 56.1562C206.154 55.7448 205.802 55.4219 205.359 55.1875C204.922 54.9531 204.43 54.7839 203.883 54.6797L202.336 54.3594C201.888 54.2708 201.536 54.138 201.281 53.9609C201.031 53.7839 200.906 53.5521 200.906 53.2656C200.906 52.9219 201.042 52.638 201.312 52.4141C201.589 52.1849 201.984 52.0703 202.5 52.0703C202.859 52.0703 203.161 52.1276 203.406 52.2422C203.656 52.3568 203.849 52.5052 203.984 52.6875C204.125 52.8698 204.211 53.0677 204.242 53.2812H206.617C206.596 52.7292 206.43 52.2135 206.117 51.7344C205.805 51.2552 205.346 50.8698 204.742 50.5781C204.143 50.2812 203.398 50.1328 202.508 50.1328C201.685 50.1328 200.961 50.2682 200.336 50.5391C199.716 50.8047 199.229 51.1875 198.875 51.6875C198.526 52.1823 198.352 52.7708 198.352 53.4531C198.352 54.0417 198.469 54.5417 198.703 54.9531C198.943 55.3594 199.273 55.6875 199.695 55.9375C200.122 56.1875 200.62 56.3698 201.188 56.4844L202.695 56.8125C203.216 56.9219 203.609 57.0651 203.875 57.2422C204.141 57.4193 204.273 57.6745 204.273 58.0078C204.273 58.2422 204.211 58.4531 204.086 58.6406C203.961 58.8229 203.768 58.9688 203.508 59.0781C203.253 59.1823 202.924 59.2344 202.523 59.2344C202.232 59.2344 201.971 59.2005 201.742 59.1328C201.513 59.0651 201.315 58.974 201.148 58.8594C200.982 58.7396 200.849 58.6016 200.75 58.4453C200.656 58.2891 200.599 58.125 200.578 57.9531H198.133ZM219.156 58.8594H214.875V50.3359H212.305V61H219.156V58.8594ZM223.422 61V50.3359H220.852V61H223.422ZM228.195 61V54.3516H228.312L230.578 59.3984H232.086L234.328 54.3516H234.453V61H236.766V50.3359H234.133L231.391 56.4141H231.305L228.562 50.3359H225.914V61H228.195ZM241.828 61V50.3359H239.258V61H241.828ZM248.828 61V52.4375H251.734V50.3359H243.359V52.4375H246.266V61H248.828ZM254.445 59.8828C254.445 60.263 254.583 60.5729 254.859 60.8125C255.135 61.0469 255.508 61.1641 255.977 61.1641C256.456 61.1641 256.833 61.0469 257.109 60.8125C257.391 60.5729 257.531 60.263 257.531 59.8828C257.531 59.4922 257.391 59.1797 257.109 58.9453C256.833 58.7057 256.456 58.5859 255.977 58.5859C255.508 58.5859 255.135 58.7057 254.859 58.9453C254.583 59.1797 254.445 59.4922 254.445 59.8828ZM252.555 53.3906H254.828C254.828 53.2031 254.857 53.0312 254.914 52.875C254.971 52.7135 255.052 52.5729 255.156 52.4531C255.266 52.3281 255.398 52.2344 255.555 52.1719C255.711 52.1042 255.893 52.0703 256.102 52.0703C256.315 52.0703 256.516 52.1094 256.703 52.1875C256.896 52.2656 257.049 52.388 257.164 52.5547C257.284 52.7214 257.344 52.9375 257.344 53.2031C257.344 53.5469 257.234 53.8229 257.016 54.0312C256.797 54.2344 256.503 54.4557 256.133 54.6953C255.82 54.8932 255.557 55.1198 255.344 55.375C255.13 55.625 254.977 55.9089 254.883 56.2266C254.789 56.5391 254.76 56.8958 254.797 57.2969L254.812 57.6562H257.008V57.2812C257.008 57 257.049 56.7734 257.133 56.6016C257.221 56.4297 257.359 56.2682 257.547 56.1172C257.74 55.9661 257.987 55.7891 258.289 55.5859C258.544 55.4089 258.792 55.2161 259.031 55.0078C259.276 54.7995 259.477 54.5417 259.633 54.2344C259.789 53.9271 259.867 53.5417 259.867 53.0781C259.867 52.4219 259.701 51.8776 259.367 51.4453C259.039 51.0078 258.599 50.6823 258.047 50.4688C257.5 50.25 256.901 50.1406 256.25 50.1406C255.771 50.1406 255.305 50.2031 254.852 50.3281C254.398 50.4479 253.995 50.638 253.641 50.8984C253.286 51.1536 253.01 51.487 252.812 51.8984C252.62 52.3099 252.534 52.8073 252.555 53.3906Z" fill="#2F2F2F"/>
<path d="M85.5215 75.9727C85.5488 76.2969 85.6348 76.5938 85.7793 76.8633C85.9277 77.1289 86.127 77.3594 86.377 77.5547C86.627 77.75 86.9238 77.9004 87.2676 78.0059C87.6113 78.1113 87.9941 78.1641 88.416 78.1641C89.0332 78.1641 89.5645 78.0664 90.0098 77.8711C90.459 77.6719 90.8047 77.3926 91.0469 77.0332C91.293 76.6699 91.416 76.2461 91.416 75.7617C91.416 75.375 91.3398 75.041 91.1875 74.7598C91.0352 74.4785 90.8047 74.2422 90.4961 74.0508C90.1875 73.8594 89.7988 73.7012 89.3301 73.5762L87.9648 73.2188C87.6016 73.125 87.3223 72.9824 87.127 72.791C86.9355 72.5996 86.8398 72.3633 86.8398 72.082C86.8398 71.6875 86.9941 71.3672 87.3027 71.1211C87.6113 70.875 88.0176 70.752 88.5215 70.752C88.834 70.752 89.1094 70.8008 89.3477 70.8984C89.5859 70.9922 89.7812 71.125 89.9336 71.2969C90.0859 71.4688 90.1855 71.6738 90.2324 71.9121H91.3164C91.2773 71.5059 91.1367 71.1445 90.8945 70.8281C90.6562 70.5117 90.3359 70.2637 89.9336 70.084C89.5312 69.9043 89.0664 69.8145 88.5391 69.8145C88 69.8145 87.5195 69.9141 87.0977 70.1133C86.6797 70.3086 86.3496 70.582 86.1074 70.9336C85.8652 71.2812 85.7441 71.6797 85.7441 72.1289C85.7441 72.4844 85.8184 72.8027 85.9668 73.084C86.1152 73.3613 86.3301 73.5977 86.6113 73.793C86.8926 73.9883 87.2344 74.1367 87.6367 74.2383L89.0254 74.6016C89.4707 74.7148 89.7988 74.8711 90.0098 75.0703C90.2207 75.2656 90.3262 75.5234 90.3262 75.8438C90.3262 76.125 90.2539 76.3691 90.1094 76.5762C89.9648 76.7832 89.7578 76.9434 89.4883 77.0566C89.2227 77.1699 88.9023 77.2266 88.5273 77.2266C88.2656 77.2266 88.0254 77.1973 87.8066 77.1387C87.5918 77.0762 87.4004 76.9902 87.2324 76.8809C87.0684 76.7715 86.9336 76.6406 86.8281 76.4883C86.7227 76.3359 86.6504 76.1641 86.6113 75.9727H85.5215ZM93.6074 71.8535H92.6582V72.7148H93.6016V76.2715C93.6016 76.6777 93.6484 77.0137 93.7422 77.2793C93.8359 77.541 94.0098 77.7363 94.2637 77.8652C94.5215 77.9902 94.8945 78.0527 95.3828 78.0527C95.5 78.0527 95.6445 78.0469 95.8164 78.0352C95.9883 78.0234 96.0957 78.0117 96.1387 78V77.1504C96.0918 77.1543 96.0176 77.1602 95.916 77.168C95.8145 77.1758 95.7266 77.1797 95.6523 77.1797C95.2773 77.1797 95.0176 77.1191 94.873 76.998C94.7285 76.873 94.6562 76.6289 94.6562 76.2656V72.7148H96.0508V71.8535H94.6562V70.3066H93.6074V71.8535ZM97.8789 78H98.9453V74.1914C98.9453 73.9102 99.0059 73.6582 99.127 73.4355C99.248 73.2129 99.4277 73.0352 99.666 72.9023C99.9082 72.7695 100.209 72.7031 100.568 72.7031C100.666 72.7031 100.76 72.707 100.85 72.7148C100.943 72.7188 101.016 72.7266 101.066 72.7383V71.7715C101.004 71.7637 100.939 71.7578 100.873 71.7539C100.811 71.7461 100.746 71.7422 100.68 71.7422C100.32 71.7422 100.025 71.8027 99.7949 71.9238C99.5645 72.041 99.3867 72.1797 99.2617 72.3398C99.1367 72.5 99.0469 72.6484 98.9922 72.7852H98.9395V71.8359H97.8789V78ZM104.811 78.0996C105.201 78.0996 105.541 78.0469 105.83 77.9414C106.119 77.8359 106.361 77.7012 106.557 77.5371C106.752 77.3691 106.902 77.1914 107.008 77.0039C107.117 76.8164 107.184 76.6406 107.207 76.4766H106.117C106.082 76.6016 106.006 76.7207 105.889 76.834C105.775 76.9434 105.625 77.0332 105.438 77.1035C105.254 77.1699 105.043 77.2031 104.805 77.2031C104.293 77.2031 103.902 77.0391 103.633 76.7109C103.363 76.3828 103.229 75.9805 103.229 75.5039V75.1934H107.289V74.4492C107.289 73.8984 107.18 73.4199 106.961 73.0137C106.742 72.6074 106.439 72.293 106.053 72.0703C105.67 71.8477 105.229 71.7363 104.729 71.7363C104.24 71.7363 103.803 71.8477 103.416 72.0703C103.029 72.2891 102.725 72.6016 102.502 73.0078C102.283 73.4102 102.174 73.8906 102.174 74.4492V75.3867C102.174 75.9414 102.277 76.4219 102.484 76.8281C102.695 77.2344 102.998 77.5488 103.393 77.7715C103.787 77.9902 104.26 78.0996 104.811 78.0996ZM103.229 74.4258C103.229 74.4102 103.229 74.3945 103.229 74.3789C103.229 74.3633 103.229 74.3457 103.229 74.3262C103.229 73.9863 103.291 73.6895 103.416 73.4355C103.541 73.1777 103.717 72.9785 103.943 72.8379C104.17 72.6973 104.434 72.627 104.734 72.627C105.035 72.627 105.297 72.6973 105.52 72.8379C105.746 72.9785 105.922 73.1777 106.047 73.4355C106.172 73.6895 106.234 73.9863 106.234 74.3262C106.234 74.3457 106.234 74.3633 106.234 74.3789C106.234 74.3945 106.234 74.4102 106.234 74.4258H103.229ZM109.393 71.8535H108.443V72.7148H109.387V76.2715C109.387 76.6777 109.434 77.0137 109.527 77.2793C109.621 77.541 109.795 77.7363 110.049 77.8652C110.307 77.9902 110.68 78.0527 111.168 78.0527C111.285 78.0527 111.43 78.0469 111.602 78.0352C111.773 78.0234 111.881 78.0117 111.924 78V77.1504C111.877 77.1543 111.803 77.1602 111.701 77.168C111.6 77.1758 111.512 77.1797 111.438 77.1797C111.062 77.1797 110.803 77.1191 110.658 76.998C110.514 76.873 110.441 76.6289 110.441 76.2656V72.7148H111.836V71.8535H110.441V70.3066H109.393V71.8535ZM113.271 75.4102C113.271 75.9609 113.375 76.4375 113.582 76.8398C113.793 77.2422 114.09 77.5527 114.473 77.7715C114.859 77.9902 115.316 78.0996 115.844 78.0996C116.387 78.0996 116.832 78.0137 117.18 77.8418C117.531 77.666 117.795 77.4395 117.971 77.1621C118.146 76.8809 118.24 76.5898 118.252 76.2891H117.221C117.186 76.4453 117.119 76.5918 117.021 76.7285C116.924 76.8613 116.781 76.9688 116.594 77.0508C116.41 77.1328 116.166 77.1738 115.861 77.1738C115.385 77.1738 115.01 77.0156 114.736 76.6992C114.467 76.3789 114.332 75.9531 114.332 75.4219V74.4375C114.332 73.8945 114.461 73.4629 114.719 73.1426C114.98 72.8223 115.361 72.6621 115.861 72.6621C116.182 72.6621 116.434 72.7168 116.617 72.8262C116.801 72.9316 116.934 73.0605 117.016 73.2129C117.102 73.3613 117.156 73.4961 117.18 73.6172H118.211C118.203 73.3086 118.109 73.0117 117.93 72.7266C117.75 72.4375 117.486 72.2012 117.139 72.0176C116.791 71.8301 116.359 71.7363 115.844 71.7363C115.316 71.7363 114.859 71.8457 114.473 72.0645C114.09 72.2832 113.793 72.5938 113.582 72.9961C113.375 73.3945 113.271 73.8633 113.271 74.4023V75.4102ZM119.951 78H121.012V74.5664C121.012 74.2109 121.072 73.8887 121.193 73.5996C121.314 73.3105 121.494 73.082 121.732 72.9141C121.971 72.7461 122.266 72.6621 122.617 72.6621C122.895 72.6621 123.135 72.7168 123.338 72.8262C123.545 72.9355 123.703 73.1016 123.812 73.3242C123.926 73.543 123.982 73.8145 123.982 74.1387V78H125.043V73.8047C125.043 73.1133 124.846 72.5957 124.451 72.252C124.061 71.9082 123.566 71.7363 122.969 71.7363C122.543 71.7363 122.197 71.8086 121.932 71.9531C121.666 72.0938 121.465 72.2617 121.328 72.457C121.195 72.6484 121.107 72.8145 121.064 72.9551H121.012V69.5801H119.951V78ZM129.959 78H131.02V71.8359H129.959V78ZM129.736 69.9375C129.736 70.1484 129.807 70.3223 129.947 70.459C130.092 70.5957 130.27 70.6641 130.48 70.6641C130.703 70.6641 130.887 70.5957 131.031 70.459C131.176 70.3223 131.248 70.1484 131.248 69.9375C131.248 69.7227 131.176 69.5469 131.031 69.4102C130.887 69.2734 130.703 69.2051 130.48 69.2051C130.27 69.2051 130.092 69.2734 129.947 69.4102C129.807 69.5469 129.736 69.7227 129.736 69.9375ZM133.592 71.8535H132.643V72.7148H133.586V76.2715C133.586 76.6777 133.633 77.0137 133.727 77.2793C133.82 77.541 133.994 77.7363 134.248 77.8652C134.506 77.9902 134.879 78.0527 135.367 78.0527C135.484 78.0527 135.629 78.0469 135.801 78.0352C135.973 78.0234 136.08 78.0117 136.123 78V77.1504C136.076 77.1543 136.002 77.1602 135.9 77.168C135.799 77.1758 135.711 77.1797 135.637 77.1797C135.262 77.1797 135.002 77.1191 134.857 76.998C134.713 76.873 134.641 76.6289 134.641 76.2656V72.7148H136.035V71.8535H134.641V70.3066H133.592V71.8535ZM148.035 71.8359H146.975L145.861 76.6816H145.82L144.432 71.8359H143.436L142.088 76.6816H142.047L140.957 71.8359H139.779L141.508 78H142.568L143.922 73.2832H143.951L145.34 78H146.395L148.035 71.8359ZM149.564 78H150.625V71.8359H149.564V78ZM149.342 69.9375C149.342 70.1484 149.412 70.3223 149.553 70.459C149.697 70.5957 149.875 70.6641 150.086 70.6641C150.309 70.6641 150.492 70.5957 150.637 70.459C150.781 70.3223 150.854 70.1484 150.854 69.9375C150.854 69.7227 150.781 69.5469 150.637 69.4102C150.492 69.2734 150.309 69.2051 150.086 69.2051C149.875 69.2051 149.697 69.2734 149.553 69.4102C149.412 69.5469 149.342 69.7227 149.342 69.9375ZM153.197 71.8535H152.248V72.7148H153.191V76.2715C153.191 76.6777 153.238 77.0137 153.332 77.2793C153.426 77.541 153.6 77.7363 153.854 77.8652C154.111 77.9902 154.484 78.0527 154.973 78.0527C155.09 78.0527 155.234 78.0469 155.406 78.0352C155.578 78.0234 155.686 78.0117 155.729 78V77.1504C155.682 77.1543 155.607 77.1602 155.506 77.168C155.404 77.1758 155.316 77.1797 155.242 77.1797C154.867 77.1797 154.607 77.1191 154.463 76.998C154.318 76.873 154.246 76.6289 154.246 76.2656V72.7148H155.641V71.8535H154.246V70.3066H153.197V71.8535ZM157.393 78H158.453V74.5664C158.453 74.2109 158.514 73.8887 158.635 73.5996C158.756 73.3105 158.936 73.082 159.174 72.9141C159.412 72.7461 159.707 72.6621 160.059 72.6621C160.336 72.6621 160.576 72.7168 160.779 72.8262C160.986 72.9355 161.145 73.1016 161.254 73.3242C161.367 73.543 161.424 73.8145 161.424 74.1387V78H162.484V73.8047C162.484 73.1133 162.287 72.5957 161.893 72.252C161.502 71.9082 161.008 71.7363 160.41 71.7363C159.984 71.7363 159.639 71.8086 159.373 71.9531C159.107 72.0938 158.906 72.2617 158.77 72.457C158.637 72.6484 158.549 72.8145 158.506 72.9551H158.453V69.5801H157.393V78ZM172.182 71.8359H171.057L169.422 76.9629H169.375L167.746 71.8359H166.568L168.83 78.082L168.766 78.3105C168.672 78.6582 168.529 78.9062 168.338 79.0547C168.146 79.207 167.877 79.2832 167.529 79.2832C167.467 79.2832 167.387 79.2793 167.289 79.2715C167.195 79.2637 167.125 79.2578 167.078 79.2539V80.1094C167.156 80.125 167.254 80.1367 167.371 80.1445C167.488 80.1562 167.594 80.1621 167.688 80.1621C168.223 80.1621 168.66 80.0234 169 79.7461C169.34 79.4688 169.631 79.002 169.873 78.3457L170.002 78.0117C170.17 77.5391 170.342 77.0547 170.518 76.5586C170.693 76.0625 170.873 75.5566 171.057 75.041C171.24 74.5215 171.426 73.9941 171.613 73.459C171.801 72.9238 171.99 72.3828 172.182 71.8359ZM175.961 71.7363C175.449 71.7363 174.992 71.8477 174.59 72.0703C174.188 72.293 173.871 72.6074 173.641 73.0137C173.41 73.4199 173.295 73.9023 173.295 74.4609V75.3691C173.295 75.9512 173.408 76.4473 173.635 76.8574C173.865 77.2637 174.18 77.5723 174.578 77.7832C174.98 77.9941 175.441 78.0996 175.961 78.0996C176.473 78.0996 176.928 77.9941 177.326 77.7832C177.729 77.5684 178.045 77.2578 178.275 76.8516C178.506 76.4414 178.621 75.9473 178.621 75.3691V74.4551C178.621 73.8848 178.506 73.3965 178.275 72.9902C178.045 72.5801 177.729 72.2695 177.326 72.0586C176.928 71.8438 176.473 71.7363 175.961 71.7363ZM175.967 72.6387C176.295 72.6387 176.578 72.7207 176.816 72.8848C177.055 73.0449 177.236 73.2676 177.361 73.5527C177.49 73.8379 177.555 74.1699 177.555 74.5488V75.293C177.555 75.6758 177.492 76.0098 177.367 76.2949C177.246 76.5801 177.066 76.8027 176.828 76.9629C176.594 77.123 176.307 77.2031 175.967 77.2031C175.623 77.2031 175.33 77.123 175.088 76.9629C174.85 76.8027 174.668 76.5801 174.543 76.2949C174.418 76.0098 174.355 75.6758 174.355 75.293V74.5488C174.355 74.1738 174.42 73.8438 174.549 73.5586C174.682 73.2695 174.867 73.0449 175.105 72.8848C175.348 72.7207 175.635 72.6387 175.967 72.6387ZM185.406 71.8359H184.346V75.7207C184.346 75.9824 184.275 76.2246 184.135 76.4473C183.998 76.6699 183.811 76.8477 183.572 76.9805C183.334 77.1094 183.062 77.1738 182.758 77.1738C182.512 77.1738 182.287 77.1328 182.084 77.0508C181.885 76.9688 181.723 76.8301 181.598 76.6348C181.477 76.4355 181.416 76.166 181.416 75.8262V71.8359H180.355V76.1133C180.355 76.5898 180.445 76.9746 180.625 77.2676C180.805 77.5566 181.053 77.7676 181.369 77.9004C181.689 78.0332 182.055 78.0996 182.465 78.0996C182.824 78.0996 183.129 78.041 183.379 77.9238C183.633 77.8027 183.834 77.6562 183.982 77.4844C184.135 77.3125 184.24 77.1426 184.299 76.9746H184.357V78H185.406V71.8359ZM187.586 78H188.652V74.1914C188.652 73.9102 188.713 73.6582 188.834 73.4355C188.955 73.2129 189.135 73.0352 189.373 72.9023C189.615 72.7695 189.916 72.7031 190.275 72.7031C190.373 72.7031 190.467 72.707 190.557 72.7148C190.65 72.7188 190.723 72.7266 190.773 72.7383V71.7715C190.711 71.7637 190.646 71.7578 190.58 71.7539C190.518 71.7461 190.453 71.7422 190.387 71.7422C190.027 71.7422 189.732 71.8027 189.502 71.9238C189.271 72.041 189.094 72.1797 188.969 72.3398C188.844 72.5 188.754 72.6484 188.699 72.7852H188.646V71.8359H187.586V78ZM195.438 78H196.498V72.7148H197.916V71.8535H196.486V71.3203C196.486 70.9531 196.568 70.7051 196.732 70.5762C196.896 70.4434 197.16 70.377 197.523 70.377C197.602 70.377 197.701 70.3789 197.822 70.3828C197.943 70.3867 198.027 70.3926 198.074 70.4004V69.5449C198.016 69.5371 197.918 69.5293 197.781 69.5215C197.645 69.5137 197.508 69.5098 197.371 69.5098C196.684 69.5098 196.189 69.6504 195.889 69.9316C195.588 70.209 195.438 70.6445 195.438 71.2383V71.8535H194.4V72.7148H195.438V78ZM199.756 78H200.816V71.8359H199.756V78ZM199.533 69.9375C199.533 70.1484 199.604 70.3223 199.744 70.459C199.889 70.5957 200.066 70.6641 200.277 70.6641C200.5 70.6641 200.684 70.5957 200.828 70.459C200.973 70.3223 201.045 70.1484 201.045 69.9375C201.045 69.7227 200.973 69.5469 200.828 69.4102C200.684 69.2734 200.5 69.2051 200.277 69.2051C200.066 69.2051 199.889 69.2734 199.744 69.4102C199.604 69.5469 199.533 69.7227 199.533 69.9375ZM203.055 78H204.115V74.5664C204.115 74.2109 204.174 73.8887 204.291 73.5996C204.408 73.3105 204.586 73.082 204.824 72.9141C205.066 72.7461 205.367 72.6621 205.727 72.6621C206.004 72.6621 206.242 72.7168 206.441 72.8262C206.641 72.9355 206.793 73.0996 206.898 73.3184C207.008 73.5332 207.062 73.8027 207.062 74.127V78H208.123V73.793C208.123 73.1016 207.93 72.5859 207.543 72.2461C207.156 71.9062 206.652 71.7363 206.031 71.7363C205.602 71.7363 205.26 71.8047 205.006 71.9414C204.752 72.0781 204.561 72.2402 204.432 72.4277C204.303 72.6152 204.213 72.791 204.162 72.9551H204.104V71.8359H203.055V78ZM212.406 79.3652C212.137 79.3652 211.902 79.3281 211.703 79.2539C211.508 79.1836 211.352 79.0879 211.234 78.9668C211.117 78.8457 211.045 78.7129 211.018 78.5684H209.939C209.967 78.8652 210.072 79.1406 210.256 79.3945C210.439 79.6523 210.705 79.8594 211.053 80.0156C211.404 80.1758 211.844 80.2559 212.371 80.2559C212.766 80.2559 213.127 80.209 213.455 80.1152C213.787 80.0215 214.074 79.875 214.316 79.6758C214.559 79.4766 214.746 79.2227 214.879 78.9141C215.016 78.6055 215.084 78.2383 215.084 77.8125V71.8359H214.07V72.7676H214.018C213.951 72.5957 213.836 72.4316 213.672 72.2754C213.508 72.1191 213.303 71.9922 213.057 71.8945C212.814 71.793 212.539 71.7422 212.23 71.7422C211.777 71.7422 211.367 71.8457 211 72.0527C210.633 72.2598 210.342 72.5586 210.127 72.9492C209.912 73.3359 209.805 73.8008 209.805 74.3438V75.2988C209.805 75.8379 209.912 76.3027 210.127 76.6934C210.342 77.0801 210.633 77.377 211 77.584C211.371 77.7871 211.783 77.8887 212.236 77.8887C212.451 77.8887 212.65 77.8633 212.834 77.8125C213.018 77.7617 213.184 77.6934 213.332 77.6074C213.48 77.5176 213.607 77.416 213.713 77.3027C213.822 77.1855 213.906 77.0586 213.965 76.9219H214.023V77.8184C214.023 78.3027 213.889 78.6816 213.619 78.9551C213.354 79.2285 212.949 79.3652 212.406 79.3652ZM212.494 72.6504C212.818 72.6504 213.094 72.7324 213.32 72.8965C213.547 73.0566 213.721 73.2676 213.842 73.5293C213.963 73.791 214.023 74.0723 214.023 74.373V75.3047C214.023 75.5938 213.965 75.8672 213.848 76.125C213.734 76.3828 213.564 76.5938 213.338 76.7578C213.115 76.918 212.838 76.998 212.506 76.998C212.189 76.998 211.906 76.9199 211.656 76.7637C211.41 76.6035 211.217 76.3828 211.076 76.1016C210.939 75.8164 210.871 75.4883 210.871 75.1172V74.5371C210.871 74.1621 210.938 73.834 211.07 73.5527C211.203 73.2676 211.391 73.0469 211.633 72.8906C211.875 72.7305 212.162 72.6504 212.494 72.6504ZM219.502 78.0996C219.893 78.0996 220.232 78.0469 220.521 77.9414C220.811 77.8359 221.053 77.7012 221.248 77.5371C221.443 77.3691 221.594 77.1914 221.699 77.0039C221.809 76.8164 221.875 76.6406 221.898 76.4766H220.809C220.773 76.6016 220.697 76.7207 220.58 76.834C220.467 76.9434 220.316 77.0332 220.129 77.1035C219.945 77.1699 219.734 77.2031 219.496 77.2031C218.984 77.2031 218.594 77.0391 218.324 76.7109C218.055 76.3828 217.92 75.9805 217.92 75.5039V75.1934H221.98V74.4492C221.98 73.8984 221.871 73.4199 221.652 73.0137C221.434 72.6074 221.131 72.293 220.744 72.0703C220.361 71.8477 219.92 71.7363 219.42 71.7363C218.932 71.7363 218.494 71.8477 218.107 72.0703C217.721 72.2891 217.416 72.6016 217.193 73.0078C216.975 73.4102 216.865 73.8906 216.865 74.4492V75.3867C216.865 75.9414 216.969 76.4219 217.176 76.8281C217.387 77.2344 217.689 77.5488 218.084 77.7715C218.479 77.9902 218.951 78.0996 219.502 78.0996ZM217.92 74.4258C217.92 74.4102 217.92 74.3945 217.92 74.3789C217.92 74.3633 217.92 74.3457 217.92 74.3262C217.92 73.9863 217.982 73.6895 218.107 73.4355C218.232 73.1777 218.408 72.9785 218.635 72.8379C218.861 72.6973 219.125 72.627 219.426 72.627C219.727 72.627 219.988 72.6973 220.211 72.8379C220.438 72.9785 220.613 73.1777 220.738 73.4355C220.863 73.6895 220.926 73.9863 220.926 74.3262C220.926 74.3457 220.926 74.3633 220.926 74.3789C220.926 74.3945 220.926 74.4102 220.926 74.4258H217.92ZM223.832 78H224.898V74.1914C224.898 73.9102 224.959 73.6582 225.08 73.4355C225.201 73.2129 225.381 73.0352 225.619 72.9023C225.861 72.7695 226.162 72.7031 226.521 72.7031C226.619 72.7031 226.713 72.707 226.803 72.7148C226.896 72.7188 226.969 72.7266 227.02 72.7383V71.7715C226.957 71.7637 226.893 71.7578 226.826 71.7539C226.764 71.7461 226.699 71.7422 226.633 71.7422C226.273 71.7422 225.979 71.8027 225.748 71.9238C225.518 72.041 225.34 72.1797 225.215 72.3398C225.09 72.5 225 72.6484 224.945 72.7852H224.893V71.8359H223.832V78ZM228.133 73.6055C228.133 74.0078 228.227 74.3184 228.414 74.5371C228.602 74.7559 228.852 74.9219 229.164 75.0352C229.48 75.1445 229.83 75.2383 230.213 75.3164C230.498 75.3711 230.758 75.4316 230.992 75.498C231.227 75.5605 231.412 75.6523 231.549 75.7734C231.686 75.8945 231.754 76.0703 231.754 76.3008C231.754 76.4805 231.707 76.6426 231.613 76.7871C231.52 76.9316 231.371 77.0488 231.168 77.1387C230.969 77.2285 230.707 77.2734 230.383 77.2734C230.098 77.2734 229.861 77.2383 229.674 77.168C229.486 77.0938 229.344 76.9902 229.246 76.8574C229.148 76.7246 229.086 76.5664 229.059 76.3828H228.021C228.021 76.75 228.119 77.0625 228.314 77.3203C228.51 77.5742 228.781 77.7676 229.129 77.9004C229.477 78.0332 229.879 78.0996 230.336 78.0996C230.828 78.0996 231.258 78.0254 231.625 77.877C231.996 77.7285 232.283 77.5117 232.486 77.2266C232.693 76.9375 232.797 76.5879 232.797 76.1777C232.797 75.7754 232.701 75.4629 232.51 75.2402C232.318 75.0137 232.062 74.8438 231.742 74.7305C231.426 74.6133 231.074 74.5215 230.688 74.4551C230.516 74.4238 230.34 74.3906 230.16 74.3555C229.98 74.3203 229.814 74.2715 229.662 74.209C229.514 74.1426 229.393 74.0547 229.299 73.9453C229.205 73.832 229.158 73.6836 229.158 73.5C229.158 73.1992 229.273 72.9688 229.504 72.8086C229.738 72.6484 230.035 72.5684 230.395 72.5684C230.672 72.5684 230.9 72.6133 231.08 72.7031C231.264 72.7891 231.402 72.9004 231.496 73.0371C231.59 73.1738 231.643 73.3145 231.654 73.459H232.639C232.639 73.1113 232.547 72.8105 232.363 72.5566C232.18 72.2988 231.922 72.0977 231.59 71.9531C231.262 71.8086 230.875 71.7363 230.43 71.7363C230.031 71.7363 229.656 71.8008 229.305 71.9297C228.957 72.0586 228.674 72.2617 228.455 72.5391C228.24 72.8125 228.133 73.168 228.133 73.6055Z" fill="#757575"/>
<g filter="url(#filter4_d_119_806)">
<rect x="16" y="443" width="288" height="42" rx="6" fill="url(#paint1_linear_119_806)" shape-rendering="crispEdges"/>
<path d="M147.221 468.5V461.78H147.282L151.65 468.5H153.011V459.169H151.521V465.868H151.452L147.098 459.169H145.73V468.5H147.221ZM158.24 468.623C158.728 468.623 159.149 468.557 159.505 468.425C159.865 468.293 160.161 468.124 160.394 467.919C160.631 467.709 160.811 467.486 160.934 467.249C161.061 467.012 161.136 466.789 161.159 466.579H159.676C159.639 466.729 159.557 466.868 159.43 466.996C159.307 467.119 159.143 467.219 158.938 467.297C158.732 467.37 158.498 467.406 158.233 467.406C157.7 467.406 157.285 467.235 156.989 466.894C156.698 466.547 156.552 466.117 156.552 465.602V465.246H161.241V464.398C161.241 463.733 161.109 463.159 160.845 462.676C160.58 462.193 160.216 461.819 159.751 461.555C159.291 461.286 158.757 461.151 158.151 461.151C157.563 461.151 157.035 461.281 156.565 461.541C156.101 461.796 155.731 462.165 155.458 462.648C155.185 463.132 155.048 463.715 155.048 464.398V465.376C155.048 466.055 155.178 466.638 155.438 467.126C155.697 467.609 156.066 467.98 156.545 468.24C157.023 468.495 157.589 468.623 158.24 468.623ZM156.552 464.255C156.552 464.241 156.552 464.228 156.552 464.214C156.552 464.196 156.552 464.177 156.552 464.159C156.552 463.795 156.618 463.478 156.75 463.209C156.882 462.936 157.069 462.724 157.311 462.573C157.552 462.423 157.835 462.348 158.158 462.348C158.482 462.348 158.762 462.423 158.999 462.573C159.241 462.724 159.427 462.936 159.56 463.209C159.692 463.478 159.758 463.795 159.758 464.159C159.758 464.177 159.758 464.196 159.758 464.214C159.758 464.228 159.758 464.241 159.758 464.255H156.552ZM167.209 468.5H168.945C168.918 468.445 168.843 468.327 168.72 468.145C168.601 467.962 168.455 467.741 168.282 467.481C168.114 467.222 167.934 466.951 167.742 466.668C167.555 466.381 167.378 466.107 167.209 465.848C167.04 465.588 166.895 465.367 166.771 465.185C166.653 465.002 166.578 464.884 166.546 464.829L168.952 461.274H167.264L165.705 463.831H165.644L164.133 461.274H162.355C162.387 461.329 162.463 461.45 162.581 461.637C162.7 461.819 162.843 462.038 163.012 462.293C163.18 462.548 163.358 462.817 163.545 463.1C163.732 463.382 163.91 463.651 164.078 463.906C164.247 464.161 164.39 464.382 164.509 464.569C164.627 464.752 164.702 464.868 164.734 464.918L162.403 468.5H164.051L165.603 465.937H165.664L167.209 468.5ZM170.976 461.322H169.854V462.512H170.955V466.47C170.955 466.948 171.019 467.342 171.146 467.652C171.274 467.958 171.5 468.183 171.823 468.329C172.151 468.475 172.607 468.548 173.19 468.548C173.364 468.548 173.553 468.539 173.758 468.521C173.967 468.507 174.102 468.495 174.161 468.486V467.324C174.102 467.329 174.013 467.336 173.895 467.345C173.781 467.349 173.671 467.352 173.566 467.352C173.161 467.352 172.874 467.283 172.705 467.146C172.541 467.005 172.459 466.739 172.459 466.347V462.512H174.072V461.322H172.459V459.518H170.976V461.322Z" fill="white"/>
</g>
<path d="M145.23 526.5H148.881C149.528 526.5 150.095 526.397 150.583 526.192C151.071 525.983 151.449 525.682 151.718 525.29C151.991 524.898 152.128 524.426 152.128 523.875C152.128 523.424 152.039 523.036 151.861 522.713C151.684 522.385 151.44 522.127 151.13 521.94C150.825 521.749 150.474 521.631 150.077 521.585V521.517C150.387 521.43 150.658 521.296 150.891 521.113C151.123 520.931 151.303 520.703 151.431 520.43C151.563 520.152 151.629 519.83 151.629 519.466C151.629 518.75 151.385 518.19 150.897 517.784C150.414 517.374 149.765 517.169 148.949 517.169H145.23V526.5ZM146.775 518.399H148.621C149.086 518.399 149.446 518.518 149.701 518.755C149.961 518.987 150.091 519.311 150.091 519.726C150.091 520.031 150.018 520.288 149.872 520.498C149.731 520.703 149.514 520.858 149.223 520.963C148.931 521.063 148.553 521.113 148.088 521.113H146.775V518.399ZM146.775 522.282H148.751C149.134 522.282 149.46 522.344 149.729 522.467C149.997 522.585 150.2 522.761 150.337 522.993C150.478 523.221 150.549 523.497 150.549 523.82C150.549 524.312 150.369 524.677 150.009 524.914C149.653 525.151 149.07 525.27 148.259 525.27H146.775V522.282ZM155.977 526.609C156.337 526.609 156.646 526.562 156.906 526.466C157.171 526.366 157.392 526.236 157.569 526.076C157.747 525.917 157.888 525.746 157.993 525.563H158.062V526.5H159.504V521.605C159.504 521.004 159.376 520.525 159.121 520.17C158.866 519.814 158.524 519.559 158.096 519.404C157.667 519.245 157.196 519.165 156.681 519.165C156.229 519.165 155.833 519.213 155.491 519.309C155.154 519.404 154.869 519.543 154.637 519.726C154.409 519.903 154.231 520.118 154.104 520.368C153.98 520.614 153.908 520.888 153.885 521.188H155.327C155.368 521.024 155.439 520.883 155.539 520.765C155.639 520.642 155.778 520.546 155.956 520.478C156.134 520.405 156.359 520.368 156.633 520.368C157.048 520.368 157.378 520.468 157.624 520.669C157.87 520.865 157.993 521.17 157.993 521.585V522.262H156.168C155.334 522.262 154.698 522.46 154.261 522.856C153.828 523.248 153.611 523.763 153.611 524.401C153.611 525.076 153.83 525.614 154.268 526.015C154.71 526.411 155.279 526.609 155.977 526.609ZM156.441 525.434C156.104 525.434 155.801 525.345 155.532 525.167C155.268 524.985 155.136 524.704 155.136 524.326C155.136 524.021 155.236 523.77 155.437 523.574C155.642 523.378 155.965 523.28 156.407 523.28H157.993V524.06C157.993 524.324 157.923 524.559 157.781 524.764C157.645 524.969 157.46 525.133 157.228 525.256C156.995 525.374 156.733 525.434 156.441 525.434ZM161.411 523.39C161.411 524.055 161.536 524.629 161.787 525.112C162.042 525.595 162.402 525.969 162.867 526.233C163.332 526.493 163.886 526.623 164.528 526.623C165.175 526.623 165.711 526.518 166.135 526.309C166.563 526.094 166.884 525.814 167.099 525.468C167.317 525.117 167.434 524.739 167.447 524.333H166.012C165.975 524.524 165.905 524.7 165.8 524.859C165.7 525.014 165.549 525.137 165.349 525.229C165.153 525.32 164.893 525.365 164.569 525.365C164.059 525.365 163.658 525.188 163.366 524.832C163.079 524.477 162.936 523.996 162.936 523.39V522.378C162.936 521.781 163.075 521.305 163.353 520.949C163.631 520.594 164.034 520.416 164.562 520.416C164.9 520.416 165.166 520.475 165.362 520.594C165.558 520.712 165.702 520.858 165.793 521.031C165.889 521.2 165.948 521.362 165.971 521.517H167.406C167.397 521.102 167.281 520.717 167.058 520.361C166.834 520.001 166.511 519.71 166.087 519.486C165.668 519.263 165.148 519.151 164.528 519.151C163.895 519.151 163.343 519.284 162.874 519.548C162.409 519.812 162.049 520.184 161.794 520.662C161.539 521.136 161.411 521.697 161.411 522.344V523.39ZM170.817 523.916L171.405 523.294L173.668 526.5H175.459L172.54 522.405L175.274 519.274H173.545L170.886 522.405H170.817V516.677H169.307V526.5H170.817V523.916Z" fill="#2F2F2F"/>
<rect x="16.5" y="501.5" width="287" height="41" rx="5.5" stroke="#359D9E"/>
<rect width="320" height="25.0399" fill="white"/>
<path d="M17.4765 16.5199H16.0902V11.2954C15.5837 11.769 14.9868 12.1193 14.2994 12.3462V11.0882C14.6611 10.9698 15.0542 10.7461 15.4785 10.4173C15.9027 10.0851 16.1938 9.69861 16.3517 9.25789H17.4765V16.5199ZM21.8033 9.25789C22.5039 9.25789 23.0515 9.50785 23.4462 10.0078C23.9165 10.5998 24.1516 11.5815 24.1516 12.953C24.1516 14.3213 23.9148 15.3047 23.4412 15.9032C23.0498 16.3966 22.5039 16.6433 21.8033 16.6433C21.0995 16.6433 20.5321 16.3736 20.1013 15.8342C19.6704 15.2915 19.455 14.3262 19.455 12.9382C19.455 11.5766 19.6918 10.5965 20.1654 9.99791C20.5568 9.50456 21.1028 9.25789 21.8033 9.25789ZM21.8033 10.4074C21.6356 10.4074 21.4859 10.4617 21.3544 10.5702C21.2228 10.6754 21.1209 10.8662 21.0485 11.1425C20.9531 11.501 20.9054 12.1045 20.9054 12.953C20.9054 13.8016 20.9482 14.3854 21.0337 14.7044C21.1192 15.0202 21.2261 15.2307 21.3544 15.3359C21.4859 15.4411 21.6356 15.4938 21.8033 15.4938C21.9711 15.4938 22.1207 15.4411 22.2523 15.3359C22.3838 15.2274 22.4858 15.035 22.5581 14.7587C22.6535 14.4035 22.7012 13.8016 22.7012 12.953C22.7012 12.1045 22.6584 11.5223 22.5729 11.2066C22.4874 10.8876 22.3789 10.6754 22.2473 10.5702C22.1191 10.4617 21.9711 10.4074 21.8033 10.4074ZM25.5529 12.6669V11.2806H26.9392V12.6669H25.5529ZM25.5529 16.5199V15.1336H26.9392V16.5199H25.5529ZM30.605 9.25789C31.3055 9.25789 31.8531 9.50785 32.2478 10.0078C32.7181 10.5998 32.9533 11.5815 32.9533 12.953C32.9533 14.3213 32.7165 15.3047 32.2429 15.9032C31.8515 16.3966 31.3055 16.6433 30.605 16.6433C29.9011 16.6433 29.3338 16.3736 28.9029 15.8342C28.4721 15.2915 28.2566 14.3262 28.2566 12.9382C28.2566 11.5766 28.4934 10.5965 28.967 9.99791C29.3584 9.50456 29.9044 9.25789 30.605 9.25789ZM30.605 10.4074C30.4372 10.4074 30.2876 10.4617 30.156 10.5702C30.0245 10.6754 29.9225 10.8662 29.8501 11.1425C29.7548 11.501 29.7071 12.1045 29.7071 12.953C29.7071 13.8016 29.7498 14.3854 29.8353 14.7044C29.9208 15.0202 30.0277 15.2307 30.156 15.3359C30.2876 15.4411 30.4372 15.4938 30.605 15.4938C30.7727 15.4938 30.9223 15.4411 31.0539 15.3359C31.1855 15.2274 31.2874 15.035 31.3598 14.7587C31.4552 14.4035 31.5028 13.8016 31.5028 12.953C31.5028 12.1045 31.4601 11.5223 31.3746 11.2066C31.2891 10.8876 31.1805 10.6754 31.049 10.5702C30.9207 10.4617 30.7727 10.4074 30.605 10.4074ZM33.8217 14.8475L35.1636 14.6995C35.1965 14.9725 35.282 15.1747 35.4202 15.3063C35.5583 15.4379 35.7409 15.5036 35.9678 15.5036C36.2539 15.5036 36.4973 15.3721 36.6979 15.109C36.8986 14.8458 37.0268 14.2999 37.0828 13.4711C36.7341 13.8756 36.2983 14.0779 35.7754 14.0779C35.2064 14.0779 34.7147 13.8592 34.3003 13.4217C33.8892 12.981 33.6836 12.4087 33.6836 11.7049C33.6836 10.9714 33.9007 10.3811 34.3348 9.93377C34.7723 9.48319 35.3281 9.25789 36.0023 9.25789C36.7358 9.25789 37.3376 9.54239 37.808 10.1114C38.2783 10.6771 38.5135 11.6095 38.5135 12.9086C38.5135 14.2308 38.2684 15.1846 37.7784 15.77C37.2883 16.3555 36.6503 16.6482 35.8642 16.6482C35.2985 16.6482 34.8413 16.4985 34.4927 16.1993C34.1441 15.8967 33.9204 15.4461 33.8217 14.8475ZM36.9594 11.8184C36.9594 11.3711 36.8558 11.0241 36.6486 10.7774C36.4447 10.5307 36.2079 10.4074 35.9382 10.4074C35.6817 10.4074 35.4679 10.5093 35.2968 10.7133C35.1291 10.9139 35.0452 11.2444 35.0452 11.7049C35.0452 12.1719 35.1373 12.5156 35.3215 12.736C35.5057 12.953 35.7359 13.0616 36.0122 13.0616C36.2786 13.0616 36.5023 12.9563 36.6831 12.7458C36.8673 12.5353 36.9594 12.2262 36.9594 11.8184Z" fill="black"/>
<rect opacity="0.35" x="288.003" y="8.10432" width="16.267" height="8.20146" rx="0.608093" stroke="white" stroke-width="0.280658"/>
<path opacity="0.4" d="M305.162 10.7082V13.7019C305.77 13.4483 306.165 12.8585 306.165 12.205C306.165 11.5516 305.77 10.9617 305.162 10.7082" fill="black"/>
<rect x="289.367" y="9.46085" width="13.539" height="5.48843" rx="0.374211" fill="black"/>
<path fill-rule="evenodd" clip-rule="evenodd" d="M276.512 9.22318C278.177 9.22326 279.778 9.92667 280.985 11.188C281.076 11.2854 281.221 11.2842 281.311 11.1853L282.179 10.2214C282.225 10.1713 282.25 10.1033 282.249 10.0326C282.249 9.96192 282.223 9.89429 282.177 9.84472C279.01 6.50749 274.013 6.50749 270.846 9.84472C270.8 9.89426 270.774 9.96186 270.774 10.0326C270.773 10.1033 270.798 10.1712 270.844 10.2214L271.713 11.1853C271.802 11.2843 271.947 11.2855 272.038 11.188C273.245 9.92659 274.847 9.22318 276.512 9.22318ZM276.511 12.3515C277.426 12.3515 278.31 12.7349 278.989 13.4272C279.08 13.5255 279.225 13.5234 279.315 13.4224L280.183 12.434C280.229 12.3821 280.254 12.3118 280.254 12.2387C280.253 12.1656 280.226 12.0959 280.18 12.0451C278.112 9.87921 274.911 9.87921 272.843 12.0451C272.797 12.0959 272.77 12.1657 272.769 12.2388C272.769 12.3119 272.794 12.3822 272.84 12.434L273.708 13.4224C273.798 13.5234 273.943 13.5255 274.034 13.4272C274.713 12.7353 275.595 12.3519 276.511 12.3515ZM278.258 14.6385C278.259 14.7102 278.233 14.7794 278.187 14.8297L276.679 16.5016C276.635 16.5508 276.574 16.5784 276.512 16.5784C276.449 16.5784 276.388 16.5508 276.344 16.5016L274.836 14.8297C274.79 14.7794 274.764 14.7102 274.765 14.6384C274.767 14.5667 274.795 14.4987 274.843 14.4506C275.806 13.5557 277.217 13.5557 278.18 14.4506C278.228 14.4987 278.256 14.5667 278.258 14.6385Z" fill="black"/>
<path fill-rule="evenodd" clip-rule="evenodd" d="M266.844 8.96188C266.844 8.54854 266.509 8.21346 266.096 8.21346H265.348C264.934 8.21346 264.599 8.54854 264.599 8.96188V15.4482C264.599 15.8616 264.934 16.1966 265.348 16.1966H266.096C266.509 16.1966 266.844 15.8616 266.844 15.4482V8.96188ZM261.855 9.9598H262.603C263.017 9.9598 263.352 10.2949 263.352 10.7082V15.4482C263.352 15.8616 263.017 16.1967 262.603 16.1967H261.855C261.442 16.1967 261.106 15.8616 261.106 15.4482V10.7082C261.106 10.2949 261.442 9.9598 261.855 9.9598ZM259.111 11.7061H258.362C257.949 11.7061 257.614 12.0412 257.614 12.4545V15.4482C257.614 15.8616 257.949 16.1966 258.362 16.1966H259.111C259.524 16.1966 259.859 15.8616 259.859 15.4482V12.4545C259.859 12.0412 259.524 11.7061 259.111 11.7061ZM256.366 13.9514C256.366 13.538 256.031 13.2029 255.618 13.2029H254.87C254.456 13.2029 254.121 13.538 254.121 13.9514V15.4482C254.121 15.8615 254.456 16.1966 254.87 16.1966H255.618C256.031 16.1966 256.366 15.8615 256.366 15.4482V13.9514Z" fill="black"/>
</g>
<defs>
<filter id="filter0_d_119_806" x="-5" y="98" width="329" height="329" filterUnits="userSpaceOnUse" color-interpolation-filters="sRGB">
<feFlood flood-opacity="0" result="BackgroundImageFix"/>
<feColorMatrix in="SourceAlpha" type="matrix" values="0 0 0 0 0 0 0 0 0 0 0 0 0 0 0 0 0 0 127 0" result="hardAlpha"/>
<feMorphology radius="1" operator="dilate" in="SourceAlpha" result="effect1_dropShadow_119_806"/>
<feOffset/>
<feGaussianBlur stdDeviation="10"/>
<feComposite in2="hardAlpha" operator="out"/>
<feColorMatrix type="matrix" values="0 0 0 0 0 0 0 0 0 0 0 0 0 0 0 0 0 0 0.1 0"/>
<feBlend mode="normal" in2="BackgroundImageFix" result="effect1_dropShadow_119_806"/>
<feBlend mode="normal" in="SourceGraphic" in2="effect1_dropShadow_119_806" result="shape"/>
</filter>
<filter id="filter1_d_119_806" x="12" y="115" width="295" height="295" filterUnits="userSpaceOnUse" color-interpolation-filters="sRGB">
<feFlood flood-opacity="0" result="BackgroundImageFix"/>
<feColorMatrix in="SourceAlpha" type="matrix" values="0 0 0 0 0 0 0 0 0 0 0 0 0 0 0 0 0 0 127 0" result="hardAlpha"/>
<feMorphology radius="1" operator="dilate" in="SourceAlpha" result="effect1_dropShadow_119_806"/>
<feOffset/>
<feGaussianBlur stdDeviation="10"/>
<feComposite in2="hardAlpha" operator="out"/>
<feColorMatrix type="matrix" values="0 0 0 0 0 0 0 0 0 0 0 0 0 0 0 0 0 0 0.1 0"/>
<feBlend mode="normal" in2="BackgroundImageFix" result="effect1_dropShadow_119_806"/>
<feBlend mode="normal" in="SourceGraphic" in2="effect1_dropShadow_119_806" result="shape"/>
</filter>
<filter id="filter2_d_119_806" x="38" y="141" width="243" height="243" filterUnits="userSpaceOnUse" color-interpolation-filters="sRGB">
<feFlood flood-opacity="0" result="BackgroundImageFix"/>
<feColorMatrix in="SourceAlpha" type="matrix" values="0 0 0 0 0 0 0 0 0 0 0 0 0 0 0 0 0 0 127 0" result="hardAlpha"/>
<feMorphology radius="1" operator="dilate" in="SourceAlpha" result="effect1_dropShadow_119_806"/>
<feOffset/>
<feGaussianBlur stdDeviation="10"/>
<feComposite in2="hardAlpha" operator="out"/>
<feColorMatrix type="matrix" values="0 0 0 0 0 0 0 0 0 0 0 0 0 0 0 0 0 0 0.1 0"/>
<feBlend mode="normal" in2="BackgroundImageFix" result="effect1_dropShadow_119_806"/>
<feBlend mode="normal" in="SourceGraphic" in2="effect1_dropShadow_119_806" result="shape"/>
</filter>
<filter id="filter3_d_119_806" x="99" y="202" width="121" height="121" filterUnits="userSpaceOnUse" color-interpolation-filters="sRGB">
<feFlood flood-opacity="0" result="BackgroundImageFix"/>
<feColorMatrix in="SourceAlpha" type="matrix" values="0 0 0 0 0 0 0 0 0 0 0 0 0 0 0 0 0 0 127 0" result="hardAlpha"/>
<feMorphology radius="1" operator="dilate" in="SourceAlpha" result="effect1_dropShadow_119_806"/>
<feOffset/>
<feGaussianBlur stdDeviation="10"/>
<feComposite in2="hardAlpha" operator="out"/>
<feColorMatrix type="matrix" values="0 0 0 0 0 0 0 0 0 0 0 0 0 0 0 0 0 0 0.1 0"/>
<feBlend mode="normal" in2="BackgroundImageFix" result="effect1_dropShadow_119_806"/>
<feBlend mode="normal" in="SourceGraphic" in2="effect1_dropShadow_119_806" result="shape"/>
</filter>
<filter id="filter4_d_119_806" x="6" y="433" width="308" height="62" filterUnits="userSpaceOnUse" color-interpolation-filters="sRGB">
<feFlood flood-opacity="0" result="BackgroundImageFix"/>
<feColorMatrix in="SourceAlpha" type="matrix" values="0 0 0 0 0 0 0 0 0 0 0 0 0 0 0 0 0 0 127 0" result="hardAlpha"/>
<feMorphology radius="3" operator="dilate" in="SourceAlpha" result="effect1_dropShadow_119_806"/>
<feOffset/>
<feGaussianBlur stdDeviation="3.5"/>
<feComposite in2="hardAlpha" operator="out"/>
<feColorMatrix type="matrix" values="0 0 0 0 0 0 0 0 0 0 0 0 0 0 0 0 0 0 0.12 0"/>
<feBlend mode="normal" in2="BackgroundImageFix" result="effect1_dropShadow_119_806"/>
<feBlend mode="normal" in="SourceGraphic" in2="effect1_dropShadow_119_806" result="shape"/>
</filter>
<radialGradient id="paint0_radial_119_806" cx="0" cy="0" r="1" gradientUnits="userSpaceOnUse" gradientTransform="translate(159.5 262.5) rotate(90) scale(39.5)">
<stop stop-color="#7CE495"/>
<stop offset="1" stop-color="#359D9E"/>
</radialGradient>
<linearGradient id="paint1_linear_119_806" x1="85.5" y1="395" x2="176" y2="617.5" gradientUnits="userSpaceOnUse">
<stop stop-color="#215273"/>
<stop offset="1" stop-color="#359D9E"/>
</linearGradient>
<clipPath id="clip0_119_806">
<rect width="320" height="568" fill="white"/>
</clipPath>
</defs>
</svg>
