<svg width="320" height="568" viewBox="0 0 320 568" fill="none" xmlns="http://www.w3.org/2000/svg">
<g clip-path="url(#clip0_132_921)">
<rect width="320" height="568" fill="white"/>
<rect width="320" height="395" transform="translate(0 173)" fill="url(#paint0_linear_132_921)"/>
<g filter="url(#filter0_d_132_921)">
<rect x="16" y="443" width="288" height="42" rx="6" fill="url(#paint1_linear_132_921)" shape-rendering="crispEdges"/>
<path d="M147.221 468.5V461.78H147.282L151.65 468.5H153.011V459.169H151.521V465.868H151.452L147.098 459.169H145.73V468.5H147.221ZM158.24 468.623C158.728 468.623 159.149 468.557 159.505 468.425C159.865 468.293 160.161 468.124 160.394 467.919C160.631 467.709 160.811 467.486 160.934 467.249C161.061 467.012 161.136 466.789 161.159 466.579H159.676C159.639 466.729 159.557 466.868 159.43 466.996C159.307 467.119 159.143 467.219 158.938 467.297C158.732 467.37 158.498 467.406 158.233 467.406C157.7 467.406 157.285 467.235 156.989 466.894C156.698 466.547 156.552 466.117 156.552 465.602V465.246H161.241V464.398C161.241 463.733 161.109 463.159 160.845 462.676C160.58 462.193 160.216 461.819 159.751 461.555C159.291 461.286 158.757 461.151 158.151 461.151C157.563 461.151 157.035 461.281 156.565 461.541C156.101 461.796 155.731 462.165 155.458 462.648C155.185 463.132 155.048 463.715 155.048 464.398V465.376C155.048 466.055 155.178 466.638 155.438 467.126C155.697 467.609 156.066 467.98 156.545 468.24C157.023 468.495 157.589 468.623 158.24 468.623ZM156.552 464.255C156.552 464.241 156.552 464.228 156.552 464.214C156.552 464.196 156.552 464.177 156.552 464.159C156.552 463.795 156.618 463.478 156.75 463.209C156.882 462.936 157.069 462.724 157.311 462.573C157.552 462.423 157.835 462.348 158.158 462.348C158.482 462.348 158.762 462.423 158.999 462.573C159.241 462.724 159.427 462.936 159.56 463.209C159.692 463.478 159.758 463.795 159.758 464.159C159.758 464.177 159.758 464.196 159.758 464.214C159.758 464.228 159.758 464.241 159.758 464.255H156.552ZM167.209 468.5H168.945C168.918 468.445 168.843 468.327 168.72 468.145C168.601 467.962 168.455 467.741 168.282 467.481C168.114 467.222 167.934 466.951 167.742 466.668C167.555 466.381 167.378 466.107 167.209 465.848C167.04 465.588 166.895 465.367 166.771 465.185C166.653 465.002 166.578 464.884 166.546 464.829L168.952 461.274H167.264L165.705 463.831H165.644L164.133 461.274H162.355C162.387 461.329 162.463 461.45 162.581 461.637C162.7 461.819 162.843 462.038 163.012 462.293C163.18 462.548 163.358 462.817 163.545 463.1C163.732 463.382 163.91 463.651 164.078 463.906C164.247 464.161 164.39 464.382 164.509 464.569C164.627 464.752 164.702 464.868 164.734 464.918L162.403 468.5H164.051L165.603 465.937H165.664L167.209 468.5ZM170.976 461.322H169.854V462.512H170.955V466.47C170.955 466.948 171.019 467.342 171.146 467.652C171.274 467.958 171.5 468.183 171.823 468.329C172.151 468.475 172.607 468.548 173.19 468.548C173.364 468.548 173.553 468.539 173.758 468.521C173.967 468.507 174.102 468.495 174.161 468.486V467.324C174.102 467.329 174.013 467.336 173.895 467.345C173.781 467.349 173.671 467.352 173.566 467.352C173.161 467.352 172.874 467.283 172.705 467.146C172.541 467.005 172.459 466.739 172.459 466.347V462.512H174.072V461.322H172.459V459.518H170.976V461.322Z" fill="white"/>
</g>
<path d="M145.23 526.5H148.881C149.528 526.5 150.095 526.397 150.583 526.192C151.071 525.983 151.449 525.682 151.718 525.29C151.991 524.898 152.128 524.426 152.128 523.875C152.128 523.424 152.039 523.036 151.861 522.713C151.684 522.385 151.44 522.127 151.13 521.94C150.825 521.749 150.474 521.631 150.077 521.585V521.517C150.387 521.43 150.658 521.296 150.891 521.113C151.123 520.931 151.303 520.703 151.431 520.43C151.563 520.152 151.629 519.83 151.629 519.466C151.629 518.75 151.385 518.19 150.897 517.784C150.414 517.374 149.765 517.169 148.949 517.169H145.23V526.5ZM146.775 518.399H148.621C149.086 518.399 149.446 518.518 149.701 518.755C149.961 518.987 150.091 519.311 150.091 519.726C150.091 520.031 150.018 520.288 149.872 520.498C149.731 520.703 149.514 520.858 149.223 520.963C148.931 521.063 148.553 521.113 148.088 521.113H146.775V518.399ZM146.775 522.282H148.751C149.134 522.282 149.46 522.344 149.729 522.467C149.997 522.585 150.2 522.761 150.337 522.993C150.478 523.221 150.549 523.497 150.549 523.82C150.549 524.312 150.369 524.677 150.009 524.914C149.653 525.151 149.07 525.27 148.259 525.27H146.775V522.282ZM155.977 526.609C156.337 526.609 156.646 526.562 156.906 526.466C157.171 526.366 157.392 526.236 157.569 526.076C157.747 525.917 157.888 525.746 157.993 525.563H158.062V526.5H159.504V521.605C159.504 521.004 159.376 520.525 159.121 520.17C158.866 519.814 158.524 519.559 158.096 519.404C157.667 519.245 157.196 519.165 156.681 519.165C156.229 519.165 155.833 519.213 155.491 519.309C155.154 519.404 154.869 519.543 154.637 519.726C154.409 519.903 154.231 520.118 154.104 520.368C153.98 520.614 153.908 520.888 153.885 521.188H155.327C155.368 521.024 155.439 520.883 155.539 520.765C155.639 520.642 155.778 520.546 155.956 520.478C156.134 520.405 156.359 520.368 156.633 520.368C157.048 520.368 157.378 520.468 157.624 520.669C157.87 520.865 157.993 521.17 157.993 521.585V522.262H156.168C155.334 522.262 154.698 522.46 154.261 522.856C153.828 523.248 153.611 523.763 153.611 524.401C153.611 525.076 153.83 525.614 154.268 526.015C154.71 526.411 155.279 526.609 155.977 526.609ZM156.441 525.434C156.104 525.434 155.801 525.345 155.532 525.167C155.268 524.985 155.136 524.704 155.136 524.326C155.136 524.021 155.236 523.77 155.437 523.574C155.642 523.378 155.965 523.28 156.407 523.28H157.993V524.06C157.993 524.324 157.923 524.559 157.781 524.764C157.645 524.969 157.46 525.133 157.228 525.256C156.995 525.374 156.733 525.434 156.441 525.434ZM161.411 523.39C161.411 524.055 161.536 524.629 161.787 525.112C162.042 525.595 162.402 525.969 162.867 526.233C163.332 526.493 163.886 526.623 164.528 526.623C165.175 526.623 165.711 526.518 166.135 526.309C166.563 526.094 166.884 525.814 167.099 525.468C167.317 525.117 167.434 524.739 167.447 524.333H166.012C165.975 524.524 165.905 524.7 165.8 524.859C165.7 525.014 165.549 525.137 165.349 525.229C165.153 525.32 164.893 525.365 164.569 525.365C164.059 525.365 163.658 525.188 163.366 524.832C163.079 524.477 162.936 523.996 162.936 523.39V522.378C162.936 521.781 163.075 521.305 163.353 520.949C163.631 520.594 164.034 520.416 164.562 520.416C164.9 520.416 165.166 520.475 165.362 520.594C165.558 520.712 165.702 520.858 165.793 521.031C165.889 521.2 165.948 521.362 165.971 521.517H167.406C167.397 521.102 167.281 520.717 167.058 520.361C166.834 520.001 166.511 519.71 166.087 519.486C165.668 519.263 165.148 519.151 164.528 519.151C163.895 519.151 163.343 519.284 162.874 519.548C162.409 519.812 162.049 520.184 161.794 520.662C161.539 521.136 161.411 521.697 161.411 522.344V523.39ZM170.817 523.916L171.405 523.294L173.668 526.5H175.459L172.54 522.405L175.274 519.274H173.545L170.886 522.405H170.817V516.677H169.307V526.5H170.817V523.916Z" fill="#2F2F2F"/>
<rect x="16.5" y="501.5" width="287" height="41" rx="5.5" stroke="#359D9E"/>
<path d="M-16 437H37.9" stroke="black" stroke-opacity="0.2" stroke-width="0.5"/>
<path d="M-16 382H37.9" stroke="black" stroke-opacity="0.2" stroke-width="0.5"/>
<path d="M-16 327H37.9" stroke="black" stroke-opacity="0.2" stroke-width="0.5"/>
<path d="M-16 272H37.9" stroke="black" stroke-opacity="0.2" stroke-width="0.5"/>
<path d="M-16 217H37.9" stroke="black" stroke-opacity="0.2" stroke-width="0.5"/>
<path d="M-16 162H37.9" stroke="black" stroke-opacity="0.2" stroke-width="0.5"/>
<path d="M-16 107H37.9" stroke="black" stroke-opacity="0.2" stroke-width="0.5"/>
<path d="M-16 52H37.9" stroke="black" stroke-opacity="0.2" stroke-width="0.5"/>
<path d="M-16 426H10.95" stroke="black" stroke-opacity="0.2" stroke-width="0.5"/>
<path d="M-16 371H10.95" stroke="black" stroke-opacity="0.2" stroke-width="0.5"/>
<path d="M-16 316H10.95" stroke="black" stroke-opacity="0.2" stroke-width="0.5"/>
<path d="M-16 261H10.95" stroke="black" stroke-opacity="0.2" stroke-width="0.5"/>
<path d="M-16 206H10.95" stroke="black" stroke-opacity="0.2" stroke-width="0.5"/>
<path d="M-16 151H10.95" stroke="black" stroke-opacity="0.2" stroke-width="0.5"/>
<path d="M-16 96H10.95" stroke="black" stroke-opacity="0.2" stroke-width="0.5"/>
<path d="M-16 41H10.95" stroke="black" stroke-opacity="0.2" stroke-width="0.5"/>
<path d="M-16 415H10.95" stroke="black" stroke-opacity="0.2" stroke-width="0.5"/>
<path d="M-16 360H10.95" stroke="black" stroke-opacity="0.2" stroke-width="0.5"/>
<path d="M-16 305H10.95" stroke="black" stroke-opacity="0.2" stroke-width="0.5"/>
<path d="M-16 250H10.95" stroke="black" stroke-opacity="0.2" stroke-width="0.5"/>
<path d="M-16 195H10.95" stroke="black" stroke-opacity="0.2" stroke-width="0.5"/>
<path d="M-16 140H10.95" stroke="black" stroke-opacity="0.2" stroke-width="0.5"/>
<path d="M-16 85H10.95" stroke="black" stroke-opacity="0.2" stroke-width="0.5"/>
<path d="M-16 30H10.95" stroke="black" stroke-opacity="0.2" stroke-width="0.5"/>
<path d="M-16 404H10.95" stroke="black" stroke-opacity="0.2" stroke-width="0.5"/>
<path d="M-16 349H10.95" stroke="black" stroke-opacity="0.2" stroke-width="0.5"/>
<path d="M-16 294H10.95" stroke="black" stroke-opacity="0.2" stroke-width="0.5"/>
<path d="M-16 239H10.95" stroke="black" stroke-opacity="0.2" stroke-width="0.5"/>
<path d="M-16 184H10.95" stroke="black" stroke-opacity="0.2" stroke-width="0.5"/>
<path d="M-16 129H10.95" stroke="black" stroke-opacity="0.2" stroke-width="0.5"/>
<path d="M-16 74H10.95" stroke="black" stroke-opacity="0.2" stroke-width="0.5"/>
<path d="M-16 19H10.95" stroke="black" stroke-opacity="0.2" stroke-width="0.5"/>
<path d="M-16 393H10.95" stroke="black" stroke-opacity="0.2" stroke-width="0.5"/>
<path d="M-16 338H10.95" stroke="black" stroke-opacity="0.2" stroke-width="0.5"/>
<path d="M-16 283H10.95" stroke="black" stroke-opacity="0.2" stroke-width="0.5"/>
<path d="M-16 228H10.95" stroke="black" stroke-opacity="0.2" stroke-width="0.5"/>
<path d="M-16 173H10.95" stroke="black" stroke-opacity="0.2" stroke-width="0.5"/>
<path d="M-16 118H10.95" stroke="black" stroke-opacity="0.2" stroke-width="0.5"/>
<path d="M-16 63H10.95" stroke="black" stroke-opacity="0.2" stroke-width="0.5"/>
<path d="M-16 8H10.95" stroke="black" stroke-opacity="0.2" stroke-width="0.5"/>
<path d="M336 437H282.1" stroke="black" stroke-opacity="0.2" stroke-width="0.5"/>
<path d="M336 382H282.1" stroke="black" stroke-opacity="0.2" stroke-width="0.5"/>
<path d="M336 327H282.1" stroke="black" stroke-opacity="0.2" stroke-width="0.5"/>
<path d="M336 272H282.1" stroke="black" stroke-opacity="0.2" stroke-width="0.5"/>
<path d="M336 217H282.1" stroke="black" stroke-opacity="0.2" stroke-width="0.5"/>
<path d="M336 162H282.1" stroke="black" stroke-opacity="0.2" stroke-width="0.5"/>
<path d="M336 107H282.1" stroke="black" stroke-opacity="0.2" stroke-width="0.5"/>
<path d="M336 52H282.1" stroke="black" stroke-opacity="0.2" stroke-width="0.5"/>
<path d="M336 426H309.05" stroke="black" stroke-opacity="0.2" stroke-width="0.5"/>
<path d="M336 371H309.05" stroke="black" stroke-opacity="0.2" stroke-width="0.5"/>
<path d="M336 316H309.05" stroke="black" stroke-opacity="0.2" stroke-width="0.5"/>
<path d="M336 261H309.05" stroke="black" stroke-opacity="0.2" stroke-width="0.5"/>
<path d="M336 206H309.05" stroke="black" stroke-opacity="0.2" stroke-width="0.5"/>
<path d="M336 151H309.05" stroke="black" stroke-opacity="0.2" stroke-width="0.5"/>
<path d="M336 96H309.05" stroke="black" stroke-opacity="0.2" stroke-width="0.5"/>
<path d="M336 41H309.05" stroke="black" stroke-opacity="0.2" stroke-width="0.5"/>
<path d="M336 415H309.05" stroke="black" stroke-opacity="0.2" stroke-width="0.5"/>
<path d="M336 360H309.05" stroke="black" stroke-opacity="0.2" stroke-width="0.5"/>
<path d="M336 305H309.05" stroke="black" stroke-opacity="0.2" stroke-width="0.5"/>
<path d="M336 250H309.05" stroke="black" stroke-opacity="0.2" stroke-width="0.5"/>
<path d="M336 195H309.05" stroke="black" stroke-opacity="0.2" stroke-width="0.5"/>
<path d="M336 140H309.05" stroke="black" stroke-opacity="0.2" stroke-width="0.5"/>
<path d="M336 85H309.05" stroke="black" stroke-opacity="0.2" stroke-width="0.5"/>
<path d="M336 30H309.05" stroke="black" stroke-opacity="0.2" stroke-width="0.5"/>
<path d="M336 404H309.05" stroke="black" stroke-opacity="0.2" stroke-width="0.5"/>
<path d="M336 349H309.05" stroke="black" stroke-opacity="0.2" stroke-width="0.5"/>
<path d="M336 294H309.05" stroke="black" stroke-opacity="0.2" stroke-width="0.5"/>
<path d="M336 239H309.05" stroke="black" stroke-opacity="0.2" stroke-width="0.5"/>
<path d="M336 184H309.05" stroke="black" stroke-opacity="0.2" stroke-width="0.5"/>
<path d="M336 129H309.05" stroke="black" stroke-opacity="0.2" stroke-width="0.5"/>
<path d="M336 74H309.05" stroke="black" stroke-opacity="0.2" stroke-width="0.5"/>
<path d="M336 19H309.05" stroke="black" stroke-opacity="0.2" stroke-width="0.5"/>
<path d="M336 393H309.05" stroke="black" stroke-opacity="0.2" stroke-width="0.5"/>
<path d="M336 338H309.05" stroke="black" stroke-opacity="0.2" stroke-width="0.5"/>
<path d="M336 283H309.05" stroke="black" stroke-opacity="0.2" stroke-width="0.5"/>
<path d="M336 228H309.05" stroke="black" stroke-opacity="0.2" stroke-width="0.5"/>
<path d="M336 173H309.05" stroke="black" stroke-opacity="0.2" stroke-width="0.5"/>
<path d="M336 118H309.05" stroke="black" stroke-opacity="0.2" stroke-width="0.5"/>
<path d="M336 63H309.05" stroke="black" stroke-opacity="0.2" stroke-width="0.5"/>
<path d="M336 8H309.05" stroke="black" stroke-opacity="0.2" stroke-width="0.5"/>
<path d="M80.8359 61L81.5312 58.5391H84.8359L85.5312 61H88.2578L84.8359 50.3359H81.7109L78.2734 61H80.8359ZM83.2578 52.6328L84.375 56.6875H82.0078L83.1406 52.6328H83.2578ZM89.7734 61H94.5703C95.263 61 95.888 60.8828 96.4453 60.6484C97.0078 60.4089 97.4531 60.0651 97.7812 59.6172C98.1094 59.1641 98.2734 58.6172 98.2734 57.9766C98.2734 57.4193 98.1536 56.9557 97.9141 56.5859C97.6797 56.2109 97.3776 55.9271 97.0078 55.7344C96.6432 55.5365 96.263 55.4245 95.8672 55.3984V55.2812C96.2109 55.2135 96.526 55.0833 96.8125 54.8906C97.099 54.6979 97.3281 54.4401 97.5 54.1172C97.6771 53.7943 97.7656 53.4062 97.7656 52.9531C97.7656 52.1302 97.4661 51.4896 96.8672 51.0312C96.2682 50.5677 95.4766 50.3359 94.4922 50.3359H89.7734V61ZM92.3125 52.1562H93.8438C94.2969 52.1562 94.6458 52.2682 94.8906 52.4922C95.1354 52.7161 95.2578 53.0182 95.2578 53.3984C95.2578 53.6536 95.1979 53.8776 95.0781 54.0703C94.9635 54.2578 94.7812 54.4062 94.5312 54.5156C94.2812 54.6198 93.9583 54.6719 93.5625 54.6719H92.3125V52.1562ZM92.3125 56.3281H93.9609C94.3411 56.3281 94.6562 56.388 94.9062 56.5078C95.1615 56.6224 95.3516 56.7891 95.4766 57.0078C95.6068 57.2214 95.6719 57.474 95.6719 57.7656C95.6719 58.2031 95.5182 58.5495 95.2109 58.8047C94.9036 59.0547 94.401 59.1797 93.7031 59.1797H92.3125V56.3281ZM106.625 55.0312V56.3125C106.625 56.9271 106.534 57.4427 106.352 57.8594C106.174 58.276 105.927 58.5885 105.609 58.7969C105.292 59.0052 104.922 59.1094 104.5 59.1094C104.073 59.1094 103.701 59.0052 103.383 58.7969C103.065 58.5885 102.815 58.276 102.633 57.8594C102.456 57.4427 102.367 56.9271 102.367 56.3125V55.0312C102.367 54.4115 102.456 53.8958 102.633 53.4844C102.815 53.0677 103.065 52.7552 103.383 52.5469C103.701 52.3385 104.073 52.2344 104.5 52.2344C104.922 52.2344 105.292 52.3385 105.609 52.5469C105.927 52.7552 106.174 53.0677 106.352 53.4844C106.534 53.8958 106.625 54.4115 106.625 55.0312ZM109.242 56.3047V55.0625C109.242 54.0521 109.055 53.1823 108.68 52.4531C108.31 51.7188 107.771 51.151 107.062 50.75C106.359 50.349 105.505 50.1484 104.5 50.1484C103.5 50.1484 102.643 50.3464 101.93 50.7422C101.221 51.138 100.68 51.7057 100.305 52.4453C99.9349 53.1797 99.75 54.0521 99.75 55.0625V56.3047C99.75 57.2995 99.9349 58.1641 100.305 58.8984C100.68 59.6328 101.221 60.2005 101.93 60.6016C102.643 60.9974 103.5 61.1953 104.5 61.1953C105.505 61.1953 106.359 60.9974 107.062 60.6016C107.771 60.2005 108.31 59.6328 108.68 58.8984C109.055 58.1641 109.242 57.2995 109.242 56.3047ZM115.648 59.0547C115.086 59.0547 114.628 58.8854 114.273 58.5469C113.924 58.2083 113.75 57.6979 113.75 57.0156V50.3359H111.188V57.3125C111.188 58.0938 111.367 58.776 111.727 59.3594C112.091 59.9427 112.607 60.3958 113.273 60.7188C113.945 61.0365 114.737 61.1953 115.648 61.1953C116.565 61.1953 117.357 61.0365 118.023 60.7188C118.69 60.3958 119.206 59.9427 119.57 59.3594C119.935 58.776 120.117 58.0938 120.117 57.3125V50.3359H117.555V57.0156C117.555 57.6875 117.378 58.1953 117.023 58.5391C116.669 58.8828 116.211 59.0547 115.648 59.0547ZM127.016 61V52.4375H129.922V50.3359H121.547V52.4375H124.453V61H127.016ZM139.875 61V57.2109L143.445 50.3359H140.727L138.68 54.7344H138.578L136.547 50.3359H133.734L137.305 57.2734V61H139.875ZM150.812 55.0312V56.3125C150.812 56.9271 150.721 57.4427 150.539 57.8594C150.362 58.276 150.115 58.5885 149.797 58.7969C149.479 59.0052 149.109 59.1094 148.688 59.1094C148.26 59.1094 147.888 59.0052 147.57 58.7969C147.253 58.5885 147.003 58.276 146.82 57.8594C146.643 57.4427 146.555 56.9271 146.555 56.3125V55.0312C146.555 54.4115 146.643 53.8958 146.82 53.4844C147.003 53.0677 147.253 52.7552 147.57 52.5469C147.888 52.3385 148.26 52.2344 148.688 52.2344C149.109 52.2344 149.479 52.3385 149.797 52.5469C150.115 52.7552 150.362 53.0677 150.539 53.4844C150.721 53.8958 150.812 54.4115 150.812 55.0312ZM153.43 56.3047V55.0625C153.43 54.0521 153.242 53.1823 152.867 52.4531C152.497 51.7188 151.958 51.151 151.25 50.75C150.547 50.349 149.693 50.1484 148.688 50.1484C147.688 50.1484 146.831 50.3464 146.117 50.7422C145.409 51.138 144.867 51.7057 144.492 52.4453C144.122 53.1797 143.938 54.0521 143.938 55.0625V56.3047C143.938 57.2995 144.122 58.1641 144.492 58.8984C144.867 59.6328 145.409 60.2005 146.117 60.6016C146.831 60.9974 147.688 61.1953 148.688 61.1953C149.693 61.1953 150.547 60.9974 151.25 60.6016C151.958 60.2005 152.497 59.6328 152.867 58.8984C153.242 58.1641 153.43 57.2995 153.43 56.3047ZM159.836 59.0547C159.273 59.0547 158.815 58.8854 158.461 58.5469C158.112 58.2083 157.938 57.6979 157.938 57.0156V50.3359H155.375V57.3125C155.375 58.0938 155.555 58.776 155.914 59.3594C156.279 59.9427 156.794 60.3958 157.461 60.7188C158.133 61.0365 158.924 61.1953 159.836 61.1953C160.753 61.1953 161.544 61.0365 162.211 60.7188C162.878 60.3958 163.393 59.9427 163.758 59.3594C164.122 58.776 164.305 58.0938 164.305 57.3125V50.3359H161.742V57.0156C161.742 57.6875 161.565 58.1953 161.211 58.5391C160.857 58.8828 160.398 59.0547 159.836 59.0547ZM171.188 50.3359H166.68V61H169.203V57.1875H170.68L172.484 61H175.328L173.203 56.8281C173.479 56.7135 173.763 56.526 174.055 56.2656C174.352 56.0052 174.602 55.6719 174.805 55.2656C175.008 54.8542 175.109 54.375 175.109 53.8281C175.109 53.125 174.958 52.513 174.656 51.9922C174.354 51.4661 173.911 51.0599 173.328 50.7734C172.745 50.4818 172.031 50.3359 171.188 50.3359ZM169.203 55.3672V52.2578H170.805C171.279 52.2578 171.674 52.3932 171.992 52.6641C172.31 52.9349 172.469 53.3281 172.469 53.8438C172.469 54.3542 172.312 54.737 172 54.9922C171.688 55.2422 171.281 55.3672 170.781 55.3672H169.203ZM184.766 61L186.586 54.1719H186.68L188.492 61H190.883L193.617 50.3359H190.906L189.555 57.5859H189.43L187.68 50.3359H185.586L183.844 57.5859H183.719L182.352 50.3359H179.641L182.383 61H184.766ZM202.234 58.9609H197.625V56.5703H201.953V54.6953H197.625V52.375H202.234V50.3359H195.086V61H202.234V58.9609ZM206.023 61L206.719 58.5391H210.023L210.719 61H213.445L210.023 50.3359H206.898L203.461 61H206.023ZM208.445 52.6328L209.562 56.6875H207.195L208.328 52.6328H208.445ZM221.812 58.8594H217.531V50.3359H214.961V61H221.812V58.8594ZM227.203 61V52.4375H230.109V50.3359H221.734V52.4375H224.641V61H227.203ZM240.719 61V50.3359H238.148V54.5547H234.219V50.3359H231.648V61H234.219V56.6328H238.148V61H240.719Z" fill="#2F2F2F"/>
<path d="M105.688 118.922H108.047C108.786 118.922 109.406 119.047 109.906 119.297C110.417 119.536 110.802 119.865 111.062 120.281C111.323 120.698 111.453 121.167 111.453 121.688C111.464 122.219 111.333 122.698 111.062 123.125C110.792 123.542 110.406 123.875 109.906 124.125C109.406 124.375 108.807 124.5 108.109 124.5C107.443 124.5 106.854 124.385 106.344 124.156C105.844 123.917 105.443 123.594 105.141 123.188C104.839 122.781 104.672 122.323 104.641 121.812H99.9375C99.9583 122.979 100.255 124.062 100.828 125.062C101.411 126.062 102.292 126.87 103.469 127.484C104.656 128.089 106.161 128.391 107.984 128.391C109.13 128.391 110.219 128.245 111.25 127.953C112.281 127.661 113.193 127.24 113.984 126.688C114.786 126.135 115.417 125.464 115.875 124.672C116.333 123.88 116.562 122.99 116.562 122C116.552 120.865 116.318 119.932 115.859 119.203C115.401 118.464 114.828 117.901 114.141 117.516C113.453 117.13 112.766 116.917 112.078 116.875V116.656C112.62 116.583 113.188 116.365 113.781 116C114.385 115.635 114.896 115.115 115.312 114.438C115.729 113.75 115.932 112.901 115.922 111.891C115.911 110.786 115.562 109.812 114.875 108.969C114.198 108.125 113.281 107.469 112.125 107C110.969 106.531 109.656 106.297 108.188 106.297C106.948 106.297 105.844 106.458 104.875 106.781C103.906 107.094 103.083 107.536 102.406 108.109C101.729 108.682 101.208 109.365 100.844 110.156C100.479 110.948 100.281 111.818 100.25 112.766H105.016C105.026 112.443 105.099 112.125 105.234 111.812C105.37 111.5 105.562 111.219 105.812 110.969C106.062 110.708 106.37 110.5 106.734 110.344C107.099 110.188 107.516 110.109 107.984 110.109C108.849 110.109 109.552 110.344 110.094 110.812C110.646 111.271 110.922 111.849 110.922 112.547C110.922 113.047 110.802 113.495 110.562 113.891C110.323 114.276 109.979 114.578 109.531 114.797C109.083 115.016 108.557 115.125 107.953 115.125H105.688V118.922ZM123.719 116.656C123.719 115.24 123.854 114.068 124.125 113.141C124.406 112.214 124.792 111.526 125.281 111.078C125.781 110.62 126.354 110.391 127 110.391C127.656 110.391 128.229 110.62 128.719 111.078C129.219 111.536 129.604 112.229 129.875 113.156C130.156 114.073 130.297 115.24 130.297 116.656V117.984C130.297 119.401 130.156 120.578 129.875 121.516C129.604 122.443 129.219 123.141 128.719 123.609C128.229 124.068 127.656 124.297 127 124.297C126.354 124.297 125.781 124.068 125.281 123.609C124.792 123.141 124.406 122.443 124.125 121.516C123.854 120.578 123.719 119.401 123.719 117.984V116.656ZM118.594 118.016C118.594 120.057 118.911 121.859 119.547 123.422C120.193 124.984 121.135 126.203 122.375 127.078C123.625 127.953 125.151 128.391 126.953 128.391C128.37 128.391 129.604 128.125 130.656 127.594C131.719 127.052 132.604 126.307 133.312 125.359C134.021 124.411 134.547 123.312 134.891 122.062C135.245 120.802 135.422 119.453 135.422 118.016V116.641C135.422 114.568 135.099 112.755 134.453 111.203C133.818 109.651 132.88 108.448 131.641 107.594C130.401 106.729 128.875 106.297 127.062 106.297C125.271 106.297 123.74 106.729 122.469 107.594C121.208 108.458 120.245 109.672 119.578 111.234C118.922 112.786 118.594 114.589 118.594 116.641V118.016ZM137.641 125.562C137.641 126.323 137.917 126.979 138.469 127.531C139.021 128.083 139.677 128.359 140.438 128.359C141.208 128.359 141.865 128.083 142.406 127.531C142.958 126.979 143.234 126.323 143.234 125.562C143.234 124.792 142.958 124.135 142.406 123.594C141.865 123.042 141.208 122.766 140.438 122.766C139.677 122.766 139.021 123.042 138.469 123.594C137.917 124.135 137.641 124.792 137.641 125.562ZM150.562 116.656C150.562 115.24 150.698 114.068 150.969 113.141C151.25 112.214 151.635 111.526 152.125 111.078C152.625 110.62 153.198 110.391 153.844 110.391C154.5 110.391 155.073 110.62 155.562 111.078C156.062 111.536 156.448 112.229 156.719 113.156C157 114.073 157.141 115.24 157.141 116.656V117.984C157.141 119.401 157 120.578 156.719 121.516C156.448 122.443 156.062 123.141 155.562 123.609C155.073 124.068 154.5 124.297 153.844 124.297C153.198 124.297 152.625 124.068 152.125 123.609C151.635 123.141 151.25 122.443 150.969 121.516C150.698 120.578 150.562 119.401 150.562 117.984V116.656ZM145.438 118.016C145.438 120.057 145.755 121.859 146.391 123.422C147.036 124.984 147.979 126.203 149.219 127.078C150.469 127.953 151.995 128.391 153.797 128.391C155.214 128.391 156.448 128.125 157.5 127.594C158.562 127.052 159.448 126.307 160.156 125.359C160.865 124.411 161.391 123.312 161.734 122.062C162.089 120.802 162.266 119.453 162.266 118.016V116.641C162.266 114.568 161.943 112.755 161.297 111.203C160.661 109.651 159.724 108.448 158.484 107.594C157.245 106.729 155.719 106.297 153.906 106.297C152.115 106.297 150.583 106.729 149.312 107.594C148.052 108.458 147.089 109.672 146.422 111.234C145.766 112.786 145.438 114.589 145.438 116.641V118.016ZM169.531 116.656C169.531 115.24 169.667 114.068 169.938 113.141C170.219 112.214 170.604 111.526 171.094 111.078C171.594 110.62 172.167 110.391 172.812 110.391C173.469 110.391 174.042 110.62 174.531 111.078C175.031 111.536 175.417 112.229 175.688 113.156C175.969 114.073 176.109 115.24 176.109 116.656V117.984C176.109 119.401 175.969 120.578 175.688 121.516C175.417 122.443 175.031 123.141 174.531 123.609C174.042 124.068 173.469 124.297 172.812 124.297C172.167 124.297 171.594 124.068 171.094 123.609C170.604 123.141 170.219 122.443 169.938 121.516C169.667 120.578 169.531 119.401 169.531 117.984V116.656ZM164.406 118.016C164.406 120.057 164.724 121.859 165.359 123.422C166.005 124.984 166.948 126.203 168.188 127.078C169.438 127.953 170.964 128.391 172.766 128.391C174.182 128.391 175.417 128.125 176.469 127.594C177.531 127.052 178.417 126.307 179.125 125.359C179.833 124.411 180.359 123.312 180.703 122.062C181.057 120.802 181.234 119.453 181.234 118.016V116.641C181.234 114.568 180.911 112.755 180.266 111.203C179.63 109.651 178.693 108.448 177.453 107.594C176.214 106.729 174.688 106.297 172.875 106.297C171.083 106.297 169.552 106.729 168.281 107.594C167.021 108.458 166.057 109.672 165.391 111.234C164.734 112.786 164.406 114.589 164.406 116.641V118.016ZM188.5 116.656C188.5 115.24 188.635 114.068 188.906 113.141C189.188 112.214 189.573 111.526 190.062 111.078C190.562 110.62 191.135 110.391 191.781 110.391C192.438 110.391 193.01 110.62 193.5 111.078C194 111.536 194.385 112.229 194.656 113.156C194.938 114.073 195.078 115.24 195.078 116.656V117.984C195.078 119.401 194.938 120.578 194.656 121.516C194.385 122.443 194 123.141 193.5 123.609C193.01 124.068 192.438 124.297 191.781 124.297C191.135 124.297 190.562 124.068 190.062 123.609C189.573 123.141 189.188 122.443 188.906 121.516C188.635 120.578 188.5 119.401 188.5 117.984V116.656ZM183.375 118.016C183.375 120.057 183.693 121.859 184.328 123.422C184.974 124.984 185.917 126.203 187.156 127.078C188.406 127.953 189.932 128.391 191.734 128.391C193.151 128.391 194.385 128.125 195.438 127.594C196.5 127.052 197.385 126.307 198.094 125.359C198.802 124.411 199.328 123.312 199.672 122.062C200.026 120.802 200.203 119.453 200.203 118.016V116.641C200.203 114.568 199.88 112.755 199.234 111.203C198.599 109.651 197.661 108.448 196.422 107.594C195.182 106.729 193.656 106.297 191.844 106.297C190.052 106.297 188.521 106.729 187.25 107.594C185.99 108.458 185.026 109.672 184.359 111.234C183.703 112.786 183.375 114.589 183.375 116.641V118.016ZM218.891 128.062V124.062C218.516 124.146 218.068 124.214 217.547 124.266C217.036 124.318 216.417 124.344 215.688 124.344C214.354 124.344 213.208 124.078 212.25 123.547C211.302 123.016 210.568 122.271 210.047 121.312C209.536 120.354 209.281 119.245 209.281 117.984V116.703C209.281 115.432 209.536 114.323 210.047 113.375C210.568 112.417 211.302 111.672 212.25 111.141C213.208 110.599 214.354 110.328 215.688 110.328C216.417 110.328 217.036 110.354 217.547 110.406C218.068 110.458 218.516 110.531 218.891 110.625V106.625C218.495 106.521 218.016 106.443 217.453 106.391C216.901 106.328 216.297 106.297 215.641 106.297C213.37 106.297 211.391 106.724 209.703 107.578C208.016 108.432 206.703 109.635 205.766 111.188C204.828 112.74 204.359 114.552 204.359 116.625V118.062C204.359 120.135 204.828 121.948 205.766 123.5C206.703 125.042 208.016 126.245 209.703 127.109C211.391 127.964 213.37 128.391 215.641 128.391C216.297 128.391 216.901 128.359 217.453 128.297C218.016 128.234 218.495 128.156 218.891 128.062ZM202.766 116.125H216.859V114.406H202.766V116.125ZM202.766 120.078H216.859V118.359H202.766V120.078Z" fill="#2F2F2F"/>
<path d="M111.107 70.002V78H113.709C114.486 78 115.135 77.8477 115.654 77.543C116.178 77.2383 116.57 76.7891 116.832 76.1953C117.098 75.5977 117.23 74.8652 117.23 73.998C117.23 73.127 117.098 72.3945 116.832 71.8008C116.57 71.207 116.178 70.7598 115.654 70.459C115.135 70.1543 114.486 70.002 113.709 70.002H111.107ZM112.186 70.9453H113.633C114.188 70.9453 114.648 71.0586 115.016 71.2852C115.383 71.5117 115.656 71.8516 115.836 72.3047C116.02 72.7578 116.111 73.3242 116.111 74.0039C116.111 74.5156 116.059 74.9609 115.953 75.3398C115.852 75.7188 115.699 76.0352 115.496 76.2891C115.293 76.543 115.035 76.7344 114.723 76.8633C114.41 76.9883 114.047 77.0508 113.633 77.0508H112.186V70.9453ZM119.035 78H120.102V74.1914C120.102 73.9102 120.162 73.6582 120.283 73.4355C120.404 73.2129 120.584 73.0352 120.822 72.9023C121.064 72.7695 121.365 72.7031 121.725 72.7031C121.822 72.7031 121.916 72.707 122.006 72.7148C122.1 72.7188 122.172 72.7266 122.223 72.7383V71.7715C122.16 71.7637 122.096 71.7578 122.029 71.7539C121.967 71.7461 121.902 71.7422 121.836 71.7422C121.477 71.7422 121.182 71.8027 120.951 71.9238C120.721 72.041 120.543 72.1797 120.418 72.3398C120.293 72.5 120.203 72.6484 120.148 72.7852H120.096V71.8359H119.035V78ZM125.293 78.0996C125.598 78.0996 125.863 78.0586 126.09 77.9766C126.316 77.8906 126.508 77.7773 126.664 77.6367C126.824 77.4961 126.955 77.3438 127.057 77.1797H127.104V78H128.123V73.793C128.123 73.2891 128.018 72.8867 127.807 72.5859C127.596 72.2852 127.314 72.0684 126.963 71.9355C126.615 71.8027 126.229 71.7363 125.803 71.7363C125.459 71.7363 125.15 71.7734 124.877 71.8477C124.604 71.918 124.369 72.0234 124.174 72.1641C123.979 72.3008 123.824 72.4707 123.711 72.6738C123.602 72.873 123.535 73.1035 123.512 73.3652H124.537C124.58 73.2207 124.646 73.0938 124.736 72.9844C124.83 72.875 124.959 72.7891 125.123 72.7266C125.291 72.6641 125.506 72.6328 125.768 72.6328C126.162 72.6328 126.475 72.7266 126.705 72.9141C126.939 73.1016 127.057 73.3926 127.057 73.7871V74.3965H125.445C124.738 74.3965 124.199 74.5645 123.828 74.9004C123.461 75.2324 123.277 75.668 123.277 76.207C123.277 76.7773 123.463 77.2363 123.834 77.584C124.209 77.9277 124.695 78.0996 125.293 78.0996ZM125.586 77.209C125.266 77.209 124.98 77.125 124.73 76.957C124.484 76.7891 124.361 76.5273 124.361 76.1719C124.361 75.8945 124.451 75.6641 124.631 75.4805C124.814 75.2969 125.115 75.2051 125.533 75.2051H127.057V75.8906C127.057 76.1445 126.99 76.3711 126.857 76.5703C126.729 76.7656 126.555 76.9219 126.336 77.0391C126.117 77.1523 125.867 77.209 125.586 77.209ZM132.406 79.3652C132.137 79.3652 131.902 79.3281 131.703 79.2539C131.508 79.1836 131.352 79.0879 131.234 78.9668C131.117 78.8457 131.045 78.7129 131.018 78.5684H129.939C129.967 78.8652 130.072 79.1406 130.256 79.3945C130.439 79.6523 130.705 79.8594 131.053 80.0156C131.404 80.1758 131.844 80.2559 132.371 80.2559C132.766 80.2559 133.127 80.209 133.455 80.1152C133.787 80.0215 134.074 79.875 134.316 79.6758C134.559 79.4766 134.746 79.2227 134.879 78.9141C135.016 78.6055 135.084 78.2383 135.084 77.8125V71.8359H134.07V72.7676H134.018C133.951 72.5957 133.836 72.4316 133.672 72.2754C133.508 72.1191 133.303 71.9922 133.057 71.8945C132.814 71.793 132.539 71.7422 132.23 71.7422C131.777 71.7422 131.367 71.8457 131 72.0527C130.633 72.2598 130.342 72.5586 130.127 72.9492C129.912 73.3359 129.805 73.8008 129.805 74.3438V75.2988C129.805 75.8379 129.912 76.3027 130.127 76.6934C130.342 77.0801 130.633 77.377 131 77.584C131.371 77.7871 131.783 77.8887 132.236 77.8887C132.451 77.8887 132.65 77.8633 132.834 77.8125C133.018 77.7617 133.184 77.6934 133.332 77.6074C133.48 77.5176 133.607 77.416 133.713 77.3027C133.822 77.1855 133.906 77.0586 133.965 76.9219H134.023V77.8184C134.023 78.3027 133.889 78.6816 133.619 78.9551C133.354 79.2285 132.949 79.3652 132.406 79.3652ZM132.494 72.6504C132.818 72.6504 133.094 72.7324 133.32 72.8965C133.547 73.0566 133.721 73.2676 133.842 73.5293C133.963 73.791 134.023 74.0723 134.023 74.373V75.3047C134.023 75.5938 133.965 75.8672 133.848 76.125C133.734 76.3828 133.564 76.5938 133.338 76.7578C133.115 76.918 132.838 76.998 132.506 76.998C132.189 76.998 131.906 76.9199 131.656 76.7637C131.41 76.6035 131.217 76.3828 131.076 76.1016C130.939 75.8164 130.871 75.4883 130.871 75.1172V74.5371C130.871 74.1621 130.938 73.834 131.07 73.5527C131.203 73.2676 131.391 73.0469 131.633 72.8906C131.875 72.7305 132.162 72.6504 132.494 72.6504ZM139.936 78H140.996V71.8359H139.936V78ZM139.713 69.9375C139.713 70.1484 139.783 70.3223 139.924 70.459C140.068 70.5957 140.246 70.6641 140.457 70.6641C140.68 70.6641 140.863 70.5957 141.008 70.459C141.152 70.3223 141.225 70.1484 141.225 69.9375C141.225 69.7227 141.152 69.5469 141.008 69.4102C140.863 69.2734 140.68 69.2051 140.457 69.2051C140.246 69.2051 140.068 69.2734 139.924 69.4102C139.783 69.5469 139.713 69.7227 139.713 69.9375ZM143.568 71.8535H142.619V72.7148H143.562V76.2715C143.562 76.6777 143.609 77.0137 143.703 77.2793C143.797 77.541 143.971 77.7363 144.225 77.8652C144.482 77.9902 144.855 78.0527 145.344 78.0527C145.461 78.0527 145.605 78.0469 145.777 78.0352C145.949 78.0234 146.057 78.0117 146.1 78V77.1504C146.053 77.1543 145.979 77.1602 145.877 77.168C145.775 77.1758 145.688 77.1797 145.613 77.1797C145.238 77.1797 144.979 77.1191 144.834 76.998C144.689 76.873 144.617 76.6289 144.617 76.2656V72.7148H146.012V71.8535H144.617V70.3066H143.568V71.8535ZM150.811 71.8535H149.861V72.7148H150.805V76.2715C150.805 76.6777 150.852 77.0137 150.945 77.2793C151.039 77.541 151.213 77.7363 151.467 77.8652C151.725 77.9902 152.098 78.0527 152.586 78.0527C152.703 78.0527 152.848 78.0469 153.02 78.0352C153.191 78.0234 153.299 78.0117 153.342 78V77.1504C153.295 77.1543 153.221 77.1602 153.119 77.168C153.018 77.1758 152.93 77.1797 152.855 77.1797C152.48 77.1797 152.221 77.1191 152.076 76.998C151.932 76.873 151.859 76.6289 151.859 76.2656V72.7148H153.254V71.8535H151.859V70.3066H150.811V71.8535ZM157.355 71.7363C156.844 71.7363 156.387 71.8477 155.984 72.0703C155.582 72.293 155.266 72.6074 155.035 73.0137C154.805 73.4199 154.689 73.9023 154.689 74.4609V75.3691C154.689 75.9512 154.803 76.4473 155.029 76.8574C155.26 77.2637 155.574 77.5723 155.973 77.7832C156.375 77.9941 156.836 78.0996 157.355 78.0996C157.867 78.0996 158.322 77.9941 158.721 77.7832C159.123 77.5684 159.439 77.2578 159.67 76.8516C159.9 76.4414 160.016 75.9473 160.016 75.3691V74.4551C160.016 73.8848 159.9 73.3965 159.67 72.9902C159.439 72.5801 159.123 72.2695 158.721 72.0586C158.322 71.8438 157.867 71.7363 157.355 71.7363ZM157.361 72.6387C157.689 72.6387 157.973 72.7207 158.211 72.8848C158.449 73.0449 158.631 73.2676 158.756 73.5527C158.885 73.8379 158.949 74.1699 158.949 74.5488V75.293C158.949 75.6758 158.887 76.0098 158.762 76.2949C158.641 76.5801 158.461 76.8027 158.223 76.9629C157.988 77.123 157.701 77.2031 157.361 77.2031C157.018 77.2031 156.725 77.123 156.482 76.9629C156.244 76.8027 156.062 76.5801 155.938 76.2949C155.812 76.0098 155.75 75.6758 155.75 75.293V74.5488C155.75 74.1738 155.814 73.8438 155.943 73.5586C156.076 73.2695 156.262 73.0449 156.5 72.8848C156.742 72.7207 157.029 72.6387 157.361 72.6387ZM164.662 78H165.723V71.8359H164.662V78ZM164.439 69.9375C164.439 70.1484 164.51 70.3223 164.65 70.459C164.795 70.5957 164.973 70.6641 165.184 70.6641C165.406 70.6641 165.59 70.5957 165.734 70.459C165.879 70.3223 165.951 70.1484 165.951 69.9375C165.951 69.7227 165.879 69.5469 165.734 69.4102C165.59 69.2734 165.406 69.2051 165.184 69.2051C164.973 69.2051 164.795 69.2734 164.65 69.4102C164.51 69.5469 164.439 69.7227 164.439 69.9375ZM167.961 78H169.021V74.5664C169.021 74.2109 169.08 73.8887 169.197 73.5996C169.314 73.3105 169.492 73.082 169.73 72.9141C169.973 72.7461 170.273 72.6621 170.633 72.6621C170.91 72.6621 171.148 72.7168 171.348 72.8262C171.547 72.9355 171.699 73.0996 171.805 73.3184C171.914 73.5332 171.969 73.8027 171.969 74.127V78H173.029V73.793C173.029 73.1016 172.836 72.5859 172.449 72.2461C172.062 71.9062 171.559 71.7363 170.938 71.7363C170.508 71.7363 170.166 71.8047 169.912 71.9414C169.658 72.0781 169.467 72.2402 169.338 72.4277C169.209 72.6152 169.119 72.791 169.068 72.9551H169.01V71.8359H167.961V78ZM174.787 75.4102C174.787 75.9609 174.891 76.4375 175.098 76.8398C175.309 77.2422 175.605 77.5527 175.988 77.7715C176.375 77.9902 176.832 78.0996 177.359 78.0996C177.902 78.0996 178.348 78.0137 178.695 77.8418C179.047 77.666 179.311 77.4395 179.486 77.1621C179.662 76.8809 179.756 76.5898 179.768 76.2891H178.736C178.701 76.4453 178.635 76.5918 178.537 76.7285C178.439 76.8613 178.297 76.9688 178.109 77.0508C177.926 77.1328 177.682 77.1738 177.377 77.1738C176.9 77.1738 176.525 77.0156 176.252 76.6992C175.982 76.3789 175.848 75.9531 175.848 75.4219V74.4375C175.848 73.8945 175.977 73.4629 176.234 73.1426C176.496 72.8223 176.877 72.6621 177.377 72.6621C177.697 72.6621 177.949 72.7168 178.133 72.8262C178.316 72.9316 178.449 73.0605 178.531 73.2129C178.617 73.3613 178.672 73.4961 178.695 73.6172H179.727C179.719 73.3086 179.625 73.0117 179.445 72.7266C179.266 72.4375 179.002 72.2012 178.654 72.0176C178.307 71.8301 177.875 71.7363 177.359 71.7363C176.832 71.7363 176.375 71.8457 175.988 72.0645C175.605 72.2832 175.309 72.5938 175.098 72.9961C174.891 73.3945 174.787 73.8633 174.787 74.4023V75.4102ZM181.543 78H182.609V74.1914C182.609 73.9102 182.67 73.6582 182.791 73.4355C182.912 73.2129 183.092 73.0352 183.33 72.9023C183.572 72.7695 183.873 72.7031 184.232 72.7031C184.33 72.7031 184.424 72.707 184.514 72.7148C184.607 72.7188 184.68 72.7266 184.73 72.7383V71.7715C184.668 71.7637 184.604 71.7578 184.537 71.7539C184.475 71.7461 184.41 71.7422 184.344 71.7422C183.984 71.7422 183.689 71.8027 183.459 71.9238C183.229 72.041 183.051 72.1797 182.926 72.3398C182.801 72.5 182.711 72.6484 182.656 72.7852H182.604V71.8359H181.543V78ZM188.475 78.0996C188.865 78.0996 189.205 78.0469 189.494 77.9414C189.783 77.8359 190.025 77.7012 190.221 77.5371C190.416 77.3691 190.566 77.1914 190.672 77.0039C190.781 76.8164 190.848 76.6406 190.871 76.4766H189.781C189.746 76.6016 189.67 76.7207 189.553 76.834C189.439 76.9434 189.289 77.0332 189.102 77.1035C188.918 77.1699 188.707 77.2031 188.469 77.2031C187.957 77.2031 187.566 77.0391 187.297 76.7109C187.027 76.3828 186.893 75.9805 186.893 75.5039V75.1934H190.953V74.4492C190.953 73.8984 190.844 73.4199 190.625 73.0137C190.406 72.6074 190.104 72.293 189.717 72.0703C189.334 71.8477 188.893 71.7363 188.393 71.7363C187.904 71.7363 187.467 71.8477 187.08 72.0703C186.693 72.2891 186.389 72.6016 186.166 73.0078C185.947 73.4102 185.838 73.8906 185.838 74.4492V75.3867C185.838 75.9414 185.941 76.4219 186.148 76.8281C186.359 77.2344 186.662 77.5488 187.057 77.7715C187.451 77.9902 187.924 78.0996 188.475 78.0996ZM186.893 74.4258C186.893 74.4102 186.893 74.3945 186.893 74.3789C186.893 74.3633 186.893 74.3457 186.893 74.3262C186.893 73.9863 186.955 73.6895 187.08 73.4355C187.205 73.1777 187.381 72.9785 187.607 72.8379C187.834 72.6973 188.098 72.627 188.398 72.627C188.699 72.627 188.961 72.6973 189.184 72.8379C189.41 72.9785 189.586 73.1777 189.711 73.4355C189.836 73.6895 189.898 73.9863 189.898 74.3262C189.898 74.3457 189.898 74.3633 189.898 74.3789C189.898 74.3945 189.898 74.4102 189.898 74.4258H186.893ZM194.375 78.0996C194.68 78.0996 194.945 78.0586 195.172 77.9766C195.398 77.8906 195.59 77.7773 195.746 77.6367C195.906 77.4961 196.037 77.3438 196.139 77.1797H196.186V78H197.205V73.793C197.205 73.2891 197.1 72.8867 196.889 72.5859C196.678 72.2852 196.396 72.0684 196.045 71.9355C195.697 71.8027 195.311 71.7363 194.885 71.7363C194.541 71.7363 194.232 71.7734 193.959 71.8477C193.686 71.918 193.451 72.0234 193.256 72.1641C193.061 72.3008 192.906 72.4707 192.793 72.6738C192.684 72.873 192.617 73.1035 192.594 73.3652H193.619C193.662 73.2207 193.729 73.0938 193.818 72.9844C193.912 72.875 194.041 72.7891 194.205 72.7266C194.373 72.6641 194.588 72.6328 194.85 72.6328C195.244 72.6328 195.557 72.7266 195.787 72.9141C196.021 73.1016 196.139 73.3926 196.139 73.7871V74.3965H194.527C193.82 74.3965 193.281 74.5645 192.91 74.9004C192.543 75.2324 192.359 75.668 192.359 76.207C192.359 76.7773 192.545 77.2363 192.916 77.584C193.291 77.9277 193.777 78.0996 194.375 78.0996ZM194.668 77.209C194.348 77.209 194.062 77.125 193.812 76.957C193.566 76.7891 193.443 76.5273 193.443 76.1719C193.443 75.8945 193.533 75.6641 193.713 75.4805C193.896 75.2969 194.197 75.2051 194.615 75.2051H196.139V75.8906C196.139 76.1445 196.072 76.3711 195.939 76.5703C195.811 76.7656 195.637 76.9219 195.418 77.0391C195.199 77.1523 194.949 77.209 194.668 77.209ZM198.969 73.6055C198.969 74.0078 199.062 74.3184 199.25 74.5371C199.438 74.7559 199.688 74.9219 200 75.0352C200.316 75.1445 200.666 75.2383 201.049 75.3164C201.334 75.3711 201.594 75.4316 201.828 75.498C202.062 75.5605 202.248 75.6523 202.385 75.7734C202.521 75.8945 202.59 76.0703 202.59 76.3008C202.59 76.4805 202.543 76.6426 202.449 76.7871C202.355 76.9316 202.207 77.0488 202.004 77.1387C201.805 77.2285 201.543 77.2734 201.219 77.2734C200.934 77.2734 200.697 77.2383 200.51 77.168C200.322 77.0938 200.18 76.9902 200.082 76.8574C199.984 76.7246 199.922 76.5664 199.895 76.3828H198.857C198.857 76.75 198.955 77.0625 199.15 77.3203C199.346 77.5742 199.617 77.7676 199.965 77.9004C200.312 78.0332 200.715 78.0996 201.172 78.0996C201.664 78.0996 202.094 78.0254 202.461 77.877C202.832 77.7285 203.119 77.5117 203.322 77.2266C203.529 76.9375 203.633 76.5879 203.633 76.1777C203.633 75.7754 203.537 75.4629 203.346 75.2402C203.154 75.0137 202.898 74.8438 202.578 74.7305C202.262 74.6133 201.91 74.5215 201.523 74.4551C201.352 74.4238 201.176 74.3906 200.996 74.3555C200.816 74.3203 200.65 74.2715 200.498 74.209C200.35 74.1426 200.229 74.0547 200.135 73.9453C200.041 73.832 199.994 73.6836 199.994 73.5C199.994 73.1992 200.109 72.9688 200.34 72.8086C200.574 72.6484 200.871 72.5684 201.23 72.5684C201.508 72.5684 201.736 72.6133 201.916 72.7031C202.1 72.7891 202.238 72.9004 202.332 73.0371C202.426 73.1738 202.479 73.3145 202.49 73.459H203.475C203.475 73.1113 203.383 72.8105 203.199 72.5566C203.016 72.2988 202.758 72.0977 202.426 71.9531C202.098 71.8086 201.711 71.7363 201.266 71.7363C200.867 71.7363 200.492 71.8008 200.141 71.9297C199.793 72.0586 199.51 72.2617 199.291 72.5391C199.076 72.8125 198.969 73.168 198.969 73.6055ZM207.705 78.0996C208.096 78.0996 208.436 78.0469 208.725 77.9414C209.014 77.8359 209.256 77.7012 209.451 77.5371C209.646 77.3691 209.797 77.1914 209.902 77.0039C210.012 76.8164 210.078 76.6406 210.102 76.4766H209.012C208.977 76.6016 208.9 76.7207 208.783 76.834C208.67 76.9434 208.52 77.0332 208.332 77.1035C208.148 77.1699 207.938 77.2031 207.699 77.2031C207.188 77.2031 206.797 77.0391 206.527 76.7109C206.258 76.3828 206.123 75.9805 206.123 75.5039V75.1934H210.184V74.4492C210.184 73.8984 210.074 73.4199 209.855 73.0137C209.637 72.6074 209.334 72.293 208.947 72.0703C208.564 71.8477 208.123 71.7363 207.623 71.7363C207.135 71.7363 206.697 71.8477 206.311 72.0703C205.924 72.2891 205.619 72.6016 205.396 73.0078C205.178 73.4102 205.068 73.8906 205.068 74.4492V75.3867C205.068 75.9414 205.172 76.4219 205.379 76.8281C205.59 77.2344 205.893 77.5488 206.287 77.7715C206.682 77.9902 207.154 78.0996 207.705 78.0996ZM206.123 74.4258C206.123 74.4102 206.123 74.3945 206.123 74.3789C206.123 74.3633 206.123 74.3457 206.123 74.3262C206.123 73.9863 206.186 73.6895 206.311 73.4355C206.436 73.1777 206.611 72.9785 206.838 72.8379C207.064 72.6973 207.328 72.627 207.629 72.627C207.93 72.627 208.191 72.6973 208.414 72.8379C208.641 72.9785 208.816 73.1777 208.941 73.4355C209.066 73.6895 209.129 73.9863 209.129 74.3262C209.129 74.3457 209.129 74.3633 209.129 74.3789C209.129 74.3945 209.129 74.4102 209.129 74.4258H206.123Z" fill="#757575"/>
<rect width="320" height="25.0399" fill="white"/>
<path d="M17.4765 16.5199H16.0902V11.2954C15.5837 11.769 14.9868 12.1193 14.2994 12.3462V11.0882C14.6612 10.9698 15.0542 10.7461 15.4785 10.4173C15.9027 10.0851 16.1938 9.69861 16.3517 9.25789H17.4765V16.5199ZM21.8033 9.25789C22.5039 9.25789 23.0515 9.50785 23.4462 10.0078C23.9165 10.5998 24.1517 11.5815 24.1517 12.953C24.1517 14.3213 23.9149 15.3047 23.4412 15.9032C23.0499 16.3966 22.5039 16.6433 21.8033 16.6433C21.0995 16.6433 20.5321 16.3736 20.1013 15.8342C19.6704 15.2915 19.455 14.3262 19.455 12.9382C19.455 11.5766 19.6918 10.5965 20.1654 9.99791C20.5568 9.50456 21.1028 9.25789 21.8033 9.25789ZM21.8033 10.4074C21.6356 10.4074 21.4859 10.4617 21.3544 10.5702C21.2228 10.6754 21.1209 10.8662 21.0485 11.1425C20.9531 11.501 20.9054 12.1045 20.9054 12.953C20.9054 13.8016 20.9482 14.3854 21.0337 14.7044C21.1192 15.0202 21.2261 15.2307 21.3544 15.3359C21.4859 15.4411 21.6356 15.4938 21.8033 15.4938C21.9711 15.4938 22.1207 15.4411 22.2523 15.3359C22.3838 15.2274 22.4858 15.035 22.5582 14.7587C22.6535 14.4035 22.7012 13.8016 22.7012 12.953C22.7012 12.1045 22.6585 11.5223 22.573 11.2066C22.4874 10.8876 22.3789 10.6754 22.2473 10.5702C22.1191 10.4617 21.9711 10.4074 21.8033 10.4074ZM25.5529 12.6669V11.2806H26.9392V12.6669H25.5529ZM25.5529 16.5199V15.1336H26.9392V16.5199H25.5529ZM30.605 9.25789C31.3055 9.25789 31.8531 9.50785 32.2478 10.0078C32.7181 10.5998 32.9533 11.5815 32.9533 12.953C32.9533 14.3213 32.7165 15.3047 32.2429 15.9032C31.8515 16.3966 31.3055 16.6433 30.605 16.6433C29.9011 16.6433 29.3338 16.3736 28.9029 15.8342C28.4721 15.2915 28.2567 14.3262 28.2567 12.9382C28.2567 11.5766 28.4935 10.5965 28.9671 9.99791C29.3585 9.50456 29.9044 9.25789 30.605 9.25789ZM30.605 10.4074C30.4372 10.4074 30.2876 10.4617 30.156 10.5702C30.0245 10.6754 29.9225 10.8662 29.8502 11.1425C29.7548 11.501 29.7071 12.1045 29.7071 12.953C29.7071 13.8016 29.7498 14.3854 29.8354 14.7044C29.9209 15.0202 30.0278 15.2307 30.156 15.3359C30.2876 15.4411 30.4372 15.4938 30.605 15.4938C30.7727 15.4938 30.9224 15.4411 31.0539 15.3359C31.1855 15.2274 31.2874 15.035 31.3598 14.7587C31.4552 14.4035 31.5029 13.8016 31.5029 12.953C31.5029 12.1045 31.4601 11.5223 31.3746 11.2066C31.2891 10.8876 31.1805 10.6754 31.049 10.5702C30.9207 10.4617 30.7727 10.4074 30.605 10.4074ZM33.8218 14.8475L35.1637 14.6995C35.1966 14.9725 35.2821 15.1747 35.4202 15.3063C35.5583 15.4379 35.7409 15.5036 35.9678 15.5036C36.254 15.5036 36.4973 15.3721 36.698 15.109C36.8986 14.8458 37.0269 14.2999 37.0828 13.4711C36.7341 13.8756 36.2984 14.0779 35.7754 14.0779C35.2064 14.0779 34.7147 13.8592 34.3003 13.4217C33.8892 12.981 33.6836 12.4087 33.6836 11.7049C33.6836 10.9714 33.9007 10.3811 34.3348 9.93377C34.7723 9.48319 35.3281 9.25789 36.0023 9.25789C36.7358 9.25789 37.3377 9.54239 37.808 10.1114C38.2783 10.6771 38.5135 11.6095 38.5135 12.9086C38.5135 14.2308 38.2684 15.1846 37.7784 15.77C37.2883 16.3555 36.6503 16.6482 35.8642 16.6482C35.2985 16.6482 34.8413 16.4985 34.4927 16.1993C34.1441 15.8967 33.9204 15.4461 33.8218 14.8475ZM36.9594 11.8184C36.9594 11.3711 36.8558 11.0241 36.6486 10.7774C36.4447 10.5307 36.2079 10.4074 35.9382 10.4074C35.6817 10.4074 35.4679 10.5093 35.2969 10.7133C35.1291 10.9139 35.0453 11.2444 35.0453 11.7049C35.0453 12.1719 35.1374 12.5156 35.3215 12.736C35.5057 12.953 35.7359 13.0616 36.0122 13.0616C36.2786 13.0616 36.5023 12.9563 36.6832 12.7458C36.8673 12.5353 36.9594 12.2262 36.9594 11.8184Z" fill="black"/>
<rect opacity="0.35" x="288.003" y="8.10432" width="16.267" height="8.20146" rx="0.608093" stroke="white" stroke-width="0.280658"/>
<path opacity="0.4" d="M305.162 10.7082V13.7019C305.77 13.4483 306.165 12.8585 306.165 12.205C306.165 11.5516 305.77 10.9617 305.162 10.7082" fill="black"/>
<rect x="289.367" y="9.46085" width="13.539" height="5.48843" rx="0.374211" fill="black"/>
<path fill-rule="evenodd" clip-rule="evenodd" d="M276.512 9.22318C278.177 9.22326 279.778 9.92667 280.985 11.188C281.076 11.2854 281.221 11.2842 281.311 11.1853L282.179 10.2214C282.224 10.1713 282.25 10.1033 282.249 10.0326C282.249 9.96192 282.223 9.89429 282.177 9.84472C279.01 6.50749 274.013 6.50749 270.846 9.84472C270.8 9.89426 270.774 9.96186 270.774 10.0326C270.773 10.1033 270.798 10.1712 270.844 10.2214L271.713 11.1853C271.802 11.2843 271.947 11.2855 272.038 11.188C273.245 9.92659 274.847 9.22318 276.512 9.22318ZM276.511 12.3515C277.426 12.3515 278.31 12.7349 278.988 13.4272C279.08 13.5255 279.225 13.5234 279.314 13.4224L280.183 12.434C280.229 12.3821 280.254 12.3118 280.254 12.2387C280.253 12.1656 280.226 12.0959 280.18 12.0451C278.112 9.87921 274.911 9.87921 272.843 12.0451C272.797 12.0959 272.77 12.1657 272.769 12.2388C272.769 12.3119 272.794 12.3822 272.84 12.434L273.708 13.4224C273.798 13.5234 273.943 13.5255 274.034 13.4272C274.713 12.7353 275.595 12.3519 276.511 12.3515ZM278.258 14.6385C278.259 14.7102 278.233 14.7794 278.187 14.8297L276.679 16.5016C276.635 16.5508 276.574 16.5784 276.512 16.5784C276.449 16.5784 276.388 16.5508 276.344 16.5016L274.836 14.8297C274.789 14.7794 274.764 14.7102 274.765 14.6384C274.767 14.5667 274.795 14.4987 274.843 14.4506C275.806 13.5557 277.217 13.5557 278.18 14.4506C278.228 14.4987 278.256 14.5667 278.258 14.6385Z" fill="black"/>
<path fill-rule="evenodd" clip-rule="evenodd" d="M266.844 8.96188C266.844 8.54854 266.509 8.21346 266.096 8.21346H265.347C264.934 8.21346 264.599 8.54854 264.599 8.96188V15.4482C264.599 15.8616 264.934 16.1966 265.347 16.1966H266.096C266.509 16.1966 266.844 15.8616 266.844 15.4482V8.96188ZM261.855 9.9598H262.603C263.017 9.9598 263.352 10.2949 263.352 10.7082V15.4482C263.352 15.8616 263.017 16.1967 262.603 16.1967H261.855C261.441 16.1967 261.106 15.8616 261.106 15.4482V10.7082C261.106 10.2949 261.441 9.9598 261.855 9.9598ZM259.111 11.7061H258.362C257.949 11.7061 257.614 12.0412 257.614 12.4545V15.4482C257.614 15.8616 257.949 16.1966 258.362 16.1966H259.111C259.524 16.1966 259.859 15.8616 259.859 15.4482V12.4545C259.859 12.0412 259.524 11.7061 259.111 11.7061ZM256.366 13.9514C256.366 13.538 256.031 13.2029 255.618 13.2029H254.87C254.456 13.2029 254.121 13.538 254.121 13.9514V15.4482C254.121 15.8615 254.456 16.1966 254.87 16.1966H255.618C256.031 16.1966 256.366 15.8615 256.366 15.4482V13.9514Z" fill="black"/>
</g>
<defs>
<filter id="filter0_d_132_921" x="6" y="433" width="308" height="62" filterUnits="userSpaceOnUse" color-interpolation-filters="sRGB">
<feFlood flood-opacity="0" result="BackgroundImageFix"/>
<feColorMatrix in="SourceAlpha" type="matrix" values="0 0 0 0 0 0 0 0 0 0 0 0 0 0 0 0 0 0 127 0" result="hardAlpha"/>
<feMorphology radius="3" operator="dilate" in="SourceAlpha" result="effect1_dropShadow_132_921"/>
<feOffset/>
<feGaussianBlur stdDeviation="3.5"/>
<feComposite in2="hardAlpha" operator="out"/>
<feColorMatrix type="matrix" values="0 0 0 0 0 0 0 0 0 0 0 0 0 0 0 0 0 0 0.12 0"/>
<feBlend mode="normal" in2="BackgroundImageFix" result="effect1_dropShadow_132_921"/>
<feBlend mode="normal" in="SourceGraphic" in2="effect1_dropShadow_132_921" result="shape"/>
</filter>
<linearGradient id="paint0_linear_132_921" x1="160" y1="0" x2="160" y2="395" gradientUnits="userSpaceOnUse">
<stop stop-color="#359D9E"/>
<stop offset="1" stop-color="#CFF4D2" stop-opacity="0"/>
</linearGradient>
<linearGradient id="paint1_linear_132_921" x1="85.5" y1="395" x2="176" y2="617.5" gradientUnits="userSpaceOnUse">
<stop stop-color="#215273"/>
<stop offset="1" stop-color="#359D9E"/>
</linearGradient>
<clipPath id="clip0_132_921">
<rect width="320" height="568" fill="white"/>
</clipPath>
</defs>
</svg>
