<svg width="320" height="568" viewBox="0 0 320 568" fill="none" xmlns="http://www.w3.org/2000/svg">
<rect width="320" height="568" fill="white"/>
<rect width="320" height="25.0399" fill="white"/>
<path d="M17.4765 16.52H16.0902V11.2955C15.5837 11.7691 14.9868 12.1194 14.2994 12.3463V11.0883C14.6612 10.9699 15.0542 10.7462 15.4785 10.4173C15.9028 10.0852 16.1938 9.6987 16.3517 9.25798H17.4765V16.52ZM21.8033 9.25798C22.5039 9.25798 23.0515 9.50794 23.4462 10.0079C23.9165 10.5999 24.1517 11.5816 24.1517 12.9531C24.1517 14.3213 23.9149 15.3047 23.4413 15.9033C23.0499 16.3967 22.5039 16.6434 21.8033 16.6434C21.0995 16.6434 20.5322 16.3737 20.1013 15.8343C19.6705 15.2916 19.455 14.3263 19.455 12.9383C19.455 11.5767 19.6918 10.5966 20.1654 9.998C20.5568 9.50466 21.1028 9.25798 21.8033 9.25798ZM21.8033 10.4075C21.6356 10.4075 21.486 10.4617 21.3544 10.5703C21.2228 10.6755 21.1209 10.8663 21.0485 11.1426C20.9531 11.5011 20.9055 12.1046 20.9055 12.9531C20.9055 13.8017 20.9482 14.3855 21.0337 14.7045C21.1192 15.0203 21.2261 15.2307 21.3544 15.336C21.486 15.4412 21.6356 15.4939 21.8033 15.4939C21.9711 15.4939 22.1207 15.4412 22.2523 15.336C22.3838 15.2275 22.4858 15.0351 22.5582 14.7588C22.6535 14.4036 22.7012 13.8017 22.7012 12.9531C22.7012 12.1046 22.6585 11.5224 22.573 11.2067C22.4875 10.8877 22.3789 10.6755 22.2474 10.5703C22.1191 10.4617 21.9711 10.4075 21.8033 10.4075ZM25.553 12.667V11.2807H26.9392V12.667H25.553ZM25.553 16.52V15.1337H26.9392V16.52H25.553ZM30.605 9.25798C31.3055 9.25798 31.8531 9.50794 32.2478 10.0079C32.7181 10.5999 32.9533 11.5816 32.9533 12.9531C32.9533 14.3213 32.7165 15.3047 32.2429 15.9033C31.8515 16.3967 31.3055 16.6434 30.605 16.6434C29.9011 16.6434 29.3338 16.3737 28.9029 15.8343C28.4721 15.2916 28.2567 14.3263 28.2567 12.9383C28.2567 11.5767 28.4935 10.5966 28.9671 9.998C29.3585 9.50466 29.9044 9.25798 30.605 9.25798ZM30.605 10.4075C30.4372 10.4075 30.2876 10.4617 30.156 10.5703C30.0245 10.6755 29.9225 10.8663 29.8502 11.1426C29.7548 11.5011 29.7071 12.1046 29.7071 12.9531C29.7071 13.8017 29.7499 14.3855 29.8354 14.7045C29.9209 15.0203 30.0278 15.2307 30.156 15.336C30.2876 15.4412 30.4372 15.4939 30.605 15.4939C30.7727 15.4939 30.9224 15.4412 31.0539 15.336C31.1855 15.2275 31.2874 15.0351 31.3598 14.7588C31.4552 14.4036 31.5029 13.8017 31.5029 12.9531C31.5029 12.1046 31.4601 11.5224 31.3746 11.2067C31.2891 10.8877 31.1806 10.6755 31.049 10.5703C30.9207 10.4617 30.7727 10.4075 30.605 10.4075ZM33.8218 14.8476L35.1637 14.6996C35.1966 14.9726 35.2821 15.1748 35.4202 15.3064C35.5583 15.4379 35.7409 15.5037 35.9678 15.5037C36.254 15.5037 36.4973 15.3722 36.698 15.1091C36.8986 14.8459 37.0269 14.3 37.0828 13.4711C36.7342 13.8757 36.2984 14.078 35.7754 14.078C35.2064 14.078 34.7147 13.8592 34.3003 13.4218C33.8892 12.9811 33.6836 12.4088 33.6836 11.705C33.6836 10.9715 33.9007 10.3812 34.3349 9.93387C34.7723 9.48328 35.3281 9.25798 36.0024 9.25798C36.7358 9.25798 37.3377 9.54248 37.808 10.1115C38.2783 10.6772 38.5135 11.6096 38.5135 12.9087C38.5135 14.2309 38.2685 15.1847 37.7784 15.7701C37.2883 16.3556 36.6503 16.6483 35.8642 16.6483C35.2985 16.6483 34.8414 16.4986 34.4927 16.1993C34.1441 15.8968 33.9204 15.4462 33.8218 14.8476ZM36.9594 11.8184C36.9594 11.3711 36.8558 11.0242 36.6486 10.7775C36.4447 10.5308 36.2079 10.4075 35.9382 10.4075C35.6817 10.4075 35.4679 10.5094 35.2969 10.7134C35.1291 10.914 35.0453 11.2445 35.0453 11.705C35.0453 12.172 35.1374 12.5157 35.3215 12.7361C35.5057 12.9531 35.736 13.0617 36.0122 13.0617C36.2786 13.0617 36.5023 12.9564 36.6832 12.7459C36.8674 12.5354 36.9594 12.2263 36.9594 11.8184Z" fill="black"/>
<rect opacity="0.35" x="288.003" y="8.1042" width="16.267" height="8.20146" rx="0.608093" stroke="white" stroke-width="0.280658"/>
<path opacity="0.4" d="M305.162 10.708V13.7017C305.77 13.4482 306.165 12.8583 306.165 12.2049C306.165 11.5514 305.77 10.9616 305.162 10.708Z" fill="black"/>
<rect x="289.367" y="9.46069" width="13.539" height="5.48843" rx="0.374211" fill="black"/>
<path fill-rule="evenodd" clip-rule="evenodd" d="M276.512 9.22318C278.177 9.22326 279.778 9.92667 280.985 11.188C281.076 11.2854 281.221 11.2842 281.31 11.1853L282.179 10.2214C282.224 10.1713 282.25 10.1033 282.249 10.0326C282.249 9.96192 282.223 9.89429 282.177 9.84472C279.01 6.50749 274.013 6.50749 270.846 9.84472C270.8 9.89426 270.774 9.96186 270.774 10.0326C270.773 10.1033 270.798 10.1712 270.844 10.2214L271.712 11.1853C271.802 11.2843 271.947 11.2855 272.038 11.188C273.245 9.92659 274.847 9.22318 276.512 9.22318ZM276.51 12.3515C277.426 12.3515 278.31 12.7349 278.988 13.4272C279.08 13.5255 279.225 13.5234 279.314 13.4224L280.183 12.434C280.229 12.3821 280.254 12.3118 280.253 12.2387C280.253 12.1656 280.226 12.0959 280.179 12.0451C278.112 9.87921 274.911 9.87921 272.843 12.0451C272.797 12.0959 272.77 12.1657 272.769 12.2388C272.769 12.3119 272.794 12.3822 272.84 12.434L273.708 13.4224C273.798 13.5234 273.942 13.5255 274.034 13.4272C274.713 12.7353 275.595 12.3519 276.51 12.3515ZM278.258 14.6385C278.259 14.7103 278.233 14.7794 278.187 14.8297L276.679 16.5016C276.635 16.5508 276.574 16.5784 276.512 16.5784C276.449 16.5784 276.388 16.5508 276.344 16.5016L274.836 14.8297C274.789 14.7794 274.764 14.7102 274.765 14.6384C274.767 14.5667 274.795 14.4987 274.843 14.4506C275.806 13.5557 277.217 13.5557 278.18 14.4506C278.228 14.4988 278.256 14.5667 278.258 14.6385Z" fill="black"/>
<path fill-rule="evenodd" clip-rule="evenodd" d="M266.844 8.96156C266.844 8.54821 266.509 8.21313 266.096 8.21313H265.347C264.934 8.21313 264.599 8.54821 264.599 8.96156V15.4479C264.599 15.8612 264.934 16.1963 265.347 16.1963H266.096C266.509 16.1963 266.844 15.8612 266.844 15.4479V8.96156ZM261.855 9.95945H262.603C263.017 9.95945 263.352 10.2945 263.352 10.7079V15.4479C263.352 15.8612 263.017 16.1963 262.603 16.1963H261.855C261.441 16.1963 261.106 15.8612 261.106 15.4479V10.7079C261.106 10.2945 261.441 9.95945 261.855 9.95945ZM259.111 11.7058H258.362C257.949 11.7058 257.614 12.0408 257.614 12.4542V15.4479C257.614 15.8612 257.949 16.1963 258.362 16.1963H259.111C259.524 16.1963 259.859 15.8612 259.859 15.4479V12.4542C259.859 12.0408 259.524 11.7058 259.111 11.7058ZM256.366 13.951C256.366 13.5377 256.031 13.2026 255.618 13.2026H254.87C254.456 13.2026 254.121 13.5377 254.121 13.951V15.4479C254.121 15.8612 254.456 16.1963 254.87 16.1963H255.618C256.031 16.1963 256.366 15.8612 256.366 15.4479V13.951Z" fill="black"/>
<path d="M20.3438 61L22.1641 54.1719H22.2578L24.0703 61H26.4609L29.1953 50.3359H26.4844L25.1328 57.5859H25.0078L23.2578 50.3359H21.1641L19.4219 57.5859H19.2969L17.9297 50.3359H15.2188L17.9609 61H20.3438ZM39.7344 61V50.3359H37.1641V54.5547H33.2344V50.3359H30.6641V61H33.2344V56.6328H37.1641V61H39.7344ZM43.8203 61L44.5156 58.5391H47.8203L48.5156 61H51.2422L47.8203 50.3359H44.6953L41.2578 61H43.8203ZM46.2422 52.6328L47.3594 56.6875H44.9922L46.125 52.6328H46.2422ZM56.6719 61V52.4375H59.5781V50.3359H51.2031V52.4375H54.1094V61H56.6719ZM62.8984 55.2969L63.8672 50.3359H61.3828L60.8672 55.2969H62.8984ZM65.3672 57.9531C65.3828 58.3698 65.474 58.7734 65.6406 59.1641C65.8073 59.5495 66.0625 59.8958 66.4062 60.2031C66.75 60.5104 67.1901 60.7526 67.7266 60.9297C68.263 61.1068 68.9062 61.1953 69.6562 61.1953C70.6146 61.1953 71.4167 61.0495 72.0625 60.7578C72.7135 60.4661 73.2057 60.0625 73.5391 59.5469C73.8724 59.026 74.0391 58.4271 74.0391 57.75C74.0391 57.099 73.9089 56.5677 73.6484 56.1562C73.388 55.7448 73.0365 55.4219 72.5938 55.1875C72.1562 54.9531 71.6641 54.7839 71.1172 54.6797L69.5703 54.3594C69.1224 54.2708 68.7708 54.138 68.5156 53.9609C68.2656 53.7839 68.1406 53.5521 68.1406 53.2656C68.1406 52.9219 68.276 52.638 68.5469 52.4141C68.8229 52.1849 69.2188 52.0703 69.7344 52.0703C70.0938 52.0703 70.3958 52.1276 70.6406 52.2422C70.8906 52.3568 71.0833 52.5052 71.2188 52.6875C71.3594 52.8698 71.4453 53.0677 71.4766 53.2812H73.8516C73.8307 52.7292 73.6641 52.2135 73.3516 51.7344C73.0391 51.2552 72.5807 50.8698 71.9766 50.5781C71.3776 50.2812 70.6328 50.1328 69.7422 50.1328C68.9193 50.1328 68.1953 50.2682 67.5703 50.5391C66.9505 50.8047 66.4635 51.1875 66.1094 51.6875C65.7604 52.1823 65.5859 52.7708 65.5859 53.4531C65.5859 54.0417 65.7031 54.5417 65.9375 54.9531C66.1771 55.3594 66.5078 55.6875 66.9297 55.9375C67.3568 56.1875 67.8542 56.3698 68.4219 56.4844L69.9297 56.8125C70.4505 56.9219 70.8438 57.0651 71.1094 57.2422C71.375 57.4193 71.5078 57.6745 71.5078 58.0078C71.5078 58.2422 71.4453 58.4531 71.3203 58.6406C71.1953 58.8229 71.0026 58.9688 70.7422 59.0781C70.487 59.1823 70.1589 59.2344 69.7578 59.2344C69.4661 59.2344 69.2057 59.2005 68.9766 59.1328C68.7474 59.0651 68.5495 58.974 68.3828 58.8594C68.2161 58.7396 68.0833 58.6016 67.9844 58.4453C67.8906 58.2891 67.8333 58.125 67.8125 57.9531H65.3672ZM84.4375 61V57.2109L88.0078 50.3359H85.2891L83.2422 54.7344H83.1406L81.1094 50.3359H78.2969L81.8672 57.2734V61H84.4375ZM95.375 55.0312V56.3125C95.375 56.9271 95.2839 57.4427 95.1016 57.8594C94.9245 58.276 94.6771 58.5885 94.3594 58.7969C94.0417 59.0052 93.6719 59.1094 93.25 59.1094C92.8229 59.1094 92.4505 59.0052 92.1328 58.7969C91.8151 58.5885 91.5651 58.276 91.3828 57.8594C91.2057 57.4427 91.1172 56.9271 91.1172 56.3125V55.0312C91.1172 54.4115 91.2057 53.8958 91.3828 53.4844C91.5651 53.0677 91.8151 52.7552 92.1328 52.5469C92.4505 52.3385 92.8229 52.2344 93.25 52.2344C93.6719 52.2344 94.0417 52.3385 94.3594 52.5469C94.6771 52.7552 94.9245 53.0677 95.1016 53.4844C95.2839 53.8958 95.375 54.4115 95.375 55.0312ZM97.9922 56.3047V55.0625C97.9922 54.0521 97.8047 53.1823 97.4297 52.4531C97.0599 51.7188 96.5208 51.151 95.8125 50.75C95.1094 50.349 94.2552 50.1484 93.25 50.1484C92.25 50.1484 91.3932 50.3464 90.6797 50.7422C89.9714 51.138 89.4297 51.7057 89.0547 52.4453C88.6849 53.1797 88.5 54.0521 88.5 55.0625V56.3047C88.5 57.2995 88.6849 58.1641 89.0547 58.8984C89.4297 59.6328 89.9714 60.2005 90.6797 60.6016C91.3932 60.9974 92.25 61.1953 93.25 61.1953C94.2552 61.1953 95.1094 60.9974 95.8125 60.6016C96.5208 60.2005 97.0599 59.6328 97.4297 58.8984C97.8047 58.1641 97.9922 57.2995 97.9922 56.3047ZM104.398 59.0547C103.836 59.0547 103.378 58.8854 103.023 58.5469C102.674 58.2083 102.5 57.6979 102.5 57.0156V50.3359H99.9375V57.3125C99.9375 58.0938 100.117 58.776 100.477 59.3594C100.841 59.9427 101.357 60.3958 102.023 60.7188C102.695 61.0365 103.487 61.1953 104.398 61.1953C105.315 61.1953 106.107 61.0365 106.773 60.7188C107.44 60.3958 107.956 59.9427 108.32 59.3594C108.685 58.776 108.867 58.0938 108.867 57.3125V50.3359H106.305V57.0156C106.305 57.6875 106.128 58.1953 105.773 58.5391C105.419 58.8828 104.961 59.0547 104.398 59.0547ZM115.75 50.3359H111.242V61H113.766V57.1875H115.242L117.047 61H119.891L117.766 56.8281C118.042 56.7135 118.326 56.526 118.617 56.2656C118.914 56.0052 119.164 55.6719 119.367 55.2656C119.57 54.8542 119.672 54.375 119.672 53.8281C119.672 53.125 119.521 52.513 119.219 51.9922C118.917 51.4661 118.474 51.0599 117.891 50.7734C117.307 50.4818 116.594 50.3359 115.75 50.3359ZM113.766 55.3672V52.2578H115.367C115.841 52.2578 116.237 52.3932 116.555 52.6641C116.872 52.9349 117.031 53.3281 117.031 53.8438C117.031 54.3542 116.875 54.737 116.562 54.9922C116.25 55.2422 115.844 55.3672 115.344 55.3672H113.766ZM129.734 50.3359H125.227V61H127.75V57.1875H129.227L131.031 61H133.875L131.75 56.8281C132.026 56.7135 132.31 56.526 132.602 56.2656C132.898 56.0052 133.148 55.6719 133.352 55.2656C133.555 54.8542 133.656 54.375 133.656 53.8281C133.656 53.125 133.505 52.513 133.203 51.9922C132.901 51.4661 132.458 51.0599 131.875 50.7734C131.292 50.4818 130.578 50.3359 129.734 50.3359ZM127.75 55.3672V52.2578H129.352C129.826 52.2578 130.221 52.3932 130.539 52.6641C130.857 52.9349 131.016 53.3281 131.016 53.8438C131.016 54.3542 130.859 54.737 130.547 54.9922C130.234 55.2422 129.828 55.3672 129.328 55.3672H127.75ZM138.266 61V50.3359H135.695V61H138.266ZM140.164 57.9531C140.18 58.3698 140.271 58.7734 140.438 59.1641C140.604 59.5495 140.859 59.8958 141.203 60.2031C141.547 60.5104 141.987 60.7526 142.523 60.9297C143.06 61.1068 143.703 61.1953 144.453 61.1953C145.411 61.1953 146.214 61.0495 146.859 60.7578C147.51 60.4661 148.003 60.0625 148.336 59.5469C148.669 59.026 148.836 58.4271 148.836 57.75C148.836 57.099 148.706 56.5677 148.445 56.1562C148.185 55.7448 147.833 55.4219 147.391 55.1875C146.953 54.9531 146.461 54.7839 145.914 54.6797L144.367 54.3594C143.919 54.2708 143.568 54.138 143.312 53.9609C143.062 53.7839 142.938 53.5521 142.938 53.2656C142.938 52.9219 143.073 52.638 143.344 52.4141C143.62 52.1849 144.016 52.0703 144.531 52.0703C144.891 52.0703 145.193 52.1276 145.438 52.2422C145.688 52.3568 145.88 52.5052 146.016 52.6875C146.156 52.8698 146.242 53.0677 146.273 53.2812H148.648C148.628 52.7292 148.461 52.2135 148.148 51.7344C147.836 51.2552 147.378 50.8698 146.773 50.5781C146.174 50.2812 145.43 50.1328 144.539 50.1328C143.716 50.1328 142.992 50.2682 142.367 50.5391C141.747 50.8047 141.26 51.1875 140.906 51.6875C140.557 52.1823 140.383 52.7708 140.383 53.4531C140.383 54.0417 140.5 54.5417 140.734 54.9531C140.974 55.3594 141.305 55.6875 141.727 55.9375C142.154 56.1875 142.651 56.3698 143.219 56.4844L144.727 56.8125C145.247 56.9219 145.641 57.0651 145.906 57.2422C146.172 57.4193 146.305 57.6745 146.305 58.0078C146.305 58.2422 146.242 58.4531 146.117 58.6406C145.992 58.8229 145.799 58.9688 145.539 59.0781C145.284 59.1823 144.956 59.2344 144.555 59.2344C144.263 59.2344 144.003 59.2005 143.773 59.1328C143.544 59.0651 143.346 58.974 143.18 58.8594C143.013 58.7396 142.88 58.6016 142.781 58.4453C142.688 58.2891 142.63 58.125 142.609 57.9531H140.164ZM159.922 50.3359H157.172L153.5 54.8828H153.391V50.3359H150.82V61H153.391V57.7734L154.344 56.6562L157.031 61H160.062L156.219 54.9609L159.922 50.3359ZM162.586 63.4531L166.438 49.7734H164.18L160.328 63.4531H162.586ZM172.281 50.3359H167.773V61H170.297V57.1875H171.773L173.578 61H176.422L174.297 56.8281C174.573 56.7135 174.857 56.526 175.148 56.2656C175.445 56.0052 175.695 55.6719 175.898 55.2656C176.102 54.8542 176.203 54.375 176.203 53.8281C176.203 53.125 176.052 52.513 175.75 51.9922C175.448 51.4661 175.005 51.0599 174.422 50.7734C173.839 50.4818 173.125 50.3359 172.281 50.3359ZM170.297 55.3672V52.2578H171.898C172.372 52.2578 172.768 52.3932 173.086 52.6641C173.404 52.9349 173.562 53.3281 173.562 53.8438C173.562 54.3542 173.406 54.737 173.094 54.9922C172.781 55.2422 172.375 55.3672 171.875 55.3672H170.297ZM185.391 58.9609H180.781V56.5703H185.109V54.6953H180.781V52.375H185.391V50.3359H178.242V61H185.391V58.9609ZM192.109 61V52.4375H195.016V50.3359H186.641V52.4375H189.547V61H192.109ZM200.898 59.0547C200.336 59.0547 199.878 58.8854 199.523 58.5469C199.174 58.2083 199 57.6979 199 57.0156V50.3359H196.438V57.3125C196.438 58.0938 196.617 58.776 196.977 59.3594C197.341 59.9427 197.857 60.3958 198.523 60.7188C199.195 61.0365 199.987 61.1953 200.898 61.1953C201.815 61.1953 202.607 61.0365 203.273 60.7188C203.94 60.3958 204.456 59.9427 204.82 59.3594C205.185 58.776 205.367 58.0938 205.367 57.3125V50.3359H202.805V57.0156C202.805 57.6875 202.628 58.1953 202.273 58.5391C201.919 58.8828 201.461 59.0547 200.898 59.0547ZM212.25 50.3359H207.742V61H210.266V57.1875H211.742L213.547 61H216.391L214.266 56.8281C214.542 56.7135 214.826 56.526 215.117 56.2656C215.414 56.0052 215.664 55.6719 215.867 55.2656C216.07 54.8542 216.172 54.375 216.172 53.8281C216.172 53.125 216.021 52.513 215.719 51.9922C215.417 51.4661 214.974 51.0599 214.391 50.7734C213.807 50.4818 213.094 50.3359 212.25 50.3359ZM210.266 55.3672V52.2578H211.867C212.341 52.2578 212.737 52.3932 213.055 52.6641C213.372 52.9349 213.531 53.3281 213.531 53.8438C213.531 54.3542 213.375 54.737 213.062 54.9922C212.75 55.2422 212.344 55.3672 211.844 55.3672H210.266ZM220.602 61V54.6016H220.703L224.992 61H227.008V50.3359H224.617V56.6719H224.516L220.242 50.3359H218.211V61H220.602ZM234.602 61L235.297 58.5391H238.602L239.297 61H242.023L238.602 50.3359H235.477L232.039 61H234.602ZM237.023 52.6328L238.141 56.6875H235.773L236.906 52.6328H237.023ZM247.453 61V52.4375H250.359V50.3359H241.984V52.4375H244.891V61H247.453ZM256.5 61V52.4375H259.406V50.3359H251.031V52.4375H253.938V61H256.5ZM263.516 61V50.3359H260.945V61H263.516ZM270.516 61V52.4375H273.422V50.3359H265.047V52.4375H267.953V61H270.516ZM279.305 59.0547C278.742 59.0547 278.284 58.8854 277.93 58.5469C277.581 58.2083 277.406 57.6979 277.406 57.0156V50.3359H274.844V57.3125C274.844 58.0938 275.023 58.776 275.383 59.3594C275.747 59.9427 276.263 60.3958 276.93 60.7188C277.602 61.0365 278.393 61.1953 279.305 61.1953C280.221 61.1953 281.013 61.0365 281.68 60.7188C282.346 60.3958 282.862 59.9427 283.227 59.3594C283.591 58.776 283.773 58.0938 283.773 57.3125V50.3359H281.211V57.0156C281.211 57.6875 281.034 58.1953 280.68 58.5391C280.326 58.8828 279.867 59.0547 279.305 59.0547ZM286.148 50.3359V61H290.328C291.427 61 292.331 60.7839 293.039 60.3516C293.753 59.9193 294.281 59.2995 294.625 58.4922C294.974 57.6849 295.148 56.7292 295.148 55.625C295.148 54.526 294.977 53.5833 294.633 52.7969C294.294 52.0052 293.768 51.3984 293.055 50.9766C292.346 50.5495 291.438 50.3359 290.328 50.3359H286.148ZM288.719 52.3672H289.922C290.526 52.3672 291.018 52.4922 291.398 52.7422C291.784 52.987 292.065 53.3568 292.242 53.8516C292.424 54.3464 292.516 54.9583 292.516 55.6875C292.516 56.2344 292.464 56.7135 292.359 57.125C292.26 57.5365 292.107 57.8776 291.898 58.1484C291.69 58.4193 291.422 58.6224 291.094 58.7578C290.766 58.8932 290.375 58.9609 289.922 58.9609H288.719V52.3672ZM304.25 58.9609H299.641V56.5703H303.969V54.6953H299.641V52.375H304.25V50.3359H297.102V61H304.25V58.9609Z" fill="#2F2F2F"/>
<path d="M77.6211 149L78.8379 144.693H84.6211L85.8379 149H90.6094L84.6211 130.338H79.1523L73.123 149H77.6211ZM81.8594 134.357L83.8145 141.453H79.6719L81.6543 134.357H81.8594ZM92.5645 130.338V149H99.8789C101.802 149 103.383 148.622 104.623 147.865C105.872 147.109 106.797 146.024 107.398 144.611C108.009 143.199 108.314 141.526 108.314 139.594C108.314 137.671 108.014 136.021 107.412 134.645C106.82 133.259 105.904 132.197 104.664 131.459C103.424 130.712 101.829 130.338 99.8789 130.338H92.5645ZM97.0625 133.906H99.168C100.344 133.906 101.26 134.161 101.916 134.672C102.572 135.173 103.033 135.861 103.297 136.736C103.57 137.611 103.707 138.6 103.707 139.703C103.707 140.852 103.593 141.799 103.365 142.547C103.146 143.294 102.832 143.878 102.422 144.297C102.021 144.716 101.542 145.012 100.986 145.186C100.439 145.35 99.8333 145.432 99.168 145.432H97.0625V133.906ZM114.863 149H120.496L126.375 130.338H121.426L117.912 144.16H117.721L114.139 130.338H108.916L114.863 149ZM140.908 145.432H132.842V141.248H140.402V137.967H132.842V133.906H140.908V130.338H128.385V149H140.908V145.432ZM148.209 149V137.803H148.359L155.92 149H159.447V130.338H155.291V141.426H155.141L147.621 130.338H144.053V149H148.209ZM171 149V134.016H176.1V130.338H161.43V134.016H166.516V149H171ZM185.875 145.596C184.891 145.596 184.089 145.295 183.469 144.693C182.849 144.092 182.539 143.199 182.539 142.014V130.338H178.055V142.643C178.055 143.973 178.365 145.145 178.984 146.156C179.613 147.159 180.511 147.943 181.678 148.508C182.854 149.064 184.253 149.342 185.875 149.342C187.497 149.342 188.892 149.064 190.059 148.508C191.225 147.943 192.118 147.159 192.738 146.156C193.367 145.145 193.682 143.973 193.682 142.643V130.338H189.211V142.014C189.211 143.189 188.901 144.083 188.281 144.693C187.661 145.295 186.859 145.596 185.875 145.596ZM205.016 130.338H197.127V149H201.543V142.328H204.127L207.285 149H212.262L208.543 141.699C208.971 141.526 209.445 141.225 209.965 140.797C210.493 140.359 210.945 139.781 211.318 139.061C211.701 138.34 211.893 137.47 211.893 136.449C211.893 135.273 211.637 134.225 211.127 133.305C210.626 132.384 209.865 131.66 208.844 131.131C207.832 130.602 206.556 130.338 205.016 130.338ZM201.543 139.143V133.701H204.346C205.157 133.701 205.845 133.934 206.41 134.398C206.975 134.863 207.258 135.556 207.258 136.477C207.258 137.361 206.984 138.026 206.438 138.473C205.9 138.919 205.189 139.143 204.305 139.143H201.543ZM227.287 145.432H219.221V141.248H226.781V137.967H219.221V133.906H227.287V130.338H214.764V149H227.287V145.432ZM238.32 130.338H230.432V149H234.848V142.328H237.432L240.59 149H245.566L241.848 141.699C242.276 141.526 242.75 141.225 243.27 140.797C243.798 140.359 244.249 139.781 244.623 139.061C245.006 138.34 245.197 137.47 245.197 136.449C245.197 135.273 244.942 134.225 244.432 133.305C243.93 132.384 243.169 131.66 242.148 131.131C241.137 130.602 239.861 130.338 238.32 130.338ZM234.848 139.143V133.701H237.65C238.462 133.701 239.15 133.934 239.715 134.398C240.28 134.863 240.562 135.556 240.562 136.477C240.562 137.361 240.289 138.026 239.742 138.473C239.204 138.919 238.493 139.143 237.609 139.143H234.848Z" fill="#2F2F2F"/>
<path d="M100.768 78V70.957H103.176V70.002H97.2754V70.957H99.6895V78H100.768ZM108.953 71.8359H107.893V75.7207C107.893 75.9824 107.822 76.2246 107.682 76.4473C107.545 76.6699 107.357 76.8477 107.119 76.9805C106.881 77.1094 106.609 77.1738 106.305 77.1738C106.059 77.1738 105.834 77.1328 105.631 77.0508C105.432 76.9688 105.27 76.8301 105.145 76.6348C105.023 76.4355 104.963 76.166 104.963 75.8262V71.8359H103.902V76.1133C103.902 76.5898 103.992 76.9746 104.172 77.2676C104.352 77.5566 104.6 77.7676 104.916 77.9004C105.236 78.0332 105.602 78.0996 106.012 78.0996C106.371 78.0996 106.676 78.041 106.926 77.9238C107.18 77.8027 107.381 77.6562 107.529 77.4844C107.682 77.3125 107.787 77.1426 107.846 76.9746H107.904V78H108.953V71.8359ZM111.133 78H112.199V74.1914C112.199 73.9102 112.26 73.6582 112.381 73.4355C112.502 73.2129 112.682 73.0352 112.92 72.9023C113.162 72.7695 113.463 72.7031 113.822 72.7031C113.92 72.7031 114.014 72.707 114.104 72.7148C114.197 72.7188 114.27 72.7266 114.32 72.7383V71.7715C114.258 71.7637 114.193 71.7578 114.127 71.7539C114.064 71.7461 114 71.7422 113.934 71.7422C113.574 71.7422 113.279 71.8027 113.049 71.9238C112.818 72.041 112.641 72.1797 112.516 72.3398C112.391 72.5 112.301 72.6484 112.246 72.7852H112.193V71.8359H111.133V78ZM115.738 78H116.799V74.5664C116.799 74.2109 116.857 73.8887 116.975 73.5996C117.092 73.3105 117.27 73.082 117.508 72.9141C117.75 72.7461 118.051 72.6621 118.41 72.6621C118.688 72.6621 118.926 72.7168 119.125 72.8262C119.324 72.9355 119.477 73.0996 119.582 73.3184C119.691 73.5332 119.746 73.8027 119.746 74.127V78H120.807V73.793C120.807 73.1016 120.613 72.5859 120.227 72.2461C119.84 71.9062 119.336 71.7363 118.715 71.7363C118.285 71.7363 117.943 71.8047 117.689 71.9414C117.436 72.0781 117.244 72.2402 117.115 72.4277C116.986 72.6152 116.896 72.791 116.846 72.9551H116.787V71.8359H115.738V78ZM130.51 71.8359H129.385L127.75 76.9629H127.703L126.074 71.8359H124.896L127.158 78.082L127.094 78.3105C127 78.6582 126.857 78.9062 126.666 79.0547C126.475 79.207 126.205 79.2832 125.857 79.2832C125.795 79.2832 125.715 79.2793 125.617 79.2715C125.523 79.2637 125.453 79.2578 125.406 79.2539V80.1094C125.484 80.125 125.582 80.1367 125.699 80.1445C125.816 80.1562 125.922 80.1621 126.016 80.1621C126.551 80.1621 126.988 80.0234 127.328 79.7461C127.668 79.4688 127.959 79.002 128.201 78.3457L128.33 78.0117C128.498 77.5391 128.67 77.0547 128.846 76.5586C129.021 76.0625 129.201 75.5566 129.385 75.041C129.568 74.5215 129.754 73.9941 129.941 73.459C130.129 72.9238 130.318 72.3828 130.51 71.8359ZM134.289 71.7363C133.777 71.7363 133.32 71.8477 132.918 72.0703C132.516 72.293 132.199 72.6074 131.969 73.0137C131.738 73.4199 131.623 73.9023 131.623 74.4609V75.3691C131.623 75.9512 131.736 76.4473 131.963 76.8574C132.193 77.2637 132.508 77.5723 132.906 77.7832C133.309 77.9941 133.77 78.0996 134.289 78.0996C134.801 78.0996 135.256 77.9941 135.654 77.7832C136.057 77.5684 136.373 77.2578 136.604 76.8516C136.834 76.4414 136.949 75.9473 136.949 75.3691V74.4551C136.949 73.8848 136.834 73.3965 136.604 72.9902C136.373 72.5801 136.057 72.2695 135.654 72.0586C135.256 71.8438 134.801 71.7363 134.289 71.7363ZM134.295 72.6387C134.623 72.6387 134.906 72.7207 135.145 72.8848C135.383 73.0449 135.564 73.2676 135.689 73.5527C135.818 73.8379 135.883 74.1699 135.883 74.5488V75.293C135.883 75.6758 135.82 76.0098 135.695 76.2949C135.574 76.5801 135.395 76.8027 135.156 76.9629C134.922 77.123 134.635 77.2031 134.295 77.2031C133.951 77.2031 133.658 77.123 133.416 76.9629C133.178 76.8027 132.996 76.5801 132.871 76.2949C132.746 76.0098 132.684 75.6758 132.684 75.293V74.5488C132.684 74.1738 132.748 73.8438 132.877 73.5586C133.01 73.2695 133.195 73.0449 133.434 72.8848C133.676 72.7207 133.963 72.6387 134.295 72.6387ZM143.734 71.8359H142.674V75.7207C142.674 75.9824 142.604 76.2246 142.463 76.4473C142.326 76.6699 142.139 76.8477 141.9 76.9805C141.662 77.1094 141.391 77.1738 141.086 77.1738C140.84 77.1738 140.615 77.1328 140.412 77.0508C140.213 76.9688 140.051 76.8301 139.926 76.6348C139.805 76.4355 139.744 76.166 139.744 75.8262V71.8359H138.684V76.1133C138.684 76.5898 138.773 76.9746 138.953 77.2676C139.133 77.5566 139.381 77.7676 139.697 77.9004C140.018 78.0332 140.383 78.0996 140.793 78.0996C141.152 78.0996 141.457 78.041 141.707 77.9238C141.961 77.8027 142.162 77.6562 142.311 77.4844C142.463 77.3125 142.568 77.1426 142.627 76.9746H142.686V78H143.734V71.8359ZM145.914 78H146.98V74.1914C146.98 73.9102 147.041 73.6582 147.162 73.4355C147.283 73.2129 147.463 73.0352 147.701 72.9023C147.943 72.7695 148.244 72.7031 148.604 72.7031C148.701 72.7031 148.795 72.707 148.885 72.7148C148.979 72.7188 149.051 72.7266 149.102 72.7383V71.7715C149.039 71.7637 148.975 71.7578 148.908 71.7539C148.846 71.7461 148.781 71.7422 148.715 71.7422C148.355 71.7422 148.061 71.8027 147.83 71.9238C147.6 72.041 147.422 72.1797 147.297 72.3398C147.172 72.5 147.082 72.6484 147.027 72.7852H146.975V71.8359H145.914V78ZM154.668 78H155.764L157.996 71.8359H156.865L155.23 76.9102H155.189L153.672 71.8359H152.5L154.668 78ZM161.641 71.7363C161.129 71.7363 160.672 71.8477 160.27 72.0703C159.867 72.293 159.551 72.6074 159.32 73.0137C159.09 73.4199 158.975 73.9023 158.975 74.4609V75.3691C158.975 75.9512 159.088 76.4473 159.314 76.8574C159.545 77.2637 159.859 77.5723 160.258 77.7832C160.66 77.9941 161.121 78.0996 161.641 78.0996C162.152 78.0996 162.607 77.9941 163.006 77.7832C163.408 77.5684 163.725 77.2578 163.955 76.8516C164.186 76.4414 164.301 75.9473 164.301 75.3691V74.4551C164.301 73.8848 164.186 73.3965 163.955 72.9902C163.725 72.5801 163.408 72.2695 163.006 72.0586C162.607 71.8438 162.152 71.7363 161.641 71.7363ZM161.646 72.6387C161.975 72.6387 162.258 72.7207 162.496 72.8848C162.734 73.0449 162.916 73.2676 163.041 73.5527C163.17 73.8379 163.234 74.1699 163.234 74.5488V75.293C163.234 75.6758 163.172 76.0098 163.047 76.2949C162.926 76.5801 162.746 76.8027 162.508 76.9629C162.273 77.123 161.986 77.2031 161.646 77.2031C161.303 77.2031 161.01 77.123 160.768 76.9629C160.529 76.8027 160.348 76.5801 160.223 76.2949C160.098 76.0098 160.035 75.6758 160.035 75.293V74.5488C160.035 74.1738 160.1 73.8438 160.229 73.5586C160.361 73.2695 160.547 73.0449 160.785 72.8848C161.027 72.7207 161.314 72.6387 161.646 72.6387ZM166.117 78H167.178V69.5801H166.117V78ZM174.309 71.8359H173.248V75.7207C173.248 75.9824 173.178 76.2246 173.037 76.4473C172.9 76.6699 172.713 76.8477 172.475 76.9805C172.236 77.1094 171.965 77.1738 171.66 77.1738C171.414 77.1738 171.189 77.1328 170.986 77.0508C170.787 76.9688 170.625 76.8301 170.5 76.6348C170.379 76.4355 170.318 76.166 170.318 75.8262V71.8359H169.258V76.1133C169.258 76.5898 169.348 76.9746 169.527 77.2676C169.707 77.5566 169.955 77.7676 170.271 77.9004C170.592 78.0332 170.957 78.0996 171.367 78.0996C171.727 78.0996 172.031 78.041 172.281 77.9238C172.535 77.8027 172.736 77.6562 172.885 77.4844C173.037 77.3125 173.143 77.1426 173.201 76.9746H173.26V78H174.309V71.8359ZM176.395 78H177.455V74.0801C177.455 73.7988 177.512 73.5508 177.625 73.3359C177.738 73.1211 177.895 72.9551 178.094 72.8379C178.297 72.7168 178.527 72.6562 178.785 72.6562C179.059 72.6562 179.291 72.7129 179.482 72.8262C179.678 72.9355 179.828 73.0918 179.934 73.2949C180.039 73.498 180.092 73.7344 180.092 74.0039V78H181.141V74.0918C181.141 73.8105 181.201 73.5625 181.322 73.3477C181.443 73.1328 181.605 72.9648 181.809 72.8438C182.012 72.7188 182.242 72.6562 182.5 72.6562C182.777 72.6562 183.012 72.7109 183.203 72.8203C183.395 72.9297 183.537 73.082 183.631 73.2773C183.729 73.4688 183.777 73.6973 183.777 73.9629V78H184.838V73.6641C184.838 73.0469 184.658 72.5723 184.299 72.2402C183.939 71.9043 183.443 71.7363 182.811 71.7363C182.463 71.7363 182.164 71.791 181.914 71.9004C181.664 72.0098 181.457 72.1543 181.293 72.334C181.133 72.5098 181.012 72.6973 180.93 72.8965H180.883C180.82 72.6777 180.713 72.4805 180.561 72.3047C180.412 72.1289 180.221 71.9902 179.986 71.8887C179.756 71.7871 179.484 71.7363 179.172 71.7363C178.793 71.7363 178.49 71.7969 178.264 71.918C178.037 72.0391 177.865 72.1836 177.748 72.3516C177.631 72.5156 177.549 72.6719 177.502 72.8203H177.443V71.8359H176.395V78ZM189.232 78.0996C189.623 78.0996 189.963 78.0469 190.252 77.9414C190.541 77.8359 190.783 77.7012 190.979 77.5371C191.174 77.3691 191.324 77.1914 191.43 77.0039C191.539 76.8164 191.605 76.6406 191.629 76.4766H190.539C190.504 76.6016 190.428 76.7207 190.311 76.834C190.197 76.9434 190.047 77.0332 189.859 77.1035C189.676 77.1699 189.465 77.2031 189.227 77.2031C188.715 77.2031 188.324 77.0391 188.055 76.7109C187.785 76.3828 187.65 75.9805 187.65 75.5039V75.1934H191.711V74.4492C191.711 73.8984 191.602 73.4199 191.383 73.0137C191.164 72.6074 190.861 72.293 190.475 72.0703C190.092 71.8477 189.65 71.7363 189.15 71.7363C188.662 71.7363 188.225 71.8477 187.838 72.0703C187.451 72.2891 187.146 72.6016 186.924 73.0078C186.705 73.4102 186.596 73.8906 186.596 74.4492V75.3867C186.596 75.9414 186.699 76.4219 186.906 76.8281C187.117 77.2344 187.42 77.5488 187.814 77.7715C188.209 77.9902 188.682 78.0996 189.232 78.0996ZM187.65 74.4258C187.65 74.4102 187.65 74.3945 187.65 74.3789C187.65 74.3633 187.65 74.3457 187.65 74.3262C187.65 73.9863 187.713 73.6895 187.838 73.4355C187.963 73.1777 188.139 72.9785 188.365 72.8379C188.592 72.6973 188.855 72.627 189.156 72.627C189.457 72.627 189.719 72.6973 189.941 72.8379C190.168 72.9785 190.344 73.1777 190.469 73.4355C190.594 73.6895 190.656 73.9863 190.656 74.3262C190.656 74.3457 190.656 74.3633 190.656 74.3789C190.656 74.3945 190.656 74.4102 190.656 74.4258H187.65ZM201.297 73.418V74.584C201.297 75.1699 201.201 75.6582 201.01 76.0488C200.822 76.4395 200.568 76.7305 200.248 76.9219C199.928 77.1133 199.564 77.209 199.158 77.209C198.752 77.209 198.387 77.1133 198.062 76.9219C197.742 76.7305 197.488 76.4395 197.301 76.0488C197.113 75.6582 197.02 75.1699 197.02 74.584V73.418C197.02 72.8281 197.113 72.3398 197.301 71.9531C197.488 71.5664 197.742 71.2773 198.062 71.0859C198.387 70.8906 198.752 70.793 199.158 70.793C199.564 70.793 199.928 70.8906 200.248 71.0859C200.568 71.2773 200.822 71.5664 201.01 71.9531C201.201 72.3398 201.297 72.8281 201.297 73.418ZM202.381 74.584V73.4238C202.381 72.666 202.248 72.0195 201.982 71.4844C201.717 70.9492 201.342 70.541 200.857 70.2598C200.377 69.9785 199.811 69.8379 199.158 69.8379C198.502 69.8379 197.932 69.9785 197.447 70.2598C196.967 70.541 196.594 70.9492 196.328 71.4844C196.066 72.0195 195.936 72.666 195.936 73.4238V74.584C195.936 75.3379 196.066 75.9824 196.328 76.5176C196.594 77.0527 196.967 77.4609 197.447 77.7422C197.932 78.0234 198.502 78.1641 199.158 78.1641C199.811 78.1641 200.377 78.0234 200.857 77.7422C201.342 77.4609 201.717 77.0527 201.982 76.5176C202.248 75.9824 202.381 75.3379 202.381 74.584ZM205.34 78V71.8418H205.381L209.348 78H210.367V70.002H209.307V76.1543H209.254L205.299 70.002H204.279V78H205.34ZM215.213 73.3066C215.213 73.5449 215.295 73.7422 215.459 73.8984C215.623 74.0547 215.82 74.1328 216.051 74.1328C216.293 74.1328 216.496 74.0547 216.66 73.8984C216.824 73.7422 216.906 73.5449 216.906 73.3066C216.906 73.0605 216.824 72.8574 216.66 72.6973C216.496 72.5371 216.293 72.457 216.051 72.457C215.82 72.457 215.623 72.5371 215.459 72.6973C215.295 72.8574 215.213 73.0605 215.213 73.3066ZM215.863 80.0918L216.678 76.6934H215.436L214.908 80.0918H215.863ZM218.26 69.5801C218.541 69.998 218.791 70.4688 219.01 70.9922C219.232 71.5117 219.408 72.0742 219.537 72.6797C219.67 73.2852 219.736 73.9219 219.736 74.5898C219.736 75.2617 219.682 75.9043 219.572 76.5176C219.467 77.127 219.305 77.7051 219.086 78.252C218.871 78.8027 218.596 79.3223 218.26 79.8105H219.186C219.518 79.4121 219.805 78.9434 220.047 78.4043C220.289 77.8652 220.475 77.2734 220.604 76.6289C220.736 75.9844 220.803 75.3086 220.803 74.6016C220.803 73.8945 220.736 73.2383 220.604 72.6328C220.471 72.0273 220.283 71.4707 220.041 70.9629C219.799 70.4512 219.512 69.9902 219.18 69.5801H218.26Z" fill="#757575"/>
<path fill-rule="evenodd" clip-rule="evenodd" d="M263.735 289.736L267.735 289.776L271.734 289.815C271.738 289.445 271.74 289.075 271.74 288.704C271.74 288.334 271.738 287.964 271.734 287.594L267.735 287.633L263.735 287.673C263.738 288.016 263.74 288.36 263.74 288.704C263.74 289.049 263.738 289.393 263.735 289.736ZM266.969 275.813L262.998 276.291C262.916 275.61 262.827 274.932 262.732 274.255L266.693 273.698L270.654 273.141C270.757 273.87 270.852 274.601 270.941 275.335L266.969 275.813ZM264.392 262.078L260.518 263.072C260.347 262.407 260.17 261.744 259.986 261.084L263.84 260.011L267.693 258.939C267.891 259.651 268.083 260.365 268.267 261.083L264.392 262.078ZM260.029 248.791L256.32 250.287C256.063 249.651 255.801 249.019 255.533 248.391L259.212 246.821L262.891 245.251C263.18 245.928 263.463 246.61 263.739 247.295L260.029 248.791ZM253.96 236.197L250.479 238.167C250.141 237.571 249.798 236.978 249.449 236.389L252.891 234.35L256.332 232.312C256.708 232.946 257.078 233.585 257.442 234.228L253.96 236.197ZM246.298 224.509L243.103 226.915C242.691 226.368 242.273 225.825 241.85 225.286L244.997 222.816L248.143 220.347C248.599 220.927 249.049 221.512 249.493 222.102L246.298 224.509ZM237.181 213.917L234.325 216.718C233.846 216.229 233.361 215.745 232.872 215.265L235.671 212.408L238.471 209.551C238.998 210.067 239.519 210.589 240.036 211.115L237.181 213.917ZM226.767 204.598L224.299 207.746C223.76 207.324 223.216 206.906 222.669 206.494L225.074 203.298L227.478 200.101C228.068 200.545 228.654 200.995 229.234 201.45L226.767 204.598ZM215.228 196.711L213.191 200.154C212.602 199.805 212.009 199.462 211.413 199.125L213.38 195.643L215.348 192.16C215.991 192.523 216.63 192.893 217.265 193.268L215.228 196.711ZM202.755 190.396L201.186 194.076C200.557 193.808 199.925 193.546 199.29 193.29L200.784 189.58L202.279 185.869C202.964 186.145 203.645 186.428 204.323 186.717L202.755 190.396ZM189.563 185.774L188.491 189.628C187.831 189.444 187.168 189.267 186.503 189.097L187.496 185.222L188.49 181.347C189.207 181.531 189.922 181.722 190.634 181.92L189.563 185.774ZM175.876 182.924L175.319 186.885C174.643 186.79 173.964 186.702 173.283 186.62L173.761 182.649L174.238 178.677C174.972 178.765 175.703 178.861 176.433 178.963L175.876 182.924ZM161.941 181.884L161.902 185.884C161.558 185.881 161.214 185.879 160.87 185.879C160.526 185.879 160.182 185.881 159.838 185.884L159.799 181.884L159.759 177.884C160.129 177.881 160.499 177.879 160.87 177.879C161.241 177.879 161.611 177.881 161.981 177.884L161.941 181.884ZM147.979 182.649L148.457 186.62C147.776 186.702 147.097 186.79 146.421 186.885L145.864 182.924L145.307 178.963C146.037 178.861 146.768 178.765 147.502 178.677L147.979 182.649ZM134.243 185.222L135.237 189.097C134.571 189.267 133.909 189.444 133.249 189.628L132.177 185.774L131.106 181.92C131.818 181.722 132.533 181.531 133.25 181.347L134.243 185.222ZM120.956 189.58L122.45 193.29C121.814 193.546 121.182 193.808 120.554 194.076L118.985 190.396L117.417 186.717C118.095 186.428 118.776 186.145 119.461 185.869L120.956 189.58ZM108.36 195.643L110.327 199.125C109.731 199.462 109.138 199.805 108.549 200.154L106.512 196.711L104.475 193.268C105.11 192.893 105.749 192.523 106.392 192.16L108.36 195.643ZM96.6664 203.298L99.071 206.494C98.5234 206.906 97.9801 207.324 97.4411 207.746L94.9734 204.598L92.5056 201.45C93.0864 200.995 93.6718 200.545 94.2617 200.101L96.6664 203.298ZM86.0686 212.408L88.8679 215.265C88.3787 215.745 87.8943 216.229 87.4148 216.718L84.5593 213.917L81.7039 211.115C82.2205 210.589 82.7423 210.067 83.2693 209.551L86.0686 212.408ZM76.7433 222.816L79.8898 225.286C79.467 225.825 79.0494 226.368 78.6372 226.915L75.4421 224.509L72.2471 222.102C72.6913 221.512 73.1412 220.927 73.5968 220.347L76.7433 222.816ZM68.8492 234.35L72.2907 236.389C71.9418 236.978 71.5987 237.571 71.2614 238.167L67.7799 236.197L64.2983 234.228C64.6619 233.585 65.0317 232.946 65.4077 232.312L68.8492 234.35ZM62.5281 246.821L66.207 248.391C65.9387 249.02 65.6764 249.651 65.4203 250.287L61.7106 248.791L58.0008 247.295C58.2769 246.61 58.5597 245.929 58.8491 245.251L62.5281 246.821ZM57.9001 260.011L61.7536 261.084C61.5699 261.744 61.3926 262.407 61.2218 263.072L57.3474 262.078L53.4731 261.083C53.6572 260.365 53.8484 259.651 54.0465 258.939L57.9001 260.011ZM55.0467 273.698L59.0077 274.255C58.9125 274.932 58.8239 275.61 58.742 276.291L54.7706 275.813L50.7993 275.335C50.8876 274.601 50.9831 273.87 51.0857 273.141L55.0467 273.698ZM58 288.704C58 288.36 58.0017 288.016 58.0051 287.673L54.0053 287.633L50.0055 287.594C50.0018 287.964 50 288.334 50 288.704C50 289.075 50.0018 289.445 50.0055 289.815L54.0053 289.776L58.0051 289.736C58.0017 289.393 58 289.049 58 288.704ZM54.7706 301.596L58.742 301.118C58.8239 301.798 58.9125 302.477 59.0077 303.154L55.0467 303.711L51.0857 304.268C50.9831 303.539 50.8876 302.808 50.7993 302.074L54.7706 301.596ZM57.3475 315.331L61.2218 314.337C61.3926 315.002 61.5699 315.665 61.7536 316.325L57.9001 317.398L54.0465 318.47C53.8484 317.758 53.6572 317.044 53.4731 316.326L57.3475 315.331ZM61.7106 328.618L65.4203 327.122C65.6764 327.758 65.9387 328.389 66.207 329.018L62.5281 330.588L58.8491 332.158C58.5597 331.48 58.2769 330.799 58.0008 330.114L61.7106 328.618ZM67.7799 341.212L71.2614 339.242C71.5987 339.838 71.9418 340.431 72.2907 341.02L68.8492 343.059L65.4077 345.097C65.0317 344.463 64.6619 343.824 64.2983 343.181L67.7799 341.212ZM75.4421 352.9L78.6372 350.494C79.0494 351.041 79.467 351.584 79.8898 352.123L76.7433 354.593L73.5968 357.062C73.1412 356.482 72.6913 355.897 72.2471 355.307L75.4421 352.9ZM244.997 354.593L241.85 352.123C242.273 351.584 242.691 351.041 243.103 350.494L246.298 352.9L249.493 355.307C249.049 355.897 248.599 356.482 248.143 357.062L244.997 354.593ZM252.891 343.059L249.449 341.02C249.798 340.431 250.141 339.838 250.479 339.242L253.96 341.212L257.442 343.181C257.078 343.824 256.708 344.463 256.332 345.097L252.891 343.059ZM259.212 330.588L255.533 329.018C255.801 328.389 256.064 327.758 256.32 327.122L260.029 328.618L263.739 330.114C263.463 330.799 263.18 331.48 262.891 332.158L259.212 330.588ZM263.84 317.398L259.986 316.325C260.17 315.665 260.347 315.002 260.518 314.337L264.392 315.331L268.267 316.326C268.083 317.043 267.891 317.758 267.693 318.47L263.84 317.398ZM266.693 303.711L262.732 303.154C262.827 302.477 262.916 301.798 262.998 301.118L266.969 301.596L270.941 302.074C270.852 302.808 270.757 303.539 270.654 304.268L266.693 303.711Z" fill="#D33636"/>
<g filter="url(#filter0_d_132_1003)">
<ellipse rx="76.9968" ry="77.2748" transform="matrix(-0.641571 0.767064 -0.766787 -0.641901 160.014 287.291)" fill="#F3F3F3"/>
</g>
<g filter="url(#filter1_i_132_1003)">
<rect width="5.21677" height="21.2916" rx="2.60838" transform="matrix(-0.641571 0.767064 -0.766787 -0.641901 210.986 326.02)" fill="#D33636"/>
</g>
<g filter="url(#filter2_d_132_1003)">
<rect x="16" y="443" width="288" height="42" rx="6" fill="url(#paint0_linear_132_1003)" shape-rendering="crispEdges"/>
<path d="M147.221 468.5V461.78H147.282L151.65 468.5H153.011V459.169H151.521V465.868H151.452L147.098 459.169H145.73V468.5H147.221ZM158.24 468.623C158.728 468.623 159.149 468.557 159.505 468.425C159.865 468.293 160.161 468.124 160.394 467.919C160.631 467.709 160.811 467.486 160.934 467.249C161.061 467.012 161.136 466.789 161.159 466.579H159.676C159.639 466.729 159.557 466.868 159.43 466.996C159.307 467.119 159.143 467.219 158.938 467.297C158.732 467.37 158.498 467.406 158.233 467.406C157.7 467.406 157.285 467.235 156.989 466.894C156.698 466.547 156.552 466.117 156.552 465.602V465.246H161.241V464.398C161.241 463.733 161.109 463.159 160.845 462.676C160.58 462.193 160.216 461.819 159.751 461.555C159.291 461.286 158.757 461.151 158.151 461.151C157.563 461.151 157.035 461.281 156.565 461.541C156.101 461.796 155.731 462.165 155.458 462.648C155.185 463.132 155.048 463.715 155.048 464.398V465.376C155.048 466.055 155.178 466.638 155.438 467.126C155.697 467.609 156.066 467.98 156.545 468.24C157.023 468.495 157.589 468.623 158.24 468.623ZM156.552 464.255C156.552 464.241 156.552 464.228 156.552 464.214C156.552 464.196 156.552 464.177 156.552 464.159C156.552 463.795 156.618 463.478 156.75 463.209C156.882 462.936 157.069 462.724 157.311 462.573C157.552 462.423 157.835 462.348 158.158 462.348C158.482 462.348 158.762 462.423 158.999 462.573C159.241 462.724 159.427 462.936 159.56 463.209C159.692 463.478 159.758 463.795 159.758 464.159C159.758 464.177 159.758 464.196 159.758 464.214C159.758 464.228 159.758 464.241 159.758 464.255H156.552ZM167.209 468.5H168.945C168.918 468.445 168.843 468.327 168.72 468.145C168.601 467.962 168.455 467.741 168.282 467.481C168.114 467.222 167.934 466.951 167.742 466.668C167.555 466.381 167.378 466.107 167.209 465.848C167.04 465.588 166.895 465.367 166.771 465.185C166.653 465.002 166.578 464.884 166.546 464.829L168.952 461.274H167.264L165.705 463.831H165.644L164.133 461.274H162.355C162.387 461.329 162.463 461.45 162.581 461.637C162.7 461.819 162.843 462.038 163.012 462.293C163.18 462.548 163.358 462.817 163.545 463.1C163.732 463.382 163.91 463.651 164.078 463.906C164.247 464.161 164.39 464.382 164.509 464.569C164.627 464.752 164.702 464.868 164.734 464.918L162.403 468.5H164.051L165.603 465.937H165.664L167.209 468.5ZM170.976 461.322H169.854V462.512H170.955V466.47C170.955 466.948 171.019 467.342 171.146 467.652C171.274 467.958 171.5 468.183 171.823 468.329C172.151 468.475 172.607 468.548 173.19 468.548C173.364 468.548 173.553 468.539 173.758 468.521C173.967 468.507 174.102 468.495 174.161 468.486V467.324C174.102 467.329 174.013 467.336 173.895 467.345C173.781 467.349 173.671 467.352 173.566 467.352C173.161 467.352 172.874 467.283 172.705 467.146C172.541 467.005 172.459 466.739 172.459 466.347V462.512H174.072V461.322H172.459V459.518H170.976V461.322Z" fill="white"/>
</g>
<path d="M145.23 526.5H148.881C149.528 526.5 150.095 526.397 150.583 526.192C151.071 525.983 151.449 525.682 151.718 525.29C151.991 524.898 152.128 524.426 152.128 523.875C152.128 523.424 152.039 523.036 151.861 522.713C151.684 522.385 151.44 522.127 151.13 521.94C150.825 521.749 150.474 521.631 150.077 521.585V521.517C150.387 521.43 150.658 521.296 150.891 521.113C151.123 520.931 151.303 520.703 151.431 520.43C151.563 520.152 151.629 519.83 151.629 519.466C151.629 518.75 151.385 518.19 150.897 517.784C150.414 517.374 149.765 517.169 148.949 517.169H145.23V526.5ZM146.775 518.399H148.621C149.086 518.399 149.446 518.518 149.701 518.755C149.961 518.987 150.091 519.311 150.091 519.726C150.091 520.031 150.018 520.288 149.872 520.498C149.731 520.703 149.514 520.858 149.223 520.963C148.931 521.063 148.553 521.113 148.088 521.113H146.775V518.399ZM146.775 522.282H148.751C149.134 522.282 149.46 522.344 149.729 522.467C149.997 522.585 150.2 522.761 150.337 522.993C150.478 523.221 150.549 523.497 150.549 523.82C150.549 524.312 150.369 524.677 150.009 524.914C149.653 525.151 149.07 525.27 148.259 525.27H146.775V522.282ZM155.977 526.609C156.337 526.609 156.646 526.562 156.906 526.466C157.171 526.366 157.392 526.236 157.569 526.076C157.747 525.917 157.888 525.746 157.993 525.563H158.062V526.5H159.504V521.605C159.504 521.004 159.376 520.525 159.121 520.17C158.866 519.814 158.524 519.559 158.096 519.404C157.667 519.245 157.196 519.165 156.681 519.165C156.229 519.165 155.833 519.213 155.491 519.309C155.154 519.404 154.869 519.543 154.637 519.726C154.409 519.903 154.231 520.118 154.104 520.368C153.98 520.614 153.908 520.888 153.885 521.188H155.327C155.368 521.024 155.439 520.883 155.539 520.765C155.639 520.642 155.778 520.546 155.956 520.478C156.134 520.405 156.359 520.368 156.633 520.368C157.048 520.368 157.378 520.468 157.624 520.669C157.87 520.865 157.993 521.17 157.993 521.585V522.262H156.168C155.334 522.262 154.698 522.46 154.261 522.856C153.828 523.248 153.611 523.763 153.611 524.401C153.611 525.076 153.83 525.614 154.268 526.015C154.71 526.411 155.279 526.609 155.977 526.609ZM156.441 525.434C156.104 525.434 155.801 525.345 155.532 525.167C155.268 524.985 155.136 524.704 155.136 524.326C155.136 524.021 155.236 523.77 155.437 523.574C155.642 523.378 155.965 523.28 156.407 523.28H157.993V524.06C157.993 524.324 157.923 524.559 157.781 524.764C157.645 524.969 157.46 525.133 157.228 525.256C156.995 525.374 156.733 525.434 156.441 525.434ZM161.411 523.39C161.411 524.055 161.536 524.629 161.787 525.112C162.042 525.595 162.402 525.969 162.867 526.233C163.332 526.493 163.886 526.623 164.528 526.623C165.175 526.623 165.711 526.518 166.135 526.309C166.563 526.094 166.884 525.814 167.099 525.468C167.317 525.117 167.434 524.739 167.447 524.333H166.012C165.975 524.524 165.905 524.7 165.8 524.859C165.7 525.014 165.549 525.137 165.349 525.229C165.153 525.32 164.893 525.365 164.569 525.365C164.059 525.365 163.658 525.188 163.366 524.832C163.079 524.477 162.936 523.996 162.936 523.39V522.378C162.936 521.781 163.075 521.305 163.353 520.949C163.631 520.594 164.034 520.416 164.562 520.416C164.9 520.416 165.166 520.475 165.362 520.594C165.558 520.712 165.702 520.858 165.793 521.031C165.889 521.2 165.948 521.362 165.971 521.517H167.406C167.397 521.102 167.281 520.717 167.058 520.361C166.834 520.001 166.511 519.71 166.087 519.486C165.668 519.263 165.148 519.151 164.528 519.151C163.895 519.151 163.343 519.284 162.874 519.548C162.409 519.812 162.049 520.184 161.794 520.662C161.539 521.136 161.411 521.697 161.411 522.344V523.39ZM170.817 523.916L171.405 523.294L173.668 526.5H175.459L172.54 522.405L175.274 519.274H173.545L170.886 522.405H170.817V516.677H169.307V526.5H170.817V523.916Z" fill="#2F2F2F"/>
<rect x="16.5" y="501.5" width="287" height="41" rx="5.5" stroke="#359D9E"/>
<path d="M55.5117 387.523C55.5117 387.027 55.5801 386.605 55.7168 386.258C55.8574 385.91 56.0586 385.645 56.3203 385.461C56.5859 385.277 56.9023 385.186 57.2695 385.186C57.5703 385.186 57.8359 385.25 58.0664 385.379C58.2969 385.504 58.4785 385.678 58.6113 385.9C58.748 386.123 58.8281 386.377 58.8516 386.662H60.3809C60.3809 386.639 60.3809 386.615 60.3809 386.592C60.3809 386.564 60.3809 386.539 60.3809 386.516C60.3613 386.117 60.2695 385.756 60.1055 385.432C59.9453 385.107 59.7266 384.826 59.4492 384.588C59.1719 384.35 58.8457 384.168 58.4707 384.043C58.0996 383.914 57.6953 383.85 57.2578 383.85C56.5469 383.85 55.9395 383.998 55.4355 384.295C54.9355 384.592 54.5547 385.014 54.293 385.561C54.0312 386.107 53.9004 386.76 53.9004 387.518V388.514C53.9004 389.271 54.0293 389.922 54.2871 390.465C54.5488 391.008 54.9297 391.426 55.4297 391.719C55.9297 392.008 56.5391 392.152 57.2578 392.152C57.8438 392.152 58.3672 392.043 58.8281 391.824C59.2891 391.605 59.6562 391.303 59.9297 390.916C60.2031 390.525 60.3535 390.076 60.3809 389.568C60.3809 389.545 60.3809 389.52 60.3809 389.492C60.3809 389.465 60.3809 389.439 60.3809 389.416H58.8516C58.8281 389.689 58.75 389.932 58.6172 390.143C58.4844 390.354 58.3027 390.52 58.0723 390.641C57.8418 390.758 57.5742 390.816 57.2695 390.816C56.8984 390.816 56.5801 390.729 56.3145 390.553C56.0527 390.373 55.8535 390.111 55.7168 389.768C55.5801 389.424 55.5117 389.006 55.5117 388.514V387.523ZM66.9492 387.482V388.525C66.9492 389.037 66.8711 389.465 66.7148 389.809C66.5586 390.152 66.3438 390.41 66.0703 390.582C65.7969 390.75 65.4844 390.834 65.1328 390.834C64.7773 390.834 64.4629 390.75 64.1895 390.582C63.9199 390.41 63.707 390.152 63.5508 389.809C63.3945 389.465 63.3164 389.037 63.3164 388.525V387.482C63.3164 386.967 63.3945 386.539 63.5508 386.199C63.707 385.855 63.9199 385.598 64.1895 385.426C64.4629 385.254 64.7773 385.168 65.1328 385.168C65.4844 385.168 65.7969 385.254 66.0703 385.426C66.3438 385.598 66.5586 385.855 66.7148 386.199C66.8711 386.539 66.9492 386.967 66.9492 387.482ZM68.5547 388.52V387.494C68.5547 386.74 68.418 386.092 68.1445 385.549C67.8711 385.002 67.4785 384.582 66.9668 384.289C66.459 383.996 65.8477 383.85 65.1328 383.85C64.4219 383.85 63.8086 383.996 63.293 384.289C62.7812 384.578 62.3887 384.996 62.1152 385.543C61.8418 386.086 61.7051 386.736 61.7051 387.494V388.52C61.7051 389.27 61.8418 389.918 62.1152 390.465C62.3887 391.008 62.7812 391.426 63.293 391.719C63.8086 392.008 64.4219 392.152 65.1328 392.152C65.8477 392.152 66.459 392.008 66.9668 391.719C67.4785 391.426 67.8711 391.008 68.1445 390.465C68.418 389.918 68.5547 389.27 68.5547 388.52ZM71.7363 392V386.65H71.8008L75.3223 392H76.6348V384.002H75.1348V389.322H75.0703L71.5664 384.002H70.2422V392H71.7363ZM78.1523 389.82C78.168 390.137 78.2422 390.436 78.375 390.717C78.5078 390.998 78.7012 391.248 78.9551 391.467C79.2129 391.682 79.5312 391.85 79.9102 391.971C80.2891 392.092 80.7324 392.152 81.2402 392.152C81.916 392.152 82.4883 392.047 82.957 391.836C83.4297 391.625 83.7891 391.332 84.0352 390.957C84.2852 390.578 84.4102 390.141 84.4102 389.645C84.4102 389.195 84.3203 388.822 84.1406 388.525C83.9609 388.229 83.7109 387.99 83.3906 387.811C83.0703 387.627 82.6934 387.486 82.2598 387.389L81.0176 387.102C80.6699 387.023 80.4004 386.906 80.209 386.75C80.0176 386.594 79.9219 386.395 79.9219 386.152C79.9219 385.84 80.0449 385.584 80.291 385.385C80.541 385.182 80.8828 385.08 81.3164 385.08C81.6016 385.08 81.8477 385.125 82.0547 385.215C82.2617 385.305 82.4258 385.426 82.5469 385.578C82.6719 385.73 82.752 385.902 82.7871 386.094H84.2871C84.2598 385.68 84.127 385.303 83.8887 384.963C83.6543 384.619 83.3203 384.346 82.8867 384.143C82.457 383.939 81.9375 383.838 81.3281 383.838C80.7422 383.838 80.2246 383.938 79.7754 384.137C79.3262 384.336 78.9746 384.617 78.7207 384.98C78.4668 385.344 78.3398 385.77 78.3398 386.258C78.3398 386.66 78.4219 387.01 78.5859 387.307C78.75 387.604 78.9844 387.848 79.2891 388.039C79.5938 388.23 79.9531 388.373 80.3672 388.467L81.6035 388.754C82.0176 388.852 82.3262 388.98 82.5293 389.141C82.7324 389.297 82.834 389.514 82.834 389.791C82.834 390.01 82.7773 390.203 82.6641 390.371C82.5508 390.535 82.3809 390.664 82.1543 390.758C81.9316 390.852 81.6562 390.898 81.3281 390.898C81.0938 390.898 80.8809 390.871 80.6895 390.816C80.498 390.762 80.332 390.686 80.1914 390.588C80.0508 390.49 79.9375 390.377 79.8516 390.248C79.7656 390.115 79.709 389.973 79.6816 389.82H78.1523ZM91.1777 390.705H87.5977V388.561H90.9668V387.348H87.5977V385.297H91.1777V384.002H86.0273V392H91.1777V390.705ZM96.1348 384.002H92.9414V392H94.5059V389.018H95.9238L97.3242 392H99.0938L97.4883 388.777C97.7305 388.68 97.9629 388.531 98.1855 388.332C98.4082 388.129 98.5898 387.877 98.7305 387.576C98.8711 387.271 98.9414 386.924 98.9414 386.533C98.9414 386.021 98.8301 385.576 98.6074 385.197C98.3887 384.818 98.0703 384.525 97.6523 384.318C97.2344 384.107 96.7285 384.002 96.1348 384.002ZM94.5059 387.828V385.244H95.9062C96.3242 385.244 96.6621 385.357 96.9199 385.584C97.1777 385.811 97.3066 386.137 97.3066 386.562C97.3066 386.984 97.1777 387.301 96.9199 387.512C96.666 387.723 96.3203 387.828 95.8828 387.828H94.5059ZM102.504 392H104.408L107.062 384.002H105.305L103.529 390.277H103.453L101.66 384.002H99.8262L102.504 392ZM108.65 392L109.277 389.943H111.949L112.576 392H114.258L111.586 384.002H109.734L107.051 392H108.65ZM110.654 385.531L111.633 388.766H109.605L110.584 385.531H110.654ZM118.119 392V385.326H120.393V384.002H114.264V385.326H116.531V392H118.119ZM123.223 392V384.002H121.641V392H123.223ZM127.102 392H129.006L131.66 384.002H129.902L128.127 390.277H128.051L126.258 384.002H124.424L127.102 392ZM138.018 390.705H134.438V388.561H137.807V387.348H134.438V385.297H138.018V384.002H132.867V392H138.018V390.705Z" fill="#B8B8B8"/>
<path d="M194.953 392L195.58 389.943H198.252L198.879 392H200.561L197.889 384.002H196.037L193.354 392H194.953ZM196.957 385.531L197.936 388.766H195.908L196.887 385.531H196.957ZM201.803 384.002V392H204.721C205.525 392 206.191 391.842 206.719 391.525C207.25 391.209 207.646 390.75 207.908 390.148C208.17 389.547 208.301 388.824 208.301 387.98C208.301 387.141 208.17 386.424 207.908 385.83C207.65 385.236 207.258 384.783 206.73 384.471C206.203 384.158 205.533 384.002 204.721 384.002H201.803ZM203.385 385.291H204.51C205.006 385.291 205.412 385.393 205.729 385.596C206.049 385.799 206.285 386.102 206.438 386.504C206.594 386.906 206.672 387.408 206.672 388.01C206.672 388.463 206.627 388.857 206.537 389.193C206.451 389.529 206.32 389.811 206.145 390.037C205.973 390.26 205.75 390.428 205.477 390.541C205.203 390.65 204.881 390.705 204.51 390.705H203.385V385.291ZM211.611 392H213.516L216.17 384.002H214.412L212.637 390.277H212.561L210.768 384.002H208.934L211.611 392ZM222.527 390.705H218.947V388.561H222.316V387.348H218.947V385.297H222.527V384.002H217.377V392H222.527V390.705ZM225.785 392V386.65H225.85L229.371 392H230.684V384.002H229.184V389.322H229.119L225.615 384.002H224.291V392H225.785ZM235.793 392V385.326H238.066V384.002H231.938V385.326H234.205V392H235.793ZM242.455 390.805C241.959 390.805 241.561 390.658 241.26 390.365C240.959 390.068 240.809 389.643 240.809 389.088V384.002H239.221V389.24C239.221 389.822 239.354 390.334 239.619 390.775C239.885 391.213 240.26 391.553 240.744 391.795C241.229 392.033 241.799 392.152 242.455 392.152C243.111 392.152 243.68 392.033 244.16 391.795C244.645 391.553 245.02 391.213 245.285 390.775C245.551 390.334 245.684 389.822 245.684 389.24V384.002H244.096V389.088C244.096 389.639 243.945 390.062 243.645 390.359C243.344 390.656 242.947 390.805 242.455 390.805ZM250.793 384.002H247.6V392H249.164V389.018H250.582L251.982 392H253.752L252.146 388.777C252.389 388.68 252.621 388.531 252.844 388.332C253.066 388.129 253.248 387.877 253.389 387.576C253.529 387.271 253.6 386.924 253.6 386.533C253.6 386.021 253.488 385.576 253.266 385.197C253.047 384.818 252.729 384.525 252.311 384.318C251.893 384.107 251.387 384.002 250.793 384.002ZM249.164 387.828V385.244H250.564C250.982 385.244 251.32 385.357 251.578 385.584C251.836 385.811 251.965 386.137 251.965 386.562C251.965 386.984 251.836 387.301 251.578 387.512C251.324 387.723 250.979 387.828 250.541 387.828H249.164ZM260.438 390.705H256.857V388.561H260.227V387.348H256.857V385.297H260.438V384.002H255.287V392H260.438V390.705ZM265.395 384.002H262.201V392H263.766V389.018H265.184L266.584 392H268.354L266.748 388.777C266.99 388.68 267.223 388.531 267.445 388.332C267.668 388.129 267.85 387.877 267.99 387.576C268.131 387.271 268.201 386.924 268.201 386.533C268.201 386.021 268.09 385.576 267.867 385.197C267.648 384.818 267.33 384.525 266.912 384.318C266.494 384.107 265.988 384.002 265.395 384.002ZM263.766 387.828V385.244H265.166C265.584 385.244 265.922 385.357 266.18 385.584C266.438 385.811 266.566 386.137 266.566 386.562C266.566 386.984 266.438 387.301 266.18 387.512C265.926 387.723 265.58 387.828 265.143 387.828H263.766Z" fill="#B8B8B8"/>
<defs>
<filter id="filter0_d_132_1003" x="68.8677" y="196.162" width="182.292" height="182.259" filterUnits="userSpaceOnUse" color-interpolation-filters="sRGB">
<feFlood flood-opacity="0" result="BackgroundImageFix"/>
<feColorMatrix in="SourceAlpha" type="matrix" values="0 0 0 0 0 0 0 0 0 0 0 0 0 0 0 0 0 0 127 0" result="hardAlpha"/>
<feMorphology radius="1" operator="erode" in="SourceAlpha" result="effect1_dropShadow_132_1003"/>
<feOffset/>
<feGaussianBlur stdDeviation="7.5"/>
<feComposite in2="hardAlpha" operator="out"/>
<feColorMatrix type="matrix" values="0 0 0 0 0 0 0 0 0 0 0 0 0 0 0 0 0 0 0.2 0"/>
<feBlend mode="normal" in2="BackgroundImageFix" result="effect1_dropShadow_132_1003"/>
<feBlend mode="normal" in="SourceGraphic" in2="effect1_dropShadow_132_1003" result="shape"/>
</filter>
<filter id="filter1_i_132_1003" x="191.313" y="312.353" width="19.673" height="18.8268" filterUnits="userSpaceOnUse" color-interpolation-filters="sRGB">
<feFlood flood-opacity="0" result="BackgroundImageFix"/>
<feBlend mode="normal" in="SourceGraphic" in2="BackgroundImageFix" result="shape"/>
<feColorMatrix in="SourceAlpha" type="matrix" values="0 0 0 0 0 0 0 0 0 0 0 0 0 0 0 0 0 0 127 0" result="hardAlpha"/>
<feOffset dy="1.15806"/>
<feGaussianBlur stdDeviation="0.579032"/>
<feComposite in2="hardAlpha" operator="arithmetic" k2="-1" k3="1"/>
<feColorMatrix type="matrix" values="0 0 0 0 0 0 0 0 0 0 0 0 0 0 0 0 0 0 0.25 0"/>
<feBlend mode="normal" in2="shape" result="effect1_innerShadow_132_1003"/>
</filter>
<filter id="filter2_d_132_1003" x="6" y="433" width="308" height="62" filterUnits="userSpaceOnUse" color-interpolation-filters="sRGB">
<feFlood flood-opacity="0" result="BackgroundImageFix"/>
<feColorMatrix in="SourceAlpha" type="matrix" values="0 0 0 0 0 0 0 0 0 0 0 0 0 0 0 0 0 0 127 0" result="hardAlpha"/>
<feMorphology radius="3" operator="dilate" in="SourceAlpha" result="effect1_dropShadow_132_1003"/>
<feOffset/>
<feGaussianBlur stdDeviation="3.5"/>
<feComposite in2="hardAlpha" operator="out"/>
<feColorMatrix type="matrix" values="0 0 0 0 0 0 0 0 0 0 0 0 0 0 0 0 0 0 0.12 0"/>
<feBlend mode="normal" in2="BackgroundImageFix" result="effect1_dropShadow_132_1003"/>
<feBlend mode="normal" in="SourceGraphic" in2="effect1_dropShadow_132_1003" result="shape"/>
</filter>
<linearGradient id="paint0_linear_132_1003" x1="85.5" y1="395" x2="176" y2="617.5" gradientUnits="userSpaceOnUse">
<stop stop-color="#215273"/>
<stop offset="1" stop-color="#359D9E"/>
</linearGradient>
</defs>
</svg>
