<svg width="320" height="568" viewBox="0 0 320 568" fill="none" xmlns="http://www.w3.org/2000/svg">
<rect width="320" height="568" fill="white"/>
<rect width="320" height="25.0399" fill="white"/>
<path d="M17.4765 16.5199H16.0902V11.2954C15.5837 11.769 14.9868 12.1193 14.2994 12.3462V11.0882C14.6611 10.9698 15.0542 10.7461 15.4785 10.4173C15.9027 10.0851 16.1938 9.69861 16.3517 9.25789H17.4765V16.5199ZM21.8033 9.25789C22.5039 9.25789 23.0515 9.50785 23.4462 10.0078C23.9165 10.5998 24.1516 11.5815 24.1516 12.953C24.1516 14.3213 23.9148 15.3047 23.4412 15.9032C23.0498 16.3966 22.5039 16.6433 21.8033 16.6433C21.0995 16.6433 20.5321 16.3736 20.1013 15.8342C19.6704 15.2915 19.455 14.3262 19.455 12.9382C19.455 11.5766 19.6918 10.5965 20.1654 9.99791C20.5568 9.50456 21.1028 9.25789 21.8033 9.25789ZM21.8033 10.4074C21.6356 10.4074 21.4859 10.4617 21.3544 10.5702C21.2228 10.6754 21.1209 10.8662 21.0485 11.1425C20.9531 11.501 20.9054 12.1045 20.9054 12.953C20.9054 13.8016 20.9482 14.3854 21.0337 14.7044C21.1192 15.0202 21.2261 15.2307 21.3544 15.3359C21.4859 15.4411 21.6356 15.4938 21.8033 15.4938C21.9711 15.4938 22.1207 15.4411 22.2523 15.3359C22.3838 15.2274 22.4858 15.035 22.5581 14.7587C22.6535 14.4035 22.7012 13.8016 22.7012 12.953C22.7012 12.1045 22.6584 11.5223 22.5729 11.2066C22.4874 10.8876 22.3789 10.6754 22.2473 10.5702C22.1191 10.4617 21.9711 10.4074 21.8033 10.4074ZM25.5529 12.6669V11.2806H26.9392V12.6669H25.5529ZM25.5529 16.5199V15.1336H26.9392V16.5199H25.5529ZM30.605 9.25789C31.3055 9.25789 31.8531 9.50785 32.2478 10.0078C32.7181 10.5998 32.9533 11.5815 32.9533 12.953C32.9533 14.3213 32.7165 15.3047 32.2429 15.9032C31.8515 16.3966 31.3055 16.6433 30.605 16.6433C29.9011 16.6433 29.3338 16.3736 28.9029 15.8342C28.4721 15.2915 28.2566 14.3262 28.2566 12.9382C28.2566 11.5766 28.4934 10.5965 28.967 9.99791C29.3584 9.50456 29.9044 9.25789 30.605 9.25789ZM30.605 10.4074C30.4372 10.4074 30.2876 10.4617 30.156 10.5702C30.0245 10.6754 29.9225 10.8662 29.8501 11.1425C29.7548 11.501 29.7071 12.1045 29.7071 12.953C29.7071 13.8016 29.7498 14.3854 29.8353 14.7044C29.9208 15.0202 30.0277 15.2307 30.156 15.3359C30.2876 15.4411 30.4372 15.4938 30.605 15.4938C30.7727 15.4938 30.9223 15.4411 31.0539 15.3359C31.1855 15.2274 31.2874 15.035 31.3598 14.7587C31.4552 14.4035 31.5028 13.8016 31.5028 12.953C31.5028 12.1045 31.4601 11.5223 31.3746 11.2066C31.2891 10.8876 31.1805 10.6754 31.049 10.5702C30.9207 10.4617 30.7727 10.4074 30.605 10.4074ZM33.8217 14.8475L35.1636 14.6995C35.1965 14.9725 35.282 15.1747 35.4202 15.3063C35.5583 15.4379 35.7409 15.5036 35.9678 15.5036C36.2539 15.5036 36.4973 15.3721 36.6979 15.109C36.8986 14.8458 37.0268 14.2999 37.0828 13.4711C36.7341 13.8756 36.2983 14.0779 35.7754 14.0779C35.2064 14.0779 34.7147 13.8592 34.3003 13.4217C33.8892 12.981 33.6836 12.4087 33.6836 11.7049C33.6836 10.9714 33.9007 10.3811 34.3348 9.93377C34.7723 9.48319 35.3281 9.25789 36.0023 9.25789C36.7358 9.25789 37.3376 9.54239 37.808 10.1114C38.2783 10.6771 38.5135 11.6095 38.5135 12.9086C38.5135 14.2308 38.2684 15.1846 37.7784 15.77C37.2883 16.3555 36.6503 16.6482 35.8642 16.6482C35.2985 16.6482 34.8413 16.4985 34.4927 16.1993C34.1441 15.8967 33.9204 15.4461 33.8217 14.8475ZM36.9594 11.8184C36.9594 11.3711 36.8558 11.0241 36.6486 10.7774C36.4447 10.5307 36.2079 10.4074 35.9382 10.4074C35.6817 10.4074 35.4679 10.5093 35.2968 10.7133C35.1291 10.9139 35.0452 11.2444 35.0452 11.7049C35.0452 12.1719 35.1373 12.5156 35.3215 12.736C35.5057 12.953 35.7359 13.0616 36.0122 13.0616C36.2786 13.0616 36.5023 12.9563 36.6831 12.7458C36.8673 12.5353 36.9594 12.2262 36.9594 11.8184Z" fill="black"/>
<rect opacity="0.35" x="288.003" y="8.10432" width="16.267" height="8.20146" rx="0.608093" stroke="white" stroke-width="0.280658"/>
<path opacity="0.4" d="M305.162 10.7082V13.7019C305.77 13.4483 306.165 12.8585 306.165 12.205C306.165 11.5516 305.77 10.9617 305.162 10.7082Z" fill="black"/>
<rect x="289.367" y="9.46085" width="13.539" height="5.48843" rx="0.374211" fill="black"/>
<path fill-rule="evenodd" clip-rule="evenodd" d="M276.512 9.22318C278.177 9.22326 279.778 9.92667 280.985 11.188C281.076 11.2854 281.221 11.2842 281.311 11.1853L282.179 10.2214C282.224 10.1713 282.25 10.1033 282.249 10.0326C282.249 9.96192 282.223 9.89429 282.177 9.84472C279.01 6.50749 274.013 6.50749 270.846 9.84472C270.8 9.89426 270.774 9.96186 270.774 10.0326C270.773 10.1033 270.798 10.1712 270.844 10.2214L271.713 11.1853C271.802 11.2843 271.947 11.2855 272.038 11.188C273.245 9.92659 274.847 9.22318 276.512 9.22318ZM276.511 12.3515C277.426 12.3515 278.31 12.7349 278.988 13.4272C279.08 13.5255 279.225 13.5234 279.314 13.4224L280.183 12.434C280.229 12.3821 280.254 12.3118 280.254 12.2387C280.253 12.1656 280.226 12.0959 280.18 12.0451C278.112 9.87921 274.911 9.87921 272.843 12.0451C272.797 12.0959 272.77 12.1657 272.769 12.2388C272.769 12.3119 272.794 12.3822 272.84 12.434L273.708 13.4224C273.798 13.5234 273.943 13.5255 274.034 13.4272C274.713 12.7353 275.595 12.3519 276.511 12.3515ZM278.258 14.6385C278.259 14.7102 278.233 14.7794 278.187 14.8297L276.679 16.5016C276.635 16.5508 276.574 16.5784 276.512 16.5784C276.449 16.5784 276.388 16.5508 276.344 16.5016L274.836 14.8297C274.789 14.7794 274.764 14.7102 274.765 14.6384C274.767 14.5667 274.795 14.4987 274.843 14.4506C275.806 13.5557 277.217 13.5557 278.18 14.4506C278.228 14.4987 278.256 14.5667 278.258 14.6385Z" fill="black"/>
<path fill-rule="evenodd" clip-rule="evenodd" d="M266.844 8.96189C266.844 8.54855 266.509 8.21347 266.096 8.21347H265.347C264.934 8.21347 264.599 8.54855 264.599 8.96189V15.4482C264.599 15.8616 264.934 16.1966 265.347 16.1966H266.096C266.509 16.1966 266.844 15.8616 266.844 15.4482V8.96189ZM261.855 9.95981H262.603C263.017 9.95981 263.352 10.2949 263.352 10.7082V15.4482C263.352 15.8616 263.017 16.1967 262.603 16.1967H261.855C261.441 16.1967 261.106 15.8616 261.106 15.4482V10.7082C261.106 10.2949 261.441 9.95981 261.855 9.95981ZM259.111 11.7061H258.362C257.949 11.7061 257.614 12.0412 257.614 12.4545V15.4482C257.614 15.8616 257.949 16.1967 258.362 16.1967H259.111C259.524 16.1967 259.859 15.8616 259.859 15.4482V12.4545C259.859 12.0412 259.524 11.7061 259.111 11.7061ZM256.366 13.9514C256.366 13.538 256.031 13.2029 255.618 13.2029H254.87C254.456 13.2029 254.121 13.538 254.121 13.9514V15.4482C254.121 15.8616 254.456 16.1966 254.87 16.1966H255.618C256.031 16.1966 256.366 15.8616 256.366 15.4482V13.9514Z" fill="black"/>
<path d="M86.7656 61V52.4375H89.6719V50.3359H81.2969V52.4375H84.2031V61H86.7656ZM100.281 61V50.3359H97.7109V54.5547H93.7812V50.3359H91.2109V61H93.7812V56.6328H97.7109V61H100.281ZM105.344 61V50.3359H102.773V61H105.344ZM110.211 61V54.6016H110.312L114.602 61H116.617V50.3359H114.227V56.6719H114.125L109.852 50.3359H107.82V61H110.211ZM128.203 50.3359H125.453L121.781 54.8828H121.672V50.3359H119.102V61H121.672V57.7734L122.625 56.6562L125.312 61H128.344L124.5 54.9609L128.203 50.3359ZM134.789 61L135.484 58.5391H138.789L139.484 61H142.211L138.789 50.3359H135.664L132.227 61H134.789ZM137.211 52.6328L138.328 56.6875H135.961L137.094 52.6328H137.211ZM143.727 61H148.523C149.216 61 149.841 60.8828 150.398 60.6484C150.961 60.4089 151.406 60.0651 151.734 59.6172C152.062 59.1641 152.227 58.6172 152.227 57.9766C152.227 57.4193 152.107 56.9557 151.867 56.5859C151.633 56.2109 151.331 55.9271 150.961 55.7344C150.596 55.5365 150.216 55.4245 149.82 55.3984V55.2812C150.164 55.2135 150.479 55.0833 150.766 54.8906C151.052 54.6979 151.281 54.4401 151.453 54.1172C151.63 53.7943 151.719 53.4062 151.719 52.9531C151.719 52.1302 151.419 51.4896 150.82 51.0312C150.221 50.5677 149.43 50.3359 148.445 50.3359H143.727V61ZM146.266 52.1562H147.797C148.25 52.1562 148.599 52.2682 148.844 52.4922C149.089 52.7161 149.211 53.0182 149.211 53.3984C149.211 53.6536 149.151 53.8776 149.031 54.0703C148.917 54.2578 148.734 54.4062 148.484 54.5156C148.234 54.6198 147.911 54.6719 147.516 54.6719H146.266V52.1562ZM146.266 56.3281H147.914C148.294 56.3281 148.609 56.388 148.859 56.5078C149.115 56.6224 149.305 56.7891 149.43 57.0078C149.56 57.2214 149.625 57.474 149.625 57.7656C149.625 58.2031 149.471 58.5495 149.164 58.8047C148.857 59.0547 148.354 59.1797 147.656 59.1797H146.266V56.3281ZM160.578 55.0312V56.3125C160.578 56.9271 160.487 57.4427 160.305 57.8594C160.128 58.276 159.88 58.5885 159.562 58.7969C159.245 59.0052 158.875 59.1094 158.453 59.1094C158.026 59.1094 157.654 59.0052 157.336 58.7969C157.018 58.5885 156.768 58.276 156.586 57.8594C156.409 57.4427 156.32 56.9271 156.32 56.3125V55.0312C156.32 54.4115 156.409 53.8958 156.586 53.4844C156.768 53.0677 157.018 52.7552 157.336 52.5469C157.654 52.3385 158.026 52.2344 158.453 52.2344C158.875 52.2344 159.245 52.3385 159.562 52.5469C159.88 52.7552 160.128 53.0677 160.305 53.4844C160.487 53.8958 160.578 54.4115 160.578 55.0312ZM163.195 56.3047V55.0625C163.195 54.0521 163.008 53.1823 162.633 52.4531C162.263 51.7188 161.724 51.151 161.016 50.75C160.312 50.349 159.458 50.1484 158.453 50.1484C157.453 50.1484 156.596 50.3464 155.883 50.7422C155.174 51.138 154.633 51.7057 154.258 52.4453C153.888 53.1797 153.703 54.0521 153.703 55.0625V56.3047C153.703 57.2995 153.888 58.1641 154.258 58.8984C154.633 59.6328 155.174 60.2005 155.883 60.6016C156.596 60.9974 157.453 61.1953 158.453 61.1953C159.458 61.1953 160.312 60.9974 161.016 60.6016C161.724 60.2005 162.263 59.6328 162.633 58.8984C163.008 58.1641 163.195 57.2995 163.195 56.3047ZM169.602 59.0547C169.039 59.0547 168.581 58.8854 168.227 58.5469C167.878 58.2083 167.703 57.6979 167.703 57.0156V50.3359H165.141V57.3125C165.141 58.0938 165.32 58.776 165.68 59.3594C166.044 59.9427 166.56 60.3958 167.227 60.7188C167.898 61.0365 168.69 61.1953 169.602 61.1953C170.518 61.1953 171.31 61.0365 171.977 60.7188C172.643 60.3958 173.159 59.9427 173.523 59.3594C173.888 58.776 174.07 58.0938 174.07 57.3125V50.3359H171.508V57.0156C171.508 57.6875 171.331 58.1953 170.977 58.5391C170.622 58.8828 170.164 59.0547 169.602 59.0547ZM180.969 61V52.4375H183.875V50.3359H175.5V52.4375H178.406V61H180.969ZM193.438 50.3359H188.93V61H191.453V57.1875H192.93L194.734 61H197.578L195.453 56.8281C195.729 56.7135 196.013 56.526 196.305 56.2656C196.602 56.0052 196.852 55.6719 197.055 55.2656C197.258 54.8542 197.359 54.375 197.359 53.8281C197.359 53.125 197.208 52.513 196.906 51.9922C196.604 51.4661 196.161 51.0599 195.578 50.7734C194.995 50.4818 194.281 50.3359 193.438 50.3359ZM191.453 55.3672V52.2578H193.055C193.529 52.2578 193.924 52.3932 194.242 52.6641C194.56 52.9349 194.719 53.3281 194.719 53.8438C194.719 54.3542 194.562 54.737 194.25 54.9922C193.938 55.2422 193.531 55.3672 193.031 55.3672H191.453ZM201.969 61V50.3359H199.398V61H201.969ZM203.867 57.9531C203.883 58.3698 203.974 58.7734 204.141 59.1641C204.307 59.5495 204.562 59.8958 204.906 60.2031C205.25 60.5104 205.69 60.7526 206.227 60.9297C206.763 61.1068 207.406 61.1953 208.156 61.1953C209.115 61.1953 209.917 61.0495 210.562 60.7578C211.214 60.4661 211.706 60.0625 212.039 59.5469C212.372 59.026 212.539 58.4271 212.539 57.75C212.539 57.099 212.409 56.5677 212.148 56.1562C211.888 55.7448 211.536 55.4219 211.094 55.1875C210.656 54.9531 210.164 54.7839 209.617 54.6797L208.07 54.3594C207.622 54.2708 207.271 54.138 207.016 53.9609C206.766 53.7839 206.641 53.5521 206.641 53.2656C206.641 52.9219 206.776 52.638 207.047 52.4141C207.323 52.1849 207.719 52.0703 208.234 52.0703C208.594 52.0703 208.896 52.1276 209.141 52.2422C209.391 52.3568 209.583 52.5052 209.719 52.6875C209.859 52.8698 209.945 53.0677 209.977 53.2812H212.352C212.331 52.7292 212.164 52.2135 211.852 51.7344C211.539 51.2552 211.081 50.8698 210.477 50.5781C209.878 50.2812 209.133 50.1328 208.242 50.1328C207.419 50.1328 206.695 50.2682 206.07 50.5391C205.451 50.8047 204.964 51.1875 204.609 51.6875C204.26 52.1823 204.086 52.7708 204.086 53.4531C204.086 54.0417 204.203 54.5417 204.438 54.9531C204.677 55.3594 205.008 55.6875 205.43 55.9375C205.857 56.1875 206.354 56.3698 206.922 56.4844L208.43 56.8125C208.951 56.9219 209.344 57.0651 209.609 57.2422C209.875 57.4193 210.008 57.6745 210.008 58.0078C210.008 58.2422 209.945 58.4531 209.82 58.6406C209.695 58.8229 209.503 58.9688 209.242 59.0781C208.987 59.1823 208.659 59.2344 208.258 59.2344C207.966 59.2344 207.706 59.2005 207.477 59.1328C207.247 59.0651 207.049 58.974 206.883 58.8594C206.716 58.7396 206.583 58.6016 206.484 58.4453C206.391 58.2891 206.333 58.125 206.312 57.9531H203.867ZM223.625 50.3359H220.875L217.203 54.8828H217.094V50.3359H214.523V61H217.094V57.7734L218.047 56.6562L220.734 61H223.766L219.922 54.9609L223.625 50.3359ZM224.977 59.7109C224.977 60.1589 225.125 60.513 225.422 60.7734C225.719 61.0339 226.078 61.1641 226.5 61.1641C226.927 61.1641 227.289 61.0339 227.586 60.7734C227.888 60.513 228.039 60.1589 228.039 59.7109C228.039 59.2578 227.891 58.8984 227.594 58.6328C227.297 58.3672 226.932 58.2344 226.5 58.2344C226.073 58.2344 225.711 58.3646 225.414 58.625C225.122 58.8854 224.977 59.2474 224.977 59.7109ZM229.961 59.7109C229.961 60.1589 230.109 60.513 230.406 60.7734C230.703 61.0339 231.062 61.1641 231.484 61.1641C231.911 61.1641 232.273 61.0339 232.57 60.7734C232.872 60.513 233.023 60.1589 233.023 59.7109C233.023 59.2578 232.875 58.8984 232.578 58.6328C232.281 58.3672 231.917 58.2344 231.484 58.2344C231.057 58.2344 230.695 58.3646 230.398 58.625C230.107 58.8854 229.961 59.2474 229.961 59.7109ZM234.945 59.7109C234.945 60.1589 235.094 60.513 235.391 60.7734C235.688 61.0339 236.047 61.1641 236.469 61.1641C236.896 61.1641 237.258 61.0339 237.555 60.7734C237.857 60.513 238.008 60.1589 238.008 59.7109C238.008 59.2578 237.859 58.8984 237.562 58.6328C237.266 58.3672 236.901 58.2344 236.469 58.2344C236.042 58.2344 235.68 58.3646 235.383 58.625C235.091 58.8854 234.945 59.2474 234.945 59.7109Z" fill="#2F2F2F"/>
<path d="M67.3926 78L69.0566 71.7422H69.1035L70.7676 78H71.7344L73.9258 70.002H72.6895L71.2363 76.3652H71.1777L69.6074 70.002H68.5527L66.9883 76.3652H66.9297L65.4766 70.002H64.2344L66.4316 78H67.3926ZM75.2207 78H76.2812V74.5664C76.2812 74.2109 76.3418 73.8887 76.4629 73.5996C76.584 73.3105 76.7637 73.082 77.002 72.9141C77.2402 72.7461 77.5352 72.6621 77.8867 72.6621C78.1641 72.6621 78.4043 72.7168 78.6074 72.8262C78.8145 72.9355 78.9727 73.1016 79.082 73.3242C79.1953 73.543 79.252 73.8145 79.252 74.1387V78H80.3125V73.8047C80.3125 73.1133 80.1152 72.5957 79.7207 72.252C79.3301 71.9082 78.8359 71.7363 78.2383 71.7363C77.8125 71.7363 77.4668 71.8086 77.2012 71.9531C76.9355 72.0938 76.7344 72.2617 76.5977 72.457C76.4648 72.6484 76.377 72.8145 76.334 72.9551H76.2812V69.5801H75.2207V78ZM84.0273 78.0996C84.332 78.0996 84.5977 78.0586 84.8242 77.9766C85.0508 77.8906 85.2422 77.7773 85.3984 77.6367C85.5586 77.4961 85.6895 77.3438 85.791 77.1797H85.8379V78H86.8574V73.793C86.8574 73.2891 86.752 72.8867 86.541 72.5859C86.3301 72.2852 86.0488 72.0684 85.6973 71.9355C85.3496 71.8027 84.9629 71.7363 84.5371 71.7363C84.1934 71.7363 83.8848 71.7734 83.6113 71.8477C83.3379 71.918 83.1035 72.0234 82.9082 72.1641C82.7129 72.3008 82.5586 72.4707 82.4453 72.6738C82.3359 72.873 82.2695 73.1035 82.2461 73.3652H83.2715C83.3145 73.2207 83.3809 73.0938 83.4707 72.9844C83.5645 72.875 83.6934 72.7891 83.8574 72.7266C84.0254 72.6641 84.2402 72.6328 84.502 72.6328C84.8965 72.6328 85.209 72.7266 85.4395 72.9141C85.6738 73.1016 85.791 73.3926 85.791 73.7871V74.3965H84.1797C83.4727 74.3965 82.9336 74.5645 82.5625 74.9004C82.1953 75.2324 82.0117 75.668 82.0117 76.207C82.0117 76.7773 82.1973 77.2363 82.5684 77.584C82.9434 77.9277 83.4297 78.0996 84.0273 78.0996ZM84.3203 77.209C84 77.209 83.7148 77.125 83.4648 76.957C83.2188 76.7891 83.0957 76.5273 83.0957 76.1719C83.0957 75.8945 83.1855 75.6641 83.3652 75.4805C83.5488 75.2969 83.8496 75.2051 84.2676 75.2051H85.791V75.8906C85.791 76.1445 85.7246 76.3711 85.5918 76.5703C85.4629 76.7656 85.2891 76.9219 85.0703 77.0391C84.8516 77.1523 84.6016 77.209 84.3203 77.209ZM89.248 71.8535H88.2988V72.7148H89.2422V76.2715C89.2422 76.6777 89.2891 77.0137 89.3828 77.2793C89.4766 77.541 89.6504 77.7363 89.9043 77.8652C90.1621 77.9902 90.5352 78.0527 91.0234 78.0527C91.1406 78.0527 91.2852 78.0469 91.457 78.0352C91.6289 78.0234 91.7363 78.0117 91.7793 78V77.1504C91.7324 77.1543 91.6582 77.1602 91.5566 77.168C91.4551 77.1758 91.3672 77.1797 91.293 77.1797C90.918 77.1797 90.6582 77.1191 90.5137 76.998C90.3691 76.873 90.2969 76.6289 90.2969 76.2656V72.7148H91.6914V71.8535H90.2969V70.3066H89.248V71.8535ZM103.691 71.8359H102.631L101.518 76.6816H101.477L100.088 71.8359H99.0918L97.7441 76.6816H97.7031L96.6133 71.8359H95.4355L97.1641 78H98.2246L99.5781 73.2832H99.6074L100.996 78H102.051L103.691 71.8359ZM107.324 71.7363C106.812 71.7363 106.355 71.8477 105.953 72.0703C105.551 72.293 105.234 72.6074 105.004 73.0137C104.773 73.4199 104.658 73.9023 104.658 74.4609V75.3691C104.658 75.9512 104.771 76.4473 104.998 76.8574C105.229 77.2637 105.543 77.5723 105.941 77.7832C106.344 77.9941 106.805 78.0996 107.324 78.0996C107.836 78.0996 108.291 77.9941 108.689 77.7832C109.092 77.5684 109.408 77.2578 109.639 76.8516C109.869 76.4414 109.984 75.9473 109.984 75.3691V74.4551C109.984 73.8848 109.869 73.3965 109.639 72.9902C109.408 72.5801 109.092 72.2695 108.689 72.0586C108.291 71.8438 107.836 71.7363 107.324 71.7363ZM107.33 72.6387C107.658 72.6387 107.941 72.7207 108.18 72.8848C108.418 73.0449 108.6 73.2676 108.725 73.5527C108.854 73.8379 108.918 74.1699 108.918 74.5488V75.293C108.918 75.6758 108.855 76.0098 108.73 76.2949C108.609 76.5801 108.43 76.8027 108.191 76.9629C107.957 77.123 107.67 77.2031 107.33 77.2031C106.986 77.2031 106.693 77.123 106.451 76.9629C106.213 76.8027 106.031 76.5801 105.906 76.2949C105.781 76.0098 105.719 75.6758 105.719 75.293V74.5488C105.719 74.1738 105.783 73.8438 105.912 73.5586C106.045 73.2695 106.23 73.0449 106.469 72.8848C106.711 72.7207 106.998 72.6387 107.33 72.6387ZM111.859 78H112.926V74.1914C112.926 73.9102 112.986 73.6582 113.107 73.4355C113.229 73.2129 113.408 73.0352 113.646 72.9023C113.889 72.7695 114.189 72.7031 114.549 72.7031C114.646 72.7031 114.74 72.707 114.83 72.7148C114.924 72.7188 114.996 72.7266 115.047 72.7383V71.7715C114.984 71.7637 114.92 71.7578 114.854 71.7539C114.791 71.7461 114.727 71.7422 114.66 71.7422C114.301 71.7422 114.006 71.8027 113.775 71.9238C113.545 72.041 113.367 72.1797 113.242 72.3398C113.117 72.5 113.027 72.6484 112.973 72.7852H112.92V71.8359H111.859V78ZM118.545 71.7422C118.068 71.7422 117.65 71.8496 117.291 72.0645C116.932 72.2754 116.652 72.5742 116.453 72.9609C116.254 73.3438 116.154 73.7969 116.154 74.3203V75.5156C116.154 76.0352 116.252 76.4883 116.447 76.875C116.643 77.2617 116.916 77.5605 117.268 77.7715C117.623 77.9824 118.041 78.0879 118.521 78.0879C118.748 78.0879 118.963 78.0605 119.166 78.0059C119.369 77.9551 119.553 77.8828 119.717 77.7891C119.885 77.6953 120.025 77.584 120.139 77.4551C120.252 77.3223 120.33 77.1758 120.373 77.0156H120.426V78H121.445V69.5801H120.385V72.75H120.332C120.25 72.543 120.123 72.3633 119.951 72.2109C119.783 72.0586 119.58 71.9434 119.342 71.8652C119.104 71.7832 118.838 71.7422 118.545 71.7422ZM118.762 72.6504C119.074 72.6504 119.352 72.7227 119.594 72.8672C119.84 73.0078 120.033 73.2051 120.174 73.459C120.314 73.709 120.385 73.9961 120.385 74.3203V75.3867C120.385 75.7539 120.318 76.0723 120.186 76.3418C120.053 76.6074 119.867 76.8145 119.629 76.9629C119.395 77.1074 119.115 77.1797 118.791 77.1797C118.467 77.1797 118.188 77.1055 117.953 76.957C117.719 76.8086 117.537 76.5938 117.408 76.3125C117.283 76.0273 117.221 75.6855 117.221 75.2871V74.5371C117.221 74.1426 117.283 73.8047 117.408 73.5234C117.533 73.2422 117.709 73.0273 117.936 72.8789C118.166 72.7266 118.441 72.6504 118.762 72.6504ZM125.975 75.4102C125.975 75.9609 126.078 76.4375 126.285 76.8398C126.496 77.2422 126.793 77.5527 127.176 77.7715C127.562 77.9902 128.02 78.0996 128.547 78.0996C129.09 78.0996 129.535 78.0137 129.883 77.8418C130.234 77.666 130.498 77.4395 130.674 77.1621C130.85 76.8809 130.943 76.5898 130.955 76.2891H129.924C129.889 76.4453 129.822 76.5918 129.725 76.7285C129.627 76.8613 129.484 76.9688 129.297 77.0508C129.113 77.1328 128.869 77.1738 128.564 77.1738C128.088 77.1738 127.713 77.0156 127.439 76.6992C127.17 76.3789 127.035 75.9531 127.035 75.4219V74.4375C127.035 73.8945 127.164 73.4629 127.422 73.1426C127.684 72.8223 128.064 72.6621 128.564 72.6621C128.885 72.6621 129.137 72.7168 129.32 72.8262C129.504 72.9316 129.637 73.0605 129.719 73.2129C129.805 73.3613 129.859 73.4961 129.883 73.6172H130.914C130.906 73.3086 130.812 73.0117 130.633 72.7266C130.453 72.4375 130.189 72.2012 129.842 72.0176C129.494 71.8301 129.062 71.7363 128.547 71.7363C128.02 71.7363 127.562 71.8457 127.176 72.0645C126.793 72.2832 126.496 72.5938 126.285 72.9961C126.078 73.3945 125.975 73.8633 125.975 74.4023V75.4102ZM135.004 71.7363C134.492 71.7363 134.035 71.8477 133.633 72.0703C133.23 72.293 132.914 72.6074 132.684 73.0137C132.453 73.4199 132.338 73.9023 132.338 74.4609V75.3691C132.338 75.9512 132.451 76.4473 132.678 76.8574C132.908 77.2637 133.223 77.5723 133.621 77.7832C134.023 77.9941 134.484 78.0996 135.004 78.0996C135.516 78.0996 135.971 77.9941 136.369 77.7832C136.771 77.5684 137.088 77.2578 137.318 76.8516C137.549 76.4414 137.664 75.9473 137.664 75.3691V74.4551C137.664 73.8848 137.549 73.3965 137.318 72.9902C137.088 72.5801 136.771 72.2695 136.369 72.0586C135.971 71.8438 135.516 71.7363 135.004 71.7363ZM135.01 72.6387C135.338 72.6387 135.621 72.7207 135.859 72.8848C136.098 73.0449 136.279 73.2676 136.404 73.5527C136.533 73.8379 136.598 74.1699 136.598 74.5488V75.293C136.598 75.6758 136.535 76.0098 136.41 76.2949C136.289 76.5801 136.109 76.8027 135.871 76.9629C135.637 77.123 135.35 77.2031 135.01 77.2031C134.666 77.2031 134.373 77.123 134.131 76.9629C133.893 76.8027 133.711 76.5801 133.586 76.2949C133.461 76.0098 133.398 75.6758 133.398 75.293V74.5488C133.398 74.1738 133.463 73.8438 133.592 73.5586C133.725 73.2695 133.91 73.0449 134.148 72.8848C134.391 72.7207 134.678 72.6387 135.01 72.6387ZM139.445 78H140.506V74.0801C140.506 73.7988 140.562 73.5508 140.676 73.3359C140.789 73.1211 140.945 72.9551 141.145 72.8379C141.348 72.7168 141.578 72.6562 141.836 72.6562C142.109 72.6562 142.342 72.7129 142.533 72.8262C142.729 72.9355 142.879 73.0918 142.984 73.2949C143.09 73.498 143.143 73.7344 143.143 74.0039V78H144.191V74.0918C144.191 73.8105 144.252 73.5625 144.373 73.3477C144.494 73.1328 144.656 72.9648 144.859 72.8438C145.062 72.7188 145.293 72.6562 145.551 72.6562C145.828 72.6562 146.062 72.7109 146.254 72.8203C146.445 72.9297 146.588 73.082 146.682 73.2773C146.779 73.4688 146.828 73.6973 146.828 73.9629V78H147.889V73.6641C147.889 73.0469 147.709 72.5723 147.35 72.2402C146.99 71.9043 146.494 71.7363 145.861 71.7363C145.514 71.7363 145.215 71.791 144.965 71.9004C144.715 72.0098 144.508 72.1543 144.344 72.334C144.184 72.5098 144.062 72.6973 143.98 72.8965H143.934C143.871 72.6777 143.764 72.4805 143.611 72.3047C143.463 72.1289 143.271 71.9902 143.037 71.8887C142.807 71.7871 142.535 71.7363 142.223 71.7363C141.844 71.7363 141.541 71.7969 141.314 71.918C141.088 72.0391 140.916 72.1836 140.799 72.3516C140.682 72.5156 140.6 72.6719 140.553 72.8203H140.494V71.8359H139.445V78ZM152.283 78.0996C152.674 78.0996 153.014 78.0469 153.303 77.9414C153.592 77.8359 153.834 77.7012 154.029 77.5371C154.225 77.3691 154.375 77.1914 154.48 77.0039C154.59 76.8164 154.656 76.6406 154.68 76.4766H153.59C153.555 76.6016 153.479 76.7207 153.361 76.834C153.248 76.9434 153.098 77.0332 152.91 77.1035C152.727 77.1699 152.516 77.2031 152.277 77.2031C151.766 77.2031 151.375 77.0391 151.105 76.7109C150.836 76.3828 150.701 75.9805 150.701 75.5039V75.1934H154.762V74.4492C154.762 73.8984 154.652 73.4199 154.434 73.0137C154.215 72.6074 153.912 72.293 153.525 72.0703C153.143 71.8477 152.701 71.7363 152.201 71.7363C151.713 71.7363 151.275 71.8477 150.889 72.0703C150.502 72.2891 150.197 72.6016 149.975 73.0078C149.756 73.4102 149.646 73.8906 149.646 74.4492V75.3867C149.646 75.9414 149.75 76.4219 149.957 76.8281C150.168 77.2344 150.471 77.5488 150.865 77.7715C151.26 77.9902 151.732 78.0996 152.283 78.0996ZM150.701 74.4258C150.701 74.4102 150.701 74.3945 150.701 74.3789C150.701 74.3633 150.701 74.3457 150.701 74.3262C150.701 73.9863 150.764 73.6895 150.889 73.4355C151.014 73.1777 151.189 72.9785 151.416 72.8379C151.643 72.6973 151.906 72.627 152.207 72.627C152.508 72.627 152.77 72.6973 152.992 72.8379C153.219 72.9785 153.395 73.1777 153.52 73.4355C153.645 73.6895 153.707 73.9863 153.707 74.3262C153.707 74.3457 153.707 74.3633 153.707 74.3789C153.707 74.3945 153.707 74.4102 153.707 74.4258H150.701ZM156.227 73.6055C156.227 74.0078 156.32 74.3184 156.508 74.5371C156.695 74.7559 156.945 74.9219 157.258 75.0352C157.574 75.1445 157.924 75.2383 158.307 75.3164C158.592 75.3711 158.852 75.4316 159.086 75.498C159.32 75.5605 159.506 75.6523 159.643 75.7734C159.779 75.8945 159.848 76.0703 159.848 76.3008C159.848 76.4805 159.801 76.6426 159.707 76.7871C159.613 76.9316 159.465 77.0488 159.262 77.1387C159.062 77.2285 158.801 77.2734 158.477 77.2734C158.191 77.2734 157.955 77.2383 157.768 77.168C157.58 77.0938 157.438 76.9902 157.34 76.8574C157.242 76.7246 157.18 76.5664 157.152 76.3828H156.115C156.115 76.75 156.213 77.0625 156.408 77.3203C156.604 77.5742 156.875 77.7676 157.223 77.9004C157.57 78.0332 157.973 78.0996 158.43 78.0996C158.922 78.0996 159.352 78.0254 159.719 77.877C160.09 77.7285 160.377 77.5117 160.58 77.2266C160.787 76.9375 160.891 76.5879 160.891 76.1777C160.891 75.7754 160.795 75.4629 160.604 75.2402C160.412 75.0137 160.156 74.8438 159.836 74.7305C159.52 74.6133 159.168 74.5215 158.781 74.4551C158.609 74.4238 158.434 74.3906 158.254 74.3555C158.074 74.3203 157.908 74.2715 157.756 74.209C157.607 74.1426 157.486 74.0547 157.393 73.9453C157.299 73.832 157.252 73.6836 157.252 73.5C157.252 73.1992 157.367 72.9688 157.598 72.8086C157.832 72.6484 158.129 72.5684 158.488 72.5684C158.766 72.5684 158.994 72.6133 159.174 72.7031C159.357 72.7891 159.496 72.9004 159.59 73.0371C159.684 73.1738 159.736 73.3145 159.748 73.459H160.732C160.732 73.1113 160.641 72.8105 160.457 72.5566C160.273 72.2988 160.016 72.0977 159.684 71.9531C159.355 71.8086 158.969 71.7363 158.523 71.7363C158.125 71.7363 157.75 71.8008 157.398 71.9297C157.051 72.0586 156.768 72.2617 156.549 72.5391C156.334 72.8125 156.227 73.168 156.227 73.6055ZM170.348 71.8359H169.287V75.7207C169.287 75.9824 169.217 76.2246 169.076 76.4473C168.939 76.6699 168.752 76.8477 168.514 76.9805C168.275 77.1094 168.004 77.1738 167.699 77.1738C167.453 77.1738 167.229 77.1328 167.025 77.0508C166.826 76.9688 166.664 76.8301 166.539 76.6348C166.418 76.4355 166.357 76.166 166.357 75.8262V71.8359H165.297V76.1133C165.297 76.5898 165.387 76.9746 165.566 77.2676C165.746 77.5566 165.994 77.7676 166.311 77.9004C166.631 78.0332 166.996 78.0996 167.406 78.0996C167.766 78.0996 168.07 78.041 168.32 77.9238C168.574 77.8027 168.775 77.6562 168.924 77.4844C169.076 77.3125 169.182 77.1426 169.24 76.9746H169.299V78H170.348V71.8359ZM175.322 78.0938C175.811 78.0938 176.234 77.9863 176.594 77.7715C176.953 77.5566 177.229 77.252 177.42 76.8574C177.615 76.4629 177.713 75.9922 177.713 75.4453V74.3848C177.713 73.8418 177.617 73.373 177.426 72.9785C177.234 72.584 176.963 72.2793 176.611 72.0645C176.26 71.8496 175.842 71.7422 175.357 71.7422C175.135 71.7422 174.926 71.7676 174.73 71.8184C174.535 71.8652 174.355 71.9355 174.191 72.0293C174.031 72.123 173.893 72.2363 173.775 72.3691C173.662 72.502 173.574 72.6504 173.512 72.8145H173.459V71.8301H172.439V80.0449H173.5V77.0859H173.553C173.65 77.3008 173.783 77.4844 173.951 77.6367C174.119 77.7852 174.318 77.8984 174.549 77.9766C174.783 78.0547 175.041 78.0938 175.322 78.0938ZM175.105 77.1855C174.789 77.1855 174.51 77.1152 174.268 76.9746C174.025 76.834 173.836 76.6387 173.699 76.3887C173.566 76.1348 173.5 75.8438 173.5 75.5156V74.4434C173.5 74.0723 173.562 73.7539 173.688 73.4883C173.816 73.2188 173.998 73.0117 174.232 72.8672C174.471 72.7227 174.752 72.6504 175.076 72.6504C175.412 72.6504 175.697 72.7266 175.932 72.8789C176.166 73.0312 176.344 73.252 176.465 73.541C176.586 73.8301 176.646 74.1816 176.646 74.5957V75.252C176.646 75.6621 176.586 76.0117 176.465 76.3008C176.344 76.5859 176.168 76.8047 175.938 76.957C175.711 77.1094 175.434 77.1855 175.105 77.1855ZM182.576 71.8535H181.627V72.7148H182.57V76.2715C182.57 76.6777 182.617 77.0137 182.711 77.2793C182.805 77.541 182.979 77.7363 183.232 77.8652C183.49 77.9902 183.863 78.0527 184.352 78.0527C184.469 78.0527 184.613 78.0469 184.785 78.0352C184.957 78.0234 185.064 78.0117 185.107 78V77.1504C185.061 77.1543 184.986 77.1602 184.885 77.168C184.783 77.1758 184.695 77.1797 184.621 77.1797C184.246 77.1797 183.986 77.1191 183.842 76.998C183.697 76.873 183.625 76.6289 183.625 76.2656V72.7148H185.02V71.8535H183.625V70.3066H182.576V71.8535ZM189.121 71.7363C188.609 71.7363 188.152 71.8477 187.75 72.0703C187.348 72.293 187.031 72.6074 186.801 73.0137C186.57 73.4199 186.455 73.9023 186.455 74.4609V75.3691C186.455 75.9512 186.568 76.4473 186.795 76.8574C187.025 77.2637 187.34 77.5723 187.738 77.7832C188.141 77.9941 188.602 78.0996 189.121 78.0996C189.633 78.0996 190.088 77.9941 190.486 77.7832C190.889 77.5684 191.205 77.2578 191.436 76.8516C191.666 76.4414 191.781 75.9473 191.781 75.3691V74.4551C191.781 73.8848 191.666 73.3965 191.436 72.9902C191.205 72.5801 190.889 72.2695 190.486 72.0586C190.088 71.8438 189.633 71.7363 189.121 71.7363ZM189.127 72.6387C189.455 72.6387 189.738 72.7207 189.977 72.8848C190.215 73.0449 190.396 73.2676 190.521 73.5527C190.65 73.8379 190.715 74.1699 190.715 74.5488V75.293C190.715 75.6758 190.652 76.0098 190.527 76.2949C190.406 76.5801 190.227 76.8027 189.988 76.9629C189.754 77.123 189.467 77.2031 189.127 77.2031C188.783 77.2031 188.49 77.123 188.248 76.9629C188.01 76.8027 187.828 76.5801 187.703 76.2949C187.578 76.0098 187.516 75.6758 187.516 75.293V74.5488C187.516 74.1738 187.58 73.8438 187.709 73.5586C187.842 73.2695 188.027 73.0449 188.266 72.8848C188.508 72.7207 188.795 72.6387 189.127 72.6387ZM201.209 71.8359H200.084L198.449 76.9629H198.402L196.773 71.8359H195.596L197.857 78.082L197.793 78.3105C197.699 78.6582 197.557 78.9062 197.365 79.0547C197.174 79.207 196.904 79.2832 196.557 79.2832C196.494 79.2832 196.414 79.2793 196.316 79.2715C196.223 79.2637 196.152 79.2578 196.105 79.2539V80.1094C196.184 80.125 196.281 80.1367 196.398 80.1445C196.516 80.1562 196.621 80.1621 196.715 80.1621C197.25 80.1621 197.688 80.0234 198.027 79.7461C198.367 79.4688 198.658 79.002 198.9 78.3457L199.029 78.0117C199.197 77.5391 199.369 77.0547 199.545 76.5586C199.721 76.0625 199.9 75.5566 200.084 75.041C200.268 74.5215 200.453 73.9941 200.641 73.459C200.828 72.9238 201.018 72.3828 201.209 71.8359ZM204.988 71.7363C204.477 71.7363 204.02 71.8477 203.617 72.0703C203.215 72.293 202.898 72.6074 202.668 73.0137C202.438 73.4199 202.322 73.9023 202.322 74.4609V75.3691C202.322 75.9512 202.436 76.4473 202.662 76.8574C202.893 77.2637 203.207 77.5723 203.605 77.7832C204.008 77.9941 204.469 78.0996 204.988 78.0996C205.5 78.0996 205.955 77.9941 206.354 77.7832C206.756 77.5684 207.072 77.2578 207.303 76.8516C207.533 76.4414 207.648 75.9473 207.648 75.3691V74.4551C207.648 73.8848 207.533 73.3965 207.303 72.9902C207.072 72.5801 206.756 72.2695 206.354 72.0586C205.955 71.8438 205.5 71.7363 204.988 71.7363ZM204.994 72.6387C205.322 72.6387 205.605 72.7207 205.844 72.8848C206.082 73.0449 206.264 73.2676 206.389 73.5527C206.518 73.8379 206.582 74.1699 206.582 74.5488V75.293C206.582 75.6758 206.52 76.0098 206.395 76.2949C206.273 76.5801 206.094 76.8027 205.855 76.9629C205.621 77.123 205.334 77.2031 204.994 77.2031C204.65 77.2031 204.357 77.123 204.115 76.9629C203.877 76.8027 203.695 76.5801 203.57 76.2949C203.445 76.0098 203.383 75.6758 203.383 75.293V74.5488C203.383 74.1738 203.447 73.8438 203.576 73.5586C203.709 73.2695 203.895 73.0449 204.133 72.8848C204.375 72.7207 204.662 72.6387 204.994 72.6387ZM214.434 71.8359H213.373V75.7207C213.373 75.9824 213.303 76.2246 213.162 76.4473C213.025 76.6699 212.838 76.8477 212.6 76.9805C212.361 77.1094 212.09 77.1738 211.785 77.1738C211.539 77.1738 211.314 77.1328 211.111 77.0508C210.912 76.9688 210.75 76.8301 210.625 76.6348C210.504 76.4355 210.443 76.166 210.443 75.8262V71.8359H209.383V76.1133C209.383 76.5898 209.473 76.9746 209.652 77.2676C209.832 77.5566 210.08 77.7676 210.396 77.9004C210.717 78.0332 211.082 78.0996 211.492 78.0996C211.852 78.0996 212.156 78.041 212.406 77.9238C212.66 77.8027 212.861 77.6562 213.01 77.4844C213.162 77.3125 213.268 77.1426 213.326 76.9746H213.385V78H214.434V71.8359ZM216.613 78H217.68V74.1914C217.68 73.9102 217.74 73.6582 217.861 73.4355C217.982 73.2129 218.162 73.0352 218.4 72.9023C218.643 72.7695 218.943 72.7031 219.303 72.7031C219.4 72.7031 219.494 72.707 219.584 72.7148C219.678 72.7188 219.75 72.7266 219.801 72.7383V71.7715C219.738 71.7637 219.674 71.7578 219.607 71.7539C219.545 71.7461 219.48 71.7422 219.414 71.7422C219.055 71.7422 218.76 71.8027 218.529 71.9238C218.299 72.041 218.121 72.1797 217.996 72.3398C217.871 72.5 217.781 72.6484 217.727 72.7852H217.674V71.8359H216.613V78ZM223.938 78H224.998V74.0801C224.998 73.7988 225.055 73.5508 225.168 73.3359C225.281 73.1211 225.438 72.9551 225.637 72.8379C225.84 72.7168 226.07 72.6562 226.328 72.6562C226.602 72.6562 226.834 72.7129 227.025 72.8262C227.221 72.9355 227.371 73.0918 227.477 73.2949C227.582 73.498 227.635 73.7344 227.635 74.0039V78H228.684V74.0918C228.684 73.8105 228.744 73.5625 228.865 73.3477C228.986 73.1328 229.148 72.9648 229.352 72.8438C229.555 72.7188 229.785 72.6562 230.043 72.6562C230.32 72.6562 230.555 72.7109 230.746 72.8203C230.938 72.9297 231.08 73.082 231.174 73.2773C231.271 73.4688 231.32 73.6973 231.32 73.9629V78H232.381V73.6641C232.381 73.0469 232.201 72.5723 231.842 72.2402C231.482 71.9043 230.986 71.7363 230.354 71.7363C230.006 71.7363 229.707 71.791 229.457 71.9004C229.207 72.0098 229 72.1543 228.836 72.334C228.676 72.5098 228.555 72.6973 228.473 72.8965H228.426C228.363 72.6777 228.256 72.4805 228.104 72.3047C227.955 72.1289 227.764 71.9902 227.529 71.8887C227.299 71.7871 227.027 71.7363 226.715 71.7363C226.336 71.7363 226.033 71.7969 225.807 71.918C225.58 72.0391 225.408 72.1836 225.291 72.3516C225.174 72.5156 225.092 72.6719 225.045 72.8203H224.986V71.8359H223.938V78ZM234.584 78H235.645V71.8359H234.584V78ZM234.361 69.9375C234.361 70.1484 234.432 70.3223 234.572 70.459C234.717 70.5957 234.895 70.6641 235.105 70.6641C235.328 70.6641 235.512 70.5957 235.656 70.459C235.801 70.3223 235.873 70.1484 235.873 69.9375C235.873 69.7227 235.801 69.5469 235.656 69.4102C235.512 69.2734 235.328 69.2051 235.105 69.2051C234.895 69.2051 234.717 69.2734 234.572 69.4102C234.432 69.5469 234.361 69.7227 234.361 69.9375ZM237.883 78H238.943V74.5664C238.943 74.2109 239.002 73.8887 239.119 73.5996C239.236 73.3105 239.414 73.082 239.652 72.9141C239.895 72.7461 240.195 72.6621 240.555 72.6621C240.832 72.6621 241.07 72.7168 241.27 72.8262C241.469 72.9355 241.621 73.0996 241.727 73.3184C241.836 73.5332 241.891 73.8027 241.891 74.127V78H242.951V73.793C242.951 73.1016 242.758 72.5859 242.371 72.2461C241.984 71.9062 241.48 71.7363 240.859 71.7363C240.43 71.7363 240.088 71.8047 239.834 71.9414C239.58 72.0781 239.389 72.2402 239.26 72.4277C239.131 72.6152 239.041 72.791 238.99 72.9551H238.932V71.8359H237.883V78ZM247.1 71.7422C246.623 71.7422 246.205 71.8496 245.846 72.0645C245.486 72.2754 245.207 72.5742 245.008 72.9609C244.809 73.3438 244.709 73.7969 244.709 74.3203V75.5156C244.709 76.0352 244.807 76.4883 245.002 76.875C245.197 77.2617 245.471 77.5605 245.822 77.7715C246.178 77.9824 246.596 78.0879 247.076 78.0879C247.303 78.0879 247.518 78.0605 247.721 78.0059C247.924 77.9551 248.107 77.8828 248.271 77.7891C248.439 77.6953 248.58 77.584 248.693 77.4551C248.807 77.3223 248.885 77.1758 248.928 77.0156H248.98V78H250V69.5801H248.939V72.75H248.887C248.805 72.543 248.678 72.3633 248.506 72.2109C248.338 72.0586 248.135 71.9434 247.896 71.8652C247.658 71.7832 247.393 71.7422 247.1 71.7422ZM247.316 72.6504C247.629 72.6504 247.906 72.7227 248.148 72.8672C248.395 73.0078 248.588 73.2051 248.729 73.459C248.869 73.709 248.939 73.9961 248.939 74.3203V75.3867C248.939 75.7539 248.873 76.0723 248.74 76.3418C248.607 76.6074 248.422 76.8145 248.184 76.9629C247.949 77.1074 247.67 77.1797 247.346 77.1797C247.021 77.1797 246.742 77.1055 246.508 76.957C246.273 76.8086 246.092 76.5938 245.963 76.3125C245.838 76.0273 245.775 75.6855 245.775 75.2871V74.5371C245.775 74.1426 245.838 73.8047 245.963 73.5234C246.088 73.2422 246.264 73.0273 246.49 72.8789C246.721 72.7266 246.996 72.6504 247.316 72.6504ZM253.053 77.2969C253.053 77.5273 253.133 77.7207 253.293 77.877C253.453 78.0293 253.65 78.1055 253.885 78.1055C254.135 78.1055 254.34 78.0293 254.5 77.877C254.664 77.7207 254.746 77.5273 254.746 77.2969C254.746 77.0586 254.664 76.8613 254.5 76.7051C254.34 76.5488 254.135 76.4707 253.885 76.4707C253.65 76.4707 253.453 76.5488 253.293 76.7051C253.133 76.8613 253.053 77.0586 253.053 77.2969ZM251.6 72.1113H252.607C252.607 71.916 252.637 71.7344 252.695 71.5664C252.754 71.3945 252.84 71.2461 252.953 71.1211C253.066 70.9922 253.209 70.8926 253.381 70.8223C253.557 70.748 253.762 70.7109 253.996 70.7109C254.227 70.7109 254.441 70.752 254.641 70.834C254.844 70.9121 255.008 71.0371 255.133 71.209C255.262 71.3809 255.326 71.6074 255.326 71.8887C255.326 72.1934 255.246 72.4355 255.086 72.6152C254.926 72.7949 254.709 72.9941 254.436 73.2129C254.244 73.3652 254.062 73.5254 253.891 73.6934C253.719 73.8613 253.58 74.0508 253.475 74.2617C253.369 74.4727 253.318 74.7188 253.322 75L253.328 75.4922H254.354V75.1406C254.354 74.9141 254.383 74.7305 254.441 74.5898C254.504 74.4492 254.602 74.3164 254.734 74.1914C254.871 74.0625 255.051 73.9082 255.273 73.7285C255.461 73.5801 255.641 73.4219 255.812 73.2539C255.984 73.0859 256.127 72.8887 256.24 72.6621C256.354 72.4316 256.41 72.1543 256.41 71.8301C256.41 71.373 256.297 70.9961 256.07 70.6992C255.844 70.4023 255.549 70.1816 255.186 70.0371C254.826 69.8887 254.445 69.8145 254.043 69.8145C253.758 69.8145 253.471 69.8535 253.182 69.9316C252.896 70.0098 252.633 70.1367 252.391 70.3125C252.148 70.4844 251.955 70.7188 251.811 71.0156C251.666 71.3086 251.596 71.6738 251.6 72.1113Z" fill="#757575"/>
<g filter="url(#filter0_i_157_1326)">
<rect x="14" y="124" width="140" height="140" rx="6" fill="white"/>
<path d="M75.8906 197.153H71.7822V189.169H70.2305V198.5H75.8906V197.153ZM80.2383 191.151C79.6094 191.151 79.0511 191.286 78.5635 191.555C78.0804 191.824 77.7021 192.202 77.4287 192.689C77.1553 193.177 77.0186 193.751 77.0186 194.412V195.349C77.0186 196.046 77.1553 196.638 77.4287 197.126C77.7021 197.614 78.0781 197.985 78.5566 198.24C79.0397 198.495 79.6003 198.623 80.2383 198.623C80.8672 198.623 81.4232 198.495 81.9062 198.24C82.3893 197.985 82.7653 197.614 83.0342 197.126C83.3076 196.634 83.4443 196.039 83.4443 195.342V194.405C83.4443 193.731 83.3076 193.15 83.0342 192.662C82.7653 192.174 82.3893 191.801 81.9062 191.541C81.4232 191.281 80.8672 191.151 80.2383 191.151ZM80.2451 192.375C80.6051 192.375 80.9082 192.468 81.1543 192.655C81.4049 192.838 81.5941 193.088 81.7217 193.407C81.8538 193.722 81.9199 194.082 81.9199 194.487V195.294C81.9199 195.7 81.8561 196.062 81.7285 196.381C81.6055 196.695 81.4209 196.944 81.1748 197.126C80.9287 197.308 80.6188 197.399 80.2451 197.399C79.8714 197.399 79.557 197.308 79.3018 197.126C79.0511 196.944 78.862 196.695 78.7344 196.381C78.6113 196.062 78.5498 195.7 78.5498 195.294V194.487C78.5498 194.082 78.6159 193.722 78.748 193.407C78.8802 193.088 79.0716 192.838 79.3223 192.655C79.5729 192.468 79.8805 192.375 80.2451 192.375ZM85.0918 193.38C85.0918 193.849 85.1989 194.218 85.4131 194.487C85.6273 194.752 85.9167 194.954 86.2812 195.096C86.6458 195.232 87.0469 195.346 87.4844 195.438C87.8079 195.497 88.1064 195.561 88.3799 195.629C88.6533 195.697 88.8721 195.798 89.0361 195.93C89.2002 196.057 89.2822 196.246 89.2822 196.497C89.2822 196.684 89.2321 196.855 89.1318 197.01C89.0361 197.165 88.8812 197.288 88.667 197.379C88.4574 197.47 88.1839 197.516 87.8467 197.516C87.5413 197.516 87.2884 197.477 87.0879 197.399C86.8874 197.322 86.7347 197.21 86.6299 197.064C86.5251 196.919 86.459 196.75 86.4316 196.559H84.9551C84.9551 196.987 85.069 197.356 85.2969 197.666C85.5293 197.971 85.8574 198.208 86.2812 198.377C86.7051 198.541 87.2018 198.623 87.7715 198.623C88.3822 198.623 88.9108 198.534 89.3574 198.356C89.8086 198.174 90.1549 197.912 90.3965 197.57C90.638 197.224 90.7588 196.807 90.7588 196.319C90.7588 195.864 90.654 195.501 90.4443 195.232C90.2347 194.964 89.9499 194.758 89.5898 194.617C89.2298 194.476 88.8242 194.367 88.373 194.289C88.1725 194.257 87.9652 194.221 87.751 194.18C87.5368 194.139 87.3385 194.084 87.1562 194.016C86.9785 193.947 86.8327 193.852 86.7188 193.729C86.6048 193.605 86.5479 193.444 86.5479 193.243C86.5479 192.933 86.6663 192.692 86.9033 192.519C87.1449 192.345 87.4593 192.259 87.8467 192.259C88.1429 192.259 88.3867 192.307 88.5781 192.402C88.7695 192.498 88.9154 192.619 89.0156 192.765C89.1204 192.91 89.1797 193.063 89.1934 193.223H90.5605C90.5605 192.794 90.4466 192.427 90.2188 192.122C89.9954 191.812 89.6833 191.573 89.2822 191.404C88.8857 191.236 88.4209 191.151 87.8877 191.151C87.4001 191.151 86.9421 191.229 86.5137 191.384C86.0898 191.534 85.7458 191.773 85.4814 192.102C85.2217 192.425 85.0918 192.851 85.0918 193.38ZM92.3379 193.38C92.3379 193.849 92.445 194.218 92.6592 194.487C92.8734 194.752 93.1628 194.954 93.5273 195.096C93.8919 195.232 94.293 195.346 94.7305 195.438C95.054 195.497 95.3525 195.561 95.626 195.629C95.8994 195.697 96.1182 195.798 96.2822 195.93C96.4463 196.057 96.5283 196.246 96.5283 196.497C96.5283 196.684 96.4782 196.855 96.3779 197.01C96.2822 197.165 96.1273 197.288 95.9131 197.379C95.7035 197.47 95.43 197.516 95.0928 197.516C94.7874 197.516 94.5345 197.477 94.334 197.399C94.1335 197.322 93.9808 197.21 93.876 197.064C93.7712 196.919 93.7051 196.75 93.6777 196.559H92.2012C92.2012 196.987 92.3151 197.356 92.543 197.666C92.7754 197.971 93.1035 198.208 93.5273 198.377C93.9512 198.541 94.4479 198.623 95.0176 198.623C95.6283 198.623 96.1569 198.534 96.6035 198.356C97.0547 198.174 97.401 197.912 97.6426 197.57C97.8841 197.224 98.0049 196.807 98.0049 196.319C98.0049 195.864 97.9001 195.501 97.6904 195.232C97.4808 194.964 97.196 194.758 96.8359 194.617C96.4759 194.476 96.0703 194.367 95.6191 194.289C95.4186 194.257 95.2113 194.221 94.9971 194.18C94.7829 194.139 94.5846 194.084 94.4023 194.016C94.2246 193.947 94.0788 193.852 93.9648 193.729C93.8509 193.605 93.7939 193.444 93.7939 193.243C93.7939 192.933 93.9124 192.692 94.1494 192.519C94.391 192.345 94.7054 192.259 95.0928 192.259C95.389 192.259 95.6328 192.307 95.8242 192.402C96.0156 192.498 96.1615 192.619 96.2617 192.765C96.3665 192.91 96.4258 193.063 96.4395 193.223H97.8066C97.8066 192.794 97.6927 192.427 97.4648 192.122C97.2415 191.812 96.9294 191.573 96.5283 191.404C96.1318 191.236 95.667 191.151 95.1338 191.151C94.6462 191.151 94.1882 191.229 93.7598 191.384C93.3359 191.534 92.9919 191.773 92.7275 192.102C92.4678 192.425 92.3379 192.851 92.3379 193.38Z" fill="#2F2F2F"/>
</g>
<g filter="url(#filter1_i_157_1326)">
<rect x="166" y="124" width="140" height="140" rx="6" fill="white"/>
<path d="M201.285 197.345C200.647 197.345 200.134 197.153 199.747 196.771C199.364 196.388 199.173 195.854 199.173 195.171V189.169H197.621V195.28C197.621 195.959 197.771 196.556 198.072 197.071C198.378 197.582 198.804 197.978 199.351 198.261C199.902 198.543 200.547 198.685 201.285 198.685C202.028 198.685 202.673 198.543 203.22 198.261C203.767 197.978 204.19 197.582 204.491 197.071C204.797 196.556 204.949 195.959 204.949 195.28V189.169H203.397V195.171C203.397 195.854 203.206 196.388 202.823 196.771C202.44 197.153 201.928 197.345 201.285 197.345ZM207.212 198.5H208.729V194.487C208.729 194.095 208.793 193.747 208.921 193.441C209.053 193.136 209.244 192.897 209.495 192.724C209.75 192.546 210.062 192.457 210.432 192.457C210.719 192.457 210.969 192.516 211.184 192.635C211.398 192.749 211.564 192.924 211.683 193.161C211.806 193.394 211.867 193.694 211.867 194.063V198.5H213.385V193.619C213.385 192.794 213.159 192.179 212.708 191.773C212.261 191.368 211.676 191.165 210.951 191.165C210.464 191.165 210.072 191.243 209.775 191.397C209.479 191.552 209.254 191.739 209.099 191.958C208.948 192.177 208.841 192.382 208.777 192.573H208.702V191.274H207.212V198.5ZM215.292 195.39C215.292 196.055 215.417 196.629 215.668 197.112C215.923 197.595 216.283 197.969 216.748 198.233C217.213 198.493 217.767 198.623 218.409 198.623C219.056 198.623 219.592 198.518 220.016 198.309C220.444 198.094 220.765 197.814 220.979 197.468C221.198 197.117 221.314 196.739 221.328 196.333H219.893C219.856 196.524 219.785 196.7 219.681 196.859C219.58 197.014 219.43 197.137 219.229 197.229C219.034 197.32 218.774 197.365 218.45 197.365C217.94 197.365 217.539 197.188 217.247 196.832C216.96 196.477 216.816 195.996 216.816 195.39V194.378C216.816 193.781 216.955 193.305 217.233 192.949C217.511 192.594 217.915 192.416 218.443 192.416C218.781 192.416 219.047 192.475 219.243 192.594C219.439 192.712 219.583 192.858 219.674 193.031C219.77 193.2 219.829 193.362 219.852 193.517H221.287C221.278 193.102 221.162 192.717 220.938 192.361C220.715 192.001 220.392 191.71 219.968 191.486C219.549 191.263 219.029 191.151 218.409 191.151C217.776 191.151 217.224 191.284 216.755 191.548C216.29 191.812 215.93 192.184 215.675 192.662C215.42 193.136 215.292 193.697 215.292 194.344V195.39ZM226.018 198.623C226.505 198.623 226.927 198.557 227.282 198.425C227.642 198.293 227.938 198.124 228.171 197.919C228.408 197.709 228.588 197.486 228.711 197.249C228.839 197.012 228.914 196.789 228.937 196.579H227.453C227.417 196.729 227.335 196.868 227.207 196.996C227.084 197.119 226.92 197.219 226.715 197.297C226.51 197.37 226.275 197.406 226.011 197.406C225.478 197.406 225.063 197.235 224.767 196.894C224.475 196.547 224.329 196.117 224.329 195.602V195.246H229.019V194.398C229.019 193.733 228.886 193.159 228.622 192.676C228.358 192.193 227.993 191.819 227.528 191.555C227.068 191.286 226.535 191.151 225.929 191.151C225.341 191.151 224.812 191.281 224.343 191.541C223.878 191.796 223.509 192.165 223.235 192.648C222.962 193.132 222.825 193.715 222.825 194.398V195.376C222.825 196.055 222.955 196.638 223.215 197.126C223.475 197.609 223.844 197.98 224.322 198.24C224.801 198.495 225.366 198.623 226.018 198.623ZM224.329 194.255C224.329 194.241 224.329 194.228 224.329 194.214C224.329 194.196 224.329 194.177 224.329 194.159C224.329 193.795 224.395 193.478 224.527 193.209C224.66 192.936 224.846 192.724 225.088 192.573C225.329 192.423 225.612 192.348 225.936 192.348C226.259 192.348 226.539 192.423 226.776 192.573C227.018 192.724 227.205 192.936 227.337 193.209C227.469 193.478 227.535 193.795 227.535 194.159C227.535 194.177 227.535 194.196 227.535 194.214C227.535 194.228 227.535 194.241 227.535 194.255H224.329ZM231.028 198.5H232.566V194.2C232.566 193.877 232.632 193.587 232.765 193.332C232.897 193.072 233.097 192.869 233.366 192.724C233.635 192.573 233.972 192.498 234.378 192.498C234.506 192.498 234.629 192.503 234.747 192.512C234.866 192.521 234.959 192.535 235.027 192.553V191.213C234.954 191.199 234.875 191.19 234.788 191.186C234.706 191.176 234.615 191.172 234.515 191.172C234.114 191.172 233.783 191.243 233.523 191.384C233.264 191.521 233.061 191.685 232.915 191.876C232.774 192.063 232.676 192.238 232.621 192.402H232.539V191.274H231.028V198.5ZM237.427 191.322H236.306V192.512H237.406V196.47C237.406 196.948 237.47 197.342 237.598 197.652C237.725 197.958 237.951 198.183 238.274 198.329C238.603 198.475 239.058 198.548 239.642 198.548C239.815 198.548 240.004 198.539 240.209 198.521C240.419 198.507 240.553 198.495 240.612 198.486V197.324C240.553 197.329 240.464 197.336 240.346 197.345C240.232 197.349 240.122 197.352 240.018 197.352C239.612 197.352 239.325 197.283 239.156 197.146C238.992 197.005 238.91 196.739 238.91 196.347V192.512H240.523V191.322H238.91V189.518H237.427V191.322ZM244.393 198.609C244.753 198.609 245.062 198.562 245.322 198.466C245.587 198.366 245.808 198.236 245.985 198.076C246.163 197.917 246.304 197.746 246.409 197.563H246.478V198.5H247.92V193.605C247.92 193.004 247.792 192.525 247.537 192.17C247.282 191.814 246.94 191.559 246.512 191.404C246.083 191.245 245.612 191.165 245.097 191.165C244.646 191.165 244.249 191.213 243.907 191.309C243.57 191.404 243.285 191.543 243.053 191.726C242.825 191.903 242.647 192.118 242.52 192.368C242.396 192.614 242.324 192.888 242.301 193.188H243.743C243.784 193.024 243.855 192.883 243.955 192.765C244.055 192.642 244.194 192.546 244.372 192.478C244.55 192.405 244.775 192.368 245.049 192.368C245.464 192.368 245.794 192.468 246.04 192.669C246.286 192.865 246.409 193.17 246.409 193.585V194.262H244.584C243.75 194.262 243.114 194.46 242.677 194.856C242.244 195.248 242.027 195.763 242.027 196.401C242.027 197.076 242.246 197.614 242.684 198.015C243.126 198.411 243.695 198.609 244.393 198.609ZM244.857 197.434C244.52 197.434 244.217 197.345 243.948 197.167C243.684 196.985 243.552 196.704 243.552 196.326C243.552 196.021 243.652 195.77 243.853 195.574C244.058 195.378 244.381 195.28 244.823 195.28H246.409V196.06C246.409 196.324 246.339 196.559 246.197 196.764C246.061 196.969 245.876 197.133 245.644 197.256C245.411 197.374 245.149 197.434 244.857 197.434ZM250.326 198.5H251.837V191.274H250.326V198.5ZM250.08 189.101C250.08 189.369 250.174 189.59 250.36 189.764C250.547 189.932 250.784 190.017 251.071 190.017C251.372 190.017 251.616 189.932 251.803 189.764C251.994 189.59 252.09 189.369 252.09 189.101C252.09 188.827 251.994 188.604 251.803 188.431C251.616 188.257 251.372 188.171 251.071 188.171C250.784 188.171 250.547 188.257 250.36 188.431C250.174 188.604 250.08 188.827 250.08 189.101ZM254.284 198.5H255.802V194.487C255.802 194.095 255.866 193.747 255.993 193.441C256.125 193.136 256.317 192.897 256.567 192.724C256.823 192.546 257.135 192.457 257.504 192.457C257.791 192.457 258.042 192.516 258.256 192.635C258.47 192.749 258.636 192.924 258.755 193.161C258.878 193.394 258.939 193.694 258.939 194.063V198.5H260.457V193.619C260.457 192.794 260.231 192.179 259.78 191.773C259.334 191.368 258.748 191.165 258.023 191.165C257.536 191.165 257.144 191.243 256.848 191.397C256.551 191.552 256.326 191.739 256.171 191.958C256.021 192.177 255.913 192.382 255.85 192.573H255.774V191.274H254.284V198.5ZM263.144 191.322H262.022V192.512H263.123V196.47C263.123 196.948 263.187 197.342 263.314 197.652C263.442 197.958 263.668 198.183 263.991 198.329C264.319 198.475 264.775 198.548 265.358 198.548C265.532 198.548 265.721 198.539 265.926 198.521C266.135 198.507 266.27 198.495 266.329 198.486V197.324C266.27 197.329 266.181 197.336 266.062 197.345C265.949 197.349 265.839 197.352 265.734 197.352C265.329 197.352 265.042 197.283 264.873 197.146C264.709 197.005 264.627 196.739 264.627 196.347V192.512H266.24V191.322H264.627V189.518H263.144V191.322ZM274.231 191.274H272.625L270.882 197.119H270.82L269.098 191.274H267.416L269.993 198.555L269.932 198.787C269.845 199.165 269.692 199.437 269.474 199.601C269.255 199.769 268.943 199.854 268.537 199.854C268.451 199.854 268.35 199.849 268.236 199.84C268.122 199.831 268.038 199.822 267.983 199.812V200.968C268.079 200.986 268.207 201.002 268.366 201.016C268.53 201.029 268.678 201.036 268.811 201.036C269.512 201.036 270.08 200.865 270.513 200.523C270.95 200.182 271.317 199.612 271.613 198.814L271.771 198.404C271.93 197.953 272.103 197.459 272.29 196.921C272.481 196.383 272.682 195.811 272.892 195.205C273.101 194.599 273.318 193.968 273.541 193.312C273.769 192.651 273.999 191.972 274.231 191.274Z" fill="#2F2F2F"/>
</g>
<g filter="url(#filter2_d_157_1326)">
<rect x="14" y="274" width="140" height="140" rx="6" fill="url(#paint0_linear_157_1326)" shape-rendering="crispEdges"/>
<path d="M48.7266 343.277V344.398C48.7266 344.936 48.6468 345.387 48.4873 345.752C48.3324 346.117 48.1159 346.39 47.8379 346.572C47.5599 346.755 47.2363 346.846 46.8672 346.846C46.4935 346.846 46.1676 346.755 45.8896 346.572C45.6117 346.39 45.3929 346.117 45.2334 345.752C45.0785 345.387 45.001 344.936 45.001 344.398V343.277C45.001 342.735 45.0785 342.284 45.2334 341.924C45.3929 341.559 45.6117 341.286 45.8896 341.104C46.1676 340.921 46.4935 340.83 46.8672 340.83C47.2363 340.83 47.5599 340.921 47.8379 341.104C48.1159 341.286 48.3324 341.559 48.4873 341.924C48.6468 342.284 48.7266 342.735 48.7266 343.277ZM51.0166 344.392V343.305C51.0166 342.421 50.8525 341.66 50.5244 341.021C50.2008 340.379 49.7292 339.882 49.1094 339.531C48.4941 339.18 47.7467 339.005 46.8672 339.005C45.9922 339.005 45.2425 339.178 44.6182 339.524C43.9984 339.871 43.5244 340.368 43.1963 341.015C42.8727 341.657 42.7109 342.421 42.7109 343.305V344.392C42.7109 345.262 42.8727 346.019 43.1963 346.661C43.5244 347.304 43.9984 347.8 44.6182 348.151C45.2425 348.498 45.9922 348.671 46.8672 348.671C47.7467 348.671 48.4941 348.498 49.1094 348.151C49.7292 347.8 50.2008 347.304 50.5244 346.661C50.8525 346.019 51.0166 345.262 51.0166 344.392ZM57.0596 348.582C57.6201 348.582 58.1009 348.45 58.502 348.186C58.903 347.921 59.2106 347.541 59.4248 347.044C59.639 346.547 59.7461 345.95 59.7461 345.253V344.439C59.7461 343.742 59.639 343.147 59.4248 342.655C59.2152 342.159 58.9121 341.778 58.5156 341.514C58.1191 341.249 57.6383 341.117 57.0732 341.117C56.818 341.117 56.5788 341.147 56.3555 341.206C56.1367 341.261 55.9362 341.34 55.7539 341.445C55.5762 341.55 55.4212 341.68 55.2891 341.835C55.1569 341.99 55.0544 342.163 54.9814 342.354H54.8721V341.199H52.7119V350.92H54.8926V347.365H55.002C55.1068 347.625 55.2572 347.846 55.4531 348.028C55.6491 348.206 55.8838 348.343 56.1572 348.438C56.4307 348.534 56.7314 348.582 57.0596 348.582ZM56.2119 346.9C55.943 346.9 55.7106 346.832 55.5146 346.695C55.3187 346.559 55.166 346.367 55.0566 346.121C54.9473 345.87 54.8926 345.579 54.8926 345.246V344.515C54.8926 344.159 54.945 343.856 55.0498 343.605C55.1546 343.35 55.305 343.154 55.501 343.018C55.6969 342.881 55.9294 342.812 56.1982 342.812C56.4762 342.812 56.7109 342.883 56.9023 343.024C57.0983 343.161 57.2464 343.362 57.3467 343.626C57.4469 343.886 57.4971 344.205 57.4971 344.583V345.123C57.4971 345.497 57.4469 345.816 57.3467 346.08C57.2464 346.344 57.1006 346.547 56.9092 346.688C56.7178 346.83 56.4854 346.9 56.2119 346.9ZM65.7412 348.582C66.3018 348.582 66.7826 348.45 67.1836 348.186C67.5846 347.921 67.8923 347.541 68.1064 347.044C68.3206 346.547 68.4277 345.95 68.4277 345.253V344.439C68.4277 343.742 68.3206 343.147 68.1064 342.655C67.8968 342.159 67.5938 341.778 67.1973 341.514C66.8008 341.249 66.32 341.117 65.7549 341.117C65.4997 341.117 65.2604 341.147 65.0371 341.206C64.8184 341.261 64.6178 341.34 64.4355 341.445C64.2578 341.55 64.1029 341.68 63.9707 341.835C63.8385 341.99 63.736 342.163 63.6631 342.354H63.5537V341.199H61.3936V350.92H63.5742V347.365H63.6836C63.7884 347.625 63.9388 347.846 64.1348 348.028C64.3307 348.206 64.5654 348.343 64.8389 348.438C65.1123 348.534 65.4131 348.582 65.7412 348.582ZM64.8936 346.9C64.6247 346.9 64.3923 346.832 64.1963 346.695C64.0003 346.559 63.8477 346.367 63.7383 346.121C63.6289 345.87 63.5742 345.579 63.5742 345.246V344.515C63.5742 344.159 63.6266 343.856 63.7314 343.605C63.8363 343.35 63.9867 343.154 64.1826 343.018C64.3786 342.881 64.611 342.812 64.8799 342.812C65.1579 342.812 65.3926 342.883 65.584 343.024C65.7799 343.161 65.9281 343.362 66.0283 343.626C66.1286 343.886 66.1787 344.205 66.1787 344.583V345.123C66.1787 345.497 66.1286 345.816 66.0283 346.08C65.9281 346.344 65.7822 346.547 65.5908 346.688C65.3994 346.83 65.167 346.9 64.8936 346.9ZM73.2197 341.069C72.5133 341.069 71.9004 341.215 71.3809 341.507C70.8613 341.794 70.4603 342.197 70.1777 342.717C69.8952 343.232 69.7539 343.831 69.7539 344.515V345.15C69.7539 345.893 69.8929 346.524 70.1709 347.044C70.4535 347.563 70.8545 347.96 71.374 348.233C71.8936 348.502 72.5088 348.637 73.2197 348.637C73.9261 348.637 74.5368 348.502 75.0518 348.233C75.5713 347.96 75.9723 347.563 76.2549 347.044C76.5374 346.52 76.6787 345.886 76.6787 345.144V344.501C76.6787 343.808 76.5374 343.204 76.2549 342.689C75.9723 342.17 75.5713 341.771 75.0518 341.493C74.5368 341.211 73.9261 341.069 73.2197 341.069ZM73.2197 342.696C73.5205 342.696 73.762 342.781 73.9443 342.949C74.1266 343.118 74.2588 343.341 74.3408 343.619C74.4274 343.893 74.4707 344.189 74.4707 344.508V345.185C74.4707 345.494 74.4297 345.788 74.3477 346.066C74.2702 346.34 74.1403 346.565 73.958 346.743C73.7757 346.916 73.5296 347.003 73.2197 347.003C72.9098 347.003 72.6615 346.916 72.4746 346.743C72.2923 346.565 72.1602 346.338 72.0781 346.06C71.9961 345.782 71.9551 345.49 71.9551 345.185V344.508C71.9551 344.193 71.9984 343.899 72.085 343.626C72.1715 343.348 72.306 343.125 72.4883 342.956C72.6751 342.783 72.9189 342.696 73.2197 342.696ZM78.3467 348.5H80.5889V344.542C80.5889 344.218 80.6458 343.936 80.7598 343.694C80.8737 343.448 81.0514 343.259 81.293 343.127C81.5345 342.99 81.8421 342.922 82.2158 342.922C82.3799 342.922 82.5348 342.931 82.6807 342.949C82.8265 342.963 82.9382 342.983 83.0156 343.011V341.158C82.9427 341.135 82.8538 341.119 82.749 341.11C82.6442 341.101 82.5143 341.097 82.3594 341.097C82.0085 341.097 81.7122 341.167 81.4707 341.309C81.2292 341.45 81.04 341.618 80.9033 341.814C80.7666 342.006 80.6755 342.186 80.6299 342.354H80.5273V341.199H78.3467V348.5ZM85.1621 341.309H84V342.942H85.1143V346.422C85.1143 346.928 85.2008 347.336 85.374 347.646C85.5518 347.955 85.832 348.181 86.2148 348.322C86.6022 348.459 87.1058 348.527 87.7256 348.527C87.9808 348.527 88.2201 348.516 88.4434 348.493C88.6712 348.47 88.8262 348.452 88.9082 348.438V346.873C88.8444 346.878 88.751 346.884 88.6279 346.894C88.5094 346.898 88.3841 346.9 88.252 346.9C87.9193 346.9 87.6709 346.839 87.5068 346.716C87.3473 346.588 87.2676 346.363 87.2676 346.039V342.942H88.8672V341.309H87.2676V339.504H85.1621V341.309ZM97.1797 341.199H95.0059V345.444C95.0059 345.731 94.9466 345.978 94.8281 346.183C94.7096 346.388 94.5547 346.545 94.3633 346.654C94.1719 346.759 93.9622 346.812 93.7344 346.812C93.5521 346.812 93.3721 346.777 93.1943 346.709C93.0212 346.636 92.8776 346.506 92.7637 346.319C92.6497 346.128 92.5928 345.857 92.5928 345.506V341.199H90.4121V346.066C90.4121 346.65 90.5124 347.131 90.7129 347.509C90.9134 347.882 91.1937 348.16 91.5537 348.343C91.9183 348.521 92.3421 348.609 92.8252 348.609C93.2536 348.609 93.6136 348.539 93.9053 348.397C94.1969 348.252 94.4294 348.076 94.6025 347.871C94.7757 347.666 94.8942 347.468 94.958 347.276H95.0674V348.5H97.1797V341.199ZM99.1211 348.5H101.302V344.467C101.302 344.139 101.354 343.858 101.459 343.626C101.568 343.389 101.719 343.209 101.91 343.086C102.106 342.958 102.329 342.895 102.58 342.895C102.776 342.895 102.961 342.938 103.134 343.024C103.307 343.106 103.448 343.245 103.558 343.441C103.667 343.637 103.722 343.909 103.722 344.255V348.5H105.902V343.674C105.902 342.808 105.684 342.161 105.246 341.732C104.809 341.304 104.223 341.09 103.489 341.09C103.034 341.09 102.658 341.167 102.361 341.322C102.07 341.473 101.842 341.655 101.678 341.869C101.518 342.079 101.407 342.277 101.343 342.464H101.233V341.199H99.1211V348.5ZM107.926 348.5H110.106V341.199H107.926V348.5ZM107.714 339.114C107.714 339.442 107.832 339.707 108.069 339.907C108.311 340.103 108.625 340.201 109.013 340.201C109.405 340.201 109.719 340.103 109.956 339.907C110.193 339.707 110.312 339.442 110.312 339.114C110.312 338.782 110.191 338.515 109.949 338.314C109.712 338.114 109.4 338.014 109.013 338.014C108.621 338.014 108.306 338.114 108.069 338.314C107.832 338.515 107.714 338.782 107.714 339.114ZM112.725 341.309H111.562V342.942H112.677V346.422C112.677 346.928 112.763 347.336 112.937 347.646C113.114 347.955 113.395 348.181 113.777 348.322C114.165 348.459 114.668 348.527 115.288 348.527C115.543 348.527 115.783 348.516 116.006 348.493C116.234 348.47 116.389 348.452 116.471 348.438V346.873C116.407 346.878 116.313 346.884 116.19 346.894C116.072 346.898 115.947 346.9 115.814 346.9C115.482 346.9 115.233 346.839 115.069 346.716C114.91 346.588 114.83 346.363 114.83 346.039V342.942H116.43V341.309H114.83V339.504H112.725V341.309ZM124.893 341.199H122.582L121.235 346.723H121.146L119.841 341.199H117.441L119.868 348.466L119.841 348.603C119.8 348.917 119.677 349.147 119.472 349.293C119.267 349.439 118.959 349.512 118.549 349.512C118.439 349.512 118.323 349.507 118.2 349.498C118.077 349.489 117.986 349.478 117.927 349.464V350.968C118.041 350.995 118.207 351.016 118.426 351.029C118.649 351.048 118.859 351.057 119.055 351.057C119.93 351.057 120.632 350.865 121.16 350.482C121.689 350.104 122.119 349.478 122.452 348.603L122.623 348.151C122.705 347.924 122.817 347.591 122.958 347.153C123.104 346.716 123.277 346.194 123.478 345.588C123.678 344.982 123.897 344.307 124.134 343.564C124.371 342.822 124.624 342.033 124.893 341.199Z" fill="white"/>
</g>
<g filter="url(#filter3_i_157_1326)">
<rect x="166" y="274" width="140" height="140" rx="6" fill="white"/>
<path d="M205.555 347.194H201.275V344.385H205.302V343.134H201.275V340.475H205.555V339.169H199.73V348.5H205.555V347.194ZM211.789 348.5H213.525C213.498 348.445 213.423 348.327 213.3 348.145C213.181 347.962 213.035 347.741 212.862 347.481C212.694 347.222 212.514 346.951 212.322 346.668C212.135 346.381 211.958 346.107 211.789 345.848C211.62 345.588 211.475 345.367 211.352 345.185C211.233 345.002 211.158 344.884 211.126 344.829L213.532 341.274H211.844L210.285 343.831H210.224L208.713 341.274H206.936C206.967 341.329 207.043 341.45 207.161 341.637C207.28 341.819 207.423 342.038 207.592 342.293C207.76 342.548 207.938 342.817 208.125 343.1C208.312 343.382 208.49 343.651 208.658 343.906C208.827 344.161 208.97 344.382 209.089 344.569C209.207 344.752 209.283 344.868 209.314 344.918L206.983 348.5H208.631L210.183 345.937H210.244L211.789 348.5ZM214.667 345.39C214.667 346.055 214.792 346.629 215.043 347.112C215.298 347.595 215.658 347.969 216.123 348.233C216.588 348.493 217.142 348.623 217.784 348.623C218.431 348.623 218.967 348.518 219.391 348.309C219.819 348.094 220.14 347.814 220.354 347.468C220.573 347.117 220.689 346.739 220.703 346.333H219.268C219.231 346.524 219.16 346.7 219.056 346.859C218.955 347.014 218.805 347.137 218.604 347.229C218.409 347.32 218.149 347.365 217.825 347.365C217.315 347.365 216.914 347.188 216.622 346.832C216.335 346.477 216.191 345.996 216.191 345.39V344.378C216.191 343.781 216.33 343.305 216.608 342.949C216.886 342.594 217.29 342.416 217.818 342.416C218.156 342.416 218.422 342.475 218.618 342.594C218.814 342.712 218.958 342.858 219.049 343.031C219.145 343.2 219.204 343.362 219.227 343.517H220.662C220.653 343.102 220.537 342.717 220.313 342.361C220.09 342.001 219.767 341.71 219.343 341.486C218.924 341.263 218.404 341.151 217.784 341.151C217.151 341.151 216.599 341.284 216.13 341.548C215.665 341.812 215.305 342.184 215.05 342.662C214.795 343.136 214.667 343.697 214.667 344.344V345.39ZM222.699 348.5H224.21V341.274H222.699V348.5ZM222.453 339.101C222.453 339.369 222.547 339.59 222.733 339.764C222.92 339.932 223.157 340.017 223.444 340.017C223.745 340.017 223.989 339.932 224.176 339.764C224.367 339.59 224.463 339.369 224.463 339.101C224.463 338.827 224.367 338.604 224.176 338.431C223.989 338.257 223.745 338.171 223.444 338.171C223.157 338.171 222.92 338.257 222.733 338.431C222.547 338.604 222.453 338.827 222.453 339.101ZM227.095 341.322H225.974V342.512H227.074V346.47C227.074 346.948 227.138 347.342 227.266 347.652C227.393 347.958 227.619 348.183 227.942 348.329C228.271 348.475 228.726 348.548 229.31 348.548C229.483 348.548 229.672 348.539 229.877 348.521C230.087 348.507 230.221 348.495 230.28 348.486V347.324C230.221 347.329 230.132 347.336 230.014 347.345C229.9 347.349 229.79 347.352 229.686 347.352C229.28 347.352 228.993 347.283 228.824 347.146C228.66 347.005 228.578 346.739 228.578 346.347V342.512H230.191V341.322H228.578V339.518H227.095V341.322ZM234.936 348.623C235.423 348.623 235.845 348.557 236.2 348.425C236.56 348.293 236.856 348.124 237.089 347.919C237.326 347.709 237.506 347.486 237.629 347.249C237.757 347.012 237.832 346.789 237.854 346.579H236.371C236.335 346.729 236.253 346.868 236.125 346.996C236.002 347.119 235.838 347.219 235.633 347.297C235.428 347.37 235.193 347.406 234.929 347.406C234.396 347.406 233.981 347.235 233.685 346.894C233.393 346.547 233.247 346.117 233.247 345.602V345.246H237.937V344.398C237.937 343.733 237.804 343.159 237.54 342.676C237.276 342.193 236.911 341.819 236.446 341.555C235.986 341.286 235.453 341.151 234.847 341.151C234.259 341.151 233.73 341.281 233.261 341.541C232.796 341.796 232.427 342.165 232.153 342.648C231.88 343.132 231.743 343.715 231.743 344.398V345.376C231.743 346.055 231.873 346.638 232.133 347.126C232.393 347.609 232.762 347.98 233.24 348.24C233.719 348.495 234.284 348.623 234.936 348.623ZM233.247 344.255C233.247 344.241 233.247 344.228 233.247 344.214C233.247 344.196 233.247 344.177 233.247 344.159C233.247 343.795 233.313 343.478 233.445 343.209C233.577 342.936 233.764 342.724 234.006 342.573C234.247 342.423 234.53 342.348 234.854 342.348C235.177 342.348 235.457 342.423 235.694 342.573C235.936 342.724 236.123 342.936 236.255 343.209C236.387 343.478 236.453 343.795 236.453 344.159C236.453 344.177 236.453 344.196 236.453 344.214C236.453 344.228 236.453 344.241 236.453 344.255H233.247ZM239.851 348.5H241.368V344.002C241.368 343.678 241.43 343.4 241.553 343.168C241.676 342.936 241.844 342.756 242.059 342.628C242.273 342.5 242.517 342.437 242.79 342.437C243.068 342.437 243.31 342.496 243.515 342.614C243.724 342.733 243.888 342.904 244.007 343.127C244.125 343.346 244.185 343.612 244.185 343.927V348.5H245.661V344.016C245.661 343.697 245.725 343.419 245.853 343.182C245.98 342.945 246.153 342.762 246.372 342.635C246.591 342.503 246.835 342.437 247.104 342.437C247.395 342.437 247.641 342.493 247.842 342.607C248.047 342.721 248.204 342.888 248.313 343.106C248.423 343.321 248.478 343.58 248.478 343.886V348.5H249.988V343.435C249.988 342.724 249.781 342.168 249.366 341.767C248.951 341.366 248.375 341.165 247.637 341.165C247.227 341.165 246.873 341.231 246.577 341.363C246.285 341.491 246.046 341.66 245.859 341.869C245.673 342.074 245.534 342.291 245.442 342.519H245.381C245.303 342.263 245.178 342.033 245.005 341.828C244.832 341.623 244.608 341.461 244.335 341.343C244.066 341.224 243.749 341.165 243.385 341.165C242.943 341.165 242.587 341.236 242.318 341.377C242.054 341.518 241.851 341.689 241.71 341.89C241.573 342.086 241.475 342.272 241.416 342.45H241.341V341.274H239.851V348.5ZM255.088 348.623C255.576 348.623 255.997 348.557 256.353 348.425C256.713 348.293 257.009 348.124 257.241 347.919C257.478 347.709 257.658 347.486 257.781 347.249C257.909 347.012 257.984 346.789 258.007 346.579H256.523C256.487 346.729 256.405 346.868 256.277 346.996C256.154 347.119 255.99 347.219 255.785 347.297C255.58 347.37 255.345 347.406 255.081 347.406C254.548 347.406 254.133 347.235 253.837 346.894C253.545 346.547 253.399 346.117 253.399 345.602V345.246H258.089V344.398C258.089 343.733 257.957 343.159 257.692 342.676C257.428 342.193 257.063 341.819 256.599 341.555C256.138 341.286 255.605 341.151 254.999 341.151C254.411 341.151 253.882 341.281 253.413 341.541C252.948 341.796 252.579 342.165 252.306 342.648C252.032 343.132 251.896 343.715 251.896 344.398V345.376C251.896 346.055 252.025 346.638 252.285 347.126C252.545 347.609 252.914 347.98 253.393 348.24C253.871 348.495 254.436 348.623 255.088 348.623ZM253.399 344.255C253.399 344.241 253.399 344.228 253.399 344.214C253.399 344.196 253.399 344.177 253.399 344.159C253.399 343.795 253.465 343.478 253.598 343.209C253.73 342.936 253.917 342.724 254.158 342.573C254.4 342.423 254.682 342.348 255.006 342.348C255.329 342.348 255.61 342.423 255.847 342.573C256.088 342.724 256.275 342.936 256.407 343.209C256.539 343.478 256.605 343.795 256.605 344.159C256.605 344.177 256.605 344.196 256.605 344.214C256.605 344.228 256.605 344.241 256.605 344.255H253.399ZM260.003 348.5H261.521V344.487C261.521 344.095 261.584 343.747 261.712 343.441C261.844 343.136 262.035 342.897 262.286 342.724C262.541 342.546 262.854 342.457 263.223 342.457C263.51 342.457 263.76 342.516 263.975 342.635C264.189 342.749 264.355 342.924 264.474 343.161C264.597 343.394 264.658 343.694 264.658 344.063V348.5H266.176V343.619C266.176 342.794 265.95 342.179 265.499 341.773C265.052 341.368 264.467 341.165 263.742 341.165C263.255 341.165 262.863 341.243 262.566 341.397C262.27 341.552 262.045 341.739 261.89 341.958C261.739 342.177 261.632 342.382 261.568 342.573H261.493V341.274H260.003V348.5ZM268.862 341.322H267.741V342.512H268.842V346.47C268.842 346.948 268.906 347.342 269.033 347.652C269.161 347.958 269.386 348.183 269.71 348.329C270.038 348.475 270.494 348.548 271.077 348.548C271.25 348.548 271.439 348.539 271.645 348.521C271.854 348.507 271.989 348.495 272.048 348.486V347.324C271.989 347.329 271.9 347.336 271.781 347.345C271.667 347.349 271.558 347.352 271.453 347.352C271.048 347.352 270.76 347.283 270.592 347.146C270.428 347.005 270.346 346.739 270.346 346.347V342.512H271.959V341.322H270.346V339.518H268.862V341.322Z" fill="#2F2F2F"/>
</g>
<g filter="url(#filter4_d_157_1326)">
<rect x="16" y="443" width="288" height="42" rx="6" fill="url(#paint1_linear_157_1326)" shape-rendering="crispEdges"/>
<path d="M143.602 466.046C143.629 466.42 143.722 466.768 143.882 467.092C144.046 467.411 144.276 467.691 144.572 467.933C144.868 468.17 145.226 468.354 145.646 468.486C146.065 468.618 146.546 468.685 147.088 468.685C147.84 468.685 148.485 468.566 149.022 468.329C149.56 468.092 149.973 467.759 150.26 467.331C150.547 466.898 150.69 466.395 150.69 465.82C150.69 465.333 150.592 464.92 150.396 464.583C150.205 464.246 149.925 463.968 149.556 463.749C149.187 463.53 148.74 463.357 148.216 463.229L146.691 462.854C146.277 462.753 145.958 462.603 145.734 462.402C145.511 462.197 145.399 461.942 145.399 461.637C145.399 461.222 145.561 460.885 145.885 460.625C146.213 460.365 146.65 460.235 147.197 460.235C147.544 460.235 147.847 460.29 148.106 460.399C148.366 460.504 148.576 460.652 148.735 460.844C148.899 461.031 149.007 461.249 149.057 461.5H150.561C150.524 461.021 150.365 460.591 150.082 460.208C149.804 459.825 149.421 459.522 148.934 459.299C148.451 459.076 147.876 458.964 147.211 458.964C146.555 458.964 145.974 459.08 145.468 459.312C144.962 459.545 144.563 459.868 144.271 460.283C143.984 460.698 143.841 461.179 143.841 461.726C143.841 462.168 143.932 462.557 144.114 462.895C144.297 463.232 144.559 463.512 144.9 463.735C145.242 463.959 145.65 464.127 146.124 464.241L147.655 464.624C148.161 464.747 148.535 464.913 148.776 465.123C149.018 465.328 149.139 465.606 149.139 465.957C149.139 466.249 149.061 466.504 148.906 466.723C148.756 466.937 148.537 467.105 148.25 467.229C147.963 467.347 147.614 467.406 147.204 467.406C146.917 467.406 146.653 467.374 146.411 467.311C146.174 467.242 145.965 467.149 145.782 467.03C145.604 466.907 145.459 466.764 145.345 466.6C145.235 466.431 145.162 466.246 145.126 466.046H143.602ZM155.441 468.623C155.929 468.623 156.351 468.557 156.706 468.425C157.066 468.293 157.362 468.124 157.595 467.919C157.832 467.709 158.012 467.486 158.135 467.249C158.262 467.012 158.338 466.789 158.36 466.579H156.877C156.84 466.729 156.758 466.868 156.631 466.996C156.508 467.119 156.344 467.219 156.139 467.297C155.934 467.37 155.699 467.406 155.435 467.406C154.901 467.406 154.487 467.235 154.19 466.894C153.899 466.547 153.753 466.117 153.753 465.602V465.246H158.442V464.398C158.442 463.733 158.31 463.159 158.046 462.676C157.782 462.193 157.417 461.819 156.952 461.555C156.492 461.286 155.959 461.151 155.353 461.151C154.765 461.151 154.236 461.281 153.767 461.541C153.302 461.796 152.933 462.165 152.659 462.648C152.386 463.132 152.249 463.715 152.249 464.398V465.376C152.249 466.055 152.379 466.638 152.639 467.126C152.898 467.609 153.268 467.98 153.746 468.24C154.225 468.495 154.79 468.623 155.441 468.623ZM153.753 464.255C153.753 464.241 153.753 464.228 153.753 464.214C153.753 464.196 153.753 464.177 153.753 464.159C153.753 463.795 153.819 463.478 153.951 463.209C154.083 462.936 154.27 462.724 154.512 462.573C154.753 462.423 155.036 462.348 155.359 462.348C155.683 462.348 155.963 462.423 156.2 462.573C156.442 462.724 156.629 462.936 156.761 463.209C156.893 463.478 156.959 463.795 156.959 464.159C156.959 464.177 156.959 464.196 156.959 464.214C156.959 464.228 156.959 464.241 156.959 464.255H153.753ZM160.356 468.5H161.874V464.487C161.874 464.095 161.938 463.747 162.065 463.441C162.198 463.136 162.389 462.897 162.64 462.724C162.895 462.546 163.207 462.457 163.576 462.457C163.863 462.457 164.114 462.516 164.328 462.635C164.542 462.749 164.709 462.924 164.827 463.161C164.95 463.394 165.012 463.694 165.012 464.063V468.5H166.529V463.619C166.529 462.794 166.304 462.179 165.853 461.773C165.406 461.368 164.82 461.165 164.096 461.165C163.608 461.165 163.216 461.243 162.92 461.397C162.624 461.552 162.398 461.739 162.243 461.958C162.093 462.177 161.986 462.382 161.922 462.573H161.847V461.274H160.356V468.5ZM171.205 461.179C170.654 461.179 170.171 461.304 169.756 461.555C169.341 461.805 169.018 462.161 168.785 462.621C168.557 463.081 168.443 463.631 168.443 464.269V465.506C168.443 466.139 168.555 466.688 168.778 467.153C169.006 467.618 169.325 467.976 169.735 468.227C170.146 468.473 170.629 468.596 171.185 468.596C171.449 468.596 171.697 468.564 171.93 468.5C172.162 468.441 172.374 468.356 172.565 468.247C172.757 468.138 172.919 468.008 173.051 467.857C173.183 467.702 173.274 467.532 173.324 467.345H173.399V468.5H174.876V458.677H173.358V462.361H173.283C173.192 462.115 173.046 461.903 172.846 461.726C172.65 461.548 172.413 461.413 172.135 461.322C171.857 461.227 171.547 461.179 171.205 461.179ZM171.629 462.423C171.966 462.423 172.262 462.5 172.518 462.655C172.777 462.81 172.982 463.027 173.133 463.305C173.283 463.583 173.358 463.909 173.358 464.282V465.376C173.358 465.786 173.288 466.139 173.146 466.436C173.005 466.727 172.807 466.953 172.552 467.112C172.301 467.272 172.005 467.352 171.663 467.352C171.317 467.352 171.018 467.272 170.768 467.112C170.517 466.948 170.323 466.711 170.187 466.401C170.054 466.091 169.988 465.718 169.988 465.28V464.487C169.988 464.05 170.054 463.678 170.187 463.373C170.323 463.063 170.512 462.828 170.754 462.669C171 462.505 171.292 462.423 171.629 462.423Z" fill="white"/>
</g>
<path d="M145.23 526.5H148.881C149.528 526.5 150.095 526.397 150.583 526.192C151.071 525.983 151.449 525.682 151.718 525.29C151.991 524.898 152.128 524.426 152.128 523.875C152.128 523.424 152.039 523.036 151.861 522.713C151.684 522.385 151.44 522.127 151.13 521.94C150.825 521.749 150.474 521.631 150.077 521.585V521.517C150.387 521.43 150.658 521.296 150.891 521.113C151.123 520.931 151.303 520.703 151.431 520.43C151.563 520.152 151.629 519.83 151.629 519.466C151.629 518.75 151.385 518.19 150.897 517.784C150.414 517.374 149.765 517.169 148.949 517.169H145.23V526.5ZM146.775 518.399H148.621C149.086 518.399 149.446 518.518 149.701 518.755C149.961 518.987 150.091 519.311 150.091 519.726C150.091 520.031 150.018 520.288 149.872 520.498C149.731 520.703 149.514 520.858 149.223 520.963C148.931 521.063 148.553 521.113 148.088 521.113H146.775V518.399ZM146.775 522.282H148.751C149.134 522.282 149.46 522.344 149.729 522.467C149.997 522.585 150.2 522.761 150.337 522.993C150.478 523.221 150.549 523.497 150.549 523.82C150.549 524.312 150.369 524.677 150.009 524.914C149.653 525.151 149.07 525.27 148.259 525.27H146.775V522.282ZM155.977 526.609C156.337 526.609 156.646 526.562 156.906 526.466C157.171 526.366 157.392 526.236 157.569 526.076C157.747 525.917 157.888 525.746 157.993 525.563H158.062V526.5H159.504V521.605C159.504 521.004 159.376 520.525 159.121 520.17C158.866 519.814 158.524 519.559 158.096 519.404C157.667 519.245 157.196 519.165 156.681 519.165C156.229 519.165 155.833 519.213 155.491 519.309C155.154 519.404 154.869 519.543 154.637 519.726C154.409 519.903 154.231 520.118 154.104 520.368C153.98 520.614 153.908 520.888 153.885 521.188H155.327C155.368 521.024 155.439 520.883 155.539 520.765C155.639 520.642 155.778 520.546 155.956 520.478C156.134 520.405 156.359 520.368 156.633 520.368C157.048 520.368 157.378 520.468 157.624 520.669C157.87 520.865 157.993 521.17 157.993 521.585V522.262H156.168C155.334 522.262 154.698 522.46 154.261 522.856C153.828 523.248 153.611 523.763 153.611 524.401C153.611 525.076 153.83 525.614 154.268 526.015C154.71 526.411 155.279 526.609 155.977 526.609ZM156.441 525.434C156.104 525.434 155.801 525.345 155.532 525.167C155.268 524.985 155.136 524.704 155.136 524.326C155.136 524.021 155.236 523.77 155.437 523.574C155.642 523.378 155.965 523.28 156.407 523.28H157.993V524.06C157.993 524.324 157.923 524.559 157.781 524.764C157.645 524.969 157.46 525.133 157.228 525.256C156.995 525.374 156.733 525.434 156.441 525.434ZM161.411 523.39C161.411 524.055 161.536 524.629 161.787 525.112C162.042 525.595 162.402 525.969 162.867 526.233C163.332 526.493 163.886 526.623 164.528 526.623C165.175 526.623 165.711 526.518 166.135 526.309C166.563 526.094 166.884 525.814 167.099 525.468C167.317 525.117 167.434 524.739 167.447 524.333H166.012C165.975 524.524 165.905 524.7 165.8 524.859C165.7 525.014 165.549 525.137 165.349 525.229C165.153 525.32 164.893 525.365 164.569 525.365C164.059 525.365 163.658 525.188 163.366 524.832C163.079 524.477 162.936 523.996 162.936 523.39V522.378C162.936 521.781 163.075 521.305 163.353 520.949C163.631 520.594 164.034 520.416 164.562 520.416C164.9 520.416 165.166 520.475 165.362 520.594C165.558 520.712 165.702 520.858 165.793 521.031C165.889 521.2 165.948 521.362 165.971 521.517H167.406C167.397 521.102 167.281 520.717 167.058 520.361C166.834 520.001 166.511 519.71 166.087 519.486C165.668 519.263 165.148 519.151 164.528 519.151C163.895 519.151 163.343 519.284 162.874 519.548C162.409 519.812 162.049 520.184 161.794 520.662C161.539 521.136 161.411 521.697 161.411 522.344V523.39ZM170.817 523.916L171.405 523.294L173.668 526.5H175.459L172.54 522.405L175.274 519.274H173.545L170.886 522.405H170.817V516.677H169.307V526.5H170.817V523.916Z" fill="#2F2F2F"/>
<rect x="16.5" y="501.5" width="287" height="41" rx="5.5" stroke="#359D9E"/>
<defs>
<filter id="filter0_i_157_1326" x="14" y="124" width="140" height="140" filterUnits="userSpaceOnUse" color-interpolation-filters="sRGB">
<feFlood flood-opacity="0" result="BackgroundImageFix"/>
<feBlend mode="normal" in="SourceGraphic" in2="BackgroundImageFix" result="shape"/>
<feColorMatrix in="SourceAlpha" type="matrix" values="0 0 0 0 0 0 0 0 0 0 0 0 0 0 0 0 0 0 127 0" result="hardAlpha"/>
<feOffset/>
<feGaussianBlur stdDeviation="4"/>
<feComposite in2="hardAlpha" operator="arithmetic" k2="-1" k3="1"/>
<feColorMatrix type="matrix" values="0 0 0 0 0 0 0 0 0 0 0 0 0 0 0 0 0 0 0.13 0"/>
<feBlend mode="normal" in2="shape" result="effect1_innerShadow_157_1326"/>
</filter>
<filter id="filter1_i_157_1326" x="166" y="124" width="140" height="140" filterUnits="userSpaceOnUse" color-interpolation-filters="sRGB">
<feFlood flood-opacity="0" result="BackgroundImageFix"/>
<feBlend mode="normal" in="SourceGraphic" in2="BackgroundImageFix" result="shape"/>
<feColorMatrix in="SourceAlpha" type="matrix" values="0 0 0 0 0 0 0 0 0 0 0 0 0 0 0 0 0 0 127 0" result="hardAlpha"/>
<feOffset/>
<feGaussianBlur stdDeviation="4"/>
<feComposite in2="hardAlpha" operator="arithmetic" k2="-1" k3="1"/>
<feColorMatrix type="matrix" values="0 0 0 0 0 0 0 0 0 0 0 0 0 0 0 0 0 0 0.13 0"/>
<feBlend mode="normal" in2="shape" result="effect1_innerShadow_157_1326"/>
</filter>
<filter id="filter2_d_157_1326" x="0" y="260" width="168" height="168" filterUnits="userSpaceOnUse" color-interpolation-filters="sRGB">
<feFlood flood-opacity="0" result="BackgroundImageFix"/>
<feColorMatrix in="SourceAlpha" type="matrix" values="0 0 0 0 0 0 0 0 0 0 0 0 0 0 0 0 0 0 127 0" result="hardAlpha"/>
<feMorphology radius="1" operator="erode" in="SourceAlpha" result="effect1_dropShadow_157_1326"/>
<feOffset/>
<feGaussianBlur stdDeviation="7.5"/>
<feComposite in2="hardAlpha" operator="out"/>
<feColorMatrix type="matrix" values="0 0 0 0 0 0 0 0 0 0 0 0 0 0 0 0 0 0 0.2 0"/>
<feBlend mode="normal" in2="BackgroundImageFix" result="effect1_dropShadow_157_1326"/>
<feBlend mode="normal" in="SourceGraphic" in2="effect1_dropShadow_157_1326" result="shape"/>
</filter>
<filter id="filter3_i_157_1326" x="166" y="274" width="140" height="140" filterUnits="userSpaceOnUse" color-interpolation-filters="sRGB">
<feFlood flood-opacity="0" result="BackgroundImageFix"/>
<feBlend mode="normal" in="SourceGraphic" in2="BackgroundImageFix" result="shape"/>
<feColorMatrix in="SourceAlpha" type="matrix" values="0 0 0 0 0 0 0 0 0 0 0 0 0 0 0 0 0 0 127 0" result="hardAlpha"/>
<feOffset/>
<feGaussianBlur stdDeviation="4"/>
<feComposite in2="hardAlpha" operator="arithmetic" k2="-1" k3="1"/>
<feColorMatrix type="matrix" values="0 0 0 0 0 0 0 0 0 0 0 0 0 0 0 0 0 0 0.13 0"/>
<feBlend mode="normal" in2="shape" result="effect1_innerShadow_157_1326"/>
</filter>
<filter id="filter4_d_157_1326" x="6" y="433" width="308" height="62" filterUnits="userSpaceOnUse" color-interpolation-filters="sRGB">
<feFlood flood-opacity="0" result="BackgroundImageFix"/>
<feColorMatrix in="SourceAlpha" type="matrix" values="0 0 0 0 0 0 0 0 0 0 0 0 0 0 0 0 0 0 127 0" result="hardAlpha"/>
<feMorphology radius="3" operator="dilate" in="SourceAlpha" result="effect1_dropShadow_157_1326"/>
<feOffset/>
<feGaussianBlur stdDeviation="3.5"/>
<feComposite in2="hardAlpha" operator="out"/>
<feColorMatrix type="matrix" values="0 0 0 0 0 0 0 0 0 0 0 0 0 0 0 0 0 0 0.12 0"/>
<feBlend mode="normal" in2="BackgroundImageFix" result="effect1_dropShadow_157_1326"/>
<feBlend mode="normal" in="SourceGraphic" in2="effect1_dropShadow_157_1326" result="shape"/>
</filter>
<linearGradient id="paint0_linear_157_1326" x1="14" y1="274" x2="150" y2="414" gradientUnits="userSpaceOnUse">
<stop stop-color="#215273"/>
<stop offset="1" stop-color="#359D9E"/>
</linearGradient>
<linearGradient id="paint1_linear_157_1326" x1="85.5" y1="395" x2="176" y2="617.5" gradientUnits="userSpaceOnUse">
<stop stop-color="#215273"/>
<stop offset="1" stop-color="#359D9E"/>
</linearGradient>
</defs>
</svg>
