<?xml version="1.0" encoding="utf-8"?>
<!-- Generator: Adobe Illustrator 22.1.0, SVG Export Plug-In . SVG Version: 6.00 Build 0)  -->
<svg version="1.1" id="Layer_1" xmlns="http://www.w3.org/2000/svg" xmlns:xlink="http://www.w3.org/1999/xlink" x="0px" y="0px"
	 viewBox="0 0 47 44.9" style="enable-background:new 0 0 47 44.9;" xml:space="preserve">
<style type="text/css">
	.st0{fill:#282828;}
</style>
<title>icons8-linkedin</title>
<path class="st0" d="M10.2,44.9H0V14.3h10.2V44.9z M5.1,10.2C2.3,10.2,0,7.9,0,5.1S2.3,0,5.1,0s5.1,2.3,5.1,5.1S7.9,10.2,5.1,10.2z
	 M47,44.9h-9.8V30c0-3.6,0-8.2-5.1-8.2s-5.9,3.9-5.9,7.9v15.2h-9.8V14.3h9.4v4.1h0.1c2-3.2,5.5-5.1,9.3-4.9C45.1,13.4,47,19.8,47,28
	V44.9z"/>
</svg>
