<svg width="152" height="42" viewBox="0 0 152 42" fill="none" xmlns="http://www.w3.org/2000/svg">
<path d="M45.9591 10.2853H51.0014V7.49949H42.8947V27H45.9591V18.9491H49.9149V16.1633H45.9591V10.2853ZM58.2738 7.49949H53.7887L50.6686 27H53.4823L54.0116 23.4621H57.7724L58.3017 27H61.3939L58.2738 7.49949ZM55.878 10.9539L57.3545 20.8156H54.4016L55.878 10.9539ZM69.1725 27H72.3205L68.0861 16.1633L72.3205 7.49949H69.5068L65.2446 16.3583V7.49949H62.1802V27H65.2446V20.732L66.1639 19.1162L69.1725 27ZM72.8263 7.49949V22.3477C72.8263 25.4678 74.3863 27.2507 77.395 27.2507C80.4036 27.2507 81.9637 25.4678 81.9637 22.3477V7.49949H79.0664V22.5427C79.0664 23.9356 78.4536 24.4371 77.4785 24.4371C76.5035 24.4371 75.8906 23.9356 75.8906 22.5427V7.49949H72.8263ZM83.4244 27H91.5311V24.2142H86.4888V7.49949H83.4244V27ZM90.0551 10.2853H93.2587V27H96.3231V10.2853H99.5267V7.49949H90.0551V10.2853ZM103.158 27H106.222V20.537L110.095 7.49949H107.17L104.83 16.3862L102.489 7.49949H99.2858L103.158 20.537V27Z" fill="white"/>
<path d="M40.7047 33H41.8547V39H42.9547V33H44.1047V32H40.7047V33ZM45.4782 36H46.7282V39H47.8482V32H46.7282V35H45.4782V32H44.3782V39H45.4782V36ZM49.5158 33H51.4158V32H48.4158V39H51.4158V38H49.5158V35.95H51.0258V34.95H49.5158V33ZM54.8102 32H53.1902V39H54.2902V36.37H54.8102C55.9102 36.37 56.4502 35.76 56.4502 34.64V33.73C56.4502 32.61 55.9102 32 54.8102 32ZM54.8102 33C55.1602 33 55.3502 33.16 55.3502 33.66V34.71C55.3502 35.21 55.1602 35.37 54.8102 35.37H54.2902V33H54.8102ZM57.7397 33.61C57.7397 33.11 57.9597 32.92 58.3097 32.92C58.6597 32.92 58.8797 33.11 58.8797 33.61V37.39C58.8797 37.89 58.6597 38.08 58.3097 38.08C57.9597 38.08 57.7397 37.89 57.7397 37.39V33.61ZM56.6397 37.32C56.6397 38.44 57.2297 39.08 58.3097 39.08C59.3897 39.08 59.9797 38.44 59.9797 37.32V33.68C59.9797 32.56 59.3897 31.92 58.3097 31.92C57.2297 31.92 56.6397 32.56 56.6397 33.68V37.32ZM63.3045 39H64.7645L65.5445 32H64.5845L64.0145 37.56L63.4645 32H62.4045L61.8745 37.52L61.2845 32H60.2145L60.9945 39H62.5045L62.9045 35.27L63.3045 39ZM66.9693 33H68.8693V32H65.8693V39H68.8693V38H66.9693V35.95H68.4793V34.95H66.9693V33ZM72.7409 39C72.6309 38.74 72.6209 38.49 72.6209 38.15V37.07C72.6209 36.34 72.4409 35.81 71.8909 35.58C72.3809 35.35 72.6109 34.88 72.6109 34.16V33.61C72.6109 32.53 72.1209 32 70.9809 32H69.3209V39H70.4209V36.15H70.8009C71.3009 36.15 71.5209 36.39 71.5209 37.04V38.14C71.5209 38.71 71.5609 38.82 71.6209 39H72.7409ZM70.9509 33C71.3409 33 71.5109 33.22 71.5109 33.72V34.41C71.5109 34.97 71.2609 35.15 70.8509 35.15H70.4209V33H70.9509ZM75.4471 33.61C75.4471 33.11 75.6671 32.92 76.0171 32.92C76.3671 32.92 76.5871 33.11 76.5871 33.61V37.39C76.5871 37.89 76.3671 38.08 76.0171 38.08C75.6671 38.08 75.4471 37.89 75.4471 37.39V33.61ZM74.3471 37.32C74.3471 38.44 74.9371 39.08 76.0171 39.08C77.0971 39.08 77.6871 38.44 77.6871 37.32V33.68C77.6871 32.56 77.0971 31.92 76.0171 31.92C74.9371 31.92 74.3471 32.56 74.3471 33.68V37.32ZM79.272 33H81.082V32H78.172V39H79.272V36.11H80.692V35.11H79.272V33ZM82.5622 33.68C82.5622 35.68 84.7122 35.95 84.7122 37.39C84.7122 37.89 84.4922 38.07 84.1422 38.07C83.7922 38.07 83.5722 37.89 83.5722 37.39V36.64H82.5322V37.32C82.5322 38.44 83.0922 39.08 84.1722 39.08C85.2522 39.08 85.8122 38.44 85.8122 37.32C85.8122 35.32 83.6622 35.05 83.6622 33.61C83.6622 33.11 83.8622 32.92 84.2122 32.92C84.5622 32.92 84.7622 33.11 84.7622 33.61V34.05H85.8022V33.68C85.8022 32.56 85.2522 31.92 84.1822 31.92C83.1122 31.92 82.5622 32.56 82.5622 33.68ZM85.9124 33H87.0624V39H88.1624V33H89.3124V32H85.9124V33ZM89.5359 32V37.33C89.5359 38.45 90.0959 39.09 91.1759 39.09C92.2559 39.09 92.8159 38.45 92.8159 37.33V32H91.7759V37.4C91.7759 37.9 91.5559 38.08 91.2059 38.08C90.8559 38.08 90.6359 37.9 90.6359 37.4V32H89.5359ZM93.3403 39H95.0803C96.1803 39 96.7203 38.39 96.7203 37.27V33.73C96.7203 32.61 96.1803 32 95.0803 32H93.3403V39ZM95.0603 33C95.4103 33 95.6203 33.18 95.6203 33.68V37.32C95.6203 37.82 95.4103 38 95.0603 38H94.4403V33H95.0603ZM98.2923 33H100.192V32H97.1923V39H100.192V38H98.2923V35.95H99.8023V34.95H98.2923V33ZM102.994 39H104.124V32H103.144V36.19L102.014 32H100.634V39H101.624V33.93L102.994 39ZM104.382 33H105.532V39H106.632V33H107.782V32H104.382V33ZM107.915 33.68C107.915 35.68 110.065 35.95 110.065 37.39C110.065 37.89 109.845 38.07 109.495 38.07C109.145 38.07 108.925 37.89 108.925 37.39V36.64H107.885V37.32C107.885 38.44 108.445 39.08 109.525 39.08C110.605 39.08 111.165 38.44 111.165 37.32C111.165 35.32 109.015 35.05 109.015 33.61C109.015 33.11 109.215 32.92 109.565 32.92C109.915 32.92 110.115 33.11 110.115 33.61V34.05H111.155V33.68C111.155 32.56 110.605 31.92 109.535 31.92C108.465 31.92 107.915 32.56 107.915 33.68Z" fill="#F51E5F"/>
</svg>
